<svg id="Camada_1" data-name="Camada 1" xmlns="http://www.w3.org/2000/svg" xmlns:xlink="http://www.w3.org/1999/xlink" viewBox="0 0 1368 250.39"><defs><style>.cls-1{fill:#262e33;}.cls-2{fill:#354347;}.cls-3{stroke:#000;fill:url(#Gradiente_sem_nome_4);}.cls-10,.cls-11,.cls-12,.cls-13,.cls-3{stroke-miterlimit:10;}.cls-4{fill:#fff;}.cls-5{fill:#1a1a1a;}.cls-6{fill:#333;}.cls-7{fill:#fbb03b;}.cls-8{fill:#4d4d4d;}.cls-9{fill:#999;}.cls-10,.cls-11,.cls-12,.cls-13{stroke:#161616;}.cls-10{fill:url(#Gradiente_sem_nome_85);}.cls-11{fill:url(#Gradiente_sem_nome_85-2);}.cls-12{fill:url(#Gradiente_sem_nome_85-3);}.cls-13{fill:url(#Gradiente_sem_nome_85-4);}.cls-14{fill:#9b0000;}.cls-15{fill:#0000ba;}.cls-16{fill:red;}.cls-17{fill:#2828e8;}</style><linearGradient id="Gradiente_sem_nome_4" x1="543.67" y1="70.43" x2="673.65" y2="70.43" gradientUnits="userSpaceOnUse"><stop offset="0" stop-color="#b3b3b3"/><stop offset="0.22" stop-color="#e6e6e6"/><stop offset="0.26" stop-color="#ccc"/><stop offset="0.46" stop-color="#999"/><stop offset="0.46" stop-color="#b3b3b3"/><stop offset="1" stop-color="#b3b3b3"/></linearGradient><radialGradient id="Gradiente_sem_nome_85" cx="470.67" cy="59.62" r="16.5" gradientUnits="userSpaceOnUse"><stop offset="0"/><stop offset="0.43" stop-color="#1a1a1a"/><stop offset="0.52" stop-color="#333"/><stop offset="1"/></radialGradient><radialGradient id="Gradiente_sem_nome_85-2" cx="470.67" cy="202.11" r="16.5" xlink:href="#Gradiente_sem_nome_85"/><radialGradient id="Gradiente_sem_nome_85-3" cx="470.67" cy="102.27" r="16.5" xlink:href="#Gradiente_sem_nome_85"/><radialGradient id="Gradiente_sem_nome_85-4" cx="470.67" cy="157.15" r="16.5" xlink:href="#Gradiente_sem_nome_85"/></defs><path class="cls-1" d="M0,0V250.39H1368V0ZM36.44,196.53H19.08a8.13,8.13,0,0,1,0-16.25H36.44a8.13,8.13,0,1,1,0,16.25Zm1313.75,0h-17.36a8.13,8.13,0,1,1,0-16.25h17.36a8.13,8.13,0,0,1,0,16.25ZM1332.83,55.09h17.36a8.13,8.13,0,0,1,0,16.25h-17.36a8.13,8.13,0,1,1,0-16.25Zm-1313.75,0H36.44a8.13,8.13,0,1,1,0,16.25H19.08a8.13,8.13,0,0,1,0-16.25Z"/><rect x="53.1" width="1.68" height="250.39"/><rect class="cls-2" x="49.35" width="2.75" height="250.39"/><rect x="55.17" width="0.9" height="250.39"/><rect x="1313.18" width="1.68" height="250.39"/><rect class="cls-2" x="1315.86" width="2.75" height="250.39"/><rect x="1311.88" width="0.9" height="250.39"/><rect x="91" y="33.43" width="15.33" height="88.33" rx="7.67"/><rect x="91" y="136.12" width="15.33" height="88.33" rx="7.67"/><rect x="120.06" y="33.43" width="15.33" height="88.33" rx="7.67"/><rect x="120.06" y="136.12" width="15.33" height="88.33" rx="7.67"/><rect x="149.12" y="33.43" width="15.33" height="88.33" rx="7.67"/><rect x="149.12" y="136.12" width="15.33" height="88.33" rx="7.67"/><rect x="178.18" y="33.43" width="15.33" height="88.33" rx="7.67"/><rect x="178.18" y="136.12" width="15.33" height="88.33" rx="7.67"/><rect x="207.25" y="33.43" width="15.33" height="88.33" rx="7.67"/><rect x="207.25" y="136.12" width="15.33" height="88.33" rx="7.67"/><rect x="236.31" y="33.43" width="15.33" height="88.33" rx="7.67"/><rect x="236.31" y="136.12" width="15.33" height="88.33" rx="7.67"/><rect x="265.37" y="33.43" width="15.33" height="88.33" rx="7.67"/><rect x="265.37" y="136.12" width="15.33" height="88.33" rx="7.67"/><rect x="294.43" y="33.43" width="15.33" height="88.33" rx="7.67"/><rect x="294.43" y="136.12" width="15.33" height="88.33" rx="7.67"/><rect x="323.49" y="33.43" width="15.33" height="88.33" rx="7.67"/><rect x="323.49" y="136.12" width="15.33" height="88.33" rx="7.67"/><rect x="499.28" y="136.12" width="15.33" height="88.33" rx="7.67"/><rect x="528.34" y="136.12" width="15.33" height="88.33" rx="7.67"/><rect x="557.4" y="136.12" width="15.33" height="88.33" rx="7.67"/><rect x="586.46" y="136.12" width="15.33" height="88.33" rx="7.67"/><rect x="615.53" y="136.12" width="15.33" height="88.33" rx="7.67"/><rect x="644.59" y="136.12" width="15.33" height="88.33" rx="7.67"/><rect x="673.65" y="136.12" width="15.33" height="88.33" rx="7.67"/><rect x="702.71" y="136.12" width="15.33" height="88.33" rx="7.67"/><rect x="731.77" y="33.43" width="15.33" height="88.33" rx="7.67"/><rect x="731.77" y="136.12" width="15.33" height="88.33" rx="7.67"/><rect x="760.79" y="33.43" width="15.33" height="88.33" rx="7.67"/><rect x="760.79" y="136.12" width="15.33" height="88.33" rx="7.67"/><rect x="789.85" y="33.43" width="15.33" height="88.33" rx="7.67"/><rect x="789.85" y="136.12" width="15.33" height="88.33" rx="7.67"/><rect x="818.91" y="33.43" width="15.33" height="88.33" rx="7.67"/><rect x="818.91" y="136.12" width="15.33" height="88.33" rx="7.67"/><rect x="847.97" y="33.43" width="15.33" height="88.33" rx="7.67"/><rect x="847.97" y="136.12" width="15.33" height="88.33" rx="7.67"/><rect x="877.03" y="33.43" width="15.33" height="88.33" rx="7.67"/><rect x="877.03" y="136.12" width="15.33" height="88.33" rx="7.67"/><rect x="906.09" y="33.43" width="15.33" height="88.33" rx="7.67"/><rect x="906.09" y="136.12" width="15.33" height="88.33" rx="7.67"/><rect x="935.15" y="33.43" width="15.33" height="88.33" rx="7.67"/><rect x="935.15" y="136.12" width="15.33" height="88.33" rx="7.67"/><rect class="cls-3" x="543.67" y="29.43" width="129.97" height="82"/><path class="cls-4" d="M1020.25,99l2-.19a2.41,2.41,0,0,0,.72,1.45,2.2,2.2,0,0,0,1.47.47,2.22,2.22,0,0,0,1.47-.42,1.23,1.23,0,0,0,.5-1,.92.92,0,0,0-.21-.61,1.6,1.6,0,0,0-.73-.43c-.24-.09-.78-.23-1.62-.44a5.57,5.57,0,0,1-2.28-1,2.61,2.61,0,0,1-.93-2,2.56,2.56,0,0,1,.44-1.43,2.71,2.71,0,0,1,1.25-1,5,5,0,0,1,2-.34,4.22,4.22,0,0,1,2.84.82,2.9,2.9,0,0,1,1,2.21l-2,.09a1.68,1.68,0,0,0-.56-1.11,2,2,0,0,0-1.28-.34,2.31,2.31,0,0,0-1.38.36.74.74,0,0,0-.32.62.77.77,0,0,0,.3.61,5.15,5.15,0,0,0,1.86.67,10.15,10.15,0,0,1,2.18.72,2.74,2.74,0,0,1,1.11,1,3.15,3.15,0,0,1-.08,3.21,2.87,2.87,0,0,1-1.35,1.12,5.73,5.73,0,0,1-2.18.37,4.37,4.37,0,0,1-2.92-.88A3.82,3.82,0,0,1,1020.25,99Z"/><path class="cls-4" d="M1039.14,102.27h-2.2l-.88-2.28h-4l-.83,2.28h-2.15l3.91-10h2.14Zm-3.73-4L1034,94.58l-1.35,3.72Z"/><path class="cls-4" d="M1039.92,91.67l.94-2H1043l-1.88,2Zm.23,10.6v-10h2v10Z"/><path class="cls-4" d="M1044.1,92.25h3.69a7.14,7.14,0,0,1,1.91.19,3.33,3.33,0,0,1,1.51.92,4.36,4.36,0,0,1,1,1.62,7.36,7.36,0,0,1,.33,2.37,6.49,6.49,0,0,1-.31,2.14,4.59,4.59,0,0,1-1.07,1.77,3.69,3.69,0,0,1-1.43.8,6.12,6.12,0,0,1-1.79.21h-3.8Zm2,1.69v6.64h1.51a5,5,0,0,0,1.22-.1,1.92,1.92,0,0,0,.82-.41,2.15,2.15,0,0,0,.53-1,6.41,6.41,0,0,0,.21-1.84,5.82,5.82,0,0,0-.21-1.78,2.4,2.4,0,0,0-.57-1,2,2,0,0,0-.94-.47,8.51,8.51,0,0,0-1.66-.1Z"/><path class="cls-4" d="M1063.25,102.27h-2.2l-.88-2.28h-4l-.83,2.28h-2.15l3.91-10h2.14Zm-3.73-4-1.38-3.72-1.35,3.72Z"/><path class="cls-4" d="M1073.76,100.48v1.79H1067a4.78,4.78,0,0,1,.66-1.92,12.62,12.62,0,0,1,2.16-2.4,13.46,13.46,0,0,0,1.59-1.64,2.09,2.09,0,0,0,.4-1.18,1.34,1.34,0,0,0-.35-1,1.27,1.27,0,0,0-1-.34,1.3,1.3,0,0,0-1,.36,1.91,1.91,0,0,0-.41,1.2l-1.91-.19a3.13,3.13,0,0,1,1.07-2.27,3.62,3.62,0,0,1,2.26-.7,3.28,3.28,0,0,1,2.33.8,2.62,2.62,0,0,1,.85,2,3.3,3.3,0,0,1-.25,1.29,4.78,4.78,0,0,1-.77,1.28,11.47,11.47,0,0,1-1.25,1.28c-.61.56-1,.93-1.16,1.11a3.4,3.4,0,0,0-.39.53Z"/><path class="cls-4" d="M1081.54,100.48v1.79h-6.73a4.49,4.49,0,0,1,.66-1.92,12.62,12.62,0,0,1,2.16-2.4,15.34,15.34,0,0,0,1.59-1.64,2.17,2.17,0,0,0,.4-1.18,1.34,1.34,0,0,0-.35-1,1.48,1.48,0,0,0-1.91,0,1.85,1.85,0,0,0-.41,1.2l-1.91-.19a3.13,3.13,0,0,1,1.07-2.27,3.59,3.59,0,0,1,2.25-.7,3.3,3.3,0,0,1,2.34.8,2.65,2.65,0,0,1,.84,2,3.48,3.48,0,0,1-.24,1.29,5.06,5.06,0,0,1-.77,1.28,10.9,10.9,0,0,1-1.26,1.28c-.6.56-1,.93-1.15,1.11a3.4,3.4,0,0,0-.39.53Z"/><path class="cls-4" d="M1086.09,92.2a2.76,2.76,0,0,1,2.28,1,6.66,6.66,0,0,1,1,4.09,6.68,6.68,0,0,1-1,4.08,2.72,2.72,0,0,1-2.27,1,2.87,2.87,0,0,1-2.36-1.13c-.6-.75-.9-2.08-.9-4a6.59,6.59,0,0,1,1-4.07A2.75,2.75,0,0,1,1086.09,92.2Zm0,1.6a.94.94,0,0,0-.62.22,1.44,1.44,0,0,0-.43.8,11,11,0,0,0-.2,2.51,11.42,11.42,0,0,0,.18,2.42,1.74,1.74,0,0,0,.45.88,1,1,0,0,0,.62.22,1,1,0,0,0,.62-.23,1.53,1.53,0,0,0,.43-.79,11.2,11.2,0,0,0,.19-2.5,11.67,11.67,0,0,0-.17-2.43,1.74,1.74,0,0,0-.45-.88A.94.94,0,0,0,1086.09,93.8Z"/><path class="cls-4" d="M1093.61,102.27l-3.58-10h2.19l2.54,7.41,2.45-7.41h2.15l-3.59,10Z"/><path class="cls-4" d="M1106.8,98.58l2,.62a4.38,4.38,0,0,1-1.5,2.44,4.27,4.27,0,0,1-2.66.8,4.34,4.34,0,0,1-3.28-1.36,5.22,5.22,0,0,1-1.29-3.73,5.49,5.49,0,0,1,1.3-3.89,4.42,4.42,0,0,1,3.39-1.38,4.17,4.17,0,0,1,3,1.08,4,4,0,0,1,1,1.85l-2,.48a2.09,2.09,0,0,0-2.11-1.69,2.31,2.31,0,0,0-1.81.8,4,4,0,0,0-.69,2.6,4.22,4.22,0,0,0,.68,2.7,2.23,2.23,0,0,0,1.78.81,2,2,0,0,0,1.39-.51A3,3,0,0,0,1106.8,98.58Z"/><path class="cls-4" d="M1119.54,102.27h-2.2l-.88-2.28h-4l-.83,2.28h-2.15l3.91-10h2.13Zm-3.73-4-1.38-3.72-1.35,3.72Z"/><path class="cls-4" d="M1165.17,116.6v-10h4.26a7.35,7.35,0,0,1,2.34.27,2.31,2.31,0,0,1,1.16,1,2.91,2.91,0,0,1,.44,1.58,2.68,2.68,0,0,1-.66,1.86,3.24,3.24,0,0,1-2,.93,4.56,4.56,0,0,1,1.09.84,11.3,11.3,0,0,1,1.15,1.63l1.22,1.95h-2.42l-1.46-2.18a12.38,12.38,0,0,0-1.07-1.47,1.53,1.53,0,0,0-.6-.42,3.26,3.26,0,0,0-1-.11h-.41v4.18Zm2-5.78h1.49a7.94,7.94,0,0,0,1.82-.12,1.18,1.18,0,0,0,.57-.43,1.27,1.27,0,0,0,.2-.75,1.21,1.21,0,0,0-.26-.82,1.24,1.24,0,0,0-.77-.39q-.24,0-1.47,0h-1.58Z"/><path class="cls-4" d="M1175.28,116.6v-10h7.43v1.7h-5.41v2.22h5v1.69h-5v2.72h5.6v1.69Z"/><path class="cls-4" d="M1184.59,116.6v-10h3l1.81,6.84,1.8-6.84h3v10h-1.88v-7.89l-2,7.89h-2l-2-7.89v7.89Z"/><path class="cls-4" d="M1195.87,111.65a6.29,6.29,0,0,1,.46-2.57,4.38,4.38,0,0,1,.93-1.37,3.69,3.69,0,0,1,1.29-.9,5.44,5.44,0,0,1,2.16-.4,4.74,4.74,0,0,1,3.55,1.37,5.3,5.3,0,0,1,1.33,3.82,5.24,5.24,0,0,1-1.32,3.8,5.27,5.27,0,0,1-7.08,0A5.18,5.18,0,0,1,1195.87,111.65Zm2.08-.07a3.71,3.71,0,0,0,.79,2.58,2.7,2.7,0,0,0,4,0,4.74,4.74,0,0,0,0-5.18,2.79,2.79,0,0,0-4,0A3.77,3.77,0,0,0,1198,111.58Z"/><path class="cls-4" d="M1209.42,116.6v-8.32h-3v-1.7h8v1.7h-3v8.32Z"/><path class="cls-4" d="M1223.72,116.6h-2.2l-.88-2.27h-4l-.82,2.27h-2.15l3.9-10h2.14Zm-3.73-4-1.38-3.72-1.35,3.72Z"/><path class="cls-4" d="M1224.28,113.34l2-.19a2.41,2.41,0,0,0,.72,1.46,2.22,2.22,0,0,0,1.46.46,2.31,2.31,0,0,0,1.48-.41,1.24,1.24,0,0,0,.49-1,.92.92,0,0,0-.21-.61,1.71,1.71,0,0,0-.72-.43c-.24-.08-.78-.23-1.62-.44a5.56,5.56,0,0,1-2.29-1,2.62,2.62,0,0,1-.92-2,2.57,2.57,0,0,1,.43-1.43,2.74,2.74,0,0,1,1.25-1,5.12,5.12,0,0,1,2-.35,4.21,4.21,0,0,1,2.84.83,2.91,2.91,0,0,1,1,2.2l-2,.09a1.78,1.78,0,0,0-.56-1.11,2.08,2.08,0,0,0-1.28-.34,2.24,2.24,0,0,0-1.38.37.71.71,0,0,0-.33.62.79.79,0,0,0,.3.61,5.67,5.67,0,0,0,1.86.67,9.56,9.56,0,0,1,2.19.72,2.88,2.88,0,0,1,1.11,1,3,3,0,0,1,.4,1.59,3,3,0,0,1-.48,1.62,2.83,2.83,0,0,1-1.36,1.11,5.54,5.54,0,0,1-2.18.37,4.34,4.34,0,0,1-2.92-.88A3.84,3.84,0,0,1,1224.28,113.34Z"/><path class="cls-4" d="M1238,106.58h3.7a7.19,7.19,0,0,1,1.91.19,3.38,3.38,0,0,1,1.51.92,4.33,4.33,0,0,1,.95,1.63,7.36,7.36,0,0,1,.33,2.37,6.47,6.47,0,0,1-.31,2.13,4.33,4.33,0,0,1-1.07,1.77,3.53,3.53,0,0,1-1.42.8,6.17,6.17,0,0,1-1.79.21H1238Zm2,1.7v6.63h1.51a5.89,5.89,0,0,0,1.23-.09,1.74,1.74,0,0,0,.81-.42,2.15,2.15,0,0,0,.54-1,6.81,6.81,0,0,0,.2-1.83,6.29,6.29,0,0,0-.2-1.79,2.37,2.37,0,0,0-.58-1,2,2,0,0,0-.94-.47,9.67,9.67,0,0,0-1.66-.09Z"/><path class="cls-4" d="M1248.13,116.6v-10h7.43v1.7h-5.41v2.22h5v1.69h-5v2.72h5.6v1.69Z"/><path class="cls-4" d="M1257.48,116.6v-10h6.87v1.7h-4.85v2.37h4.19v1.69h-4.19v4.26Z"/><path class="cls-4" d="M1264.45,116.6v-1.92h1.92v1.92Z"/><path class="cls-4" d="M694.72,64.1V55.58h1.73v7.07h4.32V64.1Z"/><path class="cls-4" d="M702,64.1V55.51h1.73V64.1Z"/><path class="cls-4" d="M709.33,60.94V59.5h3.74v3.42a4.74,4.74,0,0,1-1.58.93,5.91,5.91,0,0,1-2.09.4,4.65,4.65,0,0,1-2.35-.57,3.57,3.57,0,0,1-1.51-1.61,5.22,5.22,0,0,1-.5-2.29,4.91,4.91,0,0,1,.56-2.39,3.76,3.76,0,0,1,1.65-1.6,4.48,4.48,0,0,1,2-.42,4.08,4.08,0,0,1,2.5.67A3,3,0,0,1,713,57.89l-1.72.32a1.82,1.82,0,0,0-.69-1,2.08,2.08,0,0,0-1.25-.36,2.36,2.36,0,0,0-1.81.72,3.07,3.07,0,0,0-.67,2.14A3.37,3.37,0,0,0,707.5,62a2.29,2.29,0,0,0,1.78.77,3.08,3.08,0,0,0,1.1-.22,3.52,3.52,0,0,0,.94-.52V60.94Z"/><path class="cls-4" d="M722.42,64.1h-1.89l-.75-1.95h-3.43l-.71,1.95H713.8l3.34-8.59H719Zm-3.2-3.4L718,57.52l-1.16,3.18Z"/><path class="cls-4" d="M700.11,69.91h3.17a6.08,6.08,0,0,1,1.63.17,2.78,2.78,0,0,1,1.3.79,3.69,3.69,0,0,1,.82,1.39,6.25,6.25,0,0,1,.28,2,5.9,5.9,0,0,1-.26,1.83,3.78,3.78,0,0,1-.92,1.51,2.94,2.94,0,0,1-1.22.69,5.32,5.32,0,0,1-1.54.18h-3.26Zm1.73,1.45v5.69h1.3a4.51,4.51,0,0,0,1.05-.08,1.61,1.61,0,0,0,.7-.36,1.84,1.84,0,0,0,.45-.82,5.53,5.53,0,0,0,.18-1.58,5.06,5.06,0,0,0-.18-1.53,2,2,0,0,0-.49-.83,1.64,1.64,0,0,0-.8-.4,7.29,7.29,0,0,0-1.43-.09Z"/><path class="cls-4" d="M714.28,75.34l1.68.54A3.77,3.77,0,0,1,714.67,78a3.64,3.64,0,0,1-2.28.69,3.68,3.68,0,0,1-2.81-1.17,4.46,4.46,0,0,1-1.1-3.2,4.73,4.73,0,0,1,1.1-3.33,3.81,3.81,0,0,1,2.92-1.19,3.59,3.59,0,0,1,2.56.94,3.38,3.38,0,0,1,.88,1.58l-1.72.41a1.79,1.79,0,0,0-.64-1.06,1.85,1.85,0,0,0-1.17-.38,2,2,0,0,0-1.55.68,3.35,3.35,0,0,0-.6,2.22,3.59,3.59,0,0,0,.59,2.32,1.9,1.9,0,0,0,1.52.69,1.74,1.74,0,0,0,1.19-.43A2.65,2.65,0,0,0,714.28,75.34Z"/><path class="cls-4" d="M557.86,13.13h3.44a6.66,6.66,0,0,1,1.77.18,3.12,3.12,0,0,1,1.4.85,4.06,4.06,0,0,1,.89,1.51,7,7,0,0,1,.3,2.2,6.1,6.1,0,0,1-.28,2,3.9,3.9,0,0,1-1,1.64,3.23,3.23,0,0,1-1.32.75,5.73,5.73,0,0,1-1.66.19h-3.54Zm1.88,1.57v6.17h1.41a5,5,0,0,0,1.13-.09,1.77,1.77,0,0,0,.76-.39,1.9,1.9,0,0,0,.49-.9,5.89,5.89,0,0,0,.19-1.7,5.51,5.51,0,0,0-.19-1.66,2.09,2.09,0,0,0-.53-.9,1.8,1.8,0,0,0-.87-.44,8.41,8.41,0,0,0-1.54-.09Z"/><path class="cls-4" d="M570.62,13.13h1.87V19a5.87,5.87,0,0,1-.21,1.78,2.5,2.5,0,0,1-1,1.3,3.23,3.23,0,0,1-1.89.49,2.8,2.8,0,0,1-2.12-.77,3.2,3.2,0,0,1-.75-2.26l1.78-.2a2.56,2.56,0,0,0,.23,1.13,1,1,0,0,0,.93.5,1,1,0,0,0,.88-.36,2.75,2.75,0,0,0,.27-1.49Z"/><path class="cls-4" d="M574.48,22.43V20.65h1.78v1.78Z"/><path class="cls-4" d="M581.71,22.43v-9.3h6.9V14.7h-5v2.07h4.67v1.56h-4.67v2.54h5.2v1.56Z"/><path class="cls-4" d="M590.4,22.43v-9.3h1.83L596,19.34V13.13h1.74v9.3H595.9l-3.75-6.06v6.06Z"/><path class="cls-4" d="M601.86,22.43V14.7H599.1V13.13h7.4V14.7h-2.76v7.73Z"/><path class="cls-4" d="M607.72,22.43v-9.3h3.95a6.68,6.68,0,0,1,2.17.25,2.13,2.13,0,0,1,1.08.89,2.71,2.71,0,0,1,.41,1.47,2.5,2.5,0,0,1-.62,1.73,3,3,0,0,1-1.84.86,4.1,4.1,0,0,1,1,.78A11.09,11.09,0,0,1,615,20.62l1.13,1.81h-2.24l-1.36-2c-.49-.72-.82-1.18-1-1.37a1.46,1.46,0,0,0-.57-.39,3.09,3.09,0,0,0-.94-.1h-.38v3.88Zm1.88-5.37H611a7,7,0,0,0,1.68-.11,1,1,0,0,0,.53-.39,1.2,1.2,0,0,0,.19-.7,1.09,1.09,0,0,0-.25-.76,1.22,1.22,0,0,0-.71-.37c-.15,0-.61,0-1.37,0H609.6Z"/><path class="cls-4" d="M625.49,22.43h-2l-.82-2.11h-3.72l-.76,2.11h-2l3.63-9.3h2ZM622,18.75l-1.28-3.45-1.26,3.45Z"/><path class="cls-4" d="M626.48,13.13h3.43a6.69,6.69,0,0,1,1.78.18,3.12,3.12,0,0,1,1.4.85,4.2,4.2,0,0,1,.89,1.51,7,7,0,0,1,.3,2.2,6.1,6.1,0,0,1-.28,2,4.11,4.11,0,0,1-1,1.64,3.3,3.3,0,0,1-1.32.75,5.73,5.73,0,0,1-1.66.19h-3.54Zm1.88,1.57v6.17h1.4a5,5,0,0,0,1.14-.09,1.83,1.83,0,0,0,.76-.39,2,2,0,0,0,.49-.9,5.89,5.89,0,0,0,.19-1.7,5.51,5.51,0,0,0-.19-1.66,2.31,2.31,0,0,0-.53-.9,1.8,1.8,0,0,0-.87-.44,8.46,8.46,0,0,0-1.55-.09Z"/><path class="cls-4" d="M644.27,22.43h-2l-.81-2.11h-3.72l-.77,2.11h-2l3.63-9.3h2Zm-3.46-3.68-1.28-3.45-1.26,3.45Z"/><path class="cls-4" d="M648.39,13.13h3.43a6.56,6.56,0,0,1,1.77.18,3,3,0,0,1,1.4.85,3.93,3.93,0,0,1,.89,1.51,6.7,6.7,0,0,1,.31,2.2,6.08,6.08,0,0,1-.29,2,4,4,0,0,1-1,1.64,3.37,3.37,0,0,1-1.32.75,5.81,5.81,0,0,1-1.67.19h-3.53Zm1.88,1.57v6.17h1.4a5.17,5.17,0,0,0,1.14-.09,1.89,1.89,0,0,0,.76-.39,2,2,0,0,0,.49-.9,6.27,6.27,0,0,0,.19-1.7,5.85,5.85,0,0,0-.19-1.66,2.21,2.21,0,0,0-.54-.9,1.8,1.8,0,0,0-.87-.44,8.33,8.33,0,0,0-1.54-.09Z"/><path class="cls-4" d="M663.74,19l1.82.58a4,4,0,0,1-1.4,2.26,3.9,3.9,0,0,1-2.47.74,4,4,0,0,1-3-1.26,4.85,4.85,0,0,1-1.2-3.47,5.07,5.07,0,0,1,1.2-3.6A4.11,4.11,0,0,1,661.81,13a3.87,3.87,0,0,1,2.77,1,3.7,3.7,0,0,1,.95,1.71l-1.86.45a1.88,1.88,0,0,0-2-1.56,2.1,2.1,0,0,0-1.68.74,3.63,3.63,0,0,0-.64,2.4,3.94,3.94,0,0,0,.63,2.52,2.08,2.08,0,0,0,1.65.75,1.88,1.88,0,0,0,1.29-.48A2.81,2.81,0,0,0,663.74,19Z"/><path class="cls-4" d="M373,15.5V6.19h6.9V7.77h-5V9.83h4.68V11.4h-4.68v2.53h5.2V15.5Z"/><path class="cls-4" d="M381.67,15.5V6.19h1.83l3.81,6.22V6.19h1.75V15.5h-1.89l-3.75-6.07V15.5Z"/><path class="cls-4" d="M393.14,15.5V7.77h-2.76V6.19h7.39V7.77H395V15.5Z"/><path class="cls-4" d="M399,15.5V6.19h4a7,7,0,0,1,2.16.25,2.16,2.16,0,0,1,1.09.89,2.7,2.7,0,0,1,.4,1.47,2.47,2.47,0,0,1-.61,1.73,3,3,0,0,1-1.84.86,4.57,4.57,0,0,1,1,.78,10.27,10.27,0,0,1,1.07,1.51l1.14,1.82h-2.25l-1.36-2a13.15,13.15,0,0,0-1-1.37,1.51,1.51,0,0,0-.56-.38,3.1,3.1,0,0,0-.95-.11h-.38V15.5Zm1.88-5.37h1.39A6.84,6.84,0,0,0,404,10a1,1,0,0,0,.53-.39,1.28,1.28,0,0,0,.19-.7,1,1,0,0,0-1-1.12c-.15,0-.61,0-1.37,0h-1.47Z"/><path class="cls-4" d="M416.77,15.5h-2l-.81-2.12h-3.72l-.77,2.12h-2l3.62-9.31h2Zm-3.46-3.68L412,8.36l-1.25,3.46Z"/><path class="cls-4" d="M417.76,6.19h3.43a6.56,6.56,0,0,1,1.77.18,3,3,0,0,1,1.4.86,4,4,0,0,1,.89,1.5,6.7,6.7,0,0,1,.31,2.2,6.08,6.08,0,0,1-.29,2,4.09,4.09,0,0,1-1,1.65,3.48,3.48,0,0,1-1.32.74,5.76,5.76,0,0,1-1.67.2h-3.53Zm1.88,1.58v6.16H421a5,5,0,0,0,1.13-.09,1.67,1.67,0,0,0,.76-.39,1.82,1.82,0,0,0,.49-.9,5.84,5.84,0,0,0,.2-1.7,5.45,5.45,0,0,0-.2-1.66,2.09,2.09,0,0,0-.53-.9,1.89,1.89,0,0,0-.87-.44,9.76,9.76,0,0,0-1.54-.08Z"/><path class="cls-4" d="M435.54,15.5h-2l-.81-2.12H429l-.77,2.12h-2l3.62-9.31h2Zm-3.46-3.68L430.8,8.36l-1.25,3.46Z"/><path class="cls-4" d="M372.36,38.06h-1.51A15.45,15.45,0,0,1,369,34.31a12.13,12.13,0,0,1-.62-3.76,11.68,11.68,0,0,1,.77-4.27,15.26,15.26,0,0,1,1.7-3.23h1.5a24.1,24.1,0,0,0-1.47,4,15.12,15.12,0,0,0-.16,6.14,16.82,16.82,0,0,0,.65,2.56Q371.67,36.58,372.36,38.06Z"/><path class="cls-4" d="M373.8,31.64V29.45h4.31v2.19Z"/><path class="cls-4" d="M378.77,38.06c.43-.92.73-1.63.91-2.13a14.42,14.42,0,0,0,.49-1.71c.15-.64.26-1.26.34-1.84a14.92,14.92,0,0,0,.11-1.78,14.77,14.77,0,0,0-.4-3.52,24.1,24.1,0,0,0-1.47-4h1.49a14.51,14.51,0,0,1,1.84,3.56,11.75,11.75,0,0,1,.65,3.82,12.91,12.91,0,0,1-.52,3.5,14.54,14.54,0,0,1-1.93,4.13Z"/><path class="cls-4" d="M393,34.7V32.39H388.3V30.47l5-7.27h1.84v7.26h1.42v1.93h-1.42V34.7Zm0-4.24V26.55l-2.64,3.91Z"/><path class="cls-4" d="M399.46,28.52a2.57,2.57,0,0,1-1.24-1,2.65,2.65,0,0,1-.38-1.38,2.77,2.77,0,0,1,.89-2.12,4.3,4.3,0,0,1,5.08,0,2.78,2.78,0,0,1,.9,2.12,2.57,2.57,0,0,1-.41,1.42,2.7,2.7,0,0,1-1.17.95,3.06,3.06,0,0,1,1.45,1.11,3,3,0,0,1,.5,1.7,3.47,3.47,0,0,1-1,2.58,3.7,3.7,0,0,1-2.69,1,4.07,4.07,0,0,1-2.61-.82,3.46,3.46,0,0,1-.76-4.36A3,3,0,0,1,399.46,28.52Zm.25,2.69a2,2,0,0,0,.47,1.42,1.49,1.49,0,0,0,1.16.5,1.47,1.47,0,0,0,1.12-.48,2,2,0,0,0,.45-1.41,1.86,1.86,0,0,0-.46-1.3,1.5,1.5,0,0,0-1.14-.49,1.37,1.37,0,0,0-1.2.56A2,2,0,0,0,399.71,31.21Zm.2-4.9a1.37,1.37,0,0,0,.38,1,1.3,1.3,0,0,0,1,.37,1.43,1.43,0,0,0,1-2.39,1.33,1.33,0,0,0-1-.37,1.29,1.29,0,0,0-1.39,1.37Z"/><path class="cls-4" d="M409.88,34.7l-4.09-11.46h2.51l2.9,8.48,2.8-8.48h2.45l-4.1,11.46Z"/><path class="cls-4" d="M425,30.49l2.24.71A5,5,0,0,1,425.49,34a5.39,5.39,0,0,1-6.79-.65,6,6,0,0,1-1.47-4.26,6.29,6.29,0,0,1,1.47-4.44,5.09,5.09,0,0,1,3.89-1.58A4.74,4.74,0,0,1,426,24.29a4.51,4.51,0,0,1,1.17,2.11l-2.29.55a2.37,2.37,0,0,0-.84-1.41,2.47,2.47,0,0,0-1.57-.51,2.61,2.61,0,0,0-2.07.91,4.48,4.48,0,0,0-.79,3,4.79,4.79,0,0,0,.78,3.09,2.53,2.53,0,0,0,2,.93,2.32,2.32,0,0,0,1.59-.59A3.38,3.38,0,0,0,425,30.49Z"/><path class="cls-4" d="M436.52,30.49l2.24.71A5,5,0,0,1,437,34a4.86,4.86,0,0,1-3,.91,4.93,4.93,0,0,1-3.75-1.56,6,6,0,0,1-1.47-4.26,6.25,6.25,0,0,1,1.48-4.44,5.07,5.07,0,0,1,3.88-1.58,4.78,4.78,0,0,1,3.42,1.24,4.51,4.51,0,0,1,1.17,2.11l-2.29.55A2.36,2.36,0,0,0,434,25a2.59,2.59,0,0,0-2.06.91,4.48,4.48,0,0,0-.8,3A4.72,4.72,0,0,0,432,32a2.52,2.52,0,0,0,2,.93,2.31,2.31,0,0,0,1.58-.59A3.45,3.45,0,0,0,436.52,30.49Z"/><path class="cls-4" d="M391.61,217h3.72a10.92,10.92,0,0,1,1.64.09,2.48,2.48,0,0,1,1,.38,2.54,2.54,0,0,1,.71.78,2.11,2.11,0,0,1,.29,1.09,2.24,2.24,0,0,1-1.31,2,2.46,2.46,0,0,1,1.31.84,2.28,2.28,0,0,1,.45,1.4,2.85,2.85,0,0,1-.29,1.24,2.54,2.54,0,0,1-.81,1,2.7,2.7,0,0,1-1.26.44c-.31,0-1.07.05-2.27.06h-3.16Zm1.88,1.55v2.15h1.23c.73,0,1.19,0,1.36,0a1.22,1.22,0,0,0,.76-.34.94.94,0,0,0,.28-.72,1,1,0,0,0-.24-.71,1.1,1.1,0,0,0-.71-.32c-.18,0-.72,0-1.6,0Zm0,3.7v2.48h1.74a8.51,8.51,0,0,0,1.28-.05,1.23,1.23,0,0,0,.69-.37,1.17,1.17,0,0,0,.26-.79,1.24,1.24,0,0,0-.2-.71,1.14,1.14,0,0,0-.59-.43,6.41,6.41,0,0,0-1.67-.13Z"/><path class="cls-4" d="M403.08,226.28v-7.73h-2.76V217h7.4v1.57H405v7.73Z"/><path class="cls-4" d="M416.71,226.28h-1.78v-6.72a6.08,6.08,0,0,1-2.31,1.35v-1.62a5.07,5.07,0,0,0,1.52-.86,3.25,3.25,0,0,0,1.12-1.49h1.45Z"/><path class="cls-4" d="M1200.78,150.6v-10h2l4.1,6.69v-6.69h1.88v10h-2l-4-6.53v6.53Z"/><path class="cls-4" d="M1210.89,150.6v-10h6.87v1.7h-4.85v2.37h4.18v1.69h-4.18v4.26Z"/><path class="cls-4" d="M1234.33,150.6v-10h2v3.94h4v-3.94h2v10h-2v-4.38h-4v4.38Z"/><path class="cls-4" d="M1253.47,150.6h-2.2l-.87-2.27h-4l-.82,2.27h-2.15l3.9-10h2.14Zm-3.72-4-1.38-3.72-1.36,3.72Z"/><path class="cls-4" d="M1180.78,146.92l2,.62a4.41,4.41,0,0,1-1.5,2.44,4.75,4.75,0,0,1-6-.57,5.24,5.24,0,0,1-1.28-3.73,5.5,5.5,0,0,1,1.29-3.89,4.43,4.43,0,0,1,3.4-1.38,4.13,4.13,0,0,1,3,1.09,3.89,3.89,0,0,1,1,1.84l-2,.48a2.08,2.08,0,0,0-2.12-1.68,2.31,2.31,0,0,0-1.81.8,3.92,3.92,0,0,0-.69,2.59,4.25,4.25,0,0,0,.68,2.71,2.25,2.25,0,0,0,1.78.8,2,2,0,0,0,1.39-.51A2.9,2.9,0,0,0,1180.78,146.92Z"/><path class="cls-4" d="M973.28,134.25h4a11,11,0,0,1,1.77.1,2.54,2.54,0,0,1,1.05.41,2.6,2.6,0,0,1,.77.84,2.37,2.37,0,0,1-.07,2.46,2.38,2.38,0,0,1-1,.88,2.66,2.66,0,0,1,1.41.91,2.46,2.46,0,0,1,.49,1.51,3,3,0,0,1-.32,1.33,2.59,2.59,0,0,1-.87,1,2.83,2.83,0,0,1-1.35.48c-.34,0-1.15.06-2.44.07h-3.42Zm2,1.66v2.32h1.32q1.18,0,1.47,0a1.33,1.33,0,0,0,.82-.36,1.06,1.06,0,0,0,.3-.78,1.11,1.11,0,0,0-.26-.76,1.16,1.16,0,0,0-.76-.35c-.2,0-.78,0-1.73,0Zm0,4v2.68h1.87a9.45,9.45,0,0,0,1.39-.06,1.29,1.29,0,0,0,.73-.4,1.23,1.23,0,0,0,.29-.85,1.37,1.37,0,0,0-.22-.77,1.3,1.3,0,0,0-.63-.46,7.29,7.29,0,0,0-1.8-.14Z"/><path class="cls-4" d="M985.64,144.27v-8.33h-3v-1.69h8v1.69h-3v8.33Z"/><path class="cls-4" d="M1001.89,142.48v1.79h-6.73a4.49,4.49,0,0,1,.66-1.92A12.62,12.62,0,0,1,998,140a15.34,15.34,0,0,0,1.59-1.64,2.17,2.17,0,0,0,.4-1.18,1.34,1.34,0,0,0-.35-1,1.48,1.48,0,0,0-1.91,0,1.8,1.8,0,0,0-.41,1.2l-1.91-.19a3.13,3.13,0,0,1,1.07-2.27,3.59,3.59,0,0,1,2.25-.7,3.3,3.3,0,0,1,2.34.8,2.65,2.65,0,0,1,.84,2,3.48,3.48,0,0,1-.24,1.29,5.06,5.06,0,0,1-.77,1.28,10.9,10.9,0,0,1-1.26,1.28c-.6.56-1,.93-1.15,1.11a3.4,3.4,0,0,0-.39.53Z"/><path class="cls-4" d="M1031,243.18h-1.37V238a4.64,4.64,0,0,1-1.77,1v-1.24a4.07,4.07,0,0,0,1.16-.67,2.61,2.61,0,0,0,.87-1.14H1031Z"/><path class="cls-4" d="M1063.65,241.91v1.27h-4.81a3.5,3.5,0,0,1,.47-1.37,9.09,9.09,0,0,1,1.55-1.71,11,11,0,0,0,1.13-1.17,1.55,1.55,0,0,0,.29-.84,1,1,0,0,0-.25-.71,1,1,0,0,0-1.37,0,1.43,1.43,0,0,0-.29.86l-1.37-.13a2.28,2.28,0,0,1,.77-1.63,2.57,2.57,0,0,1,1.61-.49,2.35,2.35,0,0,1,1.67.57,1.87,1.87,0,0,1,.6,1.42,2.39,2.39,0,0,1-.17.92,4,4,0,0,1-.55.92,10.29,10.29,0,0,1-.9.91c-.43.39-.7.66-.82.79a2.16,2.16,0,0,0-.28.38Z"/><path class="cls-4" d="M1091.47,241.29l1.33-.17a1.23,1.23,0,0,0,.34.78,1,1,0,0,0,1.39-.05,1.29,1.29,0,0,0,.29-.87,1.13,1.13,0,0,0-.28-.82.89.89,0,0,0-.68-.31,2.45,2.45,0,0,0-.63.11l.15-1.12a1.18,1.18,0,0,0,.85-.24.85.85,0,0,0,.3-.68.76.76,0,0,0-.22-.58.78.78,0,0,0-.57-.22.86.86,0,0,0-.6.25,1.09,1.09,0,0,0-.3.71l-1.27-.21a2.79,2.79,0,0,1,.4-1,1.86,1.86,0,0,1,.74-.61,2.5,2.5,0,0,1,1.07-.22,2.13,2.13,0,0,1,1.62.64,1.66,1.66,0,0,1,.5,1.19,1.69,1.69,0,0,1-1,1.51,1.64,1.64,0,0,1,1,.59,1.73,1.73,0,0,1,.37,1.11,2.14,2.14,0,0,1-.69,1.6,2.35,2.35,0,0,1-1.72.67,2.39,2.39,0,0,1-1.61-.56A2.25,2.25,0,0,1,1091.47,241.29Z"/><path class="cls-4" d="M1124.71,243.18v-1.44h-2.93v-1.2l3.11-4.54H1126v4.54h.89v1.2H1126v1.44Zm0-2.64v-2.45l-1.65,2.45Z"/><path class="cls-4" d="M1153.54,241.34l1.37-.14a1.19,1.19,0,0,0,.34.74,1,1,0,0,0,.67.27.91.91,0,0,0,.72-.35,1.57,1.57,0,0,0,.3-1.05,1.48,1.48,0,0,0-.29-1,1,1,0,0,0-.77-.33,1.38,1.38,0,0,0-1.06.52l-1.12-.16.71-3.73H1158v1.29h-2.59l-.22,1.21a2.14,2.14,0,0,1,.94-.23,2.07,2.07,0,0,1,1.55.67,2.4,2.4,0,0,1,.63,1.72,2.6,2.6,0,0,1-.51,1.58,2.28,2.28,0,0,1-1.94.95,2.36,2.36,0,0,1-1.61-.54A2.16,2.16,0,0,1,1153.54,241.34Z"/><path class="cls-4" d="M1189.67,237.78l-1.33.15a1,1,0,0,0-.25-.61.77.77,0,0,0-.54-.2.88.88,0,0,0-.73.4,3.25,3.25,0,0,0-.38,1.62,1.61,1.61,0,0,1,1.27-.6,1.94,1.94,0,0,1,1.48.65,2.37,2.37,0,0,1,.61,1.69,2.45,2.45,0,0,1-.64,1.76,2.24,2.24,0,0,1-1.66.67,2.19,2.19,0,0,1-1.78-.85,4.3,4.3,0,0,1-.7-2.76,4.37,4.37,0,0,1,.73-2.83,2.33,2.33,0,0,1,1.89-.87,2,2,0,0,1,1.35.45A2.21,2.21,0,0,1,1189.67,237.78Zm-3.11,3a1.51,1.51,0,0,0,.31,1,.87.87,0,0,0,.7.37.8.8,0,0,0,.63-.3,1.49,1.49,0,0,0,.26-1,1.53,1.53,0,0,0-.28-1,.87.87,0,0,0-.68-.32.85.85,0,0,0-.67.31A1.34,1.34,0,0,0,1186.56,240.77Z"/><path class="cls-4" d="M1216.19,237.4v-1.28h4.69v1a7.33,7.33,0,0,0-1.18,1.64,9.57,9.57,0,0,0-.92,2.27,8.56,8.56,0,0,0-.31,2.15h-1.32a9,9,0,0,1,.61-3,10,10,0,0,1,1.55-2.76Z"/><path class="cls-4" d="M1248.53,239.32a1.57,1.57,0,0,1-1-1.48,1.74,1.74,0,0,1,.56-1.32,2.69,2.69,0,0,1,3.18,0,1.74,1.74,0,0,1,.56,1.32,1.6,1.6,0,0,1-.26.89,1.54,1.54,0,0,1-.73.59,1.91,1.91,0,0,1,.91.7,1.83,1.83,0,0,1,.31,1.06,2.15,2.15,0,0,1-.63,1.61,2.26,2.26,0,0,1-1.68.62,2.54,2.54,0,0,1-1.63-.51,2,2,0,0,1-.77-1.66,2.1,2.1,0,0,1,.29-1.07A1.91,1.91,0,0,1,1248.53,239.32Zm.16,1.69a1.23,1.23,0,0,0,.29.88.93.93,0,0,0,.72.32.88.88,0,0,0,.7-.31,1.22,1.22,0,0,0,.28-.88,1.16,1.16,0,0,0-.28-.81,1,1,0,0,0-.72-.3.87.87,0,0,0-.75.34A1.34,1.34,0,0,0,1248.69,241Zm.12-3.07a.88.88,0,0,0,1.48.64.9.9,0,0,0,.23-.64.85.85,0,0,0-.23-.62,1,1,0,0,0-1.24,0A.83.83,0,0,0,1248.81,237.94Z"/><path class="cls-4" d="M1015.84,121.76v-10h6.32v1.7h-4.46v2.37h3.85v1.7h-3.85v4.25Z"/><path class="cls-4" d="M1031.28,121.76h-2l-.8-2.27h-3.68l-.76,2.27h-2l3.59-10h2Zm-3.42-4-1.27-3.72-1.24,3.72Z"/><path class="cls-4" d="M1031.8,118.5l1.81-.19a2.52,2.52,0,0,0,.66,1.46,2.31,2.31,0,0,0,2.7,0,1.26,1.26,0,0,0,.46-1,.94.94,0,0,0-.19-.6,1.56,1.56,0,0,0-.67-.44c-.22-.08-.71-.22-1.49-.43a4.76,4.76,0,0,1-2.1-1,2.72,2.72,0,0,1-.85-2,2.78,2.78,0,0,1,.4-1.43,2.54,2.54,0,0,1,1.15-1,4.33,4.33,0,0,1,1.81-.35,3.71,3.71,0,0,1,2.62.83,3.06,3.06,0,0,1,.92,2.21l-1.86.09a1.47,1.47,0,0,0-1.69-1.45,2,2,0,0,0-1.27.36.74.74,0,0,0-.3.62.78.78,0,0,0,.28.61,4.61,4.61,0,0,0,1.71.67,8.3,8.3,0,0,1,2,.72,2.63,2.63,0,0,1,1,1,3.13,3.13,0,0,1,.37,1.6,3.17,3.17,0,0,1-.44,1.61,2.75,2.75,0,0,1-1.24,1.12,5,5,0,0,1-2,.36,3.75,3.75,0,0,1-2.68-.88A3.91,3.91,0,0,1,1031.8,118.5Z"/><path class="cls-4" d="M1040.85,121.76v-10h6.83v1.7h-5v2.22h4.63v1.69h-4.63v2.73h5.15v1.68Z"/><path class="cls-4" d="M1057.14,121.76h-1.77v-7.23a5.93,5.93,0,0,1-2.28,1.45v-1.74a5.3,5.3,0,0,0,1.5-.93,3.58,3.58,0,0,0,1.12-1.61h1.43Z"/><path class="cls-4" d="M1079.8,121.76v-10h6.31v1.7h-4.45v2.37h3.84v1.7h-3.84v4.25Z"/><path class="cls-4" d="M1095.24,121.76h-2l-.81-2.27h-3.67l-.77,2.27h-2l3.59-10h2Zm-3.42-4-1.27-3.72-1.24,3.72Z"/><path class="cls-4" d="M1095.76,118.5l1.81-.19a2.52,2.52,0,0,0,.66,1.46,1.89,1.89,0,0,0,1.35.46,1.91,1.91,0,0,0,1.35-.41,1.26,1.26,0,0,0,.46-1,1,1,0,0,0-.19-.6,1.62,1.62,0,0,0-.67-.44c-.22-.08-.72-.22-1.49-.43a4.76,4.76,0,0,1-2.1-1,2.78,2.78,0,0,1-.45-3.44,2.54,2.54,0,0,1,1.15-1,4.3,4.3,0,0,1,1.81-.35,3.67,3.67,0,0,1,2.61.83,3,3,0,0,1,.92,2.21l-1.86.09a1.81,1.81,0,0,0-.51-1.12,1.79,1.79,0,0,0-1.18-.33,2,2,0,0,0-1.27.36.75.75,0,0,0-.29.62.78.78,0,0,0,.28.61,4.62,4.62,0,0,0,1.7.67,8.24,8.24,0,0,1,2,.72,2.7,2.7,0,0,1,1,1,3.24,3.24,0,0,1,.37,1.6,3.17,3.17,0,0,1-.44,1.61,2.78,2.78,0,0,1-1.25,1.12,4.87,4.87,0,0,1-2,.36,3.75,3.75,0,0,1-2.68-.88A3.91,3.91,0,0,1,1095.76,118.5Z"/><path class="cls-4" d="M1104.81,121.76v-10h6.83v1.7h-5v2.22h4.63v1.69h-4.63v2.73h5.15v1.68Z"/><path class="cls-4" d="M1122.54,120v1.78h-6.19a4.86,4.86,0,0,1,.61-1.91,12,12,0,0,1,2-2.41,12.38,12.38,0,0,0,1.47-1.64,2.22,2.22,0,0,0,.36-1.17,1.42,1.42,0,0,0-.32-1,1.24,1.24,0,0,0-1.75,0,1.91,1.91,0,0,0-.38,1.2l-1.76-.19a3.2,3.2,0,0,1,1-2.28,3.12,3.12,0,0,1,2.07-.69,2.86,2.86,0,0,1,2.14.8,2.75,2.75,0,0,1,.78,2,3.72,3.72,0,0,1-.22,1.29,5.33,5.33,0,0,1-.71,1.28,12.07,12.07,0,0,1-1.15,1.28c-.56.56-.91.92-1.06,1.11a3.11,3.11,0,0,0-.36.53Z"/><rect class="cls-5" x="980.1" y="158.39" width="320.35" height="71.85" rx="3.96"/><rect class="cls-5" x="358.27" y="49.92" width="65.73" height="162.51" rx="3.96"/><rect class="cls-6" x="1013.62" y="158.39" width="1" height="71.85"/><rect class="cls-6" x="1045.12" y="158.39" width="1" height="71.85"/><rect class="cls-6" x="390.7" y="141.35" width="1" height="65.6" transform="translate(565.35 -217.05) rotate(90)"/><rect class="cls-6" x="390.64" y="98.31" width="1" height="65.73" transform="translate(522.31 -259.96) rotate(90)"/><rect class="cls-6" x="390.64" y="55.34" width="1" height="65.73" transform="translate(479.34 -302.94) rotate(90)"/><rect class="cls-6" x="1076.62" y="158.39" width="1" height="71.85"/><rect class="cls-6" x="1108.12" y="158.39" width="1" height="71.85"/><rect class="cls-6" x="1139.62" y="158.39" width="1" height="71.85"/><rect class="cls-6" x="1171.12" y="158.39" width="1" height="71.85"/><rect class="cls-6" x="1202.62" y="158.39" width="1" height="71.85"/><rect class="cls-6" x="1234.12" y="158.39" width="1" height="71.85"/><rect class="cls-6" x="1265.62" y="158.39" width="1" height="71.85"/><circle class="cls-7" cx="384.48" cy="65.8" r="11.8"/><polygon class="cls-6" points="390.66 62.11 388.18 59.62 384.48 63.31 380.79 59.62 378.3 62.11 382 65.8 378.3 69.5 380.79 71.98 384.48 68.29 388.18 71.98 390.66 69.5 386.97 65.8 390.66 62.11"/><circle class="cls-7" cx="384.48" cy="199.11" r="11.8"/><polygon class="cls-6" points="390.66 195.42 388.18 192.93 384.48 196.63 380.79 192.93 378.3 195.42 382 199.11 378.3 202.81 380.79 205.29 384.48 201.6 388.18 205.29 390.66 202.81 386.97 199.11 390.66 195.42"/><circle class="cls-7" cx="1283.73" cy="194.32" r="11.8"/><polygon class="cls-6" points="1289.91 190.62 1287.42 188.13 1283.73 191.83 1280.03 188.13 1277.55 190.62 1281.24 194.32 1277.55 198.01 1280.03 200.5 1283.73 196.8 1287.42 200.5 1289.91 198.01 1286.22 194.32 1289.91 190.62"/><circle class="cls-7" cx="995.52" cy="194.32" r="11.8"/><polygon class="cls-6" points="1001.7 190.62 999.21 188.13 995.52 191.83 991.83 188.13 989.34 190.62 993.03 194.32 989.34 198.01 991.83 200.5 995.52 196.8 999.21 200.5 1001.7 198.01 998.01 194.32 1001.7 190.62"/><path class="cls-8" d="M1022.37,161.48v30.74a7.48,7.48,0,0,0,3.85,6.55v4.8h7.1v-4.69a7.49,7.49,0,0,0,4.06-6.66V161.48Z"/><circle class="cls-4" cx="1029.87" cy="168.45" r="6.98"/><polygon class="cls-6" points="1033.53 166.27 1032.06 164.8 1029.87 166.98 1027.69 164.8 1026.22 166.27 1028.4 168.46 1026.22 170.64 1027.69 172.11 1029.87 169.93 1032.06 172.11 1033.53 170.64 1031.35 168.46 1033.53 166.27"/><circle class="cls-4" cx="1029.87" cy="182.07" r="3.03"/><path class="cls-8" d="M423.12,144.27H377a11.24,11.24,0,0,0-9.83,5.77H360v10.65h7a11.24,11.24,0,0,0,10,6.09h46.1Z"/><circle class="cls-4" cx="392.23" cy="155.53" r="4.55"/><path class="cls-8" d="M1053.87,161.48v30.74a7.48,7.48,0,0,0,3.85,6.55v4.8h7.1v-4.69a7.49,7.49,0,0,0,4.06-6.66V161.48Z"/><circle class="cls-4" cx="1061.37" cy="168.45" r="6.98"/><polygon class="cls-6" points="1065.03 166.27 1063.56 164.8 1061.37 166.98 1059.19 164.8 1057.72 166.27 1059.9 168.46 1057.72 170.64 1059.19 172.11 1061.37 169.93 1063.56 172.11 1065.03 170.64 1062.85 168.46 1065.03 166.27"/><circle class="cls-4" cx="1061.37" cy="182.07" r="3.03"/><path class="cls-8" d="M1085.37,161.48v30.74a7.48,7.48,0,0,0,3.85,6.55v4.8h7.1v-4.69a7.49,7.49,0,0,0,4.06-6.66V161.48Z"/><circle class="cls-4" cx="1092.87" cy="168.45" r="6.98"/><polygon class="cls-6" points="1096.53 166.27 1095.06 164.8 1092.87 166.98 1090.69 164.8 1089.22 166.27 1091.4 168.46 1089.22 170.64 1090.69 172.11 1092.87 169.93 1095.06 172.11 1096.53 170.64 1094.35 168.46 1096.53 166.27"/><circle class="cls-4" cx="1092.87" cy="182.07" r="3.03"/><path class="cls-8" d="M1116.87,161.48v30.74a7.48,7.48,0,0,0,3.85,6.55v4.8h7.1v-4.69a7.49,7.49,0,0,0,4.06-6.66V161.48Z"/><circle class="cls-4" cx="1124.37" cy="168.45" r="6.98"/><polygon class="cls-6" points="1128.03 166.27 1126.56 164.8 1124.37 166.98 1122.19 164.8 1120.72 166.27 1122.9 168.46 1120.72 170.64 1122.19 172.11 1124.37 169.93 1126.56 172.11 1128.03 170.64 1125.85 168.46 1128.03 166.27"/><circle class="cls-4" cx="1124.37" cy="182.07" r="3.03"/><path class="cls-8" d="M1148.37,161.48v30.74a7.48,7.48,0,0,0,3.85,6.55v4.8h7.1v-4.69a7.49,7.49,0,0,0,4.06-6.66V161.48Z"/><circle class="cls-4" cx="1155.87" cy="168.45" r="6.98"/><polygon class="cls-6" points="1159.53 166.27 1158.06 164.8 1155.87 166.98 1153.69 164.8 1152.22 166.27 1154.4 168.46 1152.22 170.64 1153.69 172.11 1155.87 169.93 1158.06 172.11 1159.53 170.64 1157.35 168.46 1159.53 166.27"/><circle class="cls-4" cx="1155.87" cy="182.07" r="3.03"/><path class="cls-8" d="M1179.87,161.48v30.74a7.48,7.48,0,0,0,3.85,6.55v4.8h7.1v-4.69a7.49,7.49,0,0,0,4.06-6.66V161.48Z"/><circle class="cls-4" cx="1187.37" cy="168.45" r="6.98"/><polygon class="cls-6" points="1191.03 166.27 1189.56 164.8 1187.37 166.98 1185.19 164.8 1183.72 166.27 1185.9 168.46 1183.72 170.64 1185.19 172.11 1187.37 169.93 1189.56 172.11 1191.03 170.64 1188.85 168.46 1191.03 166.27"/><circle class="cls-4" cx="1187.37" cy="182.07" r="3.03"/><path class="cls-8" d="M1211.37,161.48v30.74a7.48,7.48,0,0,0,3.85,6.55v4.8h7.1v-4.69a7.49,7.49,0,0,0,4.06-6.66V161.48Z"/><circle class="cls-4" cx="1218.87" cy="168.45" r="6.98"/><polygon class="cls-6" points="1222.53 166.27 1221.06 164.8 1218.87 166.98 1216.69 164.8 1215.22 166.27 1217.4 168.46 1215.22 170.64 1216.69 172.11 1218.87 169.93 1221.06 172.11 1222.53 170.64 1220.35 168.46 1222.53 166.27"/><circle class="cls-4" cx="1218.87" cy="182.07" r="3.03"/><path class="cls-8" d="M1242.87,161.48v30.74a7.48,7.48,0,0,0,3.85,6.55v4.8h7.1v-4.69a7.49,7.49,0,0,0,4.06-6.66V161.48Z"/><circle class="cls-4" cx="1250.37" cy="168.45" r="6.98"/><polygon class="cls-6" points="1254.03 166.27 1252.56 164.8 1250.37 166.98 1248.19 164.8 1246.72 166.27 1248.9 168.46 1246.72 170.64 1248.19 172.11 1250.37 169.93 1252.56 172.11 1254.03 170.64 1251.85 168.46 1254.03 166.27"/><circle class="cls-4" cx="1250.37" cy="182.07" r="3.03"/><polygon class="cls-4" points="1038.56 135.49 1038.56 127.56 1035.56 127.56 1035.56 135.49 1015.63 135.49 1015.63 146.18 1018.63 146.18 1018.63 138.49 1055.5 138.49 1055.5 146.18 1058.5 146.18 1058.5 135.49 1038.56 135.49"/><polygon class="cls-4" points="1102.52 135.49 1102.52 127.56 1099.52 127.56 1099.52 135.49 1079.58 135.49 1079.58 146.18 1082.58 146.18 1082.58 138.49 1119.46 138.49 1119.46 146.18 1122.46 146.18 1122.46 135.49 1102.52 135.49"/><polygon class="cls-4" points="1212.29 127.87 1212.29 119.93 1209.29 119.93 1209.29 127.87 1169.08 127.87 1169.08 138.56 1172.08 138.56 1172.08 130.87 1249.5 130.87 1249.5 138.56 1252.5 138.56 1252.5 127.87 1212.29 127.87"/><polygon class="cls-5" points="553 42.43 553 99.18 574.25 99.18 574.25 92.93 599 92.93 599 56.18 574.25 56.18 574.25 42.43 553 42.43"/><rect class="cls-9" x="553" y="42.43" width="6" height="56.75"/><path class="cls-10" d="M470.67,43.12a16.5,16.5,0,1,0,16.5,16.5A16.5,16.5,0,0,0,470.67,43.12Zm0,22.24a5.74,5.74,0,1,1,5.73-5.74A5.74,5.74,0,0,1,470.67,65.36Z"/><path class="cls-11" d="M470.67,185.61a16.5,16.5,0,1,0,16.5,16.5A16.5,16.5,0,0,0,470.67,185.61Zm0,22.24a5.74,5.74,0,1,1,5.73-5.74A5.74,5.74,0,0,1,470.67,207.85Z"/><path class="cls-12" d="M470.67,85.77a16.5,16.5,0,1,0,16.5,16.5A16.5,16.5,0,0,0,470.67,85.77Zm0,22.24a5.74,5.74,0,1,1,5.73-5.74A5.74,5.74,0,0,1,470.67,108Z"/><path class="cls-13" d="M470.67,140.65a16.5,16.5,0,1,0,16.5,16.5A16.5,16.5,0,0,0,470.67,140.65Zm0,22.24a5.74,5.74,0,1,1,5.73-5.74A5.74,5.74,0,0,1,470.67,162.89Z"/><path class="cls-8" d="M423.12,98.13H377a11.23,11.23,0,0,0-9.83,5.78H360v10.64h7a11.25,11.25,0,0,0,10,6.1h46.1Z"/><circle class="cls-4" cx="392.23" cy="109.39" r="4.55"/><path class="cls-14" d="M518.92,148.21c-5.55-12.21-27.33-13.16-33.18-13.12-9.91.09-4.64,0-18.67,2-14.61,2.09-54.22,9-54.22,9a9.76,9.76,0,0,0,.72,19.49s36.26-8.6,51.36-10.76c11.06-1.58,9.88-1.82,20.18-3.38,16.12-2.44,20.91,1.29,23.37,5.12,2,3.12-1.18,9.95-6.31,9.18-6.67-1-27.79-13.19-27.79-13.19-3.71-1.92-10.1,3.17-9.9,7.35.13,2.83,1.95,5.71,7.2,7,11.37,2.76,30,17.7,38.78,6.79C517.21,165.3,522.06,155.11,518.92,148.21Z"/><polygon class="cls-4" points="1148.25 135.37 1148.25 126.62 1145.25 126.62 1145.25 135.37 1135.25 135.37 1135.25 138.37 1158.25 138.37 1158.25 135.37 1148.25 135.37"/><rect class="cls-4" x="1140.08" y="139.93" width="13.33" height="3"/><rect class="cls-4" x="1142.33" y="144.49" width="8.83" height="3"/><path class="cls-15" d="M473.05,93.5c-6.29,1.29-4.91.52-8.12,4.63s-.54,8.4,1.18,9.88c5.18,4.45,9.76-.73,23.29-1.78,11.11-.87,18.17-.74,19.65,1.78-9.81,2.14-35.3-2.77-55.29-4.82-12.06-1.23-24.52-2.51-36.67-3.29l0,.32a9.76,9.76,0,0,0-1.26,19.46v.18c11.78.76,23,4.12,34.9,5.33,18.61,1.91,33.86,4.31,45.41,4.31,9.48,0,19.16-1.22,24.47-3.65,8-3.64,6.67-13.53,7.06-16.94C529.34,94.14,495.93,88.83,473.05,93.5Z"/><path class="cls-16" d="M531.94,148.13c-5.55-12.21-21.11-12.07-27-12-9.91.08-22,1.81-36.07,3.82-14.6,2.09-56.06,6.14-56.06,6.14a9.76,9.76,0,0,0,.72,19.49s42.62-5.54,57.72-7.7c11.06-1.58,23.64-5.13,31.76-5.64,16.27-1,16.34,7.11,10.12,16.7-6.61,10.2-39.82,23.82-39.82,23.82-4.52,1.71-8.91,5.66-8.71,9.83.13,2.83,1.8,7,7.2,7,12.81,0,49.35-20.83,57.35-36.3C534.13,163.72,535.08,155,531.94,148.13Z"/><circle class="cls-4" cx="412.65" cy="155.53" r="10.46"/><polygon class="cls-6" points="415.93 161.01 418.14 158.8 414.86 155.53 418.14 152.25 415.93 150.04 412.65 153.32 409.38 150.04 407.17 152.25 410.44 155.53 407.17 158.8 409.38 161.01 412.65 157.73 415.93 161.01"/><path class="cls-17" d="M479.09,54.25c-5.53-3.27-10-2.56-13.17,1.55s-1.17,6.74-.73,8c.38,1.12,3.93,5.69,3.93,5.69C476.2,75,486,82.6,494.86,90.85c8.18,7.57,11.67,12.24,13.15,14.76-9.81,2.14-34.26-.37-54.25-2.42-12.06-1.23-24.52-2.51-36.67-3.29l0,.32a9.76,9.76,0,0,0-1.26,19.46v.18c11.78.76,24.05,2,35.92,3.23,18.61,1.91,33.45,3.32,45,3.32,9.48,0,16.74-1,22-3.38,8-3.65,9.81-9.9,10.21-13.31C530.68,95,495.13,63.76,479.09,54.25Z"/><circle class="cls-4" cx="412.65" cy="109.39" r="10.46"/><polygon class="cls-6" points="415.93 114.87 418.14 112.67 414.86 109.39 418.14 106.11 415.93 103.91 412.65 107.18 409.38 103.91 407.17 106.11 410.44 109.39 407.17 112.67 409.38 114.87 412.65 111.6 415.93 114.87"/></svg>