<svg id="Camada_1" data-name="Camada 1" xmlns="http://www.w3.org/2000/svg" xmlns:xlink="http://www.w3.org/1999/xlink" viewBox="0 0 1368 125.19"><defs><style>.cls-1{fill:#d4d4d4;}.cls-2{fill:url(#Gradiente_sem_nome_185);}.cls-3{fill:url(#Gradiente_sem_nome_185-2);}.cls-4{fill:url(#Gradiente_sem_nome_111);}.cls-5{fill:url(#Gradiente_sem_nome_46);}.cls-6{fill:#969696;}.cls-7{fill:url(#Gradiente_sem_nome_34);}.cls-8{fill:url(#Gradiente_sem_nome_46-2);}.cls-9{fill:#1a1a1a;}.cls-10{fill:gray;}.cls-11{fill:url(#Gradiente_sem_nome_10);}.cls-12{fill:#666;}.cls-13{fill:url(#Gradiente_sem_nome_46-3);}.cls-14{fill:url(#Gradiente_sem_nome_34-2);}.cls-15{fill:url(#Gradiente_sem_nome_46-4);}.cls-16{fill:url(#Gradiente_sem_nome_34-3);}.cls-17{fill:url(#Gradiente_sem_nome_46-5);}.cls-18{fill:url(#Gradiente_sem_nome_34-4);}.cls-19{fill:url(#Gradiente_sem_nome_46-6);}.cls-20{fill:url(#Gradiente_sem_nome_34-5);}.cls-21{fill:url(#Gradiente_sem_nome_46-7);}.cls-22{fill:url(#Gradiente_sem_nome_34-6);}.cls-23{fill:url(#Gradiente_sem_nome_46-8);}.cls-24{fill:url(#Gradiente_sem_nome_34-7);}.cls-25{fill:url(#Gradiente_sem_nome_46-9);}.cls-26{fill:url(#Gradiente_sem_nome_34-8);}.cls-27{fill:url(#Gradiente_sem_nome_46-10);}.cls-28{fill:url(#Gradiente_sem_nome_34-9);}.cls-29{fill:url(#Gradiente_sem_nome_66);}.cls-30{fill:url(#Gradiente_sem_nome_66-2);}.cls-31{fill:url(#Gradiente_sem_nome_66-3);}.cls-32{fill:url(#Gradiente_sem_nome_66-4);}.cls-33{fill:url(#Gradiente_sem_nome_66-5);}.cls-34{fill:url(#Gradiente_sem_nome_66-6);}.cls-35{fill:url(#Gradiente_sem_nome_66-7);}.cls-36{fill:url(#Gradiente_sem_nome_66-8);}.cls-37{fill:#4d4d4e;}.cls-38{fill:url(#Gradiente_sem_nome_66-9);}.cls-39{fill:url(#Gradiente_sem_nome_66-10);}.cls-40{fill:url(#Gradiente_sem_nome_66-11);}.cls-41{fill:url(#Gradiente_sem_nome_66-12);}.cls-42{fill:url(#Gradiente_sem_nome_66-13);}.cls-43{fill:url(#Gradiente_sem_nome_66-14);}.cls-44{fill:url(#Gradiente_sem_nome_66-15);}.cls-45{fill:url(#Gradiente_sem_nome_66-16);}.cls-46{fill:#a8a7ad;}.cls-47{fill:#f1f1f2;}.cls-48{fill:#333;}.cls-49{fill:#4d4d4d;opacity:0.61;}.cls-50{fill:#fff195;}.cls-51{fill:#fff;}.cls-52{fill:#ff0;}.cls-53{fill:#c9c9c9;}</style><radialGradient id="Gradiente_sem_nome_185" cx="863.72" cy="93.79" r="4.94" gradientUnits="userSpaceOnUse"><stop offset="0" stop-color="aqua"/><stop offset="1" stop-color="#0070ff"/></radialGradient><radialGradient id="Gradiente_sem_nome_185-2" cx="863.72" cy="79.6" r="4.94" xlink:href="#Gradiente_sem_nome_185"/><radialGradient id="Gradiente_sem_nome_111" cx="863.72" cy="65.42" r="4.94" gradientUnits="userSpaceOnUse"><stop offset="0.5" stop-color="red"/><stop offset="1" stop-color="#640000"/></radialGradient><radialGradient id="Gradiente_sem_nome_46" cx="863.72" cy="51.23" r="4.94" gradientUnits="userSpaceOnUse"><stop offset="0.46" stop-color="lime"/><stop offset="1" stop-color="#00c500"/></radialGradient><radialGradient id="Gradiente_sem_nome_34" cx="731.35" cy="96.46" r="3.6" gradientUnits="userSpaceOnUse"><stop offset="0.46" stop-color="#ff0"/><stop offset="1" stop-color="#ffc51e"/></radialGradient><radialGradient id="Gradiente_sem_nome_46-2" cx="760.61" cy="96.46" r="3.6" xlink:href="#Gradiente_sem_nome_46"/><linearGradient id="Gradiente_sem_nome_10" x1="981.37" y1="112.31" x2="1079.56" y2="14.12" gradientTransform="translate(2060.92 126.43) rotate(-180)" gradientUnits="userSpaceOnUse"><stop offset="0" stop-color="#727176"/><stop offset="1" stop-color="#949398"/></linearGradient><radialGradient id="Gradiente_sem_nome_46-3" cx="103.17" cy="64.91" r="3.94" xlink:href="#Gradiente_sem_nome_46"/><radialGradient id="Gradiente_sem_nome_34-2" cx="130.79" cy="64.91" r="3.94" xlink:href="#Gradiente_sem_nome_34"/><radialGradient id="Gradiente_sem_nome_46-4" cx="171.3" cy="64.91" r="3.94" xlink:href="#Gradiente_sem_nome_46"/><radialGradient id="Gradiente_sem_nome_34-3" cx="198.92" cy="64.91" r="3.94" xlink:href="#Gradiente_sem_nome_34"/><radialGradient id="Gradiente_sem_nome_46-5" cx="262.37" cy="64.91" r="3.94" xlink:href="#Gradiente_sem_nome_46"/><radialGradient id="Gradiente_sem_nome_34-4" cx="289.99" cy="64.91" r="3.94" xlink:href="#Gradiente_sem_nome_34"/><radialGradient id="Gradiente_sem_nome_46-6" cx="330.99" cy="64.91" r="3.94" xlink:href="#Gradiente_sem_nome_46"/><radialGradient id="Gradiente_sem_nome_34-5" cx="358.62" cy="64.91" r="3.94" xlink:href="#Gradiente_sem_nome_34"/><radialGradient id="Gradiente_sem_nome_46-7" cx="422.23" cy="64.91" r="3.94" xlink:href="#Gradiente_sem_nome_46"/><radialGradient id="Gradiente_sem_nome_34-6" cx="449.85" cy="64.91" r="3.94" xlink:href="#Gradiente_sem_nome_34"/><radialGradient id="Gradiente_sem_nome_46-8" cx="490.2" cy="64.91" r="3.94" xlink:href="#Gradiente_sem_nome_46"/><radialGradient id="Gradiente_sem_nome_34-7" cx="517.82" cy="64.91" r="3.94" xlink:href="#Gradiente_sem_nome_34"/><radialGradient id="Gradiente_sem_nome_46-9" cx="580.56" cy="64.91" r="3.94" xlink:href="#Gradiente_sem_nome_46"/><radialGradient id="Gradiente_sem_nome_34-8" cx="608.18" cy="64.91" r="3.94" xlink:href="#Gradiente_sem_nome_34"/><radialGradient id="Gradiente_sem_nome_46-10" cx="649.53" cy="64.91" r="3.94" xlink:href="#Gradiente_sem_nome_46"/><radialGradient id="Gradiente_sem_nome_34-9" cx="677.16" cy="64.91" r="3.94" xlink:href="#Gradiente_sem_nome_34"/><linearGradient id="Gradiente_sem_nome_66" x1="734.84" y1="73.78" x2="734.84" y2="80.98" gradientUnits="userSpaceOnUse"><stop offset="0" stop-color="#fff195"/><stop offset="0.47" stop-color="#fff195"/><stop offset="1" stop-color="#1a1a1a"/></linearGradient><linearGradient id="Gradiente_sem_nome_66-2" x1="738.01" y1="73.78" x2="738.01" y2="80.98" xlink:href="#Gradiente_sem_nome_66"/><linearGradient id="Gradiente_sem_nome_66-3" x1="741.18" y1="73.78" x2="741.18" y2="80.98" xlink:href="#Gradiente_sem_nome_66"/><linearGradient id="Gradiente_sem_nome_66-4" x1="744.35" y1="73.78" x2="744.35" y2="80.98" xlink:href="#Gradiente_sem_nome_66"/><linearGradient id="Gradiente_sem_nome_66-5" x1="747.52" y1="73.78" x2="747.52" y2="80.98" xlink:href="#Gradiente_sem_nome_66"/><linearGradient id="Gradiente_sem_nome_66-6" x1="750.69" y1="73.78" x2="750.69" y2="80.98" xlink:href="#Gradiente_sem_nome_66"/><linearGradient id="Gradiente_sem_nome_66-7" x1="753.86" y1="73.78" x2="753.86" y2="80.98" xlink:href="#Gradiente_sem_nome_66"/><linearGradient id="Gradiente_sem_nome_66-8" x1="757.03" y1="73.78" x2="757.03" y2="80.98" xlink:href="#Gradiente_sem_nome_66"/><linearGradient id="Gradiente_sem_nome_66-9" x1="818.66" y1="76.3" x2="818.66" y2="83.5" xlink:href="#Gradiente_sem_nome_66"/><linearGradient id="Gradiente_sem_nome_66-10" x1="821.83" y1="76.3" x2="821.83" y2="83.5" xlink:href="#Gradiente_sem_nome_66"/><linearGradient id="Gradiente_sem_nome_66-11" x1="825" y1="76.3" x2="825" y2="83.5" xlink:href="#Gradiente_sem_nome_66"/><linearGradient id="Gradiente_sem_nome_66-12" x1="828.17" y1="76.3" x2="828.17" y2="83.5" xlink:href="#Gradiente_sem_nome_66"/><linearGradient id="Gradiente_sem_nome_66-13" x1="831.34" y1="76.3" x2="831.34" y2="83.5" xlink:href="#Gradiente_sem_nome_66"/><linearGradient id="Gradiente_sem_nome_66-14" x1="834.51" y1="76.3" x2="834.51" y2="83.5" xlink:href="#Gradiente_sem_nome_66"/><linearGradient id="Gradiente_sem_nome_66-15" x1="837.68" y1="76.3" x2="837.68" y2="83.5" xlink:href="#Gradiente_sem_nome_66"/><linearGradient id="Gradiente_sem_nome_66-16" x1="840.84" y1="76.3" x2="840.84" y2="83.5" xlink:href="#Gradiente_sem_nome_66"/></defs><path class="cls-1" d="M0,0V125.19H1368V0ZM36.44,117.31H19a8.13,8.13,0,1,1,0-16.25H36.44a8.13,8.13,0,1,1,0,16.25Zm0-91.94H19A8.13,8.13,0,1,1,19,9.12H36.44a8.13,8.13,0,1,1,0,16.25Zm1313.78,91.94H1332.8a8.13,8.13,0,1,1,0-16.25h17.42a8.13,8.13,0,0,1,0,16.25Zm0-91.94H1332.8a8.13,8.13,0,1,1,0-16.25h17.42a8.13,8.13,0,0,1,0,16.25Z"/><path d="M121.74,17.53,146.63,42.4c-2.95,0-6,.07-9,0-.57,0-1.16-.74-1.66-1.23-2-2-4-3.91-5.93-5.93-2.71-2.82-5.36-5.68-8.26-8.78-3.11,3.22-5.83,6.06-8.57,8.88-1.73,1.78-3.61,3.42-5.21,5.31a5.33,5.33,0,0,1-4.91,1.84c-2.13-.13-4.28,0-6.47,0Z"/><path d="M197.33,26.61c-3.24,3.23-6,6-8.85,8.83-1.91,1.9-3.95,3.68-5.71,5.71a3.88,3.88,0,0,1-3.46,1.27c-2.42-.05-4.85,0-7.26,0l25.09-24.92L222,42.39c-3.08,0-6.16.19-9.2-.11-1-.1-1.91-1.46-2.78-2.33-1.69-1.67-3.35-3.38-5-5.11C202.48,32.13,199.94,29.4,197.33,26.61Z"/><path d="M297.4,42.4c-3.11,0-6.12.05-9.13-.06-.54,0-1.1-.7-1.57-1.16-2-2-4-3.92-5.95-5.92-2.72-2.79-5.41-5.62-8.22-8.55-1.64,1.58-3,2.89-4.4,4.24-1.75,1.76-3.47,3.55-5.21,5.32s-3.73,3.78-5.61,5.65a1.29,1.29,0,0,1-.77.45c-3.07,0-6.15,0-9.3,0l25.2-25.06Z"/><path d="M372.72,42.39c-3.13,0-6.15.16-9.14-.09-.91-.08-1.78-1.27-2.57-2-1.75-1.72-3.42-3.51-5.15-5.25-2.49-2.49-5-4.95-7.51-7.42-.22-.22-.47-.4-.81-.68-2.82,2.85-5.59,5.68-8.39,8.48-1.9,1.91-3.94,3.69-5.71,5.71a4,4,0,0,1-3.54,1.32c-2.41-.07-4.83,0-7.31,0l25.17-25Z"/><path d="M423.19,17.47,448,42.36c-3.17,0-6.31.14-9.42-.09-.8-.06-1.55-1.28-2.27-2-1.73-1.73-3.42-3.51-5.15-5.24-2.44-2.45-4.9-4.87-7.36-7.3-.26-.26-.57-.5-.89-.78-2.87,2.87-5.69,5.71-8.53,8.53-1.88,1.88-3.9,3.63-5.65,5.63a4,4,0,0,1-3.54,1.32c-2.38-.07-4.77,0-7.14,0Z"/><path d="M473.29,42.39l25-24.95,24.92,24.94c-3,0-6.12,0-9.18-.06-.5,0-1-.75-1.46-1.19-2-2-4-4.07-6.07-6.09q-3.86-3.82-7.75-7.64c-.14-.14-.32-.25-1-.83-1.91,2.14-3.79,4.29-5.74,6.39-1.66,1.79-3.4,3.52-5.11,5.26-1.24,1.26-2.47,2.51-3.73,3.74a1.3,1.3,0,0,1-.79.41C479.39,42.4,476.36,42.39,473.29,42.39Z"/><path d="M548.63,42.38l25.06-25c8.09,8.11,16.47,16.5,24.92,24.95-3.14,0-6.24.05-9.33,0-.47,0-.93-.75-1.36-1.18-2-2-4-4-6-6-2.68-2.79-5.32-5.62-8.4-8.89-2.31,2.53-4.26,4.72-6.26,6.87-1.53,1.63-3.11,3.23-4.68,4.82-1.35,1.38-2.72,2.74-4.1,4.1a1.23,1.23,0,0,1-.71.35C554.74,42.39,551.7,42.38,548.63,42.38Z"/><path d="M824.42,42.38c-2.94,0-6,0-9-.06-.51,0-1-.7-1.47-1.15-2-2-4-4-6-6-2.69-2.79-5.33-5.62-8.09-8.53-1.68,1.62-3.06,2.9-4.39,4.24-2.38,2.4-4.74,4.83-7.11,7.24-1.28,1.3-2.57,2.6-3.87,3.88a1.33,1.33,0,0,1-.81.38c-3,0-6,0-9,0l25-24.85Z"/><path d="M623.75,42.39c8.52-8.5,16.86-16.83,25.21-25.15l24.95,25.13c-3.1,0-6.2.05-9.3,0-.47,0-.93-.74-1.36-1.17-2-2-4-4-6-6-2.68-2.79-5.32-5.62-8.45-8.94-2.28,2.54-4.22,4.74-6.22,6.89-1.52,1.64-3.1,3.23-4.67,4.83q-2,2.07-4.1,4.1a1.36,1.36,0,0,1-.81.36C630,42.4,627,42.39,623.75,42.39Z"/><path d="M749.35,42.38c-3.22,0-6.26.06-9.3-.05-.5,0-1-.72-1.47-1.17-2-2-4-4-6-6-2.69-2.79-5.32-5.63-8.45-8.95-2.3,2.54-4.24,4.74-6.23,6.89-1.53,1.64-3.11,3.23-4.68,4.83q-2,2.07-4.1,4.09a1.32,1.32,0,0,1-.81.37c-3,0-6,0-9,0l25.08-25Z"/><path d="M159.46,32.36l7.28-7.4c1.59-1.62,3.17-3.25,4.76-4.88.58-.59,1.16-1.18,1.73-1.78a3.85,3.85,0,0,1,3.24-1.43c2.62.14,5.25,0,8,0L159.22,42.24,134.2,17c.6,0,1.12-.09,1.63-.09,2.12,0,4.24.1,6.34,0a3.83,3.83,0,0,1,3.16,1.41q5,5.12,10.13,10.2C156.72,29.74,158,31,159.46,32.36Z"/><path d="M259.89,16.91,234.6,42.35,209.43,17c.77,0,1.37-.09,2-.1,2,0,4.09.11,6.13,0a3.76,3.76,0,0,1,3.14,1.43c2.63,2.68,5.27,5.36,7.94,8,2,2,4,3.93,6.33,6.13,1.56-1.66,3.18-3.4,4.81-5.12s3.14-3.28,4.74-4.9,3.25-3.29,4.94-4.86a2.52,2.52,0,0,1,1.54-.61C253.87,16.88,256.77,16.91,259.89,16.91Z"/><path d="M460.5,42.24,435.29,16.92h5.25c4.82,0,4.79,0,8.11,3.41s6.85,6.9,10.28,10.36c.53.53,1,1.1,1.84,2,1.71-1.85,3.34-3.63,5-5.37s3.19-3.34,4.81-5,3.23-3.22,4.86-4.8a1.69,1.69,0,0,1,.95-.56c3.07,0,6.15,0,9.33,0Z"/><path d="M510.79,17h9.67L536.05,32.7c1.75-1.88,3.38-3.66,5-5.41s3.13-3.28,4.73-4.9,3.19-3.24,4.86-4.79a2.73,2.73,0,0,1,1.63-.65c2.87-.06,5.74,0,8.75,0L535.87,42.2Z"/><path d="M335.3,16.92,310,42.34,284.8,16.91c1.85,0,3.6.14,5.33,0,2.88-.28,5.25.24,7.16,2.73a62.06,62.06,0,0,0,5.19,5.33c2.44,2.48,4.87,5,7.57,7.73,1.76-1.88,3.37-3.62,5-5.34s3.14-3.28,4.74-4.9,3.32-3.31,5-4.94a1.65,1.65,0,0,1,.95-.54C328.84,16.9,331.91,16.92,335.3,16.92Z"/><path d="M385.3,32.51c2.55-2.59,5-5.07,7.42-7.56,1.6-1.62,3.18-3.25,4.77-4.88.58-.59,1.17-1.17,1.73-1.78a3.75,3.75,0,0,1,3.15-1.41c2.62.14,5.26,0,8,0L385.1,42.19,360,16.93c3.36,0,6.46-.06,9.55.06.56,0,1.14.72,1.62,1.2q6.27,6.25,12.49,12.54C384.16,31.24,384.63,31.78,385.3,32.51Z"/><path d="M701.83,17h9.87L686.5,42.31,661.36,17h9.89l15.27,15.37Z"/><path d="M611.12,42.17,586,17h9.85l15.25,15.28C616.28,27.14,621.39,22,626.4,17h9.85Z"/><path d="M837.05,42.27,811.89,17c.66,0,1-.08,1.42-.08,2.29,0,4.58.06,6.86,0a3.31,3.31,0,0,1,2.75,1.1c1.59,1.71,3.23,3.39,4.87,5.05q4.46,4.47,8.93,8.92a3.85,3.85,0,0,0,.42.33L852.33,17h9.9Z"/><path d="M736.7,16.94c3.28,0,6.35,0,9.42,0a1.44,1.44,0,0,1,.85.52q5.87,5.9,11.7,11.82c1,1,1.93,2.15,3.2,3.58,1.91-2.06,3.53-3.83,5.18-5.58s3.07-3.24,4.65-4.83,3.37-3.35,5.09-5a1.65,1.65,0,0,1,1-.52c3,0,6.09,0,9.24,0L761.8,42.18Z"/><path d="M1307.14,66.57c-1.76,1.34-3.17,2.43-4.64,3.56l2.6,5.22h-4.3l-1.42-3.11c-1.54.53-1,2.11-1.7,3.1h-3.9c1-4.08,2-8.06,3-12.09h4c-.45,1.88-.88,3.71-1.37,5.75,1.21-.89,2.17-2,3.35-2.34S1305.37,66.57,1307.14,66.57Z"/><path d="M1233,75.35h-1.28c1.07-4.08,2.11-8.07,3.16-12.1h2c.74,3.56,1.48,7.1,2.29,11l8.07-10.95h2c-1,4.05-2.07,8-3.1,12.08h-1.31c1-3.55,1.91-7,2.86-10.5l-.2-.12-7.83,10.62h-1.37l-2.29-10.8h-.23C1234.77,68.11,1233.88,71.68,1233,75.35Z"/><path d="M1289.87,63.27c-.28,1.13-.54,2.16-.8,3.24h-12.53l.79-3.24Z"/><path class="cls-2" d="M863.73,98.71a4.78,4.78,0,0,1-5-4.95,5.18,5.18,0,0,1,5-4.89,5.1,5.1,0,0,1,4.93,5.07A4.66,4.66,0,0,1,863.73,98.71Z"/><path d="M917.74,96.86a4,4,0,0,1-4.14-4.12,4.31,4.31,0,0,1,4.17-4.07,4.23,4.23,0,0,1,4.11,4.22A3.88,3.88,0,0,1,917.74,96.86Z"/><path class="cls-3" d="M863.73,84.52a4.78,4.78,0,0,1-5-5,5.19,5.19,0,0,1,5-4.89,5.1,5.1,0,0,1,4.93,5.07A4.65,4.65,0,0,1,863.73,84.52Z"/><path class="cls-4" d="M863.73,70.33a4.78,4.78,0,0,1-5-5,5.17,5.17,0,0,1,5-4.88,5.09,5.09,0,0,1,4.93,5.06A4.65,4.65,0,0,1,863.73,70.33Z"/><path class="cls-5" d="M863.73,56.15a4.79,4.79,0,0,1-5-5,5.18,5.18,0,0,1,5-4.88,5.09,5.09,0,0,1,4.93,5.06A4.66,4.66,0,0,1,863.73,56.15Z"/><path d="M1282.8,75.36h-4.44c.6-2.39,1.17-4.71,1.75-7h4.45C1284,70.69,1283.4,73,1282.8,75.36Z"/><path d="M1272.37,66.41c3.51-.13,5.26,2.57,3.77,5.83a5.82,5.82,0,0,1-7.41,3.05,3.55,3.55,0,0,1-2.07-3.75A5.6,5.6,0,0,1,1272.37,66.41ZM1271,74.66c2.42.07,4.31-1.93,4.37-4.62a2.76,2.76,0,0,0-3.05-2.84,4.6,4.6,0,0,0-4.45,4.59C1267.81,73.67,1268.85,74.61,1271,74.66Z"/><path d="M1288.05,75.35c.6-2.43,1.17-4.71,1.75-7h4c-.58,2.39-1.15,4.69-1.73,7Z"/><path d="M1252.72,75.34h-1.29c.74-2.91,1.47-5.74,2.21-8.64h1.2c-.33,1.34-.64,2.6-1,4,2.69-1.06,4.41-3.66,7.24-4.19l.21.33L1256.78,70l3.07,5.35h-1.3q-1.38-2.34-2.76-4.65C1253.65,71.48,1252.93,73.21,1252.72,75.34Z"/><path d="M116.28,42.36l5.44-4.85L127,42.36Z"/><path d="M202.27,42.36H191.69l5.41-4.77Z"/><path d="M266.9,42.34l5.45-5,5.09,5Z"/><path d="M417.56,42.37l5.42-5,5.26,5Z"/><path d="M503.46,42.39H493.07l5.38-4.77Z"/><path d="M578.75,42.36H568.37l5.43-4.78Z"/><path d="M724.38,37.45l5,4.87H718.94Z"/><path d="M794.19,42.37l5.26-5,5.39,5Z"/><path d="M649.1,37.4l5,5H643.68Z"/><path d="M347.68,37.62l5.19,4.75H342.33Z"/><path d="M154.52,17h9.76l-4.91,5.3Z"/><path d="M385.21,22.18,380.51,17h9.66Z"/><path d="M842.32,17l-5,5.18L832.37,17Z"/><path d="M305.12,17H315l-5,5.18Z"/><path d="M234.59,22.19,229.75,17h9.93Z"/><path d="M460.63,22.22l-5-5.21h9.89Z"/><path d="M686.57,22.18l-5-5.16h10.14Z"/><path d="M540.91,17.05c-1.65,1.7-3.24,3.36-4.91,5.1l-4.84-5.1Z"/><path d="M616.4,17l-5.09,5.16L606.43,17Z"/><path d="M766.9,17,762,22.2,757.12,17Z"/><path d="M1262.53,66.69h1c-.09.57-.17,1.06-.32,2a4.27,4.27,0,0,1,4.34-2.12c0,.33-.08.62-.13,1a5.59,5.59,0,0,1-.64.1,4,4,0,0,0-4.19,3.45c-.35,1.4-.72,2.8-1.1,4.28l-1.24.06C1261.05,72.43,1261.78,69.59,1262.53,66.69Z"/><path d="M1294.26,66.52h-4c.26-1.12.51-2.15.78-3.25h4C1294.78,64.38,1294.52,65.43,1294.26,66.52Z"/><path d="M1249.49,75.35h-1.24c.77-2.94,1.51-5.8,2.25-8.66h1.22Z"/><path d="M1257.11,65a5.34,5.34,0,0,1-6.74-6.38C1251.19,62.24,1253.24,64.54,1257.11,65Z"/><path d="M1257.23,63.14a4.25,4.25,0,0,1-5-5,14.11,14.11,0,0,0,1.92,3.13A13.88,13.88,0,0,0,1257.23,63.14Z"/><rect x="722.92" y="65.45" width="46.17" height="38.07"/><rect class="cls-6" x="723.66" y="66.53" width="44.63" height="35.92"/><rect class="cls-7" x="727.28" y="93.4" width="8.13" height="6.11"/><rect class="cls-8" x="756.54" y="93.4" width="8.13" height="6.11"/><polygon class="cls-9" points="763 73.78 728.87 73.78 728.87 92.96 735.87 92.96 735.87 99.46 740.16 99.46 740.16 102.39 751.8 102.39 751.8 99.46 756.09 99.46 756.09 92.96 763 92.96 763 73.78"/><path class="cls-10" d="M1104.21,117.63h-149a3.16,3.16,0,0,1-3.15-3.16V12a3.15,3.15,0,0,1,3.15-3.16h149a3.15,3.15,0,0,1,3.15,3.16V114.47A3.16,3.16,0,0,1,1104.21,117.63ZM955.24,9.8A2.16,2.16,0,0,0,953.09,12V114.47a2.16,2.16,0,0,0,2.15,2.16h149a2.16,2.16,0,0,0,2.15-2.16V12a2.16,2.16,0,0,0-2.15-2.16Z"/><rect class="cls-11" x="975.86" y="18.07" width="109.21" height="90.28" rx="2.66" transform="translate(2060.92 126.43) rotate(180)"/><path class="cls-12" d="M1082.41,108.85H978.51a3.15,3.15,0,0,1-3.15-3.15v-85a3.16,3.16,0,0,1,3.15-3.16h103.9a3.17,3.17,0,0,1,3.16,3.16v85A3.16,3.16,0,0,1,1082.41,108.85ZM978.51,18.57a2.16,2.16,0,0,0-2.15,2.16v85a2.15,2.15,0,0,0,2.15,2.15h103.9a2.16,2.16,0,0,0,2.16-2.15v-85a2.16,2.16,0,0,0-2.16-2.16Z"/><path d="M1129.87,22.16h-8a5.3,5.3,0,0,1-2.28-.34,1.38,1.38,0,0,1-.64-1.34,6.53,6.53,0,0,1,.17-1.34l1.66-8.21a6.46,6.46,0,0,1,.47-1.56,2.27,2.27,0,0,1,.75-.91,2.78,2.78,0,0,1,1.14-.44,10.89,10.89,0,0,1,1.65-.11h8l-.52,2.57h-6.88a6.47,6.47,0,0,0-.87,0,1.19,1.19,0,0,0-.51.21,1.1,1.1,0,0,0-.29.46,5.46,5.46,0,0,0-.21.77l-1.23,6.13a5.53,5.53,0,0,0-.12.82.53.53,0,0,0,.27.54,3,3,0,0,0,1.11.13h6.85Z"/><path d="M1134.33,22.16h-2.92l2.9-14.22h2.92Z"/><path d="M1148,19.14a6.73,6.73,0,0,1-.46,1.55,2.43,2.43,0,0,1-.71.91,2.58,2.58,0,0,1-1.13.45,11.42,11.42,0,0,1-1.7.11h-4.51a5.3,5.3,0,0,1-2.28-.34,1.36,1.36,0,0,1-.64-1.34,5.9,5.9,0,0,1,.17-1.34l.94-4.65a8.79,8.79,0,0,1,.49-1.56,2.28,2.28,0,0,1,.71-.91,2.5,2.5,0,0,1,1.12-.43,9.79,9.79,0,0,1,1.67-.12h4.51a9.65,9.65,0,0,1,1.45.09,3,3,0,0,1,.9.27,1.05,1.05,0,0,1,.46.52,2.15,2.15,0,0,1,.13.81,6.45,6.45,0,0,1-.17,1.33Zm-2.68-1,.53-2.57a6.39,6.39,0,0,0,.11-.82.53.53,0,0,0-.27-.54,3.23,3.23,0,0,0-1.1-.12h-2.33c-.33,0-.6,0-.82,0a1.15,1.15,0,0,0-.52.19,1.07,1.07,0,0,0-.32.44,4.17,4.17,0,0,0-.21.82l-.52,2.57a5.53,5.53,0,0,0-.12.82.53.53,0,0,0,.27.54,2.93,2.93,0,0,0,1.1.13h2.33a6.58,6.58,0,0,0,.87-.05,1.19,1.19,0,0,0,.51-.21,1.13,1.13,0,0,0,.29-.45A4.8,4.8,0,0,0,1145.36,18.1Z"/><path d="M1160.55,22.13h-2.92l.26-1.31a2.48,2.48,0,0,1-2.18,1.31h-3.06a11.44,11.44,0,0,1-1.43-.07,2.4,2.4,0,0,1-.9-.27,1.1,1.1,0,0,1-.47-.51,1.85,1.85,0,0,1-.14-.8,4.55,4.55,0,0,1,0-.61c0-.22.08-.47.14-.75l1.55-7.67h2.89L1153,18.1a5,5,0,0,0-.1.79.56.56,0,0,0,.28.56,2.87,2.87,0,0,0,1.1.14h2.33a4,4,0,0,0,.88-.07,1.08,1.08,0,0,0,.52-.22,1,1,0,0,0,.28-.44,6.4,6.4,0,0,0,.19-.76l1.35-6.65h2.9Z"/><path d="M1173.34,22.16h-7.5a10.53,10.53,0,0,1-1.39-.08,2.34,2.34,0,0,1-.9-.26,1.1,1.1,0,0,1-.5-.5,2,2,0,0,1-.15-.84,6.45,6.45,0,0,1,.16-1.34l1-4.65a8,8,0,0,1,.49-1.56,2.28,2.28,0,0,1,.71-.91,2.42,2.42,0,0,1,1.11-.43,9.83,9.83,0,0,1,1.68-.12h3.58l-.52,2.58h-2.47c-.33,0-.61,0-.82,0a1.11,1.11,0,0,0-.52.19,1.07,1.07,0,0,0-.32.44,4.17,4.17,0,0,0-.21.82l-.53,2.57a5.06,5.06,0,0,0-.11.82.53.53,0,0,0,.27.54,2.93,2.93,0,0,0,1.1.13H1171l2.38-11.68h2.91Z"/><path d="M1193.45,22.16h-8a5.3,5.3,0,0,1-2.28-.34,1.38,1.38,0,0,1-.64-1.34,6.53,6.53,0,0,1,.17-1.34l1.66-8.21a6.94,6.94,0,0,1,.47-1.56,2.27,2.27,0,0,1,.75-.91,2.78,2.78,0,0,1,1.14-.44,10.89,10.89,0,0,1,1.65-.11h8l-.52,2.57H1189a6.47,6.47,0,0,0-.87,0,1.19,1.19,0,0,0-.51.21,1.1,1.1,0,0,0-.29.46,5.46,5.46,0,0,0-.21.77l-1.23,6.13a5.53,5.53,0,0,0-.12.82.53.53,0,0,0,.27.54,3,3,0,0,0,1.11.13H1194Z"/><path d="M1206.83,19.14a6.73,6.73,0,0,1-.46,1.55,2.43,2.43,0,0,1-.71.91,2.58,2.58,0,0,1-1.13.45,11.57,11.57,0,0,1-1.71.11h-4.5a5.27,5.27,0,0,1-2.28-.34,1.36,1.36,0,0,1-.64-1.34,6.45,6.45,0,0,1,.16-1.34l1-4.65a8.79,8.79,0,0,1,.49-1.56,2.28,2.28,0,0,1,.71-.91,2.46,2.46,0,0,1,1.12-.43,9.79,9.79,0,0,1,1.67-.12H1205a9.5,9.5,0,0,1,1.44.09,3,3,0,0,1,.91.27,1.05,1.05,0,0,1,.46.52,2.37,2.37,0,0,1,.13.81,6.45,6.45,0,0,1-.17,1.33Zm-2.68-1,.53-2.57a6.39,6.39,0,0,0,.11-.82.53.53,0,0,0-.27-.54,3.23,3.23,0,0,0-1.1-.12h-2.33c-.33,0-.6,0-.82,0a1.15,1.15,0,0,0-.52.19,1.07,1.07,0,0,0-.32.44,4.17,4.17,0,0,0-.21.82l-.52,2.57a5.53,5.53,0,0,0-.12.82.53.53,0,0,0,.27.54,2.93,2.93,0,0,0,1.1.13h2.33a6.3,6.3,0,0,0,.86-.05,1.09,1.09,0,0,0,.51-.21,1,1,0,0,0,.3-.45A4.8,4.8,0,0,0,1204.15,18.1Z"/><path d="M1217.32,14.05h-3.42a5,5,0,0,0-.86,0,.92.92,0,0,0-.51.21,1,1,0,0,0-.3.45,5.6,5.6,0,0,0-.2.77l-1.35,6.63h-2.92l2.18-10.69h2.92l-.26,1.34a2.46,2.46,0,0,1,2.18-1.34h3.06Z"/><path d="M1229,18.1h-6.79l.53-2.57h4c.09-.46.14-.72.14-.77,0-.49-.38-.74-1.14-.74h-2.32a5.88,5.88,0,0,0-.8.05,1,1,0,0,0-.52.21,1.16,1.16,0,0,0-.33.46,3.44,3.44,0,0,0-.23.79L1221,18.1a4.73,4.73,0,0,0-.09.79.57.57,0,0,0,.27.56,2.87,2.87,0,0,0,1.1.14h6l-.52,2.54h-7.1a11.26,11.26,0,0,1-1.42-.07,2.4,2.4,0,0,1-.9-.27,1.18,1.18,0,0,1-.48-.51,2,2,0,0,1-.14-.8,4.68,4.68,0,0,1,0-.61c0-.22.08-.47.14-.75l.93-4.63a3.69,3.69,0,0,1,1.27-2.34,4.48,4.48,0,0,1,2.74-.7H1227a5.11,5.11,0,0,1,2.28.35,1.36,1.36,0,0,1,.64,1.33,6.2,6.2,0,0,1-.17,1.36Z"/><path d="M1248,22.16h-2.9l.74-3.61c0-.18.06-.34.08-.47a1.45,1.45,0,0,0,0-.32.57.57,0,0,0-.27-.56,2.93,2.93,0,0,0-1.11-.14h-3.7l-1,5.1h-2.92L1239,12H1242l-.53,2.52h3.7a6.11,6.11,0,0,0,.82,0,1,1,0,0,0,.53-.18.94.94,0,0,0,.3-.45A7.41,7.41,0,0,0,1247,13l.21-1c0-.18.06-.34.09-.47a2.23,2.23,0,0,0,0-.32c0-.3-.09-.49-.28-.57a3.34,3.34,0,0,0-1.12-.13h-6.62l.52-2.54h7.71A11.2,11.2,0,0,1,1249,8a2.72,2.72,0,0,1,.91.28,1,1,0,0,1,.48.5,2.29,2.29,0,0,1,.13.79,6.79,6.79,0,0,1-.17,1.36l-.64,3.1c-.24,1.15-.71,1.73-1.42,1.73a1,1,0,0,1,.78,1.16,3.25,3.25,0,0,1-.07.59Z"/><path d="M1262.09,19.14a7.26,7.26,0,0,1-.46,1.55,2.45,2.45,0,0,1-.72.91,2.59,2.59,0,0,1-1.12.45,11.57,11.57,0,0,1-1.71.11h-4.51a5.3,5.3,0,0,1-2.28-.34,1.36,1.36,0,0,1-.64-1.34,6.53,6.53,0,0,1,.17-1.34l1-4.65a8.1,8.1,0,0,1,.48-1.56A2.3,2.3,0,0,1,1253,12a2.42,2.42,0,0,1,1.11-.43,9.79,9.79,0,0,1,1.67-.12h4.51a9.56,9.56,0,0,1,1.45.09,2.83,2.83,0,0,1,.9.27,1.05,1.05,0,0,1,.46.52,2.15,2.15,0,0,1,.13.81,6.36,6.36,0,0,1-.16,1.33Zm-2.68-1,.52-2.57a5.36,5.36,0,0,0,.12-.82.52.52,0,0,0-.28-.54,3.23,3.23,0,0,0-1.1-.12h-2.32c-.34,0-.61,0-.82,0a1.07,1.07,0,0,0-.52.19.92.92,0,0,0-.32.44,4.88,4.88,0,0,0-.22.82L1254,18.1a5.53,5.53,0,0,0-.12.82.53.53,0,0,0,.27.54,3,3,0,0,0,1.11.13h2.32a6.47,6.47,0,0,0,.87-.05,1.19,1.19,0,0,0,.51-.21,1.27,1.27,0,0,0,.3-.45A6.12,6.12,0,0,0,1259.41,18.1Z"/><path d="M1274.59,22.13h-2.92l.26-1.31a2.48,2.48,0,0,1-2.18,1.31h-3.06a11.26,11.26,0,0,1-1.42-.07,2.4,2.4,0,0,1-.9-.27,1.12,1.12,0,0,1-.48-.51,2,2,0,0,1-.14-.8,3.41,3.41,0,0,1,0-.61c0-.22.08-.47.14-.75l1.54-7.67h2.89L1267,18.1a4.73,4.73,0,0,0-.09.79.57.57,0,0,0,.27.56,2.87,2.87,0,0,0,1.1.14h2.33a4.2,4.2,0,0,0,.89-.07,1.09,1.09,0,0,0,.51-.22,1,1,0,0,0,.28-.44,4.9,4.9,0,0,0,.19-.76l1.35-6.65h2.9Z"/><path d="M1282.37,22.16H1280a5.3,5.3,0,0,1-2.28-.34,1.38,1.38,0,0,1-.64-1.34,6.53,6.53,0,0,1,.17-1.34l2.28-11.2h2.92l-.74,3.53h2.82l-.54,2.58h-2.78l-.83,4.05a5.53,5.53,0,0,0-.12.82.52.52,0,0,0,.28.54,2.93,2.93,0,0,0,1.1.13h1.23Z"/><path d="M1296,18.1h-6.79l.52-2.57h4c.1-.46.15-.72.15-.77,0-.49-.38-.74-1.14-.74h-2.33a5.72,5.72,0,0,0-.79.05,1,1,0,0,0-.52.21,1.18,1.18,0,0,0-.34.46,4.1,4.1,0,0,0-.22.79L1288,18.1a4,4,0,0,0-.1.79.56.56,0,0,0,.28.56,2.83,2.83,0,0,0,1.1.14h6l-.53,2.54h-7.09a11.26,11.26,0,0,1-1.42-.07,2.4,2.4,0,0,1-.9-.27,1.12,1.12,0,0,1-.48-.51,2,2,0,0,1-.14-.8,3.41,3.41,0,0,1,0-.61c0-.22.08-.47.14-.75l.92-4.63a3.78,3.78,0,0,1,1.27-2.34,4.52,4.52,0,0,1,2.74-.7H1294a5.11,5.11,0,0,1,2.28.35,1.38,1.38,0,0,1,.64,1.33,6.88,6.88,0,0,1-.17,1.36Z"/><path d="M1306.17,14.05h-3.42a5.21,5.21,0,0,0-.87,0,1,1,0,0,0-.51.21,1.06,1.06,0,0,0-.29.45,5.6,5.6,0,0,0-.2.77l-1.36,6.63h-2.91l2.18-10.69h2.92l-.26,1.34a2.45,2.45,0,0,1,2.18-1.34h3.06Z"/><path d="M1202.41,42.42h-5.35a3.79,3.79,0,0,1-1.52-.21.84.84,0,0,1-.43-.85,3.46,3.46,0,0,1,.11-.84l1.11-5.18a4.17,4.17,0,0,1,.32-1,1.4,1.4,0,0,1,.5-.57,1.91,1.91,0,0,1,.76-.28,8.52,8.52,0,0,1,1.11-.07h5.34l-.35,1.62h-4.61a4.4,4.4,0,0,0-.58,0,.76.76,0,0,0-.34.14.6.6,0,0,0-.2.28,4.46,4.46,0,0,0-.14.49l-.82,3.86a2.59,2.59,0,0,0-.08.52.33.33,0,0,0,.18.34,2.28,2.28,0,0,0,.74.08h4.6Z"/><path d="M1210.93,42.42h-5.34a3.81,3.81,0,0,1-1.53-.21.84.84,0,0,1-.43-.85,4,4,0,0,1,.11-.84l1.11-5.18a4.69,4.69,0,0,1,.32-1,1.48,1.48,0,0,1,.5-.57,1.9,1.9,0,0,1,.77-.28,8.35,8.35,0,0,1,1.1-.07h5.35l-.36,1.62h-4.61a4.51,4.51,0,0,0-.58,0,.81.81,0,0,0-.34.14.67.67,0,0,0-.2.28,3.08,3.08,0,0,0-.13.49l-.83,3.86a3.67,3.67,0,0,0-.08.52.33.33,0,0,0,.18.34,2.33,2.33,0,0,0,.74.08h4.6Z"/><path d="M1219.33,42.42h-1.94l.49-2.28c0-.11,0-.21,0-.29a1,1,0,0,0,0-.21.35.35,0,0,0-.19-.35,2.21,2.21,0,0,0-.73-.08h-2.49l-.7,3.21h-1.95l1.4-6.42h2l-.35,1.59h2.49a4,4,0,0,0,.54,0,.69.69,0,0,0,.35-.11.61.61,0,0,0,.21-.28,3.86,3.86,0,0,0,.15-.52l.14-.65.06-.3a.79.79,0,0,0,0-.2c0-.19-.06-.31-.19-.36a2.28,2.28,0,0,0-.74-.08h-4.44l.35-1.6H1219a8.12,8.12,0,0,1,1,0,2.27,2.27,0,0,1,.61.17.66.66,0,0,1,.32.32,1.24,1.24,0,0,1,.09.5,4.3,4.3,0,0,1-.11.86l-.43,2c-.16.72-.48,1.09-1,1.09a.66.66,0,0,1,.53.73,1.81,1.81,0,0,1,0,.38Z"/><path d="M1225.05,39.05h-3.56l.35-1.63h3.56Z"/><path d="M1229.79,42.42h-2l1.59-7.36h-1.56l.35-1.62h3.52Z"/><path d="M1239.38,40.52a4.44,4.44,0,0,1-.31,1,1.54,1.54,0,0,1-.48.58,1.81,1.81,0,0,1-.75.28,7.22,7.22,0,0,1-1.14.07h-3.14a6.33,6.33,0,0,1-1-.06,1.71,1.71,0,0,1-.61-.17.6.6,0,0,1-.31-.32,1.23,1.23,0,0,1-.09-.51,3.53,3.53,0,0,1,.12-.84l1.12-5.18a5.3,5.3,0,0,1,.33-1,1.36,1.36,0,0,1,.48-.57,1.71,1.71,0,0,1,.75-.28,8.45,8.45,0,0,1,1.12-.07h3.14a3.86,3.86,0,0,1,1.54.22.86.86,0,0,1,.44.84,4,4,0,0,1-.11.84Zm-1.8-.66.84-3.86a3.67,3.67,0,0,0,.08-.52.33.33,0,0,0-.18-.34,2.28,2.28,0,0,0-.74-.08h-1.69a4.22,4.22,0,0,0-.55,0,.61.61,0,0,0-.56.39,2.89,2.89,0,0,0-.14.52l-.84,3.86a2.59,2.59,0,0,0-.08.52.33.33,0,0,0,.18.34,2.28,2.28,0,0,0,.74.08h1.68a4,4,0,0,0,.55,0,.72.72,0,0,0,.35-.11.61.61,0,0,0,.21-.28A3.86,3.86,0,0,0,1237.58,39.86Z"/><path d="M1249,33.46l-6.44,9h-2.18l5.49-7.39h-4.28l.34-1.57Z"/><path d="M1255.47,42.42h-7.57l.75-3.4a2.46,2.46,0,0,1,.78-1.39,2.21,2.21,0,0,1,1.51-.53h2.67a4.75,4.75,0,0,0,.6,0,1,1,0,0,0,.34-.14.67.67,0,0,0,.19-.29c0-.11.08-.27.13-.47l0-.2a2.26,2.26,0,0,0,.07-.52.32.32,0,0,0-.19-.34,2.24,2.24,0,0,0-.74-.08h-1.55a1.14,1.14,0,0,0-1.26.94h-1.94l.14-.66a4.94,4.94,0,0,1,.33-1,1.39,1.39,0,0,1,.48-.58,1.85,1.85,0,0,1,.76-.27,8.67,8.67,0,0,1,1.12-.06h3a4,4,0,0,1,1.54.21.85.85,0,0,1,.43.85,4.16,4.16,0,0,1-.12.84l-.39,1.79a1.75,1.75,0,0,1-.3.67,2.06,2.06,0,0,1-.55.51,3.07,3.07,0,0,1-.76.33,3.26,3.26,0,0,1-.9.12h-2.78a.76.76,0,0,0-.6.19,1.86,1.86,0,0,0-.28.74l-.25,1.14h5.63Z"/><path d="M1261,39.05h-3.57l.35-1.63h3.57Z"/><path d="M1265.69,42.42h-2l1.59-7.36h-1.56l.35-1.62h3.52Z"/><path d="M1274.23,42.42h-5.16a3.85,3.85,0,0,1-1.53-.21.84.84,0,0,1-.43-.85,4,4,0,0,1,.11-.84l1.11-5.16a5.07,5.07,0,0,1,.33-1,1.31,1.31,0,0,1,.49-.57,1.67,1.67,0,0,1,.75-.27,8.77,8.77,0,0,1,1.12-.06h5.15l-.35,1.6h-4.43a4.23,4.23,0,0,0-.6,0,.89.89,0,0,0-.34.14.56.56,0,0,0-.19.28,3.89,3.89,0,0,0-.13.48l-.83,3.86a3.67,3.67,0,0,0-.08.52.34.34,0,0,0,.19.34,2.28,2.28,0,0,0,.74.08h2.48l.46-2.07h-2.78l.35-1.63h4.73Z"/><path d="M1279.51,39.05H1276l.35-1.63h3.56Z"/><path d="M1288.26,40.52a5.5,5.5,0,0,1-.3,1,1.5,1.5,0,0,1-.48.57,1.8,1.8,0,0,1-.76.29,7.11,7.11,0,0,1-1.15.08h-3a8.12,8.12,0,0,1-1-.05,1.71,1.71,0,0,1-.61-.17.73.73,0,0,1-.32-.33,1.23,1.23,0,0,1-.09-.51,3.66,3.66,0,0,1,.13-.84L1281,39a1.9,1.9,0,0,1,1-1.1,1.28,1.28,0,0,1-.56-1,.49.49,0,0,1,0-.15l.32-1.5a3.75,3.75,0,0,1,.32-1,1.42,1.42,0,0,1,.5-.58,2,2,0,0,1,.76-.27,7,7,0,0,1,1.11-.07h3a3.88,3.88,0,0,1,1.53.21.86.86,0,0,1,.44.85,4,4,0,0,1-.11.84l-.34,1.5a1.28,1.28,0,0,1-.36.66,1.88,1.88,0,0,1-.64.45,1,1,0,0,1,.56.9.28.28,0,0,1,0,.09s0,.07,0,.11Zm-1.8-.66,0-.2a2.65,2.65,0,0,0,.08-.53c0-.27-.18-.4-.54-.4h-2.32a.75.75,0,0,0-.59.19,2,2,0,0,0-.28.74l0,.2a3,3,0,0,0-.07.52.34.34,0,0,0,.19.34,2.28,2.28,0,0,0,.74.08h1.56a4.51,4.51,0,0,0,.58,0,.81.81,0,0,0,.34-.13.79.79,0,0,0,.2-.29A3.65,3.65,0,0,0,1286.46,39.86Zm.8-3.69,0-.2a2.59,2.59,0,0,0,.08-.52.32.32,0,0,0-.19-.34,2.28,2.28,0,0,0-.74-.08h-1.55a4.75,4.75,0,0,0-.6,0,.66.66,0,0,0-.35.14.52.52,0,0,0-.19.28,3.32,3.32,0,0,0-.11.49l-.05.2a3.84,3.84,0,0,0-.08.51.35.35,0,0,0,.18.35,2.37,2.37,0,0,0,.74.07H1286a4.45,4.45,0,0,0,.56,0,.63.63,0,0,0,.34-.12.56.56,0,0,0,.21-.28Q1287.17,36.5,1287.26,36.17Z"/><path d="M1297.21,40.52a4.39,4.39,0,0,1-.32,1,1.36,1.36,0,0,1-.47.58,1.71,1.71,0,0,1-.74.28,7.3,7.3,0,0,1-1.14.07h-5.3l.35-1.62h4.57a4.22,4.22,0,0,0,.55,0,.72.72,0,0,0,.35-.11.54.54,0,0,0,.2-.28,3.86,3.86,0,0,0,.15-.52l0-.2a3.74,3.74,0,0,0,.08-.53c0-.27-.18-.4-.54-.4h-2.8a2.25,2.25,0,0,1-1.35-.36,1.13,1.13,0,0,1-.49-1,.76.76,0,0,1,0-.15,1,1,0,0,1,0-.15l.4-1.79a4.69,4.69,0,0,1,.32-1,1.46,1.46,0,0,1,.48-.58,1.89,1.89,0,0,1,.75-.27,7,7,0,0,1,1.12-.07h5.29L1298.4,35h-4.54a4,4,0,0,0-.55,0,.69.69,0,0,0-.35.11.71.71,0,0,0-.22.28,2.89,2.89,0,0,0-.14.52l0,.2a3.84,3.84,0,0,0-.08.51.35.35,0,0,0,.19.35,2.5,2.5,0,0,0,.75.07h2.66c1,0,1.52.47,1.52,1.41a2.85,2.85,0,0,1,0,.51Z"/><path d="M1301.89,42l.68-3.25h-3.16l.21-1.11h3.17l.68-3.24h1.09l-.69,3.24H1307l-.21,1.11h-3.17L1303,42Z"/><rect x="1128.08" y="95.21" width="162.83" height="10.5" rx="1"/><path d="M1131.36,116.37a.79.79,0,0,1-.18.61,1,1,0,0,1-.66.16h-2.07a.92.92,0,0,1-.68-.18,1,1,0,0,1-.17-.68l.7-.13v.38h2.37v-.74h-2.09a1,1,0,0,1-.66-.16.79.79,0,0,1-.18-.61v-.36a.81.81,0,0,1,.18-.61,1.06,1.06,0,0,1,.66-.16h1.9a1,1,0,0,1,.66.16.83.83,0,0,1,.18.62l-.69.16v-.37h-2.2v.7h2.09a1,1,0,0,1,.66.16.78.78,0,0,1,.18.61Z"/><path d="M1137.37,117.14h-.72v-2a2.33,2.33,0,0,1,0-.33c0,.08-.1.19-.19.34l-1.27,1.62h-.15l-1.27-1.63a1.53,1.53,0,0,1-.2-.33c0,.13,0,.23,0,.32v2H1133v-3.25h.63l1.58,2,1.55-2h.63Z"/><path d="M1143,117.14h-.88l-.4-.71h-2.13l-.4.71h-.78l1.9-3.25h.76Zm-1.61-1.3-.72-1.32-.75,1.32Z"/><path d="M1148,117.14h-1.12l-1.36-1.23h-.74v1.23H1144v-3.25h2.88c.5,0,.76.21.76.63v.76a.55.55,0,0,1-.4.59,4.18,4.18,0,0,1-.8,0Zm-1.11-2v-.39c0-.11,0-.18-.1-.21a.49.49,0,0,0-.25,0h-1.76v.91h1.76a.67.67,0,0,0,.25,0A.23.23,0,0,0,1146.92,115.1Z"/><path d="M1152.25,114.47h-1.55v2.67h-.78v-2.67h-1.54v-.58h3.87Z"/><path d="M1159.34,116.37a.79.79,0,0,1-.18.61,1,1,0,0,1-.66.16h-2a1,1,0,0,1-.66-.16.79.79,0,0,1-.18-.61v-1.71a.81.81,0,0,1,.18-.61,1.06,1.06,0,0,1,.66-.16h2c.4,0,.65.09.74.28a2,2,0,0,1,.1.8l-.79.12v-.62h-2.11v2.06h2.11v-.7l.79.16Z"/><path d="M1164.77,117.14h-.88l-.41-.71h-2.13l-.39.71h-.78l1.9-3.25h.76Zm-1.61-1.3-.72-1.32-.75,1.32Z"/><path d="M1169.84,117.14h-1.12l-1.36-1.23h-.74v1.23h-.77v-3.25h2.88q.75,0,.75.63v.76a.54.54,0,0,1-.39.59,4.18,4.18,0,0,1-.8,0Zm-1.11-2v-.39c0-.11,0-.18-.1-.21a.49.49,0,0,0-.25,0h-1.76v.91h1.76a.67.67,0,0,0,.25,0A.23.23,0,0,0,1168.73,115.1Z"/><path d="M1175.16,115.5a1.52,1.52,0,0,1-.74,1.39,2.86,2.86,0,0,1-1.39.25h-2v-3.25h2.17a2.2,2.2,0,0,1,1.36.38A1.45,1.45,0,0,1,1175.16,115.5Zm-.81,0q0-1-1.11-1h-1.38v2.06h1a2.28,2.28,0,0,0,1-.18A.89.89,0,0,0,1174.35,115.49Z"/><path d="M911.15,117.14h-1.09l-1.32-1.23H908v1.23h-.75v-3.25h2.8c.49,0,.74.21.74.63v.76a.54.54,0,0,1-.38.59,4,4,0,0,1-.79,0Zm-1.08-2v-.39q0-.17-.09-.21a.49.49,0,0,0-.25,0H908v.91h1.71a.67.67,0,0,0,.25,0A.24.24,0,0,0,910.07,115.1Z"/><path d="M915.72,117.14h-3.37v-3.25h3.34v.56h-2.58v.72h1.51v.55h-1.51v.81h2.61Z"/><path d="M920.67,116.37a.84.84,0,0,1-.17.61,1,1,0,0,1-.64.16h-2a.87.87,0,0,1-.66-.18,1,1,0,0,1-.16-.68l.67-.13v.38H920v-.74h-2a.92.92,0,0,1-.63-.16.79.79,0,0,1-.18-.61v-.36a.81.81,0,0,1,.18-.61,1,1,0,0,1,.63-.16h1.86a1,1,0,0,1,.64.16.88.88,0,0,1,.17.62l-.67.16v-.37h-2.14v.7h2a1,1,0,0,1,.64.16.82.82,0,0,1,.17.61Z"/><path d="M925.62,117.14h-3.37v-3.25h3.34v.56H923v.72h1.51v.55H923v.81h2.61Z"/><path d="M930.05,114.47h-1.5v2.67h-.76v-2.67h-1.5v-.58h3.76Z"/><path d="M885.21,116.37a.79.79,0,0,1-.18.61.9.9,0,0,1-.63.16h-2.07a.92.92,0,0,1-.63-.16.79.79,0,0,1-.18-.61v-2.48h.76v2.64h2.17v-2.64h.76Z"/><path d="M890.42,116.37a.84.84,0,0,1-.17.61,1,1,0,0,1-.64.16h-2a.87.87,0,0,1-.66-.18,1,1,0,0,1-.16-.68l.67-.13v.38h2.31v-.74h-2a.92.92,0,0,1-.63-.16.79.79,0,0,1-.18-.61v-.36a.81.81,0,0,1,.18-.61,1,1,0,0,1,.63-.16h1.86a1,1,0,0,1,.64.16.88.88,0,0,1,.17.62l-.67.16v-.37h-2.14v.7h2a1,1,0,0,1,.64.16.82.82,0,0,1,.17.61Z"/><path d="M895.56,116.51c0,.42-.32.63-1,.63H892v-3.25h2.8c.49,0,.73.21.73.63v.4c0,.32-.19.5-.56.55a.58.58,0,0,1,.59.62Zm-.73-1.55v-.3c0-.16-.12-.24-.35-.24h-1.73v.78h1.73C894.71,115.2,894.83,115.12,894.83,115Zm0,1.31V116a.27.27,0,0,0-.09-.24.6.6,0,0,0-.28,0h-1.73v.82h1.73a.5.5,0,0,0,.28,0C894.82,116.47,894.85,116.39,894.85,116.27Z"/><path d="M815.84,120.72h-.71v-2.19c0-.08,0-.2,0-.37,0,.09-.1.21-.19.37l-1.24,1.77h-.15l-1.24-1.77a1.51,1.51,0,0,1-.2-.37c0,.15,0,.26,0,.35v2.21h-.62v-3.53h.62l1.55,2.14,1.52-2.14h.62Z"/><path d="M818.22,120.72h-.77v-3.53h.77Z"/><path d="M823.44,119.89a1,1,0,0,1-.17.66,1,1,0,0,1-.65.17h-2a1,1,0,0,1-.65-.17,1,1,0,0,1-.17-.66V118a1,1,0,0,1,.17-.66.9.9,0,0,1,.65-.18h2c.4,0,.64.1.73.3a2.42,2.42,0,0,1,.09.87l-.76.13v-.67H820.6v2.24h2.08v-.76l.76.17Z"/><path d="M828.94,120.72h-1.1l-1.33-1.33h-.73v1.33H825v-3.53h2.82c.5,0,.74.23.74.69v.82c0,.35-.12.56-.38.64a3.73,3.73,0,0,1-.79,0Zm-1.09-2.21v-.43a.25.25,0,0,0-.09-.23.49.49,0,0,0-.25,0h-1.73v1h1.73a.49.49,0,0,0,.25-.05A.25.25,0,0,0,827.85,118.51Z"/><path d="M834.15,119.89a.91.91,0,0,1-.18.66.93.93,0,0,1-.64.17H830.9a.94.94,0,0,1-.64-.17.91.91,0,0,1-.18-.66V118a.68.68,0,0,1,.82-.84h2.43a.87.87,0,0,1,.64.18.9.9,0,0,1,.18.66Zm-.77.17v-2.24h-2.53v2.24Z"/><path d="M841.82,119.89a.91.91,0,0,1-.18.66.94.94,0,0,1-.64.17h-2a.86.86,0,0,1-.67-.19,1.26,1.26,0,0,1-.16-.74l.68-.15v.42h2.33v-.81h-2a.67.67,0,0,1-.82-.83V118a1,1,0,0,1,.17-.66.9.9,0,0,1,.65-.18H841a.87.87,0,0,1,.64.18.93.93,0,0,1,.18.67l-.68.17v-.4h-2.16v.76H841a.94.94,0,0,1,.64.17.9.9,0,0,1,.18.66Z"/><path d="M847.42,118.94a1.69,1.69,0,0,1-.73,1.51,2.58,2.58,0,0,1-1.35.27h-1.93v-3.53h2.12a2.05,2.05,0,0,1,1.35.41A1.66,1.66,0,0,1,847.42,118.94Zm-.79,0a1,1,0,0,0-1.09-1.1h-1.36v2.24h1a2.14,2.14,0,0,0,1-.19A1,1,0,0,0,846.63,118.92Z"/><path d="M900.12,117.14h-.69v-2.63h-.7v-.43l1.39-.21Z"/><rect x="811.19" y="109.42" width="37.12" height="4.75"/><path d="M903.07,51.48H868.88l12.73-9.31h21.46ZM870.41,51h32.16V42.67h-20.8Z"/><path d="M884.82,47.7a.77.77,0,0,1-.18.6.9.9,0,0,1-.63.16H882a1,1,0,0,1-.64-.16.81.81,0,0,1-.17-.6V45.24h.76v2.62h2.16V45.24h.76Z"/><path d="M890,47.7a.77.77,0,0,1-.18.6.92.92,0,0,1-.63.16h-2a.9.9,0,0,1-.65-.17,1,1,0,0,1-.16-.68l.67-.14v.39h2.3v-.74h-2a1,1,0,0,1-.64-.16.81.81,0,0,1-.17-.6V46a.85.85,0,0,1,.17-.61,1,1,0,0,1,.64-.15h1.85a1,1,0,0,1,.64.16A.84.84,0,0,1,890,46l-.67.16V45.8h-2.14v.69h2a1,1,0,0,1,.63.16.79.79,0,0,1,.18.61Z"/><path d="M895,48.46h-3.37V45.24h3.34v.55h-2.58v.72h1.51v.55h-1.51v.8H895Z"/><path d="M900.23,48.46h-1.09l-1.31-1.22h-.72v1.22h-.75V45.24h2.8c.48,0,.73.21.73.62v.76a.53.53,0,0,1-.38.58,4,4,0,0,1-.78,0Zm-1.07-2v-.39c0-.11,0-.18-.1-.21a.47.47,0,0,0-.24,0h-1.71v.89h1.71a.47.47,0,0,0,.24,0C899.13,46.62,899.16,46.55,899.16,46.44Z"/><path d="M903.07,65.67H868.86l12.75-9h21.46Zm-32.63-.5h32.13v-8h-20.8Z"/><path d="M883.75,60h-2.59v.85h1.4v.59h-1.4v1.22h-.77V59.43h3.36Z"/><path d="M888,62.65h-.87l-.4-.71h-2.11l-.39.71h-.77l1.88-3.22h.75Zm-1.6-1.29-.71-1.31L885,61.36Z"/><path d="M892.69,61.89a.77.77,0,0,1-.18.6.93.93,0,0,1-.64.16h-2.11a.93.93,0,0,1-.64-.16.77.77,0,0,1-.18-.6V59.43h.77V62h2.21V59.43h.77Z"/><path d="M897.67,62.65H894.4V59.43h.77V62h2.5Z"/><path d="M901.11,60h-1.54v2.65h-.77V60h-1.53v-.57h3.84Z"/><path d="M903.07,79.85H868.84l12.77-8.68h21.46Zm-32.61-.5h32.11V71.67h-20.8Z"/><path d="M884,75c0,.41-.25.62-.75.62h-2.08v1.26h-.76V73.61h2.84q.75,0,.75.63Zm-.75-.19v-.34a.23.23,0,0,0-.1-.22.49.49,0,0,0-.25,0h-1.73V75h1.73a.47.47,0,0,0,.25,0C883.19,75,883.22,74.88,883.22,74.77Z"/><path d="M890,73.61l-1.28,3.23h-.52l-.91-2.23-.93,2.23h-.53l-1.28-3.23h.8l.84,2.16.88-2.16h.54l.9,2.16.8-2.16Z"/><path d="M894.84,76.84h-1.11l-1.33-1.22h-.73v1.22h-.76V73.61h2.84c.49,0,.74.21.74.63V75a.52.52,0,0,1-.39.58,3.66,3.66,0,0,1-.79.05Zm-1.09-2v-.38a.25.25,0,0,0-.1-.22.51.51,0,0,0-.25,0h-1.73v.9h1.73a.67.67,0,0,0,.25,0A.25.25,0,0,0,893.75,74.81Z"/><path d="M901.66,76.21a.57.57,0,0,1-.19.51,1,1,0,0,1-.57.12h-2.78v-.3a.56.56,0,0,1,.1-.35,1.64,1.64,0,0,1,.31-.23l2.29-1.38v-.42h-1.88v.67l-.66-.17v-.42a.57.57,0,0,1,.19-.51,1,1,0,0,1,.57-.12h1.7c.34,0,.56.06.65.19a1.24,1.24,0,0,1,.11.65.64.64,0,0,1-.1.4,1.12,1.12,0,0,1-.33.26l-2,1.15h1.93v-.48l.61.17Z"/><path d="M903.07,94H868.84l12.77-8.69h21.46Zm-32.61-.5h32.11V85.8h-20.8Z"/><path d="M884.58,89.09c0,.42-.24.62-.72.62h-2V91h-.74V87.75h2.74c.48,0,.72.21.72.62Zm-.72-.19v-.34q0-.16-.09-.21a.43.43,0,0,0-.24,0h-1.67v.86h1.67a.43.43,0,0,0,.24,0Q883.86,89.07,883.86,88.9Z"/><path d="M890.38,87.75,889.15,91h-.51l-.88-2.23L886.87,91h-.51l-1.24-3.22h.77l.81,2.16.85-2.16h.52l.87,2.16.78-2.16Z"/><path d="M895.09,91H894l-1.29-1.22H892V91h-.73V87.75H894c.48,0,.72.21.72.62v.76a.53.53,0,0,1-.37.58,3.86,3.86,0,0,1-.77,0ZM894,89v-.39q0-.16-.09-.21a.48.48,0,0,0-.24,0H892v.9h1.68a.49.49,0,0,0,.24,0A.23.23,0,0,0,894,89Z"/><path d="M900.42,91h-.68V88.36h-.68v-.43l1.36-.21Z"/><path d="M739.8,62.76c0,.44-.34.65-1,.65H736V60.1h3c.52,0,.78.22.78.64v.41c0,.32-.2.51-.6.56q.63.07.63.63ZM739,61.19v-.31c0-.16-.13-.24-.37-.24h-1.83v.79h1.83C738.9,61.43,739,61.35,739,61.19Zm0,1.33v-.25A.27.27,0,0,0,739,62a.58.58,0,0,0-.3-.05h-1.83v.84h1.83a.56.56,0,0,0,.3-.06A.27.27,0,0,0,739.05,62.52Z"/><path d="M745.36,62.63a.82.82,0,0,1-.18.62,1.06,1.06,0,0,1-.68.16H742a1,1,0,0,1-.67-.16.78.78,0,0,1-.19-.62V60.89a.8.8,0,0,1,.19-.63,1.07,1.07,0,0,1,.67-.16h2.53a1.13,1.13,0,0,1,.68.16.85.85,0,0,1,.18.63Zm-.8.16v-2.1h-2.65v2.1Z"/><path d="M751.06,62.63a.82.82,0,0,1-.18.62,1,1,0,0,1-.67.16h-2.54a1,1,0,0,1-.67-.16.82.82,0,0,1-.18-.62V60.89a.85.85,0,0,1,.18-.63,1.07,1.07,0,0,1,.67-.16h2.54a1.09,1.09,0,0,1,.67.16.85.85,0,0,1,.18.63Zm-.8.16v-2.1h-2.64v2.1Z"/><path d="M755.79,60.69H754.2v2.72h-.81V60.69h-1.58V60.1h4Z"/><path d="M815.93,66.44a.8.8,0,0,1-.18.62,1,1,0,0,1-.65.16h-2a1,1,0,0,1-.65-.16.8.8,0,0,1-.18-.62V64.7a.8.8,0,0,1,.18-.62,1,1,0,0,1,.65-.16h2c.4,0,.64.09.74.27a2.19,2.19,0,0,1,.09.82l-.78.12v-.62H813V66.6h2.11v-.71l.78.16Z"/><path d="M821.45,66.44a.8.8,0,0,1-.18.62,1,1,0,0,1-.65.16h-2.47a1,1,0,0,1-.66-.16.8.8,0,0,1-.18-.62V64.7a.8.8,0,0,1,.18-.62,1,1,0,0,1,.66-.16h2.47a1,1,0,0,1,.65.16.8.8,0,0,1,.18.62Zm-.78.16V64.51H818.1V66.6Z"/><path d="M826.89,67.22h-.54l-2.46-2a2.42,2.42,0,0,1-.28-.27q0,.32,0,.51v1.8h-.7v-3.3h.53l2.36,2c.17.14.3.26.39.35,0-.3,0-.49,0-.57V63.92h.71Z"/><path d="M832.09,66.44a.76.76,0,0,1-.19.62,1,1,0,0,1-.65.16h-2.08a1,1,0,0,1-.68-.17,1.16,1.16,0,0,1-.16-.7l.69-.14v.39h2.38v-.75h-2.1a1,1,0,0,1-.65-.16.85.85,0,0,1-.18-.63V64.7a.8.8,0,0,1,.18-.62,1,1,0,0,1,.65-.16h1.91a1,1,0,0,1,.66.16.9.9,0,0,1,.17.63l-.69.16v-.38h-2.2v.71h2.1a1,1,0,0,1,.65.17.76.76,0,0,1,.19.62Z"/><path d="M837.62,66.44a.8.8,0,0,1-.18.62,1,1,0,0,1-.66.16h-2.47a1,1,0,0,1-.65-.16.8.8,0,0,1-.18-.62V64.7a.8.8,0,0,1,.18-.62,1,1,0,0,1,.65-.16h2.47a1,1,0,0,1,.66.16.8.8,0,0,1,.18.62Zm-.78.16V64.51h-2.58V66.6Z"/><path d="M842.41,67.22h-3.3v-3.3h.78V66.6h2.52Z"/><path d="M846.86,67.22H843.4v-3.3h3.43v.56h-2.65v.74h1.55v.56h-1.55v.82h2.68Z"/><path d="M740.34,117.14h-3.25v-3.31h3.22v.56h-2.49v.74h1.45v.57h-1.45v.82h2.52Z"/><path d="M744.46,114.42H743v2.72h-.73v-2.72h-1.45v-.59h3.63Z"/><path d="M749,117.14h-.74v-1.42h-2.29v1.42h-.73v-3.31h.73v1.28h2.29v-1.28H749Z"/><path d="M754.67,117.14H754v-2.68h-.67V114l1.34-.22Z"/><path d="M782.16,116.36a.82.82,0,0,1-.18.62.93.93,0,0,1-.64.16h-2.1a1,1,0,0,1-.65-.16.82.82,0,0,1-.17-.62v-2.53h.77v2.69h2.2v-2.69h.77Z"/><path d="M787.31,116.36a.82.82,0,0,1-.18.62,1,1,0,0,1-.65.16h-2.05a.89.89,0,0,1-.67-.18,1.06,1.06,0,0,1-.16-.69l.68-.14v.39h2.35v-.76h-2.08a1,1,0,0,1-.64-.16.82.82,0,0,1-.18-.62v-.37a.82.82,0,0,1,.18-.62,1,1,0,0,1,.64-.16h1.89a1,1,0,0,1,.65.16.86.86,0,0,1,.17.64l-.68.16v-.38h-2.17v.71h2.07a1,1,0,0,1,.65.16.82.82,0,0,1,.18.62Z"/><path d="M792.37,116.49c0,.43-.32.65-1,.65h-2.64v-3.31h2.84c.5,0,.75.21.75.64v.41c0,.32-.19.51-.57.55a.6.6,0,0,1,.59.64Zm-.74-1.57v-.31c0-.16-.11-.24-.35-.24h-1.76v.79h1.76C791.52,115.16,791.63,115.08,791.63,114.92Zm0,1.33V116c0-.13,0-.21-.08-.24a.55.55,0,0,0-.29-.06h-1.76v.84h1.76a.56.56,0,0,0,.29-.05A.3.3,0,0,0,791.65,116.25Z"/><path d="M798.52,116.49a.6.6,0,0,1-.19.53,1,1,0,0,1-.57.12H795v-.3a.52.52,0,0,1,.11-.36,1,1,0,0,1,.31-.24l2.29-1.42v-.43h-1.89v.68l-.66-.16v-.43a.62.62,0,0,1,.19-.53,1,1,0,0,1,.57-.12h1.71c.34,0,.56.06.65.19a1.33,1.33,0,0,1,.11.67.67.67,0,0,1-.1.41,1.12,1.12,0,0,1-.33.26L796,116.54h1.93v-.48l.61.17Z"/><rect class="cls-13" x="99.23" y="60.97" width="7.88" height="7.88"/><path d="M106.61,61.47v6.88H99.73V61.47h6.88m1-1H98.73v8.88h8.88V60.47Z"/><rect class="cls-14" x="126.86" y="60.97" width="7.88" height="7.88"/><path d="M134.23,61.47v6.88h-6.87V61.47h6.87m1-1h-8.87v8.88h8.87V60.47Z"/><path d="M100.94,57.15h-.86l-.4-.7H97.59l-.38.7h-.77L98.31,54h.74Zm-1.58-1.28-.71-1.3-.73,1.3Z"/><path d="M105.41,56.39a.77.77,0,0,1-.18.6,1,1,0,0,1-.64.16h-2A1,1,0,0,1,102,57a.77.77,0,0,1-.17-.6V54.71a.77.77,0,0,1,.17-.6,1,1,0,0,1,.64-.16h2c.39,0,.63.09.73.27a2,2,0,0,1,.09.79l-.77.12v-.61h-2.07v2h2.07v-.69l.77.16Z"/><path d="M110,54.52h-1.52v2.63h-.76V54.52h-1.52V54H110Z"/><path d="M126.31,57.15h-.49V54.56h-.5v-.43l1-.2Z"/><path d="M130.8,56.39a1.19,1.19,0,0,1-.11.6.49.49,0,0,1-.43.16h-1.58a.49.49,0,0,1-.43-.16,1.19,1.19,0,0,1-.11-.6V54.71a1.19,1.19,0,0,1,.11-.6.52.52,0,0,1,.43-.16h1.58a.52.52,0,0,1,.43.16,1.19,1.19,0,0,1,.11.6Zm-.49.18V54.5h-1.68v2.07Z"/><path d="M136.3,56.39a1,1,0,0,1-.12.6.56.56,0,0,1-.46.16h-1.61a.56.56,0,0,1-.46-.16,1,1,0,0,1-.12-.6V54.71a1,1,0,0,1,.12-.6.59.59,0,0,1,.46-.16h1.61a.54.54,0,0,1,.47.17,1.28,1.28,0,0,1,.11.63l-.53.13v-.36h-1.7v2h1.7v-.71h-.89v-.55h1.42Z"/><rect class="cls-15" x="167.36" y="60.97" width="7.88" height="7.88"/><path d="M174.73,61.47v6.88h-6.87V61.47h6.87m1-1h-8.87v8.88h8.87V60.47Z"/><rect class="cls-16" x="194.98" y="60.97" width="7.88" height="7.88"/><path d="M202.36,61.47v6.88h-6.88V61.47h6.88m1-1h-8.88v8.88h8.88V60.47Z"/><path d="M169.06,57.15h-.86l-.39-.7h-2.09l-.39.7h-.76l1.86-3.2h.74Zm-1.57-1.28-.71-1.3-.74,1.3Z"/><path d="M173.53,56.39a.81.81,0,0,1-.17.6,1,1,0,0,1-.64.16h-2a.93.93,0,0,1-.64-.16.77.77,0,0,1-.18-.6V54.71a.77.77,0,0,1,.18-.6,1,1,0,0,1,.64-.16h2q.59,0,.72.27a2,2,0,0,1,.09.79l-.76.12v-.61H170.7v2h2.07v-.69l.76.16Z"/><path d="M178.17,54.52h-1.52v2.63h-.77V54.52h-1.51V54h3.8Z"/><path d="M194.44,57.15h-.5V54.56h-.5v-.43l1-.2Z"/><path d="M198.92,56.39a1.09,1.09,0,0,1-.11.6.46.46,0,0,1-.42.16H196.8a.47.47,0,0,1-.42-.16,1.19,1.19,0,0,1-.11-.6V54.71a1.19,1.19,0,0,1,.11-.6.5.5,0,0,1,.42-.16h1.59a.49.49,0,0,1,.42.16,1.09,1.09,0,0,1,.11.6Zm-.49.18V54.5h-1.67v2.07Z"/><path d="M204.43,56.39a1,1,0,0,1-.13.6.52.52,0,0,1-.45.16h-1.62a.52.52,0,0,1-.45-.16,1,1,0,0,1-.13-.6V54.71a1,1,0,0,1,.13-.6.55.55,0,0,1,.45-.16h1.62a.52.52,0,0,1,.46.17,1.15,1.15,0,0,1,.12.63l-.53.13v-.36h-1.7v2h1.7v-.71H203v-.55h1.42Z"/><rect class="cls-17" x="258.43" y="60.97" width="7.88" height="7.88"/><path d="M265.81,61.47v6.88h-6.88V61.47h6.88m1-1h-8.88v8.88h8.88V60.47Z"/><rect class="cls-18" x="286.06" y="60.97" width="7.88" height="7.88"/><path d="M293.43,61.47v6.88h-6.87V61.47h6.87m1-1h-8.87v8.88h8.87V60.47Z"/><path d="M260.14,57.15h-.87l-.39-.7h-2.09l-.38.7h-.77l1.87-3.2h.74Zm-1.58-1.28-.71-1.3-.73,1.3Z"/><path d="M264.61,56.39a.77.77,0,0,1-.18.6,1,1,0,0,1-.64.16h-2a1,1,0,0,1-.64-.16.77.77,0,0,1-.18-.6V54.71a.77.77,0,0,1,.18-.6,1,1,0,0,1,.64-.16h2c.39,0,.63.09.73.27a2,2,0,0,1,.09.79l-.77.12v-.61h-2.07v2h2.07v-.69l.77.16Z"/><path d="M269.24,54.52h-1.52v2.63H267V54.52h-1.51V54h3.8Z"/><path d="M285.51,57.15H285V54.56h-.49v-.43l1-.2Z"/><path d="M290,56.39a1.08,1.08,0,0,1-.12.6.46.46,0,0,1-.42.16h-1.58a.49.49,0,0,1-.43-.16,1.19,1.19,0,0,1-.11-.6V54.71a1.19,1.19,0,0,1,.11-.6.52.52,0,0,1,.43-.16h1.58a.49.49,0,0,1,.42.16,1.08,1.08,0,0,1,.12.6Zm-.49.18V54.5h-1.68v2.07Z"/><path d="M295.5,56.39a1,1,0,0,1-.12.6.56.56,0,0,1-.46.16h-1.61a.55.55,0,0,1-.46-.16,1,1,0,0,1-.12-.6V54.71a1,1,0,0,1,.12-.6.58.58,0,0,1,.46-.16h1.61a.56.56,0,0,1,.47.17,1.28,1.28,0,0,1,.11.63l-.53.13v-.36h-1.7v2H295v-.71h-.89v-.55h1.42Z"/><rect class="cls-19" x="327.05" y="60.97" width="7.88" height="7.88"/><path d="M334.43,61.47v6.88h-6.88V61.47h6.88m1-1h-8.88v8.88h8.88V60.47Z"/><rect class="cls-20" x="354.68" y="60.97" width="7.88" height="7.88"/><path d="M362.05,61.47v6.88h-6.87V61.47h6.87m1-1h-8.87v8.88h8.87V60.47Z"/><path d="M328.76,57.15h-.86l-.4-.7h-2.09l-.38.7h-.76l1.86-3.2h.74Zm-1.58-1.28-.71-1.3-.73,1.3Z"/><path d="M333.23,56.39a.77.77,0,0,1-.18.6.93.93,0,0,1-.64.16h-2a1,1,0,0,1-.65-.16.81.81,0,0,1-.17-.6V54.71a.81.81,0,0,1,.17-.6,1,1,0,0,1,.65-.16h2c.39,0,.64.09.73.27a2,2,0,0,1,.09.79l-.77.12v-.61h-2.07v2h2.07v-.69l.77.16Z"/><path d="M337.86,54.52h-1.52v2.63h-.76V54.52h-1.51V54h3.79Z"/><path d="M354.13,57.15h-.49V54.56h-.5v-.43l1-.2Z"/><path d="M358.62,56.39a1.19,1.19,0,0,1-.11.6.49.49,0,0,1-.43.16H356.5a.46.46,0,0,1-.42-.16,1.09,1.09,0,0,1-.11-.6V54.71a1.09,1.09,0,0,1,.11-.6.49.49,0,0,1,.42-.16h1.58a.52.52,0,0,1,.43.16,1.19,1.19,0,0,1,.11.6Zm-.49.18V54.5h-1.67v2.07Z"/><path d="M364.13,56.39a1,1,0,0,1-.13.6.52.52,0,0,1-.45.16h-1.62a.56.56,0,0,1-.46-.16,1,1,0,0,1-.12-.6V54.71a1,1,0,0,1,.12-.6.59.59,0,0,1,.46-.16h1.62a.53.53,0,0,1,.46.17,1.15,1.15,0,0,1,.12.63l-.54.13v-.36h-1.7v2h1.7v-.71h-.88v-.55h1.42Z"/><rect class="cls-21" x="418.29" y="60.97" width="7.88" height="7.88"/><path d="M425.67,61.47v6.88h-6.88V61.47h6.88m1-1h-8.88v8.88h8.88V60.47Z"/><rect class="cls-22" x="445.92" y="60.97" width="7.88" height="7.88"/><path d="M453.29,61.47v6.88h-6.87V61.47h6.87m1-1h-8.87v8.88h8.87V60.47Z"/><path d="M420,57.15h-.86l-.4-.7h-2.09l-.38.7h-.77l1.87-3.2h.74Zm-1.58-1.28-.71-1.3-.73,1.3Z"/><path d="M424.47,56.39a.77.77,0,0,1-.18.6,1,1,0,0,1-.64.16h-2A1,1,0,0,1,421,57a.77.77,0,0,1-.17-.6V54.71a.77.77,0,0,1,.17-.6,1,1,0,0,1,.64-.16h2c.39,0,.63.09.73.27a2,2,0,0,1,.09.79l-.77.12v-.61h-2.07v2h2.07v-.69l.77.16Z"/><path d="M429.1,54.52h-1.52v2.63h-.76V54.52H425.3V54h3.8Z"/><path d="M445.37,57.15h-.49V54.56h-.5v-.43l1-.2Z"/><path d="M449.86,56.39a1.19,1.19,0,0,1-.11.6.49.49,0,0,1-.43.16h-1.58a.49.49,0,0,1-.43-.16,1.19,1.19,0,0,1-.11-.6V54.71a1.19,1.19,0,0,1,.11-.6.52.52,0,0,1,.43-.16h1.58a.52.52,0,0,1,.43.16,1.19,1.19,0,0,1,.11.6Zm-.49.18V54.5h-1.68v2.07Z"/><path d="M455.36,56.39a1,1,0,0,1-.12.6.55.55,0,0,1-.46.16h-1.61a.56.56,0,0,1-.46-.16,1,1,0,0,1-.12-.6V54.71a1,1,0,0,1,.12-.6.59.59,0,0,1,.46-.16h1.61a.54.54,0,0,1,.47.17,1.28,1.28,0,0,1,.11.63l-.53.13v-.36h-1.7v2h1.7v-.71h-.89v-.55h1.42Z"/><rect class="cls-23" x="486.26" y="60.97" width="7.88" height="7.88"/><path d="M493.63,61.47v6.88h-6.87V61.47h6.87m1-1h-8.87v8.88h8.87V60.47Z"/><rect class="cls-24" x="513.88" y="60.97" width="7.88" height="7.88"/><path d="M521.26,61.47v6.88h-6.88V61.47h6.88m1-1h-8.88v8.88h8.88V60.47Z"/><path d="M488,57.15h-.87l-.39-.7h-2.09l-.38.7h-.77l1.87-3.2h.74Zm-1.58-1.28-.71-1.3-.73,1.3Z"/><path d="M492.43,56.39a.77.77,0,0,1-.17.6,1,1,0,0,1-.64.16h-2A1,1,0,0,1,489,57a.77.77,0,0,1-.18-.6V54.71a.77.77,0,0,1,.18-.6,1,1,0,0,1,.64-.16h2c.39,0,.63.09.73.27a2.11,2.11,0,0,1,.08.79l-.76.12v-.61H489.6v2h2.07v-.69l.76.16Z"/><path d="M497.07,54.52h-1.52v2.63h-.77V54.52h-1.51V54h3.8Z"/><path d="M513.34,57.15h-.5V54.56h-.49v-.43l1-.2Z"/><path d="M517.83,56.39a1.08,1.08,0,0,1-.12.6.46.46,0,0,1-.42.16h-1.58a.49.49,0,0,1-.43-.16,1.19,1.19,0,0,1-.11-.6V54.71a1.19,1.19,0,0,1,.11-.6.52.52,0,0,1,.43-.16h1.58a.49.49,0,0,1,.42.16,1.08,1.08,0,0,1,.12.6Zm-.49.18V54.5h-1.68v2.07Z"/><path d="M523.33,56.39a1,1,0,0,1-.12.6.56.56,0,0,1-.46.16h-1.61a.55.55,0,0,1-.46-.16,1,1,0,0,1-.12-.6V54.71a1,1,0,0,1,.12-.6.58.58,0,0,1,.46-.16h1.61a.56.56,0,0,1,.47.17,1.28,1.28,0,0,1,.11.63l-.53.13v-.36h-1.7v2h1.7v-.71h-.89v-.55h1.42Z"/><rect class="cls-25" x="576.62" y="60.97" width="7.88" height="7.88"/><path d="M584,61.47v6.88h-6.88V61.47H584m1-1h-8.88v8.88H585V60.47Z"/><rect class="cls-26" x="604.25" y="60.97" width="7.88" height="7.88"/><path d="M611.62,61.47v6.88h-6.87V61.47h6.87m1-1h-8.87v8.88h8.87V60.47Z"/><path d="M578.33,57.15h-.86l-.4-.7H575l-.38.7h-.77L575.7,54h.74Zm-1.58-1.28-.71-1.3-.73,1.3Z"/><path d="M582.8,56.39a.77.77,0,0,1-.18.6,1,1,0,0,1-.64.16h-2a1,1,0,0,1-.64-.16.77.77,0,0,1-.17-.6V54.71a.77.77,0,0,1,.17-.6A1,1,0,0,1,580,54h2c.39,0,.63.09.73.27a2,2,0,0,1,.09.79l-.77.12v-.61H580v2H582v-.69l.77.16Z"/><path d="M587.43,54.52h-1.52v2.63h-.76V54.52h-1.52V54h3.8Z"/><path d="M603.7,57.15h-.49V54.56h-.5v-.43l1-.2Z"/><path d="M608.19,56.39a1.19,1.19,0,0,1-.11.6.49.49,0,0,1-.43.16h-1.58a.49.49,0,0,1-.43-.16,1.19,1.19,0,0,1-.11-.6V54.71a1.19,1.19,0,0,1,.11-.6.52.52,0,0,1,.43-.16h1.58a.52.52,0,0,1,.43.16,1.19,1.19,0,0,1,.11.6Zm-.49.18V54.5H606v2.07Z"/><path d="M613.69,56.39a1,1,0,0,1-.12.6.55.55,0,0,1-.46.16H611.5A.56.56,0,0,1,611,57a1,1,0,0,1-.12-.6V54.71a1,1,0,0,1,.12-.6.59.59,0,0,1,.46-.16h1.61a.54.54,0,0,1,.47.17,1.28,1.28,0,0,1,.11.63l-.53.13v-.36h-1.7v2h1.7v-.71h-.89v-.55h1.42Z"/><rect class="cls-27" x="645.59" y="60.97" width="7.88" height="7.88"/><path d="M653,61.47v6.88h-6.88V61.47H653m1-1h-8.88v8.88H654V60.47Z"/><rect class="cls-28" x="673.22" y="60.97" width="7.88" height="7.88"/><path d="M680.59,61.47v6.88h-6.87V61.47h6.87m1-1h-8.87v8.88h8.87V60.47Z"/><path d="M647.3,57.15h-.86l-.4-.7H644l-.38.7h-.77l1.87-3.2h.74Zm-1.58-1.28-.71-1.3-.73,1.3Z"/><path d="M651.77,56.39a.77.77,0,0,1-.18.6.93.93,0,0,1-.64.16h-2a1,1,0,0,1-.65-.16.81.81,0,0,1-.17-.6V54.71a.81.81,0,0,1,.17-.6A1,1,0,0,1,649,54h2c.39,0,.64.09.73.27a2,2,0,0,1,.09.79l-.77.12v-.61h-2.07v2H651v-.69l.77.16Z"/><path d="M656.4,54.52h-1.52v2.63h-.76V54.52h-1.51V54h3.79Z"/><path d="M672.67,57.15h-.49V54.56h-.5v-.43l1-.2Z"/><path d="M677.16,56.39a1.19,1.19,0,0,1-.11.6.49.49,0,0,1-.43.16H675a.46.46,0,0,1-.42-.16,1.09,1.09,0,0,1-.11-.6V54.71a1.09,1.09,0,0,1,.11-.6A.49.49,0,0,1,675,54h1.58a.52.52,0,0,1,.43.16,1.19,1.19,0,0,1,.11.6Zm-.49.18V54.5H675v2.07Z"/><path d="M682.67,56.39a1,1,0,0,1-.13.6.53.53,0,0,1-.46.16h-1.61A.56.56,0,0,1,680,57a1,1,0,0,1-.12-.6V54.71a1,1,0,0,1,.12-.6.59.59,0,0,1,.46-.16h1.61a.54.54,0,0,1,.47.17,1.15,1.15,0,0,1,.12.63l-.54.13v-.36h-1.7v2h1.7v-.71h-.88v-.55h1.42Z"/><rect x="878.71" y="96" width="24.1" height="8.92"/><polygon points="788.68 71.42 788.68 66.54 786.7 66.54 786.7 65.17 780.7 65.17 780.7 103.8 786.7 103.8 786.7 102.67 788.68 102.67 788.68 97.8 786.7 97.8 786.7 92.26 788.68 92.26 788.68 87.38 786.7 87.38 786.7 81.84 788.68 81.84 788.68 76.96 786.7 76.96 786.7 71.42 788.68 71.42"/><path d="M108.71,116.59a.9.9,0,0,1-.18.66.85.85,0,0,1-.63.17h-2a.8.8,0,0,1-.64-.19,1.15,1.15,0,0,1-.16-.73l.66-.15v.41h2.28V116h-2a.93.93,0,0,1-.63-.17,1,1,0,0,1-.17-.66v-.39a1,1,0,0,1,.17-.66.93.93,0,0,1,.63-.17h1.82a.85.85,0,0,1,.63.18.93.93,0,0,1,.17.67l-.66.17v-.4h-2.1v.75h2a.67.67,0,0,1,.81.83Z"/><path d="M113.51,114.53H111v.92h1.35v.64H111v1.33h-.75v-3.51h3.25Z"/><path d="M117.92,115.38c0,.45-.24.68-.72.68h-2v1.36h-.74v-3.51h2.76c.48,0,.72.23.72.68Zm-.72-.21v-.37a.24.24,0,0,0-.1-.23.37.37,0,0,0-.24,0h-1.68v.93h1.68a.45.45,0,0,0,.24,0A.24.24,0,0,0,117.2,115.17Z"/><path d="M122.67,115.63h-1.61v1.79h-.43v-1.79H119v-.46h1.61v-1.8h.43v1.8h1.61Z"/><path d="M128.74,117.42h-.68v-2.84h-.69v-.47l1.37-.22Z"/><path d="M176.29,116.59a1,1,0,0,1-.17.66.88.88,0,0,1-.63.17h-2c-.33,0-.55-.06-.65-.19a1.22,1.22,0,0,1-.16-.73l.66-.15v.41h2.28V116h-2a.88.88,0,0,1-.62-.17.9.9,0,0,1-.18-.66v-.39a.93.93,0,0,1,.18-.66.88.88,0,0,1,.62-.17h1.83a.85.85,0,0,1,.63.18,1,1,0,0,1,.17.67l-.66.17v-.4h-2.11v.75h2a.93.93,0,0,1,.63.17,1,1,0,0,1,.17.66Z"/><path d="M181.09,114.53h-2.5v.92h1.35v.64h-1.35v1.33h-.75v-3.51h3.25Z"/><path d="M185.5,115.38c0,.45-.24.68-.72.68h-2v1.36H182v-3.51h2.76c.48,0,.72.23.72.68Zm-.72-.21v-.37c0-.12,0-.2-.1-.23s-.12,0-.24,0h-1.68v.93h1.68a.43.43,0,0,0,.24,0C184.75,115.37,184.78,115.29,184.78,115.17Z"/><path d="M190.25,115.63h-1.61v1.79h-.43v-1.79H186.6v-.46h1.61v-1.8h.43v1.8h1.61Z"/><path d="M197.59,116.74a.68.68,0,0,1-.18.56,1,1,0,0,1-.56.12h-2.7v-.32a.63.63,0,0,1,.1-.38,1.2,1.2,0,0,1,.3-.26l2.23-1.49v-.46h-1.84v.72l-.63-.17v-.46a.68.68,0,0,1,.18-.56.83.83,0,0,1,.55-.13h1.66c.33,0,.54.07.62.2a1.38,1.38,0,0,1,.11.71.88.88,0,0,1-.09.44,1.11,1.11,0,0,1-.33.28l-1.89,1.25H197v-.52l.6.19Z"/><path d="M267.37,116.59a1,1,0,0,1-.17.66.88.88,0,0,1-.63.17h-2a.83.83,0,0,1-.65-.19,1.24,1.24,0,0,1-.15-.73l.66-.15v.41h2.27V116h-2a.66.66,0,0,1-.8-.83v-.39a.94.94,0,0,1,.17-.66.9.9,0,0,1,.63-.17h1.82a.85.85,0,0,1,.63.18,1,1,0,0,1,.17.67l-.66.17v-.4h-2.11v.75h2a.93.93,0,0,1,.63.17,1,1,0,0,1,.17.66Z"/><path d="M272.18,114.53h-2.51v.92H271v.64h-1.35v1.33h-.75v-3.51h3.26Z"/><path d="M276.58,115.38c0,.45-.24.68-.72.68h-2v1.36h-.73v-3.51h2.75c.48,0,.72.23.72.68Zm-.72-.21v-.37c0-.12,0-.2-.09-.23a.41.41,0,0,0-.25,0h-1.68v.93h1.68a.49.49,0,0,0,.25,0C275.83,115.37,275.86,115.29,275.86,115.17Z"/><path d="M281.33,115.63h-1.6v1.79h-.43v-1.79h-1.61v-.46h1.61v-1.8h.43v1.8h1.6Z"/><path d="M288.59,116.67a.78.78,0,0,1-.19.61.9.9,0,0,1-.59.14h-1.87c-.35,0-.56-.07-.64-.21a1.88,1.88,0,0,1-.1-.76l.66-.15v.49h1.74c.17,0,.27-.05.3-.16s0-.16,0-.41,0-.22-.07-.26a.35.35,0,0,0-.24-.06h-1.09v-.57h1c.16,0,.25,0,.29-.13a2.76,2.76,0,0,0,0-.37.39.39,0,0,0-.06-.26.35.35,0,0,0-.24-.06h-1.59V115l-.64-.13v-.22a.68.68,0,0,1,.18-.56.87.87,0,0,1,.56-.13h1.74c.35,0,.57.08.65.23a2,2,0,0,1,.08.78.62.62,0,0,1-.16.48.86.86,0,0,1-.46.19c.5,0,.75.29.75.71Z"/><path d="M335.54,116.59a1,1,0,0,1-.17.66.88.88,0,0,1-.63.17h-2c-.33,0-.55-.06-.65-.19a1.22,1.22,0,0,1-.16-.73l.66-.15v.41h2.28V116h-2a.88.88,0,0,1-.62-.17.9.9,0,0,1-.18-.66v-.39a.93.93,0,0,1,.18-.66.88.88,0,0,1,.62-.17h1.83a.85.85,0,0,1,.63.18,1,1,0,0,1,.17.67l-.66.17v-.4h-2.11v.75h2a.93.93,0,0,1,.63.17,1,1,0,0,1,.17.66Z"/><path d="M340.34,114.53h-2.5v.92h1.35v.64h-1.35v1.33h-.75v-3.51h3.25Z"/><path d="M344.75,115.38c0,.45-.24.68-.72.68h-2v1.36h-.74v-3.51H344c.48,0,.72.23.72.68Zm-.72-.21v-.37c0-.12,0-.2-.1-.23s-.12,0-.24,0H342v.93h1.68a.43.43,0,0,0,.24,0C344,115.37,344,115.29,344,115.17Z"/><path d="M349.5,115.63h-1.61v1.79h-.43v-1.79h-1.61v-.46h1.61v-1.8h.43v1.8h1.61Z"/><path d="M357.09,116.65h-.78v.81h-.68v-.81h-2.44v-.59l2.41-2.19h.71v2.19h.78Zm-1.46-.59v-1.57l-1.76,1.57Z"/><path d="M426.71,116.59a.9.9,0,0,1-.18.66.85.85,0,0,1-.63.17h-2a.8.8,0,0,1-.64-.19,1.15,1.15,0,0,1-.16-.73l.66-.15v.41h2.28V116h-2a.93.93,0,0,1-.63-.17,1,1,0,0,1-.17-.66v-.39a1,1,0,0,1,.17-.66.93.93,0,0,1,.63-.17h1.82a.85.85,0,0,1,.63.18.93.93,0,0,1,.17.67l-.66.17v-.4h-2.1v.75h2a.67.67,0,0,1,.81.83Z"/><path d="M431.51,114.53H429v.92h1.35v.64H429v1.33h-.75v-3.51h3.25Z"/><path d="M435.92,115.38c0,.45-.24.68-.72.68h-2v1.36h-.74v-3.51h2.76c.48,0,.72.23.72.68Zm-.72-.21v-.37a.24.24,0,0,0-.1-.23.37.37,0,0,0-.24,0h-1.68v.93h1.68a.45.45,0,0,0,.24,0A.24.24,0,0,0,435.2,115.17Z"/><path d="M440.67,115.63h-1.61v1.79h-.43v-1.79H437v-.46h1.61v-1.8h.43v1.8h1.61Z"/><path d="M448.15,116.29a1,1,0,0,1-.6,1,2.92,2.92,0,0,1-1.17.18,6.91,6.91,0,0,1-1.56-.14l-.16-.68a9,9,0,0,0,1.7.18,2.29,2.29,0,0,0,.69-.07.49.49,0,0,0,.4-.5.48.48,0,0,0-.39-.48,2.62,2.62,0,0,0-.66-.06,11.85,11.85,0,0,0-1.74.14l.18-2h2.78l-.05.6h-2.25l-.07.68a12,12,0,0,1,1.3-.09C447.61,115.1,448.15,115.5,448.15,116.29Z"/><path d="M495,116.59a1,1,0,0,1-.17.66.88.88,0,0,1-.63.17h-2c-.33,0-.55-.06-.65-.19a1.22,1.22,0,0,1-.16-.73l.66-.15v.41h2.28V116h-2a.88.88,0,0,1-.62-.17.9.9,0,0,1-.17-.66v-.39a.94.94,0,0,1,.17-.66.88.88,0,0,1,.62-.17h1.83a.85.85,0,0,1,.63.18,1,1,0,0,1,.17.67l-.66.17v-.4H492.2v.75h2a.93.93,0,0,1,.63.17,1,1,0,0,1,.17.66Z"/><path d="M499.82,114.53h-2.51v.92h1.35v.64h-1.35v1.33h-.75v-3.51h3.26Z"/><path d="M504.22,115.38c0,.45-.24.68-.72.68h-2v1.36h-.74v-3.51h2.76c.48,0,.72.23.72.68Zm-.72-.21v-.37c0-.12,0-.2-.09-.23a.41.41,0,0,0-.25,0h-1.68v.93h1.68a.49.49,0,0,0,.25,0C503.47,115.37,503.5,115.29,503.5,115.17Z"/><path d="M509,115.63h-1.61v1.79h-.43v-1.79h-1.6v-.46h1.6v-1.8h.43v1.8H509Z"/><path d="M516.37,116.57c0,.57-.37.85-1.1.85h-1.36a1.21,1.21,0,0,1-.82-.21,1.22,1.22,0,0,1-.24-.87v-.46a1.86,1.86,0,0,1,.72-1.6,2.78,2.78,0,0,1,1.65-.46l.23,0,.45.56h-.21a6.52,6.52,0,0,0-.86,0,1.33,1.33,0,0,0-1.24.86,8.82,8.82,0,0,1,1.42-.13,3.48,3.48,0,0,1,.63,0,.89.89,0,0,1,.55.25.91.91,0,0,1,.18.61Zm-.69-.2v-.19a.36.36,0,0,0-.23-.38,1.69,1.69,0,0,0-.48,0,11.7,11.7,0,0,0-1.42.08,1.23,1.23,0,0,0,0,.2,1.17,1.17,0,0,0,.1.6q.12.15.57.15h.9a1.28,1.28,0,0,0,.41-.05A.38.38,0,0,0,515.68,116.37Z"/><path d="M586,116.59a1,1,0,0,1-.17.66.88.88,0,0,1-.63.17h-2c-.33,0-.55-.06-.65-.19a1.22,1.22,0,0,1-.16-.73l.66-.15v.41h2.28V116h-2a.88.88,0,0,1-.62-.17.9.9,0,0,1-.18-.66v-.39a.93.93,0,0,1,.18-.66.88.88,0,0,1,.62-.17h1.83a.85.85,0,0,1,.63.18,1,1,0,0,1,.17.67l-.66.17v-.4h-2.11v.75h2a.93.93,0,0,1,.63.17,1,1,0,0,1,.17.66Z"/><path d="M590.79,114.53h-2.5v.92h1.35v.64h-1.35v1.33h-.75v-3.51h3.25Z"/><path d="M595.2,115.38c0,.45-.24.68-.72.68h-2v1.36h-.74v-3.51h2.76c.48,0,.72.23.72.68Zm-.72-.21v-.37c0-.12,0-.2-.1-.23s-.12,0-.24,0h-1.68v.93h1.68a.43.43,0,0,0,.24,0C594.45,115.37,594.48,115.29,594.48,115.17Z"/><path d="M600,115.63h-1.61v1.79h-.43v-1.79H596.3v-.46h1.61v-1.8h.43v1.8H600Z"/><path d="M607.37,114.48l-1.69,3h-.81l1.73-3h-2.13v.76l-.67-.13v-1.23h3.57Z"/><path d="M654.34,116.59a.9.9,0,0,1-.17.66.88.88,0,0,1-.63.17h-2a.83.83,0,0,1-.65-.19,1.24,1.24,0,0,1-.15-.73l.66-.15v.41h2.27V116h-2a.9.9,0,0,1-.63-.17,1,1,0,0,1-.17-.66v-.39a1,1,0,0,1,.17-.66.9.9,0,0,1,.63-.17h1.82a.85.85,0,0,1,.63.18,1,1,0,0,1,.17.67l-.66.17v-.4h-2.11v.75h2a.93.93,0,0,1,.63.17.9.9,0,0,1,.17.66Z"/><path d="M659.15,114.53h-2.51v.92H658v.64h-1.36v1.33h-.74v-3.51h3.25Z"/><path d="M663.56,115.38c0,.45-.24.68-.73.68h-2v1.36h-.73v-3.51h2.75c.49,0,.73.23.73.68Zm-.73-.21v-.37c0-.12,0-.2-.09-.23a.39.39,0,0,0-.24,0h-1.69v.93h1.69a.48.48,0,0,0,.24,0C662.8,115.37,662.83,115.29,662.83,115.17Z"/><path d="M668.31,115.63H666.7v1.79h-.43v-1.79h-1.61v-.46h1.61v-1.8h.43v1.8h1.61Z"/><path d="M675.71,116.67a.82.82,0,0,1-.19.61.93.93,0,0,1-.6.14h-2a.88.88,0,0,1-.59-.14.78.78,0,0,1-.19-.61v-.37a.66.66,0,0,1,.68-.7.71.71,0,0,1-.54-.32,1.94,1.94,0,0,1-.07-.68.68.68,0,0,1,.18-.56.83.83,0,0,1,.55-.13h2c.35,0,.57.08.65.23a2,2,0,0,1,.08.78.62.62,0,0,1-.16.48.86.86,0,0,1-.45.2c.46.05.69.29.69.7Zm-.69-.19v-.26A.39.39,0,0,0,675,116a.35.35,0,0,0-.24-.06h-1.65a.35.35,0,0,0-.24.06.39.39,0,0,0-.06.26v.26a.39.39,0,0,0,.06.26.43.43,0,0,0,.24.05h1.65a.38.38,0,0,0,.24-.06A.36.36,0,0,0,675,116.48ZM675,115v-.18a.38.38,0,0,0-.07-.26.35.35,0,0,0-.24-.06h-1.5a.4.4,0,0,0-.25.06.39.39,0,0,0-.06.26V115a.39.39,0,0,0,.06.26.4.4,0,0,0,.25.06h1.5a.35.35,0,0,0,.24-.06A.38.38,0,0,0,675,115Z"/><rect class="cls-29" x="734.18" y="73.78" width="1.32" height="7.2"/><rect class="cls-30" x="737.35" y="73.78" width="1.32" height="7.2"/><rect class="cls-31" x="740.52" y="73.78" width="1.32" height="7.2"/><rect class="cls-32" x="743.69" y="73.78" width="1.32" height="7.2"/><rect class="cls-33" x="746.86" y="73.78" width="1.32" height="7.2"/><rect class="cls-34" x="750.03" y="73.78" width="1.32" height="7.2"/><rect class="cls-35" x="753.2" y="73.78" width="1.32" height="7.2"/><rect class="cls-36" x="756.37" y="73.78" width="1.32" height="7.2"/><rect class="cls-37" x="807.44" y="68.86" width="44.63" height="35.92"/><polygon class="cls-9" points="846.82 76.3 812.69 76.3 812.69 98.1 819.69 98.1 819.69 104.41 823.98 104.41 835.63 104.41 839.91 104.41 839.91 98.1 846.82 98.1 846.82 76.3"/><rect class="cls-38" x="818" y="76.3" width="1.32" height="7.2"/><rect class="cls-39" x="821.17" y="76.3" width="1.32" height="7.2"/><rect class="cls-40" x="824.34" y="76.3" width="1.32" height="7.2"/><rect class="cls-41" x="827.51" y="76.3" width="1.32" height="7.2"/><rect class="cls-42" x="830.68" y="76.3" width="1.32" height="7.2"/><rect class="cls-43" x="833.85" y="76.3" width="1.32" height="7.2"/><rect class="cls-44" x="837.02" y="76.3" width="1.32" height="7.2"/><rect class="cls-45" x="840.19" y="76.3" width="1.32" height="7.2"/><rect class="cls-46" x="52.65" width="1.68" height="125.19"/><rect class="cls-47" x="48.9" width="2.75" height="125.19"/><rect class="cls-10" x="54.72" width="0.9" height="125.19"/><rect class="cls-46" x="1314.1" width="1.68" height="125.19"/><rect class="cls-47" x="1316.78" width="2.75" height="125.19"/><rect class="cls-10" x="1312.8" width="0.9" height="125.19"/><rect x="779.84" y="65.05" width="17.84" height="38.87"/><rect class="cls-48" x="781.71" y="66.68" width="14.1" height="35.85" rx="1.48"/><path class="cls-6" d="M794.32,67.47a.69.69,0,0,1,.7.69v32.89a.69.69,0,0,1-.7.69H783.19a.69.69,0,0,1-.69-.69V68.16a.69.69,0,0,1,.69-.69h11.13m0-1.58H783.19a2.27,2.27,0,0,0-2.27,2.27v32.89a2.27,2.27,0,0,0,2.27,2.27h11.13a2.28,2.28,0,0,0,2.28-2.27V68.16a2.28,2.28,0,0,0-2.28-2.27Z"/><rect class="cls-49" x="783.41" y="69.53" width="4.1" height="30.14"/><rect class="cls-50" x="787.51" y="72.57" width="1.44" height="2.02"/><rect class="cls-50" x="787.51" y="94.61" width="1.44" height="2.02"/><rect class="cls-50" x="787.51" y="87.27" width="1.44" height="2.02"/><rect class="cls-50" x="787.51" y="79.92" width="1.44" height="2.02"/><path class="cls-51" d="M883,96.87h15.54a1.09,1.09,0,0,1,0,.18c0,1.35,0,2.71,0,4.06a.48.48,0,0,1-.12.31c-.76.84-1.53,1.68-2.31,2.51a.43.43,0,0,1-.28.1H885.67a.47.47,0,0,1-.24-.1l-2.33-2.52a.43.43,0,0,1-.11-.26c0-1.4,0-2.79,0-4.19C883,96.94,883,96.91,883,96.87Zm7.77,1.19h-6.38c-.16,0-.21,0-.21.21,0,.79,0,1.58,0,2.37a.45.45,0,0,0,.1.28q.84.93,1.68,1.83a.33.33,0,0,0,.23.1h9.15a.3.3,0,0,0,.22-.1q.86-.9,1.68-1.83a.46.46,0,0,0,.11-.27c0-.79,0-1.58,0-2.36,0-.19-.05-.23-.23-.23Z"/><path class="cls-48" d="M890.76,98.06h6.37c.18,0,.23,0,.23.23,0,.78,0,1.57,0,2.36a.46.46,0,0,1-.11.27q-.82.93-1.68,1.83a.3.3,0,0,1-.22.1h-9.15a.33.33,0,0,1-.23-.1q-.84-.9-1.68-1.83a.45.45,0,0,1-.1-.28c0-.79,0-1.58,0-2.37,0-.17.05-.21.21-.21Zm-.6,2.38h1.21v-.58h.6v.58h1.2v-.58h.59v.58H895v-.59h1.18V98.67H885.38v1.18h1.2v.59h1.19v-.58h.61v.58h1.19v-.58h.59Z"/><path class="cls-51" d="M890.16,100.44v-.58h-.59v.58h-1.19v-.58h-.61v.58h-1.19v-.59h-1.2V98.67h10.76v1.18H895v.59h-1.2v-.58h-.59v.58H892v-.58h-.6v.58Z"/><rect class="cls-52" x="886.58" y="99.86" width="1.19" height="0.58"/><rect class="cls-52" x="888.38" y="99.86" width="1.19" height="0.58"/><rect class="cls-52" x="890.18" y="99.86" width="1.19" height="0.58"/><rect class="cls-52" x="891.97" y="99.86" width="1.19" height="0.58"/><rect class="cls-52" x="893.77" y="99.86" width="1.19" height="0.58"/><rect class="cls-9" x="96.16" y="76.23" width="41.99" height="29.25"/><path class="cls-53" d="M137.56,104.63H96.75V76.86h40.81Zm-39.81-1h38.81V77.86H97.75Z"/><rect class="cls-9" x="109.36" y="102.61" width="15.59" height="2.25"/><rect class="cls-53" x="110.55" y="102.39" width="13.2" height="1.8"/><rect class="cls-9" x="323.34" y="76.23" width="41.99" height="29.25"/><path class="cls-53" d="M364.74,104.63H323.93V76.86h40.81Zm-39.81-1h38.81V77.86H324.93Z"/><rect class="cls-9" x="336.54" y="102.61" width="15.59" height="2.25"/><rect class="cls-53" x="337.73" y="102.39" width="13.2" height="1.8"/><rect class="cls-9" x="482.5" y="76.23" width="41.99" height="29.25"/><path class="cls-53" d="M523.9,104.63H483.1V76.86h40.8Zm-39.8-1h38.8V77.86H484.1Z"/><rect class="cls-9" x="495.71" y="102.61" width="15.59" height="2.25"/><rect class="cls-53" x="496.9" y="102.39" width="13.2" height="1.8"/><rect class="cls-9" x="573.88" y="76.12" width="41.99" height="29.25"/><path class="cls-53" d="M615.28,104.51h-40.8V76.74h40.8Zm-39.8-1h38.8V77.74h-38.8Z"/><rect class="cls-9" x="587.09" y="102.49" width="15.59" height="2.25"/><rect class="cls-53" x="588.28" y="102.28" width="13.2" height="1.8"/><rect class="cls-9" x="642.13" y="76.12" width="41.99" height="29.25"/><path class="cls-53" d="M683.53,104.51h-40.8V76.74h40.8Zm-39.8-1h38.8V77.74h-38.8Z"/><rect class="cls-9" x="655.33" y="102.49" width="15.59" height="2.25"/><rect class="cls-53" x="656.53" y="102.28" width="13.2" height="1.8"/><rect class="cls-9" x="414.58" y="76.23" width="41.99" height="29.25"/><path class="cls-53" d="M456,104.63h-40.8V76.86H456Zm-39.8-1H455V77.86h-38.8Z"/><rect class="cls-9" x="427.78" y="102.61" width="15.59" height="2.25"/><rect class="cls-53" x="428.97" y="102.39" width="13.2" height="1.8"/><rect class="cls-9" x="255.09" y="76.23" width="41.99" height="29.25"/><path class="cls-53" d="M296.49,104.63H255.68V76.86h40.81Zm-39.81-1h38.81V77.86H256.68Z"/><rect class="cls-9" x="268.29" y="102.61" width="15.59" height="2.25"/><rect class="cls-53" x="269.49" y="102.39" width="13.2" height="1.8"/><rect class="cls-9" x="164.41" y="76.23" width="41.99" height="29.25"/><path class="cls-53" d="M205.81,104.63H165V76.86h40.81Zm-39.81-1h38.81V77.86H166Z"/><rect class="cls-9" x="177.61" y="102.61" width="15.59" height="2.25"/><rect class="cls-53" x="178.8" y="102.39" width="13.2" height="1.8"/></svg>