<svg id="Camada_1" data-name="Camada 1" xmlns="http://www.w3.org/2000/svg" xmlns:xlink="http://www.w3.org/1999/xlink" viewBox="0 0 1368 125.19"><defs><style>.cls-1{fill:#d4d4d4;}.cls-2{fill:url(#Gradiente_sem_nome_185);}.cls-3{fill:url(#Gradiente_sem_nome_46);}.cls-4{fill:#969696;}.cls-5{fill:url(#Gradiente_sem_nome_34);}.cls-6{fill:url(#Gradiente_sem_nome_46-2);}.cls-7{fill:#1a1a1a;}.cls-8{fill:url(#Gradiente_sem_nome_34-2);}.cls-9{fill:url(#Gradiente_sem_nome_46-3);}.cls-10{fill:url(#Gradiente_sem_nome_34-3);}.cls-11{fill:url(#Gradiente_sem_nome_46-4);}.cls-12{fill:url(#Gradiente_sem_nome_34-4);}.cls-13{fill:url(#Gradiente_sem_nome_46-5);}.cls-14{fill:url(#Gradiente_sem_nome_34-5);}.cls-15{fill:url(#Gradiente_sem_nome_46-6);}.cls-16{fill:url(#Gradiente_sem_nome_34-6);}.cls-17{fill:url(#Gradiente_sem_nome_46-7);}.cls-18{fill:url(#Gradiente_sem_nome_34-7);}.cls-19{fill:url(#Gradiente_sem_nome_46-8);}.cls-20{fill:url(#Gradiente_sem_nome_34-8);}.cls-21{fill:url(#Gradiente_sem_nome_46-9);}.cls-22{fill:#424143;}.cls-23{fill:#fff;}.cls-24{fill:gray;}.cls-25{fill:url(#Gradiente_sem_nome_10);}.cls-26{fill:#666;}.cls-27{fill:url(#Gradiente_sem_nome_46-10);}.cls-28{fill:url(#Gradiente_sem_nome_46-11);}.cls-29{fill:url(#Gradiente_sem_nome_46-12);}.cls-30{fill:url(#Gradiente_sem_nome_46-13);}.cls-31{fill:url(#Gradiente_sem_nome_66);}.cls-32{fill:url(#Gradiente_sem_nome_66-2);}.cls-33{fill:url(#Gradiente_sem_nome_66-3);}.cls-34{fill:url(#Gradiente_sem_nome_66-4);}.cls-35{fill:url(#Gradiente_sem_nome_66-5);}.cls-36{fill:url(#Gradiente_sem_nome_66-6);}.cls-37{fill:url(#Gradiente_sem_nome_66-7);}.cls-38{fill:url(#Gradiente_sem_nome_66-8);}.cls-39{fill:url(#Gradiente_sem_nome_66-9);}.cls-40{fill:url(#Gradiente_sem_nome_66-10);}.cls-41{fill:url(#Gradiente_sem_nome_66-11);}.cls-42{fill:url(#Gradiente_sem_nome_66-12);}.cls-43{fill:url(#Gradiente_sem_nome_66-13);}.cls-44{fill:url(#Gradiente_sem_nome_66-14);}.cls-45{fill:url(#Gradiente_sem_nome_66-15);}.cls-46{fill:url(#Gradiente_sem_nome_66-16);}.cls-47{fill:url(#Gradiente_sem_nome_66-17);}.cls-48{fill:url(#Gradiente_sem_nome_66-18);}.cls-49{fill:url(#Gradiente_sem_nome_66-19);}.cls-50{fill:url(#Gradiente_sem_nome_66-20);}.cls-51{fill:url(#Gradiente_sem_nome_66-21);}.cls-52{fill:url(#Gradiente_sem_nome_66-22);}.cls-53{fill:url(#Gradiente_sem_nome_66-23);}.cls-54{fill:url(#Gradiente_sem_nome_66-24);}.cls-55{fill:url(#Gradiente_sem_nome_66-25);}.cls-56{fill:url(#Gradiente_sem_nome_66-26);}.cls-57{fill:url(#Gradiente_sem_nome_66-27);}.cls-58{fill:url(#Gradiente_sem_nome_66-28);}.cls-59{fill:url(#Gradiente_sem_nome_66-29);}.cls-60{fill:url(#Gradiente_sem_nome_66-30);}.cls-61{fill:url(#Gradiente_sem_nome_66-31);}.cls-62{fill:url(#Gradiente_sem_nome_66-32);}.cls-63{fill:url(#Gradiente_sem_nome_66-33);}.cls-64{fill:url(#Gradiente_sem_nome_66-34);}.cls-65{fill:url(#Gradiente_sem_nome_66-35);}.cls-66{fill:url(#Gradiente_sem_nome_66-36);}.cls-67{fill:url(#Gradiente_sem_nome_66-37);}.cls-68{fill:url(#Gradiente_sem_nome_66-38);}.cls-69{fill:url(#Gradiente_sem_nome_66-39);}.cls-70{fill:url(#Gradiente_sem_nome_66-40);}.cls-71{fill:url(#Gradiente_sem_nome_66-41);}.cls-72{fill:url(#Gradiente_sem_nome_66-42);}.cls-73{fill:url(#Gradiente_sem_nome_66-43);}.cls-74{fill:url(#Gradiente_sem_nome_66-44);}.cls-75{fill:url(#Gradiente_sem_nome_66-45);}.cls-76{fill:url(#Gradiente_sem_nome_66-46);}.cls-77{fill:url(#Gradiente_sem_nome_66-47);}.cls-78{fill:url(#Gradiente_sem_nome_66-48);}.cls-79{fill:url(#Gradiente_sem_nome_66-49);}.cls-80{fill:url(#Gradiente_sem_nome_66-50);}.cls-81{fill:url(#Gradiente_sem_nome_66-51);}.cls-82{fill:url(#Gradiente_sem_nome_66-52);}.cls-83{fill:url(#Gradiente_sem_nome_66-53);}.cls-84{fill:url(#Gradiente_sem_nome_66-54);}.cls-85{fill:url(#Gradiente_sem_nome_66-55);}.cls-86{fill:url(#Gradiente_sem_nome_66-56);}.cls-87{fill:url(#Gradiente_sem_nome_66-57);}.cls-88{fill:url(#Gradiente_sem_nome_66-58);}.cls-89{fill:url(#Gradiente_sem_nome_66-59);}.cls-90{fill:url(#Gradiente_sem_nome_66-60);}.cls-91{fill:url(#Gradiente_sem_nome_66-61);}.cls-92{fill:url(#Gradiente_sem_nome_66-62);}.cls-93{fill:url(#Gradiente_sem_nome_66-63);}.cls-94{fill:url(#Gradiente_sem_nome_66-64);}.cls-95{fill:#a8a7ad;}.cls-96{fill:#f1f1f2;}.cls-97{fill:#333;}.cls-98{fill:#ff0;}.cls-99{fill:#c9c9c9;}</style><radialGradient id="Gradiente_sem_nome_185" cx="1038.45" cy="92.84" r="4.81" gradientUnits="userSpaceOnUse"><stop offset="0" stop-color="aqua"/><stop offset="1" stop-color="#0070ff"/></radialGradient><radialGradient id="Gradiente_sem_nome_46" cx="1038.45" cy="77.83" r="4.81" gradientUnits="userSpaceOnUse"><stop offset="0.46" stop-color="lime"/><stop offset="1" stop-color="#00c500"/></radialGradient><radialGradient id="Gradiente_sem_nome_34" cx="520.61" cy="92.24" r="3.6" gradientUnits="userSpaceOnUse"><stop offset="0.46" stop-color="#ff0"/><stop offset="1" stop-color="#ffc51e"/></radialGradient><radialGradient id="Gradiente_sem_nome_46-2" cx="549.87" cy="92.24" r="3.6" xlink:href="#Gradiente_sem_nome_46"/><radialGradient id="Gradiente_sem_nome_34-2" cx="570.46" cy="92.24" r="3.6" xlink:href="#Gradiente_sem_nome_34"/><radialGradient id="Gradiente_sem_nome_46-3" cx="599.72" cy="92.24" r="3.6" xlink:href="#Gradiente_sem_nome_46"/><radialGradient id="Gradiente_sem_nome_34-3" cx="620.31" cy="92.24" r="3.6" xlink:href="#Gradiente_sem_nome_34"/><radialGradient id="Gradiente_sem_nome_46-4" cx="649.57" cy="92.24" r="3.6" xlink:href="#Gradiente_sem_nome_46"/><radialGradient id="Gradiente_sem_nome_34-4" cx="670.16" cy="92.24" r="3.6" xlink:href="#Gradiente_sem_nome_34"/><radialGradient id="Gradiente_sem_nome_46-5" cx="699.42" cy="92.24" r="3.6" xlink:href="#Gradiente_sem_nome_46"/><radialGradient id="Gradiente_sem_nome_34-5" cx="720.01" cy="92.24" r="3.6" xlink:href="#Gradiente_sem_nome_34"/><radialGradient id="Gradiente_sem_nome_46-6" cx="749.27" cy="92.24" r="3.6" xlink:href="#Gradiente_sem_nome_46"/><radialGradient id="Gradiente_sem_nome_34-6" cx="769.86" cy="92.24" r="3.6" xlink:href="#Gradiente_sem_nome_34"/><radialGradient id="Gradiente_sem_nome_46-7" cx="799.12" cy="92.24" r="3.6" xlink:href="#Gradiente_sem_nome_46"/><radialGradient id="Gradiente_sem_nome_34-7" cx="819.71" cy="92.24" r="3.6" xlink:href="#Gradiente_sem_nome_34"/><radialGradient id="Gradiente_sem_nome_46-8" cx="848.96" cy="92.24" r="3.6" xlink:href="#Gradiente_sem_nome_46"/><radialGradient id="Gradiente_sem_nome_34-8" cx="869.56" cy="92.24" r="3.6" xlink:href="#Gradiente_sem_nome_34"/><radialGradient id="Gradiente_sem_nome_46-9" cx="898.81" cy="92.24" r="3.6" xlink:href="#Gradiente_sem_nome_46"/><linearGradient id="Gradiente_sem_nome_10" x1="1180.08" y1="111.94" x2="1277.53" y2="14.49" gradientTransform="translate(2457.61 126.43) rotate(-180)" gradientUnits="userSpaceOnUse"><stop offset="0" stop-color="#727176"/><stop offset="1" stop-color="#949398"/></linearGradient><radialGradient id="Gradiente_sem_nome_46-10" cx="161.04" cy="77.45" r="4.75" xlink:href="#Gradiente_sem_nome_46"/><radialGradient id="Gradiente_sem_nome_46-11" cx="161.04" cy="92.08" r="4.75" xlink:href="#Gradiente_sem_nome_46"/><radialGradient id="Gradiente_sem_nome_46-12" cx="265.73" cy="77.45" r="4.75" xlink:href="#Gradiente_sem_nome_46"/><radialGradient id="Gradiente_sem_nome_46-13" cx="265.73" cy="92.08" r="4.75" xlink:href="#Gradiente_sem_nome_46"/><linearGradient id="Gradiente_sem_nome_66" x1="524.1" y1="69.56" x2="524.1" y2="76.76" gradientUnits="userSpaceOnUse"><stop offset="0" stop-color="#fff195"/><stop offset="0.47" stop-color="#fff195"/><stop offset="1" stop-color="#1a1a1a"/></linearGradient><linearGradient id="Gradiente_sem_nome_66-2" x1="527.27" y1="69.56" x2="527.27" y2="76.76" xlink:href="#Gradiente_sem_nome_66"/><linearGradient id="Gradiente_sem_nome_66-3" x1="530.44" y1="69.56" x2="530.44" y2="76.76" xlink:href="#Gradiente_sem_nome_66"/><linearGradient id="Gradiente_sem_nome_66-4" x1="533.61" y1="69.56" x2="533.61" y2="76.76" xlink:href="#Gradiente_sem_nome_66"/><linearGradient id="Gradiente_sem_nome_66-5" x1="536.78" y1="69.56" x2="536.78" y2="76.76" xlink:href="#Gradiente_sem_nome_66"/><linearGradient id="Gradiente_sem_nome_66-6" x1="539.95" y1="69.56" x2="539.95" y2="76.76" xlink:href="#Gradiente_sem_nome_66"/><linearGradient id="Gradiente_sem_nome_66-7" x1="543.12" y1="69.56" x2="543.12" y2="76.76" xlink:href="#Gradiente_sem_nome_66"/><linearGradient id="Gradiente_sem_nome_66-8" x1="546.29" y1="69.56" x2="546.29" y2="76.76" xlink:href="#Gradiente_sem_nome_66"/><linearGradient id="Gradiente_sem_nome_66-9" x1="573.95" y1="69.56" x2="573.95" y2="76.76" xlink:href="#Gradiente_sem_nome_66"/><linearGradient id="Gradiente_sem_nome_66-10" x1="577.12" y1="69.56" x2="577.12" y2="76.76" xlink:href="#Gradiente_sem_nome_66"/><linearGradient id="Gradiente_sem_nome_66-11" x1="580.29" y1="69.56" x2="580.29" y2="76.76" xlink:href="#Gradiente_sem_nome_66"/><linearGradient id="Gradiente_sem_nome_66-12" x1="583.46" y1="69.56" x2="583.46" y2="76.76" xlink:href="#Gradiente_sem_nome_66"/><linearGradient id="Gradiente_sem_nome_66-13" x1="586.63" y1="69.56" x2="586.63" y2="76.76" xlink:href="#Gradiente_sem_nome_66"/><linearGradient id="Gradiente_sem_nome_66-14" x1="589.8" y1="69.56" x2="589.8" y2="76.76" xlink:href="#Gradiente_sem_nome_66"/><linearGradient id="Gradiente_sem_nome_66-15" x1="592.97" y1="69.56" x2="592.97" y2="76.76" xlink:href="#Gradiente_sem_nome_66"/><linearGradient id="Gradiente_sem_nome_66-16" x1="596.14" y1="69.56" x2="596.14" y2="76.76" xlink:href="#Gradiente_sem_nome_66"/><linearGradient id="Gradiente_sem_nome_66-17" x1="623.84" y1="69.56" x2="623.84" y2="76.76" xlink:href="#Gradiente_sem_nome_66"/><linearGradient id="Gradiente_sem_nome_66-18" x1="627.01" y1="69.56" x2="627.01" y2="76.76" xlink:href="#Gradiente_sem_nome_66"/><linearGradient id="Gradiente_sem_nome_66-19" x1="630.18" y1="69.56" x2="630.18" y2="76.76" xlink:href="#Gradiente_sem_nome_66"/><linearGradient id="Gradiente_sem_nome_66-20" x1="633.35" y1="69.56" x2="633.35" y2="76.76" xlink:href="#Gradiente_sem_nome_66"/><linearGradient id="Gradiente_sem_nome_66-21" x1="636.52" y1="69.56" x2="636.52" y2="76.76" xlink:href="#Gradiente_sem_nome_66"/><linearGradient id="Gradiente_sem_nome_66-22" x1="639.69" y1="69.56" x2="639.69" y2="76.76" xlink:href="#Gradiente_sem_nome_66"/><linearGradient id="Gradiente_sem_nome_66-23" x1="642.86" y1="69.56" x2="642.86" y2="76.76" xlink:href="#Gradiente_sem_nome_66"/><linearGradient id="Gradiente_sem_nome_66-24" x1="646.03" y1="69.56" x2="646.03" y2="76.76" xlink:href="#Gradiente_sem_nome_66"/><linearGradient id="Gradiente_sem_nome_66-25" x1="673.69" y1="69.56" x2="673.69" y2="76.76" xlink:href="#Gradiente_sem_nome_66"/><linearGradient id="Gradiente_sem_nome_66-26" x1="676.86" y1="69.56" x2="676.86" y2="76.76" xlink:href="#Gradiente_sem_nome_66"/><linearGradient id="Gradiente_sem_nome_66-27" x1="680.03" y1="69.56" x2="680.03" y2="76.76" xlink:href="#Gradiente_sem_nome_66"/><linearGradient id="Gradiente_sem_nome_66-28" x1="683.2" y1="69.56" x2="683.2" y2="76.76" xlink:href="#Gradiente_sem_nome_66"/><linearGradient id="Gradiente_sem_nome_66-29" x1="686.37" y1="69.56" x2="686.37" y2="76.76" xlink:href="#Gradiente_sem_nome_66"/><linearGradient id="Gradiente_sem_nome_66-30" x1="689.54" y1="69.56" x2="689.54" y2="76.76" xlink:href="#Gradiente_sem_nome_66"/><linearGradient id="Gradiente_sem_nome_66-31" x1="692.71" y1="69.56" x2="692.71" y2="76.76" xlink:href="#Gradiente_sem_nome_66"/><linearGradient id="Gradiente_sem_nome_66-32" x1="695.88" y1="69.56" x2="695.88" y2="76.76" xlink:href="#Gradiente_sem_nome_66"/><linearGradient id="Gradiente_sem_nome_66-33" x1="723.5" y1="69.56" x2="723.5" y2="76.76" xlink:href="#Gradiente_sem_nome_66"/><linearGradient id="Gradiente_sem_nome_66-34" x1="726.67" y1="69.56" x2="726.67" y2="76.76" xlink:href="#Gradiente_sem_nome_66"/><linearGradient id="Gradiente_sem_nome_66-35" x1="729.84" y1="69.56" x2="729.84" y2="76.76" xlink:href="#Gradiente_sem_nome_66"/><linearGradient id="Gradiente_sem_nome_66-36" x1="733.01" y1="69.56" x2="733.01" y2="76.76" xlink:href="#Gradiente_sem_nome_66"/><linearGradient id="Gradiente_sem_nome_66-37" x1="736.18" y1="69.56" x2="736.18" y2="76.76" xlink:href="#Gradiente_sem_nome_66"/><linearGradient id="Gradiente_sem_nome_66-38" x1="739.35" y1="69.56" x2="739.35" y2="76.76" xlink:href="#Gradiente_sem_nome_66"/><linearGradient id="Gradiente_sem_nome_66-39" x1="742.52" y1="69.56" x2="742.52" y2="76.76" xlink:href="#Gradiente_sem_nome_66"/><linearGradient id="Gradiente_sem_nome_66-40" x1="745.69" y1="69.56" x2="745.69" y2="76.76" xlink:href="#Gradiente_sem_nome_66"/><linearGradient id="Gradiente_sem_nome_66-41" x1="773.39" y1="69.56" x2="773.39" y2="76.76" xlink:href="#Gradiente_sem_nome_66"/><linearGradient id="Gradiente_sem_nome_66-42" x1="776.56" y1="69.56" x2="776.56" y2="76.76" xlink:href="#Gradiente_sem_nome_66"/><linearGradient id="Gradiente_sem_nome_66-43" x1="779.73" y1="69.56" x2="779.73" y2="76.76" xlink:href="#Gradiente_sem_nome_66"/><linearGradient id="Gradiente_sem_nome_66-44" x1="782.9" y1="69.56" x2="782.9" y2="76.76" xlink:href="#Gradiente_sem_nome_66"/><linearGradient id="Gradiente_sem_nome_66-45" x1="786.07" y1="69.56" x2="786.07" y2="76.76" xlink:href="#Gradiente_sem_nome_66"/><linearGradient id="Gradiente_sem_nome_66-46" x1="789.24" y1="69.56" x2="789.24" y2="76.76" xlink:href="#Gradiente_sem_nome_66"/><linearGradient id="Gradiente_sem_nome_66-47" x1="792.41" y1="69.56" x2="792.41" y2="76.76" xlink:href="#Gradiente_sem_nome_66"/><linearGradient id="Gradiente_sem_nome_66-48" x1="795.57" y1="69.56" x2="795.57" y2="76.76" xlink:href="#Gradiente_sem_nome_66"/><linearGradient id="Gradiente_sem_nome_66-49" x1="823.24" y1="69.56" x2="823.24" y2="76.76" xlink:href="#Gradiente_sem_nome_66"/><linearGradient id="Gradiente_sem_nome_66-50" x1="826.41" y1="69.56" x2="826.41" y2="76.76" xlink:href="#Gradiente_sem_nome_66"/><linearGradient id="Gradiente_sem_nome_66-51" x1="829.58" y1="69.56" x2="829.58" y2="76.76" xlink:href="#Gradiente_sem_nome_66"/><linearGradient id="Gradiente_sem_nome_66-52" x1="832.75" y1="69.56" x2="832.75" y2="76.76" xlink:href="#Gradiente_sem_nome_66"/><linearGradient id="Gradiente_sem_nome_66-53" x1="835.92" y1="69.56" x2="835.92" y2="76.76" xlink:href="#Gradiente_sem_nome_66"/><linearGradient id="Gradiente_sem_nome_66-54" x1="839.09" y1="69.56" x2="839.09" y2="76.76" xlink:href="#Gradiente_sem_nome_66"/><linearGradient id="Gradiente_sem_nome_66-55" x1="842.25" y1="69.56" x2="842.25" y2="76.76" xlink:href="#Gradiente_sem_nome_66"/><linearGradient id="Gradiente_sem_nome_66-56" x1="845.42" y1="69.56" x2="845.42" y2="76.76" xlink:href="#Gradiente_sem_nome_66"/><linearGradient id="Gradiente_sem_nome_66-57" x1="873.09" y1="69.56" x2="873.09" y2="76.76" xlink:href="#Gradiente_sem_nome_66"/><linearGradient id="Gradiente_sem_nome_66-58" x1="876.26" y1="69.56" x2="876.26" y2="76.76" xlink:href="#Gradiente_sem_nome_66"/><linearGradient id="Gradiente_sem_nome_66-59" x1="879.43" y1="69.56" x2="879.43" y2="76.76" xlink:href="#Gradiente_sem_nome_66"/><linearGradient id="Gradiente_sem_nome_66-60" x1="882.6" y1="69.56" x2="882.6" y2="76.76" xlink:href="#Gradiente_sem_nome_66"/><linearGradient id="Gradiente_sem_nome_66-61" x1="885.77" y1="69.56" x2="885.77" y2="76.76" xlink:href="#Gradiente_sem_nome_66"/><linearGradient id="Gradiente_sem_nome_66-62" x1="888.94" y1="69.56" x2="888.94" y2="76.76" xlink:href="#Gradiente_sem_nome_66"/><linearGradient id="Gradiente_sem_nome_66-63" x1="892.1" y1="69.56" x2="892.1" y2="76.76" xlink:href="#Gradiente_sem_nome_66"/><linearGradient id="Gradiente_sem_nome_66-64" x1="895.27" y1="69.56" x2="895.27" y2="76.76" xlink:href="#Gradiente_sem_nome_66"/></defs><path class="cls-1" d="M0,0V125.19H1368V0ZM44.57,109.19a8.15,8.15,0,0,1-8.13,8.12H19a8.15,8.15,0,0,1-8.13-8.12h0A8.16,8.16,0,0,1,19,101.06H36.44a8.16,8.16,0,0,1,8.13,8.13ZM36.44,25.37H19A8.13,8.13,0,1,1,19,9.12H36.44a8.13,8.13,0,1,1,0,16.25Zm1321.9,83.82a8.15,8.15,0,0,1-8.12,8.12H1332.8a8.15,8.15,0,0,1-8.13-8.12h0a8.16,8.16,0,0,1,8.13-8.13h17.42a8.15,8.15,0,0,1,8.12,8.13Zm-8.12-83.82H1332.8a8.13,8.13,0,1,1,0-16.25h17.42a8.13,8.13,0,0,1,0,16.25Z"/><path d="M126.9,21.38l25,24.88c-3,0-6,.07-9-.06-.57,0-1.16-.74-1.66-1.22-2-2-4-3.92-6-5.93-2.71-2.82-5.37-5.69-8.29-8.78-3.11,3.22-5.84,6.06-8.6,8.87-1.74,1.78-3.62,3.43-5.23,5.32a5.35,5.35,0,0,1-4.93,1.84c-2.14-.13-4.29,0-6.49,0Z"/><path d="M202.76,30.47c-3.24,3.23-6,6-8.88,8.83-1.91,1.9-4,3.68-5.73,5.7a3.93,3.93,0,0,1-3.48,1.28c-2.43-.06-4.86,0-7.28,0l25.18-24.92,25,24.9a91.57,91.57,0,0,1-9.23-.12c-1-.1-1.91-1.46-2.79-2.32-1.7-1.67-3.36-3.38-5-5.11C207.94,36,205.39,33.26,202.76,30.47Z"/><path d="M303.2,46.25c-3.12,0-6.14.06-9.16,0-.54,0-1.11-.7-1.58-1.16-2-2-4-3.92-6-5.93-2.73-2.79-5.43-5.61-8.25-8.54-1.64,1.57-3.05,2.89-4.41,4.24-1.76,1.76-3.48,3.55-5.23,5.32s-3.74,3.78-5.63,5.65a1.4,1.4,0,0,1-.78.45c-3.08,0-6.17,0-9.33,0l25.29-25.06Z"/><path d="M378.8,46.25c-3.14,0-6.18.16-9.17-.1-.92-.08-1.79-1.26-2.59-2-1.75-1.71-3.42-3.51-5.16-5.24-2.5-2.49-5-4.95-7.54-7.43-.22-.21-.47-.39-.81-.67-2.83,2.85-5.62,5.67-8.43,8.48-1.9,1.91-4,3.69-5.73,5.71a4,4,0,0,1-3.55,1.32c-2.42-.07-4.85,0-7.33,0l25.26-25Z"/><path d="M429.45,21.32l24.93,24.9c-3.19,0-6.34.14-9.46-.1-.81-.06-1.55-1.27-2.28-2-1.73-1.73-3.43-3.51-5.16-5.25-2.45-2.44-4.92-4.86-7.39-7.29-.27-.27-.57-.5-.9-.78-2.88,2.87-5.71,5.71-8.55,8.53C418.74,41.2,416.72,43,415,45a4,4,0,0,1-3.56,1.32c-2.39-.07-4.79,0-7.17,0Z"/><path d="M479.74,46.25,504.86,21.3l25,24.94c-3.06,0-6.14,0-9.21-.06-.51,0-1-.75-1.46-1.2-2-2-4.06-4.06-6.1-6.08-2.58-2.56-5.18-5.1-7.77-7.64-.15-.15-.33-.25-1-.83-1.92,2.13-3.8,4.29-5.76,6.39-1.67,1.79-3.41,3.51-5.13,5.26-1.24,1.25-2.48,2.5-3.74,3.73a1.31,1.31,0,0,1-.8.42C485.87,46.26,482.82,46.25,479.74,46.25Z"/><path d="M555.36,46.24l25.15-25,25,24.95c-3.15,0-6.26.05-9.37-.06-.46,0-.92-.74-1.36-1.17-2-2-4-4-6-6-2.69-2.78-5.34-5.62-8.44-8.89-2.31,2.54-4.27,4.73-6.28,6.87-1.53,1.64-3.11,3.23-4.69,4.83q-2,2.07-4.12,4.09a1.21,1.21,0,0,1-.71.36C561.49,46.25,558.44,46.24,555.36,46.24Z"/><path d="M882.89,21.28l25.07,25a45.31,45.31,0,0,0-6.61.07c-2.54.38-4-1-5.49-2.53-2.58-2.6-5.18-5.18-7.74-7.81-1.71-1.75-3.36-3.57-5.49-5.85-2.19,2.42-4.08,4.59-6,6.68-1.72,1.84-3.52,3.6-5.29,5.39-1.19,1.21-2.38,2.42-3.59,3.6a1.26,1.26,0,0,1-.79.42c-3,0-6.1,0-9.11,0Z"/><path d="M832.16,46.24c-2.95,0-6,0-9-.06-.51,0-1-.71-1.48-1.15-2-2-4-4-6-6-2.7-2.79-5.35-5.62-8.12-8.53-1.68,1.62-3.07,2.9-4.4,4.24-2.4,2.4-4.76,4.83-7.14,7.23q-1.92,2-3.89,3.89a1.28,1.28,0,0,1-.81.38c-3,0-6,0-9,0l25-24.84C815.37,29.47,823.78,37.86,832.16,46.24Z"/><path d="M630.76,46.25l25.29-25.16c8.23,8.26,16.61,16.68,25.05,25.14-3.12,0-6.23.05-9.33,0-.47,0-.94-.74-1.37-1.17-2-2-4-4-6-6-2.69-2.79-5.34-5.62-8.48-8.94-2.3,2.54-4.24,4.74-6.24,6.89-1.53,1.64-3.12,3.23-4.69,4.83-1.36,1.38-2.73,2.75-4.12,4.09a1.32,1.32,0,0,1-.82.37C637,46.26,634,46.25,630.76,46.25Z"/><path d="M756.82,46.24c-3.23,0-6.29.06-9.34-.05-.5,0-1-.73-1.47-1.17-2-2-4-4-6-6-2.69-2.8-5.34-5.63-8.48-8.95-2.3,2.54-4.25,4.74-6.25,6.89-1.53,1.64-3.12,3.23-4.69,4.82q-2,2.07-4.12,4.1a1.32,1.32,0,0,1-.82.37c-3,0-6,0-9,0l25.17-25Z"/><path d="M164.75,36.22c2.46-2.49,4.89-4.94,7.31-7.4q2.38-2.45,4.78-4.88c.58-.6,1.16-1.18,1.73-1.79a3.91,3.91,0,0,1,3.26-1.43c2.63.15,5.27,0,8,0L164.52,46.09,139.4,20.86c.6,0,1.12-.09,1.64-.09,2.12,0,4.25.1,6.36,0a3.79,3.79,0,0,1,3.17,1.41q5.06,5.12,10.17,10.2C162,33.6,163.31,34.83,164.75,36.22Z"/><path d="M265.55,20.77,240.17,46.21,214.91,20.87c.77,0,1.37-.1,2-.1,2.05,0,4.11.1,6.16,0a3.81,3.81,0,0,1,3.15,1.42q4,4,8,8c2,2,4.07,3.92,6.36,6.13,1.56-1.66,3.19-3.4,4.83-5.12s3.15-3.29,4.76-4.9,3.26-3.29,5-4.86a2.5,2.5,0,0,1,1.54-.61C259.51,20.74,262.42,20.77,265.55,20.77Z"/><path d="M466.9,46.09,441.6,20.78h5.27c4.84,0,4.81,0,8.13,3.41s6.89,6.9,10.32,10.36c.54.53,1,1.1,1.86,2,1.71-1.85,3.34-3.63,5-5.38s3.21-3.33,4.83-5,3.24-3.22,4.88-4.8a1.64,1.64,0,0,1,.95-.56c3.08-.05,6.17,0,9.37,0Z"/><path d="M517.38,20.87h9.7l15.65,15.69c1.76-1.88,3.4-3.66,5.06-5.41s3.14-3.29,4.74-4.9,3.21-3.25,4.89-4.79a2.65,2.65,0,0,1,1.63-.65c2.88-.06,5.76,0,8.78,0L542.55,46.06Z"/><path d="M341.24,20.78,315.83,46.2,290.55,20.77c1.86,0,3.62.14,5.35,0,2.89-.28,5.27.24,7.19,2.73a62.31,62.31,0,0,0,5.21,5.33l7.6,7.72c1.76-1.87,3.38-3.61,5-5.33s3.16-3.29,4.76-4.9,3.34-3.31,5-4.95a1.7,1.7,0,0,1,1-.54C334.75,20.76,337.84,20.78,341.24,20.78Z"/><path d="M391.43,36.37l7.45-7.56,4.78-4.88c.58-.59,1.18-1.17,1.74-1.78a3.76,3.76,0,0,1,3.16-1.41c2.63.13,5.28,0,8,0L391.22,46.05,366,20.79c3.36,0,6.47-.06,9.58.06.56,0,1.14.72,1.63,1.2q6.28,6.25,12.53,12.54C390.28,35.1,390.76,35.64,391.43,36.37Z"/><path d="M709.12,20.85H719l-25.3,25.32L668.51,20.88h9.92l15.32,15.37Z"/><path d="M618.08,46c-8.3-8.27-16.66-16.62-25.19-25.13h9.89l15.31,15.27,15.32-15.33h9.89Z"/><path d="M844.83,46.13,819.58,20.87c.67,0,1-.08,1.43-.08,2.3,0,4.59.06,6.89,0a3.29,3.29,0,0,1,2.75,1.1c1.61,1.71,3.25,3.38,4.9,5.05q4.46,4.47,9,8.92a3,3,0,0,0,.43.32l15.24-15.32h9.94Z"/><path d="M744.12,20.79c3.29,0,6.37,0,9.45,0a1.5,1.5,0,0,1,.86.51c3.92,3.94,7.84,7.87,11.74,11.83,1,1,1.94,2.15,3.21,3.58,1.92-2.06,3.54-3.83,5.2-5.58s3.09-3.24,4.66-4.83,3.39-3.35,5.11-5a1.7,1.7,0,0,1,1-.52c3.06,0,6.11,0,9.28,0-8.48,8.46-16.85,16.83-25.27,25.25Z"/><path d="M1144.9,103.4l-5.22,4c1,2,1.91,3.87,2.92,5.9h-4.83c-.53-1.14-1.06-2.3-1.61-3.51-1.73.6-1.17,2.38-1.91,3.5h-4.4l3.41-13.66h4.48l-1.55,6.49c1.37-1,2.45-2.21,3.78-2.64S1142.91,103.4,1144.9,103.4Z"/><path d="M1061.36,113.32h-1.44c1.2-4.61,2.37-9.12,3.56-13.67h2.21c.83,4,1.67,8,2.57,12.38l9.1-12.37h2.21c-1.18,4.58-2.33,9.09-3.5,13.65h-1.47c1.09-4,2.15-7.94,3.22-11.87l-.23-.13c-2.92,4-5.84,8-8.82,12h-1.54c-.86-4.09-1.72-8.14-2.58-12.2h-.26C1063.39,105.14,1062.39,109.18,1061.36,113.32Z"/><path d="M1125.45,99.67c-.32,1.28-.61,2.44-.91,3.66h-14.11l.88-3.66Z"/><path d="M924.1,99.72a4.06,4.06,0,0,1-4.21-4.2,4.4,4.4,0,0,1,4.24-4.13,4.3,4.3,0,0,1,4.17,4.29A3.94,3.94,0,0,1,924.1,99.72Z"/><path d="M1117.48,113.33h-5c.67-2.7,1.32-5.32,2-8h5C1118.8,108.05,1118.15,110.64,1117.48,113.33Z"/><path d="M1105.75,103.22c4-.15,5.92,2.9,4.25,6.59a6.54,6.54,0,0,1-8.35,3.44,4,4,0,0,1-2.34-4.24A6.32,6.32,0,0,1,1105.75,103.22Zm-1.52,9.33c2.73.07,4.86-2.19,4.92-5.23a3.12,3.12,0,0,0-3.43-3.21,5.2,5.2,0,0,0-5,5.19C1100.61,111.42,1101.78,112.49,1104.23,112.55Z"/><path d="M1123.39,113.32c.68-2.74,1.32-5.32,2-7.95h4.49c-.67,2.69-1.3,5.3-1.95,7.95Z"/><path d="M1083.61,113.31h-1.46c.84-3.29,1.66-6.49,2.5-9.76H1086c-.37,1.51-.72,2.94-1.1,4.51,3-1.19,5-4.13,8.15-4.73l.24.37-5.11,3.58c1.15,2,2.27,4,3.47,6h-1.47l-3.11-5.25C1084.66,109,1083.85,110.9,1083.61,113.31Z"/><path d="M121.41,46.22c2.07-1.83,3.87-3.44,5.46-4.86l5.3,4.86Z"/><path d="M207.72,46.22H197.1l5.43-4.77Z"/><path d="M888,46.2H877.55l5.37-4.75Z"/><path d="M272.59,46.19c2.08-1.89,3.82-3.49,5.47-5l5.11,5Z"/><path d="M423.8,46.22l5.45-5,5.27,5Z"/><path d="M510,46.24H499.59l5.4-4.76Z"/><path d="M585.59,46.22H575.17l5.45-4.79Z"/><path d="M731.76,41.31l5,4.87H726.29Z"/><path d="M801.83,46.23l5.27-5,5.41,5Z"/><path d="M656.2,41.26l5,4.94H650.75Z"/><path d="M353.67,41.48l5.2,4.75H348.3Z"/><path d="M159.79,20.85h9.8l-4.93,5.3Z"/><path d="M391.33,26l-4.72-5.15h9.71Z"/><path d="M850.13,20.86l-5.06,5.19c-1.71-1.79-3.33-3.5-4.93-5.19Z"/><path d="M311,20.85h9.88c-1.63,1.7-3.26,3.38-5,5.18C314.17,24.27,312.57,22.58,311,20.85Z"/><path d="M240.17,26.05l-4.87-5.17h10Z"/><path d="M467,26.08l-5-5.21H472Z"/><path d="M693.8,26l-5.06-5.16h10.18Z"/><path d="M547.6,20.9,542.68,26l-4.86-5.11Z"/><path d="M623.38,20.87,618.26,26l-4.89-5.16Z"/><path d="M774.43,20.88l-5,5.18c-1.7-1.83-3.31-3.55-4.84-5.18Z"/><path d="M1094.66,103.54h1.17c-.1.64-.2,1.2-.37,2.24a4.84,4.84,0,0,1,4.89-2.41l-.14,1.09a6.7,6.7,0,0,1-.73.1c-2.66.15-4,1.31-4.71,3.9-.4,1.58-.81,3.16-1.24,4.84l-1.4.07C1093,110,1093.82,106.82,1094.66,103.54Z"/><path d="M1130.39,103.34h-4.49c.31-1.26.58-2.42.88-3.67h4.5C1131,100.92,1130.68,102.11,1130.39,103.34Z"/><path d="M1080,113.32h-1.39c.86-3.32,1.69-6.55,2.53-9.79h1.37C1081.63,106.83,1080.81,110,1080,113.32Z"/><path d="M1088.55,101.61a6,6,0,0,1-7.58-7.22C1081.89,98.51,1084.2,101.11,1088.55,101.61Z"/><path d="M1088.69,99.53a4.8,4.8,0,0,1-5.68-5.65,16.34,16.34,0,0,0,2.16,3.53A16.15,16.15,0,0,0,1088.69,99.53Z"/><circle class="cls-2" cx="1038.45" cy="92.84" r="4.81"/><circle class="cls-3" cx="1038.45" cy="77.83" r="4.81"/><rect x="512.12" y="60.47" width="396.17" height="39.6"/><rect class="cls-4" x="512.92" y="62.31" width="44.63" height="35.92"/><rect class="cls-5" x="516.54" y="89.18" width="8.13" height="6.11"/><rect class="cls-6" x="545.8" y="89.18" width="8.13" height="6.11"/><polygon class="cls-7" points="552.26 69.56 518.13 69.56 518.13 88.74 525.14 88.74 525.14 95.24 529.42 95.24 529.42 98.18 541.07 98.18 541.07 95.24 545.35 95.24 545.35 88.74 552.26 88.74 552.26 69.56"/><rect class="cls-4" x="562.77" y="62.31" width="44.63" height="35.92"/><rect class="cls-8" x="566.39" y="89.18" width="8.13" height="6.11"/><rect class="cls-9" x="595.65" y="89.18" width="8.13" height="6.11"/><polygon class="cls-7" points="602.11 69.56 567.98 69.56 567.98 88.74 574.99 88.74 574.99 95.24 579.27 95.24 579.27 98.18 590.92 98.18 590.92 95.24 595.2 95.24 595.2 88.74 602.11 88.74 602.11 69.56"/><rect class="cls-4" x="612.62" y="62.31" width="44.63" height="35.92"/><rect class="cls-10" x="616.24" y="89.18" width="8.13" height="6.11"/><rect class="cls-11" x="645.5" y="89.18" width="8.13" height="6.11"/><polygon class="cls-7" points="651.96 69.56 617.83 69.56 617.83 88.74 624.84 88.74 624.84 95.24 629.12 95.24 629.12 98.18 640.77 98.18 640.77 95.24 645.05 95.24 645.05 88.74 651.96 88.74 651.96 69.56"/><rect class="cls-4" x="662.47" y="62.31" width="44.63" height="35.92"/><rect class="cls-12" x="666.09" y="89.18" width="8.13" height="6.11"/><rect class="cls-13" x="695.35" y="89.18" width="8.13" height="6.11"/><polygon class="cls-7" points="701.81 69.56 667.68 69.56 667.68 88.74 674.68 88.74 674.68 95.24 678.97 95.24 678.97 98.18 690.62 98.18 690.62 95.24 694.9 95.24 694.9 88.74 701.81 88.74 701.81 69.56"/><rect class="cls-4" x="712.32" y="62.31" width="44.63" height="35.92"/><rect class="cls-14" x="715.94" y="89.18" width="8.13" height="6.11"/><rect class="cls-15" x="745.2" y="89.18" width="8.13" height="6.11"/><polygon class="cls-7" points="751.66 69.56 717.53 69.56 717.53 88.74 724.53 88.74 724.53 95.24 728.82 95.24 728.82 98.18 740.47 98.18 740.47 95.24 744.75 95.24 744.75 88.74 751.66 88.74 751.66 69.56"/><rect class="cls-4" x="762.17" y="62.31" width="44.63" height="35.92"/><rect class="cls-16" x="765.79" y="89.18" width="8.13" height="6.11"/><rect class="cls-17" x="795.05" y="89.18" width="8.13" height="6.11"/><polygon class="cls-7" points="801.51 69.56 767.38 69.56 767.38 88.74 774.38 88.74 774.38 95.24 778.67 95.24 778.67 98.18 790.32 98.18 790.32 95.24 794.6 95.24 794.6 88.74 801.51 88.74 801.51 69.56"/><rect class="cls-4" x="812.02" y="62.31" width="44.63" height="35.92"/><rect class="cls-18" x="815.64" y="89.18" width="8.13" height="6.11"/><rect class="cls-19" x="844.9" y="89.18" width="8.13" height="6.11"/><polygon class="cls-7" points="851.36 69.56 817.23 69.56 817.23 88.74 824.23 88.74 824.23 95.24 828.52 95.24 828.52 98.18 840.16 98.18 840.16 95.24 844.45 95.24 844.45 88.74 851.36 88.74 851.36 69.56"/><rect class="cls-4" x="861.86" y="62.31" width="44.63" height="35.92"/><rect class="cls-20" x="865.49" y="89.18" width="8.13" height="6.11"/><rect class="cls-21" x="894.75" y="89.18" width="8.13" height="6.11"/><polygon class="cls-7" points="901.21 69.56 867.08 69.56 867.08 88.74 874.08 88.74 874.08 95.24 878.37 95.24 878.37 98.18 890.01 98.18 890.01 95.24 894.3 95.24 894.3 88.74 901.21 88.74 901.21 69.56"/><rect x="74.29" y="92.38" width="23.56" height="8.52" rx="2"/><path class="cls-7" d="M982,77.07h17.21c2,0,4,0,5.93.05,3.39.13,5.49,2.59,4.95,5.93q-1.2,7.41-2.62,14.78a4.42,4.42,0,0,1-4.45,3.84c-5.7.12-11.4.11-17.1.1-6.57,0-13.15,0-19.72-.11a4.4,4.4,0,0,1-4.34-3.81c-.93-4.85-1.84-9.7-2.63-14.57-.59-3.68,1.61-6.15,5.35-6.16,5.8,0,11.61,0,17.42,0Z"/><path class="cls-22" d="M1001.77,77.07c1.11,0,2.21,0,3.32.05,3.39.13,5.49,2.59,4.95,5.93q-1.2,7.41-2.62,14.78a4.42,4.42,0,0,1-4.45,3.84c-4.48.09-9,.11-13.44.11h-3.66c-6.57,0-13.15,0-19.72-.11a4.4,4.4,0,0,1-4.34-3.81c-.93-4.85-1.84-9.7-2.63-14.57-.59-3.68,1.61-6.15,5.35-6.16l7,0H982v0h19.82m0-2H980v0h-8.38l-7.05,0a7.49,7.49,0,0,0-5.85,2.46,7.3,7.3,0,0,0-1.46,6c.82,5.12,1.79,10.23,2.63,14.62a6.4,6.4,0,0,0,6.28,5.44c6.16.11,12.43.11,18.48.11h4.93c5,0,9.23,0,13.49-.12a6.4,6.4,0,0,0,6.37-5.45c1-4.93,1.83-9.92,2.62-14.84a7.06,7.06,0,0,0-1.39-5.71,7.26,7.26,0,0,0-5.45-2.54c-1.22,0-2.4-.05-3.4-.05Z"/><circle class="cls-23" cx="972.78" cy="92.87" r="1.29"/><circle class="cls-23" cx="968.8" cy="84.7" r="1.29"/><circle class="cls-23" cx="976.73" cy="84.7" r="1.29"/><circle class="cls-23" cx="984.67" cy="84.7" r="1.29"/><circle class="cls-23" cx="992.6" cy="84.7" r="1.29"/><circle class="cls-23" cx="1000.54" cy="84.7" r="1.29"/><circle class="cls-23" cx="980.67" cy="92.87" r="1.29"/><circle class="cls-23" cx="988.55" cy="92.87" r="1.29"/><circle class="cls-23" cx="996.44" cy="92.87" r="1.29"/><path class="cls-22" d="M948.67,80,941.83,84v7.9l6.84,4,6.85-4V84Zm0,12.77a4.71,4.71,0,1,1,4.72-4.71A4.71,4.71,0,0,1,948.67,92.78Z"/><path class="cls-22" d="M1020.1,80,1013.26,84v7.9l6.84,4,6.84-4V84Zm0,12.77a4.71,4.71,0,1,1,4.71-4.71A4.71,4.71,0,0,1,1020.1,92.78Z"/><path class="cls-24" d="M1149,117.63H64.65a3.17,3.17,0,0,1-3.16-3.16V12A3.17,3.17,0,0,1,64.65,8.8H1149a3.17,3.17,0,0,1,3.16,3.16V114.47A3.17,3.17,0,0,1,1149,117.63ZM64.65,9.8A2.16,2.16,0,0,0,62.49,12V114.47a2.16,2.16,0,0,0,2.16,2.16H1149a2.16,2.16,0,0,0,2.16-2.16V12A2.16,2.16,0,0,0,1149,9.8Z"/><path class="cls-24" d="M1303.29,117.63h-149a3.16,3.16,0,0,1-3.15-3.16V12a3.16,3.16,0,0,1,3.15-3.16h149a3.17,3.17,0,0,1,3.16,3.16V114.47A3.17,3.17,0,0,1,1303.29,117.63ZM1154.32,9.8a2.16,2.16,0,0,0-2.15,2.16V114.47a2.16,2.16,0,0,0,2.15,2.16h149a2.16,2.16,0,0,0,2.16-2.16V12a2.16,2.16,0,0,0-2.16-2.16Z"/><rect class="cls-25" x="1174.94" y="18.07" width="107.74" height="90.28" rx="2.66" transform="translate(2457.61 126.43) rotate(180)"/><path class="cls-26" d="M1280,108.85H1177.6a3.15,3.15,0,0,1-3.16-3.15v-85a3.16,3.16,0,0,1,3.16-3.16H1280a3.17,3.17,0,0,1,3.16,3.16v85A3.16,3.16,0,0,1,1280,108.85ZM1177.6,18.57a2.16,2.16,0,0,0-2.16,2.16v85a2.16,2.16,0,0,0,2.16,2.15H1280a2.16,2.16,0,0,0,2.16-2.15v-85a2.16,2.16,0,0,0-2.16-2.16Z"/><path d="M526.73,109.51h-4.32v-4.18h4.28V106h-3.3V107h1.92v.71h-1.92v1h3.34Z"/><path d="M532.4,106.08h-1.93v3.43h-1v-3.43h-1.92v-.75h4.82Z"/><path d="M538.58,109.51h-1v-1.8h-3v1.8h-1v-4.18h1V107h3v-1.62h1Z"/><path d="M546.54,109.51h-.89v-3.38h-.89v-.56l1.78-.27Z"/><path d="M576.58,109.51h-4.32v-4.18h4.28V106h-3.3V107h1.92v.71h-1.92v1h3.34Z"/><path d="M582.25,106.08h-1.93v3.43h-1v-3.43h-1.92v-.75h4.82Z"/><path d="M588.43,109.51h-1v-1.8h-3v1.8h-1v-4.18h1V107h3v-1.62h1Z"/><path d="M598,108.69a.83.83,0,0,1-.23.68,1.36,1.36,0,0,1-.73.14h-3.51v-.38a.64.64,0,0,1,.14-.45,1.26,1.26,0,0,1,.39-.31l2.89-1.78V106H594.6v.86l-.83-.21v-.54a.79.79,0,0,1,.23-.67,1.24,1.24,0,0,1,.72-.15h2.15c.43,0,.71.08.82.24a1.64,1.64,0,0,1,.14.85.89.89,0,0,1-.12.51,1.41,1.41,0,0,1-.43.34l-2.45,1.49h2.43v-.62l.77.22Z"/><path d="M626.43,109.51h-4.32v-4.18h4.28V106h-3.3V107H625v.71h-1.92v1h3.34Z"/><path d="M632.1,106.08h-1.93v3.43h-1v-3.43h-1.92v-.75h4.82Z"/><path d="M638.28,109.51h-1v-1.8h-3v1.8h-1v-4.18h1V107h3v-1.62h1Z"/><path d="M647.77,108.61a.91.91,0,0,1-.24.73,1.3,1.3,0,0,1-.77.17h-2.43c-.45,0-.73-.09-.83-.26a2,2,0,0,1-.12-.9l.85-.18v.59h2.26c.22,0,.35-.06.39-.19a4.41,4.41,0,0,0,0-.49.44.44,0,0,0-.08-.31.52.52,0,0,0-.32-.07h-1.41V107h1.25c.21,0,.33-.06.37-.16a1.66,1.66,0,0,0,0-.44.43.43,0,0,0-.08-.3.49.49,0,0,0-.32-.08h-2.06v.52l-.83-.15v-.26a.76.76,0,0,1,.24-.67,1.24,1.24,0,0,1,.72-.15h2.26c.45,0,.73.09.85.28a2.37,2.37,0,0,1,.1.92.73.73,0,0,1-.21.58,1.22,1.22,0,0,1-.6.21c.65.07,1,.35,1,.85Z"/><path d="M676.28,109.51H672v-4.18h4.28V106h-3.31V107h1.93v.71h-1.93v1h3.35Z"/><path d="M682,106.08H680v3.43h-1v-3.43h-1.92v-.75H682Z"/><path d="M688.13,109.51h-1v-1.8h-3v1.8h-1v-4.18h1V107h3v-1.62h1Z"/><path d="M698.05,108.59h-1v1h-.88v-1H693v-.7l3.14-2.61H697v2.61h1Zm-1.89-.7V106l-2.29,1.87Z"/><path d="M726.13,109.51h-4.32v-4.18h4.28V106h-3.31V107h1.93v.71h-1.93v1h3.35Z"/><path d="M731.8,106.08h-1.93v3.43h-1v-3.43H727v-.75h4.82Z"/><path d="M738,109.51h-1v-1.8h-3v1.8h-1v-4.18h1V107h3v-1.62h1Z"/><path d="M747.77,108.17a1.19,1.19,0,0,1-.77,1.18,4.3,4.3,0,0,1-1.54.22,9.42,9.42,0,0,1-2-.17l-.21-.81a13,13,0,0,0,2.2.22,3.16,3.16,0,0,0,.9-.09c.35-.09.53-.29.53-.59s-.17-.48-.51-.58a3.66,3.66,0,0,0-.86-.07,16.63,16.63,0,0,0-2.26.17l.23-2.32h3.61L747,106H744.1l-.1.81c.69-.07,1.25-.1,1.69-.1C747.07,106.75,747.77,107.22,747.77,108.17Z"/><path d="M776,109.51h-4.32v-4.18h4.28V106h-3.31V107h1.93v.71h-1.93v1H776Z"/><path d="M781.65,106.08h-1.93v3.43h-1v-3.43h-1.92v-.75h4.82Z"/><path d="M787.83,109.51h-1v-1.8h-3v1.8h-1v-4.18h1V107h3v-1.62h1Z"/><path d="M797.51,108.49c0,.68-.48,1-1.43,1h-1.77a1.64,1.64,0,0,1-1.06-.26,1.33,1.33,0,0,1-.32-1v-.55a2.14,2.14,0,0,1,.94-1.9,3.83,3.83,0,0,1,2.15-.54h.3l.57.67h-.26a8.45,8.45,0,0,0-1.12.06,1.71,1.71,0,0,0-1.61,1,11.75,11.75,0,0,1,1.84-.14,6.11,6.11,0,0,1,.82,0,1.27,1.27,0,0,1,.72.31,1,1,0,0,1,.23.72Zm-.89-.24V108a.41.41,0,0,0-.31-.45,2.14,2.14,0,0,0-.62,0c-.59,0-1.21,0-1.85.09a1.69,1.69,0,0,0,0,.25,1.3,1.3,0,0,0,.13.71,1,1,0,0,0,.74.18h1.17a1.34,1.34,0,0,0,.53-.07A.44.44,0,0,0,796.62,108.25Z"/><path d="M825.83,109.51h-4.32v-4.18h4.28V106h-3.31V107h1.93v.71h-1.93v1h3.35Z"/><path d="M831.5,106.08h-1.93v3.43h-1v-3.43h-1.92v-.75h4.82Z"/><path d="M837.68,109.51h-1v-1.8h-3v1.8h-1v-4.18h1V107h3v-1.62h1Z"/><path d="M847.38,106l-2.18,3.58h-1.06l2.25-3.54h-2.77v.9l-.88-.15v-1.46h4.64Z"/><path d="M875.68,109.51h-4.32v-4.18h4.28V106h-3.31V107h1.93v.71h-1.93v1h3.35Z"/><path d="M881.35,106.08h-1.93v3.43h-1v-3.43h-1.92v-.75h4.82Z"/><path d="M887.53,109.51h-1v-1.8h-3v1.8h-1v-4.18h1V107h3v-1.62h1Z"/><path d="M897.22,108.61a.91.91,0,0,1-.25.73,1.35,1.35,0,0,1-.77.17h-2.68a1.35,1.35,0,0,1-.77-.17.91.91,0,0,1-.24-.73v-.44c0-.49.3-.77.89-.83a.91.91,0,0,1-.7-.38,2,2,0,0,1-.1-.81.79.79,0,0,1,.23-.67,1.26,1.26,0,0,1,.73-.15h2.6c.46,0,.74.09.85.28a2.3,2.3,0,0,1,.11.92.75.75,0,0,1-.21.58,1.22,1.22,0,0,1-.58.23c.59.06.89.34.89.83Zm-.89-.23v-.3a.39.39,0,0,0-.09-.31.45.45,0,0,0-.31-.07h-2.14a.5.5,0,0,0-.32.07.44.44,0,0,0-.08.31v.3c0,.17,0,.27.08.31a.5.5,0,0,0,.32.07h2.14a.56.56,0,0,0,.31-.07A.39.39,0,0,0,896.33,108.38Zm-.09-1.75v-.21a.43.43,0,0,0-.08-.3.49.49,0,0,0-.32-.08h-2a.48.48,0,0,0-.32.08.38.38,0,0,0-.09.3v.21a.39.39,0,0,0,.09.31.48.48,0,0,0,.32.08h2a.49.49,0,0,0,.32-.08A.44.44,0,0,0,896.24,106.63Z"/><path d="M914.42,111.29H913l-1.69-1.58h-.92v1.58h-1v-4.18H913c.63,0,.94.27.94.81v1a.7.7,0,0,1-.48.76,5.09,5.09,0,0,1-1,0ZM913,108.67v-.5a.3.3,0,0,0-.12-.28.6.6,0,0,0-.32-.06h-2.18V109h2.18a.75.75,0,0,0,.32,0A.3.3,0,0,0,913,108.67Z"/><path d="M920.28,111.29H916v-4.18h4.27v.72h-3.3v.93h1.93v.71h-1.93v1h3.35Z"/><path d="M926.61,110.31a1,1,0,0,1-.23.78,1.21,1.21,0,0,1-.82.2H923a1.13,1.13,0,0,1-.84-.22,1.35,1.35,0,0,1-.2-.88l.85-.18v.5h3v-1h-2.61a1.2,1.2,0,0,1-.81-.2,1.07,1.07,0,0,1-.22-.79v-.46a1,1,0,0,1,.22-.78,1.19,1.19,0,0,1,.81-.21h2.38a1.16,1.16,0,0,1,.81.21,1.08,1.08,0,0,1,.22.8l-.86.2v-.48H923v.9h2.6a1.21,1.21,0,0,1,.82.21,1,1,0,0,1,.23.78Z"/><path d="M932.94,111.29h-4.31v-4.18h4.27v.72h-3.3v.93h1.93v.71H929.6v1h3.34Z"/><path d="M938.61,107.86h-1.92v3.43h-1v-3.43h-1.92v-.75h4.82Z"/><path d="M966,110.31a1,1,0,0,1-.23.78,1.2,1.2,0,0,1-.81.2h-2.5a1.2,1.2,0,0,1-.81-.2,1,1,0,0,1-.22-.78V108.1a1,1,0,0,1,.22-.78,1.19,1.19,0,0,1,.81-.21h2.5c.5,0,.8.12.92.35a2.65,2.65,0,0,1,.12,1l-1,.15v-.79h-2.62v2.65H965v-.9l1,.2Z"/><path d="M973,110.31a1,1,0,0,1-.23.78,1.18,1.18,0,0,1-.81.2h-3.08a1.2,1.2,0,0,1-.81-.2,1,1,0,0,1-.22-.78V108.1a1,1,0,0,1,.22-.78,1.19,1.19,0,0,1,.81-.21H972a1.18,1.18,0,0,1,.81.21,1,1,0,0,1,.23.78Zm-1,.2v-2.65h-3.2v2.65Z"/><path d="M980,111.29h-.66l-3.07-2.58a2.83,2.83,0,0,1-.35-.34,5.84,5.84,0,0,1,0,.64v2.28h-.87v-4.18h.66l2.94,2.47a4.46,4.46,0,0,1,.48.45c0-.39,0-.63,0-.72v-2.2H980Z"/><path d="M986.65,110.31a1,1,0,0,1-.23.78,1.2,1.2,0,0,1-.81.2H983a1.13,1.13,0,0,1-.84-.22,1.35,1.35,0,0,1-.2-.88l.86-.18v.5h2.95v-1h-2.61a1.2,1.2,0,0,1-.81-.2,1.07,1.07,0,0,1-.22-.79v-.46a1,1,0,0,1,.22-.78,1.19,1.19,0,0,1,.81-.21h2.38a1.21,1.21,0,0,1,.82.21,1.13,1.13,0,0,1,.21.8l-.86.2v-.48H983v.9h2.61a1.19,1.19,0,0,1,.81.21,1,1,0,0,1,.23.78Z"/><path d="M993.73,110.31a1,1,0,0,1-.22.78,1.21,1.21,0,0,1-.82.2h-3.08a1.2,1.2,0,0,1-.81-.2,1,1,0,0,1-.22-.78V108.1a1,1,0,0,1,.22-.78,1.19,1.19,0,0,1,.81-.21h3.08a1.21,1.21,0,0,1,.82.21,1,1,0,0,1,.22.78Zm-1,.2v-2.65h-3.21v2.65Z"/><path d="M999.89,111.29h-4.11v-4.18h1v3.4h3.14Z"/><path d="M1005.63,111.29h-4.32v-4.18h4.28v.72h-3.31v.93h1.93v.71h-1.93v1h3.35Z"/><path d="M1033,107.81c0,.54-.32.81-.94.81h-2.63v1.63h-1v-4.18H1032c.62,0,.94.27.94.81Zm-.94-.24v-.44c0-.14,0-.24-.12-.28a.62.62,0,0,0-.32-.06h-2.19v1.11h2.19a.78.78,0,0,0,.32-.05A.3.3,0,0,0,1032,107.57Z"/><path d="M1040.71,106.07l-1.61,4.18h-.65l-1.15-2.89-1.17,2.89h-.67l-1.61-4.18h1l1.06,2.81,1.11-2.81h.68l1.14,2.81,1-2.81Z"/><path d="M1047.06,110.25h-1.4l-1.68-1.58h-.93v1.58h-1v-4.18h3.58c.63,0,.94.27.94.81v1a.69.69,0,0,1-.49.76,5.93,5.93,0,0,1-1,0Zm-1.38-2.62v-.5c0-.14,0-.24-.12-.28a.62.62,0,0,0-.32-.06h-2.19V108h2.19a.62.62,0,0,0,.32-.06Q1045.68,107.84,1045.68,107.63Z"/><circle class="cls-27" cx="161.04" cy="77.45" r="4.75"/><circle class="cls-28" cx="161.04" cy="92.08" r="4.75"/><path d="M172.64,79.93h-.84l-.38-.77h-2l-.37.77h-.74l1.81-3.52h.71Zm-1.53-1.41-.69-1.43-.71,1.43Z"/><path d="M177,79.1a1,1,0,0,1-.17.66.91.91,0,0,1-.63.17h-1.9a.91.91,0,0,1-.63-.17,1,1,0,0,1-.17-.66V77.24a1,1,0,0,1,.17-.66.91.91,0,0,1,.63-.17h1.9c.38,0,.62.1.71.29a2.53,2.53,0,0,1,.09.88l-.75.13V77h-2v2.23h2v-.76l.75.17Z"/><path d="M181.48,77H180v2.89h-.74V77h-1.47v-.63h3.69Z"/><path d="M183.44,76.3,181.82,80h-.4L183,76.3Z"/><path d="M187.25,79.93h-3.14V76.41h.74v2.86h2.4Z"/><path d="M189.09,79.93h-.75V76.41h.75Z"/><path d="M194.48,79.93H194l-2.35-2.18a2.37,2.37,0,0,1-.27-.28,4,4,0,0,1,0,.54v1.92h-.67V76.41h.5l2.25,2.07a3.11,3.11,0,0,1,.37.38q0-.48,0-.6V76.41h.67Z"/><path d="M200,79.93h-1.2l-1.91-1.55v1.55h-.75V76.41h.75v1.47l1.77-1.47h1.08l-2.12,1.66Z"/><path d="M170.82,94.33h-.64V91.49h-.66V91l1.3-.22Z"/><path d="M176.7,93.5a1.11,1.11,0,0,1-.14.65.71.71,0,0,1-.56.18h-2.07a.69.69,0,0,1-.56-.18,1,1,0,0,1-.15-.65V91.65a1.05,1.05,0,0,1,.15-.65.73.73,0,0,1,.56-.17H176a.75.75,0,0,1,.56.17,1.14,1.14,0,0,1,.14.65Zm-.64.2V91.42h-2.19V93.7Z"/><path d="M181.62,93.5a1,1,0,0,1-.17.66.83.83,0,0,1-.59.17h-2.12a.84.84,0,0,1-.6-.17,1,1,0,0,1-.16-.66V91.65a1,1,0,0,1,.16-.65.8.8,0,0,1,.6-.17h2.12a.77.77,0,0,1,.6.18,1.06,1.06,0,0,1,.16.69l-.7.14v-.39h-2.23v2.22h2.23v-.78h-1.16v-.6h1.86Z"/><circle class="cls-29" cx="265.73" cy="77.45" r="4.75"/><circle class="cls-30" cx="265.73" cy="92.08" r="4.75"/><path d="M277.32,79.93h-.84l-.38-.77h-2l-.37.77H273l1.81-3.52h.72Zm-1.53-1.41-.69-1.43-.71,1.43Z"/><path d="M281.66,79.1a1,1,0,0,1-.17.66.9.9,0,0,1-.62.17H279a.93.93,0,0,1-.63-.17,1,1,0,0,1-.17-.66V77.24a1,1,0,0,1,.17-.66.93.93,0,0,1,.63-.17h1.91c.38,0,.61.1.7.29a2.53,2.53,0,0,1,.09.88l-.74.13V77h-2v2.23h2v-.76l.74.17Z"/><path d="M286.16,77h-1.48v2.89h-.74V77h-1.47v-.63h3.69Z"/><path d="M288.12,76.3,286.5,80h-.4l1.61-3.74Z"/><path d="M291.93,79.93h-3.14V76.41h.75v2.86h2.39Z"/><path d="M293.77,79.93H293V76.41h.75Z"/><path d="M299.16,79.93h-.51l-2.35-2.18a1.69,1.69,0,0,1-.26-.28q0,.33,0,.54v1.92h-.67V76.41h.51l2.25,2.07a3.79,3.79,0,0,1,.36.38q0-.48,0-.6V76.41h.67Z"/><path d="M304.65,79.93h-1.2l-1.91-1.55v1.55h-.75V76.41h.75v1.47l1.77-1.47h1.08l-2.12,1.66Z"/><path d="M275.51,94.33h-.65V91.49h-.66V91l1.31-.22Z"/><path d="M281.38,93.5a1.11,1.11,0,0,1-.14.65.71.71,0,0,1-.56.18h-2.07a.69.69,0,0,1-.56-.18,1,1,0,0,1-.14-.65V91.65a1.06,1.06,0,0,1,.14-.65.73.73,0,0,1,.56-.17h2.07a.75.75,0,0,1,.56.17,1.14,1.14,0,0,1,.14.65Zm-.64.2V91.42h-2.19V93.7Z"/><path d="M286.3,93.5a1,1,0,0,1-.17.66.8.8,0,0,1-.59.17h-2.12a.84.84,0,0,1-.6-.17,1,1,0,0,1-.16-.66V91.65a1,1,0,0,1,.16-.65.8.8,0,0,1,.6-.17h2.12a.79.79,0,0,1,.61.18,1.13,1.13,0,0,1,.15.69l-.7.14v-.39h-2.23v2.22h2.23v-.78h-1.16v-.6h1.86Z"/><path d="M112.1,109.6a1.09,1.09,0,0,1-.22.8,1.15,1.15,0,0,1-.8.2h-2.52c-.42,0-.69-.07-.82-.23a1.37,1.37,0,0,1-.2-.89l.84-.18v.5h2.89v-1h-2.55a1.16,1.16,0,0,1-.8-.21,1.11,1.11,0,0,1-.22-.8v-.47a1.14,1.14,0,0,1,.22-.8,1.16,1.16,0,0,1,.8-.21H111a1.11,1.11,0,0,1,.8.22,1.16,1.16,0,0,1,.21.81l-.84.2v-.48h-2.68V108h2.55a1.15,1.15,0,0,1,.8.21,1.08,1.08,0,0,1,.22.8Z"/><path d="M118.21,107.09H115v1.12h1.71V109H115v1.61h-1v-4.26h4.13Z"/><path d="M123.81,108.12c0,.55-.31.83-.92.83h-2.57v1.65h-.93v-4.26h3.5c.61,0,.92.28.92.83Zm-.92-.25v-.45c0-.15,0-.24-.12-.28a.58.58,0,0,0-.31-.06h-2.14v1.13h2.14a.58.58,0,0,0,.31-.06C122.85,108.11,122.89,108,122.89,107.87Z"/><path d="M129.84,108.43h-2v2.17h-.55v-2.17h-2v-.57h2v-2.18h.55v2.18h2Z"/><path d="M137.55,110.6h-.86v-3.45h-.88v-.57l1.74-.27Z"/><path d="M217,109.6a1.09,1.09,0,0,1-.22.8,1.19,1.19,0,0,1-.8.2h-2.53a1.06,1.06,0,0,1-.82-.23,1.43,1.43,0,0,1-.2-.89l.84-.18v.5h2.89v-1h-2.55a1.13,1.13,0,0,1-.79-.21,1.06,1.06,0,0,1-.22-.8v-.47a1.09,1.09,0,0,1,.22-.8,1.13,1.13,0,0,1,.79-.21h2.32a1.09,1.09,0,0,1,.8.22,1.16,1.16,0,0,1,.21.81l-.83.2v-.48h-2.68V108H216a1.18,1.18,0,0,1,.8.21,1.08,1.08,0,0,1,.22.8Z"/><path d="M223.08,107.09H219.9v1.12h1.72V109H219.9v1.61h-1v-4.26h4.13Z"/><path d="M228.68,108.12c0,.55-.31.83-.92.83H225.2v1.65h-.94v-4.26h3.5c.61,0,.92.28.92.83Zm-.92-.25v-.45c0-.15,0-.24-.12-.28a.56.56,0,0,0-.31-.06H225.2v1.13h2.13a.56.56,0,0,0,.31-.06C227.72,108.11,227.76,108,227.76,107.87Z"/><path d="M234.71,108.43h-2v2.17h-.55v-2.17h-2v-.57h2v-2.18h.55v2.18h2Z"/><path d="M244,109.77a.85.85,0,0,1-.23.69,1.2,1.2,0,0,1-.7.14h-3.44v-.38a.75.75,0,0,1,.14-.47,1.52,1.52,0,0,1,.38-.31l2.82-1.82v-.55h-2.33V108l-.8-.22v-.55a.82.82,0,0,1,.23-.69,1.17,1.17,0,0,1,.7-.15h2.1c.42,0,.69.08.8.24a1.8,1.8,0,0,1,.13.87,1,1,0,0,1-.12.53,1.41,1.41,0,0,1-.41.34l-2.4,1.52h2.38v-.63l.75.22Z"/><rect class="cls-31" x="523.45" y="69.56" width="1.32" height="7.2"/><rect class="cls-32" x="526.61" y="69.56" width="1.32" height="7.2"/><rect class="cls-33" x="529.78" y="69.56" width="1.32" height="7.2"/><rect class="cls-34" x="532.95" y="69.56" width="1.32" height="7.2"/><rect class="cls-35" x="536.12" y="69.56" width="1.32" height="7.2"/><rect class="cls-36" x="539.29" y="69.56" width="1.32" height="7.2"/><rect class="cls-37" x="542.46" y="69.56" width="1.32" height="7.2"/><rect class="cls-38" x="545.63" y="69.56" width="1.32" height="7.2"/><rect class="cls-39" x="573.3" y="69.56" width="1.32" height="7.2"/><rect class="cls-40" x="576.46" y="69.56" width="1.32" height="7.2"/><rect class="cls-41" x="579.63" y="69.56" width="1.32" height="7.2"/><rect class="cls-42" x="582.8" y="69.56" width="1.32" height="7.2"/><rect class="cls-43" x="585.97" y="69.56" width="1.32" height="7.2"/><rect class="cls-44" x="589.14" y="69.56" width="1.32" height="7.2"/><rect class="cls-45" x="592.31" y="69.56" width="1.32" height="7.2"/><rect class="cls-46" x="595.48" y="69.56" width="1.32" height="7.2"/><rect class="cls-47" x="623.18" y="69.56" width="1.32" height="7.2"/><rect class="cls-48" x="626.35" y="69.56" width="1.32" height="7.2"/><rect class="cls-49" x="629.52" y="69.56" width="1.32" height="7.2"/><rect class="cls-50" x="632.69" y="69.56" width="1.32" height="7.2"/><rect class="cls-51" x="635.86" y="69.56" width="1.32" height="7.2"/><rect class="cls-52" x="639.03" y="69.56" width="1.32" height="7.2"/><rect class="cls-53" x="642.2" y="69.56" width="1.32" height="7.2"/><rect class="cls-54" x="645.37" y="69.56" width="1.32" height="7.2"/><rect class="cls-55" x="673.03" y="69.56" width="1.32" height="7.2"/><rect class="cls-56" x="676.2" y="69.56" width="1.32" height="7.2"/><rect class="cls-57" x="679.37" y="69.56" width="1.32" height="7.2"/><rect class="cls-58" x="682.54" y="69.56" width="1.32" height="7.2"/><rect class="cls-59" x="685.71" y="69.56" width="1.32" height="7.2"/><rect class="cls-60" x="688.88" y="69.56" width="1.32" height="7.2"/><rect class="cls-61" x="692.05" y="69.56" width="1.32" height="7.2"/><rect class="cls-62" x="695.22" y="69.56" width="1.32" height="7.2"/><rect class="cls-63" x="722.84" y="69.56" width="1.32" height="7.2"/><rect class="cls-64" x="726.01" y="69.56" width="1.32" height="7.2"/><rect class="cls-65" x="729.18" y="69.56" width="1.32" height="7.2"/><rect class="cls-66" x="732.35" y="69.56" width="1.32" height="7.2"/><rect class="cls-67" x="735.52" y="69.56" width="1.32" height="7.2"/><rect class="cls-68" x="738.69" y="69.56" width="1.32" height="7.2"/><rect class="cls-69" x="741.86" y="69.56" width="1.32" height="7.2"/><rect class="cls-70" x="745.03" y="69.56" width="1.32" height="7.2"/><rect class="cls-71" x="772.73" y="69.56" width="1.32" height="7.2"/><rect class="cls-72" x="775.9" y="69.56" width="1.32" height="7.2"/><rect class="cls-73" x="779.07" y="69.56" width="1.32" height="7.2"/><rect class="cls-74" x="782.24" y="69.56" width="1.32" height="7.2"/><rect class="cls-75" x="785.41" y="69.56" width="1.32" height="7.2"/><rect class="cls-76" x="788.58" y="69.56" width="1.32" height="7.2"/><rect class="cls-77" x="791.75" y="69.56" width="1.32" height="7.2"/><rect class="cls-78" x="794.92" y="69.56" width="1.32" height="7.2"/><rect class="cls-79" x="822.58" y="69.56" width="1.32" height="7.2"/><rect class="cls-80" x="825.75" y="69.56" width="1.32" height="7.2"/><rect class="cls-81" x="828.92" y="69.56" width="1.32" height="7.2"/><rect class="cls-82" x="832.09" y="69.56" width="1.32" height="7.2"/><rect class="cls-83" x="835.26" y="69.56" width="1.32" height="7.2"/><rect class="cls-84" x="838.43" y="69.56" width="1.32" height="7.2"/><rect class="cls-85" x="841.6" y="69.56" width="1.32" height="7.2"/><rect class="cls-86" x="844.77" y="69.56" width="1.32" height="7.2"/><rect class="cls-87" x="872.43" y="69.56" width="1.32" height="7.2"/><rect class="cls-88" x="875.6" y="69.56" width="1.32" height="7.2"/><rect class="cls-89" x="878.77" y="69.56" width="1.32" height="7.2"/><rect class="cls-90" x="881.94" y="69.56" width="1.32" height="7.2"/><rect class="cls-91" x="885.11" y="69.56" width="1.32" height="7.2"/><rect class="cls-92" x="888.28" y="69.56" width="1.32" height="7.2"/><rect class="cls-93" x="891.45" y="69.56" width="1.32" height="7.2"/><rect class="cls-94" x="894.61" y="69.56" width="1.32" height="7.2"/><rect class="cls-95" x="52.65" width="1.68" height="125.19"/><rect class="cls-96" x="48.9" width="2.75" height="125.19"/><rect class="cls-24" x="54.72" width="0.9" height="125.19"/><rect class="cls-95" x="1314.1" width="1.68" height="125.19"/><rect class="cls-96" x="1316.78" width="2.75" height="125.19"/><rect class="cls-24" x="1312.8" width="0.9" height="125.19"/><circle cx="948.67" cy="88.07" r="4.71"/><circle cx="1020.1" cy="88.07" r="4.71"/><path id="path1334" d="M95.56,109.19l-2-1.19v.85H83l2-2.16a1.16,1.16,0,0,1,.64-.24h1.71a1,1,0,0,0,1,.69,1,1,0,0,0,0-2,1,1,0,0,0-1,.69H85.74a2,2,0,0,0-1.25.54h0l-2.16,2.29a1.16,1.16,0,0,1-.63.24H80.51a1.72,1.72,0,1,0,0,.67h3.75a1.1,1.1,0,0,1,.63.25l2.16,2.28h0a2,2,0,0,0,1.25.55h1.63v.68h2v-2h-2v.69H88.28a1.09,1.09,0,0,1-.64-.24l-2-2.16h7.91v.85Z"/><path d="M940.49,25.43a5.66,5.66,0,0,1,.3-1.8,5.45,5.45,0,0,1,.88-1.65,4.91,4.91,0,0,1,1.39-1.22,3.72,3.72,0,0,1,1.86-.47h14a1.14,1.14,0,0,1,.82.33,1.1,1.1,0,0,1,.34.8,1.09,1.09,0,0,1-.34.8,1.14,1.14,0,0,1-.82.33H945.42a2.71,2.71,0,0,0-1.36.3,2.47,2.47,0,0,0-.81.72,2.29,2.29,0,0,0-.41.93,4,4,0,0,0,0,1.86,2.29,2.29,0,0,0,.41.93,2.59,2.59,0,0,0,.81.72,2.72,2.72,0,0,0,1.36.29h13.51a1.14,1.14,0,0,1,.82.33,1.1,1.1,0,0,1,.34.8,1.07,1.07,0,0,1-.34.8,1.1,1.1,0,0,1-.82.33H944.68a3.24,3.24,0,0,1-1.76-.47,4.44,4.44,0,0,1-1.31-1.21,5.62,5.62,0,0,1-.83-1.66A6,6,0,0,1,940.49,25.43Z"/><path d="M964.51,30.32a3.56,3.56,0,0,1-1-.67,3.66,3.66,0,0,1-.71-1,3,3,0,0,1-.26-1.23v-6a1.07,1.07,0,0,1,.34-.8,1.1,1.1,0,0,1,.81-.33,1.13,1.13,0,0,1,.81.33,1.08,1.08,0,0,1,.35.8v6a.8.8,0,0,0,.27.61.89.89,0,0,0,.64.26h14.43a1.1,1.1,0,0,1,.81.33,1.07,1.07,0,0,1,.34.8,1,1,0,0,1-.34.8,1.06,1.06,0,0,1-.81.33H965.78A3.38,3.38,0,0,1,964.51,30.32Z"/><path d="M1002.66,25.43a5.66,5.66,0,0,1-.3,1.8,5.24,5.24,0,0,1-.88,1.65,4.6,4.6,0,0,1-1.39,1.21,3.59,3.59,0,0,1-1.85.47h-11a3.46,3.46,0,0,1-1.75-.53,4.72,4.72,0,0,1-1.31-1.21,5.65,5.65,0,0,1-.83-1.62,5.85,5.85,0,0,1-.29-1.77,5.66,5.66,0,0,1,.3-1.8,5.24,5.24,0,0,1,.88-1.65,4.78,4.78,0,0,1,1.39-1.22,3.71,3.71,0,0,1,1.85-.47h11a3.56,3.56,0,0,1,1.75.53,4.76,4.76,0,0,1,1.31,1.22,5.4,5.4,0,0,1,.83,1.62A5.85,5.85,0,0,1,1002.66,25.43ZM999.08,28a2.56,2.56,0,0,0,.83-.72,2.59,2.59,0,0,0,.41-.93,4.37,4.37,0,0,0,0-1.86,2.59,2.59,0,0,0-.41-.93,2.45,2.45,0,0,0-.83-.72,2.72,2.72,0,0,0-1.35-.3H988a2.71,2.71,0,0,0-1.36.3,2.51,2.51,0,0,0-.82.72,2.59,2.59,0,0,0-.41.93,4.37,4.37,0,0,0,0,1.86,2.59,2.59,0,0,0,.41.93,2.63,2.63,0,0,0,.82.72,2.72,2.72,0,0,0,1.36.29h9.71A2.73,2.73,0,0,0,999.08,28Z"/><path d="M1007.48,26.36a2.43,2.43,0,0,0,.41.93,2.52,2.52,0,0,0,.82.72,2.65,2.65,0,0,0,1.35.29h9.57A2.7,2.7,0,0,0,1021,28a2.56,2.56,0,0,0,.83-.72,2.59,2.59,0,0,0,.41-.93,4.61,4.61,0,0,0,.1-.93v-4a1.09,1.09,0,0,1,.34-.8,1.18,1.18,0,0,1,1.64,0,1.08,1.08,0,0,1,.33.8v4a5.66,5.66,0,0,1-.3,1.8,5.24,5.24,0,0,1-.88,1.65,4.6,4.6,0,0,1-1.39,1.21,3.59,3.59,0,0,1-1.85.47h-11a3.47,3.47,0,0,1-1.76-.53,4.72,4.72,0,0,1-1.31-1.21,5.65,5.65,0,0,1-.83-1.62,5.85,5.85,0,0,1-.29-1.77v-4a1.09,1.09,0,0,1,.34-.8,1.12,1.12,0,0,1,.82-.33,1.1,1.1,0,0,1,.81.33,1.05,1.05,0,0,1,.34.8v4A4.68,4.68,0,0,0,1007.48,26.36Z"/><path d="M1041.7,28.3a2.73,2.73,0,0,0,1.35-.29,2.56,2.56,0,0,0,.83-.72,2.59,2.59,0,0,0,.41-.93,4.37,4.37,0,0,0,0-1.86,2.59,2.59,0,0,0-.41-.93,2.45,2.45,0,0,0-.83-.72,2.72,2.72,0,0,0-1.35-.3h-13.51a1.14,1.14,0,0,1-.82-.33,1.08,1.08,0,0,1-.33-.8,1.09,1.09,0,0,1,.33-.8,1.14,1.14,0,0,1,.82-.33h14a3.71,3.71,0,0,1,1.85.47,4.78,4.78,0,0,1,1.39,1.22,5.24,5.24,0,0,1,.88,1.65,5.66,5.66,0,0,1,.3,1.8,5.85,5.85,0,0,1-.29,1.77,5.65,5.65,0,0,1-.83,1.62A4.72,4.72,0,0,1,1044.2,30a3.46,3.46,0,0,1-1.75.53h-14.26a1.1,1.1,0,0,1-.82-.33,1.06,1.06,0,0,1-.33-.8v-4a1.08,1.08,0,0,1,.33-.8,1.18,1.18,0,0,1,1.64,0,1.08,1.08,0,0,1,.33.8V28.3Z"/><path d="M1059.85,25.43a5.66,5.66,0,0,1,.3-1.8A5.24,5.24,0,0,1,1061,22a4.78,4.78,0,0,1,1.39-1.22,3.71,3.71,0,0,1,1.85-.47h14a1.14,1.14,0,0,1,.82.33,1.09,1.09,0,0,1,.33.8,1.08,1.08,0,0,1-.33.8,1.14,1.14,0,0,1-.82.33h-13.51a2.69,2.69,0,0,0-1.36.3,2.51,2.51,0,0,0-.82.72,2.59,2.59,0,0,0-.41.93,4.37,4.37,0,0,0,0,1.86,2.59,2.59,0,0,0,.41.93,2.63,2.63,0,0,0,.82.72,2.69,2.69,0,0,0,1.36.29h13.51a1.14,1.14,0,0,1,.82.33,1.09,1.09,0,0,1,.33.8,1.06,1.06,0,0,1-.33.8,1.1,1.1,0,0,1-.82.33H1064a3.23,3.23,0,0,1-1.75-.47,4.44,4.44,0,0,1-1.31-1.21,5.62,5.62,0,0,1-.83-1.66A6,6,0,0,1,1059.85,25.43Z"/><path d="M1101.42,25.43a5.66,5.66,0,0,1-.3,1.8,5.45,5.45,0,0,1-.88,1.65,4.64,4.64,0,0,1-1.4,1.21,3.56,3.56,0,0,1-1.85.47h-11a3.43,3.43,0,0,1-1.75-.53,4.58,4.58,0,0,1-1.31-1.21,5.41,5.41,0,0,1-.83-1.62,5.56,5.56,0,0,1-.29-1.77,5.66,5.66,0,0,1,.3-1.8A5.24,5.24,0,0,1,1083,22a4.78,4.78,0,0,1,1.39-1.22,3.69,3.69,0,0,1,1.85-.47h11a3.57,3.57,0,0,1,1.76.53A4.76,4.76,0,0,1,1100.3,22a5.4,5.4,0,0,1,.83,1.62A5.85,5.85,0,0,1,1101.42,25.43ZM1097.83,28a2.46,2.46,0,0,0,.83-.72,2.43,2.43,0,0,0,.41-.93,4,4,0,0,0,0-1.86,2.43,2.43,0,0,0-.41-.93,2.36,2.36,0,0,0-.83-.72,2.68,2.68,0,0,0-1.34-.3h-9.71a2.69,2.69,0,0,0-1.36.3,2.44,2.44,0,0,0-1.23,1.65,4,4,0,0,0,0,1.86,2.43,2.43,0,0,0,.41.93,2.52,2.52,0,0,0,.82.72,2.69,2.69,0,0,0,1.36.29h9.71A2.69,2.69,0,0,0,1097.83,28Z"/><path d="M1120.6,27.42c.45.31.91.64,1.37,1a2.14,2.14,0,0,1,.46.44.87.87,0,0,1,.19.57,1,1,0,0,1-.34.8,1.06,1.06,0,0,1-.81.33,1.24,1.24,0,0,1-.82-.33c-.66-.47-1.33-.92-2-1.36a19.49,19.49,0,0,0-2.15-1.18,13.6,13.6,0,0,0-2.32-.82,9.84,9.84,0,0,0-2.5-.31h-4.79a.84.84,0,0,0-.52.28.83.83,0,0,0-.22.59v2a1,1,0,0,1-.35.8,1.09,1.09,0,0,1-.81.33,1.06,1.06,0,0,1-.81-.33,1,1,0,0,1-.34-.8V27.17a2.88,2.88,0,0,1,.23-1.12,3.08,3.08,0,0,1,.61-.92,3,3,0,0,1,.92-.61,2.88,2.88,0,0,1,1.15-.22h12.74a.92.92,0,0,0,.64-.25.8.8,0,0,0,.27-.62.84.84,0,0,0-.27-.62.93.93,0,0,0-.64-.26H1105a1.1,1.1,0,0,1-.81-.33,1.05,1.05,0,0,1-.34-.8,1.07,1.07,0,0,1,.34-.8,1.1,1.1,0,0,1,.81-.33h14.4a3.32,3.32,0,0,1,2.3.92,3,3,0,0,1,.7,1,3,3,0,0,1,.25,1.23,2.93,2.93,0,0,1-.25,1.22,3,3,0,0,1-.7,1,3.39,3.39,0,0,1-1,.67,3.2,3.2,0,0,1-1.27.25h-.09C1119.71,26.83,1120.15,27.11,1120.6,27.42Z"/><path d="M1125,21.42a1.1,1.1,0,0,1,.34-.8,1.12,1.12,0,0,1,.82-.33h17a1.14,1.14,0,0,1,.82.33,1.1,1.1,0,0,1,.34.8,1.09,1.09,0,0,1-.34.8,1.14,1.14,0,0,1-.82.33h-17a1.12,1.12,0,0,1-.82-.33A1.09,1.09,0,0,1,1125,21.42Zm2.94,9.14a2.65,2.65,0,0,1-1.06-.22,3.14,3.14,0,0,1-.94-.62,3.23,3.23,0,0,1-.67-1,2.92,2.92,0,0,1-.27-1.27V25.36a.89.89,0,0,1,.38-.85,2.42,2.42,0,0,1,1.16-.21h16.13a1.12,1.12,0,0,1,.82.33,1.09,1.09,0,0,1,.34.8,1.1,1.1,0,0,1-.34.8,1.12,1.12,0,0,1-.82.33h-15.36v1.15a.54.54,0,0,0,.21.42.81.81,0,0,0,.54.17h15.14a1.14,1.14,0,0,1,.82.33,1.1,1.1,0,0,1,.34.8,1.07,1.07,0,0,1-.34.8,1.1,1.1,0,0,1-.82.33Z"/><path d="M987.86,40.54c.26.17.53.37.8.58a1.24,1.24,0,0,1,.26.25.51.51,0,0,1,.11.34.6.6,0,0,1-.19.46.66.66,0,0,1-.48.2.75.75,0,0,1-.47-.2l-1.18-.79a10.15,10.15,0,0,0-1.25-.69,8.35,8.35,0,0,0-1.35-.48,6.41,6.41,0,0,0-1.46-.17h-2.79a.49.49,0,0,0-.3.16.47.47,0,0,0-.13.34v1.17a.61.61,0,0,1-.2.46.67.67,0,0,1-.47.2.66.66,0,0,1-.48-.2.6.6,0,0,1-.19-.46V40.39a1.61,1.61,0,0,1,.13-.65,1.77,1.77,0,0,1,.36-.53,1.66,1.66,0,0,1,.53-.36,1.63,1.63,0,0,1,.67-.13h7.42a.57.57,0,0,0,.37-.14.47.47,0,0,0,.16-.37.46.46,0,0,0-.16-.35.53.53,0,0,0-.37-.15h-8.44a.69.69,0,0,1-.48-.19.68.68,0,0,1,0-.94.69.69,0,0,1,.48-.19h8.38a1.81,1.81,0,0,1,.74.15,1.73,1.73,0,0,1,.6.39,1.81,1.81,0,0,1,.41.57,1.9,1.9,0,0,1,0,1.43,1.81,1.81,0,0,1-.41.57,1.73,1.73,0,0,1-.6.39,1.81,1.81,0,0,1-.74.15h0C987.34,40.19,987.6,40.36,987.86,40.54Z"/><path d="M1001.83,39.38a3.22,3.22,0,0,1-.18,1,3,3,0,0,1-.51,1,2.73,2.73,0,0,1-.81.7,2.17,2.17,0,0,1-1.08.28h-6.38a2.18,2.18,0,0,1-1-.31,2.74,2.74,0,0,1-.77-.71,3.21,3.21,0,0,1-.48-.94,3.42,3.42,0,0,1-.17-1,3.22,3.22,0,0,1,.18-1.05,3.17,3.17,0,0,1,.51-1,2.6,2.6,0,0,1,.81-.7,2.07,2.07,0,0,1,1.08-.28h6.38a2,2,0,0,1,1,.31,2.74,2.74,0,0,1,.77.71,3.09,3.09,0,0,1,.48.94A3.42,3.42,0,0,1,1001.83,39.38Zm-2.09,1.5a1.35,1.35,0,0,0,.49-.42,1.45,1.45,0,0,0,.23-.54,2.22,2.22,0,0,0,.07-.54,2.11,2.11,0,0,0-.07-.54,1.45,1.45,0,0,0-.23-.54,1.35,1.35,0,0,0-.49-.42,1.5,1.5,0,0,0-.78-.17H993.3a1.54,1.54,0,0,0-.79.17,1.28,1.28,0,0,0-.47.42,1.32,1.32,0,0,0-.24.54,2.62,2.62,0,0,0-.06.54,2.78,2.78,0,0,0,.06.54,1.32,1.32,0,0,0,.24.54,1.28,1.28,0,0,0,.47.42,1.65,1.65,0,0,0,.79.17H999A1.61,1.61,0,0,0,999.74,40.88Z"/><path d="M1004.64,39.92a1.45,1.45,0,0,0,.23.54,1.4,1.4,0,0,0,.48.42,1.62,1.62,0,0,0,.79.17h5.57a1.68,1.68,0,0,0,.79-.17,1.4,1.4,0,0,0,.48-.42,1.32,1.32,0,0,0,.24-.54,2.78,2.78,0,0,0,.06-.54V37.06a.61.61,0,0,1,.2-.46.63.63,0,0,1,.47-.19.65.65,0,0,1,.48.19.6.6,0,0,1,.19.46v2.32a3.21,3.21,0,0,1-.17,1,3.4,3.4,0,0,1-.51,1,3,3,0,0,1-.81.7,2.17,2.17,0,0,1-1.08.28h-6.39a2.18,2.18,0,0,1-1-.31,2.71,2.71,0,0,1-.76-.71,3.21,3.21,0,0,1-.48-.94,3.13,3.13,0,0,1-.17-1V37.06a.6.6,0,0,1,.19-.46.66.66,0,0,1,.48-.19.65.65,0,0,1,.48.19.6.6,0,0,1,.19.46v2.32A2.22,2.22,0,0,0,1004.64,39.92Z"/><path d="M1026.8,36.58a.65.65,0,0,1,0,.94.68.68,0,0,1-.47.19h-4.15v4a.6.6,0,0,1-.19.46.66.66,0,0,1-.48.2.63.63,0,0,1-.47-.2.58.58,0,0,1-.2-.46v-4h-4.2a.67.67,0,0,1-.43-.22.58.58,0,0,1-.19-.44.65.65,0,0,1,.2-.47.69.69,0,0,1,.48-.19h9.63A.68.68,0,0,1,1026.8,36.58Z"/><path d="M1028.4,37.05a.64.64,0,0,1,.19-.47.69.69,0,0,1,.48-.19H1039a.68.68,0,0,1,.47.19.65.65,0,0,1,0,.94.68.68,0,0,1-.47.19h-9.93a.69.69,0,0,1-.48-.19A.64.64,0,0,1,1028.4,37.05Zm1.71,5.32a1.72,1.72,0,0,1-.62-.13,1.84,1.84,0,0,1-.55-.37,1.93,1.93,0,0,1-.39-.56,1.78,1.78,0,0,1-.15-.74V39.34a.52.52,0,0,1,.22-.5,1.43,1.43,0,0,1,.67-.12h9.4a.64.64,0,0,1,.47.19.65.65,0,0,1,.2.47.61.61,0,0,1-.2.46.65.65,0,0,1-.47.2h-9v.67a.31.31,0,0,0,.12.24.47.47,0,0,0,.32.1H1039a.64.64,0,0,1,.47.19.63.63,0,0,1,.2.47.61.61,0,0,1-.2.46.65.65,0,0,1-.47.2Z"/><path d="M1050.84,40.54c.26.17.53.37.8.58a1.24,1.24,0,0,1,.26.25.51.51,0,0,1,.11.34.6.6,0,0,1-.19.46.66.66,0,0,1-.48.2.75.75,0,0,1-.47-.2l-1.18-.79a10.15,10.15,0,0,0-1.25-.69,8.35,8.35,0,0,0-1.35-.48,6.34,6.34,0,0,0-1.46-.17h-2.78a.49.49,0,0,0-.31.16.47.47,0,0,0-.13.34v1.17a.61.61,0,0,1-.2.46.67.67,0,0,1-.47.2.66.66,0,0,1-.48-.2.6.6,0,0,1-.19-.46V40.39a1.61,1.61,0,0,1,.13-.65,1.77,1.77,0,0,1,.36-.53,1.66,1.66,0,0,1,.53-.36,1.63,1.63,0,0,1,.67-.13h7.42a.57.57,0,0,0,.37-.14.47.47,0,0,0,.16-.37.46.46,0,0,0-.16-.35.53.53,0,0,0-.37-.15h-8.44a.69.69,0,0,1-.48-.19.68.68,0,0,1,0-.94.69.69,0,0,1,.48-.19h8.38a1.81,1.81,0,0,1,.74.15,1.73,1.73,0,0,1,.6.39,1.81,1.81,0,0,1,.41.57,1.9,1.9,0,0,1,0,1.43,1.81,1.81,0,0,1-.41.57,1.73,1.73,0,0,1-.6.39,1.81,1.81,0,0,1-.74.15h0C1050.32,40.19,1050.58,40.36,1050.84,40.54Z"/><path d="M1060.6,39.38a3.21,3.21,0,0,1,.17-1.05,3.4,3.4,0,0,1,.51-1,2.84,2.84,0,0,1,.81-.7,2.07,2.07,0,0,1,1.08-.28h8.16a.69.69,0,0,1,.48.19.68.68,0,0,1,0,.94.69.69,0,0,1-.48.19h-7.87a1.54,1.54,0,0,0-.79.17,1.28,1.28,0,0,0-.47.42,1.32,1.32,0,0,0-.24.54,2.62,2.62,0,0,0-.06.54,2.78,2.78,0,0,0,.06.54,1.32,1.32,0,0,0,.24.54,1.28,1.28,0,0,0,.47.42,1.65,1.65,0,0,0,.79.17h7.87a.65.65,0,0,1,.48.19.63.63,0,0,1,.19.47.6.6,0,0,1-.19.46.66.66,0,0,1-.48.2H1063a2,2,0,0,1-1-.28,2.67,2.67,0,0,1-.76-.7,3.28,3.28,0,0,1-.49-1A3.51,3.51,0,0,1,1060.6,39.38Z"/><path d="M1073.05,39.38a3.22,3.22,0,0,1,.18-1.05,3.4,3.4,0,0,1,.51-1,2.6,2.6,0,0,1,.81-.7,2.07,2.07,0,0,1,1.08-.28h8.16a.69.69,0,0,1,.48.19.68.68,0,0,1,0,.94.69.69,0,0,1-.48.19h-7.87a1.54,1.54,0,0,0-.79.17,1.28,1.28,0,0,0-.47.42,1.32,1.32,0,0,0-.24.54,2.62,2.62,0,0,0-.06.54,2.78,2.78,0,0,0,.06.54,1.32,1.32,0,0,0,.24.54,1.28,1.28,0,0,0,.47.42,1.65,1.65,0,0,0,.79.17h7.87a.65.65,0,0,1,.48.19.63.63,0,0,1,.19.47.6.6,0,0,1-.19.46.66.66,0,0,1-.48.2h-8.3a2,2,0,0,1-1-.28,2.71,2.71,0,0,1-.77-.7,3.26,3.26,0,0,1-.48-1A3.53,3.53,0,0,1,1073.05,39.38Z"/><path d="M1095.63,40.54c.26.17.53.37.8.58a1.6,1.6,0,0,1,.27.25.58.58,0,0,1,.11.34.61.61,0,0,1-.2.46.65.65,0,0,1-.47.2.77.77,0,0,1-.48-.2c-.38-.27-.77-.53-1.17-.79a10.27,10.27,0,0,0-1.26-.69,7.72,7.72,0,0,0-1.35-.48,6.26,6.26,0,0,0-1.45-.17h-2.79a.55.55,0,0,0-.31.16.5.5,0,0,0-.12.34v1.17a.59.59,0,0,1-.21.46.65.65,0,0,1-.94,0,.61.61,0,0,1-.2-.46V40.39a1.62,1.62,0,0,1,.14-.65,1.58,1.58,0,0,1,.35-.53,1.77,1.77,0,0,1,.53-.36,1.68,1.68,0,0,1,.68-.13H1095a.57.57,0,0,0,.37-.14.51.51,0,0,0,.16-.37.5.5,0,0,0-.16-.35.53.53,0,0,0-.37-.15h-8.45a.68.68,0,0,1-.47-.19.65.65,0,0,1,0-.94.68.68,0,0,1,.47-.19h8.39a1.77,1.77,0,0,1,.73.15,1.87,1.87,0,0,1,.61.39,1.78,1.78,0,0,1,.4.57,1.78,1.78,0,0,1,0,1.43,1.78,1.78,0,0,1-.4.57,1.87,1.87,0,0,1-.61.39,1.77,1.77,0,0,1-.73.15h-.06C1095.12,40.19,1095.37,40.36,1095.63,40.54Z"/><path d="M1103.5,38.91a.65.65,0,0,1,.2.47.61.61,0,0,1-.2.46.66.66,0,0,1-.48.2h-4.2a.69.69,0,0,1-.43-.22.6.6,0,0,1-.18-.44.64.64,0,0,1,.19-.47.66.66,0,0,1,.48-.19H1103A.65.65,0,0,1,1103.5,38.91Z"/><path d="M1106.94,38.23a.5.5,0,0,0-.16-.37.51.51,0,0,0-.37-.15h-.64a.69.69,0,0,1-.48-.19.68.68,0,0,1,0-.94.69.69,0,0,1,.48-.19h.63a1.8,1.8,0,0,1,.73.15,1.87,1.87,0,0,1,.61.39,1.82,1.82,0,0,1,.55,1.3v3.48a.61.61,0,0,1-.2.46.66.66,0,0,1-.95,0,.61.61,0,0,1-.2-.46Z"/><path d="M1121.08,39.38a3.21,3.21,0,0,1-.17,1,3.4,3.4,0,0,1-.51,1,3,3,0,0,1-.81.7,2.17,2.17,0,0,1-1.08.28h-6.39a2,2,0,0,1-1-.28,2.67,2.67,0,0,1-.76-.7,3.6,3.6,0,0,1-.65-2,3.49,3.49,0,0,1,.17-1.05,3.4,3.4,0,0,1,.51-1,2.75,2.75,0,0,1,.82-.7,2,2,0,0,1,1.07-.28h6.39a2.07,2.07,0,0,1,1,.31,2.71,2.71,0,0,1,.76.71,3.36,3.36,0,0,1,.49.94A3.4,3.4,0,0,1,1121.08,39.38Zm-2.1,1.5a1.35,1.35,0,0,0,.49-.42,1.45,1.45,0,0,0,.23-.54,2.22,2.22,0,0,0,.07-.54,2.11,2.11,0,0,0-.07-.54,1.45,1.45,0,0,0-.23-.54,1.35,1.35,0,0,0-.49-.42,1.5,1.5,0,0,0-.78-.17h-5.63a1.54,1.54,0,0,0-.79.17,1.28,1.28,0,0,0-.47.42,1.32,1.32,0,0,0-.24.54,2.67,2.67,0,0,0-.07.54,2.86,2.86,0,0,0,.07.54,1.32,1.32,0,0,0,.24.54,1.28,1.28,0,0,0,.47.42,1.65,1.65,0,0,0,.79.17h5.63A1.61,1.61,0,0,0,1119,40.88Zm-.46-2a.65.65,0,0,1,.2.47.61.61,0,0,1-.2.46.65.65,0,0,1-.47.2h-5.32a.66.66,0,0,1-.48-.2.61.61,0,0,1-.2-.46.67.67,0,0,1,.68-.66h5.32A.64.64,0,0,1,1118.52,38.91Z"/><path d="M1123.73,39.38a.61.61,0,0,1,.2-.47.63.63,0,0,1,.47-.19h7a.49.49,0,0,0,.36-.15.51.51,0,0,0,.16-.37.48.48,0,0,0-.16-.35.52.52,0,0,0-.36-.14h-8.55a.69.69,0,0,1-.48-.19.65.65,0,0,1,0-.94.69.69,0,0,1,.48-.19h8.48a2,2,0,0,1,.73.14,1.86,1.86,0,0,1,.6.38,1.94,1.94,0,0,1,.4.58,1.83,1.83,0,0,1,.14.71,1.91,1.91,0,0,1-.11.64,1.74,1.74,0,0,1-.33.54,1.8,1.8,0,0,1,.44,1.18,1.87,1.87,0,0,1-.14.71,1.94,1.94,0,0,1-.4.58,1.86,1.86,0,0,1-.6.38,2,2,0,0,1-.73.14h-8.48a.66.66,0,0,1-.48-.2.61.61,0,0,1-.2-.46.63.63,0,0,1,.2-.47.65.65,0,0,1,.48-.19h8.55a.52.52,0,0,0,.36-.14.5.5,0,0,0,.16-.35.51.51,0,0,0-.16-.37.49.49,0,0,0-.36-.15h-7a.63.63,0,0,1-.47-.2A.58.58,0,0,1,1123.73,39.38Z"/><path d="M1144.29,38.72a1.59,1.59,0,0,1,.66.13,1.7,1.7,0,0,1,.54.36,1.58,1.58,0,0,1,.48,1.18v.3a1.84,1.84,0,0,1-.12.66,1.77,1.77,0,0,1-.36.53,1.7,1.7,0,0,1-.54.36,1.76,1.76,0,0,1-.66.13H1137a2,2,0,0,1-1-.28,2.71,2.71,0,0,1-.77-.7,3.26,3.26,0,0,1-.48-1,3.53,3.53,0,0,1-.17-1,3.22,3.22,0,0,1,.18-1.05,3.17,3.17,0,0,1,.51-1,2.6,2.6,0,0,1,.81-.7,2.07,2.07,0,0,1,1.08-.28h8.16a.69.69,0,0,1,.48.19.68.68,0,0,1,0,.94.69.69,0,0,1-.48.19h-7.89a1.56,1.56,0,0,0-.8.17,1.37,1.37,0,0,0-.47.42,1.32,1.32,0,0,0-.24.54,2.62,2.62,0,0,0-.06.54,3.49,3.49,0,0,0,.05.53,1.48,1.48,0,0,0,.22.52,1.37,1.37,0,0,0,1.18.62,1.37,1.37,0,0,1,0-.36v-.3a1.61,1.61,0,0,1,.13-.65,1.58,1.58,0,0,1,.35-.53,2,2,0,0,1,.54-.36,1.59,1.59,0,0,1,.66-.13ZM1138.93,40a.43.43,0,0,0-.24.17.57.57,0,0,0-.11.33.52.52,0,0,0,.1.33.39.39,0,0,0,.25.17h5.28a.4.4,0,0,0,.3-.15.52.52,0,0,0,.13-.36.55.55,0,0,0-.12-.35.37.37,0,0,0-.31-.15Z"/><path d="M1081.41,51.72a1.25,1.25,0,0,1-.51-.1,1.32,1.32,0,0,1-.42-.27,1.22,1.22,0,0,1-.29-.41,1.35,1.35,0,0,1-.1-.5,1.27,1.27,0,0,1,.08-.44,1.51,1.51,0,0,1,.22-.37,1.51,1.51,0,0,1-.22-.37,1.22,1.22,0,0,1-.08-.43,1.39,1.39,0,0,1,.1-.5,1.41,1.41,0,0,1,.29-.4,1.51,1.51,0,0,1,.42-.27,1.25,1.25,0,0,1,.51-.1h5a1.22,1.22,0,0,1,.51.1,1.51,1.51,0,0,1,.42.27,1.33,1.33,0,0,1,.29.41,1.35,1.35,0,0,1,.1.5,1.23,1.23,0,0,1-.08.44,1.51,1.51,0,0,1-.22.37,1.51,1.51,0,0,1,.22.37,1.26,1.26,0,0,1,.08.43,1.35,1.35,0,0,1-.1.5,1.28,1.28,0,0,1-.29.4,1.32,1.32,0,0,1-.42.27,1.22,1.22,0,0,1-.51.1Zm0-3.24a.37.37,0,0,0-.26.1.34.34,0,0,0-.11.25.33.33,0,0,0,.11.25.37.37,0,0,0,.26.1h5.08a.41.41,0,0,0,.26-.09.33.33,0,0,0,.1-.25.34.34,0,0,0-.11-.25.33.33,0,0,0-.26-.11Zm5.07,2.33a.36.36,0,0,0,.26-.11.34.34,0,0,0,0-.5.35.35,0,0,0-.26-.1h-5.08a.37.37,0,0,0-.25.09.31.31,0,0,0-.11.25.38.38,0,0,0,.37.37Z"/><path d="M1091.27,49.64a.43.43,0,0,1,.14-.32.45.45,0,0,1,.33-.14h3.73a1.14,1.14,0,0,1,.46.09,1.25,1.25,0,0,1,.38.25,1.15,1.15,0,0,1,.25.37,1.21,1.21,0,0,1,.08.46v.21a1.12,1.12,0,0,1-.08.45,1.05,1.05,0,0,1-.25.37,1.09,1.09,0,0,1-.38.25,1.14,1.14,0,0,1-.46.09h-5.08a1.33,1.33,0,0,1-.71-.19,1.9,1.9,0,0,1-.53-.49,2.44,2.44,0,0,1-.46-1.4,2.46,2.46,0,0,1,.48-1.4,2.06,2.06,0,0,1,.57-.49,1.44,1.44,0,0,1,.75-.19h5.69a.44.44,0,0,1,.46.46.42.42,0,0,1-.13.32.45.45,0,0,1-.33.14h-5.48a1.12,1.12,0,0,0-.55.12.94.94,0,0,0-.33.29.87.87,0,0,0-.16.37,1.89,1.89,0,0,0-.05.38,1.81,1.81,0,0,0,.05.38.82.82,0,0,0,.16.37,1,1,0,0,0,.33.3,1.12,1.12,0,0,0,.55.12h4.73a.28.28,0,0,0,.21-.11.33.33,0,0,0,.1-.25.38.38,0,0,0-.09-.25.25.25,0,0,0-.22-.1h-3.69a.44.44,0,0,1-.33-.13A.45.45,0,0,1,1091.27,49.64Z"/><path d="M1101.31,49.32a.42.42,0,0,1,.13.32.44.44,0,0,1-.13.33.45.45,0,0,1-.34.13h-2.92a.44.44,0,0,1-.3-.15.4.4,0,0,1-.13-.31.43.43,0,0,1,.14-.32.45.45,0,0,1,.33-.14H1101A.46.46,0,0,1,1101.31,49.32Z"/><path d="M1109.91,50.94a.45.45,0,0,1,.14.32.45.45,0,0,1-.14.33.44.44,0,0,1-.33.13h-6.69a.44.44,0,0,1-.33-.13.42.42,0,0,1-.14-.33v-.91a1.22,1.22,0,0,1,.09-.46,1,1,0,0,1,.25-.37,1.21,1.21,0,0,1,.37-.25,1.14,1.14,0,0,1,.46-.09h5.18a.37.37,0,0,0,.26-.1.33.33,0,0,0,.11-.25.34.34,0,0,0-.11-.25.37.37,0,0,0-.26-.1h-5.88a.45.45,0,0,1-.33-.14.4.4,0,0,1-.14-.32.42.42,0,0,1,.14-.33.44.44,0,0,1,.33-.13h5.84a1.25,1.25,0,0,1,.51.1,1.51,1.51,0,0,1,.42.27,1.24,1.24,0,0,1,0,1.8,1.51,1.51,0,0,1-.42.27,1.25,1.25,0,0,1-.51.1h-5.08a.36.36,0,0,0-.22.11.35.35,0,0,0-.08.24v.36h6.23A.44.44,0,0,1,1109.91,50.94Z"/><path d="M1111.81,50a1.62,1.62,0,0,1-.41-.27,1.6,1.6,0,0,1-.28-.4,1.3,1.3,0,0,1,0-1,1.6,1.6,0,0,1,.28-.4,1.62,1.62,0,0,1,.41-.27,1.25,1.25,0,0,1,.51-.1h5.92a.44.44,0,0,1,.33.13.45.45,0,0,1,.14.33.43.43,0,0,1-.14.32.45.45,0,0,1-.33.14h-5.94a.37.37,0,0,0-.26.1.33.33,0,0,0-.11.25.34.34,0,0,0,.11.25.37.37,0,0,0,.26.1h5.39a1.46,1.46,0,0,1,.52.1,1.3,1.3,0,0,1,.41.28,1.26,1.26,0,0,1,.28.4,1.21,1.21,0,0,1,.1.5,1.18,1.18,0,0,1-.1.5,1.26,1.26,0,0,1-.28.4,1.25,1.25,0,0,1-.93.36h-5.91a.44.44,0,0,1-.33-.13.45.45,0,0,1-.14-.33.46.46,0,0,1,.47-.45h6a.4.4,0,0,0,.26-.1.33.33,0,0,0,.1-.25.34.34,0,0,0-.36-.36h-5.41A1.25,1.25,0,0,1,1111.81,50Z"/><path d="M1124.27,49.18h2.89a.45.45,0,0,1,.33.14.42.42,0,0,1,.13.32.44.44,0,0,1-.46.46h-2.89v1.16a.45.45,0,0,1-.14.33.48.48,0,0,1-.66,0,.45.45,0,0,1-.14-.33V50.1h-2.92a.48.48,0,0,1-.31-.15.43.43,0,0,1-.12-.31.44.44,0,0,1,.46-.46h2.89V48a.45.45,0,0,1,.14-.33.48.48,0,0,1,.66,0,.45.45,0,0,1,.14.33Z"/><rect x="1060.37" y="44.98" width="85.44" height="1.21"/><path class="cls-23" d="M78.29,93.06H93.84v.18c0,1.35,0,2.71,0,4.06a.53.53,0,0,1-.12.32c-.76.84-1.53,1.67-2.31,2.5a.44.44,0,0,1-.27.11H81a.35.35,0,0,1-.24-.1c-.78-.84-1.56-1.68-2.32-2.52a.39.39,0,0,1-.12-.26c0-1.4,0-2.79,0-4.19Zm7.78,1.19H79.68c-.16,0-.21,0-.21.21,0,.79,0,1.58,0,2.38a.43.43,0,0,0,.11.28l1.67,1.83a.39.39,0,0,0,.23.09q4.58,0,9.15,0a.39.39,0,0,0,.23-.09l1.67-1.83a.43.43,0,0,0,.11-.28c0-.79,0-1.58,0-2.36,0-.19,0-.23-.23-.23Z"/><path class="cls-97" d="M86.07,94.25h6.36c.18,0,.23,0,.23.23,0,.78,0,1.57,0,2.36a.43.43,0,0,1-.11.28l-1.67,1.83a.39.39,0,0,1-.23.09q-4.58,0-9.15,0a.39.39,0,0,1-.23-.09l-1.67-1.83a.43.43,0,0,1-.11-.28c0-.8,0-1.59,0-2.38,0-.17,0-.21.21-.21Zm-.61,2.38h1.21v-.58h.6v.58h1.2v-.58h.59v.58h1.2V96h1.19V94.86H80.68v1.19h1.2v.58h1.2v-.58h.6v.58h1.19v-.58h.59Z"/><path class="cls-23" d="M85.46,96.63v-.58h-.59v.58H83.68v-.58h-.6v.58h-1.2v-.58h-1.2V94.86H91.45V96H90.26v.59h-1.2v-.58h-.59v.58h-1.2v-.58h-.6v.58Z"/><rect class="cls-98" x="81.88" y="96.05" width="1.19" height="0.58"/><rect class="cls-98" x="83.68" y="96.05" width="1.19" height="0.58"/><rect class="cls-98" x="85.48" y="96.05" width="1.19" height="0.58"/><rect class="cls-98" x="87.28" y="96.05" width="1.19" height="0.58"/><rect class="cls-98" x="89.07" y="96.05" width="1.19" height="0.58"/><rect class="cls-7" x="101.14" y="72.57" width="41.99" height="29.25"/><path class="cls-99" d="M142.54,101h-40.8V73.2h40.8Zm-39.8-1h38.8V74.2h-38.8Z"/><rect class="cls-7" x="114.34" y="98.95" width="15.59" height="2.25"/><rect class="cls-99" x="115.54" y="98.73" width="13.2" height="1.8"/><rect class="cls-7" x="205.73" y="72.57" width="41.99" height="29.25"/><path class="cls-99" d="M247.13,101h-40.8V73.2h40.8Zm-39.8-1h38.8V74.2h-38.8Z"/><rect class="cls-7" x="218.93" y="98.95" width="15.59" height="2.25"/><rect class="cls-99" x="220.13" y="98.73" width="13.2" height="1.8"/></svg>