<svg id="Camada_1" data-name="Camada 1" xmlns="http://www.w3.org/2000/svg" xmlns:xlink="http://www.w3.org/1999/xlink" viewBox="0 0 654.77 72.18"><defs><style>.cls-1{fill:#a50000;}.cls-2{fill:#333;}.cls-3,.cls-4{fill:#969696;}.cls-4{opacity:0.61;}.cls-5{fill:#fff195;}.cls-6{fill:#fff;}.cls-7{fill:#d2d3d7;}.cls-8{fill:url(#Gradiente_sem_nome_46);}.cls-9{fill:url(#Gradiente_sem_nome_185);}.cls-10{fill:#1a1a1a;}.cls-11{fill:#f8e800;}.cls-12{fill:url(#Gradiente_sem_nome_66);}.cls-13{fill:url(#Gradiente_sem_nome_66-2);}.cls-14{fill:url(#Gradiente_sem_nome_66-3);}.cls-15{fill:url(#Gradiente_sem_nome_66-4);}.cls-16{fill:url(#Gradiente_sem_nome_66-5);}.cls-17{fill:url(#Gradiente_sem_nome_66-6);}.cls-18{fill:url(#Gradiente_sem_nome_66-7);}.cls-19{fill:url(#Gradiente_sem_nome_66-8);}.cls-20{fill:url(#Gradiente_sem_nome_66-9);}.cls-21{fill:url(#Gradiente_sem_nome_66-10);}.cls-22{fill:url(#Gradiente_sem_nome_66-11);}.cls-23{fill:url(#Gradiente_sem_nome_66-12);}.cls-24{fill:url(#Gradiente_sem_nome_66-13);}.cls-25{fill:url(#Gradiente_sem_nome_66-14);}.cls-26{fill:url(#Gradiente_sem_nome_66-15);}.cls-27{fill:url(#Gradiente_sem_nome_66-16);}.cls-28{fill:url(#Gradiente_sem_nome_66-17);}.cls-29{fill:url(#Gradiente_sem_nome_66-18);}.cls-30{fill:url(#Gradiente_sem_nome_66-19);}.cls-31{fill:url(#Gradiente_sem_nome_66-20);}.cls-32{fill:url(#Gradiente_sem_nome_66-21);}.cls-33{fill:url(#Gradiente_sem_nome_66-22);}.cls-34{fill:url(#Gradiente_sem_nome_66-23);}.cls-35{fill:url(#Gradiente_sem_nome_66-24);}.cls-36{fill:url(#Gradiente_sem_nome_66-25);}.cls-37{fill:url(#Gradiente_sem_nome_66-26);}.cls-38{fill:url(#Gradiente_sem_nome_66-27);}.cls-39{fill:url(#Gradiente_sem_nome_66-28);}.cls-40{fill:url(#Gradiente_sem_nome_66-29);}.cls-41{fill:url(#Gradiente_sem_nome_66-30);}.cls-42{fill:url(#Gradiente_sem_nome_66-31);}.cls-43{fill:url(#Gradiente_sem_nome_66-32);}.cls-44{fill:url(#Gradiente_sem_nome_66-33);}.cls-45{fill:url(#Gradiente_sem_nome_66-34);}.cls-46{fill:url(#Gradiente_sem_nome_66-35);}.cls-47{fill:url(#Gradiente_sem_nome_66-36);}.cls-48{fill:url(#Gradiente_sem_nome_66-37);}.cls-49{fill:url(#Gradiente_sem_nome_66-38);}.cls-50{fill:url(#Gradiente_sem_nome_66-39);}.cls-51{fill:url(#Gradiente_sem_nome_66-40);}.cls-52{fill:url(#Gradiente_sem_nome_66-41);}.cls-53{fill:url(#Gradiente_sem_nome_66-42);}.cls-54{fill:url(#Gradiente_sem_nome_66-43);}.cls-55{fill:url(#Gradiente_sem_nome_66-44);}.cls-56{fill:url(#Gradiente_sem_nome_66-45);}.cls-57{fill:url(#Gradiente_sem_nome_66-46);}.cls-58{fill:url(#Gradiente_sem_nome_66-47);}.cls-59{fill:url(#Gradiente_sem_nome_66-48);}.cls-60{fill:url(#Gradiente_sem_nome_66-49);}.cls-61{fill:url(#Gradiente_sem_nome_66-50);}.cls-62{fill:url(#Gradiente_sem_nome_66-51);}.cls-63{fill:url(#Gradiente_sem_nome_66-52);}.cls-64{fill:url(#Gradiente_sem_nome_66-53);}.cls-65{fill:url(#Gradiente_sem_nome_66-54);}.cls-66{fill:url(#Gradiente_sem_nome_66-55);}.cls-67{fill:url(#Gradiente_sem_nome_66-56);}.cls-68{fill:url(#Gradiente_sem_nome_66-57);}.cls-69{fill:url(#Gradiente_sem_nome_66-58);}.cls-70{fill:url(#Gradiente_sem_nome_66-59);}.cls-71{fill:url(#Gradiente_sem_nome_66-60);}.cls-72{fill:url(#Gradiente_sem_nome_66-61);}.cls-73{fill:url(#Gradiente_sem_nome_66-62);}.cls-74{fill:url(#Gradiente_sem_nome_66-63);}.cls-75{fill:url(#Gradiente_sem_nome_66-64);}.cls-76{fill:url(#Gradiente_sem_nome_66-65);}.cls-77{fill:url(#Gradiente_sem_nome_66-66);}.cls-78{fill:url(#Gradiente_sem_nome_66-67);}.cls-79{fill:url(#Gradiente_sem_nome_66-68);}.cls-80{fill:url(#Gradiente_sem_nome_66-69);}.cls-81{fill:url(#Gradiente_sem_nome_66-70);}.cls-82{fill:url(#Gradiente_sem_nome_66-71);}.cls-83{fill:url(#Gradiente_sem_nome_66-72);}.cls-84{fill:url(#Gradiente_sem_nome_66-73);}.cls-85{fill:url(#Gradiente_sem_nome_66-74);}.cls-86{fill:url(#Gradiente_sem_nome_66-75);}.cls-87{fill:url(#Gradiente_sem_nome_66-76);}.cls-88{fill:url(#Gradiente_sem_nome_66-77);}.cls-89{fill:url(#Gradiente_sem_nome_66-78);}.cls-90{fill:url(#Gradiente_sem_nome_66-79);}.cls-91{fill:url(#Gradiente_sem_nome_66-80);}.cls-92{fill:url(#Gradiente_sem_nome_46-2);}.cls-93{fill:url(#Gradiente_sem_nome_46-3);}.cls-94{fill:url(#Gradiente_sem_nome_46-4);}.cls-95{fill:url(#Gradiente_sem_nome_46-5);}.cls-96{fill:url(#Gradiente_sem_nome_46-6);}.cls-97{fill:url(#Gradiente_sem_nome_46-7);}.cls-98{fill:url(#Gradiente_sem_nome_46-8);}.cls-99{fill:url(#Gradiente_sem_nome_46-9);}.cls-100{fill:url(#Gradiente_sem_nome_46-10);}.cls-101{fill:url(#Gradiente_sem_nome_46-11);}.cls-102{fill:#c9c9c9;}</style><radialGradient id="Gradiente_sem_nome_46" cx="336.04" cy="983.96" r="3.54" gradientTransform="translate(-345.64 -1150.49) scale(1.2 1.2)" gradientUnits="userSpaceOnUse"><stop offset="0.46" stop-color="lime"/><stop offset="1" stop-color="#00c500"/></radialGradient><radialGradient id="Gradiente_sem_nome_185" cx="336.04" cy="998.04" r="3.54" gradientTransform="translate(-345.64 -1153.31) scale(1.2 1.2)" gradientUnits="userSpaceOnUse"><stop offset="0" stop-color="aqua"/><stop offset="1" stop-color="#0070ff"/></radialGradient><linearGradient id="Gradiente_sem_nome_66" x1="137.41" y1="19.63" x2="137.41" y2="26.83" gradientUnits="userSpaceOnUse"><stop offset="0" stop-color="#fff195"/><stop offset="0.47" stop-color="#fff195"/><stop offset="1" stop-color="#1a1a1a"/></linearGradient><linearGradient id="Gradiente_sem_nome_66-2" x1="140.58" y1="19.63" x2="140.58" y2="26.83" xlink:href="#Gradiente_sem_nome_66"/><linearGradient id="Gradiente_sem_nome_66-3" x1="143.75" y1="19.63" x2="143.75" y2="26.83" xlink:href="#Gradiente_sem_nome_66"/><linearGradient id="Gradiente_sem_nome_66-4" x1="146.92" y1="19.63" x2="146.92" y2="26.83" xlink:href="#Gradiente_sem_nome_66"/><linearGradient id="Gradiente_sem_nome_66-5" x1="150.09" y1="19.63" x2="150.09" y2="26.83" xlink:href="#Gradiente_sem_nome_66"/><linearGradient id="Gradiente_sem_nome_66-6" x1="153.26" y1="19.63" x2="153.26" y2="26.83" xlink:href="#Gradiente_sem_nome_66"/><linearGradient id="Gradiente_sem_nome_66-7" x1="156.43" y1="19.63" x2="156.43" y2="26.83" xlink:href="#Gradiente_sem_nome_66"/><linearGradient id="Gradiente_sem_nome_66-8" x1="159.6" y1="19.63" x2="159.6" y2="26.83" xlink:href="#Gradiente_sem_nome_66"/><linearGradient id="Gradiente_sem_nome_66-9" x1="177.41" y1="19.63" x2="177.41" y2="26.83" xlink:href="#Gradiente_sem_nome_66"/><linearGradient id="Gradiente_sem_nome_66-10" x1="180.58" y1="19.63" x2="180.58" y2="26.83" xlink:href="#Gradiente_sem_nome_66"/><linearGradient id="Gradiente_sem_nome_66-11" x1="183.75" y1="19.63" x2="183.75" y2="26.83" xlink:href="#Gradiente_sem_nome_66"/><linearGradient id="Gradiente_sem_nome_66-12" x1="186.92" y1="19.63" x2="186.92" y2="26.83" xlink:href="#Gradiente_sem_nome_66"/><linearGradient id="Gradiente_sem_nome_66-13" x1="190.09" y1="19.63" x2="190.09" y2="26.83" xlink:href="#Gradiente_sem_nome_66"/><linearGradient id="Gradiente_sem_nome_66-14" x1="193.26" y1="19.63" x2="193.26" y2="26.83" xlink:href="#Gradiente_sem_nome_66"/><linearGradient id="Gradiente_sem_nome_66-15" x1="196.43" y1="19.63" x2="196.43" y2="26.83" xlink:href="#Gradiente_sem_nome_66"/><linearGradient id="Gradiente_sem_nome_66-16" x1="199.6" y1="19.63" x2="199.6" y2="26.83" xlink:href="#Gradiente_sem_nome_66"/><linearGradient id="Gradiente_sem_nome_66-17" x1="217.04" y1="19.63" x2="217.04" y2="26.83" xlink:href="#Gradiente_sem_nome_66"/><linearGradient id="Gradiente_sem_nome_66-18" x1="220.21" y1="19.63" x2="220.21" y2="26.83" xlink:href="#Gradiente_sem_nome_66"/><linearGradient id="Gradiente_sem_nome_66-19" x1="223.38" y1="19.63" x2="223.38" y2="26.83" xlink:href="#Gradiente_sem_nome_66"/><linearGradient id="Gradiente_sem_nome_66-20" x1="226.55" y1="19.63" x2="226.55" y2="26.83" xlink:href="#Gradiente_sem_nome_66"/><linearGradient id="Gradiente_sem_nome_66-21" x1="229.72" y1="19.63" x2="229.72" y2="26.83" xlink:href="#Gradiente_sem_nome_66"/><linearGradient id="Gradiente_sem_nome_66-22" x1="232.89" y1="19.63" x2="232.89" y2="26.83" xlink:href="#Gradiente_sem_nome_66"/><linearGradient id="Gradiente_sem_nome_66-23" x1="236.06" y1="19.63" x2="236.06" y2="26.83" xlink:href="#Gradiente_sem_nome_66"/><linearGradient id="Gradiente_sem_nome_66-24" x1="239.22" y1="19.63" x2="239.22" y2="26.83" xlink:href="#Gradiente_sem_nome_66"/><linearGradient id="Gradiente_sem_nome_66-25" x1="257.41" y1="19.63" x2="257.41" y2="26.83" xlink:href="#Gradiente_sem_nome_66"/><linearGradient id="Gradiente_sem_nome_66-26" x1="260.58" y1="19.63" x2="260.58" y2="26.83" xlink:href="#Gradiente_sem_nome_66"/><linearGradient id="Gradiente_sem_nome_66-27" x1="263.75" y1="19.63" x2="263.75" y2="26.83" xlink:href="#Gradiente_sem_nome_66"/><linearGradient id="Gradiente_sem_nome_66-28" x1="266.92" y1="19.63" x2="266.92" y2="26.83" xlink:href="#Gradiente_sem_nome_66"/><linearGradient id="Gradiente_sem_nome_66-29" x1="270.09" y1="19.63" x2="270.09" y2="26.83" xlink:href="#Gradiente_sem_nome_66"/><linearGradient id="Gradiente_sem_nome_66-30" x1="273.26" y1="19.63" x2="273.26" y2="26.83" xlink:href="#Gradiente_sem_nome_66"/><linearGradient id="Gradiente_sem_nome_66-31" x1="276.43" y1="19.63" x2="276.43" y2="26.83" xlink:href="#Gradiente_sem_nome_66"/><linearGradient id="Gradiente_sem_nome_66-32" x1="279.6" y1="19.63" x2="279.6" y2="26.83" xlink:href="#Gradiente_sem_nome_66"/><linearGradient id="Gradiente_sem_nome_66-33" x1="297.41" y1="19.63" x2="297.41" y2="26.83" xlink:href="#Gradiente_sem_nome_66"/><linearGradient id="Gradiente_sem_nome_66-34" x1="300.58" y1="19.63" x2="300.58" y2="26.83" xlink:href="#Gradiente_sem_nome_66"/><linearGradient id="Gradiente_sem_nome_66-35" x1="303.75" y1="19.63" x2="303.75" y2="26.83" xlink:href="#Gradiente_sem_nome_66"/><linearGradient id="Gradiente_sem_nome_66-36" x1="306.92" y1="19.63" x2="306.92" y2="26.83" xlink:href="#Gradiente_sem_nome_66"/><linearGradient id="Gradiente_sem_nome_66-37" x1="310.09" y1="19.63" x2="310.09" y2="26.83" xlink:href="#Gradiente_sem_nome_66"/><linearGradient id="Gradiente_sem_nome_66-38" x1="313.26" y1="19.63" x2="313.26" y2="26.83" xlink:href="#Gradiente_sem_nome_66"/><linearGradient id="Gradiente_sem_nome_66-39" x1="316.43" y1="19.63" x2="316.43" y2="26.83" xlink:href="#Gradiente_sem_nome_66"/><linearGradient id="Gradiente_sem_nome_66-40" x1="319.6" y1="19.63" x2="319.6" y2="26.83" xlink:href="#Gradiente_sem_nome_66"/><linearGradient id="Gradiente_sem_nome_66-41" x1="431.38" y1="19.63" x2="431.38" y2="26.83" xlink:href="#Gradiente_sem_nome_66"/><linearGradient id="Gradiente_sem_nome_66-42" x1="434.55" y1="19.63" x2="434.55" y2="26.83" xlink:href="#Gradiente_sem_nome_66"/><linearGradient id="Gradiente_sem_nome_66-43" x1="437.72" y1="19.63" x2="437.72" y2="26.83" xlink:href="#Gradiente_sem_nome_66"/><linearGradient id="Gradiente_sem_nome_66-44" x1="440.89" y1="19.63" x2="440.89" y2="26.83" xlink:href="#Gradiente_sem_nome_66"/><linearGradient id="Gradiente_sem_nome_66-45" x1="444.06" y1="19.63" x2="444.06" y2="26.83" xlink:href="#Gradiente_sem_nome_66"/><linearGradient id="Gradiente_sem_nome_66-46" x1="447.23" y1="19.63" x2="447.23" y2="26.83" xlink:href="#Gradiente_sem_nome_66"/><linearGradient id="Gradiente_sem_nome_66-47" x1="450.4" y1="19.63" x2="450.4" y2="26.83" xlink:href="#Gradiente_sem_nome_66"/><linearGradient id="Gradiente_sem_nome_66-48" x1="453.57" y1="19.63" x2="453.57" y2="26.83" xlink:href="#Gradiente_sem_nome_66"/><linearGradient id="Gradiente_sem_nome_66-49" x1="471.38" y1="19.63" x2="471.38" y2="26.83" xlink:href="#Gradiente_sem_nome_66"/><linearGradient id="Gradiente_sem_nome_66-50" x1="474.55" y1="19.63" x2="474.55" y2="26.83" xlink:href="#Gradiente_sem_nome_66"/><linearGradient id="Gradiente_sem_nome_66-51" x1="477.72" y1="19.63" x2="477.72" y2="26.83" xlink:href="#Gradiente_sem_nome_66"/><linearGradient id="Gradiente_sem_nome_66-52" x1="480.89" y1="19.63" x2="480.89" y2="26.83" xlink:href="#Gradiente_sem_nome_66"/><linearGradient id="Gradiente_sem_nome_66-53" x1="484.06" y1="19.63" x2="484.06" y2="26.83" xlink:href="#Gradiente_sem_nome_66"/><linearGradient id="Gradiente_sem_nome_66-54" x1="487.23" y1="19.63" x2="487.23" y2="26.83" xlink:href="#Gradiente_sem_nome_66"/><linearGradient id="Gradiente_sem_nome_66-55" x1="490.4" y1="19.63" x2="490.4" y2="26.83" xlink:href="#Gradiente_sem_nome_66"/><linearGradient id="Gradiente_sem_nome_66-56" x1="493.57" y1="19.63" x2="493.57" y2="26.83" xlink:href="#Gradiente_sem_nome_66"/><linearGradient id="Gradiente_sem_nome_66-57" x1="511.01" y1="19.63" x2="511.01" y2="26.83" xlink:href="#Gradiente_sem_nome_66"/><linearGradient id="Gradiente_sem_nome_66-58" x1="514.18" y1="19.63" x2="514.18" y2="26.83" xlink:href="#Gradiente_sem_nome_66"/><linearGradient id="Gradiente_sem_nome_66-59" x1="517.35" y1="19.63" x2="517.35" y2="26.83" xlink:href="#Gradiente_sem_nome_66"/><linearGradient id="Gradiente_sem_nome_66-60" x1="520.52" y1="19.63" x2="520.52" y2="26.83" xlink:href="#Gradiente_sem_nome_66"/><linearGradient id="Gradiente_sem_nome_66-61" x1="523.69" y1="19.63" x2="523.69" y2="26.83" xlink:href="#Gradiente_sem_nome_66"/><linearGradient id="Gradiente_sem_nome_66-62" x1="526.86" y1="19.63" x2="526.86" y2="26.83" xlink:href="#Gradiente_sem_nome_66"/><linearGradient id="Gradiente_sem_nome_66-63" x1="530.03" y1="19.63" x2="530.03" y2="26.83" xlink:href="#Gradiente_sem_nome_66"/><linearGradient id="Gradiente_sem_nome_66-64" x1="533.19" y1="19.63" x2="533.19" y2="26.83" xlink:href="#Gradiente_sem_nome_66"/><linearGradient id="Gradiente_sem_nome_66-65" x1="551.38" y1="19.63" x2="551.38" y2="26.83" xlink:href="#Gradiente_sem_nome_66"/><linearGradient id="Gradiente_sem_nome_66-66" x1="554.55" y1="19.63" x2="554.55" y2="26.83" xlink:href="#Gradiente_sem_nome_66"/><linearGradient id="Gradiente_sem_nome_66-67" x1="557.72" y1="19.63" x2="557.72" y2="26.83" xlink:href="#Gradiente_sem_nome_66"/><linearGradient id="Gradiente_sem_nome_66-68" x1="560.89" y1="19.63" x2="560.89" y2="26.83" xlink:href="#Gradiente_sem_nome_66"/><linearGradient id="Gradiente_sem_nome_66-69" x1="564.06" y1="19.63" x2="564.06" y2="26.83" xlink:href="#Gradiente_sem_nome_66"/><linearGradient id="Gradiente_sem_nome_66-70" x1="567.23" y1="19.63" x2="567.23" y2="26.83" xlink:href="#Gradiente_sem_nome_66"/><linearGradient id="Gradiente_sem_nome_66-71" x1="570.4" y1="19.63" x2="570.4" y2="26.83" xlink:href="#Gradiente_sem_nome_66"/><linearGradient id="Gradiente_sem_nome_66-72" x1="573.57" y1="19.63" x2="573.57" y2="26.83" xlink:href="#Gradiente_sem_nome_66"/><linearGradient id="Gradiente_sem_nome_66-73" x1="591.38" y1="19.63" x2="591.38" y2="26.83" xlink:href="#Gradiente_sem_nome_66"/><linearGradient id="Gradiente_sem_nome_66-74" x1="594.55" y1="19.63" x2="594.55" y2="26.83" xlink:href="#Gradiente_sem_nome_66"/><linearGradient id="Gradiente_sem_nome_66-75" x1="597.72" y1="19.63" x2="597.72" y2="26.83" xlink:href="#Gradiente_sem_nome_66"/><linearGradient id="Gradiente_sem_nome_66-76" x1="600.89" y1="19.63" x2="600.89" y2="26.83" xlink:href="#Gradiente_sem_nome_66"/><linearGradient id="Gradiente_sem_nome_66-77" x1="604.06" y1="19.63" x2="604.06" y2="26.83" xlink:href="#Gradiente_sem_nome_66"/><linearGradient id="Gradiente_sem_nome_66-78" x1="607.23" y1="19.63" x2="607.23" y2="26.83" xlink:href="#Gradiente_sem_nome_66"/><linearGradient id="Gradiente_sem_nome_66-79" x1="610.4" y1="19.63" x2="610.4" y2="26.83" xlink:href="#Gradiente_sem_nome_66"/><linearGradient id="Gradiente_sem_nome_66-80" x1="613.57" y1="19.63" x2="613.57" y2="26.83" xlink:href="#Gradiente_sem_nome_66"/><radialGradient id="Gradiente_sem_nome_46-2" cx="347.1" cy="30.3" r="4.18" gradientTransform="matrix(1, 0, 0, 1, 0, 0)" xlink:href="#Gradiente_sem_nome_46"/><radialGradient id="Gradiente_sem_nome_46-3" cx="361.33" cy="30.3" r="4.18" gradientTransform="matrix(1, 0, 0, 1, 0, 0)" xlink:href="#Gradiente_sem_nome_46"/><radialGradient id="Gradiente_sem_nome_46-4" cx="375.56" cy="30.3" r="4.18" gradientTransform="matrix(1, 0, 0, 1, 0, 0)" xlink:href="#Gradiente_sem_nome_46"/><radialGradient id="Gradiente_sem_nome_46-5" cx="389.79" cy="30.3" r="4.18" gradientTransform="matrix(1, 0, 0, 1, 0, 0)" xlink:href="#Gradiente_sem_nome_46"/><radialGradient id="Gradiente_sem_nome_46-6" cx="403.9" cy="30.3" r="4.18" gradientTransform="matrix(1, 0, 0, 1, 0, 0)" xlink:href="#Gradiente_sem_nome_46"/><radialGradient id="Gradiente_sem_nome_46-7" cx="347.05" cy="44.89" r="4.18" gradientTransform="matrix(1, 0, 0, 1, 0, 0)" xlink:href="#Gradiente_sem_nome_46"/><radialGradient id="Gradiente_sem_nome_46-8" cx="361.16" cy="44.89" r="4.18" gradientTransform="matrix(1, 0, 0, 1, 0, 0)" xlink:href="#Gradiente_sem_nome_46"/><radialGradient id="Gradiente_sem_nome_46-9" cx="375.72" cy="44.89" r="4.18" gradientTransform="matrix(1, 0, 0, 1, 0, 0)" xlink:href="#Gradiente_sem_nome_46"/><radialGradient id="Gradiente_sem_nome_46-10" cx="389.44" cy="44.89" r="4.18" gradientTransform="matrix(1, 0, 0, 1, 0, 0)" xlink:href="#Gradiente_sem_nome_46"/><radialGradient id="Gradiente_sem_nome_46-11" cx="403.9" cy="44.89" r="4.18" gradientTransform="matrix(1, 0, 0, 1, 0, 0)" xlink:href="#Gradiente_sem_nome_46"/></defs><rect class="cls-1" x="0.7" y="0.7" width="653.37" height="70.78"/><path d="M654.07.7V71.48H.7V.7H654.07m.7-.7H0V72.18H654.77V0Z"/><rect x="24.23" y="11.83" width="17.84" height="38.87"/><rect class="cls-2" x="26.1" y="13.45" width="14.1" height="35.85" rx="1.48"/><path class="cls-3" d="M38.71,14.24a.7.7,0,0,1,.7.7V47.82a.7.7,0,0,1-.7.7H27.58a.69.69,0,0,1-.69-.7V14.94a.69.69,0,0,1,.69-.7H38.71m0-1.57H27.58a2.27,2.27,0,0,0-2.27,2.27V47.82a2.28,2.28,0,0,0,2.27,2.28H38.71A2.28,2.28,0,0,0,41,47.82V14.94a2.28,2.28,0,0,0-2.28-2.27Z"/><rect class="cls-4" x="27.8" y="16.31" width="4.1" height="30.14"/><rect class="cls-5" x="31.9" y="19.35" width="1.44" height="2.02"/><rect class="cls-5" x="31.9" y="41.39" width="1.44" height="2.02"/><rect class="cls-5" x="31.9" y="34.04" width="1.44" height="2.02"/><rect class="cls-5" x="31.9" y="26.7" width="1.44" height="2.02"/><path class="cls-6" d="M15.94,8.71h-1.4L12.85,6.65h-.93V8.71H11V3.26h3.6c.63,0,.95.35.95,1V5.59c0,.53-.17.86-.49,1a3.81,3.81,0,0,1-1,.08ZM14.56,5.29V4.63a.43.43,0,0,0-.12-.36.52.52,0,0,0-.32-.07h-2.2V5.72h2.2a.51.51,0,0,0,.32-.08C14.52,5.59,14.56,5.47,14.56,5.29Z"/><path class="cls-6" d="M22.07,7.64c0,.71-.41,1.07-1.24,1.07H17.49V3.26H21.1c.63,0,.94.35.94,1V5a.82.82,0,0,1-.72.92c.5.08.75.43.75,1Zm-.93-2.59V4.54c0-.27-.15-.4-.45-.4H18.45v1.3h2.24Q21.14,5.44,21.14,5.05Zm0,2.19V6.83a.53.53,0,0,0-.11-.4.56.56,0,0,0-.36-.09H18.45V7.73h2.24a.56.56,0,0,0,.36-.09A.55.55,0,0,0,21.16,7.24Z"/><path class="cls-6" d="M28.32,7.64a1.2,1.2,0,0,1-.24.88,1,1,0,0,1-.73.19H23.82v-.5A1.05,1.05,0,0,1,24,7.62a1.41,1.41,0,0,1,.39-.4l2.91-2.33v-.7h-2.4V5.31L24,5V4.32a1.17,1.17,0,0,1,.24-.87A1,1,0,0,1,25,3.26h2.16c.43,0,.71.1.82.3a2.61,2.61,0,0,1,.14,1.11,1.53,1.53,0,0,1-.12.68,1.81,1.81,0,0,1-.42.43l-2.47,2h2.44V6.92l.78.29Z"/><path class="cls-6" d="M34.72,7.42a1.84,1.84,0,0,1-.2,1,.87.87,0,0,1-.76.28H30.91a.88.88,0,0,1-.76-.28,1.84,1.84,0,0,1-.2-1V4.55a1.86,1.86,0,0,1,.2-1,.91.91,0,0,1,.76-.27h2.85a.9.9,0,0,1,.76.27,1.86,1.86,0,0,1,.2,1Zm-.88.31V4.19h-3V7.73Z"/><path class="cls-6" d="M39.26,8.71h-.89V4.29h-.9V3.56l1.79-.35Z"/><path class="cls-6" d="M45.56,8.71h-.89V4.29h-.9V3.56l1.79-.35Z"/><path class="cls-6" d="M53.9,7.42a1.63,1.63,0,0,1-.22,1,1,1,0,0,1-.82.27H50.2a1,1,0,0,1-.82-.27,1.63,1.63,0,0,1-.22-1V3.26h1V7.68h2.79V3.26h1Z"/><path class="cls-6" d="M56.58,8.71h-.84V4.24h.84Z"/><path class="cls-6" d="M63.36,8.71h-1.1l-.51-1.2H59.09l-.49,1.2h-1L60,3.26h.94Zm-2-2.18-.9-2.22L59.5,6.53Z"/><path class="cls-6" d="M69.12,7.42a1.62,1.62,0,0,1-.23,1,1,1,0,0,1-.82.27h-2.6a1,1,0,0,1-.85-.3,2.15,2.15,0,0,1-.2-1.14L65.28,7v.64h3V6.44H65.63a1,1,0,0,1-.82-.27,1.65,1.65,0,0,1-.22-1v-.6a1.69,1.69,0,0,1,.22-1,1,1,0,0,1,.82-.26H68a1,1,0,0,1,.82.27,1.7,1.7,0,0,1,.22,1l-.86.26V4.21H65.44V5.38h2.63a1.07,1.07,0,0,1,.82.26,1.67,1.67,0,0,1,.23,1Z"/><path class="cls-6" d="M72.36,6.44h-1.9V5.35h1.9Z"/><path class="cls-6" d="M74.65,8.71h-.9V3.26h.9Z"/><path class="cls-6" d="M81.16,8.71h-.61L77.71,5.34a2.83,2.83,0,0,1-.32-.45c0,.36,0,.63,0,.84v3h-.8V3.26h.61L80,6.47a5.89,5.89,0,0,1,.44.59c0-.51,0-.82,0-.94V3.26h.81Z"/><path id="path1334" class="cls-6" d="M43.94,62.64l-2-1.19v.85H31.43l2-2.15a1.1,1.1,0,0,1,.63-.25h1.71a1,1,0,1,0,0-.67H34.12a2,2,0,0,0-1.25.54h0l-2.16,2.29a1.09,1.09,0,0,1-.63.24H28.9a1.72,1.72,0,1,0,0,.67h3.74a1.1,1.1,0,0,1,.63.25s2.16,2.27,2.16,2.28h0a1.92,1.92,0,0,0,1.25.55h1.63v.68h2v-2h-2v.69H36.66a1.09,1.09,0,0,1-.63-.24L34,63h7.9v.85Z"/><rect class="cls-7" x="124.38" y="13.6" width="207.5" height="37.96"/><circle class="cls-8" cx="57.59" cy="30.24" r="4.25"/><circle class="cls-9" cx="57.59" cy="44.32" r="4.25"/><path class="cls-6" d="M87.74,62.4a2.28,2.28,0,0,1-.23,1.22.93.93,0,0,1-.81.32H84.15a.87.87,0,0,1-.83-.36,3.14,3.14,0,0,1-.2-1.36l.85-.28v.77h2.92V61.22H84.31a.89.89,0,0,1-.8-.32,2.3,2.3,0,0,1-.22-1.22V59a2.32,2.32,0,0,1,.22-1.23.91.91,0,0,1,.8-.31h2.35a.88.88,0,0,1,.8.32A2.36,2.36,0,0,1,87.68,59l-.85.32v-.75h-2.7V60H86.7a.93.93,0,0,1,.81.31,2.29,2.29,0,0,1,.23,1.23Z"/><path class="cls-6" d="M93.9,58.55H90.69v1.72h1.73v1.19H90.69v2.48h-1V57.42H93.9Z"/><path class="cls-6" d="M99.55,60.13c0,.85-.3,1.27-.92,1.27H96v2.54h-1V57.42h3.54c.62,0,.92.42.92,1.26Zm-.92-.38v-.69a.57.57,0,0,0-.12-.43.44.44,0,0,0-.31-.09H96v1.73H98.2a.44.44,0,0,0,.31-.09C98.59,60.12,98.63,60,98.63,59.75Z"/><path class="cls-6" d="M145.28,6.29q0,1.26-.93,1.26h-2.59V10.1h-.94V3.57h3.53c.62,0,.93.42.93,1.27Zm-.93-.38V5.22c0-.22,0-.37-.12-.43a.43.43,0,0,0-.31-.09h-2.16V6.43h2.16a.43.43,0,0,0,.31-.09A.57.57,0,0,0,144.35,5.91Z"/><path class="cls-6" d="M151.75,8.55a2.32,2.32,0,0,1-.22,1.23.9.9,0,0,1-.8.32h-3a.9.9,0,0,1-.8-.32,2.32,2.32,0,0,1-.22-1.23V5.12a2.32,2.32,0,0,1,.22-1.23.9.9,0,0,1,.8-.32h3a.9.9,0,0,1,.8.32,2.32,2.32,0,0,1,.22,1.23Zm-1,.32V4.74h-3.16V8.87Z"/><path class="cls-6" d="M158,10.1h-4.26V3.57H158V4.69h-3.26V6.14h1.9V7.25h-1.9V8.87H158Z"/><path class="cls-6" d="M192.82,8.55a2.47,2.47,0,0,1-.2,1.23.83.83,0,0,1-.75.32h-2.64a.81.81,0,0,1-.74-.32,2.44,2.44,0,0,1-.21-1.23V5.12a2.44,2.44,0,0,1,.21-1.23.81.81,0,0,1,.74-.32h2.64a.8.8,0,0,1,.77.34,3.06,3.06,0,0,1,.18,1.29l-.86.27V4.74h-2.79V8.87H192V7.42H190.5V6.3h2.32Z"/><path class="cls-6" d="M195.6,10.1h-.89V3.57h.89Z"/><path class="cls-6" d="M202,8.55a2.47,2.47,0,0,1-.2,1.23.84.84,0,0,1-.75.32h-2.64a.84.84,0,0,1-.75-.32,2.59,2.59,0,0,1-.2-1.23V5.12a2.59,2.59,0,0,1,.2-1.23.84.84,0,0,1,.75-.32h2.64a.78.78,0,0,1,.76.34A2.87,2.87,0,0,1,202,5.2l-.87.27V4.74h-2.78V8.87h2.78V7.42H199.7V6.3H202Z"/><path class="cls-6" d="M208.26,10.1h-1l-.46-1.43h-2.43l-.45,1.43H203l2.17-6.53h.86Zm-1.83-2.61-.83-2.65-.85,2.65Z"/><path class="cls-6" d="M213.67,8.82c0,.85-.38,1.28-1.13,1.28h-3V3.57h3.28c.58,0,.87.42.87,1.27v.79c0,.64-.22,1-.67,1.1.46.1.7.52.7,1.25Zm-.86-3.1V5.1c0-.31-.14-.47-.41-.47h-2V6.19h2C212.67,6.19,212.81,6,212.81,5.72Zm0,2.62V7.85a.74.74,0,0,0-.1-.48.42.42,0,0,0-.33-.11h-2V8.92h2a.42.42,0,0,0,.33-.11A.72.72,0,0,0,212.83,8.34Z"/><path class="cls-6" d="M216.28,10.1h-.89V3.57h.89Z"/><path class="cls-6" d="M221.79,4.74H220V10.1h-.89V4.74h-1.76V3.57h4.42Z"/><path class="cls-6" d="M229.71,10.1h-4V3.57h3.92V4.69h-3V6.14h1.77V7.25h-1.77V8.87h3.07Z"/><path class="cls-6" d="M234.91,4.74h-1.77V10.1h-.89V4.74h-1.76V3.57h4.42Z"/><path class="cls-6" d="M240.57,10.1h-.9V7.29h-2.78V10.1H236V3.57h.89V6.1h2.78V3.57h.9Z"/><path class="cls-6" d="M246.49,10.1h-4V3.57h3.92V4.69h-3V6.14h1.77V7.25h-1.77V8.87h3.07Z"/><path class="cls-6" d="M252.68,10.1H251.4l-1.54-2.47H249V10.1h-.87V3.57h3.28c.57,0,.86.42.86,1.27V6.37q0,.94-.45,1.17a2.66,2.66,0,0,1-.92.09ZM251.42,6V5.22a.6.6,0,0,0-.11-.43A.39.39,0,0,0,251,4.7h-2V6.52h2a.39.39,0,0,0,.29-.09A.62.62,0,0,0,251.42,6Z"/><path class="cls-6" d="M258.59,10.1H258l-2.81-4a3.55,3.55,0,0,1-.32-.53c0,.42,0,.76,0,1V10.1h-.81V3.57h.61l2.7,3.85a6.71,6.71,0,0,1,.44.7c0-.6,0-1,0-1.12V3.57h.8Z"/><path class="cls-6" d="M264.5,10.1h-4V3.57h3.92V4.69h-3V6.14h1.77V7.25h-1.77V8.87h3.07Z"/><path class="cls-6" d="M269.7,4.74h-1.77V10.1H267V4.74h-1.76V3.57h4.42Z"/><path class="cls-6" d="M142.42,64.69H138V58.17h4.4v1.11H139v1.45h2v1.11h-2v1.62h3.44Z"/><path class="cls-6" d="M148.25,59.33h-2v5.36h-1V59.33h-2V58.17h5Z"/><path class="cls-6" d="M154.6,64.69h-1V61.88h-3.12v2.81h-1V58.17h1v2.52h3.12V58.17h1Z"/><path class="cls-6" d="M159.55,64.69h-.91V59.4h-.91v-.87l1.82-.41Z"/><path class="cls-6" d="M182.17,64.69h-4.44V58.17h4.4v1.11h-3.4v1.45h2v1.11h-2v1.62h3.44Z"/><path class="cls-6" d="M188,59.33h-2v5.36h-1V59.33h-2V58.17h5Z"/><path class="cls-6" d="M194.35,64.69h-1V61.88h-3.12v2.81h-1V58.17h1v2.52h3.12V58.17h1Z"/><path class="cls-6" d="M201,63.41a1.65,1.65,0,0,1-.24,1,1,1,0,0,1-.74.23H196.4v-.6a1.41,1.41,0,0,1,.14-.7,1.57,1.57,0,0,1,.4-.48l3-2.79v-.84h-2.45v1.34l-.85-.33v-.85a1.65,1.65,0,0,1,.24-1,1,1,0,0,1,.74-.22h2.21c.44,0,.73.12.84.36a3.7,3.7,0,0,1,.14,1.33,2.16,2.16,0,0,1-.12.81,2.09,2.09,0,0,1-.43.52l-2.53,2.32h2.5v-1l.79.34Z"/><path class="cls-6" d="M221.29,64.69h-4.43V58.17h4.39v1.11h-3.39v1.45h2v1.11h-2v1.62h3.43Z"/><path class="cls-6" d="M227.12,59.33h-2v5.36h-1V59.33h-2V58.17h5Z"/><path class="cls-6" d="M233.47,64.69h-1V61.88h-3.13v2.81h-1V58.17h1v2.52h3.13V58.17h1Z"/><path class="cls-6" d="M240,63.28a2,2,0,0,1-.25,1.14,1,1,0,0,1-.79.27h-2.5c-.46,0-.75-.14-.86-.41a4.79,4.79,0,0,1-.12-1.4l.88-.28v.91h2.31c.23,0,.37-.09.4-.29a5.44,5.44,0,0,0,0-.77A.87.87,0,0,0,239,62c0-.08-.16-.11-.33-.11h-1.44V60.79h1.29a.34.34,0,0,0,.38-.24,4.52,4.52,0,0,0,0-.68.89.89,0,0,0-.08-.48.38.38,0,0,0-.32-.11H236.4v.81l-.85-.24v-.41a1.58,1.58,0,0,1,.25-1,1,1,0,0,1,.74-.22h2.32c.47,0,.76.14.87.43a5,5,0,0,1,.11,1.44,1.47,1.47,0,0,1-.21.89,1.1,1.1,0,0,1-.62.35c.67.1,1,.54,1,1.32Z"/><path class="cls-6" d="M261.79,64.69h-4.43V58.17h4.39v1.11h-3.39v1.45h2v1.11h-2v1.62h3.43Z"/><path class="cls-6" d="M267.62,59.33h-2v5.36h-1V59.33h-2V58.17h4.95Z"/><path class="cls-6" d="M274,64.69h-1V61.88h-3.13v2.81h-1V58.17h1v2.52H273V58.17h1Z"/><path class="cls-6" d="M281,63.25h-1v1.51H279V63.25h-3.25V62.16L279,58.09h.94v4.07h1ZM279,62.16V59.24l-2.35,2.92Z"/><path class="cls-6" d="M301.67,64.69h-4.44V58.17h4.4v1.11h-3.4v1.45h2v1.11h-2v1.62h3.44Z"/><path class="cls-6" d="M307.5,59.33h-2v5.36h-1V59.33h-2V58.17h5Z"/><path class="cls-6" d="M313.85,64.69h-1V61.88h-3.12v2.81h-1V58.17h1v2.52h3.12V58.17h1Z"/><path class="cls-6" d="M320.68,62.59a2,2,0,0,1-.79,1.85,3,3,0,0,1-1.57.34,6.24,6.24,0,0,1-2.07-.27L316,63.25a8.92,8.92,0,0,0,2.26.34,2.35,2.35,0,0,0,.93-.13.9.9,0,0,0,.54-.93.88.88,0,0,0-.53-.9,2.4,2.4,0,0,0-.88-.11,11.89,11.89,0,0,0-2.32.26l.24-3.61H320l-.07,1.11h-3l-.1,1.26a11.73,11.73,0,0,1,1.74-.16C320,60.38,320.68,61.12,320.68,62.59Z"/><path class="cls-6" d="M488.56,4.71h-3.18V6.43h1.72V7.62h-1.72V10.1h-.95V3.57h4.13Z"/><path class="cls-6" d="M493.8,10.1h-1.07l-.49-1.43h-2.59l-.48,1.43h-.95l2.32-6.53h.91Zm-2-2.61L491,4.84l-.91,2.65Z"/><path class="cls-6" d="M499.4,8.55a2.42,2.42,0,0,1-.22,1.23.92.92,0,0,1-.8.32h-2.53a.84.84,0,0,1-.82-.36,3,3,0,0,1-.2-1.36l.84-.28v.77h2.89V7.38H496a.91.91,0,0,1-.8-.32A2.4,2.4,0,0,1,495,5.84V5.12a2.42,2.42,0,0,1,.22-1.23.91.91,0,0,1,.8-.32h2.32a.88.88,0,0,1,.8.33,2.49,2.49,0,0,1,.21,1.24l-.84.32V4.71h-2.67v1.4h2.55a.92.92,0,0,1,.8.32,2.42,2.42,0,0,1,.22,1.23Z"/><path class="cls-6" d="M505.16,4.74h-1.89V10.1h-.95V4.74h-1.88V3.57h4.72Z"/><path class="cls-6" d="M513.61,10.1h-4.22V3.57h4.18V4.69h-3.23V6.14h1.88V7.25h-1.88V8.87h3.27Z"/><path class="cls-6" d="M519.15,4.74h-1.88V10.1h-.95V4.74h-1.88V3.57h4.71Z"/><path class="cls-6" d="M525.19,10.1h-1V7.29h-3V10.1h-.95V3.57h.95V6.1h3V3.57h1Z"/><path class="cls-6" d="M531.51,10.1h-4.23V3.57h4.19V4.69h-3.23V6.14h1.88V7.25h-1.88V8.87h3.27Z"/><path class="cls-6" d="M538.11,10.1h-1.36L535.1,7.63h-.9V10.1h-.94V3.57h3.51c.61,0,.91.42.91,1.27V6.37c0,.63-.15,1-.47,1.17a3,3,0,0,1-1,.09ZM536.77,6V5.22c0-.22,0-.37-.12-.43a.43.43,0,0,0-.31-.09H534.2V6.52h2.14a.43.43,0,0,0,.31-.09A.57.57,0,0,0,536.77,6Z"/><path class="cls-6" d="M544.42,10.1h-.65l-3-4a4.79,4.79,0,0,1-.34-.53c0,.42,0,.76,0,1V10.1h-.85V3.57h.65l2.87,3.85a6.1,6.1,0,0,1,.47.7c0-.6,0-1,0-1.12V3.57h.86Z"/><path class="cls-6" d="M550.72,10.1H546.5V3.57h4.18V4.69h-3.23V6.14h1.88V7.25h-1.88V8.87h3.27Z"/><path class="cls-6" d="M556.26,4.74h-1.88V10.1h-1V4.74h-1.88V3.57h4.71Z"/><polygon class="cls-10" points="165.57 19.63 131.44 19.63 131.44 38.81 138.44 38.81 138.44 45.31 142.73 45.31 142.73 48.24 154.38 48.24 154.38 45.31 158.66 45.31 158.66 38.81 165.57 38.81 165.57 19.63"/><polygon class="cls-10" points="205.57 19.63 171.44 19.63 171.44 38.81 178.44 38.81 178.44 45.31 182.73 45.31 182.73 48.24 194.38 48.24 194.38 45.31 198.66 45.31 198.66 38.81 205.57 38.81 205.57 19.63"/><polygon class="cls-10" points="245.57 19.63 211.44 19.63 211.44 38.81 218.44 38.81 218.44 45.31 222.73 45.31 222.73 48.24 234.38 48.24 234.38 45.31 238.66 45.31 238.66 38.81 245.57 38.81 245.57 19.63"/><polygon class="cls-10" points="285.57 19.63 251.44 19.63 251.44 38.81 258.44 38.81 258.44 45.31 262.73 45.31 262.73 48.24 274.38 48.24 274.38 45.31 278.66 45.31 278.66 38.81 285.57 38.81 285.57 19.63"/><polygon class="cls-10" points="325.57 19.63 291.44 19.63 291.44 38.81 298.44 38.81 298.44 45.31 302.73 45.31 302.73 48.24 314.38 48.24 314.38 45.31 318.66 45.31 318.66 38.81 325.57 38.81 325.57 19.63"/><rect class="cls-7" x="418.35" y="13.6" width="207.5" height="37.96"/><path class="cls-6" d="M435.33,64.69h-4.44V58.17h4.39v1.11h-3.39v1.45h2v1.11h-2v1.62h3.44Z"/><path class="cls-6" d="M441.15,59.33h-2v5.36h-1V59.33h-2V58.17h4.95Z"/><path class="cls-6" d="M447.51,64.69h-1V61.88h-3.12v2.81h-1V58.17h1v2.52h3.12V58.17h1Z"/><path class="cls-6" d="M454.23,63.1q0,1.59-1.47,1.59h-1.82a1.29,1.29,0,0,1-1.09-.41,2.86,2.86,0,0,1-.32-1.6v-.86a4.11,4.11,0,0,1,1-3A3,3,0,0,1,452.7,58l.31,0,.59,1h-.28a7.06,7.06,0,0,0-1.14.08,1.94,1.94,0,0,0-1.66,1.6,8.5,8.5,0,0,1,1.9-.23,3.32,3.32,0,0,1,.84.08,1.09,1.09,0,0,1,.74.48,2.15,2.15,0,0,1,.23,1.12Zm-.91-.37v-.36c0-.37-.11-.6-.32-.7a1.72,1.72,0,0,0-.63-.08,12.79,12.79,0,0,0-1.91.15c0,.11,0,.24,0,.38a2.69,2.69,0,0,0,.14,1.11c.1.19.36.28.75.28h1.2a1,1,0,0,0,.55-.1A.8.8,0,0,0,453.32,62.73Z"/><path class="cls-6" d="M475.17,64.69h-4.44V58.17h4.4v1.11h-3.4v1.45h2v1.11h-2v1.62h3.44Z"/><path class="cls-6" d="M481,59.33h-2v5.36h-1V59.33h-2V58.17h5Z"/><path class="cls-6" d="M487.35,64.69h-1V61.88h-3.12v2.81h-1V58.17h1v2.52h3.12V58.17h1Z"/><path class="cls-6" d="M494.1,59.21l-2.25,5.59h-1.09l2.32-5.52h-2.84v1.4l-.91-.24V58.17h4.77Z"/><path class="cls-6" d="M515.12,64.69H510.8V58.17h4.28v1.11h-3.31v1.45h1.93v1.11h-1.93v1.62h3.35Z"/><path class="cls-6" d="M520.8,59.33h-1.93v5.36h-1V59.33H516V58.17h4.83Z"/><path class="cls-6" d="M527,64.69h-1V61.88h-3v2.81h-1V58.17h1v2.52h3V58.17h1Z"/><path class="cls-6" d="M533.54,63.28a1.88,1.88,0,0,1-.25,1.14.94.94,0,0,1-.77.27h-2.68a1,1,0,0,1-.77-.27,2,2,0,0,1-.24-1.14V62.6c0-.76.3-1.2.89-1.3a.93.93,0,0,1-.7-.59,4.72,4.72,0,0,1-.1-1.27,1.72,1.72,0,0,1,.23-1,1,1,0,0,1,.73-.22h2.61c.45,0,.74.14.85.43a5.67,5.67,0,0,1,.1,1.44,1.52,1.52,0,0,1-.21.89,1,1,0,0,1-.58.37c.59.1.89.54.89,1.3Zm-.89-.35v-.48a1,1,0,0,0-.08-.48.37.37,0,0,0-.32-.11h-2.14c-.15,0-.26,0-.31.11a.87.87,0,0,0-.09.48v.48a.83.83,0,0,0,.09.48.37.37,0,0,0,.31.1h2.14a.37.37,0,0,0,.31-.1A.85.85,0,0,0,532.65,62.93Zm-.09-2.73v-.33a1,1,0,0,0-.08-.48.38.38,0,0,0-.32-.11h-1.95a.4.4,0,0,0-.32.11.87.87,0,0,0-.09.48v.33a.83.83,0,0,0,.09.48.37.37,0,0,0,.32.11h1.95c.16,0,.27,0,.32-.11A1,1,0,0,0,532.56,60.2Z"/><path class="cls-6" d="M554.76,64.69h-4.43V58.17h4.39v1.11h-3.39v1.45h2v1.11h-2v1.62h3.43Z"/><path class="cls-6" d="M560.59,59.33h-2v5.36h-1V59.33h-2V58.17h5Z"/><path class="cls-6" d="M566.94,64.69h-1V61.88h-3.13v2.81h-1V58.17h1v2.52h3.13V58.17h1Z"/><path class="cls-6" d="M573.63,61a4.08,4.08,0,0,1-1,3,3,3,0,0,1-2.19.83h-.31l-.59-1h.27a4.87,4.87,0,0,0,1.62-.2,2,2,0,0,0,1.2-1.48,8.58,8.58,0,0,1-1.9.21,3.81,3.81,0,0,1-.84-.07,1.13,1.13,0,0,1-.74-.48,2.11,2.11,0,0,1-.24-1.13v-.87q0-1.59,1.47-1.59h1.81a1.3,1.3,0,0,1,1.11.41,2.94,2.94,0,0,1,.31,1.6Zm-.91-.32a2.81,2.81,0,0,0-.15-1.17c-.1-.17-.35-.26-.75-.26h-1.19a1.07,1.07,0,0,0-.56.11.86.86,0,0,0-.23.7v.36a.76.76,0,0,0,.32.74,1.78,1.78,0,0,0,.64.07,12.67,12.67,0,0,0,1.9-.16C572.71,61,572.72,60.82,572.72,60.71Z"/><path class="cls-6" d="M591.64,64.69H587.2V58.17h4.4v1.11h-3.4v1.45h2v1.11h-2v1.62h3.44Z"/><path class="cls-6" d="M597.47,59.33h-2v5.36h-1V59.33h-2V58.17h5Z"/><path class="cls-6" d="M603.82,64.69h-1V61.88h-3.12v2.81h-1V58.17h1v2.52h3.12V58.17h1Z"/><path class="cls-6" d="M608.77,64.69h-.91V59.4H607v-.87l1.82-.41Z"/><path class="cls-6" d="M617,63.15a2.43,2.43,0,0,1-.21,1.21.83.83,0,0,1-.78.33h-2.9a.84.84,0,0,1-.78-.33,2.46,2.46,0,0,1-.2-1.21V59.71a2.5,2.5,0,0,1,.2-1.22.86.86,0,0,1,.78-.32H616a.85.85,0,0,1,.78.32,2.48,2.48,0,0,1,.21,1.22Zm-.9.36V59.28H613v4.23Z"/><polygon class="cls-10" points="459.54 19.63 425.41 19.63 425.41 38.81 432.42 38.81 432.42 45.31 436.7 45.31 436.7 48.24 448.35 48.24 448.35 45.31 452.63 45.31 452.63 38.81 459.54 38.81 459.54 19.63"/><polygon class="cls-10" points="499.54 19.63 465.41 19.63 465.41 38.81 472.42 38.81 472.42 45.31 476.7 45.31 476.7 48.24 488.35 48.24 488.35 45.31 492.63 45.31 492.63 38.81 499.54 38.81 499.54 19.63"/><polygon class="cls-10" points="539.54 19.63 505.41 19.63 505.41 38.81 512.41 38.81 512.41 45.31 516.7 45.31 516.7 48.24 528.35 48.24 528.35 45.31 532.63 45.31 532.63 38.81 539.54 38.81 539.54 19.63"/><polygon class="cls-10" points="579.54 19.63 545.41 19.63 545.41 38.81 552.41 38.81 552.41 45.31 556.7 45.31 556.7 48.24 568.35 48.24 568.35 45.31 572.63 45.31 572.63 38.81 579.54 38.81 579.54 19.63"/><polygon class="cls-10" points="619.54 19.63 585.41 19.63 585.41 38.81 592.41 38.81 592.41 45.31 596.7 45.31 596.7 48.24 608.35 48.24 608.35 45.31 612.63 45.31 612.63 38.81 619.54 38.81 619.54 19.63"/><path class="cls-6" d="M347.81,22.51h-1.3v-5h-1.32v-.83l2.62-.39Z"/><path class="cls-6" d="M363.48,21.29a1.15,1.15,0,0,1-.35,1,1.88,1.88,0,0,1-1.06.22h-5.21v-.57a1.07,1.07,0,0,1,.2-.67,2.25,2.25,0,0,1,.58-.46l4.28-2.64v-.8h-3.53v1.27l-1.22-.31v-.8a1.18,1.18,0,0,1,.35-1,1.91,1.91,0,0,1,1.07-.22h3.18c.64,0,1,.12,1.21.35a2.57,2.57,0,0,1,.2,1.26,1.37,1.37,0,0,1-.18.77,2,2,0,0,1-.62.49l-3.64,2.21h3.6v-.91l1.14.32Z"/><path class="cls-6" d="M377.18,21.17a1.35,1.35,0,0,1-.36,1.08,1.87,1.87,0,0,1-1.14.26h-3.6q-1,0-1.23-.39a3,3,0,0,1-.18-1.33l1.27-.26v.86h3.34c.32,0,.52-.09.57-.28a4.08,4.08,0,0,0,0-.73.6.6,0,0,0-.13-.45.69.69,0,0,0-.47-.11h-2.09v-1h1.86c.3,0,.49-.08.55-.23a3.18,3.18,0,0,0,0-.65.61.61,0,0,0-.12-.45.75.75,0,0,0-.47-.11H372v.77l-1.23-.23v-.38a1.18,1.18,0,0,1,.35-1,1.91,1.91,0,0,1,1.07-.22h3.35c.67,0,1.09.14,1.26.41a3.64,3.64,0,0,1,.15,1.37,1,1,0,0,1-.31.85,1.84,1.84,0,0,1-.89.33q1.44.14,1.44,1.26Z"/><path class="cls-6" d="M393.12,21.14h-1.5v1.44h-1.31V21.14h-4.69v-1l4.64-3.87h1.36v3.87h1.5Zm-2.81-1V17.33l-3.39,2.78Z"/><path class="cls-6" d="M406.83,20.51a1.76,1.76,0,0,1-1.14,1.76,6.25,6.25,0,0,1-2.27.32,13.51,13.51,0,0,1-3-.25l-.32-1.2a19.07,19.07,0,0,0,3.27.32,5.23,5.23,0,0,0,1.33-.12.89.89,0,0,0,.78-.89c0-.42-.25-.7-.76-.85a5.45,5.45,0,0,0-1.27-.11,26.28,26.28,0,0,0-3.35.26l.35-3.44h5.35l-.1,1.06H401.4l-.15,1.2c1-.1,1.86-.16,2.51-.16C405.81,18.41,406.83,19.11,406.83,20.51Z"/><path class="cls-6" d="M349.86,59.33c0,1-.67,1.51-2,1.51h-2.45a2.14,2.14,0,0,1-1.48-.39,2.06,2.06,0,0,1-.43-1.52v-.81a3.26,3.26,0,0,1,1.3-2.83,5.06,5.06,0,0,1,3-.8l.41,0,.8,1h-.37a12.85,12.85,0,0,0-1.55.08,2.42,2.42,0,0,0-2.24,1.52,15.36,15.36,0,0,1,2.56-.22,7.05,7.05,0,0,1,1.14.07,1.65,1.65,0,0,1,1,.46,1.55,1.55,0,0,1,.32,1.07ZM348.62,59v-.34a.63.63,0,0,0-.43-.67,3.15,3.15,0,0,0-.85-.07c-.83,0-1.68.05-2.58.14,0,.11,0,.23,0,.36a2,2,0,0,0,.18,1.06c.14.17.48.26,1,.26h1.62a2.11,2.11,0,0,0,.74-.09A.68.68,0,0,0,348.62,59Z"/><path class="cls-6" d="M363.64,55.64,360.4,61h-1.57l3.33-5.25h-4.09V57l-1.31-.22V54.65h6.88Z"/><path class="cls-6" d="M377.54,59.51a1.38,1.38,0,0,1-.35,1.08,1.78,1.78,0,0,1-1.08.25h-3.75a1.78,1.78,0,0,1-1.08-.25,1.38,1.38,0,0,1-.34-1.08v-.65c0-.73.42-1.14,1.25-1.24a1.28,1.28,0,0,1-1-.56,3.25,3.25,0,0,1-.14-1.2,1.21,1.21,0,0,1,.33-1,1.76,1.76,0,0,1,1-.21h3.66c.64,0,1,.13,1.2.4a3.67,3.67,0,0,1,.15,1.37,1.08,1.08,0,0,1-.3.85,1.61,1.61,0,0,1-.82.35c.84.1,1.25.51,1.25,1.24Zm-1.25-.34v-.46a.66.66,0,0,0-.11-.45.69.69,0,0,0-.44-.11h-3a.44.44,0,0,0-.55.56v.46a.68.68,0,0,0,.11.46.76.76,0,0,0,.44.09h3a.66.66,0,0,0,.43-.1A.61.61,0,0,0,376.29,59.17Zm-.12-2.59v-.31a.62.62,0,0,0-.12-.46.65.65,0,0,0-.44-.11h-2.74a.7.7,0,0,0-.45.11.62.62,0,0,0-.12.46v.31a.61.61,0,0,0,.12.45.64.64,0,0,0,.45.11h2.74a.6.6,0,0,0,.44-.11A.61.61,0,0,0,376.17,56.58Z"/><path class="cls-6" d="M391.46,57.37a3.29,3.29,0,0,1-1.24,2.82,4.55,4.55,0,0,1-2.81.79H387l-.76-1h.36a8,8,0,0,0,2.07-.19,2.08,2.08,0,0,0,1.52-1.4,14.94,14.94,0,0,1-2.43.2,6.37,6.37,0,0,1-1.07-.07,1.45,1.45,0,0,1-.94-.46,1.58,1.58,0,0,1-.3-1.06v-.83c0-1,.62-1.51,1.87-1.51h2.32a2,2,0,0,1,1.4.39,2.14,2.14,0,0,1,.4,1.51Zm-1.16-.31a2,2,0,0,0-.19-1.11c-.12-.17-.44-.25-.95-.25h-1.52a1.73,1.73,0,0,0-.72.11.7.7,0,0,0-.29.66v.35a.65.65,0,0,0,.4.69,2.77,2.77,0,0,0,.82.08,22.73,22.73,0,0,0,2.42-.16A2.73,2.73,0,0,0,390.3,57.06Z"/><path class="cls-6" d="M399.18,60.84h-1v-5h-1V55l2-.39Z"/><path class="cls-6" d="M408.1,59.37a2.24,2.24,0,0,1-.22,1.16,1,1,0,0,1-.85.31h-3.14a.94.94,0,0,1-.84-.31,2.12,2.12,0,0,1-.23-1.16V56.11a2.08,2.08,0,0,1,.23-1.15.94.94,0,0,1,.84-.31H407a1,1,0,0,1,.85.31,2.2,2.2,0,0,1,.22,1.15Zm-1,.35v-4H403.8v4Z"/><polygon class="cls-6" points="423.63 64.26 337.44 64.26 337.44 57.76 338.44 57.76 338.44 63.26 423.63 63.26 423.63 64.26"/><polygon class="cls-6" points="412.5 15.24 411.5 15.24 411.5 9.74 326.32 9.74 326.32 8.74 412.5 8.74 412.5 15.24"/><rect class="cls-11" x="583.38" y="9.1" width="38.58" height="4.5"/><rect class="cls-11" x="583.38" y="51.56" width="38.58" height="3.2"/><path id="path2821" class="cls-11" d="M604.63,1.31a.34.34,0,0,0-.47-.05l-1,.83-.51-.64a.11.11,0,0,0-.16,0l-1,.79A2.28,2.28,0,0,0,600.8,5l-1.65,1.32a.49.49,0,0,0,.61.77l1.66-1.31a2.26,2.26,0,0,0,2.84,0l1-.79a.11.11,0,0,0,0-.16l-.51-.65,1.05-.83a.33.33,0,0,0-.41-.52l-1,.84-.84-1.06,1.05-.83a.34.34,0,0,0,.06-.47Z"/><rect class="cls-12" x="136.76" y="19.63" width="1.32" height="7.2"/><rect class="cls-13" x="139.92" y="19.63" width="1.32" height="7.2"/><rect class="cls-14" x="143.09" y="19.63" width="1.32" height="7.2"/><rect class="cls-15" x="146.26" y="19.63" width="1.32" height="7.2"/><rect class="cls-16" x="149.43" y="19.63" width="1.32" height="7.2"/><rect class="cls-17" x="152.6" y="19.63" width="1.32" height="7.2"/><rect class="cls-18" x="155.77" y="19.63" width="1.32" height="7.2"/><rect class="cls-19" x="158.94" y="19.63" width="1.32" height="7.2"/><rect class="cls-20" x="176.76" y="19.63" width="1.32" height="7.2"/><rect class="cls-21" x="179.92" y="19.63" width="1.32" height="7.2"/><rect class="cls-22" x="183.09" y="19.63" width="1.32" height="7.2"/><rect class="cls-23" x="186.26" y="19.63" width="1.32" height="7.2"/><rect class="cls-24" x="189.43" y="19.63" width="1.32" height="7.2"/><rect class="cls-25" x="192.6" y="19.63" width="1.32" height="7.2"/><rect class="cls-26" x="195.77" y="19.63" width="1.32" height="7.2"/><rect class="cls-27" x="198.94" y="19.63" width="1.32" height="7.2"/><rect class="cls-28" x="216.38" y="19.63" width="1.32" height="7.2"/><rect class="cls-29" x="219.55" y="19.63" width="1.32" height="7.2"/><rect class="cls-30" x="222.72" y="19.63" width="1.32" height="7.2"/><rect class="cls-31" x="225.89" y="19.63" width="1.32" height="7.2"/><rect class="cls-32" x="229.06" y="19.63" width="1.32" height="7.2"/><rect class="cls-33" x="232.23" y="19.63" width="1.32" height="7.2"/><rect class="cls-34" x="235.4" y="19.63" width="1.32" height="7.2"/><rect class="cls-35" x="238.57" y="19.63" width="1.32" height="7.2"/><rect class="cls-36" x="256.76" y="19.63" width="1.32" height="7.2"/><rect class="cls-37" x="259.92" y="19.63" width="1.32" height="7.2"/><rect class="cls-38" x="263.09" y="19.63" width="1.32" height="7.2"/><rect class="cls-39" x="266.26" y="19.63" width="1.32" height="7.2"/><rect class="cls-40" x="269.43" y="19.63" width="1.32" height="7.2"/><rect class="cls-41" x="272.6" y="19.63" width="1.32" height="7.2"/><rect class="cls-42" x="275.77" y="19.63" width="1.32" height="7.2"/><rect class="cls-43" x="278.94" y="19.63" width="1.32" height="7.2"/><rect class="cls-44" x="296.76" y="19.63" width="1.32" height="7.2"/><rect class="cls-45" x="299.92" y="19.63" width="1.32" height="7.2"/><rect class="cls-46" x="303.09" y="19.63" width="1.32" height="7.2"/><rect class="cls-47" x="306.26" y="19.63" width="1.32" height="7.2"/><rect class="cls-48" x="309.43" y="19.63" width="1.32" height="7.2"/><rect class="cls-49" x="312.6" y="19.63" width="1.32" height="7.2"/><rect class="cls-50" x="315.77" y="19.63" width="1.32" height="7.2"/><rect class="cls-51" x="318.94" y="19.63" width="1.32" height="7.2"/><rect class="cls-52" x="430.73" y="19.63" width="1.32" height="7.2"/><rect class="cls-53" x="433.89" y="19.63" width="1.32" height="7.2"/><rect class="cls-54" x="437.06" y="19.63" width="1.32" height="7.2"/><rect class="cls-55" x="440.23" y="19.63" width="1.32" height="7.2"/><rect class="cls-56" x="443.4" y="19.63" width="1.32" height="7.2"/><rect class="cls-57" x="446.57" y="19.63" width="1.32" height="7.2"/><rect class="cls-58" x="449.74" y="19.63" width="1.32" height="7.2"/><rect class="cls-59" x="452.91" y="19.63" width="1.32" height="7.2"/><rect class="cls-60" x="470.73" y="19.63" width="1.32" height="7.2"/><rect class="cls-61" x="473.89" y="19.63" width="1.32" height="7.2"/><rect class="cls-62" x="477.06" y="19.63" width="1.32" height="7.2"/><rect class="cls-63" x="480.23" y="19.63" width="1.32" height="7.2"/><rect class="cls-64" x="483.4" y="19.63" width="1.32" height="7.2"/><rect class="cls-65" x="486.57" y="19.63" width="1.32" height="7.2"/><rect class="cls-66" x="489.74" y="19.63" width="1.32" height="7.2"/><rect class="cls-67" x="492.91" y="19.63" width="1.32" height="7.2"/><rect class="cls-68" x="510.35" y="19.63" width="1.32" height="7.2"/><rect class="cls-69" x="513.52" y="19.63" width="1.32" height="7.2"/><rect class="cls-70" x="516.69" y="19.63" width="1.32" height="7.2"/><rect class="cls-71" x="519.86" y="19.63" width="1.32" height="7.2"/><rect class="cls-72" x="523.03" y="19.63" width="1.32" height="7.2"/><rect class="cls-73" x="526.2" y="19.63" width="1.32" height="7.2"/><rect class="cls-74" x="529.37" y="19.63" width="1.32" height="7.2"/><rect class="cls-75" x="532.54" y="19.63" width="1.32" height="7.2"/><rect class="cls-76" x="550.73" y="19.63" width="1.32" height="7.2"/><rect class="cls-77" x="553.89" y="19.63" width="1.32" height="7.2"/><rect class="cls-78" x="557.06" y="19.63" width="1.32" height="7.2"/><rect class="cls-79" x="560.23" y="19.63" width="1.32" height="7.2"/><rect class="cls-80" x="563.4" y="19.63" width="1.32" height="7.2"/><rect class="cls-81" x="566.57" y="19.63" width="1.32" height="7.2"/><rect class="cls-82" x="569.74" y="19.63" width="1.32" height="7.2"/><rect class="cls-83" x="572.91" y="19.63" width="1.32" height="7.2"/><rect class="cls-84" x="590.73" y="19.63" width="1.32" height="7.2"/><rect class="cls-85" x="593.89" y="19.63" width="1.32" height="7.2"/><rect class="cls-86" x="597.06" y="19.63" width="1.32" height="7.2"/><rect class="cls-87" x="600.23" y="19.63" width="1.32" height="7.2"/><rect class="cls-88" x="603.4" y="19.63" width="1.32" height="7.2"/><rect class="cls-89" x="606.57" y="19.63" width="1.32" height="7.2"/><rect class="cls-90" x="609.74" y="19.63" width="1.32" height="7.2"/><rect class="cls-91" x="612.91" y="19.63" width="1.32" height="7.2"/><rect class="cls-10" x="71.11" y="23.31" width="41.99" height="29.25"/><circle class="cls-92" cx="347.1" cy="30.3" r="4.18"/><circle class="cls-93" cx="361.33" cy="30.3" r="4.18"/><circle class="cls-94" cx="375.56" cy="30.3" r="4.18"/><circle class="cls-95" cx="389.79" cy="30.3" r="4.18"/><circle class="cls-96" cx="403.9" cy="30.3" r="4.18"/><circle class="cls-97" cx="347.05" cy="44.89" r="4.18"/><circle class="cls-98" cx="361.16" cy="44.89" r="4.18"/><circle class="cls-99" cx="375.72" cy="44.89" r="4.18"/><circle class="cls-100" cx="389.44" cy="44.89" r="4.18"/><circle class="cls-101" cx="403.9" cy="44.89" r="4.18"/><path class="cls-102" d="M112.51,51.7H71.7V23.93h40.81Zm-39.81-1h38.81V24.93H72.7Z"/><rect class="cls-10" x="84.31" y="49.68" width="15.59" height="2.25"/><rect class="cls-102" x="85.5" y="49.46" width="13.2" height="1.8"/></svg>