<svg id="Camada_1" data-name="Camada 1" xmlns="http://www.w3.org/2000/svg" xmlns:xlink="http://www.w3.org/1999/xlink" viewBox="0 0 1368 125.19"><defs><style>.cls-1{fill:#d4d4d4;}.cls-2{fill:url(#Gradiente_sem_nome_185);}.cls-3{fill:url(#Gradiente_sem_nome_46);}.cls-4{fill:#1a1a1a;}.cls-5{fill:#424143;}.cls-6{fill:#fff;}.cls-7{fill:gray;}.cls-8{fill:url(#Gradiente_sem_nome_10);}.cls-9{fill:#666;}.cls-10{fill:url(#Gradiente_sem_nome_46-2);}.cls-11{fill:url(#Gradiente_sem_nome_46-3);}.cls-12{fill:url(#Gradiente_sem_nome_46-4);}.cls-13{fill:url(#Gradiente_sem_nome_46-5);}.cls-14{fill:url(#Gradiente_sem_nome_46-6);}.cls-15{fill:url(#Gradiente_sem_nome_46-7);}.cls-16{fill:url(#Gradiente_sem_nome_46-8);}.cls-17{fill:url(#Gradiente_sem_nome_46-9);}.cls-18{fill:url(#Gradiente_sem_nome_46-10);}.cls-19{fill:url(#Gradiente_sem_nome_46-11);}.cls-20{fill:url(#Gradiente_sem_nome_46-12);}.cls-21{fill:url(#Gradiente_sem_nome_46-13);}.cls-22{fill:url(#Gradiente_sem_nome_46-14);}.cls-23{fill:url(#Gradiente_sem_nome_46-15);}.cls-24{fill:#a8a7ad;}.cls-25{fill:#f1f1f2;}.cls-26{fill:#c7c7c9;}.cls-27{fill:#bcbdc3;}.cls-28{fill:url(#Gradiente_sem_nome_150);}.cls-29{fill:url(#Gradiente_sem_nome_150-2);}.cls-30{fill:url(#Gradiente_sem_nome_150-3);}.cls-31{fill:url(#Gradiente_sem_nome_150-4);}.cls-32{fill:url(#Gradiente_sem_nome_150-5);}.cls-33{fill:url(#Gradiente_sem_nome_150-6);}.cls-34{fill:url(#Gradiente_sem_nome_150-7);}.cls-35{fill:url(#Gradiente_sem_nome_150-8);}.cls-36{fill:url(#Gradiente_sem_nome_150-9);}.cls-37{fill:url(#Gradiente_sem_nome_150-10);}.cls-38{fill:url(#Gradiente_sem_nome_150-11);}.cls-39{fill:url(#Gradiente_sem_nome_150-12);}.cls-40{fill:url(#Gradiente_sem_nome_150-13);}.cls-41{fill:url(#Gradiente_sem_nome_150-14);}.cls-42{fill:url(#Gradiente_sem_nome_150-15);}.cls-43{fill:url(#Gradiente_sem_nome_150-16);}.cls-44{fill:url(#Gradiente_sem_nome_150-17);}.cls-45{fill:url(#Gradiente_sem_nome_150-18);}.cls-46{fill:url(#Gradiente_sem_nome_150-19);}.cls-47{fill:url(#Gradiente_sem_nome_150-20);}.cls-48{fill:url(#Gradiente_sem_nome_150-21);}.cls-49{fill:url(#Gradiente_sem_nome_150-22);}.cls-50{fill:url(#Gradiente_sem_nome_150-23);}.cls-51{fill:url(#Gradiente_sem_nome_150-24);}.cls-52{fill:url(#Gradiente_sem_nome_150-25);}.cls-53{fill:url(#Gradiente_sem_nome_150-26);}.cls-54{fill:url(#Gradiente_sem_nome_150-27);}.cls-55{fill:url(#Gradiente_sem_nome_150-28);}.cls-56{fill:url(#Gradiente_sem_nome_150-29);}.cls-57{fill:url(#Gradiente_sem_nome_150-30);}.cls-58{fill:url(#Gradiente_sem_nome_150-31);}.cls-59{fill:url(#Gradiente_sem_nome_150-32);}.cls-60{fill:url(#Gradiente_sem_nome_150-33);}.cls-61{fill:url(#Gradiente_sem_nome_150-34);}.cls-62{fill:url(#Gradiente_sem_nome_150-35);}.cls-63{fill:url(#Gradiente_sem_nome_150-36);}.cls-64{fill:url(#Gradiente_sem_nome_150-37);}.cls-65{fill:url(#Gradiente_sem_nome_150-38);}.cls-66{fill:url(#Gradiente_sem_nome_150-39);}.cls-67{fill:url(#Gradiente_sem_nome_150-40);}.cls-68{fill:url(#Gradiente_sem_nome_150-41);}.cls-69{fill:url(#Gradiente_sem_nome_150-42);}.cls-70{fill:url(#Gradiente_sem_nome_150-43);}.cls-71{fill:url(#Gradiente_sem_nome_150-44);}.cls-72{fill:url(#Gradiente_sem_nome_150-45);}.cls-73{fill:url(#Gradiente_sem_nome_150-46);}.cls-74{fill:url(#Gradiente_sem_nome_150-47);}.cls-75{fill:url(#Gradiente_sem_nome_150-48);}.cls-76{fill:url(#Gradiente_sem_nome_150-49);}.cls-77{fill:url(#Gradiente_sem_nome_150-50);}.cls-78{fill:url(#Gradiente_sem_nome_150-51);}.cls-79{fill:url(#Gradiente_sem_nome_150-52);}.cls-80{fill:url(#Gradiente_sem_nome_150-53);}.cls-81{fill:#333;}.cls-82{fill:#ff0;}.cls-83{fill:#c9c9c9;}</style><radialGradient id="Gradiente_sem_nome_185" cx="890.1" cy="97.75" r="4.81" gradientUnits="userSpaceOnUse"><stop offset="0" stop-color="aqua"/><stop offset="1" stop-color="#0070ff"/></radialGradient><radialGradient id="Gradiente_sem_nome_46" cx="890.1" cy="82.74" r="4.81" gradientUnits="userSpaceOnUse"><stop offset="0.46" stop-color="lime"/><stop offset="1" stop-color="#00c500"/></radialGradient><linearGradient id="Gradiente_sem_nome_10" x1="972.56" y1="113.28" x2="1070.01" y2="15.83" gradientTransform="translate(2042.58 129.11) rotate(-180)" gradientUnits="userSpaceOnUse"><stop offset="0" stop-color="#727176"/><stop offset="1" stop-color="#949398"/></linearGradient><radialGradient id="Gradiente_sem_nome_46-2" cx="167.35" cy="97.8" r="4.75" xlink:href="#Gradiente_sem_nome_46"/><radialGradient id="Gradiente_sem_nome_46-3" cx="167.35" cy="82.92" r="4.75" xlink:href="#Gradiente_sem_nome_46"/><radialGradient id="Gradiente_sem_nome_46-4" cx="216.52" cy="65.86" r="4.58" xlink:href="#Gradiente_sem_nome_46"/><radialGradient id="Gradiente_sem_nome_46-5" cx="257.18" cy="65.86" r="4.58" xlink:href="#Gradiente_sem_nome_46"/><radialGradient id="Gradiente_sem_nome_46-6" cx="297.73" cy="65.86" r="4.58" xlink:href="#Gradiente_sem_nome_46"/><radialGradient id="Gradiente_sem_nome_46-7" cx="338.1" cy="65.86" r="4.58" xlink:href="#Gradiente_sem_nome_46"/><radialGradient id="Gradiente_sem_nome_46-8" cx="409.52" cy="65.86" r="4.58" xlink:href="#Gradiente_sem_nome_46"/><radialGradient id="Gradiente_sem_nome_46-9" cx="450.18" cy="65.86" r="4.58" xlink:href="#Gradiente_sem_nome_46"/><radialGradient id="Gradiente_sem_nome_46-10" cx="490.73" cy="65.86" r="4.58" xlink:href="#Gradiente_sem_nome_46"/><radialGradient id="Gradiente_sem_nome_46-11" cx="531.1" cy="65.86" r="4.58" xlink:href="#Gradiente_sem_nome_46"/><radialGradient id="Gradiente_sem_nome_46-12" cx="603.1" cy="65.86" r="4.58" xlink:href="#Gradiente_sem_nome_46"/><radialGradient id="Gradiente_sem_nome_46-13" cx="643.77" cy="65.86" r="4.58" xlink:href="#Gradiente_sem_nome_46"/><radialGradient id="Gradiente_sem_nome_46-14" cx="684.31" cy="65.86" r="4.58" xlink:href="#Gradiente_sem_nome_46"/><radialGradient id="Gradiente_sem_nome_46-15" cx="724.69" cy="65.86" r="4.58" xlink:href="#Gradiente_sem_nome_46"/><linearGradient id="Gradiente_sem_nome_150" x1="374.31" y1="34.11" x2="396.19" y2="34.11" gradientUnits="userSpaceOnUse"><stop offset="0" stop-color="#e3e3e3"/><stop offset="1" stop-color="#c7c7c9"/></linearGradient><linearGradient id="Gradiente_sem_nome_150-2" x1="567.04" y1="34.31" x2="589.37" y2="34.31" xlink:href="#Gradiente_sem_nome_150"/><linearGradient id="Gradiente_sem_nome_150-3" x1="337.18" y1="34.45" x2="359" y2="34.45" xlink:href="#Gradiente_sem_nome_150"/><linearGradient id="Gradiente_sem_nome_150-4" x1="515.35" y1="34.38" x2="536.85" y2="34.38" xlink:href="#Gradiente_sem_nome_150"/><linearGradient id="Gradiente_sem_nome_150-5" x1="477.1" y1="34.47" x2="498.18" y2="34.47" xlink:href="#Gradiente_sem_nome_150"/><linearGradient id="Gradiente_sem_nome_150-6" x1="400.33" y1="34.45" x2="421.4" y2="34.45" xlink:href="#Gradiente_sem_nome_150"/><linearGradient id="Gradiente_sem_nome_150-7" x1="286.15" y1="34.34" x2="307.48" y2="34.34" xlink:href="#Gradiente_sem_nome_150"/><linearGradient id="Gradiente_sem_nome_150-8" x1="438.64" y1="34.37" x2="460.05" y2="34.37" xlink:href="#Gradiente_sem_nome_150"/><linearGradient id="Gradiente_sem_nome_150-9" x1="670.16" y1="34.32" x2="691.64" y2="34.32" xlink:href="#Gradiente_sem_nome_150"/><linearGradient id="Gradiente_sem_nome_150-10" x1="631.84" y1="34.3" x2="653.28" y2="34.3" xlink:href="#Gradiente_sem_nome_150"/><linearGradient id="Gradiente_sem_nome_150-11" x1="580.76" y1="34.17" x2="602.09" y2="34.17" xlink:href="#Gradiente_sem_nome_150"/><linearGradient id="Gradiente_sem_nome_150-12" x1="644.72" y1="34.31" x2="666.09" y2="34.31" xlink:href="#Gradiente_sem_nome_150"/><linearGradient id="Gradiente_sem_nome_150-13" x1="324.75" y1="34.58" x2="345.43" y2="34.58" xlink:href="#Gradiente_sem_nome_150"/><linearGradient id="Gradiente_sem_nome_150-14" x1="683.08" y1="34.35" x2="704.44" y2="34.35" xlink:href="#Gradiente_sem_nome_150"/><linearGradient id="Gradiente_sem_nome_150-15" x1="619.17" y1="34.3" x2="640.5" y2="34.3" xlink:href="#Gradiente_sem_nome_150"/><linearGradient id="Gradiente_sem_nome_150-16" x1="273.35" y1="34.3" x2="294.77" y2="34.3" xlink:href="#Gradiente_sem_nome_150"/><linearGradient id="Gradiente_sem_nome_150-17" x1="490.02" y1="34.43" x2="510.93" y2="34.43" xlink:href="#Gradiente_sem_nome_150"/><linearGradient id="Gradiente_sem_nome_150-18" x1="247.77" y1="34.31" x2="268.84" y2="34.31" xlink:href="#Gradiente_sem_nome_150"/><linearGradient id="Gradiente_sem_nome_150-19" x1="708.58" y1="34.36" x2="729.96" y2="34.36" xlink:href="#Gradiente_sem_nome_150"/><linearGradient id="Gradiente_sem_nome_150-20" x1="528.19" y1="34.34" x2="549.66" y2="34.34" xlink:href="#Gradiente_sem_nome_150"/><linearGradient id="Gradiente_sem_nome_150-21" x1="606.36" y1="34.31" x2="627.75" y2="34.31" xlink:href="#Gradiente_sem_nome_150"/><linearGradient id="Gradiente_sem_nome_150-22" x1="298.87" y1="34.36" x2="320.36" y2="34.36" xlink:href="#Gradiente_sem_nome_150"/><linearGradient id="Gradiente_sem_nome_150-23" x1="209.59" y1="34.5" x2="230.29" y2="34.5" xlink:href="#Gradiente_sem_nome_150"/><linearGradient id="Gradiente_sem_nome_150-24" x1="657.6" y1="34.45" x2="678.9" y2="34.45" xlink:href="#Gradiente_sem_nome_150"/><linearGradient id="Gradiente_sem_nome_150-25" x1="593.45" y1="34.29" x2="614.68" y2="34.29" xlink:href="#Gradiente_sem_nome_150"/><linearGradient id="Gradiente_sem_nome_150-26" x1="695.9" y1="34.33" x2="717.24" y2="34.33" xlink:href="#Gradiente_sem_nome_150"/><linearGradient id="Gradiente_sem_nome_150-27" x1="413.26" y1="34.22" x2="434.52" y2="34.22" xlink:href="#Gradiente_sem_nome_150"/><linearGradient id="Gradiente_sem_nome_150-28" x1="502.67" y1="34.18" x2="524.11" y2="34.18" xlink:href="#Gradiente_sem_nome_150"/><linearGradient id="Gradiente_sem_nome_150-29" x1="451.57" y1="34.28" x2="472.92" y2="34.28" xlink:href="#Gradiente_sem_nome_150"/><linearGradient id="Gradiente_sem_nome_150-30" x1="464.47" y1="34.41" x2="485.72" y2="34.41" xlink:href="#Gradiente_sem_nome_150"/><linearGradient id="Gradiente_sem_nome_150-31" x1="311.59" y1="34.49" x2="333.13" y2="34.49" xlink:href="#Gradiente_sem_nome_150"/><linearGradient id="Gradiente_sem_nome_150-32" x1="387.64" y1="34.24" x2="408.62" y2="34.24" xlink:href="#Gradiente_sem_nome_150"/><linearGradient id="Gradiente_sem_nome_150-33" x1="196.66" y1="34.21" x2="217.9" y2="34.21" xlink:href="#Gradiente_sem_nome_150"/><linearGradient id="Gradiente_sem_nome_150-34" x1="426.11" y1="34.2" x2="447.36" y2="34.2" xlink:href="#Gradiente_sem_nome_150"/><linearGradient id="Gradiente_sem_nome_150-35" x1="260.52" y1="34.35" x2="281.54" y2="34.35" xlink:href="#Gradiente_sem_nome_150"/><linearGradient id="Gradiente_sem_nome_150-36" x1="234.99" y1="34.23" x2="256.44" y2="34.23" xlink:href="#Gradiente_sem_nome_150"/><linearGradient id="Gradiente_sem_nome_150-37" x1="222.36" y1="34.41" x2="243.04" y2="34.41" xlink:href="#Gradiente_sem_nome_150"/><linearGradient id="Gradiente_sem_nome_150-38" x1="184.61" y1="34.28" x2="205.13" y2="34.28" xlink:href="#Gradiente_sem_nome_150"/><linearGradient id="Gradiente_sem_nome_150-39" x1="721.68" y1="34.44" x2="742.38" y2="34.44" xlink:href="#Gradiente_sem_nome_150"/><linearGradient id="Gradiente_sem_nome_150-40" x1="738.98" y1="27.7" x2="755.43" y2="27.7" xlink:href="#Gradiente_sem_nome_150"/><linearGradient id="Gradiente_sem_nome_150-41" x1="170.81" y1="41.62" x2="186.52" y2="41.62" xlink:href="#Gradiente_sem_nome_150"/><linearGradient id="Gradiente_sem_nome_150-42" x1="755.3" y1="23.15" x2="768.15" y2="23.15" xlink:href="#Gradiente_sem_nome_150"/><linearGradient id="Gradiente_sem_nome_150-43" x1="793.9" y1="22.91" x2="806.59" y2="22.91" xlink:href="#Gradiente_sem_nome_150"/><linearGradient id="Gradiente_sem_nome_150-44" x1="768.33" y1="22.88" x2="780.97" y2="22.88" xlink:href="#Gradiente_sem_nome_150"/><linearGradient id="Gradiente_sem_nome_150-45" x1="806.59" y1="22.91" x2="819.26" y2="22.91" xlink:href="#Gradiente_sem_nome_150"/><linearGradient id="Gradiente_sem_nome_150-46" x1="781.2" y1="23.04" x2="793.73" y2="23.04" xlink:href="#Gradiente_sem_nome_150"/><linearGradient id="Gradiente_sem_nome_150-47" x1="146.59" y1="46.04" x2="158.2" y2="46.04" xlink:href="#Gradiente_sem_nome_150"/><linearGradient id="Gradiente_sem_nome_150-48" x1="158.19" y1="45.84" x2="171.13" y2="45.84" xlink:href="#Gradiente_sem_nome_150"/><linearGradient id="Gradiente_sem_nome_150-49" x1="107.16" y1="46.13" x2="119.74" y2="46.13" xlink:href="#Gradiente_sem_nome_150"/><linearGradient id="Gradiente_sem_nome_150-50" x1="119.97" y1="46.09" x2="132.54" y2="46.09" xlink:href="#Gradiente_sem_nome_150"/><linearGradient id="Gradiente_sem_nome_150-51" x1="132.79" y1="46.18" x2="145.45" y2="46.18" xlink:href="#Gradiente_sem_nome_150"/><linearGradient id="Gradiente_sem_nome_150-52" x1="819.52" y1="22.82" x2="830.32" y2="22.82" xlink:href="#Gradiente_sem_nome_150"/><linearGradient id="Gradiente_sem_nome_150-53" x1="96.58" y1="46.19" x2="106.37" y2="46.19" xlink:href="#Gradiente_sem_nome_150"/></defs><path class="cls-1" d="M0,0V125.19H1368V0ZM36.45,117.31H19a8.13,8.13,0,1,1,0-16.25H36.45a8.13,8.13,0,0,1,0,16.25Zm0-91.94H19A8.13,8.13,0,1,1,19,9.12H36.45a8.13,8.13,0,0,1,0,16.25Zm1313.77,91.94H1332.8a8.13,8.13,0,1,1,0-16.25h17.42a8.13,8.13,0,0,1,0,16.25Zm0-91.94H1332.8a8.13,8.13,0,1,1,0-16.25h17.42a8.13,8.13,0,0,1,0,16.25Z"/><path d="M761.68,104.73a4.65,4.65,0,0,1-4.84-4.82,5,5,0,0,1,4.87-4.75,5,5,0,0,1,4.79,4.93A4.52,4.52,0,0,1,761.68,104.73Z"/><circle class="cls-2" cx="890.1" cy="97.75" r="4.81"/><circle class="cls-3" cx="890.1" cy="82.74" r="4.81"/><rect x="81.2" y="97.92" width="23.56" height="8.52" rx="2"/><path class="cls-4" d="M832.54,79.41h17.21c2,0,4,0,5.93,0,3.4.13,5.49,2.59,5,5.94q-1.2,7.39-2.62,14.77a4.39,4.39,0,0,1-4.44,3.84c-5.7.12-11.41.11-17.11.11-6.57,0-13.14,0-19.71-.12a4.4,4.4,0,0,1-4.35-3.81c-.93-4.85-1.84-9.7-2.62-14.56-.6-3.69,1.6-6.16,5.34-6.17,5.81,0,11.61,0,17.42,0Z"/><path class="cls-5" d="M852.36,79.4c1.11,0,2.22,0,3.32,0,3.4.13,5.49,2.59,5,5.94q-1.18,7.39-2.62,14.77a4.39,4.39,0,0,1-4.44,3.84c-4.48.09-9,.11-13.44.11h-3.67c-6.57,0-13.14,0-19.71-.12a4.4,4.4,0,0,1-4.35-3.81c-.93-4.85-1.84-9.7-2.62-14.56-.6-3.69,1.6-6.16,5.34-6.17h17.42v0h19.82m0-2H830.54v0H815.11a7.52,7.52,0,0,0-5.85,2.46,7.33,7.33,0,0,0-1.46,6c.82,5.12,1.79,10.23,2.64,14.62a6.38,6.38,0,0,0,6.27,5.44c6.17.11,12.43.11,18.49.12h4.93c5,0,9.22,0,13.48-.11a6.41,6.41,0,0,0,6.37-5.46c.95-4.93,1.83-9.92,2.63-14.83A7.11,7.11,0,0,0,861.22,80a7.28,7.28,0,0,0-5.46-2.54c-1.22,0-2.4,0-3.4,0Z"/><circle class="cls-6" cx="823.38" cy="95.2" r="1.29"/><circle class="cls-6" cx="819.39" cy="87.03" r="1.29"/><circle class="cls-6" cx="827.33" cy="87.03" r="1.29"/><circle class="cls-6" cx="835.26" cy="87.03" r="1.29"/><circle class="cls-6" cx="843.2" cy="87.03" r="1.29"/><circle class="cls-6" cx="851.13" cy="87.03" r="1.29"/><circle class="cls-6" cx="831.26" cy="95.2" r="1.29"/><circle class="cls-6" cx="839.15" cy="95.2" r="1.29"/><circle class="cls-6" cx="847.03" cy="95.2" r="1.29"/><path class="cls-5" d="M799.27,82.35l-6.85,4v7.9l6.85,4,6.84-4V86.3Zm0,12.76A4.71,4.71,0,1,1,804,90.4,4.71,4.71,0,0,1,799.27,95.11Z"/><path class="cls-5" d="M870.69,82.35l-6.84,4v7.9l6.84,4,6.85-4V86.3Zm0,12.76a4.71,4.71,0,1,1,4.72-4.71A4.71,4.71,0,0,1,870.69,95.11Z"/><path class="cls-7" d="M1095.77,119h-149a3.16,3.16,0,0,1-3.16-3.16V13.3a3.17,3.17,0,0,1,3.16-3.16h149a3.17,3.17,0,0,1,3.16,3.16V115.81A3.16,3.16,0,0,1,1095.77,119Zm-149-107.83a2.16,2.16,0,0,0-2.16,2.16V115.81a2.16,2.16,0,0,0,2.16,2.16h149a2.16,2.16,0,0,0,2.16-2.16V13.3a2.16,2.16,0,0,0-2.16-2.16Z"/><rect class="cls-8" x="967.42" y="19.42" width="107.74" height="90.28" rx="2.66" transform="translate(2042.58 129.11) rotate(180)"/><path class="cls-9" d="M1072.5,110.2H970.08a3.17,3.17,0,0,1-3.16-3.16v-85a3.16,3.16,0,0,1,3.16-3.15H1072.5a3.16,3.16,0,0,1,3.16,3.15v85A3.17,3.17,0,0,1,1072.5,110.2ZM970.08,19.92a2.16,2.16,0,0,0-2.16,2.15v85a2.16,2.16,0,0,0,2.16,2.16H1072.5a2.16,2.16,0,0,0,2.16-2.16v-85a2.16,2.16,0,0,0-2.16-2.15Z"/><circle class="cls-10" cx="167.35" cy="97.8" r="4.75"/><circle class="cls-11" cx="167.35" cy="82.92" r="4.75"/><path d="M1303.88,108.35c-1.54,1.23-2.78,2.23-4.06,3.27l2.28,4.81h-3.76l-1.25-2.87c-1.34.49-.91,2-1.48,2.85h-3.41l2.64-11.11h3.48c-.39,1.73-.77,3.41-1.2,5.28a12.21,12.21,0,0,1,2.93-2.15C1301.1,108.07,1302.34,108.35,1303.88,108.35Z"/><path d="M1239.05,116.42h-1.11l2.76-11.13h1.72c.65,3.27,1.29,6.53,2,10.08,2.43-3.46,4.72-6.72,7.06-10.07h1.71c-.91,3.73-1.8,7.4-2.71,11.11h-1.14c.84-3.26,1.67-6.46,2.5-9.66l-.18-.1-6.84,9.76h-1.2c-.67-3.33-1.33-6.63-2-9.93h-.2Z"/><path d="M1288.78,105.31c-.24,1-.47,2-.7,3h-10.95c.24-1,.45-2,.69-3Z"/><path d="M1282.6,116.43h-3.88c.52-2.19,1-4.33,1.53-6.48h3.89Z"/><path d="M1273.5,108.2c3.07-.12,4.6,2.36,3.3,5.36a5,5,0,0,1-6.48,2.81,3.29,3.29,0,0,1-1.81-3.45A5,5,0,0,1,1273.5,108.2Zm-1.18,7.59c2.12.06,3.77-1.78,3.82-4.25a2.48,2.48,0,0,0-2.66-2.62,4.16,4.16,0,0,0-3.9,4.23C1269.51,114.87,1270.42,115.74,1272.32,115.79Z"/><path d="M1287.19,116.42c.53-2.23,1-4.33,1.53-6.47h3.48c-.51,2.19-1,4.31-1.51,6.47Z"/><path d="M1256.32,116.42h-1.13c.65-2.68,1.29-5.29,1.94-8h1c-.28,1.23-.55,2.39-.85,3.67,2.35-1,3.86-3.36,6.33-3.85l.18.3-4,2.92,2.69,4.91h-1.14l-2.41-4.27C1257.13,112.87,1256.51,114.46,1256.32,116.42Z"/><path d="M1264.9,108.46h.9l-.28,1.82a3.66,3.66,0,0,1,3.79-2c0,.31-.07.57-.11.88-.2,0-.38.07-.56.08-2.06.12-3.15,1.07-3.66,3.18-.31,1.29-.63,2.57-1,3.94l-1.09,0C1263.6,113.74,1264.24,111.13,1264.9,108.46Z"/><path d="M1292.62,108.3h-3.48c.23-1,.45-2,.68-3h3.49C1293.07,106.33,1292.85,107.3,1292.62,108.3Z"/><path d="M1253.5,116.42h-1.08c.66-2.7,1.31-5.33,2-8h1.07C1254.79,111.14,1254.15,113.75,1253.5,116.42Z"/><path d="M1260.16,106.89a4.48,4.48,0,0,1-4.45-1,5,5,0,0,1-1.44-4.85C1255,104.37,1256.78,106.48,1260.16,106.89Z"/><path d="M1260.26,105.19a3.81,3.81,0,0,1-4.4-4.59,13.07,13.07,0,0,0,1.67,2.87A12.19,12.19,0,0,0,1260.26,105.19Z"/><path d="M1135.17,26.4h-7.61a5.45,5.45,0,0,1-2.17-.3,1.17,1.17,0,0,1-.61-1.18,5,5,0,0,1,.16-1.17l1.58-7.21a5.49,5.49,0,0,1,.45-1.37,2,2,0,0,1,.72-.8,2.61,2.61,0,0,1,1.08-.38,10.14,10.14,0,0,1,1.58-.1h7.6l-.5,2.26h-6.56a6.18,6.18,0,0,0-.83,0,1,1,0,0,0-.48.19.89.89,0,0,0-.29.4,5.87,5.87,0,0,0-.19.67l-1.18,5.39a5.17,5.17,0,0,0-.11.71.46.46,0,0,0,.26.48,3.32,3.32,0,0,0,1,.11h6.55Z"/><path d="M1139.42,26.4h-2.78l2.76-12.49h2.78Z"/><path d="M1152.51,23.75a5.87,5.87,0,0,1-.44,1.36,2.23,2.23,0,0,1-.68.8,2.65,2.65,0,0,1-1.08.39,12.12,12.12,0,0,1-1.63.1h-4.3a5.41,5.41,0,0,1-2.17-.3,1.17,1.17,0,0,1-.61-1.18,5.5,5.5,0,0,1,.15-1.17l.91-4.08a7,7,0,0,1,.46-1.37,2.11,2.11,0,0,1,.68-.81,2.81,2.81,0,0,1,1.07-.38,11.78,11.78,0,0,1,1.59-.09h4.3a10.49,10.49,0,0,1,1.38.07,2.62,2.62,0,0,1,.86.24.91.91,0,0,1,.45.46,1.83,1.83,0,0,1,.12.7,5,5,0,0,1-.16,1.18Zm-2.56-.91.5-2.26a5,5,0,0,0,.11-.72.47.47,0,0,0-.26-.48,3.37,3.37,0,0,0-1-.1H1147q-.48,0-.78,0a1,1,0,0,0-.5.16,1,1,0,0,0-.31.39,3.89,3.89,0,0,0-.2.72l-.5,2.26a5.17,5.17,0,0,0-.11.71.46.46,0,0,0,.26.48,3.28,3.28,0,0,0,1,.11h2.22c.35,0,.62,0,.83,0a1,1,0,0,0,.48-.19.91.91,0,0,0,.29-.39A5.07,5.07,0,0,0,1150,22.84Z"/><path d="M1164.44,26.38h-2.79l.25-1.16a2.42,2.42,0,0,1-2.08,1.16h-2.92a12.45,12.45,0,0,1-1.36-.07,2.26,2.26,0,0,1-.86-.24,1,1,0,0,1-.45-.44,1.6,1.6,0,0,1-.14-.71,3.49,3.49,0,0,1,.05-.53c0-.2.07-.42.13-.66l1.47-6.74h2.77l-1.3,5.85a4.66,4.66,0,0,0-.09.69.49.49,0,0,0,.26.49,3,3,0,0,0,1.06.12h2.22a4.53,4.53,0,0,0,.84-.06,1,1,0,0,0,.49-.19.86.86,0,0,0,.27-.39,5.87,5.87,0,0,0,.18-.66l1.29-5.85h2.77Z"/><path d="M1176.64,26.4h-7.16a9.81,9.81,0,0,1-1.32-.07,2.61,2.61,0,0,1-.86-.23.92.92,0,0,1-.47-.44,1.6,1.6,0,0,1-.15-.74,5,5,0,0,1,.16-1.17l.9-4.08a6.36,6.36,0,0,1,.47-1.37,2.09,2.09,0,0,1,.67-.81,2.81,2.81,0,0,1,1.07-.38,11.84,11.84,0,0,1,1.6-.09H1175l-.49,2.26h-2.36q-.48,0-.78,0a1.06,1.06,0,0,0-.5.16.85.85,0,0,0-.3.39,3.17,3.17,0,0,0-.21.72l-.5,2.26a5.17,5.17,0,0,0-.11.71.46.46,0,0,0,.26.48,3.32,3.32,0,0,0,1,.11h3.35l2.27-10.25h2.78Z"/><path d="M1195.83,26.4h-7.6a5.51,5.51,0,0,1-2.18-.3,1.18,1.18,0,0,1-.61-1.18,5.59,5.59,0,0,1,.16-1.17l1.59-7.21a5.49,5.49,0,0,1,.45-1.37,2.06,2.06,0,0,1,.71-.8,2.71,2.71,0,0,1,1.09-.38,10,10,0,0,1,1.57-.1h7.61l-.5,2.26h-6.56a6.09,6.09,0,0,0-.83,0,1,1,0,0,0-.49.19.87.87,0,0,0-.28.4,4.34,4.34,0,0,0-.19.67l-1.18,5.39a3.92,3.92,0,0,0-.11.71c0,.25.08.41.26.48a3.28,3.28,0,0,0,1,.11h6.54Z"/><path d="M1208.6,23.75a5.87,5.87,0,0,1-.44,1.36,2.14,2.14,0,0,1-.68.8,2.65,2.65,0,0,1-1.07.39,12.24,12.24,0,0,1-1.63.1h-4.31a5.45,5.45,0,0,1-2.17-.3,1.17,1.17,0,0,1-.61-1.18,5,5,0,0,1,.16-1.17l.9-4.08a6.36,6.36,0,0,1,.47-1.37,2,2,0,0,1,.68-.81,2.76,2.76,0,0,1,1.06-.38,11.84,11.84,0,0,1,1.6-.09h4.3a10.49,10.49,0,0,1,1.38.07,2.7,2.7,0,0,1,.86.24.89.89,0,0,1,.44.46,1.83,1.83,0,0,1,.12.7,5.51,5.51,0,0,1-.15,1.18Zm-2.56-.91.5-2.26a3.87,3.87,0,0,0,.11-.72.46.46,0,0,0-.26-.48,3.37,3.37,0,0,0-1.05-.1h-2.22q-.46,0-.78,0a1.06,1.06,0,0,0-.5.16.93.93,0,0,0-.3.39,3.17,3.17,0,0,0-.21.72l-.49,2.26a4.31,4.31,0,0,0-.12.71.46.46,0,0,0,.26.48,3.4,3.4,0,0,0,1.06.11h2.21c.35,0,.63,0,.83,0a1,1,0,0,0,.49-.19.89.89,0,0,0,.28-.39A3.91,3.91,0,0,0,1206,22.84Z"/><path d="M1218.61,19.28h-3.26a6.09,6.09,0,0,0-.83,0,1.09,1.09,0,0,0-.49.18,1,1,0,0,0-.28.4,4.51,4.51,0,0,0-.19.68l-1.29,5.82h-2.79l2.09-9.38h2.78l-.25,1.17a2.38,2.38,0,0,1,2.08-1.17h2.92Z"/><path d="M1229.79,22.84h-6.48l.5-2.26h3.78c.09-.41.14-.63.14-.68,0-.43-.36-.65-1.09-.65h-2.22a5.11,5.11,0,0,0-.75.05,1.09,1.09,0,0,0-.5.18,1,1,0,0,0-.32.4,4.18,4.18,0,0,0-.22.7l-.49,2.26a3.61,3.61,0,0,0-.09.69.47.47,0,0,0,.26.49,2.93,2.93,0,0,0,1,.12h5.7l-.49,2.24h-6.77a12.31,12.31,0,0,1-1.36-.07,2.26,2.26,0,0,1-.86-.24,1,1,0,0,1-.45-.44,1.6,1.6,0,0,1-.14-.71,3.49,3.49,0,0,1,0-.53c0-.2.07-.42.13-.66l.88-4.06a3.26,3.26,0,0,1,1.22-2.06,4.57,4.57,0,0,1,2.61-.62h4a5.43,5.43,0,0,1,2.18.31,1.19,1.19,0,0,1,.61,1.17,5.36,5.36,0,0,1-.16,1.2Z"/><path d="M1247.9,26.4h-2.76l.7-3.17c0-.16.05-.3.08-.42a1.67,1.67,0,0,0,0-.28.5.5,0,0,0-.26-.49,2.93,2.93,0,0,0-1-.12h-3.53l-1,4.48h-2.78l2-8.95h2.78l-.5,2.22h3.54c.31,0,.57,0,.78,0a1,1,0,0,0,.49-.16.85.85,0,0,0,.3-.39,4.7,4.7,0,0,0,.21-.72l.21-.91c0-.16,0-.3.08-.41a1.78,1.78,0,0,0,0-.28c0-.27-.09-.43-.27-.5a3.15,3.15,0,0,0-1.06-.11h-6.32l.5-2.24h7.35a10,10,0,0,1,1.36.08,2.69,2.69,0,0,1,.87.24.9.9,0,0,1,.46.44,1.79,1.79,0,0,1,.12.7,5.22,5.22,0,0,1-.16,1.19l-.61,2.72c-.22,1-.68,1.51-1.36,1.51a.93.93,0,0,1,.75,1,2,2,0,0,1-.07.52Z"/><path d="M1261.32,23.75a5.87,5.87,0,0,1-.44,1.36,2.14,2.14,0,0,1-.68.8,2.65,2.65,0,0,1-1.07.39,12.24,12.24,0,0,1-1.63.1h-4.31a5.45,5.45,0,0,1-2.17-.3,1.17,1.17,0,0,1-.61-1.18,5,5,0,0,1,.16-1.17l.9-4.08a6.36,6.36,0,0,1,.47-1.37,2,2,0,0,1,.68-.81,2.76,2.76,0,0,1,1.06-.38,11.84,11.84,0,0,1,1.6-.09h4.3a10.49,10.49,0,0,1,1.38.07,2.7,2.7,0,0,1,.86.24.89.89,0,0,1,.44.46,1.82,1.82,0,0,1,.13.7,5.59,5.59,0,0,1-.16,1.18Zm-2.56-.91.5-2.26a3.87,3.87,0,0,0,.11-.72.46.46,0,0,0-.26-.48,3.37,3.37,0,0,0-1-.1h-2.22q-.46,0-.78,0a1.06,1.06,0,0,0-.5.16.93.93,0,0,0-.3.39,3.17,3.17,0,0,0-.21.72l-.49,2.26a4.31,4.31,0,0,0-.12.71.46.46,0,0,0,.26.48,3.4,3.4,0,0,0,1.06.11H1257c.34,0,.62,0,.82,0a1,1,0,0,0,.49-.19.89.89,0,0,0,.28-.39A3.91,3.91,0,0,0,1258.76,22.84Z"/><path d="M1273.25,26.38h-2.78l.25-1.16a2.44,2.44,0,0,1-2.09,1.16h-2.92a12.6,12.6,0,0,1-1.36-.07,2.32,2.32,0,0,1-.86-.24,1,1,0,0,1-.45-.44,1.61,1.61,0,0,1-.13-.71,3.4,3.4,0,0,1,0-.53c0-.2.08-.42.14-.66l1.47-6.74h2.76L1266,22.84a3.61,3.61,0,0,0-.09.69.49.49,0,0,0,.26.49,2.93,2.93,0,0,0,1,.12h2.22a4.65,4.65,0,0,0,.85-.06,1.09,1.09,0,0,0,.49-.19.86.86,0,0,0,.27-.39,5.87,5.87,0,0,0,.18-.66l1.29-5.85h2.76Z"/><path d="M1280.67,26.4h-2.24a5.45,5.45,0,0,1-2.17-.3,1.17,1.17,0,0,1-.61-1.18,5,5,0,0,1,.16-1.17l2.17-9.84h2.79l-.71,3.11h2.7l-.52,2.26h-2.65l-.79,3.56a4.31,4.31,0,0,0-.12.71.46.46,0,0,0,.26.48,3.4,3.4,0,0,0,1.06.11h1.17Z"/><path d="M1293.65,22.84h-6.48l.5-2.26h3.78c.09-.41.14-.63.14-.68,0-.43-.37-.65-1.09-.65h-2.22a5.36,5.36,0,0,0-.76.05,1.18,1.18,0,0,0-.5.18,1.07,1.07,0,0,0-.31.4,2.9,2.9,0,0,0-.22.7l-.5,2.26a3.61,3.61,0,0,0-.09.69.49.49,0,0,0,.26.49,3,3,0,0,0,1.06.12h5.7l-.5,2.24h-6.76a12.31,12.31,0,0,1-1.36-.07,2.21,2.21,0,0,1-.86-.24,1,1,0,0,1-.46-.44,1.61,1.61,0,0,1-.13-.71,3.4,3.4,0,0,1,0-.53c0-.2.08-.42.14-.66l.88-4.06a3.26,3.26,0,0,1,1.21-2.06,4.63,4.63,0,0,1,2.62-.62h4a5.37,5.37,0,0,1,2.17.31,1.18,1.18,0,0,1,.62,1.17,6,6,0,0,1-.16,1.2Z"/><path d="M1303.38,19.28h-3.26a6.18,6.18,0,0,0-.83,0,1,1,0,0,0-.48.18,1,1,0,0,0-.29.4,6.12,6.12,0,0,0-.19.68L1297,26.4h-2.78l2.08-9.38h2.78l-.24,1.17A2.37,2.37,0,0,1,1301,17h2.92Z"/><path d="M1236.51,41.28h-3.17a2.09,2.09,0,0,1-.9-.14.58.58,0,0,1-.26-.56,2.43,2.43,0,0,1,.07-.55l.66-3.39a2.58,2.58,0,0,1,.19-.64.94.94,0,0,1,.29-.38,1.11,1.11,0,0,1,.46-.18,4,4,0,0,1,.65,0h3.17l-.21,1.06h-2.73a1.73,1.73,0,0,0-.35,0,.34.34,0,0,0-.2.09.41.41,0,0,0-.12.18c0,.09,0,.19-.08.32l-.49,2.53a2.17,2.17,0,0,0,0,.34c0,.11,0,.19.1.22a1.13,1.13,0,0,0,.44.05h2.73Z"/><path d="M1241.56,41.28h-3.17a2.09,2.09,0,0,1-.9-.14.58.58,0,0,1-.26-.56,3.17,3.17,0,0,1,.07-.55l.66-3.39a2.58,2.58,0,0,1,.19-.64.88.88,0,0,1,.3-.38,1,1,0,0,1,.45-.18,4.11,4.11,0,0,1,.65,0h3.17l-.21,1.06h-2.73a1.62,1.62,0,0,0-.34,0,.34.34,0,0,0-.21.09.33.33,0,0,0-.11.18,1.86,1.86,0,0,0-.08.32l-.49,2.53a1.57,1.57,0,0,0,0,.34c0,.11,0,.19.11.22a1.07,1.07,0,0,0,.44.05h2.72Z"/><path d="M1246.54,41.28h-1.15l.29-1.49c0-.08,0-.14,0-.2a.83.83,0,0,0,0-.13.24.24,0,0,0-.11-.23,1,1,0,0,0-.44-.06h-1.47l-.41,2.11h-1.16l.83-4.21h1.16l-.21,1h1.79a.4.4,0,0,0,.21-.08.34.34,0,0,0,.12-.18,3.19,3.19,0,0,0,.09-.34l.09-.43c0-.07,0-.14,0-.19a.93.93,0,0,0,0-.14c0-.12,0-.2-.12-.23a1.32,1.32,0,0,0-.44,0h-2.63l.21-1.05h3.06a4.56,4.56,0,0,1,.57,0,1.28,1.28,0,0,1,.36.11.54.54,0,0,1,.19.21,1,1,0,0,1,0,.33,2.51,2.51,0,0,1-.07.56l-.25,1.28c-.1.47-.28.71-.57.71a.43.43,0,0,1,.31.48,2.29,2.29,0,0,1,0,.25Z"/><path d="M1249.93,39.07h-2.11L1248,38h2.11Z"/><path d="M1252.74,41.28h-1.16l.94-4.82h-.92l.21-1.06h2.08Z"/><path d="M1258.42,40a3,3,0,0,1-.18.64,1.11,1.11,0,0,1-.28.38,1,1,0,0,1-.45.18,4.08,4.08,0,0,1-.67.05H1255a4.22,4.22,0,0,1-.57,0,1,1,0,0,1-.36-.11.37.37,0,0,1-.18-.21.84.84,0,0,1,0-.34,3.05,3.05,0,0,1,.06-.55l.67-3.39a3.87,3.87,0,0,1,.19-.64,1,1,0,0,1,.29-.38.93.93,0,0,1,.44-.18,4.16,4.16,0,0,1,.66,0H1258a2,2,0,0,1,.91.14.57.57,0,0,1,.26.55,2.36,2.36,0,0,1-.07.55Zm-1.06-.43.5-2.53a2.17,2.17,0,0,0,0-.34c0-.11,0-.19-.1-.22a1.37,1.37,0,0,0-.44,0H1256a.4.4,0,0,0-.2.08.35.35,0,0,0-.13.18,3.19,3.19,0,0,0-.09.34l-.5,2.53a2.17,2.17,0,0,0,0,.34c0,.11,0,.19.11.22a1.07,1.07,0,0,0,.43.05h1.33a.49.49,0,0,0,.21-.08.41.41,0,0,0,.12-.18A2.65,2.65,0,0,0,1257.36,39.6Z"/><path d="M1261.39,41.28h-1.16l1-4.82h-.93l.21-1.06h2.08Z"/><path d="M1267,40a3,3,0,0,1-.18.64,1.11,1.11,0,0,1-.28.38,1,1,0,0,1-.45.18,4.21,4.21,0,0,1-.68.05h-1.79a2.14,2.14,0,0,1-.91-.14.59.59,0,0,1-.25-.56,2.43,2.43,0,0,1,.07-.55l.67-3.41a3.16,3.16,0,0,1,.18-.64,1.06,1.06,0,0,1,.3-.38,1,1,0,0,1,.44-.18,4.16,4.16,0,0,1,.66,0h1.79c.77,0,1.15.27,1.15.8a1.41,1.41,0,0,1,0,.2c0,.07,0,.15,0,.24l-.08.43h-1.15a1.45,1.45,0,0,0,0-.28q0-.33-.54-.33h-1.26a.44.44,0,0,0-.21.08.41.41,0,0,0-.12.18,2.92,2.92,0,0,0-.08.34l-.15.75h2.27c.59,0,.88.25.88.77a1.22,1.22,0,0,1,0,.26Zm-1.06-.43,0-.13a2.26,2.26,0,0,0,0-.35c0-.17-.11-.26-.33-.26h-1.77l-.14.74a2.71,2.71,0,0,0,0,.34.21.21,0,0,0,.12.22,1.07,1.07,0,0,0,.43.05h.92a1.73,1.73,0,0,0,.35,0,.4.4,0,0,0,.2-.08.52.52,0,0,0,.12-.19A2.09,2.09,0,0,0,1265.91,39.6Z"/><path d="M1270,39.07h-2.11l.2-1.07h2.11Z"/><path d="M1272.85,41.28h-1.16l.94-4.82h-.93l.21-1.06H1274Z"/><path d="M1278.12,41.28h-4.48l.44-2.23a1.66,1.66,0,0,1,.47-.91,1.21,1.21,0,0,1,.89-.34H1277a1.56,1.56,0,0,0,.35,0,.51.51,0,0,0,.21-.09.5.5,0,0,0,.11-.19,2.24,2.24,0,0,0,.08-.31l0-.13a1.61,1.61,0,0,0,0-.34c0-.11,0-.19-.11-.22a1.07,1.07,0,0,0-.43-.05h-.93a.68.68,0,0,0-.74.61h-1.15l.08-.43a3.74,3.74,0,0,1,.19-.65,1,1,0,0,1,.29-.38.9.9,0,0,1,.45-.17,4.16,4.16,0,0,1,.66,0h1.8a2.21,2.21,0,0,1,.91.13.58.58,0,0,1,.25.56,2.81,2.81,0,0,1-.07.55l-.23,1.18a1.16,1.16,0,0,1-.18.43,1.18,1.18,0,0,1-.33.34,1.63,1.63,0,0,1-.44.21,1.91,1.91,0,0,1-.54.08h-1.65a.43.43,0,0,0-.35.12,1.15,1.15,0,0,0-.16.49l-.16.74h3.34Z"/><path d="M1283.53,40a3,3,0,0,1-.18.64,1.11,1.11,0,0,1-.28.38,1,1,0,0,1-.45.18,4,4,0,0,1-.67.05h-3.14l.21-1.07h3a.49.49,0,0,0,.21-.08.41.41,0,0,0,.12-.18,2.65,2.65,0,0,0,.09-.34l0-.13a2.26,2.26,0,0,0,0-.35c0-.17-.1-.26-.32-.26h-1.65a1.26,1.26,0,0,1-.81-.24.77.77,0,0,1-.29-.63.31.31,0,0,1,0-.1.28.28,0,0,1,0-.09l.24-1.18a3.1,3.1,0,0,1,.19-.64.87.87,0,0,1,.73-.56,4.08,4.08,0,0,1,.66,0h3.14l-.21,1.06h-3a.49.49,0,0,0-.21.08.41.41,0,0,0-.12.18,1.63,1.63,0,0,0-.09.34l0,.13a2.3,2.3,0,0,0,0,.34c0,.12,0,.19.11.22a1,1,0,0,0,.44.06h1.58a.8.8,0,0,1,.9.91,1.87,1.87,0,0,1,0,.34Z"/><path d="M1286.55,39.07h-2.11l.21-1.07h2.11Z"/><path d="M1289.36,41.28h-1.16l.94-4.82h-.92l.21-1.06h2.08Z"/><path d="M1294.93,40a3.59,3.59,0,0,1-.19.64,1,1,0,0,1-.28.38.93.93,0,0,1-.44.18,4.08,4.08,0,0,1-.67.05h-3.14l.21-1.07h3a.4.4,0,0,0,.2-.08.35.35,0,0,0,.13-.18c0-.08,0-.2.09-.34l0-.13a2.78,2.78,0,0,0,0-.35c0-.17-.11-.26-.32-.26H1292a1.21,1.21,0,0,1-.8-.24.75.75,0,0,1-.29-.63v-.1s0-.06,0-.09l.23-1.18a3,3,0,0,1,.2-.64.88.88,0,0,1,.72-.56,4.22,4.22,0,0,1,.67,0h3.13l-.2,1.06h-3a.4.4,0,0,0-.21.08.42.42,0,0,0-.13.18,1.71,1.71,0,0,0-.08.34l0,.13a3,3,0,0,0-.05.34c0,.12,0,.19.11.22a1.14,1.14,0,0,0,.45.06h1.57a.81.81,0,0,1,.91.91,1.87,1.87,0,0,1,0,.34Z"/><path d="M1299.29,39.07h-1.22l-.19,1h-1l.19-1h-1.26L1296,38h1.27l.18-.9h1l-.18.9h1.22Z"/><path d="M813.53,115.21a6.15,6.15,0,0,1-1.52-.27l.34-1.08a3.35,3.35,0,0,0,1.19.36c.62,0,1-.08,1-.59,0-1.06-2.52-.7-2.52-2.66,0-1.12,1-1.55,1.93-1.55a4.64,4.64,0,0,1,1.35.24l-.34,1.08a2.16,2.16,0,0,0-1-.33c-.71,0-.77.39-.77.56,0,.89,2.52.51,2.52,2.64C815.68,115,814.65,115.21,813.53,115.21Z"/><path d="M817.51,113.6c.09.52.39.7.74.7a2.23,2.23,0,0,0,1-.33l.34.89a3.37,3.37,0,0,1-1.45.3,1.81,1.81,0,0,1-1.75-2c0-.9.37-2.11,1.7-2.11s1.71.79,1.71,2.57Zm.63-1.67c-.14,0-.6,0-.62.81h1.31C818.78,112.09,818.48,111.93,818.14,111.93Z"/><path d="M822.72,112.07a.58.58,0,0,0-.43-.16c-.37,0-.54.61-.62.83V115h-1v-3a5,5,0,0,0-.1-.87h1l.15.54c.12-.23.4-.66.75-.66a2.08,2.08,0,0,1,.66.1Z"/><path d="M823.63,110.46v-.92h1.06v.92Zm0,4.58v-3.89h1V115Z"/><path d="M827.82,115s-.14-.37-.14-.35a1.43,1.43,0,0,1-.85.47c-1,0-1.37-.41-1.37-1.14s.44-1.46,1.89-1.46h.27v-.13c0-.19,0-.5-.39-.5a2.83,2.83,0,0,0-1.29.34l-.35-1a4.92,4.92,0,0,1,1.71-.29,1.19,1.19,0,0,1,1.35,1.25v1.57c0,.31.1.78.15,1.19Zm-.2-1.65h-.16c-.67,0-.94.2-.94.58s.3.3.52.3.46-.26.58-.43Z"/><path d="M829.68,115v-5.59h1V115Z"/><path d="M836,115.21c-1.7,0-2.32-1.14-2.32-2.92,0-1.53.55-2.87,2.34-2.87a4.12,4.12,0,0,1,1.33.23l-.34,1.08a2.18,2.18,0,0,0-1-.32c-.83,0-1.17.6-1.17,1.88s.31,1.93,1.13,1.93a2.43,2.43,0,0,0,1.08-.36l.35,1.08A3.54,3.54,0,0,1,836,115.21Z"/><path d="M839.78,115.17c-1.28,0-1.78-1-1.78-2.09s.51-2,1.78-2,1.77.92,1.77,2S841.05,115.17,839.78,115.17Zm0-3.26c-.45,0-.73.21-.73,1.17s.27,1.21.73,1.21.72-.27.72-1.21S840.25,111.91,839.78,111.91Z"/><path d="M844.45,115v-2.52c0-.28,0-.61-.42-.61s-.51.4-.68.78V115h-1V112a5,5,0,0,0-.1-.83h.95l.15.48c.15-.16.44-.6.89-.6,1,0,1.25.67,1.25,1.56V115Z"/><path d="M847.58,115.17a4.46,4.46,0,0,1-1.37-.28l.35-1a2.93,2.93,0,0,0,1,.35c.5,0,.52-.17.52-.28v0c0-.43-1.81-.13-1.81-1.77,0-1,.79-1.18,1.52-1.18a4.11,4.11,0,0,1,1.23.23l-.34.95a1.81,1.81,0,0,0-.88-.3c-.36,0-.48.09-.48.27,0,.57,1.8.27,1.8,1.79C849.15,114.94,848.34,115.17,847.58,115.17Z"/><path d="M851.52,115.17c-1.27,0-1.77-1-1.77-2.09s.51-2,1.77-2,1.77.92,1.77,2S852.79,115.17,851.52,115.17Zm0-3.26c-.44,0-.73.21-.73,1.17s.27,1.21.73,1.21.73-.27.73-1.21S852,111.91,851.52,111.91Z"/><path d="M854.07,115v-5.59h1V115Z"/><path d="M857,113.6c.09.52.38.7.73.7a2.27,2.27,0,0,0,1.06-.33l.33.89a3.33,3.33,0,0,1-1.45.3,1.8,1.8,0,0,1-1.74-2c0-.9.36-2.11,1.69-2.11s1.72.79,1.72,2.57Zm.63-1.67c-.15,0-.61,0-.63.81h1.32C858.21,112.09,857.92,111.93,857.58,111.93Z"/><path d="M753.79,121.68v-1.94c0-.45-.11-.52-.27-.52s-.49.34-.59.64v1.82h-.8v-1.94c0-.48-.08-.52-.32-.52s-.44.46-.51.6v1.86h-.8v-2.35c0-.26-.06-.47-.07-.7h.74l.11.38a1,1,0,0,1,.69-.48.82.82,0,0,1,.86.43.86.86,0,0,1,.82-.43c.64,0,.94.38.94,1.2v2Z"/><path d="M755.33,118.08v-.72h.83v.72Zm0,3.6v-3.05h.79v3.05Z"/><path d="M758.15,121.77c-.91,0-1.39-.66-1.39-1.59s.47-1.65,1.4-1.65a3.51,3.51,0,0,1,.93.22l-.28.75a1.62,1.62,0,0,0-.65-.26c-.37,0-.58.16-.58.94s.27.89.57.89a1.64,1.64,0,0,0,.69-.27l.27.75A3,3,0,0,1,758.15,121.77Z"/><path d="M761.29,119.35a.42.42,0,0,0-.33-.13c-.29,0-.43.48-.48.65v1.81h-.8v-2.37a4.08,4.08,0,0,0-.08-.68h.74l.12.42c.09-.18.31-.52.58-.52a1.62,1.62,0,0,1,.52.08Z"/><path d="M763.27,121.78c-1,0-1.38-.76-1.38-1.64s.39-1.61,1.38-1.61,1.39.72,1.39,1.61S764.27,121.78,763.27,121.78Zm0-2.56c-.34,0-.57.17-.57.92s.21.94.57.94.57-.2.57-.94S763.64,119.22,763.27,119.22Z"/><path d="M766.45,121.81a4.88,4.88,0,0,1-1.19-.21l.27-.85a2.52,2.52,0,0,0,.92.28c.49,0,.78-.06.78-.46,0-.83-2-.55-2-2.09,0-.87.82-1.21,1.51-1.21a3.49,3.49,0,0,1,1.05.19l-.26.85a1.61,1.61,0,0,0-.8-.26c-.55,0-.6.31-.6.43,0,.7,2,.4,2,2.08C768.13,121.64,767.32,121.81,766.45,121.81Z"/><path d="M770.41,121.68H769v-4.32h1.38c1.18,0,1.8.56,1.8,2.14S771.63,121.68,770.41,121.68Zm0-3.54h-.5v2.76h.55c.43,0,.83-.12.83-1.39S770.79,118.14,770.41,118.14Z"/><path d="M756,91.26l-1-1.72h0v1.72h-.82V87h1.42c.55,0,1.21.21,1.21,1.29a1.15,1.15,0,0,1-.8,1.26L757,91.26Zm-.45-3.53H755v1h.63c.22,0,.35-.22.35-.52S755.83,87.73,755.57,87.73Z"/><path d="M757.76,91.26V87h2.15v.78h-1.33v.91h1.22v.78h-1.22v1.06H760v.78Z"/><path d="M762,91.4a4.3,4.3,0,0,1-1.1-.22l.25-.84a2.23,2.23,0,0,0,.86.28c.45,0,.72-.06.72-.46,0-.84-1.83-.55-1.83-2.09a1.26,1.26,0,0,1,1.4-1.21,3.08,3.08,0,0,1,1,.19l-.25.85a1.38,1.38,0,0,0-.74-.26c-.51,0-.56.3-.56.43,0,.7,1.83.4,1.83,2.07C763.53,91.22,762.78,91.4,762,91.4Z"/><path d="M764.37,91.26V87h2.15v.78h-1.33v.91h1.22v.78h-1.22v1.06h1.38v.78Z"/><path d="M769,87.74v3.52h-.83V87.74h-.93V87h2.68v.79Z"/><path d="M900.62,84.74c-1.13,0-1.72-.63-1.72-1.89v-3h.91v2.9c0,1,.44,1.11.81,1.11s.73-.27.73-1.11v-2.9h.92v3C902.27,84.12,901.65,84.74,900.62,84.74Z"/><path d="M904.42,84.74a4.77,4.77,0,0,1-1.23-.23l.28-.93a2.53,2.53,0,0,0,.95.31c.5,0,.8-.07.8-.5,0-.92-2-.6-2-2.29a1.39,1.39,0,0,1,1.56-1.32,3.54,3.54,0,0,1,1.09.21l-.28.92a1.62,1.62,0,0,0-.82-.28c-.57,0-.62.33-.62.47,0,.77,2,.44,2,2.27C906.15,84.55,905.32,84.74,904.42,84.74Z"/><path d="M909.17,84.6,908,82.71h0V84.6h-.92V79.88h1.58c.62,0,1.35.23,1.35,1.41a1.28,1.28,0,0,1-.89,1.38l1.18,1.93Zm-.49-3.87H908v1.12h.69c.24,0,.39-.23.39-.56S909,80.73,908.68,80.73Z"/><path d="M900.45,98.82h-.64v1.78h-.91V95.88h1.48c.8,0,1.41.33,1.41,1.45S901.23,98.82,900.45,98.82Zm-.08-2.09h-.56V98h.59c.22,0,.47-.15.47-.64S900.57,96.73,900.37,96.73Z"/><path d="M907,100.6h-1.15l-.7-3.07-.87,3.07h-1.15l-.83-4.72h1l.55,3.4.83-3.21h1.15l.63,3.2.65-3.39h.9Z"/><path d="M910.8,100.6l-1.13-1.89h0v1.89h-.91V95.88h1.57c.62,0,1.35.23,1.35,1.41a1.27,1.27,0,0,1-.89,1.38l1.19,1.93Zm-.49-3.87h-.69v1.12h.7c.24,0,.39-.23.39-.56S910.6,96.73,910.31,96.73Z"/><path d="M165.18,74.43l-.28-1.15h-1.16l-.29,1.15h-.88L164,69.86h.78l1.32,4.57ZM164.34,71,164,72.47h.72Z"/><path d="M168.18,74.58c-1.24,0-1.69-1-1.69-2.43,0-1.27.4-2.39,1.7-2.39a2.84,2.84,0,0,1,1,.19l-.25.9a1.61,1.61,0,0,0-.72-.26c-.6,0-.85.5-.85,1.56s.22,1.6.82,1.6a1.68,1.68,0,0,0,.79-.3l.24.9A2.21,2.21,0,0,1,168.18,74.58Z"/><path d="M171.25,70.7v3.73h-.83V70.7h-.93v-.84h2.68v.84Z"/><path d="M125.72,70.24a4.2,4.2,0,0,1-1.14-.23l.26-.9a2.2,2.2,0,0,0,.88.3c.47,0,.75-.06.75-.49,0-.88-1.89-.58-1.89-2.21A1.31,1.31,0,0,1,126,65.43a3.07,3.07,0,0,1,1,.2l-.26.9a1.46,1.46,0,0,0-.76-.28c-.53,0-.58.33-.58.46,0,.74,1.89.43,1.89,2.2C127.33,70.05,126.56,70.24,125.72,70.24Z"/><path d="M129,66.36v1h1.3v.82H129V70.1h-.85V65.53h2.22v.83Z"/><path d="M132.64,68.38h-.59V70.1h-.85V65.53h1.38c.74,0,1.31.31,1.31,1.4S133.37,68.38,132.64,68.38Zm-.07-2h-.52v1.2h.55c.21,0,.43-.14.43-.62S132.76,66.35,132.57,66.35Z"/><path d="M136.06,68.87V70.1h-.63V68.87h-.93v-.72h.93V67h.63v1.12H137v.72Z"/><path d="M164,111.48v-3.31l-.61.62-.25-.76.88-.85h.8v4.3Z"/><path d="M167.1,111.6c-1,0-1.31-.8-1.31-2.3s.4-2.22,1.32-2.22,1.33.73,1.33,2.22S168.1,111.6,167.1,111.6Zm0-3.72c-.47,0-.5.58-.5,1.42,0,1,0,1.5.49,1.5s.52-.56.52-1.5S167.56,107.88,167.11,107.88Z"/><path d="M170.64,111.61c-1.35,0-1.68-1.19-1.68-2.43,0-1.4.52-2.38,1.73-2.38a3.77,3.77,0,0,1,.92.19l-.25.9a1.39,1.39,0,0,0-.66-.26c-.48,0-.89.22-.89,1.55,0,1.1.2,1.61.85,1.61a.64.64,0,0,0,.49-.13v-.9h-.78v-.82h1.51v2.26A1.72,1.72,0,0,1,170.64,111.61Z"/><path d="M196.13,69.3a4.29,4.29,0,0,1-1.11-.22l.25-.9a2.11,2.11,0,0,0,.86.3c.45,0,.72-.07.72-.49,0-.88-1.83-.58-1.83-2.21a1.29,1.29,0,0,1,1.4-1.29,2.84,2.84,0,0,1,1,.21l-.25.89a1.38,1.38,0,0,0-.73-.27c-.52,0-.57.32-.57.46,0,.74,1.84.42,1.84,2.2C197.69,69.12,196.94,69.3,196.13,69.3Z"/><path d="M199.35,65.42v1h1.26v.82h-1.26v1.93h-.83V64.59h2.15v.83Z"/><path d="M202.84,67.45h-.57v1.71h-.82V64.59h1.33c.72,0,1.28.32,1.28,1.41S203.55,67.45,202.84,67.45Zm-.07-2h-.5v1.2h.53c.2,0,.42-.14.42-.62S203,65.42,202.77,65.42Z"/><path d="M205.8,69.17V65.86l-.61.62-.25-.76.88-.85h.8v4.3Z"/><rect class="cls-12" x="211.94" y="61.28" width="9.16" height="9.16"/><path d="M236.79,69.3a4.21,4.21,0,0,1-1.1-.22l.25-.9a2.11,2.11,0,0,0,.86.3c.45,0,.72-.07.72-.49,0-.88-1.83-.58-1.83-2.21a1.29,1.29,0,0,1,1.4-1.29,2.88,2.88,0,0,1,1,.21l-.25.89a1.38,1.38,0,0,0-.74-.27c-.51,0-.56.32-.56.46,0,.74,1.83.42,1.83,2.2C238.35,69.12,237.6,69.3,236.79,69.3Z"/><path d="M240,65.42v1h1.27v.82H240v1.93h-.82V64.59h2.15v.83Z"/><path d="M243.51,67.45h-.57v1.71h-.83V64.59h1.34c.72,0,1.27.32,1.27,1.41S244.21,67.45,243.51,67.45Zm-.07-2h-.5v1.2h.53c.2,0,.42-.14.42-.62S243.62,65.42,243.44,65.42Z"/><path d="M245.5,69.16l-.23-.87c.54-.44,1.68-1.38,1.68-2s-.23-.69-.46-.69a1.49,1.49,0,0,0-.86.37l-.23-.87a2.21,2.21,0,0,1,1.1-.3c.6,0,1.27.28,1.27,1.46a3.21,3.21,0,0,1-1.38,2.15h1.45v.79Z"/><rect class="cls-13" x="252.61" y="61.28" width="9.16" height="9.16"/><path d="M277.33,69.3a4.3,4.3,0,0,1-1.1-.22l.25-.9a2.11,2.11,0,0,0,.86.3c.45,0,.72-.07.72-.49,0-.88-1.83-.58-1.83-2.21a1.29,1.29,0,0,1,1.4-1.29,2.88,2.88,0,0,1,1,.21l-.25.89a1.38,1.38,0,0,0-.73-.27c-.52,0-.57.32-.57.46,0,.74,1.83.42,1.83,2.2C278.89,69.12,278.15,69.3,277.33,69.3Z"/><path d="M280.56,65.42v1h1.26v.82h-1.26v1.93h-.83V64.59h2.15v.83Z"/><path d="M284.05,67.45h-.57v1.71h-.82V64.59H284c.72,0,1.28.32,1.28,1.41S284.76,67.45,284.05,67.45Zm-.07-2h-.5v1.2H284c.2,0,.42-.14.42-.62S284.16,65.42,284,65.42Z"/><path d="M286.86,69.29a2.83,2.83,0,0,1-1.1-.19l.24-.87a1.86,1.86,0,0,0,.88.26.54.54,0,0,0,.52-.58c0-.58-.39-.61-1-.61v-.79h.1c.58,0,.85,0,.85-.5a.39.39,0,0,0-.42-.45,2,2,0,0,0-.85.33l-.23-.87a2.82,2.82,0,0,1,1.11-.26A1.08,1.08,0,0,1,288.14,66a.86.86,0,0,1-.75.9,1,1,0,0,1,.83,1A1.25,1.25,0,0,1,286.86,69.29Z"/><rect class="cls-14" x="293.15" y="61.28" width="9.16" height="9.16"/><path d="M317.71,69.3a4.37,4.37,0,0,1-1.11-.22l.25-.9a2.16,2.16,0,0,0,.86.3c.45,0,.72-.07.72-.49,0-.88-1.83-.58-1.83-2.21A1.29,1.29,0,0,1,318,64.49a2.93,2.93,0,0,1,1,.21l-.25.89a1.38,1.38,0,0,0-.74-.27c-.51,0-.56.32-.56.46,0,.74,1.83.42,1.83,2.2C319.27,69.12,318.52,69.3,317.71,69.3Z"/><path d="M320.93,65.42v1h1.26v.82h-1.26v1.93h-.82V64.59h2.15v.83Z"/><path d="M324.43,67.45h-.58v1.71H323V64.59h1.34c.71,0,1.27.32,1.27,1.41S325.13,67.45,324.43,67.45Zm-.07-2h-.51v1.2h.53c.2,0,.43-.14.43-.62S324.54,65.42,324.36,65.42Z"/><path d="M328.33,68.05v1.11h-.81V68.05h-1.31l-.27-.81,1.48-2.37h.91v2.37h.52v.81Zm-.81-2.24-.91,1.43h.91Z"/><rect class="cls-15" x="333.52" y="61.28" width="9.16" height="9.16"/><path d="M389.13,69.3a4.29,4.29,0,0,1-1.11-.22l.25-.9a2.11,2.11,0,0,0,.86.3c.45,0,.72-.07.72-.49,0-.88-1.83-.58-1.83-2.21a1.29,1.29,0,0,1,1.4-1.29,2.84,2.84,0,0,1,1,.21l-.25.89a1.38,1.38,0,0,0-.73-.27c-.52,0-.57.32-.57.46,0,.74,1.84.42,1.84,2.2C390.69,69.12,389.94,69.3,389.13,69.3Z"/><path d="M392.35,65.42v1h1.26v.82h-1.26v1.93h-.83V64.59h2.15v.83Z"/><path d="M395.84,67.45h-.57v1.71h-.82V64.59h1.33c.72,0,1.28.32,1.28,1.41S396.55,67.45,395.84,67.45Zm-.07-2h-.5v1.2h.53c.2,0,.42-.14.42-.62S396,65.42,395.77,65.42Z"/><path d="M398.7,69.29a3.36,3.36,0,0,1-1.14-.18l.23-.87a2.34,2.34,0,0,0,.91.25c.54,0,.6-.41.6-.75,0-.5-.2-.58-.42-.58a.93.93,0,0,0-.68.3l-.51-.25V64.87H400v.8h-1.47v.76a.74.74,0,0,1,.43-.08c.66,0,1.17.4,1.17,1.41A1.42,1.42,0,0,1,398.7,69.29Z"/><rect class="cls-16" x="404.94" y="61.28" width="9.16" height="9.16"/><path d="M429.79,69.3a4.21,4.21,0,0,1-1.1-.22l.25-.9a2.11,2.11,0,0,0,.86.3c.45,0,.72-.07.72-.49,0-.88-1.83-.58-1.83-2.21a1.29,1.29,0,0,1,1.4-1.29,2.88,2.88,0,0,1,1,.21l-.25.89a1.38,1.38,0,0,0-.74-.27c-.51,0-.56.32-.56.46,0,.74,1.83.42,1.83,2.2C431.35,69.12,430.6,69.3,429.79,69.3Z"/><path d="M433,65.42v1h1.27v.82H433v1.93h-.82V64.59h2.15v.83Z"/><path d="M436.51,67.45h-.57v1.71h-.83V64.59h1.34c.72,0,1.27.32,1.27,1.41S437.21,67.45,436.51,67.45Zm-.07-2h-.5v1.2h.53c.2,0,.42-.14.42-.62S436.62,65.42,436.44,65.42Z"/><path d="M439.56,69.29c-1.1,0-1.33-1.08-1.33-2.13s.41-2.4,1.52-2.4a3.14,3.14,0,0,1,.83.14l-.23.87a1,1,0,0,0-.57-.21c-.64,0-.77.7-.77,1.15a.71.71,0,0,1,.62-.43c.8,0,1.17.56,1.17,1.61A1.3,1.3,0,0,1,439.56,69.29Zm.43-1.6c0-.26-.05-.61-.42-.61s-.44.18-.52.44c0,.86.24,1,.51,1s.42-.14.42-.6C440,67.84,440,67.77,440,67.69Z"/><rect class="cls-17" x="445.61" y="61.28" width="9.16" height="9.16"/><path d="M470.33,69.3a4.3,4.3,0,0,1-1.1-.22l.25-.9a2.11,2.11,0,0,0,.86.3c.45,0,.72-.07.72-.49,0-.88-1.83-.58-1.83-2.21a1.29,1.29,0,0,1,1.4-1.29,2.88,2.88,0,0,1,1,.21l-.25.89a1.38,1.38,0,0,0-.73-.27c-.52,0-.57.32-.57.46,0,.74,1.83.42,1.83,2.2C471.89,69.12,471.15,69.3,470.33,69.3Z"/><path d="M473.56,65.42v1h1.26v.82h-1.26v1.93h-.83V64.59h2.15v.83Z"/><path d="M477.05,67.45h-.57v1.71h-.82V64.59H477c.72,0,1.28.32,1.28,1.41S477.76,67.45,477.05,67.45Zm-.07-2h-.5v1.2H477c.2,0,.42-.14.42-.62S477.16,65.42,477,65.42Z"/><path d="M480.1,69.16h-.87l1.27-3.5h-1.66v-.78H481l.25.66Z"/><rect class="cls-18" x="486.15" y="61.28" width="9.16" height="9.16"/><path d="M510.71,69.3a4.37,4.37,0,0,1-1.11-.22l.25-.9a2.16,2.16,0,0,0,.86.3c.45,0,.72-.07.72-.49,0-.88-1.83-.58-1.83-2.21A1.29,1.29,0,0,1,511,64.49a2.93,2.93,0,0,1,1,.21l-.25.89a1.38,1.38,0,0,0-.74-.27c-.51,0-.56.32-.56.46,0,.74,1.83.42,1.83,2.2C512.27,69.12,511.52,69.3,510.71,69.3Z"/><path d="M513.93,65.42v1h1.26v.82h-1.26v1.93h-.82V64.59h2.15v.83Z"/><path d="M517.43,67.45h-.58v1.71H516V64.59h1.34c.71,0,1.27.32,1.27,1.41S518.13,67.45,517.43,67.45Zm-.07-2h-.51v1.2h.53c.2,0,.43-.14.43-.62S517.54,65.42,517.36,65.42Z"/><path d="M520.43,69.29c-.78,0-1.31-.29-1.31-1.24a1,1,0,0,1,.78-1.15,1,1,0,0,1-.67-.94,1.09,1.09,0,0,1,1.23-1.2c.91,0,1.22.4,1.22,1.19a1,1,0,0,1-.7,1,1,1,0,0,1,.78,1.14C521.76,69,521.23,69.29,520.43,69.29Zm0-2a.72.72,0,0,0-.53.74c0,.22.09.48.51.48s.53-.24.53-.48A.73.73,0,0,0,520.45,67.28Zm0-1.73c-.4,0-.43.22-.43.45a.55.55,0,0,0,.41.54c.21-.1.44-.22.44-.54S520.88,65.55,520.46,65.55Z"/><rect class="cls-19" x="526.52" y="61.28" width="9.16" height="9.16"/><path d="M582.71,69.3a4.21,4.21,0,0,1-1.1-.22l.25-.9a2.11,2.11,0,0,0,.86.3c.45,0,.72-.07.72-.49,0-.88-1.83-.58-1.83-2.21a1.28,1.28,0,0,1,1.4-1.29,2.88,2.88,0,0,1,1,.21l-.25.89a1.38,1.38,0,0,0-.74-.27c-.51,0-.56.32-.56.46,0,.74,1.83.42,1.83,2.2C584.27,69.12,583.52,69.3,582.71,69.3Z"/><path d="M585.93,65.42v1h1.27v.82h-1.27v1.93h-.82V64.59h2.15v.83Z"/><path d="M589.43,67.45h-.57v1.71H588V64.59h1.34c.72,0,1.27.32,1.27,1.41S590.13,67.45,589.43,67.45Zm-.07-2h-.5v1.2h.53c.2,0,.42-.14.42-.62S589.54,65.42,589.36,65.42Z"/><path d="M592.22,69.29a3.21,3.21,0,0,1-.84-.14l.23-.87a1.05,1.05,0,0,0,.58.21c.63,0,.76-.7.76-1.15a.71.71,0,0,1-.62.43c-.79,0-1.17-.55-1.17-1.6a1.33,1.33,0,0,1,1.25-1.41c1.12,0,1.32,1.08,1.32,2.13S593.33,69.29,592.22,69.29Zm.18-3.73c-.2,0-.42.15-.42.61,0,0,0,.11,0,.19,0,.25,0,.61.43.61s.43-.18.51-.44C592.91,65.67,592.68,65.56,592.4,65.56Z"/><rect class="cls-20" x="598.52" y="61.28" width="9.16" height="9.16"/><path d="M620.38,69.3a4.29,4.29,0,0,1-1.11-.22l.25-.9a2.16,2.16,0,0,0,.86.3c.45,0,.72-.07.72-.49,0-.88-1.83-.58-1.83-2.21a1.29,1.29,0,0,1,1.41-1.29,2.93,2.93,0,0,1,1,.21l-.25.89a1.38,1.38,0,0,0-.74-.27c-.51,0-.56.32-.56.46,0,.74,1.83.42,1.83,2.2C621.94,69.12,621.19,69.3,620.38,69.3Z"/><path d="M623.6,65.42v1h1.26v.82H623.6v1.93h-.82V64.59h2.15v.83Z"/><path d="M627.1,67.45h-.58v1.71h-.82V64.59H627c.71,0,1.27.32,1.27,1.41S627.8,67.45,627.1,67.45Zm-.07-2h-.51v1.2h.53c.2,0,.43-.14.43-.62S627.2,65.42,627,65.42Z"/><path d="M630.05,69.17V65.86l-.61.62-.24-.76.87-.85h.81v4.3Z"/><path d="M633.16,69.29c-1,0-1.31-.8-1.31-2.3s.4-2.22,1.32-2.22,1.33.73,1.33,2.22S634.17,69.29,633.16,69.29Zm0-3.72c-.47,0-.5.58-.5,1.42,0,1,0,1.5.49,1.5s.52-.56.52-1.5S633.62,65.57,633.17,65.57Z"/><rect class="cls-21" x="639.19" y="61.28" width="9.16" height="9.16"/><path d="M660.92,69.3a4.37,4.37,0,0,1-1.11-.22l.25-.9a2.16,2.16,0,0,0,.86.3c.45,0,.72-.07.72-.49,0-.88-1.83-.58-1.83-2.21a1.29,1.29,0,0,1,1.41-1.29,2.88,2.88,0,0,1,1,.21l-.25.89a1.38,1.38,0,0,0-.74-.27c-.51,0-.56.32-.56.46,0,.74,1.83.42,1.83,2.2C662.48,69.12,661.73,69.3,660.92,69.3Z"/><path d="M664.14,65.42v1h1.26v.82h-1.26v1.93h-.82V64.59h2.15v.83Z"/><path d="M667.64,67.45h-.58v1.71h-.82V64.59h1.34c.71,0,1.27.32,1.27,1.41S668.34,67.45,667.64,67.45Zm-.07-2h-.51v1.2h.53c.21,0,.43-.14.43-.62S667.75,65.42,667.57,65.42Z"/><path d="M670.59,69.17V65.86l-.61.62-.24-.76.88-.85h.8v4.3Z"/><path d="M673.66,69.17V65.86l-.61.62-.24-.76.87-.85h.81v4.3Z"/><rect class="cls-22" x="679.73" y="61.28" width="9.16" height="9.16"/><path d="M702,69.3a4.3,4.3,0,0,1-1.1-.22l.25-.9a2.11,2.11,0,0,0,.86.3c.45,0,.72-.07.72-.49,0-.88-1.83-.58-1.83-2.21a1.29,1.29,0,0,1,1.4-1.29,2.84,2.84,0,0,1,1,.21l-.25.89a1.38,1.38,0,0,0-.73-.27c-.52,0-.57.32-.57.46,0,.74,1.83.42,1.83,2.2C703.6,69.12,702.86,69.3,702,69.3Z"/><path d="M705.27,65.42v1h1.26v.82h-1.26v1.93h-.83V64.59h2.15v.83Z"/><path d="M708.76,67.45h-.57v1.71h-.82V64.59h1.33c.72,0,1.28.32,1.28,1.41S709.47,67.45,708.76,67.45Zm-.07-2h-.5v1.2h.53c.2,0,.42-.14.42-.62S708.87,65.42,708.69,65.42Z"/><path d="M711.72,69.17V65.86l-.61.62-.25-.76.88-.85h.8v4.3Z"/><path d="M713.82,69.16l-.22-.87c.53-.44,1.68-1.38,1.68-2s-.24-.69-.46-.69a1.48,1.48,0,0,0-.87.37l-.23-.87a2.24,2.24,0,0,1,1.11-.3c.59,0,1.26.28,1.26,1.46a3.21,3.21,0,0,1-1.38,2.15h1.45v.79Z"/><rect class="cls-23" x="720.11" y="61.28" width="9.16" height="9.16"/><rect x="744.05" y="110.39" width="36" height="5.21"/><rect class="cls-24" x="52.65" width="1.68" height="125.19"/><rect class="cls-25" x="48.9" width="2.75" height="125.19"/><rect class="cls-7" x="54.72" width="0.9" height="125.19"/><rect class="cls-24" x="1314.1" width="1.68" height="125.19"/><rect class="cls-25" x="1316.78" width="2.75" height="125.19"/><rect class="cls-7" x="1312.8" width="0.9" height="125.19"/><path class="cls-26" d="M207.59,16.85l-4.26.14c-8.05.92-28.66,21.43-29.72,22.85l-68.67.67c-4.16.34-9.73,1.67-10.07,9.24l-.11,2.5,2.48.35a24.12,24.12,0,0,0,3.25.26l17.42-.07,0-.06h12.75l0-.07h12.66l1.49.08h24.21l0-.07,174.18.26c3.91,0,6.57-2,7.93-6.1,1.48-4.43,10.07-29.92,10.07-29.92Z"/><path class="cls-27" d="M343.28,53.43l-173.83-.26-.38.07H144.86l-1.52-.08H131.07l-.39.07h-12.4l-.37.06-17.42.07a24.35,24.35,0,0,1-3.32-.27l-2.93-.41.13-3c.4-8.88,8-9.51,10.53-9.72l68.48-.67c2.3-2.68,22-21.94,29.89-22.85l4.32-.14L362,16.41l-.22.66S353.16,42.56,351.68,47C350.25,51.26,347.43,53.43,343.28,53.43ZM169.1,52.17l174.18.26c3.67,0,6.18-1.94,7.45-5.76,1.34-4,8.5-25.23,9.86-29.26l-153-.06-4.26.14c-7.65.88-28.13,21-29.32,22.65l-.15.2h-.25L105,41c-4.27.35-9.26,1.67-9.58,8.76l-.09,2,2,.28a22.59,22.59,0,0,0,3.19.26l17.06-.06h0l.38-.06h12.4l.38-.07h12.66l1.52.08h23.83Z"/><path class="cls-26" d="M513,16.89l-102-.06s-20.6-.12-21.45-.21c-3.51-.37-5.91,1.28-7.14,4.89-1.82,5.36-10.34,31.09-10.34,31.09l167.12,0,13-35.63Z"/><path class="cls-27" d="M539.52,53.12l-168.16,0,.22-.66c.08-.26,8.53-25.79,10.34-31.09,1.29-3.81,3.94-5.62,7.66-5.23.61.07,13.13.16,21.4.21l102,.06,39.9.1Zm-166.78-1,166.08,0,12.63-34.63L513,17.39l-102-.06c-.85,0-20.64-.12-21.5-.21-3.3-.34-5.46,1.14-6.62,4.55C381.23,26.49,374.09,48,372.74,52.1Z"/><path class="cls-26" d="M577.38,16.89,564.56,52.68l52.59,0,12.93,0h12.17v0l81.53-.15c6.48-1.52,28.64-21.18,29.23-22l68-.82c6.71-.25,9.43-2.67,10.81-9.58l.66-3.29Z"/><path class="cls-27" d="M641.52,53.21l0,0H563.85L577,16.39h.35l255.69-.06-.78,3.89c-1.42,7.11-4.37,9.72-11.28,10L753.23,31c-2.31,2.4-23.16,20.58-29.35,22h-.11Zm-11.44-1H643v0l80.75-.15c6.35-1.57,28.09-20.81,28.88-21.83l.15-.19.26,0,68-.82c6.48-.24,9-2.47,10.33-9.18l.54-2.69-254.11.06L565.27,52.18l51.88,0Z"/><path d="M383.89,49.37H375.6C376,48,382.24,30,385,21.93c.76-2.22,1.85-3.29,4.25-3,1.55.16,3.12,0,5.53,0C391,29.41,387.48,39.33,383.89,49.37Z"/><path class="cls-28" d="M388.6,18.85a4.78,4.78,0,0,1,.64,0,17.81,17.81,0,0,0,1.82.08c1.05,0,2.22,0,3.71,0-3.74,10.49-7.29,20.41-10.88,30.45H375.6C376,48,382.24,30,385,21.93c.68-2,1.65-3.08,3.61-3.08m0-1c-2.91,0-4,2-4.55,3.75-1,3-2.57,7.48-4.1,11.91-3.07,8.89-5.1,14.78-5.32,15.62l-.32,1.24H384.6l.23-.66,7.85-22,3-8.49.47-1.33h-1.42l-2.2,0-1.51,0a16.36,16.36,0,0,1-1.71-.08,6.63,6.63,0,0,0-.75,0Z"/><path d="M579.32,19.17h8.61c-3.77,10.32-7.4,20.24-11.08,30.28h-8.39Z"/><path class="cls-29" d="M587.93,19.17c-3.77,10.32-7.4,20.24-11.08,30.28h-8.39l10.86-30.28h8.61m1.44-1H578.62l-.24.66-4.12,11.48-6.74,18.81L567,50.45h10.51l.24-.65,6.32-17.26,4.76-13,.5-1.34Z"/><path d="M357.7,19.19c-.61,2.26-.93,3.93-1.51,5.51-2.51,6.94-5.25,13.79-7.59,20.78-1.06,3.18-2.87,4.45-6.06,4.19-1.12-.09-2.26,0-3.94,0,3.78-10.56,7.34-20.53,10.9-30.47Z"/><path class="cls-30" d="M357.7,19.19c-.61,2.26-.93,3.93-1.51,5.51-2.51,6.94-5.25,13.79-7.59,20.78-1,2.92-2.58,4.23-5.3,4.23a6.68,6.68,0,0,1-.76,0c-.42,0-.84,0-1.29,0-.76,0-1.6,0-2.65,0,3.78-10.56,7.34-20.53,10.9-30.47h8.2m1.3-1H348.79l-.23.66-5.75,16.06-5.16,14.41-.47,1.34h1.42l1.56,0h1.09c.48,0,.86,0,1.21,0s.57,0,.84,0c3.15,0,5.13-1.56,6.25-4.91,1.49-4.45,3.17-8.93,4.8-13.27.92-2.45,1.87-5,2.78-7.48a34.41,34.41,0,0,0,1-3.51c.16-.64.33-1.33.53-2.09l.34-1.26Z"/><path d="M524.5,49.58h-7.72c3.69-10.28,7.26-20.24,10.91-30.4h7.74C531.73,29.46,528.16,39.4,524.5,49.58Z"/><path class="cls-31" d="M535.43,19.18c-3.7,10.28-7.27,20.22-10.93,30.4h-7.72c3.69-10.28,7.26-20.24,10.91-30.4h7.74m1.42-1H527l-.24.67L520.9,35.14l-5.07,14.1-.48,1.34h9.85l.24-.67,10.93-30.39.48-1.34Z"/><path d="M496.83,19.19c-.65,2.18-1.12,4.09-1.79,5.92-2.46,6.8-5,13.58-7.48,20.36-1.63,4.37-1.64,4.37-6.11,4.25-.77,0-1.55-.14-3-.27l10.81-30.26Z"/><path class="cls-32" d="M496.83,19.19c-.65,2.18-1.12,4.09-1.79,5.92-2.46,6.8-5,13.58-7.48,20.36-1.4,3.75-1.61,4.28-4.45,4.28l-1.66,0c-.77,0-1.55-.14-3-.27l10.81-30.26h7.55m1.35-1h-9.6l-.24.66-4.15,11.61-6.66,18.65-.43,1.21,1.28.12,1.29.13c.68.08,1.21.14,1.76.15l1.68,0c3.55,0,4-1.14,5.38-4.93,2.33-6.28,5-13.38,7.49-20.36.46-1.28.83-2.58,1.22-3.95.19-.66.38-1.33.59-2l.39-1.28Z"/><path d="M412.54,19.16h7.52c-.69,2.29-1.2,4.32-1.91,6.28-2.41,6.68-4.9,13.33-7.35,20-1.6,4.34-.58,4.24-6.08,4.32-.77,0-1.55-.1-3-.2Z"/><path class="cls-33" d="M420.06,19.16c-.69,2.29-1.2,4.32-1.91,6.28-2.41,6.68-4.9,13.33-7.35,20-1.6,4.34-.58,4.24-6.08,4.32h-.12c-.74,0-1.51-.1-2.89-.2l10.83-30.39h7.52m1.34-1h-9.56l-.24.66-10.83,30.4-.44,1.24,1.31.09,1.32.11c.64.05,1.14.09,1.64.09h.46c4.38-.07,5.05-.08,6.11-3.31.15-.46.33-1,.57-1.66.81-2.22,1.64-4.44,2.46-6.66,1.61-4.37,3.28-8.88,4.89-13.34.5-1.36.89-2.74,1.31-4.2.19-.69.39-1.4.62-2.14l.38-1.28Z"/><path d="M295.14,49.49h-7.57c3.65-10.28,7.15-20.16,10.74-30.29h7.74C302.36,29.43,298.8,39.33,295.14,49.49Z"/><path class="cls-34" d="M306.05,19.2c-3.69,10.23-7.25,20.13-10.91,30.29h-7.57c3.65-10.28,7.15-20.16,10.74-30.29h7.74m1.43-1h-9.87l-.24.66L295.21,25l-8.58,24.21-.48,1.33h9.69l.24-.66,3.65-10.14L307,19.53l.49-1.33Z"/><path d="M447.76,49.58h-7.7c3.68-10.31,7.23-20.26,10.86-30.41h7.71Z"/><path class="cls-35" d="M458.63,19.17,447.76,49.58h-7.7c3.68-10.31,7.23-20.26,10.86-30.41h7.71m1.42-1h-9.83l-.24.67-2.79,7.79-8.07,22.61-.48,1.34h9.83l.23-.67,5.48-15.31,5.4-15.09.47-1.34Z"/><path d="M682.54,19.14h7.68l-11,30.37h-7.67C675.31,39.19,678.9,29.22,682.54,19.14Z"/><path class="cls-36" d="M690.22,19.14l-11,30.37h-7.67c3.72-10.32,7.31-20.29,10.95-30.37h7.68m1.42-1h-9.8l-.24.66-8.34,23.14-2.61,7.23-.49,1.34H680l.24-.66,11-30.37.48-1.34Z"/><path d="M640.88,49.46h-7.62c3.71-10.35,7.29-20.31,10.89-30.32h7.71Z"/><path class="cls-37" d="M651.86,19.14l-11,30.32h-7.62c3.71-10.35,7.29-20.31,10.89-30.32h7.71m1.42-1h-9.84l-.24.66L632.32,49.12l-.48,1.34h9.74l.24-.66,6.24-17.24,4.74-13.08.48-1.34Z"/><path d="M589.79,49.4h-7.61c3.66-10.32,7.17-20.19,10.75-30.26,1.25-.07,2.4-.2,3.56-.2s2.32.12,4.2.23C597,29.51,593.38,39.46,589.79,49.4Z"/><path class="cls-38" d="M596.51,18.94c1.16,0,2.32.12,4.18.23-3.73,10.34-7.31,20.29-10.9,30.23h-7.61c3.66-10.32,7.17-20.19,10.75-30.26,1.25-.07,2.4-.2,3.56-.2h0m0-1h0c-.84,0-1.64.06-2.5.13l-1.12.08-.66,0-.22.62L588.73,28l-7.5,21.07-.47,1.34h9.73l.24-.66,10.9-30.23.46-1.26-1.34-.08-1.66-.11c-1-.07-1.78-.12-2.58-.12Z"/><path d="M653.65,49.49h-7.52c3.68-10.35,7.21-20.33,10.77-30.35h7.76C660.91,29.48,657.29,39.47,653.65,49.49Z"/><path class="cls-39" d="M664.66,19.14c-3.75,10.34-7.37,20.33-11,30.35h-7.52c3.68-10.35,7.21-20.33,10.77-30.35h7.76m1.43-1h-9.9l-.23.66-2.86,8.05-7.91,22.31-.47,1.33h9.63l.24-.66L665,21.22l.63-1.74.49-1.34Z"/><path d="M326.06,49.1c3.52-9.9,7-19.78,10.64-29.88h7.4c-.62,2.13-1.09,4.12-1.77,6C340,31.83,337.57,38.39,335.17,45,333.21,50.34,332.37,50.74,326.06,49.1Z"/><path class="cls-40" d="M344.1,19.22c-.62,2.13-1.09,4.12-1.77,6C340,31.83,337.57,38.39,335.17,45c-1.32,3.63-2.14,5-4.47,5a20.5,20.5,0,0,1-4.64-.85c3.52-9.9,7-19.78,10.64-29.88h7.4m1.33-1H336l-.24.66L325.11,48.76l-.36,1,1.05.28a21.32,21.32,0,0,0,4.9.88c3.12,0,4.13-2.14,5.41-5.66l1.37-3.72c1.91-5.23,3.89-10.64,5.79-16,.48-1.34.84-2.68,1.23-4.1.18-.65.36-1.32.56-2l.37-1.28Z"/><path d="M695.27,19.15H703l-11,30.4H684.5Z"/><path class="cls-41" d="M703,19.15l-11,30.4H684.5l10.77-30.4H703m1.43-1h-9.87l-.24.67L687.8,37.25l-4.25,12-.47,1.33h9.66l.24-.66,6.7-18.57L704,19.49l.49-1.34Z"/><path d="M631.31,19.12h7.77c-3.73,10.34-7.32,20.3-10.94,30.36h-7.56Z"/><path class="cls-42" d="M639.08,19.12c-3.73,10.34-7.32,20.3-10.94,30.36h-7.56l10.73-30.36h7.77m1.42-1h-9.9l-.23.67L626.62,29.4l-7,19.74-.47,1.34h9.67l.24-.66,5.14-14.26,5.8-16.1.48-1.34Z"/><path d="M285.58,19.07h7.76L282.17,49.54h-7.4C278.4,39.29,281.94,29.33,285.58,19.07Z"/><path class="cls-43" d="M293.34,19.07,282.17,49.54h-7.4c3.63-10.25,7.17-20.21,10.81-30.47h7.76m1.43-1h-9.9l-.23.67-5.5,15.48-5.32,15-.47,1.34h9.52l.24-.66L291,28.36l3.28-8.94.49-1.35Z"/><path d="M502.09,19.17h7.52c-.59,2-1,3.85-1.61,5.56-2.38,6.57-4.78,13.12-7.26,19.65-2.2,5.82-2.37,5.87-9.38,4.73Z"/><path class="cls-44" d="M509.61,19.17c-.59,2-1,3.85-1.61,5.56-2.38,6.57-4.78,13.12-7.26,19.65-1.53,4.06-2.08,5.31-4.65,5.31a34.37,34.37,0,0,1-4.73-.58l10.73-29.94h7.52m1.32-1h-9.54l-.24.66L495.61,34.3l-5.19,14.47L490,49.9l1.18.19a34,34,0,0,0,4.89.6c3.33,0,4.09-2,5.59-5.95,2.19-5.78,4.49-12,7.26-19.67.43-1.2.76-2.42,1.11-3.72.16-.61.33-1.24.52-1.9l.36-1.28Z"/><path d="M260,19.1h7.48c-3.25,10.51-7.29,20.4-10.74,30.41h-7.55Z"/><path class="cls-45" d="M267.48,19.1c-3.25,10.51-7.29,20.4-10.74,30.41h-7.55L260,19.1h7.48m1.36-1h-9.55l-.23.66L248.25,49.18l-.48,1.33h9.68l.23-.67c1.31-3.8,2.74-7.67,4.12-11.41,2.27-6.15,4.61-12.5,6.64-19l.4-1.29Z"/><path d="M710,49.5c3.69-10.26,7.24-20.15,10.89-30.28h7.65L717.65,49.5Z"/><path class="cls-46" d="M728.54,19.22,717.65,49.5H710c3.69-10.26,7.24-20.15,10.89-30.28h7.65m1.42-1h-9.78l-.23.66-5.75,16-5.14,14.3-.48,1.34h9.77l.24-.67,10.89-30.27.48-1.34Z"/><path d="M540.49,19.27h7.74l-11,30.13h-7.63C533.31,39.17,536.9,29.2,540.49,19.27Z"/><path class="cls-47" d="M548.23,19.27l-11,30.13h-7.63c3.69-10.23,7.28-20.2,10.87-30.13h7.74m1.43-1h-9.88l-.23.66-5,13.9-5.85,16.23-.49,1.34H538l.24-.66,3.42-9.39,7.56-20.74.49-1.34Z"/><path d="M615.23,49.48h-7.46c3.67-10.36,7.18-20.31,10.73-30.34h7.82C622.54,29.47,618.91,39.4,615.23,49.48Z"/><path class="cls-48" d="M626.32,19.14c-3.78,10.33-7.41,20.26-11.09,30.34h-7.46c3.67-10.36,7.18-20.31,10.73-30.34h7.82m1.43-1h-10l-.23.66L611.4,36.24l-4.57,12.91-.47,1.33h9.57l.24-.65,2.67-7.32,8.42-23,.49-1.34Z"/><path d="M318.92,19.22C315,29.76,311.4,39.62,307.76,49.5h-7.47c3.66-10.24,7.18-20.13,10.81-30.28Z"/><path class="cls-49" d="M318.92,19.22C315,29.76,311.4,39.62,307.76,49.5h-7.47c3.66-10.24,7.18-20.13,10.81-30.28h7.82m1.44-1h-10l-.24.66-10.8,30.29-.48,1.33h9.59l.24-.65,6.8-18.45,4.36-11.83.5-1.35Z"/><path d="M210.92,49.16l10.71-30H229c-.63,2.2-1.09,4.18-1.76,6.07-2.34,6.57-4.75,13.1-7.13,19.65C218.08,50.32,217.61,50.56,210.92,49.16Z"/><path class="cls-50" d="M229,19.12c-.63,2.2-1.09,4.18-1.76,6.07-2.34,6.57-4.75,13.1-7.13,19.65-1.36,3.75-2,5-4.42,5a26.14,26.14,0,0,1-4.73-.72l10.71-30H229m1.33-1h-9.36l-.24.67-4,11.1L210,48.83l-.38,1.08,1.12.23a26.49,26.49,0,0,0,4.94.74c3.14,0,4-2,5.36-5.7l2-5.42c1.7-4.66,3.46-9.48,5.15-14.23.47-1.32.83-2.66,1.22-4.08.17-.67.36-1.35.56-2.05l.37-1.28Z"/><path d="M666.4,49.73,659,49.32,669.7,19.13h7.77C673.74,29.44,670.14,39.38,666.4,49.73Z"/><path class="cls-51" d="M677.47,19.13c-3.73,10.31-7.33,20.25-11.07,30.6L659,49.32,669.7,19.13h7.77m1.43-1H669l-.24.66-.15.44L658.05,49l-.45,1.26,1.34.08,4.39.24,3,.17.74,0,.25-.7,6-16.66,5-13.94.49-1.34Z"/><path d="M602.3,49.49h-7.43l10.9-30.4h7.53C609.91,29.63,606.19,39.63,602.3,49.49Z"/><path class="cls-52" d="M613.3,19.09c-3.39,10.54-7.11,20.54-11,30.4h-7.43l10.9-30.4h7.53m1.38-1h-9.61l-.24.66-7,19.58-3.88,10.82-.48,1.34H603l.25-.63c4.56-11.57,8.06-21.25,11-30.46l.43-1.31Z"/><path d="M708.08,19.14h7.74c-3.75,10.36-7.34,20.33-11,30.38h-7.52C701,39.2,704.5,29.25,708.08,19.14Z"/><path class="cls-53" d="M715.82,19.14c-3.75,10.36-7.34,20.33-11,30.38h-7.52C701,39.2,704.5,29.25,708.08,19.14h7.74m1.42-1h-9.87l-.23.67-6.9,19.46-3.86,10.92-.48,1.33h9.65l.23-.66,5.91-16.36,5.07-14,.48-1.34Z"/><path d="M422.21,49.29h-7.54l10.65-30.15h7.77Z"/><path class="cls-54" d="M433.09,19.14,422.21,49.29h-7.54l10.65-30.15h7.77m1.43-1h-9.91l-.23.67-5.74,16.25L413.73,49l-.47,1.33h9.65l.24-.66L434,19.48l.49-1.34Z"/><path d="M514.93,19.13h7.76l-11,30.1h-7.65Z"/><path class="cls-55" d="M522.69,19.13l-11,30.1h-7.65l10.84-30.1h7.76m1.42-1h-9.89l-.23.66-6.26,17.4L503.15,48.9l-.48,1.33h9.77l.24-.65,11-30.11.48-1.34Z"/><path d="M460.5,49.41H453l10.74-30.26h7.77Z"/><path class="cls-56" d="M471.49,19.15l-11,30.26H453l10.74-30.26h7.77m1.43-1H463l-.23.66L452,49.08l-.47,1.33h9.63l.24-.66,6.41-17.65,4.58-12.61.49-1.34Z"/><path d="M476.48,19.14h7.81c-3.75,10.34-7.36,20.29-11.07,30.5l-7.36-.37C469.5,38.93,473,29.07,476.48,19.14Z"/><path class="cls-57" d="M484.29,19.14c-3.75,10.34-7.36,20.29-11.07,30.5l-7.36-.37c3.64-10.34,7.12-20.2,10.62-30.13h7.81m1.43-1h-10l-.23.67-5.25,14.88-5.37,15.25-.45,1.26,1.34.07,5.74.29,1.62.08.74,0,.25-.7,5.57-15.33,5.5-15.17.49-1.34Z"/><path d="M320.62,49.38l-7.58.38,10.9-30.61h7.76Z"/><path class="cls-58" d="M331.7,19.15,320.62,49.38l-7.58.38,10.9-30.61h7.76m1.43-1h-9.9l-.23.67-10.9,30.6-.51,1.41,1.5-.07h.17l7.42-.37.66,0,.22-.62,1.84-5,9.23-25.2.5-1.35Z"/><path d="M396.49,49.38h-7.44l10.71-30.27h7.51C404.09,29.53,400.2,39.35,396.49,49.38Z"/><path class="cls-59" d="M407.27,19.11c-3.18,10.42-7.07,20.24-10.78,30.27h-7.44l10.71-30.27h7.51m1.35-1h-9.57l-.23.66-5,14.22-5.68,16.06-.47,1.33h9.55l.24-.65c.78-2.11,1.56-4.2,2.35-6.29,2.91-7.76,5.92-15.78,8.44-24l.4-1.29Z"/><path d="M205.58,49.29h-7.5c3.69-10.34,7.21-20.23,10.75-30.17h7.64C212.74,29.48,209.14,39.43,205.58,49.29Z"/><path class="cls-60" d="M216.47,19.12c-3.73,10.36-7.33,20.31-10.89,30.17h-7.5c3.69-10.34,7.21-20.23,10.75-30.17h7.64m1.43-1h-9.77l-.24.67-3,8.46L197.14,49l-.48,1.34h9.63l.24-.66,10.89-30.17.48-1.34Z"/><path d="M445.93,19.16,435,49.24h-7.45l10.57-30.08Z"/><path class="cls-61" d="M445.93,19.16,435,49.24h-7.45l10.57-30.08h7.84m1.43-1h-10l-.23.67L426.58,48.91l-.47,1.33h9.56l.24-.66,6.79-18.64,4.17-11.44.49-1.34Z"/><path d="M272.76,19.13h7.45c-.66,2.24-1.14,4.26-1.85,6.2C276,31.89,273.5,38.44,271,45c-1.94,5.16-1.34,4.34-6.42,4.57-.64,0-1.28,0-2.67,0Z"/><path class="cls-62" d="M280.21,19.13c-.66,2.24-1.14,4.26-1.85,6.2C276,31.89,273.5,38.44,271,45c-1.94,5.16-1.34,4.34-6.42,4.57h-2.67l10.82-30.42h7.45m1.33-1h-9.48l-.24.66L267,32.39l-6,16.83-.47,1.33h4.13c.69,0,1.27,0,1.77,0,3.53-.08,3.81-.51,5.25-4.38l.3-.79.55-1.47c2.25-6,4.56-12.11,6.78-18.19.5-1.35.87-2.72,1.27-4.17.19-.68.38-1.37.6-2.09l.37-1.28Z"/><path d="M255,18.94c-3.65,10-7,19.09-10.33,28.25a3,3,0,0,1-3.21,2.34c-1.42-.05-2.85,0-5.06,0,3.72-10.47,7.21-20.31,10.78-30.37,1.2-.07,2.35-.17,3.51-.2S253,18.94,255,18.94Z"/><path class="cls-63" d="M252.1,18.93H255c-3.65,10-7,19.09-10.33,28.25a3,3,0,0,1-3,2.34h-.16c-.55,0-1.1,0-1.69,0l-3.37,0c3.72-10.47,7.21-20.31,10.78-30.37,1.2-.07,2.35-.17,3.51-.2l1.41,0m0-1-1.44,0c-.82,0-1.65.08-2.45.13l-1.09.07-.66,0-.22.62-3.35,9.44-7.43,20.93L235,50.52h4.78l1.66,0h.19a4,4,0,0,0,4-3c2.46-6.8,4.94-13.56,7.57-20.72l2.76-7.52.5-1.35H252.1Z"/><path d="M223.71,49.06,234.39,19.2h7.33c-.6,2.12-1,4-1.66,5.85q-3.5,9.68-7.14,19.29C230.73,50.16,230.7,50.15,223.71,49.06Z"/><path class="cls-64" d="M241.72,19.2c-.6,2.12-1,4-1.66,5.85q-3.5,9.68-7.14,19.29c-1.52,4.06-2,5.28-4.52,5.28a34.83,34.83,0,0,1-4.69-.56L234.39,19.2h7.33m1.32-1h-9.36l-.23.66-5.66,15.83-5,14-.41,1.14,1.2.18a36.11,36.11,0,0,0,4.84.57c3.23,0,3.93-1.86,5.46-5.92,2.66-7.06,5-13.38,7.14-19.31.46-1.28.79-2.57,1.15-3.94.17-.64.34-1.3.53-2L243,18.2Z"/><path d="M203.64,19.25c-3.73,10.43-7.26,20.29-10.83,30.25h-7.14a5,5,0,0,1,0-1.56c2.25-6.31,4.4-12.68,6.89-18.91C194.45,24.33,197,20,203.64,19.25Z"/><path class="cls-65" d="M203.64,19.25c-3.73,10.43-7.26,20.29-10.83,30.25h-7.14a5,5,0,0,1,0-1.56c2.25-6.31,4.4-12.68,6.89-18.91,1.87-4.7,4.39-9,11.06-9.78m1.49-1.18-1.6.18c-7.12.82-9.92,5.49-11.88,10.41-1.88,4.7-3.58,9.55-5.24,14.24q-.82,2.35-1.67,4.71a3.34,3.34,0,0,0-.1,1.39c0,.16,0,.32,0,.5v1h8.85l.23-.66,8.92-24.91,1.91-5.34.55-1.52Z"/><path d="M733.69,19.1h7.37c-.57,2.06-1,3.92-1.6,5.72-1.74,5-3.58,9.92-5.36,14.89s-5,8.3-11,9.7C726.32,39,730.21,29.3,733.69,19.1Z"/><path class="cls-66" d="M741.06,19.1c-.57,2.06-1,3.92-1.6,5.72-1.74,5-3.58,9.92-5.36,14.89s-5,8.3-11,9.7C726.32,39,730.21,29.3,733.69,19.1h7.37m1.32-1H733l-.23.67c-1.32,3.87-2.72,7.73-4.07,11.46-2.22,6.09-4.5,12.39-6.48,18.89l-.51,1.66,1.69-.39C729.31,49,733,45.71,735,40.05l2-5.64c1.1-3,2.24-6.16,3.32-9.26.44-1.26.77-2.53,1.12-3.87q.24-.93.51-1.92l.35-1.26Z"/><path d="M740.87,34.87l5.62-15.67H754c-1.06,3.1-2,6-3.07,8.87a3.24,3.24,0,0,1-1.29,1.41C747,31.15,744.37,32.74,740.87,34.87Z"/><path class="cls-67" d="M754,19.2c-1.06,3.1-2,6-3.07,8.87a3.24,3.24,0,0,1-1.29,1.41c-2.63,1.67-5.3,3.26-8.8,5.39l5.62-15.67H754m1.4-1h-9.64l-.24.66-5.62,15.67L739,37.2l2.41-1.47,2.7-1.64c2.25-1.37,4.2-2.55,6.11-3.76a4.29,4.29,0,0,0,1.7-1.91c.78-2.13,1.5-4.25,2.26-6.49l.82-2.41.45-1.32Z"/><path d="M180,49.45h-7.67c2-4.34,1.88-9,7-11.08,2-.79,3.4-2.84,5.08-4.31l.92.63C183.57,39.55,181.83,44.41,180,49.45Z"/><path class="cls-68" d="M184.4,34.06l.92.63c-1.75,4.86-3.49,9.72-5.3,14.76h-7.67c2-4.34,1.88-9,7-11.08,2-.79,3.4-2.84,5.08-4.31m-.07-1.27-.58.52c-.56.48-1.09,1-1.6,1.55a10.39,10.39,0,0,1-3.21,2.58c-4.19,1.69-5.26,5-6.29,8.27A33.34,33.34,0,0,1,171.44,49l-.63,1.41h9.92l.24-.67,2.15-6L186.26,35l.26-.72-.63-.44-.46-.32-.45-.31-.65-.45Z"/><path d="M759.19,19.11h7.6l-2.4,7.65-7.71.36C757.59,24.21,758.35,21.78,759.19,19.11Z"/><path class="cls-69" d="M766.79,19.11l-2.4,7.65-7.71.36c.91-2.91,1.67-5.34,2.51-8h7.6m1.36-1h-9.7l-.22.7-.32,1-2.18,7-.43,1.37,1.43-.07,3.4-.16,4.31-.2.69,0,.21-.67L766,24.9l1.72-5.49.41-1.3Z"/><path d="M805.21,19.17c-.94,2.85-1.71,5.16-2.47,7.49h-7.49c.84-2.71,1.55-5,2.31-7.49Z"/><path class="cls-70" d="M805.21,19.17c-.94,2.85-1.71,5.16-2.47,7.49h-7.49c.84-2.71,1.55-5,2.31-7.49h7.65m1.38-1h-9.76l-.22.7-1.19,3.86-1.12,3.63-.4,1.3h9.56l.23-.69,2.47-7.49.43-1.31Z"/><path d="M777.21,26.58h-7.53c.85-2.73,1.56-5,2.29-7.41h7.63C778.74,21.85,778,24.19,777.21,26.58Z"/><path class="cls-71" d="M779.6,19.17c-.86,2.68-1.62,5-2.39,7.41h-7.53c.85-2.73,1.56-5,2.29-7.41h7.63m1.37-1h-9.74l-.22.71-1.25,4.05-1,3.36-.4,1.29h9.61l.22-.69,1-3,1.42-4.42.42-1.31Z"/><path d="M808,26.64c.92-2.8,1.68-5.12,2.44-7.47h7.51c-.83,2.65-1.55,5-2.33,7.47Z"/><path class="cls-72" d="M817.91,19.17c-.83,2.65-1.55,5-2.33,7.47H808c.92-2.8,1.68-5.12,2.44-7.47h7.51m1.35-1h-9.58l-.23.69-1.62,5-.82,2.5-.42,1.31h9.73l.22-.7,1.18-3.8,1.14-3.68.4-1.29Z"/><path d="M789.88,26.9c-1.66,0-2.84,0-4,0-.91,0-1.82-.09-3.35-.17.79-2.68,1.49-5.08,2.22-7.55h7.62C791.5,21.84,790.75,24.19,789.88,26.9Z"/><path class="cls-73" d="M792.36,19.17c-.86,2.67-1.61,5-2.48,7.73H787.3l-1.43,0c-.91,0-1.82-.09-3.35-.17.79-2.68,1.49-5.08,2.22-7.55h7.62m1.37-1H784l-.21.72-.26.89-2,6.66-.36,1.21,1.26.07,1.37.08c.78,0,1.4.08,2,.09l1.45,0h3.31l.22-.7,1.88-5.87.6-1.85.42-1.31Z"/><path d="M156.82,42.91c-.91,2.38-1.68,4.42-2.51,6.61h-6.72C147.55,43,149,41.85,156.82,42.91Z"/><path class="cls-74" d="M152.68,42.56a32.53,32.53,0,0,1,4.14.35c-.91,2.38-1.68,4.42-2.51,6.61h-6.72c0-5.18.86-7,5.09-7m0-1h0c-2.14,0-3.53.43-4.5,1.41-1.35,1.35-1.61,3.6-1.59,6.56v1H155l.25-.65,2.26-6,.24-.65.45-1.17L157,41.92a31.57,31.57,0,0,0-4.27-.36Z"/><path d="M162.1,42.59l7.59-.35c-1,2.77-1.77,5-2.57,7.28h-7.51C160.53,47,161.3,44.83,162.1,42.59Z"/><path class="cls-75" d="M169.69,42.24c-1,2.77-1.77,5-2.57,7.28h-7.51c.92-2.55,1.69-4.69,2.49-6.93l7.59-.35m1.44-1.07-1.49.07-5.93.28-1.65.07-.67,0-.23.63-1.44,4-1.05,2.92-.48,1.34h9.64l.24-.67.09-.27,2.47-7,.5-1.4Z"/><path d="M116,49.57h-7.4c.82-2.48,1.53-4.63,2.28-6.88h7.5Z"/><path class="cls-76" d="M118.33,42.69c-.83,2.4-1.56,4.53-2.38,6.88h-7.4c.82-2.48,1.53-4.63,2.28-6.88h7.5m1.41-1H110.1l-.22.69-2.28,6.88-.44,1.31h9.5l.23-.67L118,46.81,119.28,43l.46-1.33Z"/><path d="M123.58,42.68h7.55l-2.4,6.83h-7.38Z"/><path class="cls-77" d="M131.13,42.68c-.85,2.42-1.6,4.54-2.4,6.83h-7.38c.79-2.43,1.49-4.58,2.23-6.83h7.55m1.41-1h-9.69l-.22.69L120.4,49.2,120,50.51h9.47l.24-.67,1.22-3.49L132.07,43l.47-1.33Z"/><path d="M144,42.92c-1,2.53-1.76,4.57-2.51,6.52h-7.3l2.15-6.52Z"/><path class="cls-78" d="M144,42.92c-1,2.53-1.76,4.57-2.51,6.52h-7.3l2.15-6.52H144m1.46-1h-9.84l-.23.69-1,3-1.17,3.53-.44,1.31h9.38l.24-.64,1.39-3.59,1.13-2.93.52-1.36Z"/><path d="M823.17,19.11h5.94c-1.13,5.64-2.79,7.16-8.22,7.37C821.64,24,822.37,21.7,823.17,19.11Z"/><path class="cls-79" d="M829.11,19.11c-1.13,5.64-2.79,7.16-8.22,7.37.75-2.45,1.48-4.78,2.28-7.37h5.94m1.21-1h-7.89l-.22.71-.69,2.24-1.59,5.12-.41,1.35,1.4-.06c5.89-.21,8-2,9.17-8.16l.23-1.2Z"/><path d="M105.17,42.78c-1.19,7-1.74,7.44-7.55,6.62C97.81,45.1,99.88,43.22,105.17,42.78Z"/><path class="cls-80" d="M105.17,42.78c-.93,5.44-1.47,6.92-4.42,6.92a23.92,23.92,0,0,1-3.13-.3c.19-4.3,2.26-6.18,7.55-6.62m1.2-1.1-1.28.1c-5.72.47-8.25,2.74-8.47,7.58l0,.9.9.13a23.71,23.71,0,0,0,3.27.31c3.91,0,4.51-2.52,5.4-7.75l.22-1.27Z"/><circle cx="799.27" cy="90.4" r="4.71"/><circle cx="870.69" cy="90.4" r="4.71"/><path id="path1334" d="M99.5,88.19l-1.64-.94v.67H89.5l1.63-1.72a.84.84,0,0,1,.51-.19H93a.83.83,0,0,0,.77.55.82.82,0,0,0,0-1.64.83.83,0,0,0-.77.55H91.65a1.51,1.51,0,0,0-1,.44s0,0,0,0-1.73,1.82-1.73,1.82a.84.84,0,0,1-.5.19h-1a1.37,1.37,0,1,0,0,.54h3a.92.92,0,0,1,.51.2l1.72,1.82h0a1.53,1.53,0,0,0,1,.44H95v.55h1.64V89.83H95v.55H93.68a.89.89,0,0,1-.5-.2l-1.63-1.72h6.31v.68Z"/><path class="cls-6" d="M85.2,98.6h15.55v.18c0,1.35,0,2.7,0,4.06a.52.52,0,0,1-.12.31c-.76.84-1.53,1.68-2.31,2.5a.39.39,0,0,1-.27.11H87.88a.35.35,0,0,1-.24-.1c-.78-.83-1.56-1.67-2.32-2.51a.42.42,0,0,1-.12-.26c0-1.4,0-2.79,0-4.19ZM93,99.78c-2.13,0-4.26,0-6.39,0-.16,0-.21,0-.21.21,0,.79,0,1.58,0,2.37a.41.41,0,0,0,.11.28c.55.62,1.11,1.23,1.67,1.83a.34.34,0,0,0,.23.1h9.15a.34.34,0,0,0,.23-.1c.56-.6,1.12-1.21,1.67-1.83a.41.41,0,0,0,.11-.28c0-.78,0-1.57,0-2.36,0-.18,0-.22-.23-.22C97.22,99.79,95.1,99.78,93,99.78Z"/><path class="cls-81" d="M93,99.78c2.12,0,4.24,0,6.36,0,.18,0,.23,0,.23.22,0,.79,0,1.58,0,2.36a.41.41,0,0,1-.11.28c-.55.62-1.11,1.23-1.67,1.83a.34.34,0,0,1-.23.1H88.4a.34.34,0,0,1-.23-.1c-.56-.6-1.12-1.21-1.67-1.83a.41.41,0,0,1-.11-.28c0-.79,0-1.58,0-2.37,0-.17.05-.21.21-.21C88.72,99.79,90.85,99.78,93,99.78Zm-.61,2.38h1.21v-.57h.6v.58h1.2v-.58H96v.57h1.2v-.59h1.19V100.4H87.59v1.18h1.2v.59H90v-.58h.6v.58h1.19v-.58h.59Z"/><path class="cls-6" d="M92.37,102.16v-.57h-.59v.58H90.59v-.58H90v.58h-1.2v-.59h-1.2V100.4H98.36v1.17H97.17v.59H96v-.57h-.59v.58h-1.2v-.58h-.6v.57Z"/><rect class="cls-82" x="88.79" y="101.59" width="1.19" height="0.58"/><rect class="cls-82" x="90.59" y="101.59" width="1.19" height="0.58"/><rect class="cls-82" x="92.39" y="101.59" width="1.19" height="0.58"/><rect class="cls-82" x="94.19" y="101.59" width="1.19" height="0.58"/><rect class="cls-82" x="95.98" y="101.59" width="1.19" height="0.58"/><rect class="cls-4" x="108.3" y="77.52" width="41.99" height="29.25"/><path class="cls-83" d="M149.7,105.91H108.9V78.14h40.8Zm-39.8-1h38.8V79.14H109.9Z"/><rect class="cls-4" x="121.5" y="103.9" width="15.59" height="2.25"/><rect class="cls-83" x="122.7" y="103.68" width="13.2" height="1.8"/><rect class="cls-4" x="181.64" y="80.09" width="161.76" height="29.25"/><path class="cls-83" d="M223.15,108.48H182.34V80.71h40.81Zm-39.81-1h38.81V81.71H183.34Z"/><rect class="cls-4" x="194.95" y="106.46" width="15.59" height="2.25"/><rect class="cls-83" x="196.15" y="106.24" width="13.2" height="1.8"/><path class="cls-83" d="M263,108.48h-40.8V80.71H263Zm-39.8-1H262V81.71h-38.8Z"/><rect class="cls-4" x="234.76" y="106.46" width="15.59" height="2.25"/><rect class="cls-83" x="235.95" y="106.24" width="13.2" height="1.8"/><path class="cls-83" d="M302.82,108.48H262V80.71h40.8Zm-39.8-1h38.8V81.71H263Z"/><rect class="cls-4" x="274.63" y="106.46" width="15.59" height="2.25"/><rect class="cls-83" x="275.82" y="106.24" width="13.2" height="1.8"/><path class="cls-83" d="M342.7,108.48H301.89V80.71H342.7Zm-39.81-1H341.7V81.71H302.89Z"/><rect class="cls-4" x="314.5" y="106.46" width="15.59" height="2.25"/><rect class="cls-83" x="315.69" y="106.24" width="13.2" height="1.8"/><rect class="cls-4" x="375.72" y="80.09" width="161.76" height="29.25"/><path class="cls-83" d="M417.23,108.48H376.42V80.71h40.81Zm-39.81-1h38.81V81.71H377.42Z"/><rect class="cls-4" x="389.03" y="106.46" width="15.59" height="2.25"/><rect class="cls-83" x="390.22" y="106.24" width="13.2" height="1.8"/><path class="cls-83" d="M457,108.48h-40.8V80.71H457Zm-39.8-1H456V81.71h-38.8Z"/><rect class="cls-4" x="428.84" y="106.46" width="15.59" height="2.25"/><rect class="cls-83" x="430.03" y="106.24" width="13.2" height="1.8"/><path class="cls-83" d="M496.9,108.48H456.1V80.71h40.8Zm-39.8-1h38.8V81.71H457.1Z"/><rect class="cls-4" x="468.71" y="106.46" width="15.59" height="2.25"/><rect class="cls-83" x="469.9" y="106.24" width="13.2" height="1.8"/><path class="cls-83" d="M536.77,108.48H496V80.71h40.8Zm-39.8-1h38.8V81.71H497Z"/><rect class="cls-4" x="508.58" y="106.46" width="15.59" height="2.25"/><rect class="cls-83" x="509.77" y="106.24" width="13.2" height="1.8"/><rect class="cls-4" x="568.97" y="80.09" width="161.76" height="29.25"/><path class="cls-83" d="M610.48,108.48H569.67V80.71h40.81Zm-39.81-1h38.81V81.71H570.67Z"/><rect class="cls-4" x="582.28" y="106.46" width="15.59" height="2.25"/><rect class="cls-83" x="583.47" y="106.24" width="13.2" height="1.8"/><path class="cls-83" d="M650.28,108.48h-40.8V80.71h40.8Zm-39.8-1h38.8V81.71h-38.8Z"/><rect class="cls-4" x="622.08" y="106.46" width="15.59" height="2.25"/><rect class="cls-83" x="623.28" y="106.24" width="13.2" height="1.8"/><path class="cls-83" d="M690.15,108.48h-40.8V80.71h40.8Zm-39.8-1h38.8V81.71h-38.8Z"/><rect class="cls-4" x="661.96" y="106.46" width="15.59" height="2.25"/><rect class="cls-83" x="663.15" y="106.24" width="13.2" height="1.8"/><path class="cls-83" d="M730,108.48h-40.8V80.71H730Zm-39.8-1H729V81.71h-38.8Z"/><rect class="cls-4" x="701.83" y="106.46" width="15.59" height="2.25"/><rect class="cls-83" x="703.02" y="106.24" width="13.2" height="1.8"/></svg>