<svg id="Camada_1" data-name="Camada 1" xmlns="http://www.w3.org/2000/svg" xmlns:xlink="http://www.w3.org/1999/xlink" viewBox="0 0 1368 125.19"><defs><style>.cls-1{fill:#d4d4d4;}.cls-2{fill:#fff;}.cls-3{fill:url(#Gradiente_sem_nome_185);}.cls-4{fill:url(#Gradiente_sem_nome_46);}.cls-5{fill:#1a1a1a;}.cls-6{fill:#424143;}.cls-7{fill:gray;}.cls-8{fill:url(#Gradiente_sem_nome_10);}.cls-9{fill:#666;}.cls-10{fill:#969696;}.cls-11{fill:url(#Gradiente_sem_nome_34);}.cls-12{fill:url(#Gradiente_sem_nome_46-2);}.cls-13{fill:url(#Gradiente_sem_nome_34-2);}.cls-14{fill:url(#Gradiente_sem_nome_46-3);}.cls-15{fill:url(#Gradiente_sem_nome_34-3);}.cls-16{fill:url(#Gradiente_sem_nome_46-4);}.cls-17{fill:url(#Gradiente_sem_nome_34-4);}.cls-18{fill:url(#Gradiente_sem_nome_46-5);}.cls-19{fill:url(#Gradiente_sem_nome_34-5);}.cls-20{fill:url(#Gradiente_sem_nome_46-6);}.cls-21{fill:url(#Gradiente_sem_nome_34-6);}.cls-22{fill:url(#Gradiente_sem_nome_46-7);}.cls-23{fill:#00ec00;}.cls-24{fill:url(#Gradiente_sem_nome_34-7);}.cls-25{fill:url(#Gradiente_sem_nome_46-8);}.cls-26{fill:url(#Gradiente_sem_nome_66);}.cls-27{fill:url(#Gradiente_sem_nome_66-2);}.cls-28{fill:url(#Gradiente_sem_nome_66-3);}.cls-29{fill:url(#Gradiente_sem_nome_66-4);}.cls-30{fill:url(#Gradiente_sem_nome_66-5);}.cls-31{fill:url(#Gradiente_sem_nome_66-6);}.cls-32{fill:url(#Gradiente_sem_nome_66-7);}.cls-33{fill:url(#Gradiente_sem_nome_66-8);}.cls-34{fill:url(#Gradiente_sem_nome_66-9);}.cls-35{fill:url(#Gradiente_sem_nome_66-10);}.cls-36{fill:url(#Gradiente_sem_nome_66-11);}.cls-37{fill:url(#Gradiente_sem_nome_66-12);}.cls-38{fill:url(#Gradiente_sem_nome_66-13);}.cls-39{fill:url(#Gradiente_sem_nome_66-14);}.cls-40{fill:url(#Gradiente_sem_nome_66-15);}.cls-41{fill:url(#Gradiente_sem_nome_66-16);}.cls-42{fill:url(#Gradiente_sem_nome_66-17);}.cls-43{fill:url(#Gradiente_sem_nome_66-18);}.cls-44{fill:url(#Gradiente_sem_nome_66-19);}.cls-45{fill:url(#Gradiente_sem_nome_66-20);}.cls-46{fill:url(#Gradiente_sem_nome_66-21);}.cls-47{fill:url(#Gradiente_sem_nome_66-22);}.cls-48{fill:url(#Gradiente_sem_nome_66-23);}.cls-49{fill:url(#Gradiente_sem_nome_66-24);}.cls-50{fill:url(#Gradiente_sem_nome_66-25);}.cls-51{fill:url(#Gradiente_sem_nome_66-26);}.cls-52{fill:url(#Gradiente_sem_nome_66-27);}.cls-53{fill:url(#Gradiente_sem_nome_66-28);}.cls-54{fill:url(#Gradiente_sem_nome_66-29);}.cls-55{fill:url(#Gradiente_sem_nome_66-30);}.cls-56{fill:url(#Gradiente_sem_nome_66-31);}.cls-57{fill:url(#Gradiente_sem_nome_66-32);}.cls-58{fill:url(#Gradiente_sem_nome_66-33);}.cls-59{fill:url(#Gradiente_sem_nome_66-34);}.cls-60{fill:url(#Gradiente_sem_nome_66-35);}.cls-61{fill:url(#Gradiente_sem_nome_66-36);}.cls-62{fill:url(#Gradiente_sem_nome_66-37);}.cls-63{fill:url(#Gradiente_sem_nome_66-38);}.cls-64{fill:url(#Gradiente_sem_nome_66-39);}.cls-65{fill:url(#Gradiente_sem_nome_66-40);}.cls-66{fill:url(#Gradiente_sem_nome_66-41);}.cls-67{fill:url(#Gradiente_sem_nome_66-42);}.cls-68{fill:url(#Gradiente_sem_nome_66-43);}.cls-69{fill:url(#Gradiente_sem_nome_66-44);}.cls-70{fill:url(#Gradiente_sem_nome_66-45);}.cls-71{fill:url(#Gradiente_sem_nome_66-46);}.cls-72{fill:url(#Gradiente_sem_nome_66-47);}.cls-73{fill:url(#Gradiente_sem_nome_66-48);}.cls-74{fill:url(#Gradiente_sem_nome_66-49);}.cls-75{fill:url(#Gradiente_sem_nome_66-50);}.cls-76{fill:url(#Gradiente_sem_nome_66-51);}.cls-77{fill:url(#Gradiente_sem_nome_66-52);}.cls-78{fill:url(#Gradiente_sem_nome_66-53);}.cls-79{fill:url(#Gradiente_sem_nome_66-54);}.cls-80{fill:url(#Gradiente_sem_nome_66-55);}.cls-81{fill:url(#Gradiente_sem_nome_66-56);}.cls-82{fill:url(#Gradiente_sem_nome_34-8);}.cls-83{fill:url(#Gradiente_sem_nome_46-9);}.cls-84{fill:url(#Gradiente_sem_nome_66-57);}.cls-85{fill:url(#Gradiente_sem_nome_66-58);}.cls-86{fill:url(#Gradiente_sem_nome_66-59);}.cls-87{fill:url(#Gradiente_sem_nome_66-60);}.cls-88{fill:url(#Gradiente_sem_nome_66-61);}.cls-89{fill:url(#Gradiente_sem_nome_66-62);}.cls-90{fill:url(#Gradiente_sem_nome_66-63);}.cls-91{fill:url(#Gradiente_sem_nome_66-64);}.cls-92{fill:#a8a7ad;}.cls-93{fill:#f1f1f2;}.cls-94{fill:#333;}.cls-95{fill:#ff0;}.cls-96{fill:#c9c9c9;}</style><radialGradient id="Gradiente_sem_nome_185" cx="783.68" cy="97.6" r="4.81" gradientUnits="userSpaceOnUse"><stop offset="0" stop-color="aqua"/><stop offset="1" stop-color="#0070ff"/></radialGradient><radialGradient id="Gradiente_sem_nome_46" cx="783.68" cy="83.51" r="4.81" gradientUnits="userSpaceOnUse"><stop offset="0.46" stop-color="lime"/><stop offset="1" stop-color="#00c500"/></radialGradient><linearGradient id="Gradiente_sem_nome_10" x1="875.55" y1="112.54" x2="973" y2="15.09" gradientTransform="translate(1848.55 127.63) rotate(-180)" gradientUnits="userSpaceOnUse"><stop offset="0" stop-color="#727176"/><stop offset="1" stop-color="#949398"/></linearGradient><radialGradient id="Gradiente_sem_nome_34" cx="316.51" cy="97.31" r="3.6" gradientUnits="userSpaceOnUse"><stop offset="0.46" stop-color="#ff0"/><stop offset="1" stop-color="#ffc51e"/></radialGradient><radialGradient id="Gradiente_sem_nome_46-2" cx="345.76" cy="97.31" r="3.6" xlink:href="#Gradiente_sem_nome_46"/><radialGradient id="Gradiente_sem_nome_34-2" cx="366.36" cy="97.31" r="3.6" xlink:href="#Gradiente_sem_nome_34"/><radialGradient id="Gradiente_sem_nome_46-3" cx="395.61" cy="97.31" r="3.6" xlink:href="#Gradiente_sem_nome_46"/><radialGradient id="Gradiente_sem_nome_34-3" cx="416.21" cy="97.31" r="3.6" xlink:href="#Gradiente_sem_nome_34"/><radialGradient id="Gradiente_sem_nome_46-4" cx="445.46" cy="97.31" r="3.6" xlink:href="#Gradiente_sem_nome_46"/><radialGradient id="Gradiente_sem_nome_34-4" cx="466.06" cy="97.31" r="3.6" xlink:href="#Gradiente_sem_nome_34"/><radialGradient id="Gradiente_sem_nome_46-5" cx="495.31" cy="97.31" r="3.6" xlink:href="#Gradiente_sem_nome_46"/><radialGradient id="Gradiente_sem_nome_34-5" cx="515.91" cy="97.31" r="3.6" xlink:href="#Gradiente_sem_nome_34"/><radialGradient id="Gradiente_sem_nome_46-6" cx="545.16" cy="97.31" r="3.6" xlink:href="#Gradiente_sem_nome_46"/><radialGradient id="Gradiente_sem_nome_34-6" cx="565.76" cy="97.31" r="3.6" xlink:href="#Gradiente_sem_nome_34"/><radialGradient id="Gradiente_sem_nome_46-7" cx="595.01" cy="97.31" r="3.6" xlink:href="#Gradiente_sem_nome_46"/><radialGradient id="Gradiente_sem_nome_34-7" cx="266.66" cy="97.31" r="3.6" xlink:href="#Gradiente_sem_nome_34"/><radialGradient id="Gradiente_sem_nome_46-8" cx="295.92" cy="97.31" r="3.6" xlink:href="#Gradiente_sem_nome_46"/><linearGradient id="Gradiente_sem_nome_66" x1="270.19" y1="74.63" x2="270.19" y2="81.83" gradientUnits="userSpaceOnUse"><stop offset="0" stop-color="#fff195"/><stop offset="0.47" stop-color="#fff195"/><stop offset="1" stop-color="#1a1a1a"/></linearGradient><linearGradient id="Gradiente_sem_nome_66-2" x1="273.36" y1="74.63" x2="273.36" y2="81.83" xlink:href="#Gradiente_sem_nome_66"/><linearGradient id="Gradiente_sem_nome_66-3" x1="276.53" y1="74.63" x2="276.53" y2="81.83" xlink:href="#Gradiente_sem_nome_66"/><linearGradient id="Gradiente_sem_nome_66-4" x1="279.7" y1="74.63" x2="279.7" y2="81.83" xlink:href="#Gradiente_sem_nome_66"/><linearGradient id="Gradiente_sem_nome_66-5" x1="282.87" y1="74.63" x2="282.87" y2="81.83" xlink:href="#Gradiente_sem_nome_66"/><linearGradient id="Gradiente_sem_nome_66-6" x1="286.04" y1="74.63" x2="286.04" y2="81.83" xlink:href="#Gradiente_sem_nome_66"/><linearGradient id="Gradiente_sem_nome_66-7" x1="289.21" y1="74.63" x2="289.21" y2="81.83" xlink:href="#Gradiente_sem_nome_66"/><linearGradient id="Gradiente_sem_nome_66-8" x1="292.37" y1="74.63" x2="292.37" y2="81.83" xlink:href="#Gradiente_sem_nome_66"/><linearGradient id="Gradiente_sem_nome_66-9" x1="320.04" y1="74.63" x2="320.04" y2="81.83" xlink:href="#Gradiente_sem_nome_66"/><linearGradient id="Gradiente_sem_nome_66-10" x1="323.21" y1="74.63" x2="323.21" y2="81.83" xlink:href="#Gradiente_sem_nome_66"/><linearGradient id="Gradiente_sem_nome_66-11" x1="326.38" y1="74.63" x2="326.38" y2="81.83" xlink:href="#Gradiente_sem_nome_66"/><linearGradient id="Gradiente_sem_nome_66-12" x1="329.55" y1="74.63" x2="329.55" y2="81.83" xlink:href="#Gradiente_sem_nome_66"/><linearGradient id="Gradiente_sem_nome_66-13" x1="332.72" y1="74.63" x2="332.72" y2="81.83" xlink:href="#Gradiente_sem_nome_66"/><linearGradient id="Gradiente_sem_nome_66-14" x1="335.89" y1="74.63" x2="335.89" y2="81.83" xlink:href="#Gradiente_sem_nome_66"/><linearGradient id="Gradiente_sem_nome_66-15" x1="339.06" y1="74.63" x2="339.06" y2="81.83" xlink:href="#Gradiente_sem_nome_66"/><linearGradient id="Gradiente_sem_nome_66-16" x1="342.22" y1="74.63" x2="342.22" y2="81.83" xlink:href="#Gradiente_sem_nome_66"/><linearGradient id="Gradiente_sem_nome_66-17" x1="369.89" y1="74.63" x2="369.89" y2="81.83" xlink:href="#Gradiente_sem_nome_66"/><linearGradient id="Gradiente_sem_nome_66-18" x1="373.06" y1="74.63" x2="373.06" y2="81.83" xlink:href="#Gradiente_sem_nome_66"/><linearGradient id="Gradiente_sem_nome_66-19" x1="376.23" y1="74.63" x2="376.23" y2="81.83" xlink:href="#Gradiente_sem_nome_66"/><linearGradient id="Gradiente_sem_nome_66-20" x1="379.4" y1="74.63" x2="379.4" y2="81.83" xlink:href="#Gradiente_sem_nome_66"/><linearGradient id="Gradiente_sem_nome_66-21" x1="382.57" y1="74.63" x2="382.57" y2="81.83" xlink:href="#Gradiente_sem_nome_66"/><linearGradient id="Gradiente_sem_nome_66-22" x1="385.74" y1="74.63" x2="385.74" y2="81.83" xlink:href="#Gradiente_sem_nome_66"/><linearGradient id="Gradiente_sem_nome_66-23" x1="388.9" y1="74.63" x2="388.9" y2="81.83" xlink:href="#Gradiente_sem_nome_66"/><linearGradient id="Gradiente_sem_nome_66-24" x1="392.07" y1="74.63" x2="392.07" y2="81.83" xlink:href="#Gradiente_sem_nome_66"/><linearGradient id="Gradiente_sem_nome_66-25" x1="419.74" y1="74.63" x2="419.74" y2="81.83" xlink:href="#Gradiente_sem_nome_66"/><linearGradient id="Gradiente_sem_nome_66-26" x1="422.91" y1="74.63" x2="422.91" y2="81.83" xlink:href="#Gradiente_sem_nome_66"/><linearGradient id="Gradiente_sem_nome_66-27" x1="426.08" y1="74.63" x2="426.08" y2="81.83" xlink:href="#Gradiente_sem_nome_66"/><linearGradient id="Gradiente_sem_nome_66-28" x1="429.25" y1="74.63" x2="429.25" y2="81.83" xlink:href="#Gradiente_sem_nome_66"/><linearGradient id="Gradiente_sem_nome_66-29" x1="432.42" y1="74.63" x2="432.42" y2="81.83" xlink:href="#Gradiente_sem_nome_66"/><linearGradient id="Gradiente_sem_nome_66-30" x1="435.59" y1="74.63" x2="435.59" y2="81.83" xlink:href="#Gradiente_sem_nome_66"/><linearGradient id="Gradiente_sem_nome_66-31" x1="438.75" y1="74.63" x2="438.75" y2="81.83" xlink:href="#Gradiente_sem_nome_66"/><linearGradient id="Gradiente_sem_nome_66-32" x1="441.92" y1="74.63" x2="441.92" y2="81.83" xlink:href="#Gradiente_sem_nome_66"/><linearGradient id="Gradiente_sem_nome_66-33" x1="469.59" y1="74.63" x2="469.59" y2="81.83" xlink:href="#Gradiente_sem_nome_66"/><linearGradient id="Gradiente_sem_nome_66-34" x1="472.76" y1="74.63" x2="472.76" y2="81.83" xlink:href="#Gradiente_sem_nome_66"/><linearGradient id="Gradiente_sem_nome_66-35" x1="475.93" y1="74.63" x2="475.93" y2="81.83" xlink:href="#Gradiente_sem_nome_66"/><linearGradient id="Gradiente_sem_nome_66-36" x1="479.1" y1="74.63" x2="479.1" y2="81.83" xlink:href="#Gradiente_sem_nome_66"/><linearGradient id="Gradiente_sem_nome_66-37" x1="482.27" y1="74.63" x2="482.27" y2="81.83" xlink:href="#Gradiente_sem_nome_66"/><linearGradient id="Gradiente_sem_nome_66-38" x1="485.43" y1="74.63" x2="485.43" y2="81.83" xlink:href="#Gradiente_sem_nome_66"/><linearGradient id="Gradiente_sem_nome_66-39" x1="488.6" y1="74.63" x2="488.6" y2="81.83" xlink:href="#Gradiente_sem_nome_66"/><linearGradient id="Gradiente_sem_nome_66-40" x1="491.77" y1="74.63" x2="491.77" y2="81.83" xlink:href="#Gradiente_sem_nome_66"/><linearGradient id="Gradiente_sem_nome_66-41" x1="519.44" y1="74.63" x2="519.44" y2="81.83" xlink:href="#Gradiente_sem_nome_66"/><linearGradient id="Gradiente_sem_nome_66-42" x1="522.61" y1="74.63" x2="522.61" y2="81.83" xlink:href="#Gradiente_sem_nome_66"/><linearGradient id="Gradiente_sem_nome_66-43" x1="525.78" y1="74.63" x2="525.78" y2="81.83" xlink:href="#Gradiente_sem_nome_66"/><linearGradient id="Gradiente_sem_nome_66-44" x1="528.95" y1="74.63" x2="528.95" y2="81.83" xlink:href="#Gradiente_sem_nome_66"/><linearGradient id="Gradiente_sem_nome_66-45" x1="532.12" y1="74.63" x2="532.12" y2="81.83" xlink:href="#Gradiente_sem_nome_66"/><linearGradient id="Gradiente_sem_nome_66-46" x1="535.28" y1="74.63" x2="535.28" y2="81.83" xlink:href="#Gradiente_sem_nome_66"/><linearGradient id="Gradiente_sem_nome_66-47" x1="538.45" y1="74.63" x2="538.45" y2="81.83" xlink:href="#Gradiente_sem_nome_66"/><linearGradient id="Gradiente_sem_nome_66-48" x1="541.62" y1="74.63" x2="541.62" y2="81.83" xlink:href="#Gradiente_sem_nome_66"/><linearGradient id="Gradiente_sem_nome_66-49" x1="569.29" y1="74.63" x2="569.29" y2="81.83" xlink:href="#Gradiente_sem_nome_66"/><linearGradient id="Gradiente_sem_nome_66-50" x1="572.46" y1="74.63" x2="572.46" y2="81.83" xlink:href="#Gradiente_sem_nome_66"/><linearGradient id="Gradiente_sem_nome_66-51" x1="575.63" y1="74.63" x2="575.63" y2="81.83" xlink:href="#Gradiente_sem_nome_66"/><linearGradient id="Gradiente_sem_nome_66-52" x1="578.8" y1="74.63" x2="578.8" y2="81.83" xlink:href="#Gradiente_sem_nome_66"/><linearGradient id="Gradiente_sem_nome_66-53" x1="581.96" y1="74.63" x2="581.96" y2="81.83" xlink:href="#Gradiente_sem_nome_66"/><linearGradient id="Gradiente_sem_nome_66-54" x1="585.13" y1="74.63" x2="585.13" y2="81.83" xlink:href="#Gradiente_sem_nome_66"/><linearGradient id="Gradiente_sem_nome_66-55" x1="588.3" y1="74.63" x2="588.3" y2="81.83" xlink:href="#Gradiente_sem_nome_66"/><linearGradient id="Gradiente_sem_nome_66-56" x1="591.47" y1="74.63" x2="591.47" y2="81.83" xlink:href="#Gradiente_sem_nome_66"/><radialGradient id="Gradiente_sem_nome_34-8" cx="615.6" cy="97.31" r="3.6" xlink:href="#Gradiente_sem_nome_34"/><radialGradient id="Gradiente_sem_nome_46-9" cx="644.86" cy="97.31" r="3.6" xlink:href="#Gradiente_sem_nome_46"/><linearGradient id="Gradiente_sem_nome_66-57" x1="619.14" y1="74.63" x2="619.14" y2="81.83" xlink:href="#Gradiente_sem_nome_66"/><linearGradient id="Gradiente_sem_nome_66-58" x1="622.31" y1="74.63" x2="622.31" y2="81.83" xlink:href="#Gradiente_sem_nome_66"/><linearGradient id="Gradiente_sem_nome_66-59" x1="625.48" y1="74.63" x2="625.48" y2="81.83" xlink:href="#Gradiente_sem_nome_66"/><linearGradient id="Gradiente_sem_nome_66-60" x1="628.65" y1="74.63" x2="628.65" y2="81.83" xlink:href="#Gradiente_sem_nome_66"/><linearGradient id="Gradiente_sem_nome_66-61" x1="631.81" y1="74.63" x2="631.81" y2="81.83" xlink:href="#Gradiente_sem_nome_66"/><linearGradient id="Gradiente_sem_nome_66-62" x1="634.98" y1="74.63" x2="634.98" y2="81.83" xlink:href="#Gradiente_sem_nome_66"/><linearGradient id="Gradiente_sem_nome_66-63" x1="638.15" y1="74.63" x2="638.15" y2="81.83" xlink:href="#Gradiente_sem_nome_66"/><linearGradient id="Gradiente_sem_nome_66-64" x1="641.32" y1="74.63" x2="641.32" y2="81.83" xlink:href="#Gradiente_sem_nome_66"/></defs><rect class="cls-1" width="1368" height="125.19"/><rect class="cls-2" x="10.9" y="9.12" width="33.67" height="16.25" rx="8.12"/><rect class="cls-2" x="10.9" y="101.06" width="33.67" height="16.25" rx="8.12"/><rect class="cls-2" x="1324.67" y="9.12" width="33.67" height="16.25" rx="8.12"/><rect class="cls-2" x="1324.67" y="101.06" width="33.67" height="16.25" rx="8.12"/><path d="M669.56,104.68a3.58,3.58,0,0,1-3.73-3.71,3.9,3.9,0,0,1,3.76-3.67,3.82,3.82,0,0,1,3.69,3.8A3.48,3.48,0,0,1,669.56,104.68Z"/><circle class="cls-3" cx="783.68" cy="97.6" r="4.81"/><circle class="cls-4" cx="783.68" cy="83.51" r="4.81"/><rect x="795.67" y="97.6" width="23.56" height="8.52" rx="2"/><path class="cls-5" d="M726,81.18h17.21c2,0,3.95,0,5.93,0,3.39.13,5.49,2.59,5,5.93q-1.2,7.41-2.62,14.78a4.4,4.4,0,0,1-4.45,3.83c-5.7.13-11.4.12-17.1.11-6.58,0-13.15,0-19.72-.12a4.38,4.38,0,0,1-4.34-3.81c-.93-4.84-1.85-9.69-2.63-14.56-.59-3.68,1.61-6.15,5.34-6.16,5.81,0,11.62,0,17.43,0Z"/><path class="cls-6" d="M745.84,81.18c1.1,0,2.21,0,3.32,0,3.39.13,5.49,2.59,5,5.93q-1.2,7.41-2.62,14.78a4.4,4.4,0,0,1-4.45,3.83c-4.48.1-9,.11-13.44.11h-3.66c-6.58,0-13.15,0-19.72-.12a4.38,4.38,0,0,1-4.34-3.81c-.93-4.84-1.85-9.69-2.63-14.56-.59-3.68,1.61-6.15,5.34-6.17H726v0h19.82m0-2H724v0h-8.38l-7,0a7.48,7.48,0,0,0-5.85,2.45,7.31,7.31,0,0,0-1.46,6c.82,5.12,1.79,10.23,2.63,14.62a6.39,6.39,0,0,0,6.28,5.43c6.16.12,12.42.12,18.48.12h4.93c5,0,9.23,0,13.49-.11a6.38,6.38,0,0,0,6.36-5.45c.95-4.93,1.84-9.93,2.63-14.84a7.06,7.06,0,0,0-1.39-5.71,7.26,7.26,0,0,0-5.45-2.54c-1.22,0-2.4,0-3.4,0Z"/><circle class="cls-2" cx="716.85" cy="96.98" r="1.29"/><circle class="cls-2" cx="712.87" cy="88.81" r="1.29"/><circle class="cls-2" cx="720.8" cy="88.81" r="1.29"/><circle class="cls-2" cx="728.74" cy="88.81" r="1.29"/><circle class="cls-2" cx="736.67" cy="88.81" r="1.29"/><circle class="cls-2" cx="744.61" cy="88.81" r="1.29"/><circle class="cls-2" cx="724.74" cy="96.98" r="1.29"/><circle class="cls-2" cx="732.62" cy="96.98" r="1.29"/><circle class="cls-2" cx="740.51" cy="96.98" r="1.29"/><path class="cls-6" d="M692.74,84.12l-6.84,3.95V96l6.84,4,6.85-4v-7.9Zm0,12.77a4.71,4.71,0,1,1,4.71-4.71A4.71,4.71,0,0,1,692.74,96.89Z"/><path class="cls-6" d="M764.17,84.12l-6.84,3.95V96l6.84,4L771,96v-7.9Zm0,12.77a4.71,4.71,0,1,1,4.71-4.71A4.71,4.71,0,0,1,764.17,96.89Z"/><path class="cls-7" d="M998.75,118.23h-149a3.17,3.17,0,0,1-3.16-3.16V12.56a3.17,3.17,0,0,1,3.16-3.16h149a3.16,3.16,0,0,1,3.16,3.16V115.07A3.16,3.16,0,0,1,998.75,118.23ZM849.79,10.4a2.16,2.16,0,0,0-2.16,2.16V115.07a2.16,2.16,0,0,0,2.16,2.16h149a2.16,2.16,0,0,0,2.16-2.16V12.56a2.16,2.16,0,0,0-2.16-2.16Z"/><rect class="cls-8" x="870.4" y="18.68" width="107.74" height="90.28" rx="2.66" transform="translate(1848.55 127.63) rotate(180)"/><path class="cls-9" d="M975.48,109.46H873.06a3.17,3.17,0,0,1-3.16-3.16v-85a3.16,3.16,0,0,1,3.16-3.15H975.48a3.16,3.16,0,0,1,3.16,3.15v85A3.17,3.17,0,0,1,975.48,109.46ZM873.06,19.18a2.16,2.16,0,0,0-2.16,2.15v85a2.16,2.16,0,0,0,2.16,2.16H975.48a2.16,2.16,0,0,0,2.16-2.16v-85a2.16,2.16,0,0,0-2.16-2.15Z"/><rect x="258.17" y="65.54" width="395.42" height="39.6"/><rect class="cls-10" x="308.82" y="67.38" width="44.63" height="35.92"/><rect class="cls-11" x="312.44" y="94.25" width="8.13" height="6.11"/><rect class="cls-12" x="341.7" y="94.25" width="8.13" height="6.11"/><polygon class="cls-5" points="348.16 74.63 314.03 74.63 314.03 93.81 321.03 93.81 321.03 100.31 325.32 100.31 325.32 103.25 336.96 103.25 336.96 100.31 341.25 100.31 341.25 93.81 348.16 93.81 348.16 74.63"/><rect class="cls-10" x="358.67" y="67.38" width="44.63" height="35.92"/><rect class="cls-13" x="362.29" y="94.25" width="8.13" height="6.11"/><rect class="cls-14" x="391.55" y="94.25" width="8.13" height="6.11"/><polygon class="cls-5" points="398.01 74.63 363.88 74.63 363.88 93.81 370.88 93.81 370.88 100.31 375.17 100.31 375.17 103.25 386.81 103.25 386.81 100.31 391.1 100.31 391.1 93.81 398.01 93.81 398.01 74.63"/><rect class="cls-10" x="408.51" y="67.38" width="44.63" height="35.92"/><rect class="cls-15" x="412.14" y="94.25" width="8.13" height="6.11"/><rect class="cls-16" x="441.4" y="94.25" width="8.13" height="6.11"/><polygon class="cls-5" points="447.86 74.63 413.73 74.63 413.73 93.81 420.73 93.81 420.73 100.31 425.02 100.31 425.02 103.25 436.66 103.25 436.66 100.31 440.95 100.31 440.95 93.81 447.86 93.81 447.86 74.63"/><rect class="cls-10" x="458.36" y="67.38" width="44.63" height="35.92"/><rect class="cls-17" x="461.99" y="94.25" width="8.13" height="6.11"/><rect class="cls-18" x="491.25" y="94.25" width="8.13" height="6.11"/><polygon class="cls-5" points="497.71 74.63 463.58 74.63 463.58 93.81 470.58 93.81 470.58 100.31 474.87 100.31 474.87 103.25 486.51 103.25 486.51 100.31 490.8 100.31 490.8 93.81 497.71 93.81 497.71 74.63"/><rect class="cls-10" x="508.21" y="67.38" width="44.63" height="35.92"/><rect class="cls-19" x="511.84" y="94.25" width="8.13" height="6.11"/><rect class="cls-20" x="541.1" y="94.25" width="8.13" height="6.11"/><polygon class="cls-5" points="547.56 74.63 513.43 74.63 513.43 93.81 520.43 93.81 520.43 100.31 524.72 100.31 524.72 103.25 536.36 103.25 536.36 100.31 540.65 100.31 540.65 93.81 547.56 93.81 547.56 74.63"/><rect class="cls-10" x="558.06" y="67.38" width="44.63" height="35.92"/><rect class="cls-21" x="561.69" y="94.25" width="8.13" height="6.11"/><rect class="cls-22" x="590.95" y="94.25" width="8.13" height="6.11"/><polygon class="cls-5" points="597.41 74.63 563.28 74.63 563.28 93.81 570.28 93.81 570.28 100.31 574.56 100.31 574.56 103.25 586.21 103.25 586.21 100.31 590.5 100.31 590.5 93.81 597.41 93.81 597.41 74.63"/><rect class="cls-10" x="607.91" y="67.38" width="44.63" height="35.92"/><path d="M272.78,117.58h-4.32V113.4h4.28v.71h-3.31V115h1.93v.72h-1.93v1h3.35Z"/><path d="M278.45,114.14h-1.93v3.44h-1v-3.44h-1.92v-.74h4.82Z"/><path d="M284.63,117.58h-1v-1.8h-3v1.8h-1V113.4h1V115h3V113.4h1Z"/><path d="M292.58,117.58h-.88v-3.39h-.89v-.56l1.77-.26Z"/><path d="M322.63,117.58h-4.32V113.4h4.28v.71h-3.31V115h1.93v.72h-1.93v1h3.35Z"/><path d="M328.3,114.14h-1.93v3.44h-1v-3.44h-1.92v-.74h4.82Z"/><path d="M334.48,117.58h-1v-1.8h-3v1.8h-1V113.4h1V115h3V113.4h1Z"/><path d="M344.08,116.76a.78.78,0,0,1-.24.67,1.24,1.24,0,0,1-.72.15h-3.51v-.38a.74.74,0,0,1,.13-.46,1.6,1.6,0,0,1,.39-.3l2.9-1.79v-.54h-2.39V115l-.82-.21v-.54a.83.83,0,0,1,.23-.68,1.35,1.35,0,0,1,.72-.14h2.15c.43,0,.7.08.82.23a1.69,1.69,0,0,1,.14.85.92.92,0,0,1-.13.52,1.36,1.36,0,0,1-.42.33l-2.45,1.49h2.43v-.61l.77.22Z"/><path d="M372.48,117.58h-4.32V113.4h4.28v.71h-3.31V115h1.93v.72h-1.93v1h3.35Z"/><path d="M378.15,114.14h-1.93v3.44h-1v-3.44h-1.92v-.74h4.82Z"/><path d="M384.33,117.58h-1v-1.8h-3v1.8h-1V113.4h1V115h3V113.4h1Z"/><path d="M393.82,116.68a.93.93,0,0,1-.24.73,1.33,1.33,0,0,1-.77.17h-2.43c-.45,0-.73-.09-.83-.26a1.86,1.86,0,0,1-.13-.9l.86-.18v.58h2.25q.35,0,.39-.18a3.37,3.37,0,0,0,0-.5c0-.15,0-.26-.09-.3a.48.48,0,0,0-.32-.08h-1.41v-.68h1.26c.21,0,.33,0,.37-.15a1.66,1.66,0,0,0,0-.44.46.46,0,0,0-.08-.31.58.58,0,0,0-.32-.07h-2.06v.52l-.83-.15v-.26a.83.83,0,0,1,.23-.68,1.35,1.35,0,0,1,.72-.14h2.26c.46,0,.74.09.86.27a2.67,2.67,0,0,1,.1.93.71.71,0,0,1-.21.57,1.13,1.13,0,0,1-.6.22c.65.07,1,.35,1,.85Z"/><path d="M422.33,117.58H418V113.4h4.28v.71H419V115h1.93v.72H419v1h3.35Z"/><path d="M428,114.14h-1.93v3.44h-1v-3.44h-1.92v-.74H428Z"/><path d="M434.18,117.58h-1v-1.8h-3v1.8h-1V113.4h1V115h3V113.4h1Z"/><path d="M444.1,116.65h-1v1h-.88v-1H439V116l3.13-2.61h.92V116h1Zm-1.89-.69v-1.87L439.92,116Z"/><path d="M472.18,117.58h-4.32V113.4h4.28v.71h-3.31V115h1.93v.72h-1.93v1h3.35Z"/><path d="M477.85,114.14h-1.93v3.44h-1v-3.44H473v-.74h4.82Z"/><path d="M484,117.58h-1v-1.8h-3v1.8h-1V113.4h1V115h3V113.4h1Z"/><path d="M493.81,116.23a1.18,1.18,0,0,1-.77,1.19,4.23,4.23,0,0,1-1.53.21,8.81,8.81,0,0,1-2-.17l-.22-.81a12.14,12.14,0,0,0,2.21.22,3.34,3.34,0,0,0,.9-.08.6.6,0,0,0,.52-.6.58.58,0,0,0-.51-.57,3.49,3.49,0,0,0-.86-.08,18.57,18.57,0,0,0-2.26.17l.24-2.31h3.61l-.07.71h-2.92l-.09.81c.69-.07,1.25-.1,1.69-.1Q493.81,114.82,493.81,116.23Z"/><path d="M522,117.58h-4.32V113.4H522v.71h-3.31V115h1.93v.72h-1.93v1H522Z"/><path d="M527.7,114.14h-1.93v3.44h-1v-3.44h-1.92v-.74h4.82Z"/><path d="M533.88,117.58h-1v-1.8h-3v1.8h-1V113.4h1V115h3V113.4h1Z"/><path d="M543.56,116.56q0,1-1.44,1h-1.76a1.62,1.62,0,0,1-1.06-.26,1.33,1.33,0,0,1-.32-1v-.55a2.12,2.12,0,0,1,.94-1.9,3.75,3.75,0,0,1,2.15-.55l.3,0,.57.67h-.27a8.39,8.39,0,0,0-1.11.06,1.74,1.74,0,0,0-1.62,1,12,12,0,0,1,1.85-.15,5.87,5.87,0,0,1,.82,0,1.21,1.21,0,0,1,.72.31,1,1,0,0,1,.23.72Zm-.89-.24v-.22a.44.44,0,0,0-.31-.46,2.6,2.6,0,0,0-.62,0c-.59,0-1.21,0-1.85.1a1.66,1.66,0,0,0,0,.24,1.23,1.23,0,0,0,.13.72c.1.12.35.17.74.17h1.16a1.65,1.65,0,0,0,.54-.06A.45.45,0,0,0,542.67,116.32Z"/><path d="M571.88,117.58h-4.32V113.4h4.28v.71h-3.31V115h1.93v.72h-1.93v1h3.35Z"/><path d="M577.55,114.14h-1.93v3.44h-1v-3.44h-1.92v-.74h4.82Z"/><path d="M583.73,117.58h-1v-1.8h-3v1.8h-1V113.4h1V115h3V113.4h1Z"/><path d="M593.43,114.07l-2.19,3.58h-1.06l2.26-3.54h-2.77v.9l-.88-.15V113.4h4.64Z"/><path d="M621.73,117.58h-4.32V113.4h4.28v.71h-3.31V115h1.93v.72h-1.93v1h3.35Z"/><path d="M627.4,114.14h-1.93v3.44h-1v-3.44h-1.92v-.74h4.82Z"/><path d="M633.58,117.58h-1v-1.8h-3v1.8h-1V113.4h1V115h3V113.4h1Z"/><path d="M643.26,116.68a.89.89,0,0,1-.25.73,1.3,1.3,0,0,1-.77.17h-2.67a1.33,1.33,0,0,1-.77-.17.93.93,0,0,1-.24-.73v-.44c0-.49.3-.77.89-.83a1,1,0,0,1-.71-.38,2.24,2.24,0,0,1-.09-.81.83.83,0,0,1,.23-.68,1.35,1.35,0,0,1,.72-.14h2.61c.46,0,.74.09.85.27a2.36,2.36,0,0,1,.11.93.71.71,0,0,1-.21.57,1.26,1.26,0,0,1-.59.24c.6.06.89.34.89.83Zm-.89-.23v-.31c0-.15,0-.26-.08-.3a.46.46,0,0,0-.31-.08h-2.14a.49.49,0,0,0-.32.08.41.41,0,0,0-.08.3v.31a.43.43,0,0,0,.08.31.6.6,0,0,0,.32.06H642a.58.58,0,0,0,.31-.06C642.35,116.71,642.37,116.61,642.37,116.45Zm-.09-1.75v-.21a.41.41,0,0,0-.08-.31.54.54,0,0,0-.31-.07h-1.95a.56.56,0,0,0-.32.07.41.41,0,0,0-.09.31v.21a.39.39,0,0,0,.09.31.49.49,0,0,0,.32.07h1.95a.47.47,0,0,0,.31-.07C642.26,115,642.28,114.86,642.28,114.7Z"/><circle class="cls-23" cx="247.89" cy="75.63" r="4.15"/><path d="M247.89,80.78A5.16,5.16,0,1,1,253,75.63,5.16,5.16,0,0,1,247.89,80.78Zm0-8.31A3.16,3.16,0,1,0,251,75.63,3.17,3.17,0,0,0,247.89,72.47Z"/><circle class="cls-23" cx="247.89" cy="85.88" r="4.15"/><path d="M247.89,91A5.16,5.16,0,1,1,253,85.88,5.16,5.16,0,0,1,247.89,91Zm0-8.31A3.16,3.16,0,1,0,251,85.88,3.17,3.17,0,0,0,247.89,82.72Z"/><circle class="cls-23" cx="247.89" cy="98.41" r="4.15"/><path d="M247.89,103.56A5.16,5.16,0,1,1,253,98.41,5.16,5.16,0,0,1,247.89,103.56Zm0-8.31A3.16,3.16,0,1,0,251,98.41,3.17,3.17,0,0,0,247.89,95.25Z"/><path d="M1301.73,109.91l-4.63,3.48c.86,1.7,1.7,3.34,2.6,5.1h-4.29l-1.43-3c-1.53.52-1,2.07-1.69,3h-3.9c1-4,2-7.87,3-11.81h4c-.45,1.84-.89,3.62-1.38,5.61,1.22-.86,2.17-1.91,3.35-2.28S1300,109.91,1301.73,109.91Z"/><path d="M1227.67,118.49h-1.27l3.15-11.82h2c.74,3.47,1.48,6.93,2.28,10.71l8.07-10.7h2c-1,4-2.07,7.86-3.11,11.8h-1.3c1-3.47,1.91-6.86,2.85-10.26l-.2-.11-7.81,10.37h-1.37q-1.16-5.31-2.28-10.55h-.24C1229.48,111.42,1228.59,114.91,1227.67,118.49Z"/><path d="M1284.49,106.69l-.81,3.16h-12.51l.79-3.16Z"/><path d="M1277.43,118.5H1273c.59-2.33,1.17-4.6,1.75-6.88h4.44C1278.59,113.94,1278,116.17,1277.43,118.5Z"/><path d="M1267,109.76c3.5-.13,5.25,2.5,3.76,5.69a5.85,5.85,0,0,1-7.4,3,3.44,3.44,0,0,1-2.07-3.66C1261.6,111.86,1263.86,109.88,1267,109.76Zm-1.35,8.06a4.35,4.35,0,0,0,4.36-4.52,2.73,2.73,0,0,0-3-2.77,4.55,4.55,0,0,0-4.45,4.49C1262.47,116.85,1263.51,117.77,1265.68,117.82Z"/><path d="M1282.67,118.49c.6-2.37,1.17-4.6,1.74-6.87h4c-.58,2.33-1.15,4.58-1.72,6.87Z"/><path d="M1247.4,118.48h-1.29c.74-2.84,1.47-5.61,2.21-8.44h1.2l-1,3.91c2.69-1,4.41-3.58,7.23-4.1l.21.33-4.53,3.09c1,1.72,2,3.41,3.07,5.22h-1.3l-2.75-4.54C1248.33,114.71,1247.61,116.4,1247.4,118.48Z"/><path d="M1257.2,110h1c-.09.56-.17,1-.32,1.94a4.3,4.3,0,0,1,4.33-2.08c0,.33-.08.61-.12.94-.24,0-.44.08-.65.09a4,4,0,0,0-4.18,3.37c-.35,1.37-.72,2.73-1.1,4.18l-1.24.06C1255.72,115.64,1256.45,112.87,1257.2,110Z"/><path d="M1288.86,109.86h-4c.27-1.09.52-2.09.78-3.17h4C1289.39,107.77,1289.13,108.8,1288.86,109.86Z"/><path d="M1244.17,118.49h-1.23l2.24-8.46h1.22Z"/><path d="M1251.78,108.36a5.34,5.34,0,0,1-5.07-1.09,5,5,0,0,1-1.65-5.15C1245.88,105.69,1247.92,107.94,1251.78,108.36Z"/><path d="M1251.9,106.56a4.2,4.2,0,0,1-5-4.88,13.64,13.64,0,0,0,1.92,3A13.62,13.62,0,0,0,1251.9,106.56Z"/><rect x="700.29" y="110.37" width="55.9" height="5.21"/><polygon points="122.27 17.32 94.77 44.67 91.65 41.58 119.16 14.23 122.27 17.32"/><polygon points="129.72 14.23 145.27 29.69 142.15 32.78 126.61 17.32 129.72 14.23"/><polygon points="141.83 14.02 151.43 23.56 148.31 26.66 138.72 17.11 141.83 14.02"/><polygon points="154.97 14.45 157.78 17.24 154.67 20.34 151.86 17.55 154.97 14.45"/><polygon points="123.74 20.17 139.29 35.63 136.18 38.73 120.63 23.27 123.74 20.17"/><polygon points="120.89 30.03 106.35 44.49 103.24 41.39 117.78 26.93 120.89 30.03"/><polygon points="127.18 36.28 118.38 45.03 115.27 41.93 124.07 33.18 127.18 36.28"/><polygon points="133.13 42.2 130.33 44.99 127.21 41.9 130.02 39.11 133.13 42.2"/><polygon points="170.38 17.32 142.88 44.67 139.76 41.58 167.27 14.23 170.38 17.32"/><polygon points="177.83 14.23 193.38 29.69 190.26 32.78 174.72 17.32 177.83 14.23"/><polygon points="189.94 14.02 199.54 23.56 196.43 26.66 186.83 17.11 189.94 14.02"/><polygon points="203.08 14.45 205.89 17.24 202.78 20.34 199.97 17.55 203.08 14.45"/><polygon points="171.85 20.17 187.4 35.63 184.29 38.73 168.74 23.27 171.85 20.17"/><polygon points="169 30.03 154.46 44.49 151.35 41.39 165.89 26.93 169 30.03"/><polygon points="175.29 36.28 166.49 45.03 163.38 41.93 172.18 33.18 175.29 36.28"/><polygon points="181.25 42.2 178.44 44.99 175.32 41.9 178.13 39.11 181.25 42.2"/><polygon points="218.49 17.32 190.99 44.67 187.88 41.58 215.38 14.23 218.49 17.32"/><polygon points="225.94 14.23 241.49 29.69 238.38 32.78 222.83 17.32 225.94 14.23"/><polygon points="238.05 14.02 247.65 23.56 244.54 26.66 234.94 17.11 238.05 14.02"/><polygon points="251.19 14.45 254 17.24 250.89 20.34 248.08 17.55 251.19 14.45"/><polygon points="219.96 20.17 235.51 35.63 232.4 38.73 216.85 23.27 219.96 20.17"/><polygon points="217.11 30.03 202.57 44.49 199.46 41.39 214 26.93 217.11 30.03"/><polygon points="223.4 36.28 214.6 45.03 211.49 41.93 220.29 33.18 223.4 36.28"/><polygon points="229.36 42.2 226.55 44.99 223.44 41.9 226.24 39.11 229.36 42.2"/><polygon points="266.61 17.32 239.1 44.67 235.99 41.58 263.49 14.23 266.61 17.32"/><polygon points="274.05 14.23 289.6 29.69 286.49 32.78 270.94 17.32 274.05 14.23"/><polygon points="286.16 14.02 295.76 23.56 292.65 26.66 283.05 17.11 286.16 14.02"/><polygon points="299.31 14.45 302.11 17.24 299 20.34 296.19 17.55 299.31 14.45"/><polygon points="268.07 20.17 283.62 35.63 280.51 38.73 264.96 23.27 268.07 20.17"/><polygon points="265.22 30.03 250.68 44.49 247.57 41.39 262.11 26.93 265.22 30.03"/><polygon points="271.51 36.28 262.71 45.03 259.6 41.93 268.4 33.18 271.51 36.28"/><polygon points="277.47 42.2 274.66 44.99 271.55 41.9 274.36 39.11 277.47 42.2"/><polygon points="314.72 17.32 287.21 44.67 284.1 41.58 311.61 14.23 314.72 17.32"/><polygon points="322.16 14.23 337.71 29.69 334.6 32.78 319.05 17.32 322.16 14.23"/><polygon points="334.27 14.02 343.87 23.56 340.76 26.66 331.16 17.11 334.27 14.02"/><polygon points="347.42 14.45 350.23 17.24 347.11 20.34 344.31 17.55 347.42 14.45"/><polygon points="316.18 20.17 331.73 35.63 328.62 38.73 313.07 23.27 316.18 20.17"/><polygon points="313.33 30.03 298.79 44.49 295.68 41.39 310.22 26.93 313.33 30.03"/><polygon points="319.62 36.28 310.82 45.03 307.71 41.93 316.51 33.18 319.62 36.28"/><polygon points="325.58 42.2 322.77 44.99 319.66 41.9 322.47 39.11 325.58 42.2"/><polygon points="362.83 17.32 335.32 44.67 332.21 41.58 359.72 14.23 362.83 17.32"/><polygon points="370.27 14.23 385.82 29.69 382.71 32.78 367.16 17.32 370.27 14.23"/><polygon points="382.38 14.02 391.98 23.56 388.87 26.66 379.27 17.11 382.38 14.02"/><polygon points="395.53 14.45 398.34 17.24 395.22 20.34 392.42 17.55 395.53 14.45"/><polygon points="364.29 20.17 379.84 35.63 376.73 38.73 361.18 23.27 364.29 20.17"/><polygon points="361.45 30.03 346.9 44.49 343.79 41.39 358.33 26.93 361.45 30.03"/><polygon points="367.73 36.28 358.93 45.03 355.82 41.93 364.62 33.18 367.73 36.28"/><polygon points="373.69 42.2 370.88 44.99 367.77 41.9 370.58 39.11 373.69 42.2"/><polygon points="410.94 17.32 383.43 44.67 380.32 41.58 407.83 14.23 410.94 17.32"/><polygon points="418.38 14.23 433.93 29.69 430.82 32.78 415.27 17.32 418.38 14.23"/><polygon points="430.5 14.02 440.09 23.56 436.98 26.66 427.38 17.11 430.5 14.02"/><polygon points="443.64 14.45 446.45 17.24 443.34 20.34 440.53 17.55 443.64 14.45"/><polygon points="412.4 20.17 427.95 35.63 424.84 38.73 409.29 23.27 412.4 20.17"/><polygon points="409.56 30.03 395.01 44.49 391.9 41.39 406.45 26.93 409.56 30.03"/><polygon points="415.84 36.28 407.04 45.03 403.93 41.93 412.73 33.18 415.84 36.28"/><polygon points="421.8 42.2 418.99 44.99 415.88 41.9 418.69 39.11 421.8 42.2"/><polygon points="459.05 17.32 431.54 44.67 428.43 41.58 455.94 14.23 459.05 17.32"/><polygon points="466.49 14.23 482.04 29.69 478.93 32.78 463.38 17.32 466.49 14.23"/><polygon points="478.61 14.02 488.2 23.56 485.09 26.66 475.5 17.11 478.61 14.02"/><polygon points="491.75 14.45 494.56 17.24 491.45 20.34 488.64 17.55 491.75 14.45"/><polygon points="460.51 20.17 476.06 35.63 472.95 38.73 457.4 23.27 460.51 20.17"/><polygon points="457.67 30.03 443.13 44.49 440.01 41.39 454.56 26.93 457.67 30.03"/><polygon points="463.95 36.28 455.15 45.03 452.04 41.93 460.84 33.18 463.95 36.28"/><polygon points="469.91 42.2 467.1 44.99 463.99 41.9 466.8 39.11 469.91 42.2"/><polygon points="507.16 17.32 479.65 44.67 476.54 41.58 504.05 14.23 507.16 17.32"/><polygon points="514.61 14.23 530.15 29.69 527.04 32.78 511.49 17.32 514.61 14.23"/><polygon points="526.72 14.02 536.32 23.56 533.2 26.66 523.61 17.11 526.72 14.02"/><polygon points="539.86 14.45 542.67 17.24 539.56 20.34 536.75 17.55 539.86 14.45"/><polygon points="508.63 20.17 524.17 35.63 521.06 38.73 505.51 23.27 508.63 20.17"/><polygon points="505.78 30.03 491.24 44.49 488.13 41.39 502.67 26.93 505.78 30.03"/><polygon points="512.07 36.28 503.26 45.03 500.15 41.93 508.95 33.18 512.07 36.28"/><polygon points="518.02 42.2 515.21 44.99 512.1 41.9 514.91 39.11 518.02 42.2"/><polygon points="555.27 17.32 527.76 44.67 524.65 41.58 552.16 14.23 555.27 17.32"/><polygon points="562.72 14.23 578.26 29.69 575.15 32.78 559.61 17.32 562.72 14.23"/><polygon points="574.83 14.02 584.43 23.56 581.31 26.66 571.72 17.11 574.83 14.02"/><polygon points="587.97 14.45 590.78 17.24 587.67 20.34 584.86 17.55 587.97 14.45"/><polygon points="556.74 20.17 572.29 35.63 569.17 38.73 553.63 23.27 556.74 20.17"/><polygon points="553.89 30.03 539.35 44.49 536.24 41.39 550.78 26.93 553.89 30.03"/><polygon points="560.18 36.28 551.38 45.03 548.26 41.93 557.07 33.18 560.18 36.28"/><polygon points="566.13 42.2 563.33 44.99 560.21 41.9 563.02 39.11 566.13 42.2"/><polygon points="603.38 17.32 575.88 44.67 572.76 41.58 600.27 14.23 603.38 17.32"/><polygon points="610.83 14.23 626.38 29.69 623.26 32.78 607.72 17.32 610.83 14.23"/><polygon points="622.94 14.02 632.54 23.56 629.42 26.66 619.83 17.11 622.94 14.02"/><polygon points="636.08 14.45 638.89 17.24 635.78 20.34 632.97 17.55 636.08 14.45"/><polygon points="604.85 20.17 620.4 35.63 617.29 38.73 601.74 23.27 604.85 20.17"/><polygon points="602 30.03 587.46 44.49 584.35 41.39 598.89 26.93 602 30.03"/><polygon points="608.29 36.28 599.49 45.03 596.38 41.93 605.18 33.18 608.29 36.28"/><polygon points="614.24 42.2 611.44 44.99 608.33 41.9 611.13 39.11 614.24 42.2"/><polygon points="651.49 17.32 623.99 44.67 620.88 41.58 648.38 14.23 651.49 17.32"/><polygon points="658.94 14.23 674.49 29.69 671.38 32.78 655.83 17.32 658.94 14.23"/><polygon points="671.05 14.02 680.65 23.56 677.54 26.66 667.94 17.11 671.05 14.02"/><polygon points="684.19 14.45 687 17.24 683.89 20.34 681.08 17.55 684.19 14.45"/><polygon points="652.96 20.17 668.51 35.63 665.4 38.73 649.85 23.27 652.96 20.17"/><polygon points="650.11 30.03 635.57 44.49 632.46 41.39 647 26.93 650.11 30.03"/><polygon points="656.4 36.28 647.6 45.03 644.49 41.93 653.29 33.18 656.4 36.28"/><polygon points="662.36 42.2 659.55 44.99 656.44 41.9 659.24 39.11 662.36 42.2"/><polygon points="699.6 17.32 672.1 44.67 668.99 41.58 696.49 14.23 699.6 17.32"/><polygon points="707.05 14.23 722.6 29.69 719.49 32.78 703.94 17.32 707.05 14.23"/><polygon points="719.16 14.02 728.76 23.56 725.65 26.66 716.05 17.11 719.16 14.02"/><polygon points="732.3 14.45 735.11 17.24 732 20.34 729.19 17.55 732.3 14.45"/><polygon points="701.07 20.17 716.62 35.63 713.51 38.73 697.96 23.27 701.07 20.17"/><polygon points="698.22 30.03 683.68 44.49 680.57 41.39 695.11 26.93 698.22 30.03"/><polygon points="704.51 36.28 695.71 45.03 692.6 41.93 701.4 33.18 704.51 36.28"/><polygon points="710.47 42.2 707.66 44.99 704.55 41.9 707.36 39.11 710.47 42.2"/><polygon points="747.72 17.32 720.21 44.67 717.1 41.58 744.6 14.23 747.72 17.32"/><polygon points="755.16 14.23 770.71 29.69 767.6 32.78 752.05 17.32 755.16 14.23"/><polygon points="767.27 14.02 776.87 23.56 773.76 26.66 764.16 17.11 767.27 14.02"/><polygon points="780.42 14.45 783.22 17.24 780.11 20.34 777.3 17.55 780.42 14.45"/><polygon points="749.18 20.17 764.73 35.63 761.62 38.73 746.07 23.27 749.18 20.17"/><polygon points="746.34 30.03 731.79 44.49 728.68 41.39 743.22 26.93 746.34 30.03"/><polygon points="752.62 36.28 743.82 45.03 740.71 41.93 749.51 33.18 752.62 36.28"/><polygon points="758.58 42.2 755.77 44.99 752.66 41.9 755.47 39.11 758.58 42.2"/><polygon points="795.83 17.32 768.32 44.67 765.21 41.58 792.72 14.23 795.83 17.32"/><polygon points="797.29 20.17 819.04 41.8 815.93 44.89 794.18 23.27 797.29 20.17"/><polygon points="794.45 30.03 779.9 44.49 776.79 41.39 791.33 26.93 794.45 30.03"/><polygon points="800.73 36.28 791.93 45.03 788.82 41.93 797.62 33.18 800.73 36.28"/><polygon points="806.69 42.2 803.88 44.99 800.77 41.9 803.58 39.11 806.69 42.2"/><path d="M1124.76,26.82h-8a5.76,5.76,0,0,1-2.28-.31,1.28,1.28,0,0,1-.64-1.27,5.77,5.77,0,0,1,.17-1.25l1.66-7.7a5.56,5.56,0,0,1,.47-1.46,2.12,2.12,0,0,1,.75-.86,2.8,2.8,0,0,1,1.13-.41,11,11,0,0,1,1.65-.1h8l-.53,2.41h-6.86a6.47,6.47,0,0,0-.87.05,1.07,1.07,0,0,0-.51.19,1.05,1.05,0,0,0-.29.43,5.08,5.08,0,0,0-.2.72L1117.19,23a4.78,4.78,0,0,0-.12.76.5.5,0,0,0,.27.51,3.23,3.23,0,0,0,1.1.12h6.84Z"/><path d="M1129.21,26.82h-2.91l2.89-13.34h2.91Z"/><path d="M1142.9,24a6.37,6.37,0,0,1-.46,1.45,2.33,2.33,0,0,1-.71.86,2.57,2.57,0,0,1-1.13.42,11.59,11.59,0,0,1-1.7.1h-4.5a5.66,5.66,0,0,1-2.27-.31,1.27,1.27,0,0,1-.64-1.27,5.69,5.69,0,0,1,.16-1.25l.95-4.36a6.91,6.91,0,0,1,.48-1.46,2.2,2.2,0,0,1,.72-.86,2.65,2.65,0,0,1,1.11-.41,11.15,11.15,0,0,1,1.67-.1h4.5a9.68,9.68,0,0,1,1.44.08,2.87,2.87,0,0,1,.9.25,1,1,0,0,1,.46.49,1.92,1.92,0,0,1,.13.76,5.69,5.69,0,0,1-.16,1.25Zm-2.68-1,.52-2.42a4.78,4.78,0,0,0,.12-.76q0-.4-.27-.51a3.23,3.23,0,0,0-1.1-.12h-2.32a6.3,6.3,0,0,0-.82,0,1.14,1.14,0,0,0-.52.17.94.94,0,0,0-.32.42,3.62,3.62,0,0,0-.21.76l-.52,2.42a4.78,4.78,0,0,0-.12.76.5.5,0,0,0,.27.51,3.23,3.23,0,0,0,1.1.12h2.32a6.47,6.47,0,0,0,.87-.05,1,1,0,0,0,.51-.2,1,1,0,0,0,.29-.41A4.28,4.28,0,0,0,1140.22,23Z"/><path d="M1155.38,26.8h-2.91l.26-1.23a2.53,2.53,0,0,1-2.18,1.23h-3.06a13.69,13.69,0,0,1-1.42-.07,2.41,2.41,0,0,1-.9-.26,1.07,1.07,0,0,1-.47-.47,1.69,1.69,0,0,1-.14-.76,4,4,0,0,1,0-.57c0-.2.08-.44.15-.7l1.54-7.2h2.88L1147.83,23a3.44,3.44,0,0,0-.1.74.51.51,0,0,0,.27.52,2.93,2.93,0,0,0,1.1.13h2.32a5.07,5.07,0,0,0,.89-.06,1.14,1.14,0,0,0,.51-.21.93.93,0,0,0,.29-.42,5.75,5.75,0,0,0,.18-.7l1.35-6.25h2.89Z"/><path d="M1168.14,26.82h-7.48a10.75,10.75,0,0,1-1.39-.07,3.06,3.06,0,0,1-.9-.24,1.16,1.16,0,0,1-.5-.48,1.76,1.76,0,0,1-.15-.79,5.77,5.77,0,0,1,.17-1.25l.94-4.36a7.48,7.48,0,0,1,.49-1.46,2.18,2.18,0,0,1,.71-.86,2.65,2.65,0,0,1,1.11-.41,11.24,11.24,0,0,1,1.67-.1h3.58l-.52,2.41h-2.47a6,6,0,0,0-.81,0,1.07,1.07,0,0,0-.52.17.88.88,0,0,0-.32.42,4.24,4.24,0,0,0-.22.76L1161,23a4.78,4.78,0,0,0-.12.76.5.5,0,0,0,.28.51,3.19,3.19,0,0,0,1.1.12h3.5l2.37-10.95h2.91Z"/><path d="M1188.22,26.82h-8a5.7,5.7,0,0,1-2.27-.31,1.27,1.27,0,0,1-.64-1.27,5.77,5.77,0,0,1,.17-1.25l1.65-7.7a5.93,5.93,0,0,1,.48-1.46,2.17,2.17,0,0,1,.74-.86,2.91,2.91,0,0,1,1.14-.41,11,11,0,0,1,1.65-.1h8l-.52,2.41h-6.87a6.3,6.3,0,0,0-.86.05,1.07,1.07,0,0,0-.51.19,1,1,0,0,0-.3.43,6.89,6.89,0,0,0-.2.72L1180.64,23a4.78,4.78,0,0,0-.12.76.49.49,0,0,0,.28.51,3.19,3.19,0,0,0,1.1.12h6.84Z"/><path d="M1201.57,24a5.91,5.91,0,0,1-.46,1.45,2.33,2.33,0,0,1-.71.86,2.57,2.57,0,0,1-1.12.42,11.73,11.73,0,0,1-1.71.1h-4.5a5.7,5.7,0,0,1-2.27-.31,1.27,1.27,0,0,1-.64-1.27,5.77,5.77,0,0,1,.17-1.25l.94-4.36a7.48,7.48,0,0,1,.49-1.46,2.18,2.18,0,0,1,.71-.86,2.65,2.65,0,0,1,1.11-.41,11.24,11.24,0,0,1,1.67-.1h4.5a9.59,9.59,0,0,1,1.44.08,2.87,2.87,0,0,1,.9.25,1,1,0,0,1,.47.49,2.11,2.11,0,0,1,.13.76,5.77,5.77,0,0,1-.17,1.25Zm-2.67-1,.52-2.42a4.78,4.78,0,0,0,.12-.76c0-.27-.09-.44-.28-.51a3.19,3.19,0,0,0-1.1-.12h-2.32a6,6,0,0,0-.81,0,1.07,1.07,0,0,0-.52.17.82.82,0,0,0-.32.42,4.24,4.24,0,0,0-.22.76l-.52,2.42a4.78,4.78,0,0,0-.12.76.49.49,0,0,0,.28.51,3.19,3.19,0,0,0,1.1.12H1197a6.3,6.3,0,0,0,.86-.05.95.95,0,0,0,.81-.61A5.48,5.48,0,0,0,1198.9,23Z"/><path d="M1212,19.21h-3.41a6.58,6.58,0,0,0-.87.05,1,1,0,0,0-.5.19,1,1,0,0,0-.3.43,5.08,5.08,0,0,0-.2.72l-1.35,6.22h-2.91l2.17-10h2.92l-.26,1.25a2.47,2.47,0,0,1,2.17-1.25h3.06Z"/><path d="M1223.74,23H1217l.52-2.42h4c.09-.43.14-.67.14-.72q0-.69-1.14-.69h-2.32a5.91,5.91,0,0,0-.79,0,1.23,1.23,0,0,0-.52.2,1,1,0,0,0-.33.43,3.63,3.63,0,0,0-.23.74l-.52,2.42a4.05,4.05,0,0,0-.09.74.51.51,0,0,0,.27.52,2.93,2.93,0,0,0,1.1.13h6l-.52,2.39h-7.08a13.39,13.39,0,0,1-1.42-.07,2.41,2.41,0,0,1-.9-.26,1.09,1.09,0,0,1-.48-.47,1.84,1.84,0,0,1-.14-.76,4.13,4.13,0,0,1,0-.57c0-.2.08-.44.14-.7l.92-4.34a3.45,3.45,0,0,1,1.27-2.19,4.66,4.66,0,0,1,2.74-.67h4.16a5.5,5.5,0,0,1,2.28.33,1.27,1.27,0,0,1,.63,1.25,6,6,0,0,1-.16,1.28Z"/><path d="M1242.68,26.82h-2.89l.73-3.39c0-.17.06-.31.09-.44a1.89,1.89,0,0,0,0-.3.51.51,0,0,0-.27-.52,2.93,2.93,0,0,0-1.1-.13h-3.7l-1,4.78h-2.91l2.08-9.56h2.92l-.53,2.37h3.7a6.3,6.3,0,0,0,.82,0,1.14,1.14,0,0,0,.52-.17.85.85,0,0,0,.3-.42,5.11,5.11,0,0,0,.23-.76l.21-1c0-.17.06-.32.09-.44a1.89,1.89,0,0,0,0-.3c0-.28-.09-.46-.28-.53a3.38,3.38,0,0,0-1.12-.12H1234l.52-2.39h7.69a10.92,10.92,0,0,1,1.42.08,3.08,3.08,0,0,1,.92.26.93.93,0,0,1,.47.47,1.82,1.82,0,0,1,.13.74,6,6,0,0,1-.17,1.28l-.63,2.9c-.24,1.08-.72,1.62-1.43,1.62a1,1,0,0,1,.79,1.1,2.28,2.28,0,0,1-.08.55Z"/><path d="M1256.72,24a6.37,6.37,0,0,1-.46,1.45,2.43,2.43,0,0,1-.71.86,2.62,2.62,0,0,1-1.13.42,11.59,11.59,0,0,1-1.7.1h-4.5a5.76,5.76,0,0,1-2.28-.31,1.28,1.28,0,0,1-.63-1.27,5.69,5.69,0,0,1,.16-1.25l1-4.36a6.91,6.91,0,0,1,.48-1.46,2.27,2.27,0,0,1,.71-.86,2.75,2.75,0,0,1,1.12-.41,11.15,11.15,0,0,1,1.67-.1h4.5a9.68,9.68,0,0,1,1.44.08,2.87,2.87,0,0,1,.9.25,1,1,0,0,1,.46.49,1.92,1.92,0,0,1,.13.76,5.69,5.69,0,0,1-.16,1.25ZM1254,23l.52-2.42a4.78,4.78,0,0,0,.12-.76q0-.4-.27-.51a3.23,3.23,0,0,0-1.1-.12H1251a6.21,6.21,0,0,0-.82,0,1.1,1.1,0,0,0-.52.17.94.94,0,0,0-.32.42,3.62,3.62,0,0,0-.21.76L1248.6,23a4.78,4.78,0,0,0-.12.76.5.5,0,0,0,.27.51,3.23,3.23,0,0,0,1.1.12h2.32a6.47,6.47,0,0,0,.87-.05,1,1,0,0,0,.51-.2,1,1,0,0,0,.29-.41A4.28,4.28,0,0,0,1254,23Z"/><path d="M1269.2,26.8h-2.92l.26-1.23a2.51,2.51,0,0,1-2.17,1.23h-3.06a13.54,13.54,0,0,1-1.42-.07,2.41,2.41,0,0,1-.9-.26,1.07,1.07,0,0,1-.47-.47,1.69,1.69,0,0,1-.14-.76,4,4,0,0,1,0-.57,6.41,6.41,0,0,1,.15-.7l1.53-7.2H1263L1261.64,23a4.05,4.05,0,0,0-.09.74.51.51,0,0,0,.27.52,2.93,2.93,0,0,0,1.1.13h2.32a5.07,5.07,0,0,0,.89-.06,1.19,1.19,0,0,0,.51-.21.85.85,0,0,0,.28-.42,4.22,4.22,0,0,0,.19-.7l1.35-6.25h2.89Z"/><path d="M1277,26.82h-2.34a5.76,5.76,0,0,1-2.28-.31,1.28,1.28,0,0,1-.64-1.27,5.77,5.77,0,0,1,.17-1.25l2.27-10.51h2.92l-.74,3.32h2.82l-.54,2.41h-2.77L1275,23a4.78,4.78,0,0,0-.12.76.5.5,0,0,0,.27.51,3.23,3.23,0,0,0,1.1.12h1.23Z"/><path d="M1290.53,23h-6.77l.52-2.42h4q.15-.64.15-.72,0-.69-1.14-.69h-2.32a5.82,5.82,0,0,0-.79,0,1.28,1.28,0,0,0-.53.2,1.14,1.14,0,0,0-.33.43,3.69,3.69,0,0,0-.22.74l-.52,2.42a3.44,3.44,0,0,0-.1.74.5.5,0,0,0,.28.52,2.89,2.89,0,0,0,1.1.13h6l-.52,2.39h-7.08a13.54,13.54,0,0,1-1.42-.07,2.41,2.41,0,0,1-.9-.26,1.07,1.07,0,0,1-.47-.47,1.69,1.69,0,0,1-.14-.76,4,4,0,0,1,0-.57c0-.2.08-.44.14-.7l.93-4.34a3.41,3.41,0,0,1,1.27-2.19,4.62,4.62,0,0,1,2.73-.67h4.17a5.44,5.44,0,0,1,2.27.33,1.26,1.26,0,0,1,.64,1.25,6.1,6.1,0,0,1-.17,1.28Z"/><path d="M1300.71,19.21h-3.41a6.3,6.3,0,0,0-.86.05,1,1,0,0,0-.51.19,1,1,0,0,0-.3.43,5.08,5.08,0,0,0-.2.72l-1.35,6.22h-2.91l2.18-10h2.91l-.26,1.25a2.48,2.48,0,0,1,2.18-1.25h3Z"/><path d="M1174.89,49.49h-5.48a3.79,3.79,0,0,1-1.57-.22.92.92,0,0,1-.44-.91,4.66,4.66,0,0,1,.11-.9l1.14-5.53a4.66,4.66,0,0,1,.33-1,1.58,1.58,0,0,1,.51-.62,2.06,2.06,0,0,1,.79-.29,7.33,7.33,0,0,1,1.13-.07h5.48l-.36,1.73h-4.73a4.47,4.47,0,0,0-.59,0,.67.67,0,0,0-.35.15.68.68,0,0,0-.21.3,5.27,5.27,0,0,0-.14.52l-.84,4.13a3.38,3.38,0,0,0-.09.55.37.37,0,0,0,.19.37,2.43,2.43,0,0,0,.76.08h4.71Z"/><path d="M1183.63,49.49h-5.48a3.82,3.82,0,0,1-1.57-.22.92.92,0,0,1-.44-.91,4.66,4.66,0,0,1,.11-.9l1.15-5.53a4.23,4.23,0,0,1,.32-1,1.52,1.52,0,0,1,.52-.62A2,2,0,0,1,1179,40a7.33,7.33,0,0,1,1.13-.07h5.48l-.36,1.73h-4.73a4.58,4.58,0,0,0-.59,0,.67.67,0,0,0-.35.15.68.68,0,0,0-.21.3c0,.14-.09.31-.13.52l-.85,4.13a3,3,0,0,0-.08.55.37.37,0,0,0,.18.37,2.43,2.43,0,0,0,.76.08H1184Z"/><path d="M1192.24,49.49h-2l.5-2.43c0-.12,0-.23.06-.32a1,1,0,0,0,0-.21.39.39,0,0,0-.19-.38,2.09,2.09,0,0,0-.76-.09h-2.54l-.72,3.43h-2l1.44-6.86h2l-.36,1.7h2.55a4.28,4.28,0,0,0,.56,0,.64.64,0,0,0,.36-.12.68.68,0,0,0,.21-.3c0-.13.1-.32.16-.55l.14-.7c0-.12,0-.23.06-.32a1,1,0,0,0,0-.21.39.39,0,0,0-.2-.39,2.51,2.51,0,0,0-.77-.08h-4.55l.36-1.72h5.3a6.66,6.66,0,0,1,1,.06,1.88,1.88,0,0,1,.63.19.62.62,0,0,1,.32.34,1.36,1.36,0,0,1,.09.53,4.22,4.22,0,0,1-.11.92l-.44,2.08c-.16.78-.49,1.17-1,1.17a.7.7,0,0,1,.54.78,2.08,2.08,0,0,1,0,.4Z"/><path d="M1198.11,45.89h-3.65l.36-1.74h3.65Z"/><path d="M1203,49.49h-2l1.63-7.86H1201l.36-1.73h3.6Z"/><path d="M1212.8,47.46a4.48,4.48,0,0,1-.31,1,1.71,1.71,0,0,1-.49.62,1.78,1.78,0,0,1-.77.3,7.63,7.63,0,0,1-1.17.07h-3.23a8.76,8.76,0,0,1-1-.05,1.75,1.75,0,0,1-.62-.19.66.66,0,0,1-.32-.34,1.44,1.44,0,0,1-.09-.55,4.06,4.06,0,0,1,.12-.9l1.15-5.53a5.18,5.18,0,0,1,.34-1,1.54,1.54,0,0,1,.49-.62,1.8,1.8,0,0,1,.76-.29,7.53,7.53,0,0,1,1.15-.07h3.23a3.87,3.87,0,0,1,1.58.23.93.93,0,0,1,.45.9,4,4,0,0,1-.12.9Zm-1.84-.7.87-4.13a4.33,4.33,0,0,0,.08-.55.37.37,0,0,0-.19-.37,2.43,2.43,0,0,0-.76-.08h-1.73l-.56,0a.73.73,0,0,0-.36.13.69.69,0,0,0-.22.3,4.06,4.06,0,0,0-.15.55l-.86,4.13a3,3,0,0,0-.08.55.36.36,0,0,0,.19.37,2.31,2.31,0,0,0,.75.08h1.73l.57,0a.73.73,0,0,0,.35-.13.62.62,0,0,0,.22-.3C1210.85,47.18,1210.91,47,1211,46.76Z"/><path d="M1222.18,47.46a4.44,4.44,0,0,1-.32,1,1.52,1.52,0,0,1-.49.62,1.69,1.69,0,0,1-.76.3,7.63,7.63,0,0,1-1.17.07h-3.23a8.76,8.76,0,0,1-1-.05,1.75,1.75,0,0,1-.62-.19.66.66,0,0,1-.32-.34,1.44,1.44,0,0,1-.09-.55,4.66,4.66,0,0,1,.11-.9l1.16-5.53a5.18,5.18,0,0,1,.34-1,1.46,1.46,0,0,1,.49-.62,1.8,1.8,0,0,1,.76-.29,7.53,7.53,0,0,1,1.15-.07h3.23a3.87,3.87,0,0,1,1.58.23.94.94,0,0,1,.44.9,3.92,3.92,0,0,1-.11.9Zm-1.84-.7.86-4.13a3.38,3.38,0,0,0,.09-.55.37.37,0,0,0-.19-.37,2.43,2.43,0,0,0-.76-.08h-1.73l-.56,0a.73.73,0,0,0-.36.13.69.69,0,0,0-.22.3,3,3,0,0,0-.15.55l-.86,4.13a3,3,0,0,0-.08.55.37.37,0,0,0,.18.37,2.43,2.43,0,0,0,.76.08h1.73l.56,0a.73.73,0,0,0,.36-.13.68.68,0,0,0,.21-.3C1220.23,47.18,1220.28,47,1220.34,46.76Z"/><path d="M1231.43,47.46a4.44,4.44,0,0,1-.32,1,1.61,1.61,0,0,1-.49.62,1.73,1.73,0,0,1-.77.3,7.86,7.86,0,0,1-1.18.07h-3.1c-1.32,0-2-.43-2-1.31a3.69,3.69,0,0,1,.09-.72l.13-.68h2a3.14,3.14,0,0,0,0,.43q0,.57.93.57h1.6a4.17,4.17,0,0,0,.56,0,.73.73,0,0,0,.36-.12.62.62,0,0,0,.22-.3c0-.14.1-.32.15-.55l.24-1.23h-3.93c-1,0-1.5-.43-1.5-1.27,0-.07,0-.13,0-.2l0-.22.4-2a5.52,5.52,0,0,1,.34-1.06,1.48,1.48,0,0,1,.5-.62,1.85,1.85,0,0,1,.77-.29,7.29,7.29,0,0,1,1.15-.08h3.1a3.62,3.62,0,0,1,1.57.24.91.91,0,0,1,.45.9,4.84,4.84,0,0,1-.11.91Zm-1.26-3.63.26-1.23a3.38,3.38,0,0,0,.09-.55.37.37,0,0,0-.2-.37,2.23,2.23,0,0,0-.77-.08H1228a3.42,3.42,0,0,0-.62,0,.85.85,0,0,0-.36.15.65.65,0,0,0-.19.3,3.23,3.23,0,0,0-.12.51l0,.21a4.25,4.25,0,0,0-.08.57c0,.3.19.45.56.45Z"/><path d="M1236.88,45.89h-3.66l.36-1.74h3.66Z"/><path d="M1245.85,47.46a5.12,5.12,0,0,1-.31,1,1.58,1.58,0,0,1-.49.61,2,2,0,0,1-.78.31,6.48,6.48,0,0,1-1.18.08H1240a6.83,6.83,0,0,1-1-.05,1.57,1.57,0,0,1-.62-.18.72.72,0,0,1-.32-.35,1.26,1.26,0,0,1-.1-.55,4.26,4.26,0,0,1,.13-.9l.33-1.6a1.94,1.94,0,0,1,1-1.18,1.35,1.35,0,0,1-.57-1,.67.67,0,0,1,0-.16l.33-1.6a4.35,4.35,0,0,1,.33-1,1.58,1.58,0,0,1,.51-.62,2,2,0,0,1,.78-.29,7.25,7.25,0,0,1,1.14-.08h3.1a3.81,3.81,0,0,1,1.57.23.91.91,0,0,1,.45.91,4.14,4.14,0,0,1-.12.9l-.34,1.6a1.41,1.41,0,0,1-.37.7,1.79,1.79,0,0,1-.66.48,1,1,0,0,1,.57,1v.11l0,.11Zm-1.85-.7,0-.22a4,4,0,0,0,.08-.56c0-.29-.19-.43-.56-.43h-2.38a.72.72,0,0,0-.6.2,2.23,2.23,0,0,0-.3.79l0,.22a2.57,2.57,0,0,0-.07.55.36.36,0,0,0,.19.37,2.39,2.39,0,0,0,.76.08h1.59a4.75,4.75,0,0,0,.6,0,.7.7,0,0,0,.35-.14.79.79,0,0,0,.2-.3A3,3,0,0,0,1244,46.76Zm.82-3.95,0-.21a4.33,4.33,0,0,0,.08-.55.37.37,0,0,0-.2-.37,2.16,2.16,0,0,0-.76-.08h-1.59a5.11,5.11,0,0,0-.62,0,.66.66,0,0,0-.35.14.62.62,0,0,0-.2.31,3.54,3.54,0,0,0-.11.52l0,.21a3,3,0,0,0-.08.55.37.37,0,0,0,.18.37,2.43,2.43,0,0,0,.76.08h1.6l.57,0a.73.73,0,0,0,.35-.13.58.58,0,0,0,.21-.3A5.08,5.08,0,0,0,1244.82,42.81Z"/><path d="M1254.15,49.49h-5.3a3.85,3.85,0,0,1-1.57-.22.92.92,0,0,1-.44-.91,4.06,4.06,0,0,1,.12-.9L1248.1,42a5.07,5.07,0,0,1,.33-1.07,1.56,1.56,0,0,1,.5-.62,1.77,1.77,0,0,1,.77-.28,9.07,9.07,0,0,1,1.15-.07h5.29l-.36,1.72h-4.55a3.24,3.24,0,0,0-.61,0,.76.76,0,0,0-.35.15.59.59,0,0,0-.2.3,4.62,4.62,0,0,0-.13.51l-.85,4.13a4.33,4.33,0,0,0-.08.55.36.36,0,0,0,.19.37,2.39,2.39,0,0,0,.76.08h2.54l.47-2.21h-2.85l.36-1.74h4.86Z"/><path d="M1259.56,45.89h-3.65l.36-1.74h3.65Z"/><path d="M1264.42,49.49h-2l1.63-7.86h-1.6l.36-1.73h3.6Z"/><path d="M1274.06,47.46a5.58,5.58,0,0,1-.33,1,1.59,1.59,0,0,1-.48.62,1.69,1.69,0,0,1-.76.3,7.63,7.63,0,0,1-1.17.07h-5.43l.36-1.73h4.68l.56,0a.73.73,0,0,0,.36-.13.68.68,0,0,0,.21-.3c0-.13.1-.32.16-.55l0-.22a4,4,0,0,0,.08-.56c0-.29-.19-.43-.56-.43h-2.87a2.2,2.2,0,0,1-1.38-.39,1.22,1.22,0,0,1-.51-1,.81.81,0,0,1,0-.16,1,1,0,0,1,0-.16l.41-1.91a4.79,4.79,0,0,1,.34-1,1.52,1.52,0,0,1,.48-.62,1.91,1.91,0,0,1,.77-.29,7.29,7.29,0,0,1,1.15-.08h5.43l-.36,1.74h-4.66a4.45,4.45,0,0,0-.56,0,.73.73,0,0,0-.36.13.59.59,0,0,0-.22.3,2.22,2.22,0,0,0-.15.55l0,.21a4.33,4.33,0,0,0-.08.55.37.37,0,0,0,.2.37,2.43,2.43,0,0,0,.76.08h2.73q1.56,0,1.56,1.5a2.5,2.5,0,0,1,0,.55Z"/><path d="M1279.28,45.89h-3.65l.36-1.74h3.65Z"/><path d="M1284.14,49.49h-2l1.63-7.86h-1.59l.36-1.73h3.6Z"/><path d="M1293.78,47.46a5.58,5.58,0,0,1-.33,1,1.59,1.59,0,0,1-.48.62,1.73,1.73,0,0,1-.77.3,7.49,7.49,0,0,1-1.16.07h-5.43l.36-1.73h4.68l.56,0a.73.73,0,0,0,.36-.13.68.68,0,0,0,.21-.3c0-.13.1-.32.16-.55l0-.22a3.15,3.15,0,0,0,.09-.56c0-.29-.19-.43-.56-.43h-2.87a2.23,2.23,0,0,1-1.39-.39,1.23,1.23,0,0,1-.5-1,.81.81,0,0,1,0-.16,1,1,0,0,1,0-.16l.41-1.91a5.47,5.47,0,0,1,.33-1,1.63,1.63,0,0,1,.49-.62,1.85,1.85,0,0,1,.77-.29,7.29,7.29,0,0,1,1.15-.08h5.43L1295,41.6h-4.66a4.71,4.71,0,0,0-.57,0,.73.73,0,0,0-.35.13.54.54,0,0,0-.22.3,2.22,2.22,0,0,0-.15.55l0,.21a4.33,4.33,0,0,0-.08.55.36.36,0,0,0,.19.37,2.51,2.51,0,0,0,.77.08h2.72c1.05,0,1.57.5,1.57,1.5a3.31,3.31,0,0,1-.05.55Z"/><path d="M1301.33,45.89h-2.12l-.33,1.57h-1.69l.32-1.57h-2.18l.36-1.74h2.18l.31-1.47h1.7l-.31,1.47h2.12Z"/><path d="M705.26,122.27a.9.9,0,0,1-.2.7,1.08,1.08,0,0,1-.72.18h-2.29a1,1,0,0,1-.75-.2,1.24,1.24,0,0,1-.18-.78l.76-.16v.44h2.62v-.85h-2.31a1.08,1.08,0,0,1-.72-.18,1,1,0,0,1-.2-.7v-.41a.94.94,0,0,1,.2-.7,1.08,1.08,0,0,1,.72-.18h2.1a1.09,1.09,0,0,1,.73.18,1,1,0,0,1,.19.71l-.76.18v-.42H702v.8h2.32a1.08,1.08,0,0,1,.72.18.9.9,0,0,1,.2.7Z"/><path d="M711.89,123.15h-.8v-2.32c0-.08,0-.2,0-.38,0,.09-.12.22-.22.39l-1.39,1.86h-.17l-1.4-1.87a1.68,1.68,0,0,1-.22-.38,2.62,2.62,0,0,1,0,.37v2.33h-.69v-3.72h.69l1.75,2.25,1.71-2.25h.69Z"/><path d="M718.05,123.15h-1l-.44-.82h-2.35l-.43.82H713l2.1-3.72h.84Zm-1.77-1.49-.8-1.51-.83,1.51Z"/><path d="M723.64,123.15H722.4l-1.49-1.41h-.82v1.41h-.85v-3.72h3.18c.55,0,.83.24.83.72V121a.61.61,0,0,1-.43.67,4,4,0,0,1-.89,0Zm-1.22-2.34v-.44a.26.26,0,0,0-.11-.25.6.6,0,0,0-.28-.05h-1.94v1H722a.6.6,0,0,0,.28,0A.26.26,0,0,0,722.42,120.81Z"/><path d="M728.3,120.09h-1.71v3.06h-.86v-3.06H724v-.66h4.27Z"/><path d="M736.11,122.27a.9.9,0,0,1-.2.7,1.08,1.08,0,0,1-.72.18H733a1.08,1.08,0,0,1-.72-.18.94.94,0,0,1-.2-.7v-2a.94.94,0,0,1,.2-.7,1.08,1.08,0,0,1,.72-.18h2.21c.44,0,.72.1.82.31a2.41,2.41,0,0,1,.1.92l-.86.14v-.71h-2.33v2.36h2.33v-.8l.86.18Z"/><path d="M742.1,123.15h-1l-.44-.82h-2.35l-.43.82h-.86l2.09-3.72H740Zm-1.77-1.49-.8-1.51-.83,1.51Z"/><path d="M747.69,123.15h-1.23l-1.5-1.41h-.82v1.41h-.84v-3.72h3.17c.56,0,.83.24.83.72V121a.61.61,0,0,1-.43.67,3.9,3.9,0,0,1-.89,0Zm-1.22-2.34v-.44a.26.26,0,0,0-.11-.25.58.58,0,0,0-.28-.05h-1.94v1h1.94a.58.58,0,0,0,.28,0A.26.26,0,0,0,746.47,120.81Z"/><path d="M753.56,121.27a1.73,1.73,0,0,1-.82,1.59,3,3,0,0,1-1.52.29h-2.16v-3.72h2.38a2.36,2.36,0,0,1,1.51.43A1.68,1.68,0,0,1,753.56,121.27Zm-.89,0c0-.77-.41-1.16-1.22-1.16h-1.53v2.36H751a2.52,2.52,0,0,0,1.15-.2A1,1,0,0,0,752.67,121.25Z"/><path d="M711.58,74.45a.94.94,0,0,1-.2.7,1.08,1.08,0,0,1-.72.18h-2.22a1.08,1.08,0,0,1-.72-.18.94.94,0,0,1-.2-.7v-2a1,1,0,0,1,.2-.7,1.08,1.08,0,0,1,.72-.18h2.22c.44,0,.71.11.82.31a2.67,2.67,0,0,1,.1.93l-.87.13v-.71h-2.32v2.36h2.32v-.8l.87.18Z"/><path d="M717.85,74.45a.94.94,0,0,1-.2.7,1.08,1.08,0,0,1-.72.18H714.2a1.08,1.08,0,0,1-.72-.18.9.9,0,0,1-.2-.7v-2a.92.92,0,0,1,.2-.7,1.08,1.08,0,0,1,.72-.18h2.73a1.08,1.08,0,0,1,.72.18,1,1,0,0,1,.2.7Zm-.86.18V72.27h-2.85v2.36Z"/><path d="M724,75.33h-.59L720.71,73a1.77,1.77,0,0,1-.31-.3q0,.36,0,.57v2h-.77V71.61h.59l2.6,2.19a4.47,4.47,0,0,1,.43.41c0-.35,0-.56,0-.64v-2H724Z"/><path d="M729.93,74.45a.94.94,0,0,1-.2.7,1.13,1.13,0,0,1-.73.18h-2.29c-.38,0-.63-.06-.74-.2a1.14,1.14,0,0,1-.18-.78l.76-.16v.44h2.62v-.85h-2.31a1.13,1.13,0,0,1-.73-.18,1,1,0,0,1-.19-.7v-.41a1,1,0,0,1,.19-.7,1.13,1.13,0,0,1,.73-.18H729a1,1,0,0,1,.73.19,1,1,0,0,1,.19.71l-.76.18v-.43h-2.43v.8H729a1.13,1.13,0,0,1,.73.18,1,1,0,0,1,.2.7Z"/><path d="M736.21,74.45a.94.94,0,0,1-.2.7,1.08,1.08,0,0,1-.72.18h-2.73a1.08,1.08,0,0,1-.72-.18.94.94,0,0,1-.2-.7v-2a1,1,0,0,1,.2-.7,1.08,1.08,0,0,1,.72-.18h2.73a1.08,1.08,0,0,1,.72.18,1,1,0,0,1,.2.7Zm-.86.18V72.27H732.5v2.36Z"/><path d="M741.67,75.33H738V71.61h.86v3h2.78Z"/><path d="M746.76,75.33h-3.83V71.61h3.8v.64H743.8v.83h1.71v.63H743.8v.92h3Z"/><path d="M803,117.23a.86.86,0,0,1-.19.67,1,1,0,0,1-.67.17H800a1,1,0,0,1-.67-.17.91.91,0,0,1-.18-.67v-2.69h.79v2.87h2.27v-2.87H803Z"/><path d="M808.19,117.23a.91.91,0,0,1-.18.67,1,1,0,0,1-.67.17h-2.12a1,1,0,0,1-.7-.19,1.22,1.22,0,0,1-.16-.75l.71-.14v.42h2.4v-.81h-2.12a1,1,0,0,1-.65-.16.86.86,0,0,1-.2-.68v-.39a.88.88,0,0,1,.2-.68,1.05,1.05,0,0,1,.65-.15h1.95a1,1,0,0,1,.67.16,1,1,0,0,1,.18.69l-.68.16v-.38h-2.25v.74h2.12a1,1,0,0,1,.67.17.89.89,0,0,1,.18.67Z"/><path d="M813.3,117.37c0,.47-.34.7-1,.7h-2.72v-3.53h2.93c.52,0,.78.22.78.68v.43c0,.33-.19.53-.56.6a.61.61,0,0,1,.58.67Zm-.8-1.67v-.34c0-.17-.12-.25-.36-.25h-1.79V116h1.79C812.38,116,812.5,115.86,812.5,115.7Zm0,1.41v-.26a.3.3,0,0,0-.11-.27.6.6,0,0,0-.28,0h-1.79v.9h1.79a.5.5,0,0,0,.28-.05A.29.29,0,0,0,812.53,117.11Z"/><path d="M778.69,115.6c0,.48-.25.71-.76.71H775.8v1.43H775v-3.67h2.91c.51,0,.76.24.76.72Zm-.76-.21V115a.26.26,0,0,0-.1-.24.42.42,0,0,0-.26-.05H775.8v1h1.77a.51.51,0,0,0,.26-.05A.27.27,0,0,0,777.93,115.39Z"/><path d="M785,114.07l-1.31,3.67h-.54l-.93-2.54-1,2.54h-.55l-1.31-3.67h.82l.86,2.46.9-2.46h.56l.92,2.46.82-2.46Z"/><path d="M790.16,117.74H789l-1.37-1.38h-.75v1.38h-.78v-3.67H789c.51,0,.77.24.77.72v.86a.62.62,0,0,1-.4.66,4,4,0,0,1-.82,0Zm-1.12-2.3V115c0-.12,0-.21-.1-.24a.39.39,0,0,0-.25-.05h-1.78v1h1.78a.47.47,0,0,0,.25,0A.25.25,0,0,0,789,115.44Z"/><path d="M665.32,117.74h-1.13l-1.37-1.38h-.75v1.38h-.78v-3.67h2.91c.51,0,.76.24.76.72v.86a.61.61,0,0,1-.39.66,4,4,0,0,1-.82,0Zm-1.12-2.3V115c0-.12,0-.21-.1-.24a.42.42,0,0,0-.26-.05h-1.77v1h1.77a.51.51,0,0,0,.26,0A.25.25,0,0,0,664.2,115.44Z"/><path d="M670.08,117.74h-3.51v-3.67h3.48v.63h-2.69v.82h1.57v.62h-1.57v.91h2.72Z"/><path d="M675.23,116.88a.93.93,0,0,1-.19.69,1,1,0,0,1-.66.17h-2.1c-.35,0-.58-.06-.69-.2a1.24,1.24,0,0,1-.16-.76l.7-.16v.43h2.4v-.84h-2.12a.94.94,0,0,1-.66-.17,1,1,0,0,1-.18-.69v-.41a1,1,0,0,1,.18-.69.93.93,0,0,1,.66-.18h1.93a.87.87,0,0,1,.66.19,1,1,0,0,1,.18.7l-.7.17v-.42h-2.22v.79h2.12a.71.71,0,0,1,.85.87Z"/><polygon points="257.21 62.79 256.21 62.79 256.21 57.29 335.49 57.29 335.49 58.29 257.21 58.29 257.21 62.79"/><polygon points="247.88 70.43 246.88 70.43 246.88 57.93 164.47 57.93 164.47 64.77 163.47 64.77 163.47 56.93 247.88 56.93 247.88 70.43"/><polygon points="247.88 119.27 225.04 119.27 225.04 118.27 246.88 118.27 246.88 104.35 247.88 104.35 247.88 119.27"/><polygon points="454.67 63.72 453.67 63.72 453.67 58.29 375.63 58.29 375.63 57.29 454.67 57.29 454.67 63.72"/><path d="M342.31,59a.75.75,0,0,1-.92.92h-2.55a.75.75,0,0,1-.91-.92V57a1,1,0,0,1,.2-.73,1.06,1.06,0,0,1,.71-.19h2.55a1,1,0,0,1,.73.2,1.15,1.15,0,0,1,.19.78l-.84.16v-.44h-2.68v2.47h2.68v-.87h-1.4v-.66h2.24Z"/><path d="M348.5,60h-1.23l-1.49-1.47H345V60h-.85v-3.9h3.16c.56,0,.83.25.83.76v.91a.66.66,0,0,1-.43.71,4.6,4.6,0,0,1-.88,0Zm-1.22-2.45V57c0-.13,0-.21-.1-.25a.52.52,0,0,0-.28-.05H345v1.08h1.93a.52.52,0,0,0,.28-.05C347.25,57.72,347.28,57.63,347.28,57.5Z"/><path d="M354.33,59a.75.75,0,0,1-.92.92h-2.72a1.05,1.05,0,0,1-.72-.19,1,1,0,0,1-.19-.73V57a1,1,0,0,1,.19-.73,1.11,1.11,0,0,1,.72-.19h2.72a1.07,1.07,0,0,1,.72.19,1,1,0,0,1,.2.73Zm-.86.19V56.75h-2.83v2.47Z"/><path d="M360.3,59a.75.75,0,0,1-.92.92h-2.33a.75.75,0,0,1-.92-.92v-3H357v3.17h2.45V56.05h.86Z"/><path d="M366.17,57.68c0,.5-.27.75-.83.75H363V60h-.85v-3.9h3.16c.56,0,.83.25.83.76Zm-.83-.23V57c0-.13,0-.21-.1-.25a.52.52,0,0,0-.28-.05H363v1H365a.63.63,0,0,0,.28,0C365.31,57.67,365.34,57.58,365.34,57.45Z"/><path d="M372.63,60h-.78V56.79h-.79v-.52l1.57-.25Z"/><path d="M610.71,57.84a.77.77,0,0,1-.86.87h-2.4v1.76h-.87V56h3.27a.77.77,0,0,1,.86.88Zm-.86-.26V57.1a.35.35,0,0,0-.11-.3.52.52,0,0,0-.29-.06h-2v1.2h2a.52.52,0,0,0,.29-.06A.35.35,0,0,0,609.85,57.58Z"/><path d="M616.7,59.4a1.33,1.33,0,0,1-.2.85,1,1,0,0,1-.75.22h-2.81a1,1,0,0,1-.74-.22,1.27,1.27,0,0,1-.2-.85V57a1.27,1.27,0,0,1,.2-.85,1,1,0,0,1,.74-.22h2.81a1,1,0,0,1,.75.22,1.33,1.33,0,0,1,.2.85Zm-.89.22V56.77h-2.93v2.85Z"/><path d="M622.52,60.47h-3.95V56h3.91v.77h-3v1h1.76v.77h-1.76v1.12h3.06Z"/><path d="M628.28,55.82l-1.94,4.79h-.47l1.92-4.79Z"/><path d="M636.1,59.59c0,.59-.37.88-1.12.88h-3V56h3.27a.77.77,0,0,1,.86.88v.55a.7.7,0,0,1-.66.76.76.76,0,0,1,.69.86Zm-.85-2.14V57c0-.22-.13-.32-.41-.32h-2v1.07h2C635.12,57.77,635.25,57.66,635.25,57.45Zm0,1.81v-.35c0-.16,0-.27-.1-.32a.53.53,0,0,0-.33-.08h-2v1.15h2a.53.53,0,0,0,.33-.08C635.24,59.53,635.27,59.42,635.27,59.26Z"/><path d="M642.44,59.4a1.27,1.27,0,0,1-.2.85,1,1,0,0,1-.74.22h-2.81a1,1,0,0,1-.75-.22,1.33,1.33,0,0,1-.2-.85V57a1.33,1.33,0,0,1,.2-.85,1,1,0,0,1,.75-.22h2.81a1,1,0,0,1,.74.22,1.27,1.27,0,0,1,.2.85Zm-.88.22V56.77h-2.93v2.85Z"/><path d="M648.94,59.4a1.33,1.33,0,0,1-.2.85,1,1,0,0,1-.75.22h-2.81a1,1,0,0,1-.74-.22,1.27,1.27,0,0,1-.2-.85V57a1.27,1.27,0,0,1,.2-.85,1,1,0,0,1,.74-.22H648a1,1,0,0,1,.75.22,1.33,1.33,0,0,1,.2.85Zm-.89.22V56.77h-2.93v2.85Z"/><path d="M654.35,56.77h-1.76v3.7h-.89v-3.7H650V56h4.4Z"/><path d="M158.68,120a1.41,1.41,0,0,1-.19.88.91.91,0,0,1-.71.23h-2.22a.84.84,0,0,1-.73-.25,2,2,0,0,1-.17-1l.74-.2v.55h2.54v-1.07H155.7a.88.88,0,0,1-.7-.23,1.4,1.4,0,0,1-.2-.88v-.51a1.4,1.4,0,0,1,.2-.88.88.88,0,0,1,.7-.23h2a.9.9,0,0,1,.71.23,1.55,1.55,0,0,1,.18.89l-.74.23v-.53h-2.35v1h2.24a.91.91,0,0,1,.71.23,1.41,1.41,0,0,1,.19.88Z"/><path d="M164.06,117.24h-2.8v1.23h1.51v.85h-1.51v1.78h-.84v-4.68h3.64Z"/><path d="M169,118.37c0,.6-.27.91-.81.91h-2.26v1.82h-.82v-4.68h3.08c.54,0,.81.3.81.91Zm-.81-.27v-.5c0-.16,0-.26-.1-.31a.48.48,0,0,0-.28-.06h-1.88v1.24h1.88a.48.48,0,0,0,.28-.06C168.15,118.36,168.18,118.26,168.18,118.1Z"/><path d="M174.3,118.71h-1.79v2.39H172v-2.39h-1.8v-.62H172v-2.4h.49v2.4h1.79Z"/><path d="M212.72,120a1.41,1.41,0,0,1-.19.88.91.91,0,0,1-.71.23H209.6a.84.84,0,0,1-.73-.25,2,2,0,0,1-.17-1l.74-.2v.55H212v-1.07h-2.25a.89.89,0,0,1-.7-.23,1.41,1.41,0,0,1-.19-.88v-.51a1.41,1.41,0,0,1,.19-.88.89.89,0,0,1,.7-.23h2a.9.9,0,0,1,.71.23,1.54,1.54,0,0,1,.19.89l-.74.23v-.53h-2.36v1h2.24a.91.91,0,0,1,.71.23,1.41,1.41,0,0,1,.19.88Z"/><path d="M218.1,117.24h-2.8v1.23h1.51v.85H215.3v1.78h-.84v-4.68h3.64Z"/><path d="M223,118.37c0,.6-.27.91-.81.91H220v1.82h-.82v-4.68h3.08c.54,0,.81.3.81.91Zm-.81-.27v-.5c0-.16,0-.26-.1-.31a.45.45,0,0,0-.27-.06H220v1.24h1.89a.45.45,0,0,0,.27-.06C222.19,118.36,222.22,118.26,222.22,118.1Z"/><path d="M213.29,71.27h-.76V67.48h-.76v-.63l1.52-.3Z"/><path d="M220.57,70.16a1.48,1.48,0,0,1-.19.88.9.9,0,0,1-.7.23h-2.49a.89.89,0,0,1-.7-.23,1.41,1.41,0,0,1-.19-.88V67.69a1.43,1.43,0,0,1,.19-.88.89.89,0,0,1,.7-.22h2.49a.85.85,0,0,1,.71.24,1.67,1.67,0,0,1,.18.93l-.82.19v-.53h-2.61v3h2.61v-1h-1.36v-.79h2.18Z"/><path d="M157.09,71.27h-.76V67.48h-.77v-.63l1.53-.3Z"/><path d="M164,70.16a1.54,1.54,0,0,1-.17.87.74.74,0,0,1-.65.24h-2.43a.78.78,0,0,1-.66-.24,1.63,1.63,0,0,1-.17-.87V67.69a1.63,1.63,0,0,1,.17-.87.81.81,0,0,1,.66-.23h2.43a.77.77,0,0,1,.65.23,1.54,1.54,0,0,1,.17.87Zm-.75.26v-3h-2.57v3Z"/><path d="M172.45,70.16a1.41,1.41,0,0,1-.19.88.89.89,0,0,1-.7.23h-2.49a.89.89,0,0,1-.7-.23,1.41,1.41,0,0,1-.19-.88V67.69a1.43,1.43,0,0,1,.19-.88.89.89,0,0,1,.7-.22h2.49a.85.85,0,0,1,.71.24,1.67,1.67,0,0,1,.18.93l-.82.19v-.53H169v3h2.61v-1h-1.36v-.79h2.18Z"/><rect class="cls-10" x="258.97" y="67.38" width="44.63" height="35.92"/><rect class="cls-24" x="262.59" y="94.25" width="8.13" height="6.11"/><rect class="cls-25" x="291.85" y="94.25" width="8.13" height="6.11"/><polygon class="cls-5" points="298.31 74.63 264.18 74.63 264.18 93.81 271.18 93.81 271.18 100.31 275.47 100.31 275.47 103.25 287.12 103.25 287.12 100.31 291.4 100.31 291.4 93.81 298.31 93.81 298.31 74.63"/><rect class="cls-26" x="269.53" y="74.63" width="1.32" height="7.2"/><rect class="cls-27" x="272.7" y="74.63" width="1.32" height="7.2"/><rect class="cls-28" x="275.87" y="74.63" width="1.32" height="7.2"/><rect class="cls-29" x="279.04" y="74.63" width="1.32" height="7.2"/><rect class="cls-30" x="282.21" y="74.63" width="1.32" height="7.2"/><rect class="cls-31" x="285.38" y="74.63" width="1.32" height="7.2"/><rect class="cls-32" x="288.55" y="74.63" width="1.32" height="7.2"/><rect class="cls-33" x="291.72" y="74.63" width="1.32" height="7.2"/><rect class="cls-34" x="319.38" y="74.63" width="1.32" height="7.2"/><rect class="cls-35" x="322.55" y="74.63" width="1.32" height="7.2"/><rect class="cls-36" x="325.72" y="74.63" width="1.32" height="7.2"/><rect class="cls-37" x="328.89" y="74.63" width="1.32" height="7.2"/><rect class="cls-38" x="332.06" y="74.63" width="1.32" height="7.2"/><rect class="cls-39" x="335.23" y="74.63" width="1.32" height="7.2"/><rect class="cls-40" x="338.4" y="74.63" width="1.32" height="7.2"/><rect class="cls-41" x="341.57" y="74.63" width="1.32" height="7.2"/><rect class="cls-42" x="369.23" y="74.63" width="1.32" height="7.2"/><rect class="cls-43" x="372.4" y="74.63" width="1.32" height="7.2"/><rect class="cls-44" x="375.57" y="74.63" width="1.32" height="7.2"/><rect class="cls-45" x="378.74" y="74.63" width="1.32" height="7.2"/><rect class="cls-46" x="381.91" y="74.63" width="1.32" height="7.2"/><rect class="cls-47" x="385.08" y="74.63" width="1.32" height="7.2"/><rect class="cls-48" x="388.25" y="74.63" width="1.32" height="7.2"/><rect class="cls-49" x="391.42" y="74.63" width="1.32" height="7.2"/><rect class="cls-50" x="419.08" y="74.63" width="1.32" height="7.2"/><rect class="cls-51" x="422.25" y="74.63" width="1.32" height="7.2"/><rect class="cls-52" x="425.42" y="74.63" width="1.32" height="7.2"/><rect class="cls-53" x="428.59" y="74.63" width="1.32" height="7.2"/><rect class="cls-54" x="431.76" y="74.63" width="1.32" height="7.2"/><rect class="cls-55" x="434.93" y="74.63" width="1.32" height="7.2"/><rect class="cls-56" x="438.1" y="74.63" width="1.32" height="7.2"/><rect class="cls-57" x="441.26" y="74.63" width="1.32" height="7.2"/><rect class="cls-58" x="468.93" y="74.63" width="1.32" height="7.2"/><rect class="cls-59" x="472.1" y="74.63" width="1.32" height="7.2"/><rect class="cls-60" x="475.27" y="74.63" width="1.32" height="7.2"/><rect class="cls-61" x="478.44" y="74.63" width="1.32" height="7.2"/><rect class="cls-62" x="481.61" y="74.63" width="1.32" height="7.2"/><rect class="cls-63" x="484.78" y="74.63" width="1.32" height="7.2"/><rect class="cls-64" x="487.95" y="74.63" width="1.32" height="7.2"/><rect class="cls-65" x="491.11" y="74.63" width="1.32" height="7.2"/><rect class="cls-66" x="518.78" y="74.63" width="1.32" height="7.2"/><rect class="cls-67" x="521.95" y="74.63" width="1.32" height="7.2"/><rect class="cls-68" x="525.12" y="74.63" width="1.32" height="7.2"/><rect class="cls-69" x="528.29" y="74.63" width="1.32" height="7.2"/><rect class="cls-70" x="531.46" y="74.63" width="1.32" height="7.2"/><rect class="cls-71" x="534.63" y="74.63" width="1.32" height="7.2"/><rect class="cls-72" x="537.79" y="74.63" width="1.32" height="7.2"/><rect class="cls-73" x="540.96" y="74.63" width="1.32" height="7.2"/><rect class="cls-74" x="568.63" y="74.63" width="1.32" height="7.2"/><rect class="cls-75" x="571.8" y="74.63" width="1.32" height="7.2"/><rect class="cls-76" x="574.97" y="74.63" width="1.32" height="7.2"/><rect class="cls-77" x="578.14" y="74.63" width="1.32" height="7.2"/><rect class="cls-78" x="581.31" y="74.63" width="1.32" height="7.2"/><rect class="cls-79" x="584.48" y="74.63" width="1.32" height="7.2"/><rect class="cls-80" x="587.64" y="74.63" width="1.32" height="7.2"/><rect class="cls-81" x="590.81" y="74.63" width="1.32" height="7.2"/><rect class="cls-82" x="611.54" y="94.25" width="8.13" height="6.11"/><rect class="cls-83" x="640.8" y="94.25" width="8.13" height="6.11"/><polygon class="cls-5" points="647.25 74.63 613.13 74.63 613.13 93.81 620.13 93.81 620.13 100.31 624.41 100.31 624.41 103.25 636.06 103.25 636.06 100.31 640.35 100.31 640.35 93.81 647.25 93.81 647.25 74.63"/><rect class="cls-84" x="618.48" y="74.63" width="1.32" height="7.2"/><rect class="cls-85" x="621.65" y="74.63" width="1.32" height="7.2"/><rect class="cls-86" x="624.82" y="74.63" width="1.32" height="7.2"/><rect class="cls-87" x="627.99" y="74.63" width="1.32" height="7.2"/><rect class="cls-88" x="631.16" y="74.63" width="1.32" height="7.2"/><rect class="cls-89" x="634.32" y="74.63" width="1.32" height="7.2"/><rect class="cls-90" x="637.49" y="74.63" width="1.32" height="7.2"/><rect class="cls-91" x="640.66" y="74.63" width="1.32" height="7.2"/><rect class="cls-92" x="52.65" width="1.68" height="125.19"/><rect class="cls-93" x="48.9" width="2.75" height="125.19"/><rect class="cls-7" x="54.72" width="0.9" height="125.19"/><rect class="cls-92" x="1314.1" width="1.68" height="125.19"/><rect class="cls-93" x="1316.78" width="2.75" height="125.19"/><rect class="cls-7" x="1312.8" width="0.9" height="125.19"/><circle cx="692.74" cy="92.18" r="4.71"/><circle cx="764.17" cy="92.18" r="4.71"/><path class="cls-2" d="M799.68,98.27h15.54a1.21,1.21,0,0,1,0,.18v4.07a.52.52,0,0,1-.12.31l-2.31,2.5a.39.39,0,0,1-.28.11c-2.6,0-5.21,0-7.82,0-.78,0-1.56,0-2.34,0a.39.39,0,0,1-.25-.1l-2.32-2.51a.46.46,0,0,1-.11-.27c0-1.39,0-2.79,0-4.18C799.67,98.35,799.68,98.32,799.68,98.27Zm7.77,1.19h-6.38c-.16,0-.21,0-.21.2,0,.79,0,1.59,0,2.38a.48.48,0,0,0,.1.28l1.68,1.83a.33.33,0,0,0,.23.1H812a.32.32,0,0,0,.22-.1c.57-.61,1.13-1.21,1.68-1.83A.49.49,0,0,0,814,102c0-.79,0-1.57,0-2.36,0-.18,0-.22-.23-.22Z"/><path class="cls-94" d="M807.45,99.46h6.37c.18,0,.23,0,.23.22,0,.79,0,1.57,0,2.36a.49.49,0,0,1-.11.28c-.55.62-1.11,1.22-1.68,1.83a.32.32,0,0,1-.22.1h-9.15a.33.33,0,0,1-.23-.1L801,102.32a.48.48,0,0,1-.1-.28c0-.79,0-1.59,0-2.38,0-.16,0-.2.21-.2Zm-.6,2.38h1.21v-.57h.6v.58h1.19v-.59h.6v.58h1.2v-.59h1.18v-1.18H802.07v1.19h1.2v.58h1.19v-.58h.6v.58h1.2v-.57h.59Z"/><path class="cls-2" d="M806.85,101.84v-.57h-.59v.57h-1.2v-.58h-.6v.58h-1.19v-.58h-1.2v-1.19h10.76v1.18h-1.18v.59h-1.2v-.58h-.6v.59h-1.19v-.58h-.6v.57Z"/><rect class="cls-95" x="803.27" y="101.26" width="1.19" height="0.58"/><rect class="cls-95" x="805.07" y="101.26" width="1.19" height="0.58"/><rect class="cls-95" x="806.86" y="101.26" width="1.19" height="0.58"/><rect class="cls-95" x="808.66" y="101.26" width="1.19" height="0.58"/><rect class="cls-95" x="810.46" y="101.26" width="1.19" height="0.58"/><rect class="cls-5" x="144.1" y="76.42" width="41.99" height="29.25"/><path class="cls-96" d="M185.5,104.82H144.7V77.05h40.8Zm-39.8-1h38.8V78.05H145.7Z"/><rect class="cls-5" x="157.3" y="102.8" width="15.59" height="2.25"/><rect class="cls-96" x="158.5" y="102.58" width="13.2" height="1.8"/><rect class="cls-5" x="196.12" y="76.42" width="41.99" height="29.25"/><path class="cls-96" d="M237.52,104.82H196.71V77.05h40.81Zm-39.81-1h38.81V78.05H197.71Z"/><rect class="cls-5" x="209.32" y="102.8" width="15.59" height="2.25"/><rect class="cls-96" x="210.51" y="102.58" width="13.2" height="1.8"/></svg>