<svg id="Camada_1" data-name="Camada 1" xmlns="http://www.w3.org/2000/svg" xmlns:xlink="http://www.w3.org/1999/xlink" viewBox="0 0 1368 125.19"><defs><style>.cls-1{fill:#d4d4d4;}.cls-2{fill:#a8a7ad;}.cls-3{fill:#f1f1f2;}.cls-4{fill:gray;}.cls-5{fill:#211915;}.cls-6{fill:#1a1a1a;}.cls-7{fill:url(#Gradiente_sem_nome_66);}.cls-8{fill:url(#Gradiente_sem_nome_66-2);}.cls-9{fill:url(#Gradiente_sem_nome_66-3);}.cls-10{fill:url(#Gradiente_sem_nome_66-4);}.cls-11{fill:url(#Gradiente_sem_nome_66-5);}.cls-12{fill:url(#Gradiente_sem_nome_66-6);}.cls-13{fill:url(#Gradiente_sem_nome_66-7);}.cls-14{fill:url(#Gradiente_sem_nome_66-8);}.cls-15{fill:url(#Gradiente_sem_nome_66-9);}.cls-16{fill:url(#Gradiente_sem_nome_66-10);}.cls-17{fill:url(#Gradiente_sem_nome_66-11);}.cls-18{fill:url(#Gradiente_sem_nome_66-12);}.cls-19{fill:url(#Gradiente_sem_nome_66-13);}.cls-20{fill:url(#Gradiente_sem_nome_66-14);}.cls-21{fill:url(#Gradiente_sem_nome_66-15);}.cls-22{fill:url(#Gradiente_sem_nome_66-16);}.cls-23{fill:url(#Gradiente_sem_nome_46);}.cls-24{fill:url(#Gradiente_sem_nome_34);}.cls-25{fill:url(#Gradiente_sem_nome_3);}.cls-26{fill:#c9c9c9;}.cls-27,.cls-28,.cls-29,.cls-30{fill:lime;stroke-miterlimit:10;stroke-width:0.5px;}.cls-27{stroke:url(#Gradiente_sem_nome_129);}.cls-28{stroke:url(#Gradiente_sem_nome_129-2);}.cls-29{stroke:url(#Gradiente_sem_nome_129-3);}.cls-30{stroke:url(#Gradiente_sem_nome_129-4);}.cls-31{fill:#262424;}.cls-32{fill:url(#Gradiente_sem_nome_46-2);}.cls-33{fill:url(#Gradiente_sem_nome_111);}.cls-34{fill:url(#Gradiente_sem_nome_185);}.cls-35{fill:url(#Gradiente_sem_nome_185-2);}.cls-36{fill:url(#Gradiente_sem_nome_46-3);}.cls-37{fill:url(#Gradiente_sem_nome_46-4);}.cls-38{fill:url(#Gradiente_sem_nome_46-5);}.cls-39{fill:url(#Gradiente_sem_nome_46-6);}.cls-40{fill:url(#Gradiente_sem_nome_46-7);}.cls-41{fill:url(#Gradiente_sem_nome_46-8);}.cls-42{fill:url(#Gradiente_sem_nome_46-9);}.cls-43{fill:url(#Gradiente_sem_nome_46-10);}.cls-44{fill:url(#Gradiente_sem_nome_46-11);}.cls-45{fill:url(#Gradiente_sem_nome_46-12);}.cls-46{fill:url(#Gradiente_sem_nome_46-13);}.cls-47{fill:url(#Gradiente_sem_nome_46-14);}.cls-48{fill:url(#Gradiente_sem_nome_46-15);}.cls-49{fill:url(#Gradiente_sem_nome_46-16);}.cls-50{fill:url(#Gradiente_sem_nome_46-17);}.cls-51{fill:url(#Gradiente_sem_nome_46-18);}.cls-52{fill:url(#Gradiente_sem_nome_46-19);}.cls-53{fill:url(#Gradiente_sem_nome_46-20);}.cls-54{fill:url(#Gradiente_sem_nome_46-21);}.cls-55{fill:url(#Gradiente_sem_nome_46-22);}.cls-56{fill:url(#Gradiente_sem_nome_46-23);}.cls-57{fill:url(#Gradiente_sem_nome_46-24);}.cls-58{fill:url(#Gradiente_sem_nome_46-25);}.cls-59{fill:url(#Gradiente_sem_nome_46-26);}.cls-60{fill:url(#linear-gradient);}</style><linearGradient id="Gradiente_sem_nome_66" x1="857.73" y1="76.52" x2="857.73" y2="83.72" gradientUnits="userSpaceOnUse"><stop offset="0" stop-color="#fff195"/><stop offset="0.47" stop-color="#fff195"/><stop offset="1" stop-color="#1a1a1a"/></linearGradient><linearGradient id="Gradiente_sem_nome_66-2" x1="860.9" y1="76.52" x2="860.9" y2="83.72" xlink:href="#Gradiente_sem_nome_66"/><linearGradient id="Gradiente_sem_nome_66-3" x1="864.07" y1="76.52" x2="864.07" y2="83.72" xlink:href="#Gradiente_sem_nome_66"/><linearGradient id="Gradiente_sem_nome_66-4" x1="867.24" y1="76.52" x2="867.24" y2="83.72" xlink:href="#Gradiente_sem_nome_66"/><linearGradient id="Gradiente_sem_nome_66-5" x1="870.41" y1="76.52" x2="870.41" y2="83.72" xlink:href="#Gradiente_sem_nome_66"/><linearGradient id="Gradiente_sem_nome_66-6" x1="873.57" y1="76.52" x2="873.57" y2="83.72" xlink:href="#Gradiente_sem_nome_66"/><linearGradient id="Gradiente_sem_nome_66-7" x1="876.74" y1="76.52" x2="876.74" y2="83.72" xlink:href="#Gradiente_sem_nome_66"/><linearGradient id="Gradiente_sem_nome_66-8" x1="879.91" y1="76.52" x2="879.91" y2="83.72" xlink:href="#Gradiente_sem_nome_66"/><linearGradient id="Gradiente_sem_nome_66-9" x1="879.91" y1="60.44" x2="879.91" y2="53.24" gradientTransform="translate(1759.83 113.68) rotate(-180)" xlink:href="#Gradiente_sem_nome_66"/><linearGradient id="Gradiente_sem_nome_66-10" x1="876.74" y1="60.44" x2="876.74" y2="53.24" gradientTransform="translate(1753.49 113.68) rotate(-180)" xlink:href="#Gradiente_sem_nome_66"/><linearGradient id="Gradiente_sem_nome_66-11" x1="873.57" y1="60.44" x2="873.57" y2="53.24" gradientTransform="translate(1747.15 113.68) rotate(-180)" xlink:href="#Gradiente_sem_nome_66"/><linearGradient id="Gradiente_sem_nome_66-12" x1="870.41" y1="60.44" x2="870.41" y2="53.24" gradientTransform="translate(1740.81 113.68) rotate(-180)" xlink:href="#Gradiente_sem_nome_66"/><linearGradient id="Gradiente_sem_nome_66-13" x1="867.24" y1="60.44" x2="867.24" y2="53.24" gradientTransform="translate(1734.47 113.68) rotate(-180)" xlink:href="#Gradiente_sem_nome_66"/><linearGradient id="Gradiente_sem_nome_66-14" x1="864.07" y1="60.44" x2="864.07" y2="53.24" gradientTransform="translate(1728.14 113.68) rotate(-180)" xlink:href="#Gradiente_sem_nome_66"/><linearGradient id="Gradiente_sem_nome_66-15" x1="860.9" y1="60.44" x2="860.9" y2="53.24" gradientTransform="translate(1721.8 113.68) rotate(-180)" xlink:href="#Gradiente_sem_nome_66"/><linearGradient id="Gradiente_sem_nome_66-16" x1="857.73" y1="60.44" x2="857.73" y2="53.24" gradientTransform="translate(1715.46 113.68) rotate(-180)" xlink:href="#Gradiente_sem_nome_66"/><radialGradient id="Gradiente_sem_nome_46" cx="853.09" cy="101.33" r="3.55" gradientUnits="userSpaceOnUse"><stop offset="0.46" stop-color="lime"/><stop offset="1" stop-color="#00c500"/></radialGradient><radialGradient id="Gradiente_sem_nome_34" cx="884.3" cy="101.33" r="3.55" gradientUnits="userSpaceOnUse"><stop offset="0.46" stop-color="#ff0"/><stop offset="1" stop-color="#ffc51e"/></radialGradient><linearGradient id="Gradiente_sem_nome_3" x1="117.37" y1="74.66" x2="117.37" y2="58.01" gradientUnits="userSpaceOnUse"><stop offset="0" stop-color="#969696"/><stop offset="1" stop-color="#b0b0b0"/></linearGradient><linearGradient id="Gradiente_sem_nome_129" x1="130.46" y1="68.95" x2="130.46" y2="62.84" gradientUnits="userSpaceOnUse"><stop offset="0" stop-color="#009b00"/><stop offset="1" stop-color="lime"/></linearGradient><linearGradient id="Gradiente_sem_nome_129-2" x1="122.63" y1="69.23" x2="122.63" y2="63.12" xlink:href="#Gradiente_sem_nome_129"/><linearGradient id="Gradiente_sem_nome_129-3" x1="112.1" y1="68.95" x2="112.1" y2="62.84" xlink:href="#Gradiente_sem_nome_129"/><linearGradient id="Gradiente_sem_nome_129-4" x1="104.28" y1="69.23" x2="104.28" y2="63.12" xlink:href="#Gradiente_sem_nome_129"/><radialGradient id="Gradiente_sem_nome_46-2" cx="928.57" cy="50.35" r="4.41" xlink:href="#Gradiente_sem_nome_46"/><radialGradient id="Gradiente_sem_nome_111" cx="928.57" cy="64.78" r="4.41" gradientUnits="userSpaceOnUse"><stop offset="0.5" stop-color="red"/><stop offset="1" stop-color="#640000"/></radialGradient><radialGradient id="Gradiente_sem_nome_185" cx="928.57" cy="79.21" r="4.41" gradientUnits="userSpaceOnUse"><stop offset="0" stop-color="aqua"/><stop offset="1" stop-color="#0070ff"/></radialGradient><radialGradient id="Gradiente_sem_nome_185-2" cx="928.57" cy="93.64" r="4.41" xlink:href="#Gradiente_sem_nome_185"/><radialGradient id="Gradiente_sem_nome_46-3" cx="159.97" cy="61.5" r="3.51" gradientTransform="translate(0 1.35) scale(1 1.01)" xlink:href="#Gradiente_sem_nome_46"/><radialGradient id="Gradiente_sem_nome_46-4" cx="187.53" cy="61.5" r="3.51" gradientTransform="translate(0 1.35) scale(1 1.01)" xlink:href="#Gradiente_sem_nome_46"/><radialGradient id="Gradiente_sem_nome_46-5" cx="216.62" cy="61.5" r="3.51" gradientTransform="translate(0 1.35) scale(1 1.01)" xlink:href="#Gradiente_sem_nome_46"/><radialGradient id="Gradiente_sem_nome_46-6" cx="244.19" cy="61.5" r="3.51" gradientTransform="translate(0 1.35) scale(1 1.01)" xlink:href="#Gradiente_sem_nome_46"/><radialGradient id="Gradiente_sem_nome_46-7" cx="273.28" cy="61.5" r="3.51" gradientTransform="translate(0 1.35) scale(1 1.01)" xlink:href="#Gradiente_sem_nome_46"/><radialGradient id="Gradiente_sem_nome_46-8" cx="300.85" cy="61.5" r="3.51" gradientTransform="translate(0 1.35) scale(1 1.01)" xlink:href="#Gradiente_sem_nome_46"/><radialGradient id="Gradiente_sem_nome_46-9" cx="329.94" cy="61.5" r="3.51" gradientTransform="translate(0 1.35) scale(1 1.01)" xlink:href="#Gradiente_sem_nome_46"/><radialGradient id="Gradiente_sem_nome_46-10" cx="357.5" cy="61.5" r="3.51" gradientTransform="translate(0 1.35) scale(1 1.01)" xlink:href="#Gradiente_sem_nome_46"/><radialGradient id="Gradiente_sem_nome_46-11" cx="386.6" cy="61.5" r="3.51" gradientTransform="translate(0 1.35) scale(1 1.01)" xlink:href="#Gradiente_sem_nome_46"/><radialGradient id="Gradiente_sem_nome_46-12" cx="414.16" cy="61.5" r="3.51" gradientTransform="translate(0 1.35) scale(1 1.01)" xlink:href="#Gradiente_sem_nome_46"/><radialGradient id="Gradiente_sem_nome_46-13" cx="443.25" cy="61.5" r="3.51" gradientTransform="translate(0 1.35) scale(1 1.01)" xlink:href="#Gradiente_sem_nome_46"/><radialGradient id="Gradiente_sem_nome_46-14" cx="470.82" cy="61.5" r="3.51" gradientTransform="translate(0 1.35) scale(1 1.01)" xlink:href="#Gradiente_sem_nome_46"/><radialGradient id="Gradiente_sem_nome_46-15" cx="499.91" cy="61.5" r="3.51" gradientTransform="translate(0 1.35) scale(1 1.01)" xlink:href="#Gradiente_sem_nome_46"/><radialGradient id="Gradiente_sem_nome_46-16" cx="527.47" cy="61.5" r="3.51" gradientTransform="translate(0 1.35) scale(1 1.01)" xlink:href="#Gradiente_sem_nome_46"/><radialGradient id="Gradiente_sem_nome_46-17" cx="556.57" cy="61.5" r="3.51" gradientTransform="translate(0 1.35) scale(1 1.01)" xlink:href="#Gradiente_sem_nome_46"/><radialGradient id="Gradiente_sem_nome_46-18" cx="584.13" cy="61.5" r="3.51" gradientTransform="translate(0 1.35) scale(1 1.01)" xlink:href="#Gradiente_sem_nome_46"/><radialGradient id="Gradiente_sem_nome_46-19" cx="613.22" cy="61.5" r="3.51" gradientTransform="translate(0 1.35) scale(1 1.01)" xlink:href="#Gradiente_sem_nome_46"/><radialGradient id="Gradiente_sem_nome_46-20" cx="640.79" cy="61.5" r="3.51" gradientTransform="translate(0 1.35) scale(1 1.01)" xlink:href="#Gradiente_sem_nome_46"/><radialGradient id="Gradiente_sem_nome_46-21" cx="669.88" cy="61.5" r="3.51" gradientTransform="translate(0 1.35) scale(1 1.01)" xlink:href="#Gradiente_sem_nome_46"/><radialGradient id="Gradiente_sem_nome_46-22" cx="697.45" cy="61.5" r="3.51" gradientTransform="translate(0 1.35) scale(1 1.01)" xlink:href="#Gradiente_sem_nome_46"/><radialGradient id="Gradiente_sem_nome_46-23" cx="726.54" cy="61.5" r="3.51" gradientTransform="translate(0 1.35) scale(1 1.01)" xlink:href="#Gradiente_sem_nome_46"/><radialGradient id="Gradiente_sem_nome_46-24" cx="754.1" cy="61.5" r="3.51" gradientTransform="translate(0 1.35) scale(1 1.01)" xlink:href="#Gradiente_sem_nome_46"/><radialGradient id="Gradiente_sem_nome_46-25" cx="783.19" cy="61.5" r="3.51" gradientTransform="translate(0 1.35) scale(1 1.01)" xlink:href="#Gradiente_sem_nome_46"/><radialGradient id="Gradiente_sem_nome_46-26" cx="810.76" cy="61.5" r="3.51" gradientTransform="translate(0 1.35) scale(1 1.01)" xlink:href="#Gradiente_sem_nome_46"/><linearGradient id="linear-gradient" x1="495.01" y1="44.3" x2="495.01" y2="11.23" gradientUnits="userSpaceOnUse"><stop offset="0" stop-color="#fff"/><stop offset="0.42" stop-color="#fff"/><stop offset="0.64" stop-color="#fff" stop-opacity="0.76"/><stop offset="0.83" stop-color="#fff" stop-opacity="0.1"/><stop offset="1" stop-color="#4d4d4d" stop-opacity="0.1"/></linearGradient></defs><path class="cls-1" d="M0,0V125.19H1368V0ZM36.44,117.31H19a8.13,8.13,0,1,1,0-16.25H36.44a8.13,8.13,0,1,1,0,16.25Zm0-91.94H19A8.13,8.13,0,1,1,19,9.12H36.44a8.13,8.13,0,1,1,0,16.25Zm1313.78,91.94H1332.8a8.13,8.13,0,1,1,0-16.25h17.42a8.13,8.13,0,0,1,0,16.25Zm0-91.94H1332.8a8.13,8.13,0,1,1,0-16.25h17.42a8.13,8.13,0,0,1,0,16.25Z"/><rect class="cls-2" x="52.65" width="1.68" height="125.19"/><rect class="cls-3" x="48.9" width="2.75" height="125.19"/><rect class="cls-4" x="54.72" width="0.9" height="125.19"/><rect class="cls-2" x="1314.1" width="1.68" height="125.19"/><rect class="cls-3" x="1316.78" width="2.75" height="125.19"/><rect class="cls-4" x="1312.8" width="0.9" height="125.19"/><path d="M1296.73,100.3l-5.24,4.11,2.94,6h-4.85l-1.62-3.6c-1.73.62-1.17,2.44-1.91,3.59h-4.4c1.15-4.72,2.27-9.32,3.41-14h4.49c-.5,2.17-1,4.28-1.55,6.63,1.37-1,2.45-2.26,3.79-2.7S1294.74,100.3,1296.73,100.3Z"/><path d="M1213,110.45h-1.45c1.21-4.72,2.38-9.33,3.57-14h2.22c.84,4.1,1.67,8.2,2.58,12.66L1229,96.48h2.21c-1.17,4.68-2.33,9.29-3.5,14h-1.48l3.23-12.13-.23-.14-8.84,12.27h-1.55c-.86-4.18-1.72-8.33-2.58-12.48H1216C1215,102.08,1214,106.21,1213,110.45Z"/><path d="M1277.23,96.48c-.32,1.31-.61,2.5-.91,3.75h-14.15l.88-3.75Z"/><path d="M1269.24,110.46h-5l2-8.14h5C1270.56,105.06,1269.91,107.7,1269.24,110.46Z"/><path d="M1257.46,100.12c4-.16,5.93,3,4.26,6.73a6.52,6.52,0,0,1-8.38,3.53A4.12,4.12,0,0,1,1251,106,6.38,6.38,0,0,1,1257.46,100.12Zm-1.53,9.54c2.74.07,4.87-2.24,4.93-5.35a3.15,3.15,0,0,0-3.43-3.29,5.27,5.27,0,0,0-5,5.32C1252.3,108.5,1253.48,109.59,1255.93,109.66Z"/><path d="M1275.17,110.44c.68-2.79,1.32-5.44,2-8.13h4.5c-.67,2.76-1.31,5.42-2,8.13Z"/><path d="M1235.26,110.44h-1.46c.84-3.37,1.66-6.64,2.5-10h1.35c-.37,1.55-.72,3-1.1,4.62,3-1.22,5-4.22,8.18-4.84l.23.38-5.12,3.66c1.15,2,2.27,4,3.48,6.17h-1.47l-3.12-5.37C1236.31,106,1235.5,108,1235.26,110.44Z"/><path d="M1246.34,100.44h1.17c-.11.66-.2,1.23-.37,2.29a4.81,4.81,0,0,1,4.9-2.46c0,.39-.09.73-.14,1.11a6.81,6.81,0,0,1-.73.11c-2.66.15-4.07,1.34-4.72,4-.41,1.62-.82,3.23-1.25,5l-1.4.07C1244.67,107.08,1245.49,103.8,1246.34,100.44Z"/><path d="M1282.18,100.24h-4.5c.31-1.29.59-2.48.89-3.75h4.5C1282.77,97.77,1282.48,99,1282.18,100.24Z"/><path d="M1231.61,110.45h-1.4l2.54-10h1.38C1233.28,103.81,1232.45,107.09,1231.61,110.45Z"/><path d="M1240.21,98.47a5.87,5.87,0,0,1-5.74-1.29,6.12,6.12,0,0,1-1.86-6.1C1233.53,95.3,1235.85,98,1240.21,98.47Z"/><path d="M1240.35,96.34a4.86,4.86,0,0,1-5.69-5.78,16.84,16.84,0,0,0,2.16,3.61A15.94,15.94,0,0,0,1240.35,96.34Z"/><rect class="cls-2" x="843.72" y="29.51" width="49.58" height="76.88"/><path class="cls-5" d="M893.56,106.64H843.47V29.26h50.09Zm-49.59-.5h49.09V29.76H844Z"/><polygon class="cls-6" points="885.89 76.52 851.76 76.52 851.76 97.7 858.76 97.7 858.76 102.54 863.04 102.54 863.04 105.51 874.69 105.51 874.69 102.54 878.98 102.54 878.98 97.7 885.89 97.7 885.89 76.52"/><rect class="cls-7" x="857.07" y="76.52" width="1.32" height="7.2"/><rect class="cls-8" x="860.24" y="76.52" width="1.32" height="7.2"/><rect class="cls-9" x="863.41" y="76.52" width="1.32" height="7.2"/><rect class="cls-10" x="866.58" y="76.52" width="1.32" height="7.2"/><rect class="cls-11" x="869.75" y="76.52" width="1.32" height="7.2"/><rect class="cls-12" x="872.92" y="76.52" width="1.32" height="7.2"/><rect class="cls-13" x="876.09" y="76.52" width="1.32" height="7.2"/><rect class="cls-14" x="879.25" y="76.52" width="1.32" height="7.2"/><polygon class="cls-6" points="851.76 60.44 885.89 60.44 885.89 39.26 878.88 39.26 878.88 34.42 874.6 34.42 874.6 31.45 862.95 31.45 862.95 34.42 858.67 34.42 858.67 39.26 851.76 39.26 851.76 60.44"/><rect class="cls-15" x="879.25" y="53.24" width="1.32" height="7.2" transform="translate(1759.83 113.68) rotate(180)"/><rect class="cls-16" x="876.09" y="53.24" width="1.32" height="7.2" transform="translate(1753.49 113.68) rotate(180)"/><rect class="cls-17" x="872.92" y="53.24" width="1.32" height="7.2" transform="translate(1747.15 113.68) rotate(180)"/><rect class="cls-18" x="869.75" y="53.24" width="1.32" height="7.2" transform="translate(1740.81 113.68) rotate(180)"/><rect class="cls-19" x="866.58" y="53.24" width="1.32" height="7.2" transform="translate(1734.47 113.68) rotate(180)"/><rect class="cls-20" x="863.41" y="53.24" width="1.32" height="7.2" transform="translate(1728.14 113.68) rotate(180)"/><rect class="cls-21" x="860.24" y="53.24" width="1.32" height="7.2" transform="translate(1721.8 113.68) rotate(180)"/><rect class="cls-22" x="857.07" y="53.24" width="1.32" height="7.2" transform="translate(1715.46 113.68) rotate(180)"/><rect class="cls-23" x="848.7" y="98.89" width="8.78" height="4.87"/><rect class="cls-24" x="879.91" y="98.89" width="8.78" height="4.87"/><rect class="cls-6" x="96.19" y="29.52" width="42.12" height="73.63"/><rect class="cls-25" x="96.97" y="58.01" width="40.8" height="16.65"/><path class="cls-26" d="M137.77,58H97V30.24h40.8ZM98,57h38.8V31.24H98Z"/><polygon class="cls-27" points="130.46 63.37 127.57 68.7 133.34 68.7 130.46 63.37"/><polygon class="cls-28" points="122.63 68.7 125.52 63.37 119.74 63.37 122.63 68.7"/><polygon class="cls-29" points="112.1 63.37 109.21 68.7 114.99 68.7 112.1 63.37"/><polygon class="cls-30" points="104.28 68.7 107.17 63.37 101.39 63.37 104.28 68.7"/><path class="cls-6" d="M109.57,56.74h15.59a0,0,0,0,1,0,0v1.79a.46.46,0,0,1-.46.46H110a.46.46,0,0,1-.46-.46V56.74A0,0,0,0,1,109.57,56.74Z"/><rect class="cls-26" x="110.77" y="55.54" width="13.2" height="1.8"/><path class="cls-26" d="M97,74.66h40.8v27.77H97Zm39.8,1H98v25.77h38.8Z"/><path class="cls-6" d="M109.57,73.68h15.59a0,0,0,0,1,0,0v1.79a.46.46,0,0,1-.46.46H110a.46.46,0,0,1-.46-.46V73.68A0,0,0,0,1,109.57,73.68Z" transform="translate(234.73 149.61) rotate(180)"/><rect class="cls-26" x="110.77" y="75.32" width="13.2" height="1.8" transform="translate(234.73 152.45) rotate(180)"/><path class="cls-31" d="M1169.53,23H1166a2.11,2.11,0,0,1-1.66-.7,2.74,2.74,0,0,1-.62-1.87V12.47a2.72,2.72,0,0,1,.62-1.87,2.11,2.11,0,0,1,1.66-.7h3.53a2.13,2.13,0,0,1,1.67.7,2.68,2.68,0,0,1,.63,1.87V14.3h-1.93V12.79c0-.58-.26-.86-.76-.86h-2.75c-.5,0-.74.28-.74.86v7.3c0,.57.24.86.74.86h2.75c.5,0,.76-.29.76-.86V18.58h1.93v1.83a2.7,2.7,0,0,1-.63,1.87A2.13,2.13,0,0,1,1169.53,23Z"/><path class="cls-31" d="M1173.82,9.37h1.83V22.91h-1.83Z"/><path class="cls-31" d="M1179.89,13.13h2.62a2.08,2.08,0,0,1,1.63.7,2.66,2.66,0,0,1,.62,1.82v4.82a2.65,2.65,0,0,1-.62,1.81,2.08,2.08,0,0,1-1.63.7h-2.62a2.07,2.07,0,0,1-1.62-.7,2.61,2.61,0,0,1-.64-1.81V15.65a2.62,2.62,0,0,1,.64-1.82A2.07,2.07,0,0,1,1179.89,13.13Zm3,7.25V15.74a.91.91,0,0,0-.19-.61.65.65,0,0,0-.53-.24h-2a.64.64,0,0,0-.53.24.91.91,0,0,0-.19.61v4.64a.93.93,0,0,0,.19.61.66.66,0,0,0,.53.23h2a.67.67,0,0,0,.53-.23A.93.93,0,0,0,1182.91,20.38Z"/><path class="cls-31" d="M1188.48,13.2v7.07a1,1,0,0,0,.19.63.69.69,0,0,0,.55.23h.4a3,3,0,0,0,1.66-.5l.5-.34V13.2h1.85v9.71h-1.85V21.63l-.5.47a2.68,2.68,0,0,1-1.8.88h-.6a2.1,2.1,0,0,1-1.62-.7,2.61,2.61,0,0,1-.63-1.81V13.2Z"/><path class="cls-31" d="M1202.74,22.91h-1.84V21.63l-.51.47a2.57,2.57,0,0,1-1.81.88h-.74a2.06,2.06,0,0,1-1.61-.7,2.57,2.57,0,0,1-.64-1.81V15.65a2.58,2.58,0,0,1,.64-1.82,2.06,2.06,0,0,1,1.61-.7h.74a2.57,2.57,0,0,1,1.81.88l.51.47V9.37h1.84Zm-1.84-7.08-.51-.34a2.89,2.89,0,0,0-1.64-.51h-.57a.64.64,0,0,0-.54.24.93.93,0,0,0-.2.63v4.42a1,1,0,0,0,.2.63.67.67,0,0,0,.54.23h.57a3,3,0,0,0,1.64-.5l.51-.34Z"/><path class="cls-31" d="M1215,23h-3.52a2.11,2.11,0,0,1-1.66-.7,2.7,2.7,0,0,1-.63-1.87V12.47a2.68,2.68,0,0,1,.63-1.87,2.11,2.11,0,0,1,1.66-.7H1215a2.14,2.14,0,0,1,1.68.7,2.67,2.67,0,0,1,.62,1.87V14.3h-1.93V12.79c0-.58-.25-.86-.75-.86h-2.75c-.5,0-.74.28-.74.86v7.3c0,.57.24.86.74.86h2.75c.5,0,.75-.29.75-.86V18.58h1.93v1.83a2.69,2.69,0,0,1-.62,1.87A2.14,2.14,0,0,1,1215,23Z"/><path class="cls-31" d="M1221.29,13.13h2.62a2.08,2.08,0,0,1,1.63.7,2.66,2.66,0,0,1,.62,1.82v4.82a2.65,2.65,0,0,1-.62,1.81,2.08,2.08,0,0,1-1.63.7h-2.62a2.07,2.07,0,0,1-1.62-.7,2.61,2.61,0,0,1-.64-1.81V15.65a2.62,2.62,0,0,1,.64-1.82A2.07,2.07,0,0,1,1221.29,13.13Zm3,7.25V15.74a.91.91,0,0,0-.19-.61.65.65,0,0,0-.53-.24h-2a.64.64,0,0,0-.53.24.91.91,0,0,0-.19.61v4.64a.93.93,0,0,0,.19.61.66.66,0,0,0,.53.23h2a.67.67,0,0,0,.53-.23A.93.93,0,0,0,1224.31,20.38Z"/><path class="cls-31" d="M1233.24,15h-1.11a2.9,2.9,0,0,0-1.65.52l-.5.32v7h-1.85V13.2H1230v1.28l.5-.47a2.68,2.68,0,0,1,1.8-.88h1Z"/><path class="cls-31" d="M1236.12,18.65v1.76a.89.89,0,0,0,.2.6.66.66,0,0,0,.53.23h1.86a.68.68,0,0,0,.54-.23.94.94,0,0,0,.19-.6v-.57h1.85v.63a2.57,2.57,0,0,1-.64,1.81,2.06,2.06,0,0,1-1.61.7h-2.51a2.07,2.07,0,0,1-1.62-.7,2.61,2.61,0,0,1-.64-1.81V15.65a2.62,2.62,0,0,1,.64-1.82,2.07,2.07,0,0,1,1.62-.7H1239a2.06,2.06,0,0,1,1.61.7,2.58,2.58,0,0,1,.64,1.82v3Zm2.59-3.77h-1.86a.65.65,0,0,0-.53.22.89.89,0,0,0-.2.6v1.46h3.32V15.7a.94.94,0,0,0-.19-.6A.67.67,0,0,0,1238.71,14.88Z"/><path class="cls-31" d="M1256.09,22.91H1254l-2.1-5h-2.28v5h-1.93V10h5.74a2.11,2.11,0,0,1,1.66.7,2.7,2.7,0,0,1,.63,1.87v2.82a2.84,2.84,0,0,1-.47,1.67,2,2,0,0,1-1.29.83Zm-6.45-7h3.43c.49,0,.74-.29.74-.87V12.86c0-.57-.25-.86-.74-.86h-3.43Z"/><path class="cls-31" d="M1259.68,13.13h2.62a2.08,2.08,0,0,1,1.63.7,2.62,2.62,0,0,1,.63,1.82v4.82a2.61,2.61,0,0,1-.63,1.81,2.08,2.08,0,0,1-1.63.7h-2.62a2.1,2.1,0,0,1-1.62-.7,2.61,2.61,0,0,1-.63-1.81V15.65a2.62,2.62,0,0,1,.63-1.82A2.1,2.1,0,0,1,1259.68,13.13Zm3,7.25V15.74a.91.91,0,0,0-.2-.61.64.64,0,0,0-.53-.24h-2a.65.65,0,0,0-.53.24.91.91,0,0,0-.19.61v4.64a.93.93,0,0,0,.19.61.67.67,0,0,0,.53.23h2a.66.66,0,0,0,.53-.23A.93.93,0,0,0,1262.71,20.38Z"/><path class="cls-31" d="M1268.27,13.2v7.07a1,1,0,0,0,.2.63.67.67,0,0,0,.54.23h.41a2.94,2.94,0,0,0,1.65-.5l.5-.34V13.2h1.85v9.71h-1.85V21.63l-.5.47a2.68,2.68,0,0,1-1.8.88h-.59a2.07,2.07,0,0,1-1.62-.7,2.57,2.57,0,0,1-.64-1.81V13.2Z"/><path class="cls-31" d="M1278.18,14.91v5.38a.93.93,0,0,0,.2.61.66.66,0,0,0,.53.23h1.82v1.78h-2.14a2.08,2.08,0,0,1-1.63-.7,2.62,2.62,0,0,1-.63-1.82V14.91h-1.41V13.2h1.45V10h1.78V13.2h2.58v1.71Z"/><path class="cls-31" d="M1283.8,18.65v1.76a.88.88,0,0,0,.19.6.68.68,0,0,0,.54.23h1.86a.66.66,0,0,0,.53-.23.88.88,0,0,0,.19-.6v-.57H1289v.63a2.61,2.61,0,0,1-.64,1.81,2.07,2.07,0,0,1-1.62.7h-2.51a2.06,2.06,0,0,1-1.61-.7,2.57,2.57,0,0,1-.64-1.81V15.65a2.58,2.58,0,0,1,.64-1.82,2.06,2.06,0,0,1,1.61-.7h2.51a2.07,2.07,0,0,1,1.62.7,2.62,2.62,0,0,1,.64,1.82v3Zm2.59-3.77h-1.86a.67.67,0,0,0-.54.22.88.88,0,0,0-.19.6v1.46h3.31V15.7a.88.88,0,0,0-.19-.6A.65.65,0,0,0,1286.39,14.88Z"/><path class="cls-31" d="M1296,15h-1.11a2.93,2.93,0,0,0-1.66.52l-.5.32v7h-1.85V13.2h1.85v1.28l.5-.47a2.68,2.68,0,0,1,1.8-.88h1Z"/><path class="cls-31" d="M1207.65,36.77h-2a1.27,1.27,0,0,1-.94-.36,1.35,1.35,0,0,1-.36-1V31.29a1.35,1.35,0,0,1,.36-1,1.27,1.27,0,0,1,.94-.36h2a1.29,1.29,0,0,1,.95.36,1.35,1.35,0,0,1,.36,1v1h-1.1v-.78a.39.39,0,0,0-.44-.45h-1.57q-.42,0-.42.45v3.8q0,.45.42.45h1.57a.39.39,0,0,0,.44-.45v-.78h1.1v1a1.35,1.35,0,0,1-.36,1A1.29,1.29,0,0,1,1207.65,36.77Z"/><path class="cls-31" d="M1213.39,36.77h-2a1.27,1.27,0,0,1-.94-.36,1.35,1.35,0,0,1-.36-1V31.29a1.35,1.35,0,0,1,.36-1,1.27,1.27,0,0,1,.94-.36h2a1.3,1.3,0,0,1,1,.36,1.35,1.35,0,0,1,.36,1v1h-1.1v-.78a.39.39,0,0,0-.44-.45h-1.57q-.42,0-.42.45v3.8q0,.45.42.45h1.57a.39.39,0,0,0,.44-.45v-.78h1.1v1a1.35,1.35,0,0,1-.36,1A1.3,1.3,0,0,1,1213.39,36.77Z"/><path class="cls-31" d="M1220.77,36.74h-1.19l-1.19-2.61h-1.3v2.61H1216V30h3.28a1.29,1.29,0,0,1,1,.36,1.33,1.33,0,0,1,.36,1V32.8a1.37,1.37,0,0,1-.27.87,1.12,1.12,0,0,1-.73.43Zm-3.68-3.65h2a.39.39,0,0,0,.43-.45V31.49a.39.39,0,0,0-.43-.44h-2Z"/><path class="cls-31" d="M1222.91,31.49V32h-1.08V31.3a1.34,1.34,0,0,1,.38-1,1.3,1.3,0,0,1,1-.38h1.75a1.3,1.3,0,0,1,.95.38,1.34,1.34,0,0,1,.37,1v1.11a1,1,0,0,1-.29.78,3.23,3.23,0,0,1-1,.57l-1.59.64a2.15,2.15,0,0,0-.34.17.34.34,0,0,0-.13.29v.82h3.4v1.06h-4.5V34.66a1,1,0,0,1,.4-.86,4.34,4.34,0,0,1,.92-.49l1.6-.63a1.23,1.23,0,0,0,.35-.19.46.46,0,0,0,.11-.27V31.5a.52.52,0,0,0-.12-.36.42.42,0,0,0-.34-.13h-1.29a.48.48,0,0,0-.35.12A.52.52,0,0,0,1222.91,31.49Z"/><path class="cls-31" d="M1230.63,36.77h-2a1.29,1.29,0,0,1-1-.36,1.35,1.35,0,0,1-.36-1V31.29a1.35,1.35,0,0,1,.36-1,1.29,1.29,0,0,1,1-.36h2a1.29,1.29,0,0,1,.95.36,1.35,1.35,0,0,1,.36,1v4.14a1.35,1.35,0,0,1-.36,1A1.29,1.29,0,0,1,1230.63,36.77Zm-2.17-5.31v3.8q0,.45.42.45h1.53q.42,0,.42-.45v-3.8q0-.45-.42-.45h-1.53Q1228.46,31,1228.46,31.46Z"/><path class="cls-31" d="M1236.46,36.77h-2a1.29,1.29,0,0,1-1-.36,1.38,1.38,0,0,1-.35-1V31.29a1.38,1.38,0,0,1,.35-1,1.29,1.29,0,0,1,1-.36h2a1.27,1.27,0,0,1,1,.36,1.35,1.35,0,0,1,.36,1v4.14a1.35,1.35,0,0,1-.36,1A1.27,1.27,0,0,1,1236.46,36.77Zm-2.17-5.31v3.8q0,.45.42.45h1.53c.29,0,.43-.15.43-.45v-3.8c0-.3-.14-.45-.43-.45h-1.53Q1234.29,31,1234.29,31.46Z"/><path class="cls-31" d="M1244,35.27h-.94v1.47H1242V35.27h-3.16l-.18-.85,3.42-4.43h1v4.28h.94Zm-4-1h2V31.61Z"/><path class="cls-31" d="M1247.87,33.14v1h-3.11v-1Z"/><path class="cls-31" d="M1249.61,36.74V31.16l-1.18.44v-1l1.39-.65h.89v6.75Z"/><path class="cls-31" d="M1255.84,32.08v-.62c0-.3-.14-.45-.43-.45h-1.64q-.42,0-.42.45v3.81a.44.44,0,0,0,.11.33.42.42,0,0,0,.31.11h1.64c.29,0,.43-.15.43-.45V34.08h-1.36v-1H1257v2.37a1.35,1.35,0,0,1-.36,1,1.3,1.3,0,0,1-1,.36h-2.08a1.29,1.29,0,0,1-1-.36,1.35,1.35,0,0,1-.36-1V31.29a1.35,1.35,0,0,1,.36-1,1.29,1.29,0,0,1,1-.36h2.08a1.3,1.3,0,0,1,1,.36,1.35,1.35,0,0,1,.36,1v.79Z"/><path class="cls-31" d="M1261.16,33.14v1h-3.11v-1Z"/><path class="cls-31" d="M1262.9,36.74V31.16l-1.18.44v-1l1.39-.65h.89v6.75Z"/><path class="cls-31" d="M1266.63,31.49V32h-1.08V31.3a1.34,1.34,0,0,1,.38-1,1.27,1.27,0,0,1,.94-.38h1.76a1.27,1.27,0,0,1,.94.38,1.34,1.34,0,0,1,.38,1v1.11a1,1,0,0,1-.29.78,3.23,3.23,0,0,1-1,.57l-1.59.64a2.15,2.15,0,0,0-.34.17.31.31,0,0,0-.13.29v.82h3.4v1.06h-4.5V34.66a1,1,0,0,1,.39-.86,4.75,4.75,0,0,1,.93-.49l1.6-.63a1.4,1.4,0,0,0,.35-.19.53.53,0,0,0,.11-.27V31.5a.52.52,0,0,0-.12-.36.42.42,0,0,0-.34-.13h-1.3a.47.47,0,0,0-.34.12A.52.52,0,0,0,1266.63,31.49Z"/><path class="cls-31" d="M1274.42,32v-.54a.5.5,0,0,0-.11-.34A.39.39,0,0,0,1274,31h-1.42a.39.39,0,0,0-.32.13.45.45,0,0,0-.11.34v.66a.39.39,0,0,0,.1.31.63.63,0,0,0,.33.15l1.7.4c.89.19,1.33.64,1.33,1.35v1.1a1.35,1.35,0,0,1-.36,1,1.3,1.3,0,0,1-1,.36h-1.94a1.27,1.27,0,0,1-.95-.36,1.35,1.35,0,0,1-.36-1v-.79h1.08v.62a.54.54,0,0,0,.11.35.42.42,0,0,0,.32.12h1.52a.42.42,0,0,0,.32-.12.5.5,0,0,0,.12-.35v-.75a.46.46,0,0,0-.1-.31.63.63,0,0,0-.34-.15l-1.7-.39c-.89-.21-1.33-.66-1.33-1.35v-1a1.31,1.31,0,0,1,.37-1,1.27,1.27,0,0,1,.95-.36h1.83a1.29,1.29,0,0,1,1,.36,1.31,1.31,0,0,1,.37,1V32Z"/><path class="cls-31" d="M1278.06,35V33.74h-1.32v-1h1.32V31.5h.94v1.29h1.32v1H1279V35Z"/><path class="cls-31" d="M1282.58,31.49V32h-1.08V31.3a1.34,1.34,0,0,1,.38-1,1.3,1.3,0,0,1,.95-.38h1.75a1.3,1.3,0,0,1,1,.38,1.34,1.34,0,0,1,.37,1v1.11a1,1,0,0,1-.29.78,3.23,3.23,0,0,1-1,.57l-1.59.64a2.15,2.15,0,0,0-.34.17.34.34,0,0,0-.13.29v.82h3.4v1.06h-4.5V34.66a1,1,0,0,1,.4-.86,4.34,4.34,0,0,1,.92-.49l1.6-.63a1.23,1.23,0,0,0,.35-.19.46.46,0,0,0,.11-.27V31.5a.52.52,0,0,0-.12-.36.42.42,0,0,0-.34-.13h-1.29a.48.48,0,0,0-.35.12A.52.52,0,0,0,1282.58,31.49Z"/><path class="cls-31" d="M1290.59,36.74l-1.48-2.45-1.45,2.45h-1.2l2-3.45-2-3.3h1.28l1.42,2.34,1.39-2.34h1.2l-2,3.35,2,3.4Z"/><path class="cls-31" d="M1295.89,32v-.54a.45.45,0,0,0-.12-.34.37.37,0,0,0-.31-.13H1294a.41.41,0,0,0-.32.13.5.5,0,0,0-.11.34v.66a.39.39,0,0,0,.1.31.73.73,0,0,0,.33.15l1.71.4q1.32.29,1.32,1.35v1.1a1.35,1.35,0,0,1-.36,1,1.27,1.27,0,0,1-1,.36h-2a1.29,1.29,0,0,1-1-.36,1.38,1.38,0,0,1-.35-1v-.79h1.07v.62a.5.5,0,0,0,.12.35.4.4,0,0,0,.31.12h1.53a.4.4,0,0,0,.31-.12.5.5,0,0,0,.12-.35v-.75a.41.41,0,0,0-.1-.31.56.56,0,0,0-.33-.15l-1.71-.39q-1.32-.31-1.32-1.35v-1a1.35,1.35,0,0,1,.36-1,1.29,1.29,0,0,1,1-.36h1.84a1.29,1.29,0,0,1,.95.36,1.35,1.35,0,0,1,.36,1V32Z"/><circle class="cls-32" cx="928.57" cy="50.35" r="4.41"/><path class="cls-31" d="M946.28,47.29v4.94a1.25,1.25,0,0,1-.3.88,1,1,0,0,1-.8.33h-1.7a1,1,0,0,1-.8-.33,1.25,1.25,0,0,1-.3-.88V47.29h.93v4.78c0,.28.11.41.35.41H945c.25,0,.37-.13.37-.41V47.29Z"/><path class="cls-31" d="M950.18,49.12v-.5a.45.45,0,0,0-.1-.31.33.33,0,0,0-.26-.11h-1.19a.37.37,0,0,0-.27.11.5.5,0,0,0-.09.31v.61a.43.43,0,0,0,.08.28.66.66,0,0,0,.28.13l1.43.36c.74.18,1.11.58,1.11,1.22v1a1.25,1.25,0,0,1-.3.88,1,1,0,0,1-.8.33h-1.63a1,1,0,0,1-.8-.33,1.25,1.25,0,0,1-.3-.88v-.72h.9v.56a.51.51,0,0,0,.1.32.34.34,0,0,0,.27.11h1.28a.33.33,0,0,0,.26-.11.46.46,0,0,0,.1-.32v-.68a.43.43,0,0,0-.08-.28.57.57,0,0,0-.28-.14l-1.44-.35c-.74-.19-1.11-.6-1.11-1.22v-.93a1.21,1.21,0,0,1,.31-.88,1,1,0,0,1,.8-.34H950a1,1,0,0,1,.79.34,1.21,1.21,0,0,1,.31.88v.65Z"/><path class="cls-31" d="M952.32,47.29h3.55v1h-2.63V49.8h2.17v1h-2.17v1.69h2.63v1h-3.55Z"/><path class="cls-31" d="M960.93,53.41h-1l-1-2.36h-1.1v2.36h-.92V47.29h2.75a1,1,0,0,1,.79.33,1.27,1.27,0,0,1,.3.88v1.34a1.32,1.32,0,0,1-.22.79,1,1,0,0,1-.62.39Zm-3.09-3.31h1.64c.24,0,.36-.13.36-.41v-1c0-.27-.12-.41-.36-.41h-1.64Z"/><path class="cls-31" d="M904.77,37.61h-1.64a1.06,1.06,0,0,1-.77-.28,1,1,0,0,1-.29-.72v-3.1a1,1,0,0,1,.29-.72,1.1,1.1,0,0,1,.77-.28h1.64a1.08,1.08,0,0,1,.77.28.91.91,0,0,1,.29.72v.72h-.89v-.59c0-.22-.12-.33-.35-.33h-1.28c-.23,0-.34.11-.34.33v2.84a.3.3,0,0,0,.34.34h1.28a.31.31,0,0,0,.35-.34v-.59h.89v.72a.91.91,0,0,1-.29.72A1,1,0,0,1,904.77,37.61Z"/><path class="cls-31" d="M909.54,37.61H907.8a1,1,0,0,1-.76-.28.92.92,0,0,1-.3-.72v-3.1a.92.92,0,0,1,.3-.72,1.08,1.08,0,0,1,.76-.28h1.74a1.12,1.12,0,0,1,.77.28,1,1,0,0,1,.29.72v3.1a1,1,0,0,1-.29.72A1.07,1.07,0,0,1,909.54,37.61Zm-1.9-4v2.84a.3.3,0,0,0,.34.34h1.38a.31.31,0,0,0,.35-.34V33.64c0-.22-.12-.33-.35-.33H908C907.75,33.31,907.64,33.42,907.64,33.64Z"/><path class="cls-31" d="M915,32.54h.83v5h-1l-2.23-3.76v3.76h-.83v-5h1L915,36.29Z"/><path class="cls-31" d="M919.64,34.05v-.41a.33.33,0,0,0-.09-.25.32.32,0,0,0-.25-.1h-1.16a.34.34,0,0,0-.26.1.33.33,0,0,0-.09.25v.5a.32.32,0,0,0,.08.23.88.88,0,0,0,.27.11l1.39.29c.72.15,1.07.48,1.07,1v.83a.91.91,0,0,1-.29.72,1,1,0,0,1-.77.28H918a1,1,0,0,1-.76-.28.91.91,0,0,1-.29-.72V36h.87v.47a.37.37,0,0,0,.09.26.36.36,0,0,0,.26.09h1.24a.31.31,0,0,0,.35-.35v-.56a.3.3,0,0,0-.08-.23.57.57,0,0,0-.27-.12L918,35.28c-.72-.15-1.07-.49-1.07-1v-.77a.91.91,0,0,1,.29-.72,1.1,1.1,0,0,1,.77-.28h1.49a1.13,1.13,0,0,1,.78.28,1,1,0,0,1,.29.72v.54Z"/><path class="cls-31" d="M924.38,37.61h-1.73a1,1,0,0,1-.77-.28,1,1,0,0,1-.29-.72v-3.1a1,1,0,0,1,.29-.72,1.08,1.08,0,0,1,.77-.28h1.73a1.08,1.08,0,0,1,.77.28.92.92,0,0,1,.3.72v3.1a.92.92,0,0,1-.3.72A1,1,0,0,1,924.38,37.61Zm-1.89-4v2.84a.3.3,0,0,0,.34.34h1.37a.31.31,0,0,0,.35-.34V33.64c0-.22-.11-.33-.35-.33h-1.37C922.6,33.31,922.49,33.42,922.49,33.64Z"/><path class="cls-31" d="M926.58,32.54h.9v4.25h2.36v.79h-3.26Z"/><path class="cls-31" d="M930.73,32.54h3.44v.79h-2.55v1.28h2.1v.79h-2.1v1.39h2.55v.79h-3.44Z"/><circle class="cls-33" cx="928.57" cy="64.78" r="4.41"/><path class="cls-31" d="M942.47,67.82V61.7H946v1h-2.63v1.61h2.17v1h-2.17v2.59Z"/><path class="cls-31" d="M949.37,66.31h-2L947,67.82h-1l1.85-6.12h1.07l1.86,6.12h-1Zm-.27-1-.71-2.54-.72,2.54Z"/><path class="cls-31" d="M955.32,61.7v4.94a1.25,1.25,0,0,1-.3.88,1,1,0,0,1-.81.34h-1.7a1,1,0,0,1-.79-.34,1.25,1.25,0,0,1-.3-.88V61.7h.92v4.79c0,.27.12.4.36.4H954c.24,0,.36-.13.36-.4V61.7Z"/><path class="cls-31" d="M956.53,61.7h.93v5.16h2.43v1h-3.36Z"/><path class="cls-31" d="M963.63,62.64h-1.52v5.18h-.92V62.64h-1.52V61.7h4Z"/><circle class="cls-34" cx="928.57" cy="79.21" r="4.41"/><path class="cls-31" d="M942.47,76.16h2.75a1,1,0,0,1,.8.34,1.25,1.25,0,0,1,.3.88v1.45a1.28,1.28,0,0,1-.3.89,1,1,0,0,1-.8.33h-1.83v2.23h-.92Zm.92,2.93H945c.24,0,.35-.14.35-.41V77.53c0-.27-.11-.41-.35-.41h-1.65Z"/><path class="cls-31" d="M952,82.28h-.89l-1-4.38-1,4.38h-.93l-1.42-6.12h1l.91,4.75,1.07-4.75h.76l1.06,4.75.91-4.75h.95Z"/><path class="cls-31" d="M958.24,82.28h-1l-1-2.36h-1.1v2.36h-.92V76.16H957a1,1,0,0,1,.79.34,1.25,1.25,0,0,1,.3.88v1.33a1.3,1.3,0,0,1-.22.79,1,1,0,0,1-.62.4ZM955.15,79h1.64c.24,0,.36-.14.36-.41v-1c0-.27-.12-.41-.36-.41h-1.64Z"/><path class="cls-31" d="M962.07,77.53V78h-.9v-.63a1.24,1.24,0,0,1,.32-.87,1,1,0,0,1,.79-.35h1.47a1,1,0,0,1,.79.35,1.24,1.24,0,0,1,.32.87v1a.94.94,0,0,1-.25.7,2.74,2.74,0,0,1-.86.52l-1.33.58a1.13,1.13,0,0,0-.29.15.3.3,0,0,0-.1.26v.74h2.84v1H961.1V80.41a1,1,0,0,1,.33-.79,4.21,4.21,0,0,1,.78-.44l1.34-.58a1,1,0,0,0,.29-.16.6.6,0,0,0,.1-.25v-.65a.52.52,0,0,0-.11-.33.34.34,0,0,0-.28-.12h-1.09a.36.36,0,0,0-.28.11A.49.49,0,0,0,962.07,77.53Z"/><circle class="cls-35" cx="928.57" cy="93.64" r="4.41"/><path class="cls-31" d="M942.47,90.58h2.75a1,1,0,0,1,.8.33,1.25,1.25,0,0,1,.3.88v1.46a1.27,1.27,0,0,1-.3.88,1,1,0,0,1-.8.33h-1.83V96.7h-.92Zm.92,2.92H945c.24,0,.35-.14.35-.41V91.94c0-.27-.11-.4-.35-.4h-1.65Z"/><path class="cls-31" d="M952,96.7h-.89l-1-4.39-1,4.39h-.93l-1.42-6.12h1l.91,4.74,1.07-4.74h.76l1.06,4.74.91-4.74h.95Z"/><path class="cls-31" d="M958.24,96.7h-1l-1-2.37h-1.1V96.7h-.92V90.58H957a1,1,0,0,1,.79.33,1.25,1.25,0,0,1,.3.88v1.34a1.34,1.34,0,0,1-.22.79,1,1,0,0,1-.62.39Zm-3.09-3.31h1.64c.24,0,.36-.14.36-.41v-1c0-.27-.12-.4-.36-.4h-1.64Z"/><path class="cls-31" d="M962,96.7V91.64l-1,.4v-.87l1.16-.59h.75V96.7Z"/><path class="cls-31" d="M900.52,118.71h-1l-1-2.37h-1.06v2.37h-.9v-6.12h2.67a1,1,0,0,1,.77.33,1.25,1.25,0,0,1,.3.88v1.34a1.41,1.41,0,0,1-.22.79.94.94,0,0,1-.6.39Zm-3-3.31h1.59c.23,0,.35-.14.35-.41v-1c0-.28-.12-.41-.35-.41h-1.59Z"/><path class="cls-31" d="M901.5,112.59H905v1H902.4v1.55h2.1v1h-2.1v1.69H905v1H901.5Z"/><path class="cls-31" d="M908.51,114.41v-.49a.5.5,0,0,0-.09-.31.3.3,0,0,0-.25-.11H907a.3.3,0,0,0-.26.11.5.5,0,0,0-.09.31v.6a.39.39,0,0,0,.08.29.56.56,0,0,0,.27.13l1.39.36a1.2,1.2,0,0,1,1.08,1.22v1a1.31,1.31,0,0,1-.29.88,1,1,0,0,1-.78.33h-1.59a1,1,0,0,1-.77-.33,1.31,1.31,0,0,1-.29-.88v-.73h.87v.57a.48.48,0,0,0,.1.31.31.31,0,0,0,.26.12h1.24a.32.32,0,0,0,.26-.12.48.48,0,0,0,.09-.31v-.68a.43.43,0,0,0-.08-.28.49.49,0,0,0-.27-.14l-1.39-.35a1.22,1.22,0,0,1-1.08-1.22v-.93a1.34,1.34,0,0,1,.29-.89,1,1,0,0,1,.78-.33h1.5a1,1,0,0,1,.77.33,1.3,1.3,0,0,1,.3.89v.64Z"/><path class="cls-31" d="M910.6,112.59h3.45v1h-2.56v1.55h2.11v1h-2.11v1.69h2.56v1H910.6Z"/><path class="cls-31" d="M918.48,113.53H917v5.18h-.9v-5.18h-1.47v-.94h3.85Z"/><path class="cls-31" d="M852.24,113.28v6.12h-.87v-4.47L850,118.42h-.7l-1.37-3.49v4.47h-.87v-6.12h1l1.56,3.87,1.56-3.87Z"/><path class="cls-31" d="M856.44,115.18v-.57c0-.27-.12-.4-.36-.4H854.7c-.24,0-.36.13-.36.4v3.47a.44.44,0,0,0,.1.29.33.33,0,0,0,.26.1h1.38c.24,0,.36-.13.36-.4V117h-1.15v-.92h2.07v2.15a1.25,1.25,0,0,1-.3.88,1,1,0,0,1-.8.34h-1.75a1,1,0,0,1-.79-.34,1.25,1.25,0,0,1-.3-.88v-3.76a1.25,1.25,0,0,1,.3-.88,1,1,0,0,1,.79-.33h1.75a1,1,0,0,1,.8.33,1.25,1.25,0,0,1,.3.88v.72Z"/><path class="cls-31" d="M863.71,113.28v6.12h-.87v-4.47l-1.38,3.49h-.7l-1.37-3.49v4.47h-.87v-6.12h1l1.56,3.87,1.56-3.87Z"/><path class="cls-31" d="M868.53,114.22H867v5.18h-.93v-5.18h-1.52v-.94h4Z"/><path class="cls-31" d="M871.8,112.68,869.07,120h-.88l2.72-7.32Z"/><path class="cls-31" d="M872.58,113.28h2.73a1,1,0,0,1,.79.33,1.28,1.28,0,0,1,.3.89v.85a1,1,0,0,1-.49.92,1,1,0,0,1,.56.92v1a1.27,1.27,0,0,1-.3.88,1,1,0,0,1-.8.33h-2.79Zm.93,2.53h1.6a.37.37,0,0,0,.29-.08.48.48,0,0,0,.08-.32v-.78a.49.49,0,0,0-.09-.3.33.33,0,0,0-.26-.11h-1.62Zm0,2.65h1.68a.33.33,0,0,0,.26-.11.49.49,0,0,0,.09-.3v-.94a.38.38,0,0,0-.1-.3.54.54,0,0,0-.35-.09h-1.58Z"/><path class="cls-31" d="M880.35,119.44h-1.79a1,1,0,0,1-.79-.34,1.25,1.25,0,0,1-.3-.88v-3.76a1.25,1.25,0,0,1,.3-.88,1,1,0,0,1,.79-.33h1.79a1,1,0,0,1,.8.33,1.25,1.25,0,0,1,.3.88v3.76a1.25,1.25,0,0,1-.3.88A1.06,1.06,0,0,1,880.35,119.44Zm-2-4.83v3.46c0,.27.12.4.36.4h1.41c.24,0,.37-.13.37-.4v-3.46c0-.27-.13-.4-.37-.4h-1.41C878.51,114.21,878.39,114.34,878.39,114.61Z"/><path class="cls-31" d="M885.37,119.44h-1.79a1,1,0,0,1-.79-.34,1.25,1.25,0,0,1-.3-.88v-3.76a1.25,1.25,0,0,1,.3-.88,1,1,0,0,1,.79-.33h1.79a1,1,0,0,1,.8.33,1.25,1.25,0,0,1,.3.88v3.76a1.25,1.25,0,0,1-.3.88A1,1,0,0,1,885.37,119.44Zm-2-4.83v3.46c0,.27.12.4.36.4h1.42c.24,0,.36-.13.36-.4v-3.46c0-.27-.12-.4-.36-.4h-1.42C883.53,114.21,883.41,114.34,883.41,114.61Z"/><path class="cls-31" d="M891.06,114.22h-1.51v5.18h-.93v-5.18h-1.51v-.94h3.95Z"/><polygon class="cls-31" points="897.18 35.06 900.55 37.01 900.55 33.12 897.18 35.06"/><rect class="cls-6" x="152.06" y="75.82" width="41.99" height="29.25"/><path class="cls-26" d="M193.46,104.22h-40.8V76.45h40.8Zm-39.8-1h38.8V77.45h-38.8Z"/><rect class="cls-6" x="165.27" y="102.2" width="15.59" height="2.25"/><rect class="cls-26" x="166.46" y="101.98" width="13.2" height="1.8"/><path class="cls-31" d="M157.27,55.79h-1.79l-.39,1.29h-.86l1.67-5.24h1l1.68,5.24h-.91ZM157,55l-.64-2.17L155.73,55Z"/><path class="cls-31" d="M161.58,57.11h-1.53a.93.93,0,0,1-.71-.28,1,1,0,0,1-.28-.76V52.85a1,1,0,0,1,.28-.75.94.94,0,0,1,.71-.29h1.53a1,1,0,0,1,.72.29,1,1,0,0,1,.28.75v.75h-.84V53c0-.23-.11-.34-.33-.34h-1.19c-.21,0-.32.11-.32.34v3c0,.23.11.35.32.35h1.19c.22,0,.33-.12.33-.35v-.61h.84v.74a1,1,0,0,1-.28.76A.94.94,0,0,1,161.58,57.11Z"/><path class="cls-31" d="M166.67,52.65h-1.38v4.43h-.83V52.65h-1.38v-.81h3.59Z"/><path class="cls-31" d="M165.72,114.35v-.43a.4.4,0,0,0-.09-.27.3.3,0,0,0-.25-.1h-1.15a.34.34,0,0,0-.26.1.4.4,0,0,0-.09.27v.53a.33.33,0,0,0,.08.24.68.68,0,0,0,.27.12l1.38.32c.72.15,1.07.51,1.07,1.07v.88a1,1,0,0,1-.29.77,1,1,0,0,1-.77.29H164a1,1,0,0,1-1-1.06v-.64h.87v.5a.37.37,0,0,0,.09.27.33.33,0,0,0,.26.1h1.23a.33.33,0,0,0,.26-.1.37.37,0,0,0,.09-.27v-.59a.3.3,0,0,0-.08-.25.56.56,0,0,0-.27-.13l-1.38-.3c-.71-.17-1.07-.53-1.07-1.07v-.81a1,1,0,0,1,1.06-1.07h1.49a1,1,0,0,1,1.06,1.07v.56Z"/><path class="cls-31" d="M167.79,118.11v-5.36h3.43v.84h-2.54V115h2.09v.84h-2.09v2.27Z"/><path class="cls-31" d="M172.1,112.75h2.66a1,1,0,0,1,1.05,1.07v1.27a1,1,0,0,1-.29.77,1,1,0,0,1-.76.29H173v2h-.89Zm.89,2.56h1.59c.23,0,.34-.12.34-.36v-1c0-.24-.11-.36-.34-.36H173Z"/><path class="cls-31" d="M177.64,116.76v-1h-1.07V115h1.07v-1h.76v1h1.07v.76H178.4v1Z"/><path class="cls-31" d="M183.15,118.11v-4.43l-1,.35v-.76l1.12-.52H184v5.36Z"/><path class="cls-31" d="M182.69,57.08V52.75l-.89.34v-.74l1-.51h.67v5.24Z"/><path class="cls-31" d="M187.18,57.11h-1.5a.94.94,0,0,1-.72-.28,1.05,1.05,0,0,1-.27-.76V52.85a1,1,0,0,1,.27-.75,1,1,0,0,1,.72-.29h1.5a.94.94,0,0,1,.71.29,1,1,0,0,1,.27.75v3.22a1.05,1.05,0,0,1-.27.76A.93.93,0,0,1,187.18,57.11ZM185.52,53v3c0,.23.11.35.32.35H187c.21,0,.32-.12.32-.35V53c0-.23-.11-.34-.32-.34h-1.17C185.63,52.64,185.52,52.75,185.52,53Z"/><path class="cls-31" d="M191.84,53.47V53c0-.23-.11-.34-.32-.34h-1.25c-.21,0-.32.11-.32.34v3a.37.37,0,0,0,.08.25.32.32,0,0,0,.24.09h1.25c.21,0,.32-.12.32-.35V55h-1v-.79h1.87v1.84a1.05,1.05,0,0,1-.27.76,1,1,0,0,1-.73.28H190.1a1,1,0,0,1-.72-.28,1.05,1.05,0,0,1-.27-.76V52.85a1,1,0,0,1,.27-.75,1,1,0,0,1,.72-.29h1.58a1,1,0,0,1,.73.29,1,1,0,0,1,.27.75v.62Z"/><rect class="cls-31" x="155.04" y="59.3" width="9.86" height="8.96"/><path class="cls-36" d="M156.45,59.78h7a0,0,0,0,1,0,0V66.3a.57.57,0,0,1-.57.57H157a.58.58,0,0,1-.58-.58V59.78A0,0,0,0,1,156.45,59.78Z"/><rect class="cls-31" x="182.6" y="59.3" width="9.86" height="8.96"/><path class="cls-37" d="M184,59.78h7a0,0,0,0,1,0,0V66.3a.57.57,0,0,1-.57.57h-5.88a.58.58,0,0,1-.58-.58V59.78A0,0,0,0,1,184,59.78Z"/><rect class="cls-6" x="208.72" y="75.82" width="41.99" height="29.25"/><path class="cls-26" d="M250.12,104.22h-40.8V76.45h40.8Zm-39.8-1h38.8V77.45h-38.8Z"/><rect class="cls-6" x="221.92" y="102.2" width="15.59" height="2.25"/><rect class="cls-26" x="223.12" y="101.98" width="13.2" height="1.8"/><path class="cls-31" d="M213.92,55.79h-1.78l-.39,1.29h-.87l1.68-5.24h1l1.68,5.24h-.91Zm-.24-.82L213,52.8,212.38,55Z"/><path class="cls-31" d="M218.24,57.11h-1.53a.94.94,0,0,1-.72-.28,1.05,1.05,0,0,1-.27-.76V52.85a1,1,0,0,1,.27-.75,1,1,0,0,1,.72-.29h1.53a1,1,0,0,1,.72.29,1,1,0,0,1,.27.75v.75h-.83V53c0-.23-.11-.34-.33-.34h-1.19c-.22,0-.32.11-.32.34v3c0,.23.1.35.32.35h1.19c.22,0,.33-.12.33-.35v-.61h.83v.74a1.05,1.05,0,0,1-.27.76A.94.94,0,0,1,218.24,57.11Z"/><path class="cls-31" d="M223.32,52.65H222v4.43h-.84V52.65h-1.37v-.81h3.58Z"/><path class="cls-31" d="M221.59,114.35v-.43a.4.4,0,0,0-.09-.27.3.3,0,0,0-.25-.1H220.1a.33.33,0,0,0-.26.1.4.4,0,0,0-.09.27v.53a.33.33,0,0,0,.08.24.68.68,0,0,0,.27.12l1.38.32c.72.15,1.07.51,1.07,1.07v.88a1,1,0,0,1-.29.77,1,1,0,0,1-.77.29h-1.58a1,1,0,0,1-.76-.29,1,1,0,0,1-.29-.77v-.64h.87v.5a.37.37,0,0,0,.09.27.33.33,0,0,0,.26.1h1.23a.33.33,0,0,0,.26-.1.37.37,0,0,0,.09-.27v-.59a.34.34,0,0,0-.08-.25.56.56,0,0,0-.27-.13l-1.38-.3c-.71-.17-1.07-.53-1.07-1.07v-.81a1,1,0,0,1,1.06-1.07h1.49a1,1,0,0,1,1.06,1.07v.56Z"/><path class="cls-31" d="M223.66,118.11v-5.36h3.43v.84h-2.54V115h2.09v.84h-2.09v2.27Z"/><path class="cls-31" d="M228,112.75h2.66a1,1,0,0,1,1.05,1.07v1.27a1,1,0,0,1-1.05,1.06h-1.77v2H228Zm.89,2.56h1.59c.23,0,.34-.12.34-.36v-1c0-.24-.11-.36-.34-.36h-1.59Z"/><path class="cls-31" d="M233.51,116.76v-1h-1.07V115h1.07v-1h.76v1h1.07v.76h-1.07v1Z"/><path class="cls-31" d="M239.13,114v.39h-.87v-.55a1.06,1.06,0,0,1,1.07-1.07h1.42a1,1,0,0,1,.77.31,1,1,0,0,1,.3.76v.89a.85.85,0,0,1-.23.62,2.62,2.62,0,0,1-.84.45l-1.28.51a1.46,1.46,0,0,0-.28.13.25.25,0,0,0-.1.23v.65h2.75v.84H238.2v-1.64a.79.79,0,0,1,.32-.69,3.12,3.12,0,0,1,.75-.39l1.29-.5a.93.93,0,0,0,.28-.15.38.38,0,0,0,.09-.22V114a.44.44,0,0,0-.09-.29.38.38,0,0,0-.28-.11h-1.05a.41.41,0,0,0-.28.1A.44.44,0,0,0,239.13,114Z"/><path class="cls-31" d="M239.34,57.08V52.75l-.89.34v-.74l1.05-.51h.68v5.24Z"/><path class="cls-31" d="M243.83,57.11h-1.5a.93.93,0,0,1-.71-.28,1,1,0,0,1-.28-.76V52.85a1,1,0,0,1,.28-.75.94.94,0,0,1,.71-.29h1.5a1,1,0,0,1,.72.29,1,1,0,0,1,.27.75v3.22a1.05,1.05,0,0,1-.27.76A.94.94,0,0,1,243.83,57.11ZM242.18,53v3c0,.23.11.35.32.35h1.16c.22,0,.33-.12.33-.35V53c0-.23-.11-.34-.33-.34H242.5C242.29,52.64,242.18,52.75,242.18,53Z"/><path class="cls-31" d="M248.5,53.47V53c0-.23-.11-.34-.33-.34h-1.24c-.22,0-.32.11-.32.34v3a.33.33,0,0,0,.08.25.31.31,0,0,0,.24.09h1.24c.22,0,.33-.12.33-.35V55h-1v-.79h1.88v1.84a1.05,1.05,0,0,1-.27.76,1,1,0,0,1-.73.28h-1.58a.94.94,0,0,1-.72-.28,1.05,1.05,0,0,1-.27-.76V52.85a1,1,0,0,1,.27-.75,1,1,0,0,1,.72-.29h1.58a1,1,0,0,1,.73.29,1,1,0,0,1,.27.75v.62Z"/><rect class="cls-31" x="211.69" y="59.3" width="9.86" height="8.96"/><path class="cls-38" d="M213.11,59.78h7a0,0,0,0,1,0,0V66.3a.57.57,0,0,1-.57.57h-5.88a.58.58,0,0,1-.58-.58V59.78A0,0,0,0,1,213.11,59.78Z"/><rect class="cls-31" x="239.26" y="59.3" width="9.86" height="8.96"/><path class="cls-39" d="M240.68,59.78h7a0,0,0,0,1,0,0V66.3a.57.57,0,0,1-.57.57h-5.88a.58.58,0,0,1-.58-.58V59.78A0,0,0,0,1,240.68,59.78Z"/><rect class="cls-6" x="265.38" y="75.82" width="41.99" height="29.25"/><path class="cls-26" d="M306.78,104.22H266V76.45h40.81Zm-39.81-1h38.81V77.45H267Z"/><rect class="cls-6" x="278.58" y="102.2" width="15.59" height="2.25"/><rect class="cls-26" x="279.77" y="101.98" width="13.2" height="1.8"/><path class="cls-31" d="M270.58,55.79H268.8l-.39,1.29h-.87l1.67-5.24h1l1.68,5.24H271Zm-.24-.82-.64-2.17L269,55Z"/><path class="cls-31" d="M274.89,57.11h-1.52a.94.94,0,0,1-.72-.28,1.05,1.05,0,0,1-.27-.76V52.85a1,1,0,0,1,.27-.75,1,1,0,0,1,.72-.29h1.52a1,1,0,0,1,.73.29,1,1,0,0,1,.27.75v.75h-.84V53c0-.23-.11-.34-.32-.34h-1.2c-.21,0-.32.11-.32.34v3c0,.23.11.35.32.35h1.2c.21,0,.32-.12.32-.35v-.61h.84v.74a1.05,1.05,0,0,1-.27.76A1,1,0,0,1,274.89,57.11Z"/><path class="cls-31" d="M280,52.65h-1.37v4.43h-.84V52.65H276.4v-.81H280Z"/><path class="cls-31" d="M278.23,114.35v-.43a.4.4,0,0,0-.09-.27.32.32,0,0,0-.25-.1h-1.15a.33.33,0,0,0-.26.1.4.4,0,0,0-.09.27v.53a.33.33,0,0,0,.08.24.57.57,0,0,0,.27.12l1.38.32c.71.15,1.07.51,1.07,1.07v.88a1,1,0,0,1-1.06,1.06h-1.58a1,1,0,0,1-.76-.29,1,1,0,0,1-.29-.77v-.64h.87v.5a.37.37,0,0,0,.09.27.33.33,0,0,0,.26.1H278a.34.34,0,0,0,.26-.1.37.37,0,0,0,.09-.27v-.59a.34.34,0,0,0-.08-.25A.56.56,0,0,0,278,116l-1.38-.3c-.72-.17-1.07-.53-1.07-1.07v-.81a1,1,0,0,1,.29-.78,1.06,1.06,0,0,1,.77-.29h1.49a1,1,0,0,1,1.06,1.07v.56Z"/><path class="cls-31" d="M280.3,118.11v-5.36h3.43v.84h-2.54V115h2.09v.84h-2.09v2.27Z"/><path class="cls-31" d="M284.6,112.75h2.67a1,1,0,0,1,.76.29,1.07,1.07,0,0,1,.29.78v1.27a1,1,0,0,1-.29.77,1,1,0,0,1-.76.29H285.5v2h-.9Zm.9,2.56h1.59c.23,0,.34-.12.34-.36v-1c0-.24-.11-.36-.34-.36H285.5Z"/><path class="cls-31" d="M290.15,116.76v-1h-1.07V115h1.07v-1h.76v1H292v.76h-1.07v1Z"/><path class="cls-31" d="M295.67,116.56v.37a.37.37,0,0,0,.1.28.36.36,0,0,0,.28.1h1.13a.33.33,0,0,0,.27-.1.38.38,0,0,0,.11-.28v-.78c0-.26-.16-.38-.46-.38H296V115h1.11a.48.48,0,0,0,.31-.08.43.43,0,0,0,.09-.31v-.64a.44.44,0,0,0-.1-.29.37.37,0,0,0-.28-.1h-1a.36.36,0,0,0-.28.1.39.39,0,0,0-.1.29v.37h-.9v-.52a1,1,0,0,1,.31-.76,1,1,0,0,1,.76-.31h1.42a1.06,1.06,0,0,1,1.07,1.07v.77a.87.87,0,0,1-.48.8.83.83,0,0,1,.54.81v.9a1,1,0,0,1-.31.76,1,1,0,0,1-.76.31h-1.53a1,1,0,0,1-.77-.31,1,1,0,0,1-.31-.76v-.51Z"/><path class="cls-31" d="M296,57.08V52.75l-.89.34v-.74l1.05-.51h.68v5.24Z"/><path class="cls-31" d="M300.49,57.11H299a.94.94,0,0,1-.72-.28,1.05,1.05,0,0,1-.27-.76V52.85a1,1,0,0,1,.27-.75,1,1,0,0,1,.72-.29h1.5a1,1,0,0,1,.72.29,1,1,0,0,1,.27.75v3.22a1.05,1.05,0,0,1-.27.76A.94.94,0,0,1,300.49,57.11ZM298.84,53v3c0,.23.1.35.32.35h1.16c.22,0,.32-.12.32-.35V53c0-.23-.1-.34-.32-.34h-1.16C298.94,52.64,298.84,52.75,298.84,53Z"/><path class="cls-31" d="M305.16,53.47V53c0-.23-.11-.34-.33-.34h-1.25c-.21,0-.32.11-.32.34v3a.33.33,0,0,0,.09.25.29.29,0,0,0,.23.09h1.25c.22,0,.33-.12.33-.35V55h-1v-.79H306v1.84a1.05,1.05,0,0,1-.27.76.94.94,0,0,1-.72.28h-1.58a.94.94,0,0,1-.72-.28,1.05,1.05,0,0,1-.27-.76V52.85a1,1,0,0,1,.27-.75,1,1,0,0,1,.72-.29H305a1,1,0,0,1,.72.29,1,1,0,0,1,.27.75v.62Z"/><rect class="cls-31" x="268.35" y="59.3" width="9.86" height="8.96"/><path class="cls-40" d="M269.77,59.78h7a0,0,0,0,1,0,0V66.3a.57.57,0,0,1-.57.57h-5.88a.58.58,0,0,1-.58-.58V59.78A0,0,0,0,1,269.77,59.78Z"/><rect class="cls-31" x="295.92" y="59.3" width="9.86" height="8.96"/><path class="cls-41" d="M297.33,59.78h7a0,0,0,0,1,0,0V66.3a.57.57,0,0,1-.57.57h-5.88a.58.58,0,0,1-.58-.58V59.78A0,0,0,0,1,297.33,59.78Z"/><rect class="cls-6" x="322.04" y="75.82" width="41.99" height="29.25"/><path class="cls-26" d="M363.43,104.22h-40.8V76.45h40.8Zm-39.8-1h38.8V77.45h-38.8Z"/><rect class="cls-6" x="335.24" y="102.2" width="15.59" height="2.25"/><rect class="cls-26" x="336.43" y="101.98" width="13.2" height="1.8"/><path class="cls-31" d="M327.24,55.79h-1.79l-.39,1.29h-.86l1.67-5.24h1l1.68,5.24h-.91ZM327,55l-.64-2.17L325.7,55Z"/><path class="cls-31" d="M331.55,57.11H330a.93.93,0,0,1-.71-.28,1.06,1.06,0,0,1-.28-.76V52.85a1.05,1.05,0,0,1,.28-.75.94.94,0,0,1,.71-.29h1.53a1,1,0,0,1,.73.29,1,1,0,0,1,.27.75v.75h-.84V53c0-.23-.11-.34-.33-.34h-1.19c-.21,0-.32.11-.32.34v3c0,.23.11.35.32.35h1.19c.22,0,.33-.12.33-.35v-.61h.84v.74a1.05,1.05,0,0,1-.27.76A1,1,0,0,1,331.55,57.11Z"/><path class="cls-31" d="M336.64,52.65h-1.37v4.43h-.84V52.65h-1.37v-.81h3.58Z"/><path class="cls-31" d="M334.78,114.35v-.43a.4.4,0,0,0-.09-.27.33.33,0,0,0-.25-.1h-1.16a.3.3,0,0,0-.25.1.41.41,0,0,0-.1.27v.53a.3.3,0,0,0,.09.24.57.57,0,0,0,.26.12l1.39.32c.71.15,1.07.51,1.07,1.07v.88a1,1,0,0,1-.29.77,1.07,1.07,0,0,1-.78.29H333.1a1.06,1.06,0,0,1-.77-.29,1,1,0,0,1-.29-.77v-.64h.87v.5a.33.33,0,0,0,.1.27.3.3,0,0,0,.25.1h1.24a.32.32,0,0,0,.25-.1.37.37,0,0,0,.09-.27v-.59a.34.34,0,0,0-.07-.25.62.62,0,0,0-.27-.13l-1.39-.3c-.71-.17-1.07-.53-1.07-1.07v-.81a1,1,0,0,1,1.07-1.07h1.48a1,1,0,0,1,1.07,1.07v.56Z"/><path class="cls-31" d="M336.84,118.11v-5.36h3.43v.84h-2.53V115h2.09v.84h-2.09v2.27Z"/><path class="cls-31" d="M341.15,112.75h2.66a1,1,0,0,1,1.06,1.07v1.27a1,1,0,0,1-.29.77,1,1,0,0,1-.77.29H342v2h-.89Zm.89,2.56h1.59c.23,0,.34-.12.34-.36v-1c0-.24-.11-.36-.34-.36H342Z"/><path class="cls-31" d="M346.7,116.76v-1h-1.07V115h1.07v-1h.75v1h1.08v.76h-1.08v1Z"/><path class="cls-31" d="M355.46,117h-.76v1.16h-.87V117h-2.55l-.15-.68,2.76-3.52h.81v3.4h.76Zm-3.25-.8h1.62V114Z"/><path class="cls-31" d="M352.66,57.08V52.75l-.89.34v-.74l1.05-.51h.67v5.24Z"/><path class="cls-31" d="M357.15,57.11h-1.5a.94.94,0,0,1-.72-.28,1.05,1.05,0,0,1-.27-.76V52.85a1,1,0,0,1,.27-.75,1,1,0,0,1,.72-.29h1.5a.94.94,0,0,1,.71.29,1,1,0,0,1,.28.75v3.22a1,1,0,0,1-.28.76A.93.93,0,0,1,357.15,57.11ZM355.49,53v3c0,.23.11.35.33.35H357c.21,0,.32-.12.32-.35V53c0-.23-.11-.34-.32-.34h-1.16C355.6,52.64,355.49,52.75,355.49,53Z"/><path class="cls-31" d="M361.82,53.47V53c0-.23-.11-.34-.33-.34h-1.25c-.21,0-.32.11-.32.34v3a.37.37,0,0,0,.08.25.32.32,0,0,0,.24.09h1.25c.22,0,.33-.12.33-.35V55h-1v-.79h1.87v1.84a1.05,1.05,0,0,1-.27.76,1,1,0,0,1-.73.28h-1.58a.93.93,0,0,1-.71-.28,1,1,0,0,1-.28-.76V52.85a1,1,0,0,1,.28-.75.94.94,0,0,1,.71-.29h1.58a1,1,0,0,1,.73.29,1,1,0,0,1,.27.75v.62Z"/><rect class="cls-31" x="325.01" y="59.3" width="9.86" height="8.96"/><path class="cls-42" d="M326.42,59.78h7a0,0,0,0,1,0,0V66.3a.57.57,0,0,1-.57.57H327a.58.58,0,0,1-.58-.58V59.78A0,0,0,0,1,326.42,59.78Z"/><rect class="cls-31" x="352.57" y="59.3" width="9.86" height="8.96"/><path class="cls-43" d="M354,59.78h7a0,0,0,0,1,0,0V66.3a.57.57,0,0,1-.57.57h-5.88a.58.58,0,0,1-.58-.58V59.78A0,0,0,0,1,354,59.78Z"/><rect class="cls-6" x="378.69" y="75.82" width="41.99" height="29.25"/><path class="cls-26" d="M420.09,104.22h-40.8V76.45h40.8Zm-39.8-1h38.8V77.45h-38.8Z"/><rect class="cls-6" x="391.9" y="102.2" width="15.59" height="2.25"/><rect class="cls-26" x="393.09" y="101.98" width="13.2" height="1.8"/><path class="cls-31" d="M383.89,55.79h-1.78l-.39,1.29h-.86l1.67-5.24h1l1.68,5.24h-.91Zm-.24-.82L383,52.8,382.35,55Z"/><path class="cls-31" d="M388.21,57.11h-1.53a.94.94,0,0,1-.72-.28,1.05,1.05,0,0,1-.27-.76V52.85a1,1,0,0,1,.27-.75,1,1,0,0,1,.72-.29h1.53a1,1,0,0,1,.72.29,1,1,0,0,1,.27.75v.75h-.83V53c0-.23-.11-.34-.33-.34h-1.19c-.22,0-.32.11-.32.34v3c0,.23.1.35.32.35H388c.22,0,.33-.12.33-.35v-.61h.83v.74a1.05,1.05,0,0,1-.27.76A.94.94,0,0,1,388.21,57.11Z"/><path class="cls-31" d="M393.29,52.65h-1.37v4.43h-.83V52.65h-1.38v-.81h3.58Z"/><path class="cls-31" d="M391.51,114.35v-.43a.41.41,0,0,0-.1-.27.3.3,0,0,0-.25-.1H390a.34.34,0,0,0-.26.1.4.4,0,0,0-.09.27v.53a.33.33,0,0,0,.08.24.68.68,0,0,0,.27.12l1.38.32c.72.15,1.07.51,1.07,1.07v.88a1,1,0,0,1-.29.77,1,1,0,0,1-.77.29h-1.58a1,1,0,0,1-1.05-1.06v-.64h.87v.5a.37.37,0,0,0,.09.27.33.33,0,0,0,.26.1h1.23a.33.33,0,0,0,.26-.1.37.37,0,0,0,.09-.27v-.59a.3.3,0,0,0-.08-.25.56.56,0,0,0-.27-.13l-1.38-.3c-.71-.17-1.07-.53-1.07-1.07v-.81a1,1,0,0,1,1.06-1.07h1.49a1,1,0,0,1,1.06,1.07v.56Z"/><path class="cls-31" d="M393.57,118.11v-5.36H397v.84h-2.54V115h2.09v.84h-2.09v2.27Z"/><path class="cls-31" d="M397.88,112.75h2.66a1,1,0,0,1,1,1.07v1.27a1,1,0,0,1-.29.77,1,1,0,0,1-.76.29h-1.77v2h-.89Zm.89,2.56h1.59c.23,0,.34-.12.34-.36v-1c0-.24-.11-.36-.34-.36h-1.59Z"/><path class="cls-31" d="M403.42,116.76v-1h-1.07V115h1.07v-1h.76v1h1.07v.76h-1.07v1Z"/><path class="cls-31" d="M411.67,113.59h-2.58v1.59l.24-.2a1.31,1.31,0,0,1,.83-.37h.57a1.06,1.06,0,0,1,1.06,1.07v1.39a1,1,0,0,1-.31.76,1,1,0,0,1-.76.31h-1.51a1.06,1.06,0,0,1-.78-.31,1,1,0,0,1-.29-.76v-.53H409v.37c0,.26.12.39.37.39h1.12a.34.34,0,0,0,.38-.39V115.8a.36.36,0,0,0-.11-.28.35.35,0,0,0-.27-.1h-.44a1.5,1.5,0,0,0-.75.2l-.24.15-.89-.27v-2.75h3.47Z"/><path class="cls-31" d="M409.32,57.08V52.75l-.9.34v-.74l1.06-.51h.67v5.24Z"/><path class="cls-31" d="M413.8,57.11h-1.5a.93.93,0,0,1-.71-.28,1.06,1.06,0,0,1-.28-.76V52.85a1.05,1.05,0,0,1,.28-.75.94.94,0,0,1,.71-.29h1.5a1,1,0,0,1,.72.29,1,1,0,0,1,.27.75v3.22a1.05,1.05,0,0,1-.27.76A.94.94,0,0,1,413.8,57.11ZM412.15,53v3c0,.23.11.35.32.35h1.17c.21,0,.32-.12.32-.35V53c0-.23-.11-.34-.32-.34h-1.17C412.26,52.64,412.15,52.75,412.15,53Z"/><path class="cls-31" d="M418.47,53.47V53c0-.23-.11-.34-.33-.34H416.9c-.22,0-.32.11-.32.34v3a.33.33,0,0,0,.08.25.31.31,0,0,0,.24.09h1.24c.22,0,.33-.12.33-.35V55h-1v-.79h1.88v1.84a1.05,1.05,0,0,1-.27.76,1,1,0,0,1-.73.28h-1.58a.94.94,0,0,1-.72-.28,1.05,1.05,0,0,1-.27-.76V52.85a1,1,0,0,1,.27-.75,1,1,0,0,1,.72-.29h1.58a1,1,0,0,1,.73.29,1,1,0,0,1,.27.75v.62Z"/><rect class="cls-31" x="381.66" y="59.3" width="9.86" height="8.96"/><path class="cls-44" d="M383.08,59.78h7a0,0,0,0,1,0,0V66.3a.57.57,0,0,1-.57.57h-5.88a.58.58,0,0,1-.58-.58V59.78A0,0,0,0,1,383.08,59.78Z"/><rect class="cls-31" x="409.23" y="59.3" width="9.86" height="8.96"/><path class="cls-45" d="M410.65,59.78h7a0,0,0,0,1,0,0V66.3a.57.57,0,0,1-.57.57h-5.88a.58.58,0,0,1-.58-.58V59.78A0,0,0,0,1,410.65,59.78Z"/><rect class="cls-6" x="435.35" y="75.82" width="41.99" height="29.25"/><path class="cls-26" d="M476.75,104.22H435.94V76.45h40.81Zm-39.81-1h38.81V77.45H436.94Z"/><rect class="cls-6" x="448.55" y="102.2" width="15.59" height="2.25"/><rect class="cls-26" x="449.75" y="101.98" width="13.2" height="1.8"/><path class="cls-31" d="M440.55,55.79h-1.78l-.39,1.29h-.87l1.68-5.24h1l1.68,5.24h-.9Zm-.24-.82-.64-2.17L439,55Z"/><path class="cls-31" d="M444.86,57.11h-1.52a.94.94,0,0,1-.72-.28,1.05,1.05,0,0,1-.27-.76V52.85a1,1,0,0,1,.27-.75,1,1,0,0,1,.72-.29h1.52a1,1,0,0,1,.73.29,1,1,0,0,1,.27.75v.75H445V53c0-.23-.11-.34-.33-.34h-1.19c-.22,0-.32.11-.32.34v3c0,.23.1.35.32.35h1.19c.22,0,.33-.12.33-.35v-.61h.83v.74a1.05,1.05,0,0,1-.27.76A1,1,0,0,1,444.86,57.11Z"/><path class="cls-31" d="M450,52.65h-1.37v4.43h-.84V52.65h-1.37v-.81H450Z"/><path class="cls-31" d="M448.14,114.35v-.43a.4.4,0,0,0-.09-.27.32.32,0,0,0-.25-.1h-1.15a.33.33,0,0,0-.26.1.4.4,0,0,0-.09.27v.53a.29.29,0,0,0,.08.24.57.57,0,0,0,.27.12l1.38.32c.71.15,1.07.51,1.07,1.07v.88a1,1,0,0,1-1.06,1.06h-1.58a1.06,1.06,0,0,1-.77-.29,1,1,0,0,1-.29-.77v-.64h.87v.5a.37.37,0,0,0,.1.27.3.3,0,0,0,.25.1h1.24a.3.3,0,0,0,.25-.1.33.33,0,0,0,.1-.27v-.59a.34.34,0,0,0-.08-.25.56.56,0,0,0-.27-.13l-1.39-.3c-.71-.17-1.07-.53-1.07-1.07v-.81a1,1,0,0,1,1.07-1.07H448a1,1,0,0,1,1.07,1.07v.56Z"/><path class="cls-31" d="M450.21,118.11v-5.36h3.42v.84H451.1V115h2.09v.84H451.1v2.27Z"/><path class="cls-31" d="M454.51,112.75h2.66a1,1,0,0,1,.77.29,1.07,1.07,0,0,1,.29.78v1.27a1,1,0,0,1-.29.77,1,1,0,0,1-.77.29H455.4v2h-.89Zm.89,2.56H457c.22,0,.34-.12.34-.36v-1c0-.24-.12-.36-.34-.36h-1.6Z"/><path class="cls-31" d="M460.06,116.76v-1H459V115h1.07v-1h.76v1h1.07v.76h-1.07v1Z"/><path class="cls-31" d="M467.49,114.26V114a.35.35,0,0,0-.38-.39h-1.05c-.25,0-.37.13-.37.39v1.37l.23-.19a1.26,1.26,0,0,1,.83-.37h.62a1,1,0,0,1,.77.3,1.06,1.06,0,0,1,.31.77v1.24a1,1,0,0,1-.31.76,1,1,0,0,1-.77.31h-1.51a1,1,0,0,1-.77-.31,1,1,0,0,1-.3-.76v-3.28a1,1,0,0,1,1.07-1.07h1.45a1,1,0,0,1,.77.31,1,1,0,0,1,.31.76v.47Zm-1.8,1.65v1c0,.26.12.39.37.39h1.12c.25,0,.37-.13.37-.39v-1a.43.43,0,0,0-.09-.28.37.37,0,0,0-.28-.1h-.5a1.43,1.43,0,0,0-.76.21Z"/><path class="cls-31" d="M466,57.08V52.75l-.89.34v-.74l1.05-.51h.68v5.24Z"/><path class="cls-31" d="M470.46,57.11H469a1,1,0,0,1-.72-.28,1.05,1.05,0,0,1-.27-.76V52.85a1,1,0,0,1,.27-.75,1,1,0,0,1,.72-.29h1.5a1,1,0,0,1,.72.29,1,1,0,0,1,.27.75v3.22a1.05,1.05,0,0,1-.27.76A.94.94,0,0,1,470.46,57.11ZM468.81,53v3c0,.23.11.35.32.35h1.16c.22,0,.32-.12.32-.35V53c0-.23-.1-.34-.32-.34h-1.16C468.92,52.64,468.81,52.75,468.81,53Z"/><path class="cls-31" d="M475.13,53.47V53c0-.23-.11-.34-.33-.34h-1.25c-.21,0-.32.11-.32.34v3a.33.33,0,0,0,.09.25.29.29,0,0,0,.23.09h1.25c.22,0,.33-.12.33-.35V55h-1v-.79H476v1.84a1.06,1.06,0,0,1-.28.76.94.94,0,0,1-.72.28h-1.58a.94.94,0,0,1-.72-.28,1.05,1.05,0,0,1-.27-.76V52.85a1,1,0,0,1,.27-.75,1,1,0,0,1,.72-.29H475a1,1,0,0,1,.72.29,1.05,1.05,0,0,1,.28.75v.62Z"/><rect class="cls-31" x="438.32" y="59.3" width="9.86" height="8.96"/><path class="cls-46" d="M439.74,59.78h7a0,0,0,0,1,0,0V66.3a.57.57,0,0,1-.57.57h-5.88a.58.58,0,0,1-.58-.58V59.78A0,0,0,0,1,439.74,59.78Z"/><rect class="cls-31" x="465.89" y="59.3" width="9.86" height="8.96"/><path class="cls-47" d="M467.3,59.78h7a0,0,0,0,1,0,0V66.3a.57.57,0,0,1-.57.57h-5.88a.58.58,0,0,1-.58-.58V59.78A0,0,0,0,1,467.3,59.78Z"/><rect class="cls-6" x="492.01" y="75.82" width="41.99" height="29.25"/><path class="cls-26" d="M533.41,104.22H492.6V76.45h40.81Zm-39.81-1h38.81V77.45H493.6Z"/><rect class="cls-6" x="505.21" y="102.2" width="15.59" height="2.25"/><rect class="cls-26" x="506.4" y="101.98" width="13.2" height="1.8"/><path class="cls-31" d="M497.21,55.79h-1.79L495,57.08h-.86l1.67-5.24h1l1.68,5.24h-.91ZM497,55l-.64-2.17L495.67,55Z"/><path class="cls-31" d="M501.52,57.11H500a.94.94,0,0,1-.72-.28,1.05,1.05,0,0,1-.27-.76V52.85a1,1,0,0,1,.27-.75,1,1,0,0,1,.72-.29h1.52a1,1,0,0,1,.73.29,1,1,0,0,1,.27.75v.75h-.84V53c0-.23-.11-.34-.33-.34h-1.19c-.21,0-.32.11-.32.34v3c0,.23.11.35.32.35h1.19c.22,0,.33-.12.33-.35v-.61h.84v.74a1.05,1.05,0,0,1-.27.76A1,1,0,0,1,501.52,57.11Z"/><path class="cls-31" d="M506.61,52.65h-1.37v4.43h-.84V52.65H503v-.81h3.58Z"/><path class="cls-31" d="M505,114.35v-.43a.41.41,0,0,0-.1-.27.3.3,0,0,0-.25-.1h-1.15a.34.34,0,0,0-.26.1.4.4,0,0,0-.09.27v.53a.33.33,0,0,0,.08.24.68.68,0,0,0,.27.12l1.38.32c.72.15,1.07.51,1.07,1.07v.88a1,1,0,0,1-.29.77,1,1,0,0,1-.77.29h-1.58a1,1,0,0,1-1.05-1.06v-.64h.87v.5a.37.37,0,0,0,.09.27.33.33,0,0,0,.26.1h1.23a.33.33,0,0,0,.26-.1.37.37,0,0,0,.09-.27v-.59a.3.3,0,0,0-.08-.25.56.56,0,0,0-.27-.13l-1.38-.3c-.71-.17-1.07-.53-1.07-1.07v-.81a1,1,0,0,1,1.06-1.07h1.49a1,1,0,0,1,1.06,1.07v.56Z"/><path class="cls-31" d="M507.07,118.11v-5.36h3.43v.84H508V115h2.09v.84H508v2.27Z"/><path class="cls-31" d="M511.38,112.75H514a1,1,0,0,1,1.05,1.07v1.27a1,1,0,0,1-.29.77,1,1,0,0,1-.76.29h-1.77v2h-.89Zm.89,2.56h1.59c.23,0,.34-.12.34-.36v-1c0-.24-.11-.36-.34-.36h-1.59Z"/><path class="cls-31" d="M516.92,116.76v-1h-1.07V115h1.07v-1h.76v1h1.07v.76h-1.07v1Z"/><path class="cls-31" d="M525.17,113.41l-2.48,4.7h-1l2.39-4.52h-2.67v-.84h3.73Z"/><path class="cls-31" d="M522.63,57.08V52.75l-.89.34v-.74l1-.51h.68v5.24Z"/><path class="cls-31" d="M527.12,57.11h-1.5a.94.94,0,0,1-.72-.28,1.05,1.05,0,0,1-.27-.76V52.85a1,1,0,0,1,.27-.75,1,1,0,0,1,.72-.29h1.5a.94.94,0,0,1,.71.29,1,1,0,0,1,.28.75v3.22a1,1,0,0,1-.28.76A.93.93,0,0,1,527.12,57.11ZM525.47,53v3c0,.23.1.35.32.35H527c.21,0,.32-.12.32-.35V53c0-.23-.11-.34-.32-.34h-1.16C525.57,52.64,525.47,52.75,525.47,53Z"/><path class="cls-31" d="M531.79,53.47V53c0-.23-.11-.34-.33-.34h-1.25c-.21,0-.32.11-.32.34v3a.37.37,0,0,0,.08.25.32.32,0,0,0,.24.09h1.25c.22,0,.33-.12.33-.35V55h-1v-.79h1.87v1.84a1.05,1.05,0,0,1-.27.76.94.94,0,0,1-.72.28H530a.93.93,0,0,1-.71-.28,1.06,1.06,0,0,1-.28-.76V52.85a1.05,1.05,0,0,1,.28-.75.94.94,0,0,1,.71-.29h1.59a1,1,0,0,1,.72.29,1,1,0,0,1,.27.75v.62Z"/><rect class="cls-31" x="494.98" y="59.3" width="9.86" height="8.96"/><path class="cls-48" d="M496.4,59.78h7a0,0,0,0,1,0,0V66.3a.57.57,0,0,1-.57.57H497a.58.58,0,0,1-.58-.58V59.78A0,0,0,0,1,496.4,59.78Z"/><rect class="cls-31" x="522.54" y="59.3" width="9.86" height="8.96"/><path class="cls-49" d="M524,59.78h7a0,0,0,0,1,0,0V66.3a.57.57,0,0,1-.57.57h-5.88a.58.58,0,0,1-.58-.58V59.78A0,0,0,0,1,524,59.78Z"/><rect class="cls-6" x="548.66" y="75.82" width="41.99" height="29.25"/><path class="cls-26" d="M590.06,104.22h-40.8V76.45h40.8Zm-39.8-1h38.8V77.45h-38.8Z"/><rect class="cls-6" x="561.87" y="102.2" width="15.59" height="2.25"/><rect class="cls-26" x="563.06" y="101.98" width="13.2" height="1.8"/><path class="cls-31" d="M553.86,55.79h-1.78l-.39,1.29h-.86l1.67-5.24h1l1.68,5.24h-.91Zm-.24-.82L553,52.8,552.32,55Z"/><path class="cls-31" d="M558.18,57.11h-1.53a1,1,0,0,1-.72-.28,1.05,1.05,0,0,1-.27-.76V52.85a1,1,0,0,1,.27-.75,1,1,0,0,1,.72-.29h1.53a1,1,0,0,1,.72.29,1.05,1.05,0,0,1,.28.75v.75h-.84V53c0-.23-.11-.34-.33-.34h-1.19c-.21,0-.32.11-.32.34v3c0,.23.11.35.32.35H558c.22,0,.33-.12.33-.35v-.61h.84v.74a1.06,1.06,0,0,1-.28.76A.94.94,0,0,1,558.18,57.11Z"/><path class="cls-31" d="M563.27,52.65h-1.38v4.43h-.83V52.65h-1.38v-.81h3.59Z"/><path class="cls-31" d="M561.46,114.35v-.43a.4.4,0,0,0-.09-.27.32.32,0,0,0-.25-.1H560a.33.33,0,0,0-.26.1.4.4,0,0,0-.09.27v.53a.33.33,0,0,0,.08.24.57.57,0,0,0,.27.12l1.38.32c.71.15,1.07.51,1.07,1.07v.88a1,1,0,0,1-1.06,1.06h-1.58a1,1,0,0,1-.76-.29,1,1,0,0,1-.29-.77v-.64h.87v.5a.37.37,0,0,0,.09.27.33.33,0,0,0,.26.1h1.23a.34.34,0,0,0,.26-.1.37.37,0,0,0,.09-.27v-.59a.34.34,0,0,0-.08-.25.56.56,0,0,0-.27-.13l-1.38-.3c-.72-.17-1.07-.53-1.07-1.07v-.81A1,1,0,0,1,559,113a1.06,1.06,0,0,1,.77-.29h1.49a1,1,0,0,1,1.06,1.07v.56Z"/><path class="cls-31" d="M563.53,118.11v-5.36H567v.84h-2.54V115h2.09v.84h-2.09v2.27Z"/><path class="cls-31" d="M567.83,112.75h2.66a1,1,0,0,1,.77.29,1.07,1.07,0,0,1,.29.78v1.27a1,1,0,0,1-.29.77,1,1,0,0,1-.77.29h-1.76v2h-.9Zm.9,2.56h1.59c.22,0,.34-.12.34-.36v-1c0-.24-.12-.36-.34-.36h-1.59Z"/><path class="cls-31" d="M573.38,116.76v-1h-1.07V115h1.07v-1h.76v1h1.07v.76h-1.07v1Z"/><path class="cls-31" d="M581.73,113.79v.78a.87.87,0,0,1-.48.8.83.83,0,0,1,.54.81v.89a1.06,1.06,0,0,1-1.07,1.07h-1.58a1,1,0,0,1-1.07-1.07v-.89a.83.83,0,0,1,.54-.81.87.87,0,0,1-.48-.8v-.78a1,1,0,0,1,1.07-1.07h1.46a1,1,0,0,1,.76.31A1,1,0,0,1,581.73,113.79Zm-1.29,2h-1c-.3,0-.45.13-.45.38v.78a.41.41,0,0,0,.1.28.36.36,0,0,0,.28.1h1.18a.37.37,0,0,0,.28-.1.41.41,0,0,0,.1-.28v-.78C580.9,115.9,580.74,115.77,580.44,115.77Zm0-2.22h-1.07a.35.35,0,0,0-.27.1.39.39,0,0,0-.1.29v.65a.41.41,0,0,0,.09.3.47.47,0,0,0,.3.08h1a.48.48,0,0,0,.31-.08.41.41,0,0,0,.09-.3v-.65a.44.44,0,0,0-.1-.29A.37.37,0,0,0,580.46,113.55Z"/><path class="cls-31" d="M579.29,57.08V52.75l-.9.34v-.74l1.06-.51h.67v5.24Z"/><path class="cls-31" d="M583.77,57.11h-1.49a.94.94,0,0,1-.72-.28,1.05,1.05,0,0,1-.27-.76V52.85a1,1,0,0,1,.27-.75,1,1,0,0,1,.72-.29h1.49a1,1,0,0,1,.72.29,1,1,0,0,1,.27.75v3.22a1.05,1.05,0,0,1-.27.76A.94.94,0,0,1,583.77,57.11ZM582.12,53v3c0,.23.11.35.32.35h1.17c.21,0,.32-.12.32-.35V53c0-.23-.11-.34-.32-.34h-1.17C582.23,52.64,582.12,52.75,582.12,53Z"/><path class="cls-31" d="M588.44,53.47V53c0-.23-.11-.34-.32-.34h-1.25c-.22,0-.32.11-.32.34v3a.37.37,0,0,0,.08.25.32.32,0,0,0,.24.09h1.25c.21,0,.32-.12.32-.35V55h-1v-.79h1.88v1.84a1.05,1.05,0,0,1-.27.76,1,1,0,0,1-.73.28H586.7a.94.94,0,0,1-.72-.28,1.05,1.05,0,0,1-.27-.76V52.85a1,1,0,0,1,.27-.75,1,1,0,0,1,.72-.29h1.58a1,1,0,0,1,.73.29,1,1,0,0,1,.27.75v.62Z"/><rect class="cls-31" x="551.64" y="59.3" width="9.86" height="8.96"/><path class="cls-50" d="M553.05,59.78h7a0,0,0,0,1,0,0V66.3a.57.57,0,0,1-.57.57h-5.88a.58.58,0,0,1-.58-.58V59.78A0,0,0,0,1,553.05,59.78Z"/><rect class="cls-31" x="579.2" y="59.3" width="9.86" height="8.96"/><path class="cls-51" d="M580.62,59.78h7a0,0,0,0,1,0,0V66.3a.57.57,0,0,1-.57.57h-5.88a.58.58,0,0,1-.58-.58V59.78A0,0,0,0,1,580.62,59.78Z"/><rect class="cls-6" x="605.32" y="75.82" width="41.99" height="29.25"/><path class="cls-26" d="M646.72,104.22h-40.8V76.45h40.8Zm-39.8-1h38.8V77.45h-38.8Z"/><rect class="cls-6" x="618.52" y="102.2" width="15.59" height="2.25"/><rect class="cls-26" x="619.72" y="101.98" width="13.2" height="1.8"/><path class="cls-31" d="M610.52,55.79h-1.78l-.39,1.29h-.87l1.68-5.24h1l1.68,5.24h-.9Zm-.24-.82-.64-2.17L609,55Z"/><path class="cls-31" d="M614.84,57.11h-1.53a.94.94,0,0,1-.72-.28,1.05,1.05,0,0,1-.27-.76V52.85a1,1,0,0,1,.27-.75,1,1,0,0,1,.72-.29h1.53a1,1,0,0,1,.72.29,1,1,0,0,1,.27.75v.75H615V53c0-.23-.11-.34-.33-.34h-1.19c-.22,0-.32.11-.32.34v3c0,.23.1.35.32.35h1.19c.22,0,.33-.12.33-.35v-.61h.83v.74a1.05,1.05,0,0,1-.27.76A.94.94,0,0,1,614.84,57.11Z"/><path class="cls-31" d="M619.92,52.65h-1.37v4.43h-.84V52.65h-1.37v-.81h3.58Z"/><path class="cls-31" d="M618.11,114.35v-.43a.4.4,0,0,0-.09-.27.32.32,0,0,0-.25-.1h-1.15a.33.33,0,0,0-.26.1.4.4,0,0,0-.09.27v.53a.33.33,0,0,0,.08.24.57.57,0,0,0,.27.12l1.38.32c.71.15,1.07.51,1.07,1.07v.88a1,1,0,0,1-1.06,1.06h-1.58a1,1,0,0,1-.76-.29,1,1,0,0,1-.29-.77v-.64h.87v.5a.37.37,0,0,0,.09.27.32.32,0,0,0,.25.1h1.24a.34.34,0,0,0,.26-.1.37.37,0,0,0,.09-.27v-.59a.34.34,0,0,0-.08-.25.56.56,0,0,0-.27-.13l-1.38-.3c-.72-.17-1.07-.53-1.07-1.07v-.81a1,1,0,0,1,.29-.78,1,1,0,0,1,.77-.29h1.49a1,1,0,0,1,1.06,1.07v.56Z"/><path class="cls-31" d="M620.18,118.11v-5.36h3.43v.84h-2.54V115h2.09v.84h-2.09v2.27Z"/><path class="cls-31" d="M624.48,112.75h2.66a1,1,0,0,1,.77.29,1.07,1.07,0,0,1,.29.78v1.27a1,1,0,0,1-.29.77,1,1,0,0,1-.77.29h-1.76v2h-.9Zm.9,2.56H627c.22,0,.34-.12.34-.36v-1c0-.24-.12-.36-.34-.36h-1.59Z"/><path class="cls-31" d="M630,116.76v-1H629V115H630v-1h.76v1h1.07v.76h-1.07v1Z"/><path class="cls-31" d="M635.7,116.6v.31a.34.34,0,0,0,.38.39h1a.34.34,0,0,0,.38-.39v-1.42l-.23.19a1.32,1.32,0,0,1-.83.38h-.64a1.06,1.06,0,0,1-.77-.31,1,1,0,0,1-.3-.76v-1.2a1.06,1.06,0,0,1,1.07-1.07h1.52a1,1,0,0,1,1.07,1.07v3.28a1,1,0,0,1-1.07,1.07h-1.45a1,1,0,0,1-1.07-1.07v-.47Zm1.81-1.7v-1a.34.34,0,0,0-.38-.39H636a.39.39,0,0,0-.27.1.39.39,0,0,0-.1.29v.92a.33.33,0,0,0,.38.38h.49a1.51,1.51,0,0,0,.77-.21Z"/><path class="cls-31" d="M635.94,57.08V52.75l-.89.34v-.74l1.05-.51h.68v5.24Z"/><path class="cls-31" d="M640.43,57.11h-1.5a.93.93,0,0,1-.71-.28,1,1,0,0,1-.28-.76V52.85a1,1,0,0,1,.28-.75.94.94,0,0,1,.71-.29h1.5a1,1,0,0,1,.72.29,1,1,0,0,1,.27.75v3.22a1.05,1.05,0,0,1-.27.76A.94.94,0,0,1,640.43,57.11ZM638.78,53v3c0,.23.11.35.32.35h1.16c.22,0,.32-.12.32-.35V53c0-.23-.1-.34-.32-.34H639.1C638.89,52.64,638.78,52.75,638.78,53Z"/><path class="cls-31" d="M645.1,53.47V53c0-.23-.11-.34-.33-.34h-1.24c-.22,0-.33.11-.33.34v3a.33.33,0,0,0,.09.25.3.3,0,0,0,.24.09h1.24c.22,0,.33-.12.33-.35V55h-1v-.79h1.88v1.84a1,1,0,0,1-.28.76.94.94,0,0,1-.72.28h-1.58a.94.94,0,0,1-.72-.28,1.05,1.05,0,0,1-.27-.76V52.85a1,1,0,0,1,.27-.75,1,1,0,0,1,.72-.29h1.58a1,1,0,0,1,.72.29,1,1,0,0,1,.28.75v.62Z"/><rect class="cls-31" x="608.29" y="59.3" width="9.86" height="8.96"/><path class="cls-52" d="M609.71,59.78h7a0,0,0,0,1,0,0V66.3a.57.57,0,0,1-.57.57h-5.88a.58.58,0,0,1-.58-.58V59.78A0,0,0,0,1,609.71,59.78Z"/><rect class="cls-31" x="635.86" y="59.3" width="9.86" height="8.96"/><path class="cls-53" d="M637.27,59.78h7a0,0,0,0,1,0,0V66.3a.57.57,0,0,1-.57.57h-5.88a.58.58,0,0,1-.58-.58V59.78A0,0,0,0,1,637.27,59.78Z"/><rect class="cls-6" x="661.98" y="75.82" width="41.99" height="29.25"/><path class="cls-26" d="M703.38,104.22H662.57V76.45h40.81Zm-39.81-1h38.81V77.45H663.57Z"/><rect class="cls-6" x="675.18" y="102.2" width="15.59" height="2.25"/><rect class="cls-26" x="676.37" y="101.98" width="13.2" height="1.8"/><path class="cls-31" d="M667.18,55.79H665.4l-.4,1.29h-.86l1.67-5.24h1l1.68,5.24h-.9Zm-.24-.82-.65-2.17L665.64,55Z"/><path class="cls-31" d="M671.49,57.11H670a.94.94,0,0,1-.72-.28,1.05,1.05,0,0,1-.27-.76V52.85a1,1,0,0,1,.27-.75,1,1,0,0,1,.72-.29h1.52a1,1,0,0,1,.73.29,1,1,0,0,1,.27.75v.75h-.84V53c0-.23-.11-.34-.32-.34h-1.2c-.21,0-.32.11-.32.34v3c0,.23.11.35.32.35h1.2c.21,0,.32-.12.32-.35v-.61h.84v.74a1.05,1.05,0,0,1-.27.76A1,1,0,0,1,671.49,57.11Z"/><path class="cls-31" d="M676.58,52.65h-1.37v4.43h-.84V52.65H673v-.81h3.58Z"/><path class="cls-31" d="M673.28,114.35v-.43a.36.36,0,0,0-.1-.27.3.3,0,0,0-.24-.1h-1.16a.3.3,0,0,0-.25.1.36.36,0,0,0-.1.27v.53a.3.3,0,0,0,.09.24.57.57,0,0,0,.26.12l1.39.32c.71.15,1.07.51,1.07,1.07v.88a1,1,0,0,1-.29.77,1.07,1.07,0,0,1-.78.29H671.6a1,1,0,0,1-1.06-1.06v-.64h.87v.5a.37.37,0,0,0,.09.27.34.34,0,0,0,.26.1H673a.33.33,0,0,0,.26-.1.37.37,0,0,0,.09-.27v-.59a.34.34,0,0,0-.07-.25A.66.66,0,0,0,673,116l-1.38-.3c-.71-.17-1.07-.53-1.07-1.07v-.81a1,1,0,0,1,1.06-1.07h1.49a1,1,0,0,1,.77.29,1,1,0,0,1,.29.78v.56Z"/><path class="cls-31" d="M675.34,118.11v-5.36h3.43v.84h-2.53V115h2.09v.84h-2.09v2.27Z"/><path class="cls-31" d="M679.65,112.75h2.66a1,1,0,0,1,1.06,1.07v1.27a1,1,0,0,1-.29.77,1,1,0,0,1-.77.29h-1.77v2h-.89Zm.89,2.56h1.59c.23,0,.34-.12.34-.36v-1c0-.24-.11-.36-.34-.36h-1.59Z"/><path class="cls-31" d="M685.2,116.76v-1h-1.08V115h1.08v-1H686v1H687v.76H686v1Z"/><path class="cls-31" d="M690.7,118.11v-4.43l-1,.35v-.76l1.13-.52h.72v5.36Z"/><path class="cls-31" d="M695.49,118.14h-1.6a1,1,0,0,1-.76-.29,1,1,0,0,1-.29-.77v-3.29a1,1,0,0,1,1-1.07h1.6a1,1,0,0,1,.77.29,1.07,1.07,0,0,1,.29.78v3.29a1,1,0,0,1-1.06,1.06Zm-1.76-4.22v3c0,.24.11.36.34.36h1.24a.32.32,0,0,0,.35-.36v-3a.32.32,0,0,0-.35-.36h-1.24C693.84,113.56,693.73,113.68,693.73,113.92Z"/><path class="cls-31" d="M692.6,57.08V52.75l-.89.34v-.74l1-.51h.68v5.24Z"/><path class="cls-31" d="M697.09,57.11h-1.5a.94.94,0,0,1-.72-.28,1.05,1.05,0,0,1-.27-.76V52.85a1,1,0,0,1,.27-.75,1,1,0,0,1,.72-.29h1.5a1,1,0,0,1,.72.29,1,1,0,0,1,.27.75v3.22a1.05,1.05,0,0,1-.27.76A1,1,0,0,1,697.09,57.11ZM695.44,53v3c0,.23.1.35.32.35h1.16c.21,0,.32-.12.32-.35V53c0-.23-.11-.34-.32-.34h-1.16C695.54,52.64,695.44,52.75,695.44,53Z"/><path class="cls-31" d="M701.76,53.47V53c0-.23-.11-.34-.33-.34h-1.25c-.21,0-.32.11-.32.34v3a.33.33,0,0,0,.09.25.29.29,0,0,0,.23.09h1.25c.22,0,.33-.12.33-.35V55h-1v-.79h1.87v1.84a1.05,1.05,0,0,1-.27.76.94.94,0,0,1-.72.28H700a.93.93,0,0,1-.71-.28,1.05,1.05,0,0,1-.27-.76V52.85a1,1,0,0,1,.27-.75.94.94,0,0,1,.71-.29h1.59a1,1,0,0,1,.72.29,1,1,0,0,1,.27.75v.62Z"/><rect class="cls-31" x="664.95" y="59.3" width="9.86" height="8.96"/><path class="cls-54" d="M666.37,59.78h7a0,0,0,0,1,0,0V66.3a.57.57,0,0,1-.57.57h-5.88a.58.58,0,0,1-.58-.58V59.78A0,0,0,0,1,666.37,59.78Z"/><rect class="cls-31" x="692.51" y="59.3" width="9.86" height="8.96"/><path class="cls-55" d="M693.93,59.78h7a0,0,0,0,1,0,0V66.3a.57.57,0,0,1-.57.57h-5.88a.58.58,0,0,1-.58-.58V59.78A0,0,0,0,1,693.93,59.78Z"/><rect class="cls-6" x="718.63" y="75.82" width="41.99" height="29.25"/><path class="cls-26" d="M760,104.22h-40.8V76.45H760Zm-39.8-1H759V77.45h-38.8Z"/><rect class="cls-6" x="731.84" y="102.2" width="15.59" height="2.25"/><rect class="cls-26" x="733.03" y="101.98" width="13.2" height="1.8"/><path class="cls-31" d="M723.84,55.79h-1.79l-.39,1.29h-.86l1.67-5.24h1l1.68,5.24h-.91Zm-.25-.82L723,52.8,722.3,55Z"/><path class="cls-31" d="M728.15,57.11h-1.53a.93.93,0,0,1-.71-.28,1,1,0,0,1-.28-.76V52.85a1,1,0,0,1,.28-.75.94.94,0,0,1,.71-.29h1.53a1,1,0,0,1,.72.29,1,1,0,0,1,.28.75v.75h-.84V53c0-.23-.11-.34-.33-.34h-1.19c-.21,0-.32.11-.32.34v3c0,.23.11.35.32.35H728c.22,0,.33-.12.33-.35v-.61h.84v.74a1,1,0,0,1-.28.76A.94.94,0,0,1,728.15,57.11Z"/><path class="cls-31" d="M733.24,52.65h-1.38v4.43H731V52.65h-1.38v-.81h3.59Z"/><path class="cls-31" d="M730.84,114.35v-.43a.4.4,0,0,0-.09-.27.32.32,0,0,0-.25-.1h-1.15a.33.33,0,0,0-.26.1.4.4,0,0,0-.09.27v.53a.33.33,0,0,0,.08.24.57.57,0,0,0,.27.12l1.38.32c.71.15,1.07.51,1.07,1.07v.88a1,1,0,0,1-1.06,1.06h-1.58a1,1,0,0,1-.76-.29,1,1,0,0,1-.29-.77v-.64H729v.5a.37.37,0,0,0,.09.27.32.32,0,0,0,.25.1h1.24a.34.34,0,0,0,.26-.1.37.37,0,0,0,.09-.27v-.59a.34.34,0,0,0-.08-.25.56.56,0,0,0-.27-.13l-1.38-.3c-.72-.17-1.07-.53-1.07-1.07v-.81a1,1,0,0,1,.29-.78,1,1,0,0,1,.77-.29h1.49a1,1,0,0,1,1.06,1.07v.56Z"/><path class="cls-31" d="M732.91,118.11v-5.36h3.43v.84H733.8V115h2.09v.84H733.8v2.27Z"/><path class="cls-31" d="M737.21,112.75h2.66a1,1,0,0,1,.77.29,1.07,1.07,0,0,1,.29.78v1.27a1,1,0,0,1-.29.77,1,1,0,0,1-.77.29h-1.76v2h-.9Zm.9,2.56h1.59c.22,0,.34-.12.34-.36v-1c0-.24-.12-.36-.34-.36h-1.59Z"/><path class="cls-31" d="M742.76,116.76v-1h-1.07V115h1.07v-1h.76v1h1.07v.76h-1.07v1Z"/><path class="cls-31" d="M748.27,118.11v-4.43l-.95.35v-.76l1.12-.52h.72v5.36Z"/><path class="cls-31" d="M751.18,118.11v-4.43l-1,.35v-.76l1.13-.52h.72v5.36Z"/><path class="cls-31" d="M749.26,57.08V52.75l-.89.34v-.74l1-.51h.67v5.24Z"/><path class="cls-31" d="M753.75,57.11h-1.5a.94.94,0,0,1-.72-.28,1.05,1.05,0,0,1-.27-.76V52.85a1,1,0,0,1,.27-.75,1,1,0,0,1,.72-.29h1.5a.94.94,0,0,1,.71.29,1,1,0,0,1,.27.75v3.22a1.05,1.05,0,0,1-.27.76A.93.93,0,0,1,753.75,57.11ZM752.09,53v3c0,.23.11.35.32.35h1.17c.21,0,.32-.12.32-.35V53c0-.23-.11-.34-.32-.34h-1.17C752.2,52.64,752.09,52.75,752.09,53Z"/><path class="cls-31" d="M758.41,53.47V53c0-.23-.11-.34-.32-.34h-1.25c-.21,0-.32.11-.32.34v3a.37.37,0,0,0,.08.25.32.32,0,0,0,.24.09h1.25c.21,0,.32-.12.32-.35V55h-1v-.79h1.87v1.84a1.05,1.05,0,0,1-.27.76,1,1,0,0,1-.73.28h-1.58a1,1,0,0,1-.72-.28,1.05,1.05,0,0,1-.27-.76V52.85a1,1,0,0,1,.27-.75,1,1,0,0,1,.72-.29h1.58a1,1,0,0,1,.73.29,1,1,0,0,1,.27.75v.62Z"/><rect class="cls-31" x="721.61" y="59.3" width="9.86" height="8.96"/><path class="cls-56" d="M723,59.78h7a0,0,0,0,1,0,0V66.3a.57.57,0,0,1-.57.57H723.6a.58.58,0,0,1-.58-.58V59.78A0,0,0,0,1,723,59.78Z"/><rect class="cls-31" x="749.17" y="59.3" width="9.86" height="8.96"/><path class="cls-57" d="M750.59,59.78h7a0,0,0,0,1,0,0V66.3a.57.57,0,0,1-.57.57h-5.88a.58.58,0,0,1-.58-.58V59.78A0,0,0,0,1,750.59,59.78Z"/><rect class="cls-6" x="775.29" y="75.82" width="41.99" height="29.25"/><path class="cls-26" d="M816.69,104.22h-40.8V76.45h40.8Zm-39.8-1h38.8V77.45h-38.8Z"/><rect class="cls-6" x="788.49" y="102.2" width="15.59" height="2.25"/><rect class="cls-26" x="789.69" y="101.98" width="13.2" height="1.8"/><path class="cls-31" d="M780.49,55.79h-1.78l-.39,1.29h-.87l1.68-5.24h1l1.68,5.24h-.91Zm-.24-.82-.64-2.17L779,55Z"/><path class="cls-31" d="M784.81,57.11h-1.53a.94.94,0,0,1-.72-.28,1.05,1.05,0,0,1-.27-.76V52.85a1,1,0,0,1,.27-.75,1,1,0,0,1,.72-.29h1.53a1,1,0,0,1,.72.29,1,1,0,0,1,.27.75v.75H785V53c0-.23-.11-.34-.33-.34h-1.19c-.22,0-.32.11-.32.34v3c0,.23.1.35.32.35h1.19c.22,0,.33-.12.33-.35v-.61h.83v.74a1.05,1.05,0,0,1-.27.76A.94.94,0,0,1,784.81,57.11Z"/><path class="cls-31" d="M789.89,52.65h-1.37v4.43h-.84V52.65h-1.37v-.81h3.58Z"/><path class="cls-31" d="M786.71,114.35v-.43a.4.4,0,0,0-.09-.27.32.32,0,0,0-.25-.1h-1.15a.33.33,0,0,0-.26.1.4.4,0,0,0-.09.27v.53a.29.29,0,0,0,.08.24.57.57,0,0,0,.27.12l1.38.32c.71.15,1.07.51,1.07,1.07v.88a1,1,0,0,1-1.06,1.06H785a1.06,1.06,0,0,1-.77-.29,1,1,0,0,1-.29-.77v-.64h.87v.5a.37.37,0,0,0,.1.27.3.3,0,0,0,.25.1h1.24a.3.3,0,0,0,.25-.1.33.33,0,0,0,.1-.27v-.59a.34.34,0,0,0-.08-.25.56.56,0,0,0-.27-.13l-1.39-.3c-.71-.17-1.07-.53-1.07-1.07v-.81a1,1,0,0,1,1.07-1.07h1.48a1,1,0,0,1,1.07,1.07v.56Z"/><path class="cls-31" d="M788.78,118.11v-5.36h3.42v.84h-2.53V115h2.09v.84h-2.09v2.27Z"/><path class="cls-31" d="M793.08,112.75h2.66a1,1,0,0,1,.77.29,1.07,1.07,0,0,1,.29.78v1.27a1,1,0,0,1-.29.77,1,1,0,0,1-.77.29H794v2h-.89Zm.89,2.56h1.6c.22,0,.34-.12.34-.36v-1c0-.24-.12-.36-.34-.36H794Z"/><path class="cls-31" d="M798.63,116.76v-1h-1.07V115h1.07v-1h.76v1h1.07v.76h-1.07v1Z"/><path class="cls-31" d="M804.14,118.11v-4.43l-.95.35v-.76l1.12-.52H805v5.36Z"/><path class="cls-31" d="M807.16,114v.39h-.87v-.55a1,1,0,0,1,.3-.76,1,1,0,0,1,.77-.31h1.42a1.06,1.06,0,0,1,1.07,1.07v.89a.81.81,0,0,1-.24.62,2.66,2.66,0,0,1-.83.45l-1.29.51a1.36,1.36,0,0,0-.27.13.26.26,0,0,0-.11.23v.65h2.75v.84h-3.64v-1.64a.82.82,0,0,1,.32-.69,3.58,3.58,0,0,1,.75-.39l1.29-.5a1,1,0,0,0,.29-.15.33.33,0,0,0,.08-.22V114a.44.44,0,0,0-.09-.29.38.38,0,0,0-.28-.11h-1.05a.39.39,0,0,0-.27.1A.39.39,0,0,0,807.16,114Z"/><path class="cls-31" d="M805.91,57.08V52.75l-.89.34v-.74l1.05-.51h.68v5.24Z"/><path class="cls-31" d="M810.4,57.11h-1.5a.93.93,0,0,1-.71-.28,1,1,0,0,1-.28-.76V52.85a1,1,0,0,1,.28-.75.94.94,0,0,1,.71-.29h1.5a1,1,0,0,1,.72.29,1,1,0,0,1,.27.75v3.22a1.05,1.05,0,0,1-.27.76A.94.94,0,0,1,810.4,57.11ZM808.75,53v3c0,.23.11.35.32.35h1.16c.22,0,.33-.12.33-.35V53c0-.23-.11-.34-.33-.34h-1.16C808.86,52.64,808.75,52.75,808.75,53Z"/><path class="cls-31" d="M815.07,53.47V53c0-.23-.11-.34-.33-.34H813.5c-.22,0-.32.11-.32.34v3a.33.33,0,0,0,.08.25.31.31,0,0,0,.24.09h1.24c.22,0,.33-.12.33-.35V55h-1v-.79h1.88v1.84a1.05,1.05,0,0,1-.27.76,1,1,0,0,1-.73.28h-1.58a.94.94,0,0,1-.72-.28,1.05,1.05,0,0,1-.27-.76V52.85a1,1,0,0,1,.27-.75,1,1,0,0,1,.72-.29h1.58a1,1,0,0,1,.73.29,1,1,0,0,1,.27.75v.62Z"/><rect class="cls-31" x="778.26" y="59.3" width="9.86" height="8.96"/><path class="cls-58" d="M779.68,59.78h7a0,0,0,0,1,0,0V66.3a.57.57,0,0,1-.57.57h-5.88a.58.58,0,0,1-.58-.58V59.78A0,0,0,0,1,779.68,59.78Z"/><rect class="cls-31" x="805.83" y="59.3" width="9.86" height="8.96"/><path class="cls-59" d="M807.25,59.78h7a0,0,0,0,1,0,0V66.3a.57.57,0,0,1-.57.57h-5.88a.58.58,0,0,1-.58-.58V59.78A0,0,0,0,1,807.25,59.78Z"/><circle cx="907.62" cy="93.23" r="5.66"/><path class="cls-26" d="M97.61,23.08h52.45A104.43,104.43,0,0,1,180.82,28c7.27,2.29,20.61,10,27.7,12.77,8.08,3.2,19,3.61,27.7,3.58l519.83-1.41c6.47,0,20.1.67,26.14-1.63,11.66-4.43,34.88-17.92,47.48-18.18,15.93-.33,62.73,0,62.73,0a4.28,4.28,0,0,0,4.28-4.27V15.5a4.28,4.28,0,0,0-4.28-4.27H97.61a4.27,4.27,0,0,0-4.27,4.27v3.31A4.27,4.27,0,0,0,97.61,23.08Z"/><path class="cls-60" d="M892.4,12.23a3.28,3.28,0,0,1,3.28,3.27v3.31a3.28,3.28,0,0,1-3.27,3.27c-.21,0-21-.14-39.39-.14-10.8,0-18.66,0-23.37.14-9,.19-23.23,6.93-34.67,12.35-5,2.35-9.63,4.56-13.14,5.9C778,41.8,770.64,42,765.46,42c-1.91,0-3.77,0-5.42,0-1.39,0-2.65,0-3.73,0h-.26L236.22,43.3h-.67c-7.63,0-18.69-.36-26.66-3.51-3-1.18-7.07-3.23-11.41-5.4-5.95-3-12.11-6.05-16.36-7.39a106.53,106.53,0,0,0-31.06-4.92H97.61a3.28,3.28,0,0,1-3.27-3.27V15.5a3.28,3.28,0,0,1,3.27-3.27H892.4m0-1H97.61a4.27,4.27,0,0,0-4.27,4.27v3.31a4.27,4.27,0,0,0,4.27,4.27h52.45A104.43,104.43,0,0,1,180.82,28c7.27,2.29,20.61,10,27.7,12.77,7.88,3.11,18.45,3.58,27,3.58h.67l519.83-1.41h.26c2.38,0,5.66.09,9.15.09,6.13,0,12.93-.26,16.73-1.71,11.66-4.43,34.88-17.92,47.48-18.18,5.31-.11,14.05-.14,23.35-.14,18.58,0,39.38.14,39.38.14a4.28,4.28,0,0,0,4.28-4.27V15.5a4.28,4.28,0,0,0-4.28-4.27Z"/><path class="cls-31" d="M105.24,12H98.55l-1.9,5.69a1.29,1.29,0,0,0,1.22,1.7h4a1.27,1.27,0,0,0,1.21-.88Z"/><path class="cls-31" d="M118.69,12H112l-1.91,5.69a1.29,1.29,0,0,0,1.22,1.7h4a1.29,1.29,0,0,0,1.22-.88Z"/><path class="cls-31" d="M131.85,12h-6.69l-1.9,5.69a1.29,1.29,0,0,0,1.22,1.7h4a1.27,1.27,0,0,0,1.21-.88Z"/><path class="cls-31" d="M145.13,12h-6.69l-1.9,5.69a1.29,1.29,0,0,0,1.22,1.7h4a1.27,1.27,0,0,0,1.22-.88Z"/><path class="cls-31" d="M158.41,12h-6.69l-1.9,5.69a1.29,1.29,0,0,0,1.22,1.7h4a1.27,1.27,0,0,0,1.22-.88Z"/><path class="cls-31" d="M171.75,12h-6.7l-1.9,5.69a1.29,1.29,0,0,0,1.22,1.7l3.78.62a1.29,1.29,0,0,0,1.22-.87Z"/><path class="cls-31" d="M185,12h-6.69l-2.7,8.51c-.28.84,0,2.28.91,2.28l3.78.63a1.29,1.29,0,0,0,1.22-.88Z"/><path class="cls-31" d="M198.45,12h-6.69L187,25.86c-.28.83,0,2.28.91,2.28l3.78.62a1.29,1.29,0,0,0,1.22-.87Z"/><path class="cls-31" d="M212,12h-6.69l-6.56,18.37c-.28.84,0,2.28.91,2.28l3.71,1.06a1.27,1.27,0,0,0,1.21-.87Z"/><path class="cls-31" d="M225.36,12h-6.69l-8.34,22.42c-.28.83,0,2.28.91,2.28l4.42.36a1.3,1.3,0,0,0,1.22-.88Z"/><path class="cls-31" d="M238.45,12h-6.69l-8.94,24.44c-.28.83.18,2.12,1.06,2.12h4.67c.55,0,.73-.35.91-.87Z"/><path class="cls-31" d="M252.05,12h-6.7l-8.93,24.44c-.29.83.18,2.12,1.06,2.12h4.67c.55,0,.73-.35.91-.87Z"/><path class="cls-31" d="M265.48,12h-6.69l-8.94,24.44c-.28.83.18,2.12,1.06,2.12h4.67c.55,0,.73-.35.91-.87Z"/><path class="cls-31" d="M278.81,12h-6.69l-8.94,24.44c-.28.83.18,2.12,1.06,2.12h4.67c.55,0,.74-.35.91-.87Z"/><path class="cls-31" d="M292,12h-6.69L276.4,36.46c-.28.83.19,2.12,1.07,2.12h4.66c.55,0,.74-.35.91-.87Z"/><path class="cls-31" d="M305.19,12H298.5l-8.94,24.44c-.28.83.18,2.12,1.06,2.12h4.67c.55,0,.73-.35.91-.87Z"/><path class="cls-31" d="M318.2,12h-6.7l-8.93,24.44c-.29.83.18,2.12,1.06,2.12h4.67c.55,0,.73-.35.91-.87Z"/><path class="cls-31" d="M332.05,12h-6.69l-8.94,24.44c-.28.83.19,2.12,1.07,2.12h4.66c.56,0,.74-.35.92-.87Z"/><path class="cls-31" d="M345.39,12H338.7l-8.94,24.44c-.28.83.18,2.12,1.06,2.12h4.67c.55,0,.74-.35.91-.87Z"/><path class="cls-31" d="M358.73,12H352L343.1,36.46c-.28.83.18,2.12,1.06,2.12h4.67c.55,0,.73-.35.91-.87Z"/><path class="cls-31" d="M372.06,12h-6.69l-8.94,24.44c-.28.83.19,2.12,1.07,2.12h4.66c.55,0,.74-.35.91-.87Z"/><path class="cls-31" d="M385.4,12h-6.69l-8.94,24.44c-.28.83.18,2.12,1.06,2.12h4.67c.55,0,.73-.35.91-.87Z"/><path class="cls-31" d="M398.73,12H392l-8.93,24.44c-.29.83.18,2.12,1.06,2.12h4.67c.55,0,.73-.35.91-.87Z"/><path class="cls-31" d="M411.48,12h-6.7l-8.93,24.44c-.29.83.18,2.12,1.06,2.12h4.67c.55,0,.73-.35.91-.87Z"/><path class="cls-31" d="M425.53,12h-6.69L409.9,36.46c-.28.83.19,2.12,1.06,2.12h4.67c.55,0,.74-.35.91-.87Z"/><path class="cls-31" d="M438.61,12h-6.69L423,36.46c-.28.83.18,2.12,1.06,2.12h4.67c.55,0,.73-.35.91-.87Z"/><path class="cls-31" d="M451.69,12H445l-8.94,24.44c-.28.83.18,2.12,1.06,2.12h4.67c.55,0,.73-.35.91-.87Z"/><path class="cls-31" d="M464.76,12h-6.69l-8.94,24.44c-.28.83.19,2.12,1.07,2.12h4.66c.56,0,.74-.35.92-.87Z"/><path class="cls-31" d="M477.84,12h-6.69l-8.94,24.44c-.28.83.19,2.12,1.07,2.12h4.66c.55,0,.74-.35.91-.87Z"/><path class="cls-31" d="M491.72,12H485l-8.94,24.44c-.28.83.18,2.12,1.06,2.12h4.67c.55,0,.73-.35.91-.87Z"/><path class="cls-31" d="M504.83,12h-6.69L489.2,36.46c-.28.83.19,2.12,1.07,2.12h4.66c.56,0,.74-.35.92-.87Z"/><path class="cls-31" d="M518,12h-6.69l-8.94,24.44c-.28.83.19,2.12,1.07,2.12h4.66c.55,0,.74-.35.91-.87Z"/><path class="cls-31" d="M531.82,12h-6.69l-8.94,24.44c-.28.83.18,2.12,1.06,2.12h4.67c.55,0,.73-.35.91-.87Z"/><path class="cls-31" d="M544.69,12H538l-8.94,24.44c-.28.83.18,2.12,1.06,2.12h4.67c.55,0,.73-.35.91-.87Z"/><path class="cls-31" d="M558.11,12h-6.69l-8.94,24.44c-.28.83.19,2.12,1.07,2.12h4.66c.56,0,.74-.35.92-.87Z"/><path class="cls-31" d="M572.12,12h-6.69l-8.94,24.44c-.28.83.18,2.12,1.06,2.12h4.67c.55,0,.73-.35.91-.87Z"/><path class="cls-31" d="M585.1,12h-6.69l-8.94,24.44c-.28.83.19,2.12,1.07,2.12h4.66c.56,0,.74-.35.92-.87Z"/><path class="cls-31" d="M598.09,12H591.4l-8.94,24.44c-.28.83.19,2.12,1.07,2.12h4.66c.55,0,.74-.35.91-.87Z"/><path class="cls-31" d="M611.08,12h-6.69l-8.94,24.44c-.28.83.18,2.12,1.06,2.12h4.67c.55,0,.73-.35.91-.87Z"/><path class="cls-31" d="M624.59,12H617.9L609,36.46c-.28.83.19,2.12,1.07,2.12h4.66c.56,0,.74-.35.92-.87Z"/><path class="cls-31" d="M639.12,12h-6.69l-8.94,24.44c-.28.83.18,2.12,1.06,2.12h4.67c.55,0,.73-.35.91-.87Z"/><path class="cls-31" d="M652.49,12H645.8l-8.94,24.44c-.28.83.19,2.12,1.07,2.12h4.66c.56,0,.74-.35.92-.87Z"/><path class="cls-31" d="M665.49,12H658.8l-8.94,24.44c-.28.83.19,2.12,1.06,2.12h4.67c.55,0,.74-.35.91-.87Z"/><path class="cls-31" d="M679.05,12h-6.69l-8.94,24.44c-.28.83.18,2.12,1.06,2.12h4.67c.55,0,.74-.35.91-.87Z"/><path class="cls-31" d="M692.61,12h-6.69L677,36.46c-.28.83.18,2.12,1.06,2.12h4.67c.55,0,.73-.35.91-.87Z"/><path class="cls-31" d="M706.17,12h-6.7l-8.93,24.44c-.29.83.18,2.12,1.06,2.12h4.67c.55,0,.73-.35.91-.87Z"/><path class="cls-31" d="M719.72,12H713l-8.94,24.44c-.28.83.19,2.12,1.07,2.12h4.66c.56,0,.74-.35.92-.87Z"/><path class="cls-31" d="M733.28,12h-6.69l-8.94,24.44c-.28.83.19,2.12,1.07,2.12h4.66c.55,0,.74-.35.91-.87Z"/><path class="cls-31" d="M745.76,12h-6.69l-8.94,24.44c-.28.83.19,2.12,1.07,2.12h4.66c.56,0,.74-.35.92-.87Z"/><path class="cls-31" d="M758.86,12h-6.69l-8.94,24.44c-.28.83.18,2.12,1.06,2.12H749c.55,0,.74-.35.91-.87Z"/><path class="cls-31" d="M773.05,12h-6.69l-8.94,24.44c-.28.83.18,2.12,1.06,2.12h4.67c.55,0,.73-.35.91-.87Z"/><path class="cls-31" d="M786.12,12h-6.69l-8.94,24.44c-.28.83-.17,1.43.7,1.43l5.21-.19c.55,0,1.12-1.44,1.29-2Z"/><path class="cls-31" d="M809.86,12h-3a1.73,1.73,0,0,0-1.65,1.18l-4.74,12.45c-.38,1.13.69,2,1.89,2L806,25.35s2.28-2,2.52-2.67l3-8.36A1.74,1.74,0,0,0,809.86,12Z"/><path class="cls-31" d="M796.32,12h-3a1.73,1.73,0,0,0-1.65,1.18L785,32.43c-.38,1.13.69,2,1.89,2a31.14,31.14,0,0,0,4-2.06A9.34,9.34,0,0,0,793,29.46L798,14.32A1.74,1.74,0,0,0,796.32,12Z"/><path class="cls-31" d="M893,12h-6.69l-2.72,5.31a1.08,1.08,0,0,0,1,1.57h4.26a1.09,1.09,0,0,0,1-.58Z"/><path class="cls-31" d="M879.44,12h-6.69L870,17.33a1.08,1.08,0,0,0,1,1.57h4.26a1.07,1.07,0,0,0,1-.58Z"/><path class="cls-31" d="M866.22,12h-6.69l-2.72,5.31a1.08,1.08,0,0,0,1,1.57H862a1.08,1.08,0,0,0,1-.58Z"/><path class="cls-31" d="M853.11,12h-6.69l-2.72,5.52a1.12,1.12,0,0,0,1,1.63h4.27a1.08,1.08,0,0,0,1-.61Z"/><path class="cls-31" d="M839.33,12h-6.69l-2.72,5.8a1.18,1.18,0,0,0,1,1.71h4.26a1.06,1.06,0,0,0,1-.64Z"/><path class="cls-31" d="M825.66,12H819l-2.71,6.91c-.37.94.15,2.05,1,2.05h4.26a1.08,1.08,0,0,0,1-.77Z"/><path class="cls-31" d="M101.84,117v.31h-.69v-.43a.82.82,0,0,1,.85-.84h1.13a.84.84,0,0,1,.61.24.81.81,0,0,1,.24.6v.7a.62.62,0,0,1-.19.48,2.27,2.27,0,0,1-.66.35l-1,.4a1.56,1.56,0,0,0-.22.1.21.21,0,0,0-.09.19v.5H104v.66h-2.9V119a.61.61,0,0,1,.26-.53,2.31,2.31,0,0,1,.6-.31l1-.39a.88.88,0,0,0,.23-.12.25.25,0,0,0,.07-.17v-.44a.27.27,0,0,0-.08-.22.27.27,0,0,0-.22-.09h-.83a.28.28,0,0,0-.3.3Z"/><path class="cls-31" d="M107.5,116.76h-2.06V118l.19-.16a1.07,1.07,0,0,1,.66-.29h.46a.82.82,0,0,1,.84.84v1.08a.8.8,0,0,1-.24.6.84.84,0,0,1-.61.24h-1.2a.84.84,0,0,1-.62-.24.78.78,0,0,1-.23-.6v-.41h.71v.29c0,.2.09.3.29.3h.89a.27.27,0,0,0,.3-.3v-.87a.28.28,0,0,0-.3-.3h-.34a1.29,1.29,0,0,0-.61.16l-.19.12-.71-.21v-2.15h2.77Z"/><path class="cls-31" d="M110.69,117.41V117a.25.25,0,0,0-.28-.28h-1.06c-.18,0-.27.09-.27.28v2.37a.26.26,0,0,0,.07.2.24.24,0,0,0,.2.07h1.06a.25.25,0,0,0,.28-.27v-.74h-.89V118h1.6v1.47a.78.78,0,0,1-.85.83h-1.34a.78.78,0,0,1-.84-.83v-2.57a.78.78,0,0,1,.23-.61.82.82,0,0,1,.61-.23h1.34a.86.86,0,0,1,.62.23.82.82,0,0,1,.23.61v.49Z"/><path class="cls-31" d="M115.91,117.36V117a.29.29,0,0,0-.08-.21.26.26,0,0,0-.2-.08h-.91a.29.29,0,0,0-.21.08.28.28,0,0,0-.07.21v.41a.28.28,0,0,0,.06.2.5.5,0,0,0,.22.09l1.1.24c.56.12.85.4.85.84v.69a.78.78,0,0,1-.85.83h-1.25a.83.83,0,0,1-.61-.22.81.81,0,0,1-.23-.61V119h.69v.4a.3.3,0,0,0,.07.21.29.29,0,0,0,.21.08h1a.25.25,0,0,0,.2-.08.3.3,0,0,0,.08-.21v-.47a.3.3,0,0,0-.06-.2.45.45,0,0,0-.22-.09l-1.1-.24c-.57-.13-.85-.41-.85-.84v-.63a.82.82,0,0,1,.23-.61.85.85,0,0,1,.61-.23h1.19a.85.85,0,0,1,.61.23.78.78,0,0,1,.23.61v.44Z"/><path class="cls-31" d="M117.55,120.3v-4.19h2.73v.65h-2v1.11h1.66v.65h-1.66v1.78Z"/><path class="cls-31" d="M121,116.11h2.12a.81.81,0,0,1,.6.22.82.82,0,0,1,.24.61v1a.78.78,0,0,1-.24.6.81.81,0,0,1-.6.23h-1.41v1.53H121Zm.71,2H123a.25.25,0,0,0,.28-.28V117a.25.25,0,0,0-.28-.28h-1.26Z"/><path class="cls-31" d="M125.3,117v.31h-.7v-.43a.84.84,0,0,1,.86-.84h1.13a.85.85,0,0,1,.61.24.81.81,0,0,1,.24.6v.7a.62.62,0,0,1-.19.48,2.41,2.41,0,0,1-.66.35l-1,.4-.22.1a.23.23,0,0,0-.08.19v.5h2.19v.66h-2.9V119a.61.61,0,0,1,.26-.53,2.38,2.38,0,0,1,.59-.31l1-.39a.88.88,0,0,0,.23-.12s0-.08.07-.17v-.44a.31.31,0,0,0-.08-.22.27.27,0,0,0-.22-.09h-.83a.29.29,0,0,0-.22.08A.27.27,0,0,0,125.3,117Z"/><path class="cls-31" d="M131,116.92v.61a.7.7,0,0,1-.38.63.64.64,0,0,1,.42.63v.69a.8.8,0,0,1-.24.6.82.82,0,0,1-.61.24H129a.84.84,0,0,1-.62-.24.78.78,0,0,1-.23-.6v-.69a.64.64,0,0,1,.42-.63.7.7,0,0,1-.38-.63v-.61a.81.81,0,0,1,.24-.6.84.84,0,0,1,.62-.24h1.15a.82.82,0,0,1,.61.24A.79.79,0,0,1,131,116.92Zm-1,1.55h-.82c-.24,0-.35.1-.35.3v.6a.33.33,0,0,0,.07.23.31.31,0,0,0,.22.08h.94a.28.28,0,0,0,.3-.31v-.6Q130.37,118.47,130,118.47Zm0-1.74h-.85a.29.29,0,0,0-.22.08.33.33,0,0,0-.08.22v.52a.33.33,0,0,0,.07.23.38.38,0,0,0,.24.06H130a.4.4,0,0,0,.25-.06.33.33,0,0,0,.07-.23V117a.28.28,0,0,0-.3-.3Z"/><path class="cls-31" d="M99.3,114.08v-4.63l-1,.36V109l1.17-.55h.76v5.61Z"/><path class="cls-31" d="M126.9,109.73v.41H126v-.58a1.11,1.11,0,0,1,.32-.8,1.09,1.09,0,0,1,.8-.32h1.49a1.09,1.09,0,0,1,.8.32,1.11,1.11,0,0,1,.32.8v.93a.84.84,0,0,1-.25.65,2.9,2.9,0,0,1-.87.47l-1.35.53a2,2,0,0,0-.29.14.27.27,0,0,0-.1.24v.68h2.88v.88h-3.82v-1.72a.84.84,0,0,1,.34-.72,3.41,3.41,0,0,1,.78-.4l1.36-.53a1,1,0,0,0,.29-.15.45.45,0,0,0,.1-.23v-.59a.45.45,0,0,0-.1-.3.37.37,0,0,0-.29-.12h-1.1a.4.4,0,0,0-.29.11A.41.41,0,0,0,126.9,109.73Z"/><polygon class="cls-31" points="133.28 109.57 131.44 112.75 135.12 112.75 133.28 109.57"/><polygon class="cls-31" points="104.12 112.75 105.95 109.57 102.28 109.57 104.12 112.75"/><path d="M99.2,119.29H96.45a1.87,1.87,0,0,1-1.86-1.86v-5.37h.5v5.37a1.36,1.36,0,0,0,1.36,1.36H99.2Z"/><path d="M132.87,119.29h4.58a1.66,1.66,0,0,0,1.59-1.86v-5.37h-.49v5.37c0,.75-.36,1.36-1.1,1.36h-4.58Z"/></svg>