<svg id="Camada_1" data-name="Camada 1" xmlns="http://www.w3.org/2000/svg" xmlns:xlink="http://www.w3.org/1999/xlink" viewBox="0 0 1368 125.19"><defs><style>.cls-1{fill:#d4d4d4;}.cls-2{fill:#a8a7ad;}.cls-3{fill:#f1f1f2;}.cls-4{fill:gray;}.cls-5{fill:url(#Gradiente_sem_nome_65);}.cls-6{fill:#211915;}.cls-7{fill:#1a1a1a;}.cls-8{fill:url(#Gradiente_sem_nome_66);}.cls-9{fill:url(#Gradiente_sem_nome_66-2);}.cls-10{fill:url(#Gradiente_sem_nome_66-3);}.cls-11{fill:url(#Gradiente_sem_nome_66-4);}.cls-12{fill:url(#Gradiente_sem_nome_66-5);}.cls-13{fill:url(#Gradiente_sem_nome_66-6);}.cls-14{fill:url(#Gradiente_sem_nome_66-7);}.cls-15{fill:url(#Gradiente_sem_nome_66-8);}.cls-16{fill:url(#Gradiente_sem_nome_66-9);}.cls-17{fill:url(#Gradiente_sem_nome_66-10);}.cls-18{fill:url(#Gradiente_sem_nome_66-11);}.cls-19{fill:url(#Gradiente_sem_nome_66-12);}.cls-20{fill:url(#Gradiente_sem_nome_66-13);}.cls-21{fill:url(#Gradiente_sem_nome_66-14);}.cls-22{fill:url(#Gradiente_sem_nome_66-15);}.cls-23{fill:url(#Gradiente_sem_nome_66-16);}.cls-24,.cls-25{stroke:#333;}.cls-24,.cls-25,.cls-27,.cls-34,.cls-35,.cls-36,.cls-37,.cls-38,.cls-39,.cls-40,.cls-41,.cls-42,.cls-43,.cls-44,.cls-45,.cls-46,.cls-47,.cls-48,.cls-49,.cls-51,.cls-52,.cls-53,.cls-54,.cls-55,.cls-56,.cls-57,.cls-58,.cls-59,.cls-60,.cls-61,.cls-62,.cls-63,.cls-64,.cls-65,.cls-66,.cls-68,.cls-69,.cls-70,.cls-71,.cls-72,.cls-73,.cls-74,.cls-75,.cls-76,.cls-77,.cls-78,.cls-79,.cls-80,.cls-81,.cls-82,.cls-83,.cls-84,.cls-85{stroke-miterlimit:10;stroke-width:0.5px;}.cls-24{fill:url(#Gradiente_sem_nome_13);}.cls-25{fill:url(#Gradiente_sem_nome_111);}.cls-26{fill:url(#Gradiente_sem_nome_185);}.cls-27{stroke:#1a1a1a;fill:url(#Gradiente_sem_nome_30);}.cls-28{fill:url(#Gradiente_sem_nome_185-2);}.cls-29{fill:url(#Gradiente_sem_nome_46);}.cls-30{fill:url(#Gradiente_sem_nome_117);}.cls-31{fill:url(#Gradiente_sem_nome_34);}.cls-32{fill:url(#Gradiente_sem_nome_3);}.cls-33{fill:#c9c9c9;}.cls-34,.cls-35,.cls-36,.cls-37,.cls-38,.cls-39,.cls-40,.cls-41,.cls-42,.cls-43,.cls-44,.cls-45,.cls-46,.cls-47,.cls-48,.cls-49,.cls-51,.cls-52,.cls-53,.cls-54,.cls-55,.cls-56,.cls-57,.cls-58,.cls-59,.cls-60,.cls-61,.cls-62,.cls-63,.cls-64,.cls-65,.cls-66,.cls-68,.cls-69,.cls-70,.cls-71,.cls-72,.cls-73,.cls-74,.cls-75,.cls-76,.cls-77,.cls-78,.cls-79,.cls-80,.cls-81,.cls-82,.cls-83,.cls-84,.cls-85{fill:lime;}.cls-34{stroke:url(#Gradiente_sem_nome_129);}.cls-35{stroke:url(#Gradiente_sem_nome_129-2);}.cls-36{stroke:url(#Gradiente_sem_nome_129-3);}.cls-37{stroke:url(#Gradiente_sem_nome_129-4);}.cls-38{stroke:url(#Gradiente_sem_nome_129-5);}.cls-39{stroke:url(#Gradiente_sem_nome_129-6);}.cls-40{stroke:url(#Gradiente_sem_nome_129-7);}.cls-41{stroke:url(#Gradiente_sem_nome_129-8);}.cls-42{stroke:url(#Gradiente_sem_nome_129-9);}.cls-43{stroke:url(#Gradiente_sem_nome_129-10);}.cls-44{stroke:url(#Gradiente_sem_nome_129-11);}.cls-45{stroke:url(#Gradiente_sem_nome_129-12);}.cls-46{stroke:url(#Gradiente_sem_nome_129-13);}.cls-47{stroke:url(#Gradiente_sem_nome_129-14);}.cls-48{stroke:url(#Gradiente_sem_nome_129-15);}.cls-49{stroke:url(#Gradiente_sem_nome_129-16);}.cls-50{fill:url(#Gradiente_sem_nome_3-2);}.cls-51{stroke:url(#Gradiente_sem_nome_129-17);}.cls-52{stroke:url(#Gradiente_sem_nome_129-18);}.cls-53{stroke:url(#Gradiente_sem_nome_129-19);}.cls-54{stroke:url(#Gradiente_sem_nome_129-20);}.cls-55{stroke:url(#Gradiente_sem_nome_129-21);}.cls-56{stroke:url(#Gradiente_sem_nome_129-22);}.cls-57{stroke:url(#Gradiente_sem_nome_129-23);}.cls-58{stroke:url(#Gradiente_sem_nome_129-24);}.cls-59{stroke:url(#Gradiente_sem_nome_129-25);}.cls-60{stroke:url(#Gradiente_sem_nome_129-26);}.cls-61{stroke:url(#Gradiente_sem_nome_129-27);}.cls-62{stroke:url(#Gradiente_sem_nome_129-28);}.cls-63{stroke:url(#Gradiente_sem_nome_129-29);}.cls-64{stroke:url(#Gradiente_sem_nome_129-30);}.cls-65{stroke:url(#Gradiente_sem_nome_129-31);}.cls-66{stroke:url(#Gradiente_sem_nome_129-32);}.cls-67{fill:url(#Gradiente_sem_nome_3-3);}.cls-68{stroke:url(#Gradiente_sem_nome_129-33);}.cls-69{stroke:url(#Gradiente_sem_nome_129-34);}.cls-70{stroke:url(#Gradiente_sem_nome_129-35);}.cls-71{stroke:url(#Gradiente_sem_nome_129-36);}.cls-72{stroke:url(#Gradiente_sem_nome_129-37);}.cls-73{stroke:url(#Gradiente_sem_nome_129-38);}.cls-74{stroke:url(#Gradiente_sem_nome_129-39);}.cls-75{stroke:url(#Gradiente_sem_nome_129-40);}.cls-76{stroke:url(#Gradiente_sem_nome_129-41);}.cls-77{stroke:url(#Gradiente_sem_nome_129-42);}.cls-78{stroke:url(#Gradiente_sem_nome_129-43);}.cls-79{stroke:url(#Gradiente_sem_nome_129-44);}.cls-80{stroke:url(#Gradiente_sem_nome_129-45);}.cls-81{stroke:url(#Gradiente_sem_nome_129-46);}.cls-82{stroke:url(#Gradiente_sem_nome_129-47);}.cls-83{stroke:url(#Gradiente_sem_nome_129-48);}.cls-84{stroke:url(#Gradiente_sem_nome_129-49);}.cls-85{stroke:url(#Gradiente_sem_nome_129-50);}.cls-86{fill:#4d4d4d;}.cls-87{fill:#e3e3e3;}.cls-88{fill:#fff195;}</style><linearGradient id="Gradiente_sem_nome_65" x1="735.38" y1="101.5" x2="736.74" y2="23.79" gradientUnits="userSpaceOnUse"><stop offset="0" stop-color="#969696"/><stop offset="1" stop-color="#c9c9c9"/></linearGradient><linearGradient id="Gradiente_sem_nome_66" x1="725.27" y1="71.22" x2="725.27" y2="78.42" gradientUnits="userSpaceOnUse"><stop offset="0" stop-color="#fff195"/><stop offset="0.47" stop-color="#fff195"/><stop offset="1" stop-color="#1a1a1a"/></linearGradient><linearGradient id="Gradiente_sem_nome_66-2" x1="728.44" y1="71.22" x2="728.44" y2="78.42" xlink:href="#Gradiente_sem_nome_66"/><linearGradient id="Gradiente_sem_nome_66-3" x1="731.61" y1="71.22" x2="731.61" y2="78.42" xlink:href="#Gradiente_sem_nome_66"/><linearGradient id="Gradiente_sem_nome_66-4" x1="734.78" y1="71.22" x2="734.78" y2="78.42" xlink:href="#Gradiente_sem_nome_66"/><linearGradient id="Gradiente_sem_nome_66-5" x1="737.95" y1="71.22" x2="737.95" y2="78.42" xlink:href="#Gradiente_sem_nome_66"/><linearGradient id="Gradiente_sem_nome_66-6" x1="741.12" y1="71.22" x2="741.12" y2="78.42" xlink:href="#Gradiente_sem_nome_66"/><linearGradient id="Gradiente_sem_nome_66-7" x1="744.29" y1="71.22" x2="744.29" y2="78.42" xlink:href="#Gradiente_sem_nome_66"/><linearGradient id="Gradiente_sem_nome_66-8" x1="747.46" y1="71.22" x2="747.46" y2="78.42" xlink:href="#Gradiente_sem_nome_66"/><linearGradient id="Gradiente_sem_nome_66-9" x1="747.46" y1="55.13" x2="747.46" y2="47.93" gradientTransform="translate(1494.91 103.07) rotate(-180)" xlink:href="#Gradiente_sem_nome_66"/><linearGradient id="Gradiente_sem_nome_66-10" x1="744.29" y1="55.13" x2="744.29" y2="47.93" gradientTransform="translate(1488.57 103.07) rotate(-180)" xlink:href="#Gradiente_sem_nome_66"/><linearGradient id="Gradiente_sem_nome_66-11" x1="741.12" y1="55.13" x2="741.12" y2="47.93" gradientTransform="translate(1482.23 103.07) rotate(-180)" xlink:href="#Gradiente_sem_nome_66"/><linearGradient id="Gradiente_sem_nome_66-12" x1="737.95" y1="55.13" x2="737.95" y2="47.93" gradientTransform="translate(1475.9 103.07) rotate(-180)" xlink:href="#Gradiente_sem_nome_66"/><linearGradient id="Gradiente_sem_nome_66-13" x1="734.78" y1="55.13" x2="734.78" y2="47.93" gradientTransform="translate(1469.56 103.07) rotate(-180)" xlink:href="#Gradiente_sem_nome_66"/><linearGradient id="Gradiente_sem_nome_66-14" x1="731.61" y1="55.13" x2="731.61" y2="47.93" gradientTransform="translate(1463.22 103.07) rotate(-180)" xlink:href="#Gradiente_sem_nome_66"/><linearGradient id="Gradiente_sem_nome_66-15" x1="728.44" y1="55.13" x2="728.44" y2="47.93" gradientTransform="translate(1456.88 103.07) rotate(-180)" xlink:href="#Gradiente_sem_nome_66"/><linearGradient id="Gradiente_sem_nome_66-16" x1="725.27" y1="55.13" x2="725.27" y2="47.93" gradientTransform="translate(1450.54 103.07) rotate(-180)" xlink:href="#Gradiente_sem_nome_66"/><radialGradient id="Gradiente_sem_nome_13" cx="824.55" cy="47.99" r="4.41" gradientUnits="userSpaceOnUse"><stop offset="0.5" stop-color="lime"/><stop offset="1" stop-color="#006a1e"/></radialGradient><radialGradient id="Gradiente_sem_nome_111" cx="824.55" cy="62.08" r="4.41" gradientUnits="userSpaceOnUse"><stop offset="0.5" stop-color="red"/><stop offset="1" stop-color="#640000"/></radialGradient><radialGradient id="Gradiente_sem_nome_185" cx="824.55" cy="76.18" r="4.41" gradientUnits="userSpaceOnUse"><stop offset="0" stop-color="aqua"/><stop offset="1" stop-color="#0070ff"/></radialGradient><radialGradient id="Gradiente_sem_nome_30" cx="774.14" cy="89.29" r="5.77" gradientUnits="userSpaceOnUse"><stop offset="0"/><stop offset="1" stop-color="#333"/></radialGradient><radialGradient id="Gradiente_sem_nome_185-2" cx="824.55" cy="90.27" r="4.41" xlink:href="#Gradiente_sem_nome_185"/><radialGradient id="Gradiente_sem_nome_46" cx="720.63" cy="96.02" r="3.55" gradientUnits="userSpaceOnUse"><stop offset="0.46" stop-color="lime"/><stop offset="1" stop-color="#00c500"/></radialGradient><linearGradient id="Gradiente_sem_nome_117" x1="667.08" y1="71.51" x2="667.08" y2="54.86" gradientUnits="userSpaceOnUse"><stop offset="0" stop-color="#969696"/><stop offset="1" stop-color="#b0b0b0"/></linearGradient><radialGradient id="Gradiente_sem_nome_34" cx="751.84" cy="96.02" r="3.55" gradientUnits="userSpaceOnUse"><stop offset="0.46" stop-color="#ff0"/><stop offset="1" stop-color="#ffc51e"/></radialGradient><linearGradient id="Gradiente_sem_nome_3" x1="183.84" y1="71.49" x2="183.84" y2="54.84" xlink:href="#Gradiente_sem_nome_117"/><linearGradient id="Gradiente_sem_nome_129" x1="137.22" y1="65.78" x2="137.22" y2="59.67" gradientUnits="userSpaceOnUse"><stop offset="0" stop-color="#009b00"/><stop offset="1" stop-color="lime"/></linearGradient><linearGradient id="Gradiente_sem_nome_129-2" x1="129.39" y1="66.05" x2="129.39" y2="59.94" xlink:href="#Gradiente_sem_nome_129"/><linearGradient id="Gradiente_sem_nome_129-3" x1="118.87" y1="65.78" x2="118.87" y2="59.67" xlink:href="#Gradiente_sem_nome_129"/><linearGradient id="Gradiente_sem_nome_129-4" x1="111.04" y1="66.05" x2="111.04" y2="59.94" xlink:href="#Gradiente_sem_nome_129"/><linearGradient id="Gradiente_sem_nome_129-5" x1="177.02" y1="65.78" x2="177.02" y2="59.67" xlink:href="#Gradiente_sem_nome_129"/><linearGradient id="Gradiente_sem_nome_129-6" x1="169.2" y1="66.05" x2="169.2" y2="59.94" xlink:href="#Gradiente_sem_nome_129"/><linearGradient id="Gradiente_sem_nome_129-7" x1="158.67" y1="65.78" x2="158.67" y2="59.67" xlink:href="#Gradiente_sem_nome_129"/><linearGradient id="Gradiente_sem_nome_129-8" x1="150.85" y1="66.05" x2="150.85" y2="59.94" xlink:href="#Gradiente_sem_nome_129"/><linearGradient id="Gradiente_sem_nome_129-9" x1="256.63" y1="65.78" x2="256.63" y2="59.67" xlink:href="#Gradiente_sem_nome_129"/><linearGradient id="Gradiente_sem_nome_129-10" x1="248.81" y1="66.05" x2="248.81" y2="59.94" xlink:href="#Gradiente_sem_nome_129"/><linearGradient id="Gradiente_sem_nome_129-11" x1="238.28" y1="65.78" x2="238.28" y2="59.67" xlink:href="#Gradiente_sem_nome_129"/><linearGradient id="Gradiente_sem_nome_129-12" x1="230.45" y1="66.05" x2="230.45" y2="59.94" xlink:href="#Gradiente_sem_nome_129"/><linearGradient id="Gradiente_sem_nome_129-13" x1="216.82" y1="65.78" x2="216.82" y2="59.67" xlink:href="#Gradiente_sem_nome_129"/><linearGradient id="Gradiente_sem_nome_129-14" x1="209" y1="66.05" x2="209" y2="59.94" xlink:href="#Gradiente_sem_nome_129"/><linearGradient id="Gradiente_sem_nome_129-15" x1="198.47" y1="65.78" x2="198.47" y2="59.67" xlink:href="#Gradiente_sem_nome_129"/><linearGradient id="Gradiente_sem_nome_129-16" x1="190.65" y1="66.05" x2="190.65" y2="59.94" xlink:href="#Gradiente_sem_nome_129"/><linearGradient id="Gradiente_sem_nome_3-2" x1="538.41" y1="71.49" x2="538.41" y2="54.84" xlink:href="#Gradiente_sem_nome_117"/><linearGradient id="Gradiente_sem_nome_129-17" x1="491.8" y1="65.78" x2="491.8" y2="59.67" xlink:href="#Gradiente_sem_nome_129"/><linearGradient id="Gradiente_sem_nome_129-18" x1="483.97" y1="66.05" x2="483.97" y2="59.94" xlink:href="#Gradiente_sem_nome_129"/><linearGradient id="Gradiente_sem_nome_129-19" x1="473.44" y1="65.78" x2="473.44" y2="59.67" xlink:href="#Gradiente_sem_nome_129"/><linearGradient id="Gradiente_sem_nome_129-20" x1="465.62" y1="66.05" x2="465.62" y2="59.94" xlink:href="#Gradiente_sem_nome_129"/><linearGradient id="Gradiente_sem_nome_129-21" x1="531.6" y1="65.78" x2="531.6" y2="59.67" xlink:href="#Gradiente_sem_nome_129"/><linearGradient id="Gradiente_sem_nome_129-22" x1="523.78" y1="66.05" x2="523.78" y2="59.94" xlink:href="#Gradiente_sem_nome_129"/><linearGradient id="Gradiente_sem_nome_129-23" x1="513.25" y1="65.78" x2="513.25" y2="59.67" xlink:href="#Gradiente_sem_nome_129"/><linearGradient id="Gradiente_sem_nome_129-24" x1="505.42" y1="66.05" x2="505.42" y2="59.94" xlink:href="#Gradiente_sem_nome_129"/><linearGradient id="Gradiente_sem_nome_129-25" x1="611.21" y1="65.78" x2="611.21" y2="59.67" xlink:href="#Gradiente_sem_nome_129"/><linearGradient id="Gradiente_sem_nome_129-26" x1="603.38" y1="66.05" x2="603.38" y2="59.94" xlink:href="#Gradiente_sem_nome_129"/><linearGradient id="Gradiente_sem_nome_129-27" x1="592.85" y1="65.78" x2="592.85" y2="59.67" xlink:href="#Gradiente_sem_nome_129"/><linearGradient id="Gradiente_sem_nome_129-28" x1="585.03" y1="66.05" x2="585.03" y2="59.94" xlink:href="#Gradiente_sem_nome_129"/><linearGradient id="Gradiente_sem_nome_129-29" x1="571.4" y1="65.78" x2="571.4" y2="59.67" xlink:href="#Gradiente_sem_nome_129"/><linearGradient id="Gradiente_sem_nome_129-30" x1="563.58" y1="66.05" x2="563.58" y2="59.94" xlink:href="#Gradiente_sem_nome_129"/><linearGradient id="Gradiente_sem_nome_129-31" x1="553.05" y1="65.78" x2="553.05" y2="59.67" xlink:href="#Gradiente_sem_nome_129"/><linearGradient id="Gradiente_sem_nome_129-32" x1="545.23" y1="66.05" x2="545.23" y2="59.94" xlink:href="#Gradiente_sem_nome_129"/><linearGradient id="Gradiente_sem_nome_3-3" x1="361.12" y1="71.49" x2="361.12" y2="54.84" xlink:href="#Gradiente_sem_nome_117"/><linearGradient id="Gradiente_sem_nome_129-33" x1="314.51" y1="65.78" x2="314.51" y2="59.67" xlink:href="#Gradiente_sem_nome_129"/><linearGradient id="Gradiente_sem_nome_129-34" x1="306.68" y1="66.05" x2="306.68" y2="59.94" xlink:href="#Gradiente_sem_nome_129"/><linearGradient id="Gradiente_sem_nome_129-35" x1="296.15" y1="65.78" x2="296.15" y2="59.67" xlink:href="#Gradiente_sem_nome_129"/><linearGradient id="Gradiente_sem_nome_129-36" x1="288.33" y1="66.05" x2="288.33" y2="59.94" xlink:href="#Gradiente_sem_nome_129"/><linearGradient id="Gradiente_sem_nome_129-37" x1="354.31" y1="65.78" x2="354.31" y2="59.67" xlink:href="#Gradiente_sem_nome_129"/><linearGradient id="Gradiente_sem_nome_129-38" x1="346.49" y1="66.05" x2="346.49" y2="59.94" xlink:href="#Gradiente_sem_nome_129"/><linearGradient id="Gradiente_sem_nome_129-39" x1="335.96" y1="65.78" x2="335.96" y2="59.67" xlink:href="#Gradiente_sem_nome_129"/><linearGradient id="Gradiente_sem_nome_129-40" x1="328.13" y1="66.05" x2="328.13" y2="59.94" xlink:href="#Gradiente_sem_nome_129"/><linearGradient id="Gradiente_sem_nome_129-41" x1="433.92" y1="65.78" x2="433.92" y2="59.67" xlink:href="#Gradiente_sem_nome_129"/><linearGradient id="Gradiente_sem_nome_129-42" x1="426.09" y1="66.05" x2="426.09" y2="59.94" xlink:href="#Gradiente_sem_nome_129"/><linearGradient id="Gradiente_sem_nome_129-43" x1="415.57" y1="65.78" x2="415.57" y2="59.67" xlink:href="#Gradiente_sem_nome_129"/><linearGradient id="Gradiente_sem_nome_129-44" x1="407.74" y1="66.05" x2="407.74" y2="59.94" xlink:href="#Gradiente_sem_nome_129"/><linearGradient id="Gradiente_sem_nome_129-45" x1="394.11" y1="65.78" x2="394.11" y2="59.67" xlink:href="#Gradiente_sem_nome_129"/><linearGradient id="Gradiente_sem_nome_129-46" x1="386.29" y1="66.05" x2="386.29" y2="59.94" xlink:href="#Gradiente_sem_nome_129"/><linearGradient id="Gradiente_sem_nome_129-47" x1="375.76" y1="65.78" x2="375.76" y2="59.67" xlink:href="#Gradiente_sem_nome_129"/><linearGradient id="Gradiente_sem_nome_129-48" x1="367.94" y1="66.05" x2="367.94" y2="59.94" xlink:href="#Gradiente_sem_nome_129"/><linearGradient id="Gradiente_sem_nome_129-49" x1="686.79" y1="66.56" x2="686.79" y2="58.75" xlink:href="#Gradiente_sem_nome_129"/><linearGradient id="Gradiente_sem_nome_129-50" x1="5178.55" y1="2845.25" x2="5178.55" y2="2837.43" gradientTransform="translate(5827.63 2904.39) rotate(180)" xlink:href="#Gradiente_sem_nome_129"/></defs><path class="cls-1" d="M0,0V125.19H1368V0ZM36.44,117.31H19a8.13,8.13,0,1,1,0-16.25H36.44a8.13,8.13,0,1,1,0,16.25Zm0-91.94H19A8.13,8.13,0,1,1,19,9.12H36.44a8.13,8.13,0,1,1,0,16.25Zm1313.78,91.94H1332.8a8.13,8.13,0,1,1,0-16.25h17.42a8.13,8.13,0,0,1,0,16.25Zm0-91.94H1332.8a8.13,8.13,0,1,1,0-16.25h17.42a8.13,8.13,0,0,1,0,16.25Z"/><rect class="cls-2" x="52.65" width="1.68" height="125.19"/><rect class="cls-3" x="48.9" width="2.75" height="125.19"/><rect class="cls-4" x="54.72" width="0.9" height="125.19"/><rect class="cls-2" x="1314.1" width="1.68" height="125.19"/><rect class="cls-3" x="1316.78" width="2.75" height="125.19"/><rect class="cls-4" x="1312.8" width="0.9" height="125.19"/><rect class="cls-5" x="711.27" y="24.21" width="49.58" height="76.88"/><path class="cls-6" d="M761.1,101.33H711V24H761.1Zm-49.58-.5H760.6V24.46H711.52Z"/><polygon class="cls-7" points="753.43 71.22 719.3 71.22 719.3 92.4 726.3 92.4 726.3 97.23 730.59 97.23 730.59 100.21 742.24 100.21 742.24 97.23 746.52 97.23 746.52 92.4 753.43 92.4 753.43 71.22"/><rect class="cls-8" x="724.61" y="71.22" width="1.32" height="7.2"/><rect class="cls-9" x="727.78" y="71.22" width="1.32" height="7.2"/><rect class="cls-10" x="730.95" y="71.22" width="1.32" height="7.2"/><rect class="cls-11" x="734.12" y="71.22" width="1.32" height="7.2"/><rect class="cls-12" x="737.29" y="71.22" width="1.32" height="7.2"/><rect class="cls-13" x="740.46" y="71.22" width="1.32" height="7.2"/><rect class="cls-14" x="743.63" y="71.22" width="1.32" height="7.2"/><rect class="cls-15" x="746.8" y="71.22" width="1.32" height="7.2"/><polygon class="cls-7" points="719.3 55.13 753.43 55.13 753.43 33.95 746.42 33.95 746.42 29.12 742.14 29.12 742.14 26.14 730.49 26.14 730.49 29.12 726.21 29.12 726.21 33.95 719.3 33.95 719.3 55.13"/><rect class="cls-16" x="746.8" y="47.93" width="1.32" height="7.2" transform="translate(1494.91 103.07) rotate(180)"/><rect class="cls-17" x="743.63" y="47.93" width="1.32" height="7.2" transform="translate(1488.57 103.07) rotate(180)"/><rect class="cls-18" x="740.46" y="47.93" width="1.32" height="7.2" transform="translate(1482.23 103.07) rotate(180)"/><rect class="cls-19" x="737.29" y="47.93" width="1.32" height="7.2" transform="translate(1475.9 103.07) rotate(180)"/><rect class="cls-20" x="734.12" y="47.93" width="1.32" height="7.2" transform="translate(1469.56 103.07) rotate(180)"/><rect class="cls-21" x="730.95" y="47.93" width="1.32" height="7.2" transform="translate(1463.22 103.07) rotate(180)"/><rect class="cls-22" x="727.78" y="47.93" width="1.32" height="7.2" transform="translate(1456.88 103.07) rotate(180)"/><rect class="cls-23" x="724.61" y="47.93" width="1.32" height="7.2" transform="translate(1450.54 103.07) rotate(180)"/><path d="M1300.71,101.82l-5.29,4.22c1,2.07,1.94,4.08,3,6.22h-4.9l-1.63-3.7c-1.75.63-1.18,2.51-1.93,3.68h-4.45c1.16-4.85,2.3-9.58,3.45-14.37h4.54c-.52,2.24-1,4.41-1.57,6.83,1.38-1,2.47-2.33,3.82-2.78S1298.69,101.82,1300.71,101.82Z"/><path d="M1216.09,112.26h-1.46c1.22-4.85,2.4-9.6,3.61-14.39h2.24c.84,4.23,1.68,8.44,2.6,13,3.17-4.47,6.15-8.7,9.21-13h2.24c-1.19,4.82-2.36,9.57-3.55,14.36h-1.48c1.1-4.22,2.18-8.35,3.25-12.48l-.23-.14-8.92,12.62H1222c-.87-4.31-1.74-8.57-2.6-12.84h-.27C1218.15,103.65,1217.13,107.9,1216.09,112.26Z"/><path d="M1281,97.89c-.32,1.34-.62,2.57-.92,3.85H1265.8c.31-1.32.59-2.54.89-3.85Z"/><path d="M1272.94,112.27h-5.06c.67-2.84,1.33-5.61,2-8.38H1275C1274.27,106.71,1273.62,109.43,1272.94,112.27Z"/><path d="M1261,101.63c4-.16,6,3.05,4.3,6.93a6.52,6.52,0,0,1-8.45,3.62,4.24,4.24,0,0,1-2.37-4.46A6.5,6.5,0,0,1,1261,101.63Zm-1.54,9.81c2.77.08,4.92-2.3,5-5.5a3.21,3.21,0,0,0-3.47-3.38,5.38,5.38,0,0,0-5.08,5.47C1255.83,110.25,1257,111.38,1259.5,111.44Z"/><path d="M1278.93,112.25c.69-2.88,1.33-5.59,2-8.36h4.54c-.67,2.83-1.31,5.57-2,8.36Z"/><path d="M1238.62,112.25h-1.47c.85-3.47,1.67-6.84,2.52-10.28H1241c-.37,1.59-.73,3.1-1.12,4.76,3.07-1.27,5-4.35,8.26-5l.24.4-5.17,3.76,3.51,6.35h-1.49l-3.14-5.52C1239.68,107.66,1238.87,109.71,1238.62,112.25Z"/><path d="M1249.81,102H1251c-.1.67-.19,1.26-.37,2.36a4.82,4.82,0,0,1,5-2.53l-.14,1.14a7.38,7.38,0,0,1-.74.11c-2.69.16-4.1,1.37-4.77,4.1-.41,1.67-.82,3.33-1.26,5.1l-1.41.07C1248.12,108.79,1249,105.41,1249.81,102Z"/><path d="M1286,101.75h-4.54c.31-1.32.59-2.55.89-3.86h4.55Z"/><path d="M1234.93,112.26h-1.41c.87-3.5,1.72-6.89,2.57-10.31h1.39C1236.62,105.43,1235.79,108.8,1234.93,112.26Z"/><path d="M1243.63,99.93a5.82,5.82,0,0,1-5.8-1.33,6.37,6.37,0,0,1-1.88-6.27C1236.88,96.67,1239.22,99.41,1243.63,99.93Z"/><rect class="cls-7" x="639.19" y="26.35" width="55.78" height="73.63"/><path d="M1243.76,97.74A5,5,0,0,1,1238,91.8a17.16,17.16,0,0,0,2.18,3.71A16.06,16.06,0,0,0,1243.76,97.74Z"/><circle class="cls-24" cx="824.55" cy="47.99" r="4.41"/><circle class="cls-25" cx="824.55" cy="62.08" r="4.41"/><circle class="cls-26" cx="824.55" cy="76.18" r="4.41"/><circle class="cls-27" cx="774.14" cy="89.29" r="5.77"/><circle class="cls-28" cx="824.55" cy="90.27" r="4.41"/><rect class="cls-29" x="716.24" y="93.58" width="8.78" height="4.87"/><rect class="cls-30" x="639.94" y="54.86" width="54.28" height="16.65"/><rect class="cls-31" x="747.46" y="93.58" width="8.78" height="4.87"/><path d="M1156.48,25.79h-3.58a2.24,2.24,0,0,1-1.68-.67,2.49,2.49,0,0,1-.64-1.8v-7.6a2.45,2.45,0,0,1,.64-1.79,2.2,2.2,0,0,1,1.68-.67h3.58a2.21,2.21,0,0,1,1.7.67,2.45,2.45,0,0,1,.64,1.79v1.75h-2V16c0-.55-.26-.83-.77-.83h-2.8c-.5,0-.75.28-.75.83v7c0,.55.25.82.75.82h2.8c.51,0,.77-.27.77-.82V21.57h2v1.75a2.49,2.49,0,0,1-.64,1.8A2.25,2.25,0,0,1,1156.48,25.79Z"/><path d="M1160.85,12.76h1.86v13h-1.86Z"/><path d="M1167,16.35h2.66a2.16,2.16,0,0,1,1.65.68,2.37,2.37,0,0,1,.64,1.73v4.62a2.41,2.41,0,0,1-.64,1.74,2.18,2.18,0,0,1-1.65.67H1167a2.19,2.19,0,0,1-1.64-.67,2.38,2.38,0,0,1-.65-1.74V18.76a2.34,2.34,0,0,1,.65-1.73A2.16,2.16,0,0,1,1167,16.35Zm3.07,6.94V18.85a.83.83,0,0,0-.2-.59.7.7,0,0,0-.53-.22h-2a.7.7,0,0,0-.53.22.88.88,0,0,0-.2.59v4.44a.88.88,0,0,0,.2.59.67.67,0,0,0,.53.22h2a.67.67,0,0,0,.53-.22A.83.83,0,0,0,1170.08,23.29Z"/><path d="M1175.74,16.42v6.77a.88.88,0,0,0,.19.6.7.7,0,0,0,.56.22h.41a3.1,3.1,0,0,0,1.68-.48l.51-.33V16.42H1181v9.3h-1.88V24.5l-.51.44a2.78,2.78,0,0,1-1.83.85h-.6a2.22,2.22,0,0,1-1.65-.67,2.41,2.41,0,0,1-.64-1.74v-7Z"/><path d="M1190.22,25.72h-1.86V24.5l-.53.44a2.67,2.67,0,0,1-1.83.85h-.75a2.19,2.19,0,0,1-1.64-.67,2.42,2.42,0,0,1-.65-1.74V18.76a2.38,2.38,0,0,1,.65-1.73,2.16,2.16,0,0,1,1.64-.68h.75a2.71,2.71,0,0,1,1.83.85l.53.45V12.76h1.86Zm-1.86-6.78-.53-.33a3.08,3.08,0,0,0-1.66-.48h-.58a.68.68,0,0,0-.55.22.89.89,0,0,0-.2.6v4.24a.89.89,0,0,0,.2.6.68.68,0,0,0,.55.22h.58a3.08,3.08,0,0,0,1.66-.48l.53-.33Z"/><path d="M1205.58,25.72h-2.11l-2.12-4.79H1199v4.79h-2V13.32h5.83a2.23,2.23,0,0,1,1.69.68,2.49,2.49,0,0,1,.63,1.79v2.7a2.59,2.59,0,0,1-.47,1.6,2,2,0,0,1-1.31.79ZM1199,19h3.48c.5,0,.75-.27.75-.82V16.1c0-.55-.25-.83-.75-.83H1199Z"/><path d="M1209.23,16.35h2.66a2.16,2.16,0,0,1,1.65.68,2.37,2.37,0,0,1,.64,1.73v4.62a2.41,2.41,0,0,1-.64,1.74,2.18,2.18,0,0,1-1.65.67h-2.66a2.23,2.23,0,0,1-1.65-.67,2.41,2.41,0,0,1-.64-1.74V18.76a2.37,2.37,0,0,1,.64-1.73A2.2,2.2,0,0,1,1209.23,16.35Zm3.07,6.94V18.85a.83.83,0,0,0-.2-.59.7.7,0,0,0-.53-.22h-2a.7.7,0,0,0-.53.22.83.83,0,0,0-.2.59v4.44a.83.83,0,0,0,.2.59.67.67,0,0,0,.53.22h2a.67.67,0,0,0,.53-.22A.83.83,0,0,0,1212.3,23.29Z"/><path d="M1218,16.42v6.77a.88.88,0,0,0,.19.6.7.7,0,0,0,.56.22h.41a3.1,3.1,0,0,0,1.68-.48l.51-.33V16.42h1.88v9.3h-1.88V24.5l-.51.44a2.78,2.78,0,0,1-1.83.85h-.6a2.22,2.22,0,0,1-1.65-.67,2.41,2.41,0,0,1-.64-1.74v-7Z"/><path d="M1228,18.06V23.2a.86.86,0,0,0,.2.59.67.67,0,0,0,.54.22h1.85v1.71h-2.18a2.22,2.22,0,0,1-1.65-.67,2.45,2.45,0,0,1-.63-1.74V18.06h-1.44V16.42h1.47v-3.1H1228v3.1h2.62v1.64Z"/><path d="M1233.73,21.64v1.68a.82.82,0,0,0,.2.58.67.67,0,0,0,.54.22h1.89a.67.67,0,0,0,.54-.22.82.82,0,0,0,.2-.58v-.55H1239v.61a2.42,2.42,0,0,1-.65,1.74,2.21,2.21,0,0,1-1.64.67h-2.55a2.19,2.19,0,0,1-1.64-.67,2.42,2.42,0,0,1-.65-1.74V18.76a2.38,2.38,0,0,1,.65-1.73,2.16,2.16,0,0,1,1.64-.68h2.55a2.18,2.18,0,0,1,1.64.68,2.38,2.38,0,0,1,.65,1.73v2.88Zm2.63-3.62h-1.89a.71.71,0,0,0-.54.22.82.82,0,0,0-.2.58v1.39h3.37V18.82a.82.82,0,0,0-.2-.58A.71.71,0,0,0,1236.36,18Z"/><path d="M1246.12,18.18H1245a3.13,3.13,0,0,0-1.68.5l-.51.31v6.73h-1.88v-9.3h1.88v1.23l.51-.45a2.83,2.83,0,0,1,1.83-.85h1Z"/><path d="M1257.92,17V16a.93.93,0,0,0-.2-.63.68.68,0,0,0-.55-.23h-2.53a.71.71,0,0,0-.57.23.93.93,0,0,0-.2.63v1.22a.78.78,0,0,0,.18.57,1.35,1.35,0,0,0,.59.27l3,.73c1.57.35,2.35,1.18,2.35,2.47v2a2.49,2.49,0,0,1-.64,1.8,2.25,2.25,0,0,1-1.7.67h-3.46a2.26,2.26,0,0,1-1.69-.67,2.53,2.53,0,0,1-.63-1.8V21.86h1.91V23a.92.92,0,0,0,.2.62.72.72,0,0,0,.57.24h2.71a.68.68,0,0,0,.56-.24.88.88,0,0,0,.21-.62V21.64a.84.84,0,0,0-.17-.58,1.29,1.29,0,0,0-.6-.28l-3-.71c-1.57-.39-2.35-1.21-2.35-2.48V15.72a2.45,2.45,0,0,1,.64-1.79,2.24,2.24,0,0,1,1.69-.67h3.27a2.22,2.22,0,0,1,1.69.67,2.46,2.46,0,0,1,.65,1.79V17Z"/><path d="M1270.69,25.72h-1.93l-1.46-6.46-1.45,6.46h-1.93l-2.7-9.3h2l1.71,7.37,1.59-7.37h1.68l1.59,7.37,1.73-7.37h1.82Z"/><path d="M1276.65,14.75h-2v-2h2Zm-.06,1.67v9.3h-1.88v-9.3Z"/><path d="M1281.26,18.06V23.2a.86.86,0,0,0,.2.59.67.67,0,0,0,.54.22h1.84v1.71h-2.17a2.22,2.22,0,0,1-1.65-.67,2.41,2.41,0,0,1-.64-1.74V18.06h-1.44V16.42h1.48v-3.1h1.81v3.1h2.61v1.64Z"/><path d="M1289.86,25.79h-2.49a2.21,2.21,0,0,1-1.64-.67,2.41,2.41,0,0,1-.64-1.74V18.76a2.37,2.37,0,0,1,.64-1.73,2.18,2.18,0,0,1,1.64-.68h2.49a2.18,2.18,0,0,1,1.64.68,2.38,2.38,0,0,1,.65,1.73v.9h-1.86v-.81a.8.8,0,0,0-.21-.57.68.68,0,0,0-.53-.22h-1.85a.7.7,0,0,0-.54.21.85.85,0,0,0-.19.58v4.44a.85.85,0,0,0,.19.58.7.7,0,0,0,.54.21h1.85a.68.68,0,0,0,.53-.22.8.8,0,0,0,.21-.57v-.81h1.86v.9a2.42,2.42,0,0,1-.65,1.74A2.21,2.21,0,0,1,1289.86,25.79Z"/><path d="M1299.27,25.72V19a.88.88,0,0,0-.19-.6.7.7,0,0,0-.56-.22h-.41a3.23,3.23,0,0,0-1.68.48l-.51.33v6.78H1294v-13h1.88v4.89l.51-.45a2.83,2.83,0,0,1,1.83-.85h.61a2.19,2.19,0,0,1,1.65.68,2.41,2.41,0,0,1,.63,1.73v7Z"/><path d="M1215.31,39.47h-2a1.36,1.36,0,0,1-1-.33,1.13,1.13,0,0,1-.36-.88V34.52a1.15,1.15,0,0,1,.36-.89,1.36,1.36,0,0,1,1-.33h2a1.37,1.37,0,0,1,1,.33,1.15,1.15,0,0,1,.36.89v.86h-1.11v-.71c0-.27-.14-.41-.43-.41h-1.58a.37.37,0,0,0-.42.41v3.44a.37.37,0,0,0,.42.41h1.58c.29,0,.43-.14.43-.41V37.4h1.11v.86a1.13,1.13,0,0,1-.36.88A1.37,1.37,0,0,1,1215.31,39.47Z"/><path d="M1222.72,39.44h-1.19l-1.2-2.36H1219v2.36h-1.1v-6.1h3.29a1.36,1.36,0,0,1,1,.33,1.13,1.13,0,0,1,.36.88v1.33a1.13,1.13,0,0,1-1,1.18Zm-3.7-3.3h2c.28,0,.42-.13.42-.4v-1a.37.37,0,0,0-.42-.41h-2Z"/><path d="M1227.14,35.16v-.49a.43.43,0,0,0-.11-.31.41.41,0,0,0-.31-.12h-1.43a.42.42,0,0,0-.32.12.4.4,0,0,0-.12.31v.6a.35.35,0,0,0,.11.28.73.73,0,0,0,.33.14L1227,36c.89.18,1.33.58,1.33,1.22v1a1.13,1.13,0,0,1-.36.88,1.37,1.37,0,0,1-1,.33h-2a1.34,1.34,0,0,1-1-.33,1.13,1.13,0,0,1-.36-.88v-.72h1.08v.57a.45.45,0,0,0,.11.31.46.46,0,0,0,.32.11h1.53a.46.46,0,0,0,.32-.11.41.41,0,0,0,.12-.31v-.68a.38.38,0,0,0-.1-.28.68.68,0,0,0-.34-.14l-1.71-.35c-.89-.19-1.33-.6-1.33-1.22v-.92a1.15,1.15,0,0,1,.36-.89,1.37,1.37,0,0,1,1-.33h1.84a1.38,1.38,0,0,1,1,.33,1.15,1.15,0,0,1,.36.89v.64Z"/><path d="M1230.52,37.67v.42a.38.38,0,0,0,.13.32.45.45,0,0,0,.34.12h1.4a.48.48,0,0,0,.35-.12.41.41,0,0,0,.13-.32V37.2c0-.29-.19-.43-.57-.43h-1.37v-.91h1.37a.64.64,0,0,0,.39-.09.46.46,0,0,0,.1-.35v-.73a.45.45,0,0,0-.12-.33.5.5,0,0,0-.35-.12h-1.25a.48.48,0,0,0-.35.12.45.45,0,0,0-.13.33v.42h-1.1v-.59a1.1,1.1,0,0,1,.38-.87,1.36,1.36,0,0,1,1-.35h1.75a1.36,1.36,0,0,1,1,.35,1.14,1.14,0,0,1,.38.87v.88a1,1,0,0,1-.59.91.94.94,0,0,1,.66.92v1a1.12,1.12,0,0,1-.38.88,1.33,1.33,0,0,1-.95.34h-1.9a1.35,1.35,0,0,1-1-.34,1.16,1.16,0,0,1-.38-.88v-.58Z"/><path d="M1236.26,34.7v.45h-1.08v-.63a1.14,1.14,0,0,1,.38-.87,1.36,1.36,0,0,1,1-.35h1.76a1.36,1.36,0,0,1,1,.35,1.1,1.1,0,0,1,.38.87v1a.91.91,0,0,1-.29.71,3.43,3.43,0,0,1-1,.51l-1.59.58a2.3,2.3,0,0,0-.35.15.29.29,0,0,0-.12.26v.74h3.41v1h-4.52V37.57a.88.88,0,0,1,.4-.78,3.69,3.69,0,0,1,.93-.44l1.6-.58a1.1,1.1,0,0,0,.35-.17.39.39,0,0,0,.11-.25v-.64a.46.46,0,0,0-.12-.33.45.45,0,0,0-.34-.12h-1.3a.45.45,0,0,0-.34.12A.38.38,0,0,0,1236.26,34.7Z"/><path d="M1244.08,35.06V34.7a.38.38,0,0,0-.13-.32.47.47,0,0,0-.34-.12h-1.31c-.31,0-.47.15-.47.44v1.56l.29-.22a1.68,1.68,0,0,1,1-.41h.78a1.32,1.32,0,0,1,1,.34,1.14,1.14,0,0,1,.38.88v1.4a1.16,1.16,0,0,1-.38.88,1.35,1.35,0,0,1-1,.34h-1.87a1.36,1.36,0,0,1-1-.34,1.13,1.13,0,0,1-.37-.88V34.52a1.13,1.13,0,0,1,.37-.87,1.37,1.37,0,0,1,1-.35h1.8a1.38,1.38,0,0,1,1,.35,1.13,1.13,0,0,1,.37.87v.54Zm-2.25,1.87v1.15c0,.29.16.44.47.44h1.39c.31,0,.46-.15.46-.44V37a.44.44,0,0,0-.12-.32.45.45,0,0,0-.34-.12h-.62a1.94,1.94,0,0,0-1,.24Z"/><path d="M1249.45,36.19v.92h-3.13v-.92Z"/><path d="M1251.5,34.7v.45h-1.08v-.63a1.13,1.13,0,0,1,.37-.87,1.38,1.38,0,0,1,1-.35h1.76a1.36,1.36,0,0,1,1,.35,1.14,1.14,0,0,1,.38.87v1a.89.89,0,0,1-.3.71,3.35,3.35,0,0,1-1,.51l-1.6.58a2.16,2.16,0,0,0-.34.15.27.27,0,0,0-.13.26v.74h3.42v1h-4.53V37.57a.9.9,0,0,1,.4-.78,4.07,4.07,0,0,1,.93-.44l1.61-.58a1.23,1.23,0,0,0,.35-.17.39.39,0,0,0,.11-.25v-.64a.46.46,0,0,0-.12-.33.45.45,0,0,0-.34-.12H1252a.48.48,0,0,0-.35.12A.41.41,0,0,0,1251.5,34.7Z"/><path d="M1260.69,38.12h-.94v1.32h-1.08V38.12h-3.18l-.18-.77,3.43-4h1v3.87h.94Zm-4-.91h2V34.8Z"/><path d="M1264.87,35.16v-.49a.41.41,0,0,0-.43-.43H1263a.44.44,0,0,0-.32.12.43.43,0,0,0-.11.31v.6a.34.34,0,0,0,.1.28.86.86,0,0,0,.33.14l1.72.35c.89.18,1.33.58,1.33,1.22v1a1.13,1.13,0,0,1-.36.88,1.37,1.37,0,0,1-1,.33h-2a1.36,1.36,0,0,1-1-.33,1.13,1.13,0,0,1-.36-.88v-.72h1.08v.57a.41.41,0,0,0,.12.31.44.44,0,0,0,.32.11h1.53a.48.48,0,0,0,.32-.11.45.45,0,0,0,.11-.31v-.68a.34.34,0,0,0-.1-.28.64.64,0,0,0-.33-.14l-1.72-.35c-.88-.19-1.33-.6-1.33-1.22v-.92a1.13,1.13,0,0,1,.37-.89,1.36,1.36,0,0,1,1-.33h1.85a1.36,1.36,0,0,1,.95.33,1.16,1.16,0,0,1,.37.89v.64Z"/><path d="M1268.52,37.9V36.74h-1.33v-.87h1.33V34.71h.94v1.16h1.33v.87h-1.33V37.9Z"/><path d="M1273.06,34.7v.45H1272v-.63a1.14,1.14,0,0,1,.38-.87,1.36,1.36,0,0,1,1-.35h1.77a1.38,1.38,0,0,1,1,.35,1.13,1.13,0,0,1,.37.87v1a.88.88,0,0,1-.29.71,3.35,3.35,0,0,1-1,.51l-1.6.58a2.16,2.16,0,0,0-.34.15.27.27,0,0,0-.13.26v.74h3.41v1h-4.52V37.57a.88.88,0,0,1,.4-.78,3.87,3.87,0,0,1,.93-.44l1.61-.58a1.23,1.23,0,0,0,.35-.17.45.45,0,0,0,.11-.25v-.64a.46.46,0,0,0-.12-.33.47.47,0,0,0-.34-.12h-1.31a.47.47,0,0,0-.34.12A.41.41,0,0,0,1273.06,34.7Z"/><path d="M1278.84,33.3H1281a1.36,1.36,0,0,1,1,.33,1.15,1.15,0,0,1,.36.89v3.74a1.2,1.2,0,0,1-.29.81,1.27,1.27,0,0,1-.78.39l.34.8h-.89l-.35-.79h-1.51a1.36,1.36,0,0,1-.95-.33,1.13,1.13,0,0,1-.36-.88V34.52a1.15,1.15,0,0,1,.36-.89A1.36,1.36,0,0,1,1278.84,33.3Zm1.58,4.21.42,1a.37.37,0,0,0,.37-.41V34.67a.37.37,0,0,0-.42-.41h-1.73a.37.37,0,0,0-.42.41v3.44a.37.37,0,0,0,.42.41h.89l-.43-1Z"/><path d="M1284.82,37.9V36.74h-1.33v-.87h1.33V34.71h.94v1.16h1.33v.87h-1.33V37.9Z"/><path d="M1293.23,39.44H1292l-1.2-2.36h-1.31v2.36h-1.11v-6.1h3.29a1.37,1.37,0,0,1,1,.33,1.13,1.13,0,0,1,.36.88v1.33a1.17,1.17,0,0,1-.27.79,1.19,1.19,0,0,1-.74.39Zm-3.7-3.3h2c.29,0,.43-.13.43-.4v-1c0-.27-.14-.41-.43-.41h-2Z"/><path d="M1300.66,33.34v6.1h-1.05V35L1298,38.47h-.84L1295.48,35v4.46h-1v-6.1h1.23l1.87,3.85,1.87-3.85Z"/><path d="M840.58,44.71v4.68a1.17,1.17,0,0,1-.3.84,1.09,1.09,0,0,1-.81.31h-1.73a1.05,1.05,0,0,1-.8-.31,1.17,1.17,0,0,1-.3-.84V44.71h.93v4.54c0,.25.12.38.36.38h1.35c.24,0,.36-.13.36-.38V44.71Z"/><path d="M844.52,46.44V46a.42.42,0,0,0-.1-.3.33.33,0,0,0-.26-.11H843a.34.34,0,0,0-.27.11.42.42,0,0,0-.1.3v.57a.37.37,0,0,0,.09.27.61.61,0,0,0,.28.12l1.45.34c.74.17,1.12.55,1.12,1.16v1a1.13,1.13,0,0,1-.31.84,1.06,1.06,0,0,1-.81.31h-1.65a1.05,1.05,0,0,1-.8-.31,1.17,1.17,0,0,1-.3-.84v-.68h.91v.54a.44.44,0,0,0,.09.29.37.37,0,0,0,.27.11h1.3a.37.37,0,0,0,.27-.11.44.44,0,0,0,.09-.29V48.6a.36.36,0,0,0-.08-.27.61.61,0,0,0-.28-.13l-1.45-.33c-.75-.18-1.12-.57-1.12-1.16v-.88A1.17,1.17,0,0,1,842,45a1.09,1.09,0,0,1,.81-.31h1.56a1.05,1.05,0,0,1,.8.31,1.13,1.13,0,0,1,.31.84v.61Z"/><path d="M846.69,44.71h3.59v.91h-2.66V47.1h2.19V48h-2.19v1.6h2.66v.91h-3.59Z"/><path d="M855.4,50.51h-1l-1-2.24h-1.1v2.24h-.94v-5.8h2.78a1.06,1.06,0,0,1,.8.32,1.12,1.12,0,0,1,.31.83v1.27a1.22,1.22,0,0,1-.23.75,1,1,0,0,1-.62.37Zm-3.12-3.13h1.65q.36,0,.36-.39V46q0-.39-.36-.39h-1.65Z"/><path d="M836.72,87.58h2.79a1.06,1.06,0,0,1,.8.32,1.09,1.09,0,0,1,.31.83v1.38a1.13,1.13,0,0,1-.31.84,1.05,1.05,0,0,1-.8.31h-1.85v2.12h-.94Zm.94,2.77h1.67c.23,0,.35-.13.35-.39V88.88c0-.26-.12-.39-.35-.39h-1.67Z"/><path d="M846.35,93.38h-.91l-1-4.16-1,4.16h-.94l-1.44-5.8h1l.92,4.49,1.08-4.49h.77l1.07,4.49.92-4.49h1Z"/><path d="M852.68,93.38h-1l-1-2.24h-1.1v2.24h-.94v-5.8h2.78a1.08,1.08,0,0,1,.81.32,1.13,1.13,0,0,1,.3.83V90a1.22,1.22,0,0,1-.23.75,1,1,0,0,1-.62.37Zm-3.12-3.13h1.66c.24,0,.35-.13.35-.39v-1c0-.26-.11-.39-.35-.39h-1.66Z"/><path d="M856.44,93.38V88.59l-1,.38v-.83l1.18-.56h.75v5.8Z"/><path d="M836.72,73.29h2.79a1.06,1.06,0,0,1,.8.32,1.11,1.11,0,0,1,.31.83v1.38a1.13,1.13,0,0,1-.31.84,1.05,1.05,0,0,1-.8.31h-1.85v2.12h-.94Zm.94,2.77h1.67c.23,0,.35-.13.35-.38V74.59c0-.26-.12-.39-.35-.39h-1.67Z"/><path d="M846.35,79.09h-.91l-1-4.16-1,4.16h-.94l-1.44-5.8h1l.92,4.5,1.08-4.5h.77l1.07,4.5.92-4.5h1Z"/><path d="M852.68,79.09h-1l-1-2.24h-1.1v2.24h-.94v-5.8h2.78a1.08,1.08,0,0,1,.81.32,1.14,1.14,0,0,1,.3.83v1.27a1.22,1.22,0,0,1-.23.75,1,1,0,0,1-.62.37ZM849.56,76h1.66c.24,0,.35-.13.35-.39v-1c0-.26-.11-.39-.35-.39h-1.66Z"/><path d="M856.55,74.59V75h-.91v-.6a1.16,1.16,0,0,1,.32-.83,1.06,1.06,0,0,1,.8-.33h1.49a1.06,1.06,0,0,1,.8.33,1.12,1.12,0,0,1,.32.83v1a.88.88,0,0,1-.25.67,2.73,2.73,0,0,1-.87.49l-1.35.54-.28.15a.26.26,0,0,0-.11.25v.7h2.88v.91h-3.82V77.31a.86.86,0,0,1,.34-.74,3.32,3.32,0,0,1,.78-.42l1.36-.55a.89.89,0,0,0,.29-.15.38.38,0,0,0,.1-.24V74.6a.48.48,0,0,0-.1-.31.37.37,0,0,0-.29-.12H857a.4.4,0,0,0-.29.11A.42.42,0,0,0,856.55,74.59Z"/><path d="M719.14,104.7v5.52h-.85v-4l-1.35,3.16h-.68l-1.35-3.16v4h-.85V104.7h1l1.53,3.49,1.53-3.49Z"/><path d="M723.25,106.41v-.51c0-.25-.11-.37-.35-.37h-1.35c-.23,0-.35.12-.35.37V109a.4.4,0,0,0,.09.27.36.36,0,0,0,.26.09h1.35c.24,0,.35-.12.35-.37v-1h-1.12v-.84h2v1.94a1.09,1.09,0,0,1-.3.8,1,1,0,0,1-.78.3h-1.71a1.06,1.06,0,0,1-.78-.3,1.12,1.12,0,0,1-.29-.8v-3.39a1.12,1.12,0,0,1,.29-.8,1.06,1.06,0,0,1,.78-.3h1.71a1,1,0,0,1,.78.3,1.09,1.09,0,0,1,.3.8v.65Z"/><path d="M730.37,104.7v5.52h-.85v-4l-1.35,3.16h-.69l-1.34-3.16v4h-.85V104.7h1l1.52,3.49,1.53-3.49Z"/><path d="M735.09,105.55h-1.48v4.67h-.91v-4.67h-1.49v-.85h3.88Z"/><path d="M738.29,104.16l-2.67,6.59h-.87l2.67-6.59Z"/><path d="M739.06,104.7h2.67a1,1,0,0,1,.77.29,1.09,1.09,0,0,1,.3.8v.78a.9.9,0,0,1-.49.83.83.83,0,0,1,.55.82v.9a1.09,1.09,0,0,1-.3.8,1,1,0,0,1-.77.3h-2.73ZM740,107h1.57a.29.29,0,0,0,.36-.36v-.71a.36.36,0,0,0-.09-.26.31.31,0,0,0-.26-.1H740Zm0,2.39h1.65a.34.34,0,0,0,.25-.1A.4.4,0,0,0,742,109v-.85a.31.31,0,0,0-.1-.27.58.58,0,0,0-.34-.08H740Z"/><path d="M746.66,110.25h-1.75a1.06,1.06,0,0,1-.78-.3,1.12,1.12,0,0,1-.29-.8v-3.39a1.12,1.12,0,0,1,.29-.8,1.06,1.06,0,0,1,.78-.3h1.75a1.06,1.06,0,0,1,.78.3,1.09,1.09,0,0,1,.3.8v3.39a1.09,1.09,0,0,1-.3.8A1.06,1.06,0,0,1,746.66,110.25Zm-1.92-4.35V109c0,.25.12.37.35.37h1.39c.23,0,.35-.12.35-.37V105.9c0-.25-.12-.37-.35-.37h-1.39C744.86,105.53,744.74,105.65,744.74,105.9Z"/><path d="M751.57,110.25h-1.75a1,1,0,0,1-.77-.3,1.09,1.09,0,0,1-.3-.8v-3.39a1.09,1.09,0,0,1,.3-.8,1,1,0,0,1,.77-.3h1.75a1,1,0,0,1,.78.3,1.09,1.09,0,0,1,.3.8v3.39a1.09,1.09,0,0,1-.3.8A1,1,0,0,1,751.57,110.25Zm-1.91-4.35V109c0,.25.11.37.35.37h1.38a.32.32,0,0,0,.36-.37V105.9a.32.32,0,0,0-.36-.37H750C749.77,105.53,749.66,105.65,749.66,105.9Z"/><path d="M757.15,105.55h-1.49v4.67h-.9v-4.67h-1.49v-.85h3.88Z"/><path d="M722.18,19.37h-1.65a1,1,0,0,1-.77-.3,1.09,1.09,0,0,1-.3-.8V14.88a1.09,1.09,0,0,1,.3-.8,1,1,0,0,1,.77-.3h1.65a1.06,1.06,0,0,1,.79.3,1.08,1.08,0,0,1,.29.8v.78h-.9V15a.32.32,0,0,0-.36-.37h-1.29c-.23,0-.34.12-.34.37v3.11c0,.25.11.37.34.37H722a.32.32,0,0,0,.36-.37v-.64h.9v.78a1.08,1.08,0,0,1-.29.8A1.06,1.06,0,0,1,722.18,19.37Z"/><path d="M727,19.37h-1.75a1,1,0,0,1-.77-.3,1.09,1.09,0,0,1-.3-.8V14.88a1.09,1.09,0,0,1,.3-.8,1,1,0,0,1,.77-.3H727a1.06,1.06,0,0,1,.78.3,1.09,1.09,0,0,1,.3.8v3.39a1.09,1.09,0,0,1-.3.8A1.06,1.06,0,0,1,727,19.37ZM725.09,15v3.11c0,.25.11.37.34.37h1.39a.32.32,0,0,0,.36-.37V15a.32.32,0,0,0-.36-.37h-1.39C725.2,14.65,725.09,14.77,725.09,15Z"/><path d="M732.47,13.81h.84v5.52h-1l-2.25-4.11v4.11h-.84V13.81h1l2.25,4.11Z"/><path d="M737.21,15.46V15a.41.41,0,0,0-.09-.28.34.34,0,0,0-.25-.11H735.7a.33.33,0,0,0-.26.11.37.37,0,0,0-.1.28v.54a.34.34,0,0,0,.08.25.56.56,0,0,0,.28.13l1.4.32c.72.16,1.08.53,1.08,1.1v.91a1.08,1.08,0,0,1-.29.8,1.06,1.06,0,0,1-.78.3h-1.6a1.06,1.06,0,0,1-.78-.3,1.12,1.12,0,0,1-.29-.8v-.65h.88v.51a.41.41,0,0,0,.09.28.34.34,0,0,0,.26.1h1.26a.34.34,0,0,0,.26-.1.41.41,0,0,0,.09-.28v-.61a.37.37,0,0,0-.08-.26.56.56,0,0,0-.27-.13l-1.41-.31q-1.08-.26-1.08-1.11v-.83a1.09,1.09,0,0,1,.3-.8,1,1,0,0,1,.78-.3H737a1,1,0,0,1,.78.3,1.09,1.09,0,0,1,.3.8v.58Z"/><path d="M742,19.37h-1.75a1.06,1.06,0,0,1-.78-.3,1.12,1.12,0,0,1-.29-.8V14.88a1.12,1.12,0,0,1,.29-.8,1.06,1.06,0,0,1,.78-.3H742a1.06,1.06,0,0,1,.78.3,1.09,1.09,0,0,1,.3.8v3.39a1.09,1.09,0,0,1-.3.8A1.06,1.06,0,0,1,742,19.37ZM740.09,15v3.11c0,.25.11.37.34.37h1.39c.24,0,.35-.12.35-.37V15c0-.25-.11-.37-.35-.37h-1.39C740.2,14.65,740.09,14.77,740.09,15Z"/><path d="M744.22,13.81h.91v4.66h2.38v.86h-3.29Z"/><path d="M748.41,13.81h3.48v.87h-2.58v1.4h2.12v.86h-2.12v1.53h2.58v.86h-3.48Z"/><path d="M700.81,76.07v.64h1v.75h-1v2.18l-.59.13-3.05-2.36v-.7h3v-.64Zm-.69,2.77V77.46h-1.84Z"/><path d="M701.85,73.19v1.36a.9.9,0,0,1-.26.66.92.92,0,0,1-.67.24h-2.86a.93.93,0,0,1-.67-.24.89.89,0,0,1-.25-.66V73.19a.87.87,0,0,1,.25-.66.94.94,0,0,1,.67-.25h2.86a.92.92,0,0,1,.67.25A.88.88,0,0,1,701.85,73.19Zm-3.67,1.5h2.63c.2,0,.31-.09.31-.29V73.34c0-.2-.11-.29-.31-.29h-2.63c-.21,0-.31.09-.31.29V74.4C697.87,74.6,698,74.69,698.18,74.69Z"/><path d="M698.61,68.93h-.43c-.21,0-.31.1-.31.3v1.13c0,.2.1.3.31.3h2.63a.34.34,0,0,0,.23-.08.29.29,0,0,0,.08-.22V69.23a.27.27,0,0,0-.31-.3H700v.94h-.7V68.16h1.63a.92.92,0,0,1,.67.25.9.9,0,0,1,.26.66v1.45a.86.86,0,0,1-.26.65.88.88,0,0,1-.67.25h-2.86a.9.9,0,0,1-.67-.25.85.85,0,0,1-.25-.65V69.07a.89.89,0,0,1,.25-.66.94.94,0,0,1,.67-.25h.55Z"/><path d="M697.14,64.74V63.25a.87.87,0,0,1,.25-.66.94.94,0,0,1,.67-.25h2.86a1,1,0,0,1,.62.2.8.8,0,0,1,.29.54l.62-.23v.61l-.6.24v1a.86.86,0,0,1-.26.65.88.88,0,0,1-.67.25h-2.86a.9.9,0,0,1-.67-.25A.85.85,0,0,1,697.14,64.74Zm3.21-1.09.77-.29c0-.17-.12-.25-.31-.25h-2.63c-.21,0-.31.09-.31.29v1.19c0,.19.1.29.31.29h2.63c.2,0,.31-.1.31-.29V64l-.77.29Z"/><path d="M698.56,59.16h-.38a.36.36,0,0,0-.24.08.29.29,0,0,0-.08.21v1a.33.33,0,0,0,.08.22.36.36,0,0,0,.24.08h.46a.26.26,0,0,0,.21-.08.45.45,0,0,0,.11-.22l.27-1.19c.13-.61.44-.91.93-.91h.76a.88.88,0,0,1,.67.25.87.87,0,0,1,.26.66V60.6a.87.87,0,0,1-.26.65.92.92,0,0,1-.67.25h-.55v-.75h.44a.31.31,0,0,0,.23-.08.26.26,0,0,0,.09-.21V59.4a.28.28,0,0,0-.09-.22.36.36,0,0,0-.23-.08h-.52a.29.29,0,0,0-.22.07.54.54,0,0,0-.11.23l-.26,1.18c-.15.61-.46.92-.93.92h-.71a.94.94,0,0,1-.67-.25.89.89,0,0,1-.25-.66V59.32a.86.86,0,0,1,.92-.91h.5Z"/><path d="M701.82,57.39h-4.65V54.46h.73v2.17h1.22V54.84h.73v1.79h2Z"/><path d="M697.17,53.71V51.44a.89.89,0,0,1,.25-.66.92.92,0,0,1,.67-.25h1.11a.94.94,0,0,1,.67.25.89.89,0,0,1,.25.66V53h1.7v.76Zm2.22-.76V51.59c0-.2-.1-.29-.31-.29h-.87c-.21,0-.31.09-.31.29V53Z"/><path d="M700.64,49h-.88v.92h-.66V49h-.89v-.65h.89v-.91h.66v.91h.88Z"/><path d="M667.15,17.66v.41h-.89V17.5a1.1,1.1,0,0,1,.31-.79,1.06,1.06,0,0,1,.78-.32h1.44a1.06,1.06,0,0,1,.78.32,1.1,1.1,0,0,1,.31.79v.91a.83.83,0,0,1-.25.64,2.79,2.79,0,0,1-.84.47l-1.3.52a1,1,0,0,0-.28.14.25.25,0,0,0-.11.23v.67h2.79V22H666.2v-1.7a.81.81,0,0,1,.32-.7,3.23,3.23,0,0,1,.76-.4l1.31-.52a1.67,1.67,0,0,0,.29-.15.46.46,0,0,0,.09-.23v-.58a.42.42,0,0,0-.1-.3.36.36,0,0,0-.28-.11h-1.06a.37.37,0,0,0-.28.1A.4.4,0,0,0,667.15,17.66Z"/><path d="M667.83,112.48v-4.57l-1,.36v-.78L668,107h.73v5.53Z"/><path d="M766.36,110.22h-1l-1-2.14h-1.07v2.14h-.91V104.7h2.7a1,1,0,0,1,.77.29,1.09,1.09,0,0,1,.3.8V107a1.18,1.18,0,0,1-.22.71.93.93,0,0,1-.6.35Zm-3-3H765c.23,0,.34-.12.34-.36v-.94c0-.25-.11-.37-.34-.37h-1.61Z"/><path d="M767.35,104.7h3.48v.86h-2.57V107h2.11v.85h-2.11v1.53h2.57v.87h-3.48Z"/><path d="M774.42,106.34v-.44a.41.41,0,0,0-.1-.28.32.32,0,0,0-.25-.1H772.9a.33.33,0,0,0-.26.1.41.41,0,0,0-.09.28v.54a.33.33,0,0,0,.08.26.62.62,0,0,0,.27.12l1.4.32c.73.16,1.09.53,1.09,1.11v.9a1.09,1.09,0,0,1-.3.8,1,1,0,0,1-.78.3h-1.6a1,1,0,0,1-.77-.3,1.09,1.09,0,0,1-.3-.8v-.65h.88V109a.37.37,0,0,0,.1.28.33.33,0,0,0,.26.11h1.25a.33.33,0,0,0,.26-.11.41.41,0,0,0,.09-.28v-.61a.38.38,0,0,0-.07-.26.67.67,0,0,0-.28-.12l-1.4-.32c-.73-.17-1.09-.54-1.09-1.1v-.84a1.09,1.09,0,0,1,.3-.8,1.06,1.06,0,0,1,.78-.3h1.51a1.06,1.06,0,0,1,.78.3,1.09,1.09,0,0,1,.3.8v.58Z"/><path d="M776.51,104.7H780v.86h-2.57V107h2.12v.85h-2.12v1.53H780v.87h-3.48Z"/><path d="M784.45,105.55H783v4.67h-.91v-4.67h-1.48v-.85h3.87Z"/><path d="M836.72,64.8V59h3.59v.91h-2.65v1.52h2.19v.91h-2.19V64.8Z"/><path d="M843.7,63.37h-2l-.44,1.43h-1l1.87-5.8h1.08l1.88,5.8h-1Zm-.27-.91-.72-2.4-.73,2.4Z"/><path d="M849.72,59v4.68a1.17,1.17,0,0,1-.3.84,1.09,1.09,0,0,1-.81.31h-1.73a1.05,1.05,0,0,1-.8-.31,1.17,1.17,0,0,1-.3-.84V59h.93v4.54c0,.25.12.38.36.38h1.35a.34.34,0,0,0,.37-.38V59Z"/><path d="M851,59h.94v4.89h2.46v.91H851Z"/><path d="M858.13,59.9h-1.54v4.9h-.93V59.9h-1.54V59h4Z"/><path d="M123.27,15.05v.4h-.89v-.56a1.1,1.1,0,0,1,.31-.79,1.06,1.06,0,0,1,.78-.32h1.44a1.06,1.06,0,0,1,.78.32,1.1,1.1,0,0,1,.31.79v.91a.83.83,0,0,1-.25.64,2.6,2.6,0,0,1-.84.46l-1.3.53a1.46,1.46,0,0,0-.28.13.28.28,0,0,0-.11.24v.67H126v.87h-3.69v-1.7a.8.8,0,0,1,.32-.7,3,3,0,0,1,.76-.4l1.31-.53a1.27,1.27,0,0,0,.29-.14.46.46,0,0,0,.09-.23v-.58a.4.4,0,0,0-.1-.3.36.36,0,0,0-.28-.11h-1.06a.37.37,0,0,0-.28.1A.4.4,0,0,0,123.27,15.05Z"/><path d="M166.13,18.14h-.77v1.2h-.88v-1.2h-2.6l-.15-.7,2.81-3.63h.82v3.51h.77Zm-3.3-.82h1.65V15.14Z"/><path d="M204.63,15.37v-.32a.4.4,0,0,0-.1-.3.37.37,0,0,0-.28-.1h-1.08c-.25,0-.37.13-.37.4v1.41l.23-.2a1.32,1.32,0,0,1,.85-.38h.63a1,1,0,0,1,.78.32,1.08,1.08,0,0,1,.3.79v1.27a1.09,1.09,0,0,1-.3.79,1.06,1.06,0,0,1-.78.32H203a1.06,1.06,0,0,1-1.09-1.11V14.89A1.06,1.06,0,0,1,203,13.78h1.47a1.06,1.06,0,0,1,.78.32,1.09,1.09,0,0,1,.3.79v.48Zm-1.83,1.7v1c0,.27.12.4.37.4h1.14c.25,0,.38-.13.38-.4v-1a.39.39,0,0,0-.1-.29.36.36,0,0,0-.28-.11h-.5a1.53,1.53,0,0,0-.78.22Z"/><path d="M245.37,14.89v.79a.9.9,0,0,1-.48.83.85.85,0,0,1,.54.83v.92a1.06,1.06,0,0,1-.31.79,1,1,0,0,1-.78.32h-1.59a1.06,1.06,0,0,1-1.09-1.11v-.92a.85.85,0,0,1,.54-.83.9.9,0,0,1-.48-.83v-.79a1.06,1.06,0,0,1,1.09-1.11h1.47a1,1,0,0,1,.78.32A1.06,1.06,0,0,1,245.37,14.89Zm-1.3,2h-1c-.3,0-.46.13-.46.4v.8a.44.44,0,0,0,.1.29.38.38,0,0,0,.28.11h1.2a.36.36,0,0,0,.28-.11.4.4,0,0,0,.11-.29v-.8C244.53,17.05,244.37,16.92,244.07,16.92Zm0-2.29H243a.38.38,0,0,0-.28.11.44.44,0,0,0-.1.29v.68a.38.38,0,0,0,.09.3.43.43,0,0,0,.31.09h1a.43.43,0,0,0,.31-.09c.06-.05.08-.15.08-.3V15a.39.39,0,0,0-.1-.29A.38.38,0,0,0,244.08,14.63Z"/><path d="M124,110.22v-4.57l-1,.36v-.78l1.14-.53h.73v5.52Z"/><path d="M163,108.61V109a.39.39,0,0,0,.1.29.38.38,0,0,0,.28.11h1.15a.38.38,0,0,0,.28-.11.39.39,0,0,0,.1-.29v-.81c0-.26-.15-.39-.46-.39h-1.12V107h1.12a.46.46,0,0,0,.31-.08.44.44,0,0,0,.09-.32v-.67a.41.41,0,0,0-.1-.29.37.37,0,0,0-.28-.1h-1a.37.37,0,0,0-.28.1.41.41,0,0,0-.1.29v.39h-.91v-.53a1.08,1.08,0,0,1,1.09-1.11h1.43a1.06,1.06,0,0,1,.78.32,1.1,1.1,0,0,1,.31.79v.79a.92.92,0,0,1-.49.83.85.85,0,0,1,.55.83v.92a1.1,1.1,0,0,1-.31.79,1.06,1.06,0,0,1-.78.32h-1.55a1.08,1.08,0,0,1-1.09-1.11v-.53Z"/><path d="M205.47,105.56h-2.61v1.64l.24-.2a1.29,1.29,0,0,1,.84-.39h.58a1,1,0,0,1,.77.32,1.09,1.09,0,0,1,.3.78v1.43a1.09,1.09,0,0,1-.3.79,1.06,1.06,0,0,1-.78.32H203a1.06,1.06,0,0,1-1.09-1.11v-.54h.91V109c0,.27.12.4.37.4h1.14c.25,0,.38-.13.38-.4v-1.14a.4.4,0,0,0-.1-.3.41.41,0,0,0-.28-.1h-.44a1.38,1.38,0,0,0-.77.22l-.24.14-.91-.27V104.7h3.52Z"/><path d="M245.47,105.38,243,110.22h-1l2.42-4.66h-2.7v-.86h3.78Z"/><rect class="cls-7" x="102.95" y="26.34" width="161.76" height="73.63"/><rect class="cls-32" x="103.73" y="54.84" width="160.21" height="16.65"/><path class="cls-33" d="M144.53,54.84h-40.8V27.07h40.8Zm-39.8-1h38.8V28.07h-38.8Z"/><path class="cls-33" d="M184.34,54.84H143.53V27.07h40.81Zm-39.81-1h38.81V28.07H144.53Z"/><path class="cls-33" d="M224.14,54.84h-40.8V27.07h40.8Zm-39.8-1h38.8V28.07h-38.8Z"/><path class="cls-33" d="M263.94,54.84h-40.8V27.07h40.8Zm-39.8-1h38.8V28.07h-38.8Z"/><polygon class="cls-34" points="137.22 60.19 134.33 65.53 140.11 65.53 137.22 60.19"/><polygon class="cls-35" points="129.39 65.53 132.28 60.19 126.5 60.19 129.39 65.53"/><polygon class="cls-36" points="118.86 60.19 115.98 65.53 121.75 65.53 118.86 60.19"/><polygon class="cls-37" points="111.04 65.53 113.93 60.19 108.15 60.19 111.04 65.53"/><polygon class="cls-38" points="177.02 60.19 174.13 65.53 179.91 65.53 177.02 60.19"/><polygon class="cls-39" points="169.2 65.53 172.09 60.19 166.31 60.19 169.2 65.53"/><polygon class="cls-40" points="158.67 60.19 155.78 65.53 161.56 65.53 158.67 60.19"/><polygon class="cls-41" points="150.84 65.53 153.73 60.19 147.96 60.19 150.84 65.53"/><polygon class="cls-42" points="256.63 60.19 253.74 65.53 259.52 65.53 256.63 60.19"/><polygon class="cls-43" points="248.81 65.53 251.69 60.19 245.92 60.19 248.81 65.53"/><polygon class="cls-44" points="238.28 60.19 235.39 65.53 241.16 65.53 238.28 60.19"/><polygon class="cls-45" points="230.45 65.53 233.34 60.19 227.56 60.19 230.45 65.53"/><polygon class="cls-46" points="216.82 60.19 213.94 65.53 219.71 65.53 216.82 60.19"/><polygon class="cls-47" points="209 65.53 211.89 60.19 206.11 60.19 209 65.53"/><polygon class="cls-48" points="198.47 60.19 195.58 65.53 201.36 65.53 198.47 60.19"/><polygon class="cls-49" points="190.65 65.53 193.54 60.19 187.76 60.19 190.65 65.53"/><path class="cls-7" d="M116.34,53.56h15.59a0,0,0,0,1,0,0v1.79a.46.46,0,0,1-.46.46H116.8a.46.46,0,0,1-.46-.46V53.56A0,0,0,0,1,116.34,53.56Z"/><rect class="cls-33" x="117.53" y="52.37" width="13.2" height="1.8"/><path class="cls-7" d="M156.14,53.56h15.59a0,0,0,0,1,0,0v1.79a.46.46,0,0,1-.46.46H156.6a.46.46,0,0,1-.46-.46V53.56A0,0,0,0,1,156.14,53.56Z"/><rect class="cls-33" x="157.33" y="52.37" width="13.2" height="1.8"/><path class="cls-7" d="M195.94,53.56h15.59a0,0,0,0,1,0,0v1.79a.46.46,0,0,1-.46.46H196.41a.46.46,0,0,1-.46-.46V53.56A0,0,0,0,1,195.94,53.56Z"/><rect class="cls-33" x="197.14" y="52.37" width="13.2" height="1.8"/><path class="cls-7" d="M235.75,53.56h15.59a0,0,0,0,1,0,0v1.79a.46.46,0,0,1-.46.46H236.21a.46.46,0,0,1-.46-.46V53.56A0,0,0,0,1,235.75,53.56Z"/><rect class="cls-33" x="236.94" y="52.37" width="13.2" height="1.8"/><path class="cls-33" d="M223.14,71.48h40.8V99.25h-40.8Zm39.8,1h-38.8V98.25h38.8Z"/><path class="cls-33" d="M183.33,71.48h40.81V99.25H183.33Zm39.81,1H184.33V98.25h38.81Z"/><path class="cls-33" d="M143.53,71.48h40.8V99.25h-40.8Zm39.8,1h-38.8V98.25h38.8Z"/><path class="cls-33" d="M103.73,71.48h40.8V99.25h-40.8Zm39.8,1h-38.8V98.25h38.8Z"/><path class="cls-7" d="M235.75,70.51h15.59a0,0,0,0,1,0,0V72.3a.46.46,0,0,1-.46.46H236.21a.46.46,0,0,1-.46-.46V70.51A0,0,0,0,1,235.75,70.51Z" transform="translate(487.08 143.26) rotate(180)"/><rect class="cls-33" x="236.94" y="72.15" width="13.2" height="1.8" transform="translate(487.08 146.1) rotate(180)"/><path class="cls-7" d="M195.94,70.51h15.59a0,0,0,0,1,0,0V72.3a.46.46,0,0,1-.46.46H196.4a.46.46,0,0,1-.46-.46V70.51A0,0,0,0,1,195.94,70.51Z" transform="translate(407.47 143.26) rotate(180)"/><rect class="cls-33" x="197.14" y="72.15" width="13.2" height="1.8" transform="translate(407.47 146.1) rotate(180)"/><path class="cls-7" d="M156.14,70.51h15.59a0,0,0,0,1,0,0V72.3a.46.46,0,0,1-.46.46H156.6a.46.46,0,0,1-.46-.46V70.51A0,0,0,0,1,156.14,70.51Z" transform="translate(327.87 143.26) rotate(180)"/><rect class="cls-33" x="157.33" y="72.15" width="13.2" height="1.8" transform="translate(327.87 146.1) rotate(180)"/><path class="cls-7" d="M116.34,70.51h15.59a0,0,0,0,1,0,0V72.3a.46.46,0,0,1-.46.46H116.8a.46.46,0,0,1-.46-.46V70.51A0,0,0,0,1,116.34,70.51Z" transform="translate(248.26 143.26) rotate(180)"/><rect class="cls-33" x="117.53" y="72.15" width="13.2" height="1.8" transform="translate(248.26 146.1) rotate(180)"/><path d="M476.18,19.34V14.77l-1,.36v-.78l1.14-.54h.73v5.53Z"/><path d="M482,14.89v.79a.9.9,0,0,1-.48.83.85.85,0,0,1,.54.83v.92a1.06,1.06,0,0,1-.31.79,1,1,0,0,1-.78.32h-1.59a1.06,1.06,0,0,1-1.09-1.11v-.92a.85.85,0,0,1,.54-.83.9.9,0,0,1-.48-.83v-.79a1.06,1.06,0,0,1,1.09-1.11h1.47a1,1,0,0,1,.78.32A1.06,1.06,0,0,1,482,14.89Zm-1.3,2h-1c-.3,0-.45.13-.45.4v.8a.44.44,0,0,0,.09.29.38.38,0,0,0,.28.11h1.2a.36.36,0,0,0,.28-.11.4.4,0,0,0,.11-.29v-.8C481.17,17.05,481,16.92,480.71,16.92Zm0-2.29h-1.08a.38.38,0,0,0-.28.11.44.44,0,0,0-.09.29v.68c0,.15,0,.25.08.3a.43.43,0,0,0,.31.09h1A.43.43,0,0,0,481,16a.38.38,0,0,0,.09-.3V15a.4.4,0,0,0-.11-.29A.36.36,0,0,0,480.72,14.63Z"/><path d="M515.26,15.05v.4h-.89v-.56a1.1,1.1,0,0,1,.31-.79,1.06,1.06,0,0,1,.78-.32h1.44a1.06,1.06,0,0,1,.78.32,1.1,1.1,0,0,1,.31.79v.91a.83.83,0,0,1-.25.64,2.6,2.6,0,0,1-.84.46l-1.31.53a1.69,1.69,0,0,0-.27.13.28.28,0,0,0-.11.24v.67H518v.87h-3.69v-1.7a.8.8,0,0,1,.32-.7,3,3,0,0,1,.76-.4L516.7,16a1.55,1.55,0,0,0,.29-.14.46.46,0,0,0,.09-.23v-.58a.4.4,0,0,0-.1-.3.36.36,0,0,0-.28-.11h-1.06a.37.37,0,0,0-.28.1A.4.4,0,0,0,515.26,15.05Z"/><path d="M521.6,19.37H520a1,1,0,0,1-.78-.3,1.08,1.08,0,0,1-.29-.8V14.88a1.08,1.08,0,0,1,.29-.8,1,1,0,0,1,.78-.3h1.62a1,1,0,0,1,.77.3,1.09,1.09,0,0,1,.3.8v3.39a1.09,1.09,0,0,1-.3.8A1,1,0,0,1,521.6,19.37ZM519.81,15v3.11c0,.25.12.37.35.37h1.26c.23,0,.34-.12.34-.37V15c0-.25-.11-.37-.34-.37h-1.26C519.93,14.65,519.81,14.77,519.81,15Z"/><path d="M555.18,15.05v.4h-.88v-.56a1.06,1.06,0,0,1,.31-.79,1,1,0,0,1,.77-.32h1.44a1.06,1.06,0,0,1,.78.32,1.1,1.1,0,0,1,.31.79v.91a.86.86,0,0,1-.24.64,2.68,2.68,0,0,1-.85.46l-1.3.53a1.46,1.46,0,0,0-.28.13.28.28,0,0,0-.11.24v.67h2.79v.87h-3.69v-1.7a.83.83,0,0,1,.32-.7,3.23,3.23,0,0,1,.76-.4l1.32-.53a1.36,1.36,0,0,0,.28-.14.46.46,0,0,0,.09-.23v-.58a.45.45,0,0,0-.09-.3.38.38,0,0,0-.28-.11h-1.07a.37.37,0,0,0-.28.1A.4.4,0,0,0,555.18,15.05Z"/><path d="M559.73,15.05v.4h-.89v-.56a1.1,1.1,0,0,1,.31-.79,1.06,1.06,0,0,1,.78-.32h1.44a1.06,1.06,0,0,1,.78.32,1.1,1.1,0,0,1,.31.79v.91a.83.83,0,0,1-.25.64,2.6,2.6,0,0,1-.84.46l-1.31.53a1.69,1.69,0,0,0-.27.13.26.26,0,0,0-.11.24v.67h2.79v.87h-3.69v-1.7a.8.8,0,0,1,.32-.7,3,3,0,0,1,.76-.4l1.31-.53a1.55,1.55,0,0,0,.29-.14.46.46,0,0,0,.09-.23v-.58a.4.4,0,0,0-.1-.3.36.36,0,0,0-.28-.11h-1.06a.37.37,0,0,0-.28.1A.4.4,0,0,0,559.73,15.05Z"/><path d="M595,15.05v.4h-.88v-.56a1.08,1.08,0,0,1,1.09-1.11h1.44a1,1,0,0,1,.77.32,1.06,1.06,0,0,1,.31.79v.91a.86.86,0,0,1-.24.64,2.6,2.6,0,0,1-.84.46l-1.31.53a1.82,1.82,0,0,0-.28.13.27.27,0,0,0-.1.24v.67h2.79v.87H594v-1.7a.81.81,0,0,1,.33-.7,3,3,0,0,1,.76-.4l1.31-.53a1.55,1.55,0,0,0,.29-.14.46.46,0,0,0,.09-.23v-.58a.4.4,0,0,0-.1-.3.38.38,0,0,0-.28-.11h-1.06a.36.36,0,0,0-.28.1A.41.41,0,0,0,595,15.05Z"/><path d="M602.47,18.14h-.77v1.2h-.88v-1.2h-2.59l-.15-.7,2.8-3.63h.82v3.51h.77Zm-3.29-.82h1.64V15.14Z"/><path d="M476.39,110.22v-4.57l-1,.36v-.78l1.14-.53h.73v5.52Z"/><path d="M482.11,105.38l-2.52,4.84h-1l2.42-4.66h-2.7v-.86h3.78Z"/><path d="M516,110.22v-4.57l-1,.36v-.78l1.14-.53h.73v5.52Z"/><path d="M519.09,108.66V109a.35.35,0,0,0,.39.4h1.06c.26,0,.38-.13.38-.4v-1.46l-.23.2a1.36,1.36,0,0,1-.84.38h-.65a1.06,1.06,0,0,1-.78-.31,1.09,1.09,0,0,1-.3-.79v-1.23a1.06,1.06,0,0,1,.31-.79,1,1,0,0,1,.78-.32h1.53a1,1,0,0,1,.78.32,1.06,1.06,0,0,1,.31.79v3.37a1.06,1.06,0,0,1-.31.79,1,1,0,0,1-.78.32h-1.47a1,1,0,0,1-.77-.32,1.06,1.06,0,0,1-.31-.79v-.48Zm1.83-1.75v-1c0-.27-.12-.4-.38-.4h-1.13a.4.4,0,0,0-.28.1.41.41,0,0,0-.11.3v.94a.35.35,0,0,0,.4.4h.5a1.51,1.51,0,0,0,.77-.21Z"/><path d="M556,105.93v.41h-.88v-.57a1.06,1.06,0,0,1,.31-.79,1,1,0,0,1,.77-.32h1.44a1.06,1.06,0,0,1,.78.32,1.1,1.1,0,0,1,.31.79v.91a.86.86,0,0,1-.24.64,2.87,2.87,0,0,1-.85.47l-1.3.52a1,1,0,0,0-.28.14.25.25,0,0,0-.11.23v.67h2.79v.87H555v-1.7a.84.84,0,0,1,.32-.7,3.23,3.23,0,0,1,.76-.4l1.32-.52a1.87,1.87,0,0,0,.28-.15.46.46,0,0,0,.09-.23v-.58a.49.49,0,0,0-.09-.3.38.38,0,0,0-.28-.11h-1.07a.41.41,0,0,0-.28.1A.4.4,0,0,0,556,105.93Z"/><path d="M560.41,110.22v-4.57l-1,.36v-.78l1.14-.53h.73v5.52Z"/><path d="M595,105.93v.41h-.88v-.57a1.08,1.08,0,0,1,1.09-1.11h1.44a1,1,0,0,1,.77.32,1.06,1.06,0,0,1,.31.79v.91a.86.86,0,0,1-.24.64,2.79,2.79,0,0,1-.84.47l-1.31.52a1.22,1.22,0,0,0-.28.14.24.24,0,0,0-.1.23v.67h2.79v.87H594v-1.7a.82.82,0,0,1,.33-.7,3,3,0,0,1,.76-.4l1.31-.52.29-.15a.46.46,0,0,0,.09-.23v-.58a.44.44,0,0,0-.1-.3.38.38,0,0,0-.28-.11h-1.06a.4.4,0,0,0-.28.1A.41.41,0,0,0,595,105.93Z"/><path d="M599.41,108.61V109a.39.39,0,0,0,.1.29.36.36,0,0,0,.28.11h1.15a.38.38,0,0,0,.28-.11.39.39,0,0,0,.1-.29v-.81c0-.26-.15-.39-.46-.39h-1.12V107h1.12a.46.46,0,0,0,.31-.08.44.44,0,0,0,.09-.32v-.67a.41.41,0,0,0-.1-.29.38.38,0,0,0-.29-.1h-1a.36.36,0,0,0-.28.1.41.41,0,0,0-.1.29v.39h-.91v-.53a1.06,1.06,0,0,1,.31-.79,1,1,0,0,1,.78-.32h1.43a1.06,1.06,0,0,1,.78.32,1.1,1.1,0,0,1,.31.79v.79a.92.92,0,0,1-.49.83.85.85,0,0,1,.55.83v.92a1.1,1.1,0,0,1-.31.79,1.06,1.06,0,0,1-.78.32h-1.55a1,1,0,0,1-.78-.32,1.06,1.06,0,0,1-.31-.79v-.53Z"/><rect class="cls-7" x="457.53" y="26.34" width="161.76" height="73.63"/><rect class="cls-50" x="458.31" y="54.84" width="160.21" height="16.65"/><path class="cls-33" d="M499.11,54.84h-40.8V27.07h40.8Zm-39.8-1h38.8V28.07h-38.8Z"/><path class="cls-33" d="M538.91,54.84h-40.8V27.07h40.8Zm-39.8-1h38.8V28.07h-38.8Z"/><path class="cls-33" d="M578.72,54.84H537.91V27.07h40.81Zm-39.81-1h38.81V28.07H538.91Z"/><path class="cls-33" d="M618.52,54.84h-40.8V27.07h40.8Zm-39.8-1h38.8V28.07h-38.8Z"/><polygon class="cls-51" points="491.8 60.19 488.91 65.53 494.69 65.53 491.8 60.19"/><polygon class="cls-52" points="483.97 65.53 486.86 60.19 481.08 60.19 483.97 65.53"/><polygon class="cls-53" points="473.44 60.19 470.56 65.53 476.33 65.53 473.44 60.19"/><polygon class="cls-54" points="465.62 65.53 468.51 60.19 462.73 60.19 465.62 65.53"/><polygon class="cls-55" points="531.6 60.19 528.71 65.53 534.49 65.53 531.6 60.19"/><polygon class="cls-56" points="523.78 65.53 526.67 60.19 520.89 60.19 523.78 65.53"/><polygon class="cls-57" points="513.25 60.19 510.36 65.53 516.14 65.53 513.25 60.19"/><polygon class="cls-58" points="505.42 65.53 508.31 60.19 502.54 60.19 505.42 65.53"/><polygon class="cls-59" points="611.21 60.19 608.32 65.53 614.1 65.53 611.21 60.19"/><polygon class="cls-60" points="603.38 65.53 606.27 60.19 600.5 60.19 603.38 65.53"/><polygon class="cls-61" points="592.85 60.19 589.97 65.53 595.74 65.53 592.85 60.19"/><polygon class="cls-62" points="585.03 65.53 587.92 60.19 582.14 60.19 585.03 65.53"/><polygon class="cls-63" points="571.4 60.19 568.51 65.53 574.29 65.53 571.4 60.19"/><polygon class="cls-64" points="563.58 65.53 566.47 60.19 560.69 60.19 563.58 65.53"/><polygon class="cls-65" points="553.05 60.19 550.16 65.53 555.94 65.53 553.05 60.19"/><polygon class="cls-66" points="545.23 65.53 548.12 60.19 542.34 60.19 545.23 65.53"/><path class="cls-7" d="M470.92,53.56H486.5a0,0,0,0,1,0,0v1.79a.46.46,0,0,1-.46.46H471.38a.46.46,0,0,1-.46-.46V53.56A0,0,0,0,1,470.92,53.56Z"/><rect class="cls-33" x="472.11" y="52.37" width="13.2" height="1.8"/><path class="cls-7" d="M510.72,53.56H526.3a0,0,0,0,1,0,0v1.79a.46.46,0,0,1-.46.46H511.18a.46.46,0,0,1-.46-.46V53.56A0,0,0,0,1,510.72,53.56Z"/><rect class="cls-33" x="511.91" y="52.37" width="13.2" height="1.8"/><path class="cls-7" d="M550.52,53.56h15.59a0,0,0,0,1,0,0v1.79a.46.46,0,0,1-.46.46H551a.46.46,0,0,1-.46-.46V53.56A0,0,0,0,1,550.52,53.56Z"/><rect class="cls-33" x="551.71" y="52.37" width="13.2" height="1.8"/><path class="cls-7" d="M590.33,53.56h15.59a0,0,0,0,1,0,0v1.79a.46.46,0,0,1-.46.46H590.79a.46.46,0,0,1-.46-.46V53.56A0,0,0,0,1,590.33,53.56Z"/><rect class="cls-33" x="591.52" y="52.37" width="13.2" height="1.8"/><path class="cls-33" d="M577.72,71.48h40.8V99.25h-40.8Zm39.8,1h-38.8V98.25h38.8Z"/><path class="cls-33" d="M537.91,71.48h40.81V99.25H537.91Zm39.81,1H538.91V98.25h38.81Z"/><path class="cls-33" d="M498.11,71.48h40.8V99.25h-40.8Zm39.8,1h-38.8V98.25h38.8Z"/><path class="cls-33" d="M458.31,71.48h40.8V99.25h-40.8Zm39.8,1h-38.8V98.25h38.8Z"/><path class="cls-7" d="M590.33,70.51h15.59a0,0,0,0,1,0,0V72.3a.46.46,0,0,1-.46.46H590.79a.46.46,0,0,1-.46-.46V70.51A0,0,0,0,1,590.33,70.51Z" transform="translate(1196.24 143.26) rotate(180)"/><rect class="cls-33" x="591.52" y="72.15" width="13.2" height="1.8" transform="translate(1196.24 146.1) rotate(180)"/><path class="cls-7" d="M550.52,70.51h15.59a0,0,0,0,1,0,0V72.3a.46.46,0,0,1-.46.46H551a.46.46,0,0,1-.46-.46V70.51A0,0,0,0,1,550.52,70.51Z" transform="translate(1116.63 143.26) rotate(180)"/><rect class="cls-33" x="551.71" y="72.15" width="13.2" height="1.8" transform="translate(1116.63 146.1) rotate(180)"/><path class="cls-7" d="M510.72,70.51H526.3a0,0,0,0,1,0,0V72.3a.46.46,0,0,1-.46.46H511.18a.46.46,0,0,1-.46-.46V70.51A0,0,0,0,1,510.72,70.51Z" transform="translate(1037.02 143.26) rotate(180)"/><rect class="cls-33" x="511.91" y="72.15" width="13.2" height="1.8" transform="translate(1037.02 146.1) rotate(180)"/><path class="cls-7" d="M470.92,70.51H486.5a0,0,0,0,1,0,0V72.3a.46.46,0,0,1-.46.46H471.38a.46.46,0,0,1-.46-.46V70.51A0,0,0,0,1,470.92,70.51Z" transform="translate(957.42 143.26) rotate(180)"/><rect class="cls-33" x="472.11" y="72.15" width="13.2" height="1.8" transform="translate(957.42 146.1) rotate(180)"/><path d="M298.89,19.34V14.77l-1,.36v-.78l1.14-.54h.73v5.53Z"/><path d="M304.72,14.89v.79a.9.9,0,0,1-.48.83.85.85,0,0,1,.54.83v.92a1.06,1.06,0,0,1-.31.79,1,1,0,0,1-.77.32h-1.6A1.06,1.06,0,0,1,301,18.26v-.92a.85.85,0,0,1,.54-.83.9.9,0,0,1-.48-.83v-.79a1.06,1.06,0,0,1,1.09-1.11h1.48a1,1,0,0,1,.77.32A1.06,1.06,0,0,1,304.72,14.89Zm-1.3,2h-1.05c-.3,0-.45.13-.45.4v.8a.44.44,0,0,0,.09.29.38.38,0,0,0,.28.11h1.2a.4.4,0,0,0,.29-.11.44.44,0,0,0,.1-.29v-.8C303.88,17.05,303.72,16.92,303.42,16.92Zm0-2.29h-1.08a.38.38,0,0,0-.28.11A.44.44,0,0,0,302,15v.68a.43.43,0,0,0,.08.3.43.43,0,0,0,.31.09h1.05a.43.43,0,0,0,.31-.09.38.38,0,0,0,.09-.3V15a.4.4,0,0,0-.11-.29A.36.36,0,0,0,303.43,14.63Z"/><path d="M338,15.05v.4h-.89v-.56a1.1,1.1,0,0,1,.31-.79,1.06,1.06,0,0,1,.78-.32h1.44a1.06,1.06,0,0,1,.78.32,1.1,1.1,0,0,1,.31.79v.91a.83.83,0,0,1-.25.64,2.6,2.6,0,0,1-.84.46l-1.31.53a1.69,1.69,0,0,0-.27.13.28.28,0,0,0-.11.24v.67h2.79v.87H337v-1.7a.8.8,0,0,1,.32-.7,3,3,0,0,1,.76-.4l1.31-.53a1.55,1.55,0,0,0,.29-.14.46.46,0,0,0,.09-.23v-.58a.4.4,0,0,0-.1-.3.36.36,0,0,0-.28-.11h-1.06a.37.37,0,0,0-.28.1A.4.4,0,0,0,338,15.05Z"/><path d="M344.31,19.37h-1.62a1,1,0,0,1-.78-.3,1.08,1.08,0,0,1-.29-.8V14.88a1.08,1.08,0,0,1,.29-.8,1,1,0,0,1,.78-.3h1.62a1,1,0,0,1,.77.3,1.09,1.09,0,0,1,.3.8v3.39a1.09,1.09,0,0,1-.3.8A1,1,0,0,1,344.31,19.37ZM342.52,15v3.11c0,.25.12.37.35.37h1.26c.23,0,.34-.12.34-.37V15c0-.25-.11-.37-.34-.37h-1.26C342.64,14.65,342.52,14.77,342.52,15Z"/><path d="M377.89,15.05v.4H377v-.56a1.06,1.06,0,0,1,.31-.79,1,1,0,0,1,.77-.32h1.44a1.08,1.08,0,0,1,1.09,1.11v.91a.86.86,0,0,1-.24.64,2.56,2.56,0,0,1-.85.46l-1.3.53a1.46,1.46,0,0,0-.28.13.28.28,0,0,0-.11.24v.67h2.79v.87h-3.69v-1.7a.83.83,0,0,1,.32-.7,3.13,3.13,0,0,1,.77-.4l1.31-.53a1.36,1.36,0,0,0,.28-.14.46.46,0,0,0,.09-.23v-.58a.45.45,0,0,0-.09-.3.38.38,0,0,0-.28-.11h-1.07a.37.37,0,0,0-.28.1A.4.4,0,0,0,377.89,15.05Z"/><path d="M382.44,15.05v.4h-.89v-.56a1.1,1.1,0,0,1,.31-.79,1.06,1.06,0,0,1,.78-.32h1.44a1.06,1.06,0,0,1,.78.32,1.1,1.1,0,0,1,.31.79v.91a.83.83,0,0,1-.25.64,2.6,2.6,0,0,1-.84.46l-1.3.53a1.46,1.46,0,0,0-.28.13.28.28,0,0,0-.11.24v.67h2.79v.87h-3.69v-1.7a.8.8,0,0,1,.32-.7,3.23,3.23,0,0,1,.76-.4l1.31-.53a1.27,1.27,0,0,0,.29-.14.46.46,0,0,0,.09-.23v-.58a.4.4,0,0,0-.1-.3.36.36,0,0,0-.28-.11h-1.06a.37.37,0,0,0-.28.1A.4.4,0,0,0,382.44,15.05Z"/><path d="M417.67,15.05v.4h-.88v-.56a1.1,1.1,0,0,1,.31-.79,1.06,1.06,0,0,1,.78-.32h1.44a1,1,0,0,1,.77.32,1.06,1.06,0,0,1,.31.79v.91a.86.86,0,0,1-.24.64,2.6,2.6,0,0,1-.84.46l-1.31.53a1.69,1.69,0,0,0-.27.13.26.26,0,0,0-.11.24v.67h2.79v.87h-3.7v-1.7a.81.81,0,0,1,.33-.7,3,3,0,0,1,.76-.4l1.31-.53a1.55,1.55,0,0,0,.29-.14.46.46,0,0,0,.09-.23v-.58a.4.4,0,0,0-.1-.3.36.36,0,0,0-.28-.11h-1.06a.36.36,0,0,0-.28.1A.41.41,0,0,0,417.67,15.05Z"/><path d="M425.18,18.14h-.76v1.2h-.89v-1.2h-2.59l-.15-.7,2.8-3.63h.83v3.51h.76Zm-3.29-.82h1.64V15.14Z"/><path d="M299.1,110.22v-4.57l-1,.36v-.78l1.14-.53H300v5.52Z"/><path d="M304.82,105.38l-2.52,4.84h-1l2.42-4.66H301v-.86h3.78Z"/><path d="M338.69,110.22v-4.57l-1,.36v-.78l1.14-.53h.73v5.52Z"/><path d="M341.8,108.66V109a.35.35,0,0,0,.39.4h1.06a.35.35,0,0,0,.39-.4v-1.46l-.24.2a1.34,1.34,0,0,1-.84.38h-.65a1.06,1.06,0,0,1-.78-.31,1.09,1.09,0,0,1-.3-.79v-1.23a1.08,1.08,0,0,1,1.09-1.11h1.54a1,1,0,0,1,.77.32,1.06,1.06,0,0,1,.31.79v3.37a1.06,1.06,0,0,1-.31.79,1,1,0,0,1-.77.32H342a1,1,0,0,1-.77-.32,1.06,1.06,0,0,1-.31-.79v-.48Zm1.84-1.75v-1a.35.35,0,0,0-.39-.4h-1.13a.41.41,0,0,0-.28.1.4.4,0,0,0-.1.3v.94a.35.35,0,0,0,.39.4h.5a1.51,1.51,0,0,0,.77-.21Z"/><path d="M378.69,105.93v.41h-.88v-.57a1.06,1.06,0,0,1,.31-.79,1,1,0,0,1,.77-.32h1.44a1.08,1.08,0,0,1,1.09,1.11v.91a.86.86,0,0,1-.24.64,2.74,2.74,0,0,1-.85.47l-1.3.52a1,1,0,0,0-.28.14.25.25,0,0,0-.11.23v.67h2.79v.87h-3.69v-1.7a.84.84,0,0,1,.32-.7,3.13,3.13,0,0,1,.77-.4l1.31-.52a1.87,1.87,0,0,0,.28-.15.46.46,0,0,0,.09-.23v-.58a.49.49,0,0,0-.09-.3.38.38,0,0,0-.28-.11h-1.07a.41.41,0,0,0-.28.1A.4.4,0,0,0,378.69,105.93Z"/><path d="M383.12,110.22v-4.57l-1,.36v-.78l1.14-.53H384v5.52Z"/><path d="M417.67,105.93v.41h-.88v-.57a1.1,1.1,0,0,1,.31-.79,1.06,1.06,0,0,1,.78-.32h1.44a1,1,0,0,1,.77.32,1.06,1.06,0,0,1,.31.79v.91a.86.86,0,0,1-.24.64,2.79,2.79,0,0,1-.84.47l-1.31.52a1.15,1.15,0,0,0-.27.14.23.23,0,0,0-.11.23v.67h2.79v.87h-3.7v-1.7a.82.82,0,0,1,.33-.7,3,3,0,0,1,.76-.4l1.31-.52.29-.15a.46.46,0,0,0,.09-.23v-.58a.44.44,0,0,0-.1-.3.36.36,0,0,0-.28-.11h-1.06a.4.4,0,0,0-.28.1A.41.41,0,0,0,417.67,105.93Z"/><path d="M422.12,108.61V109a.39.39,0,0,0,.1.29.38.38,0,0,0,.28.11h1.15a.38.38,0,0,0,.28-.11.39.39,0,0,0,.1-.29v-.81c0-.26-.15-.39-.46-.39h-1.12V107h1.12a.46.46,0,0,0,.31-.08.44.44,0,0,0,.09-.32v-.67a.41.41,0,0,0-.1-.29.37.37,0,0,0-.28-.1h-1a.37.37,0,0,0-.28.1.41.41,0,0,0-.1.29v.39h-.91v-.53a1.08,1.08,0,0,1,1.09-1.11h1.43a1.06,1.06,0,0,1,.78.32,1.1,1.1,0,0,1,.31.79v.79a.92.92,0,0,1-.49.83.85.85,0,0,1,.55.83v.92a1.1,1.1,0,0,1-.31.79,1.06,1.06,0,0,1-.78.32H422.3a1.08,1.08,0,0,1-1.09-1.11v-.53Z"/><rect class="cls-7" x="280.24" y="26.34" width="161.76" height="73.63"/><rect class="cls-67" x="281.02" y="54.84" width="160.21" height="16.65"/><path class="cls-33" d="M321.82,54.84H281V27.07h40.8Zm-39.8-1h38.8V28.07H282Z"/><path class="cls-33" d="M361.62,54.84h-40.8V27.07h40.8Zm-39.8-1h38.8V28.07h-38.8Z"/><path class="cls-33" d="M401.43,54.84H360.62V27.07h40.81Zm-39.81-1h38.81V28.07H361.62Z"/><path class="cls-33" d="M441.23,54.84h-40.8V27.07h40.8Zm-39.8-1h38.8V28.07h-38.8Z"/><polygon class="cls-68" points="314.51 60.19 311.62 65.53 317.4 65.53 314.51 60.19"/><polygon class="cls-69" points="306.68 65.53 309.57 60.19 303.8 60.19 306.68 65.53"/><polygon class="cls-70" points="296.15 60.19 293.26 65.53 299.04 65.53 296.15 60.19"/><polygon class="cls-71" points="288.33 65.53 291.22 60.19 285.44 60.19 288.33 65.53"/><polygon class="cls-72" points="354.31 60.19 351.42 65.53 357.2 65.53 354.31 60.19"/><polygon class="cls-73" points="346.49 65.53 349.38 60.19 343.6 60.19 346.49 65.53"/><polygon class="cls-74" points="335.96 60.19 333.07 65.53 338.85 65.53 335.96 60.19"/><polygon class="cls-75" points="328.13 65.53 331.02 60.19 325.25 60.19 328.13 65.53"/><polygon class="cls-76" points="433.92 60.19 431.03 65.53 436.81 65.53 433.92 60.19"/><polygon class="cls-77" points="426.1 65.53 428.98 60.19 423.21 60.19 426.1 65.53"/><polygon class="cls-78" points="415.56 60.19 412.68 65.53 418.45 65.53 415.56 60.19"/><polygon class="cls-79" points="407.74 65.53 410.63 60.19 404.85 60.19 407.74 65.53"/><polygon class="cls-80" points="394.11 60.19 391.23 65.53 397 65.53 394.11 60.19"/><polygon class="cls-81" points="386.29 65.53 389.18 60.19 383.4 60.19 386.29 65.53"/><polygon class="cls-82" points="375.76 60.19 372.87 65.53 378.65 65.53 375.76 60.19"/><polygon class="cls-83" points="367.94 65.53 370.83 60.19 365.05 60.19 367.94 65.53"/><path class="cls-7" d="M293.63,53.56h15.59a0,0,0,0,1,0,0v1.79a.46.46,0,0,1-.46.46H294.09a.46.46,0,0,1-.46-.46V53.56A0,0,0,0,1,293.63,53.56Z"/><rect class="cls-33" x="294.82" y="52.37" width="13.2" height="1.8"/><path class="cls-7" d="M333.43,53.56H349a0,0,0,0,1,0,0v1.79a.46.46,0,0,1-.46.46H333.89a.46.46,0,0,1-.46-.46V53.56A0,0,0,0,1,333.43,53.56Z"/><rect class="cls-33" x="334.62" y="52.37" width="13.2" height="1.8"/><path class="cls-7" d="M373.23,53.56h15.59a0,0,0,0,1,0,0v1.79a.46.46,0,0,1-.46.46H373.69a.46.46,0,0,1-.46-.46V53.56A0,0,0,0,1,373.23,53.56Z"/><rect class="cls-33" x="374.42" y="52.37" width="13.2" height="1.8"/><path class="cls-7" d="M413,53.56h15.59a0,0,0,0,1,0,0v1.79a.46.46,0,0,1-.46.46H413.5a.46.46,0,0,1-.46-.46V53.56A0,0,0,0,1,413,53.56Z"/><rect class="cls-33" x="414.23" y="52.37" width="13.2" height="1.8"/><path class="cls-33" d="M400.43,71.48h40.8V99.25h-40.8Zm39.8,1h-38.8V98.25h38.8Z"/><path class="cls-33" d="M360.62,71.48h40.81V99.25H360.62Zm39.81,1H361.62V98.25h38.81Z"/><path class="cls-33" d="M320.82,71.48h40.8V99.25h-40.8Zm39.8,1h-38.8V98.25h38.8Z"/><path class="cls-33" d="M281,71.48h40.8V99.25H281Zm39.8,1H282V98.25h38.8Z"/><path class="cls-7" d="M413,70.51h15.59a0,0,0,0,1,0,0V72.3a.46.46,0,0,1-.46.46H413.5a.46.46,0,0,1-.46-.46V70.51A0,0,0,0,1,413,70.51Z" transform="translate(841.66 143.26) rotate(180)"/><rect class="cls-33" x="414.23" y="72.15" width="13.2" height="1.8" transform="translate(841.66 146.1) rotate(180)"/><path class="cls-7" d="M373.23,70.51h15.59a0,0,0,0,1,0,0V72.3a.46.46,0,0,1-.46.46H373.69a.46.46,0,0,1-.46-.46V70.51A0,0,0,0,1,373.23,70.51Z" transform="translate(762.05 143.26) rotate(180)"/><rect class="cls-33" x="374.42" y="72.15" width="13.2" height="1.8" transform="translate(762.05 146.1) rotate(180)"/><path class="cls-7" d="M333.43,70.51H349a0,0,0,0,1,0,0V72.3a.46.46,0,0,1-.46.46H333.89a.46.46,0,0,1-.46-.46V70.51A0,0,0,0,1,333.43,70.51Z" transform="translate(682.45 143.26) rotate(180)"/><rect class="cls-33" x="334.62" y="72.15" width="13.2" height="1.8" transform="translate(682.45 146.1) rotate(180)"/><path class="cls-7" d="M293.63,70.51h15.59a0,0,0,0,1,0,0V72.3a.46.46,0,0,1-.46.46H294.09a.46.46,0,0,1-.46-.46V70.51A0,0,0,0,1,293.63,70.51Z" transform="translate(602.84 143.26) rotate(180)"/><rect class="cls-33" x="294.82" y="72.15" width="13.2" height="1.8" transform="translate(602.84 146.1) rotate(180)"/><polygon class="cls-84" points="686.79 59.39 683.9 66.31 689.68 66.31 686.79 59.39"/><rect class="cls-7" x="654.56" y="59.49" width="5.1" height="2.53"/><rect class="cls-7" x="661.86" y="59.49" width="5.1" height="2.53"/><rect class="cls-7" x="669.16" y="59.49" width="5.1" height="2.53"/><rect class="cls-7" x="676.46" y="59.49" width="5.1" height="2.53"/><rect class="cls-7" x="654.56" y="64.2" width="5.1" height="2.53"/><rect class="cls-7" x="661.86" y="64.2" width="5.1" height="2.53"/><rect class="cls-7" x="669.16" y="64.2" width="5.1" height="2.53"/><rect class="cls-7" x="676.46" y="64.2" width="5.1" height="2.53"/><path class="cls-33" d="M694.22,54.86H639.94V27.09h54.28Zm-53-1h51.62V28.09H641.27Z"/><path class="cls-33" d="M639.94,71.5h54.28V99.27H639.94Zm52.95,1H641.27V98.27h51.62Z"/><polygon class="cls-85" points="649.08 66.31 651.97 59.39 646.19 59.39 649.08 66.31"/><path id="path1334" d="M805.47,108.33l-1.52-.88v.63h-7.78l1.52-1.6a.7.7,0,0,1,.47-.18h1.27a.77.77,0,1,0,0-.51h-1.26a1.4,1.4,0,0,0-.92.41s0,0,0,0l-1.61,1.7a.88.88,0,0,1-.47.18h-.88a1.27,1.27,0,1,0,0,.5h2.78a.78.78,0,0,1,.47.18l1.61,1.7s0,0,0,0a1.41,1.41,0,0,0,.92.4h1.22v.51h1.52v-1.52h-1.52v.51h-1.23a.8.8,0,0,1-.47-.18l-1.52-1.6H804v.63Z"/><rect x="787.25" y="58.2" width="22.65" height="42.76"/><path class="cls-86" d="M791.71,98.55A1.72,1.72,0,0,1,789.89,97V62.15a1.71,1.71,0,0,1,1.82-1.57h13.7a1.71,1.71,0,0,1,1.82,1.57V97a1.72,1.72,0,0,1-1.82,1.57Z"/><path class="cls-33" d="M805.41,61.41a.8.8,0,0,1,.85.74V97a.8.8,0,0,1-.85.73h-13.7a.8.8,0,0,1-.85-.73V62.15a.8.8,0,0,1,.85-.74h13.7m0-1.67h-13.7a2.62,2.62,0,0,0-2.79,2.41V97a2.62,2.62,0,0,0,2.79,2.4h13.7A2.62,2.62,0,0,0,808.2,97V62.15a2.62,2.62,0,0,0-2.79-2.41Z"/><rect class="cls-87" x="793.21" y="63.6" width="5.04" height="31.92"/><rect class="cls-33" x="797.46" y="54.49" width="2.52" height="11.79" transform="translate(738.33 859.1) rotate(-90)"/><rect class="cls-33" x="788.21" y="63.6" width="3.36" height="31.92" transform="translate(1579.78 159.13) rotate(180)"/><rect class="cls-33" x="805.55" y="63.6" width="3.36" height="31.92" transform="translate(1614.46 159.13) rotate(180)"/><rect class="cls-33" x="797.46" y="92.65" width="2.52" height="11.79" transform="translate(700.17 897.26) rotate(-90)"/><rect class="cls-88" x="798.25" y="66.82" width="1.77" height="2.14"/><rect class="cls-88" x="798.25" y="90.17" width="1.77" height="2.14"/><rect class="cls-88" x="798.25" y="82.38" width="1.77" height="2.14"/><rect class="cls-88" x="798.25" y="74.6" width="1.77" height="2.14"/></svg>