<svg id="Camada_1" data-name="Camada 1" xmlns="http://www.w3.org/2000/svg" xmlns:xlink="http://www.w3.org/1999/xlink" viewBox="0 0 1368 125.19"><defs><style>.cls-1{fill:#292828;}.cls-2{fill:#1a1a1a;}.cls-3{fill:#444242;}.cls-4{fill:#d2d3d7;}.cls-5{fill:url(#Gradiente_sem_nome_46);}.cls-6{fill:url(#Gradiente_sem_nome_185);}.cls-7{fill:#fff;}.cls-8{fill:url(#Gradiente_sem_nome_10);}.cls-9{fill:#666;}.cls-10{fill:url(#Gradiente_sem_nome_46-2);}.cls-11{fill:url(#Gradiente_sem_nome_46-3);}.cls-12{fill:url(#Gradiente_sem_nome_46-4);}.cls-13{fill:url(#Gradiente_sem_nome_46-5);}.cls-14{fill:url(#Gradiente_sem_nome_46-6);}.cls-15{fill:url(#Gradiente_sem_nome_46-7);}.cls-16{fill:url(#Gradiente_sem_nome_46-8);}.cls-17{fill:url(#Gradiente_sem_nome_46-9);}.cls-18{fill:url(#Gradiente_sem_nome_46-10);}.cls-19{fill:url(#Gradiente_sem_nome_46-11);}.cls-20{fill:#0095d5;}.cls-21{fill:#f8e800;}.cls-22{fill:url(#Gradiente_sem_nome_66);}.cls-23{fill:url(#Gradiente_sem_nome_66-2);}.cls-24{fill:url(#Gradiente_sem_nome_66-3);}.cls-25{fill:url(#Gradiente_sem_nome_66-4);}.cls-26{fill:url(#Gradiente_sem_nome_66-5);}.cls-27{fill:url(#Gradiente_sem_nome_66-6);}.cls-28{fill:url(#Gradiente_sem_nome_66-7);}.cls-29{fill:url(#Gradiente_sem_nome_66-8);}.cls-30{fill:url(#Gradiente_sem_nome_66-9);}.cls-31{fill:url(#Gradiente_sem_nome_66-10);}.cls-32{fill:url(#Gradiente_sem_nome_66-11);}.cls-33{fill:url(#Gradiente_sem_nome_66-12);}.cls-34{fill:url(#Gradiente_sem_nome_66-13);}.cls-35{fill:url(#Gradiente_sem_nome_66-14);}.cls-36{fill:url(#Gradiente_sem_nome_66-15);}.cls-37{fill:url(#Gradiente_sem_nome_66-16);}.cls-38{fill:url(#Gradiente_sem_nome_66-17);}.cls-39{fill:url(#Gradiente_sem_nome_66-18);}.cls-40{fill:url(#Gradiente_sem_nome_66-19);}.cls-41{fill:url(#Gradiente_sem_nome_66-20);}.cls-42{fill:url(#Gradiente_sem_nome_66-21);}.cls-43{fill:url(#Gradiente_sem_nome_66-22);}.cls-44{fill:url(#Gradiente_sem_nome_66-23);}.cls-45{fill:url(#Gradiente_sem_nome_66-24);}.cls-46{fill:url(#Gradiente_sem_nome_66-25);}.cls-47{fill:url(#Gradiente_sem_nome_66-26);}.cls-48{fill:url(#Gradiente_sem_nome_66-27);}.cls-49{fill:url(#Gradiente_sem_nome_66-28);}.cls-50{fill:url(#Gradiente_sem_nome_66-29);}.cls-51{fill:url(#Gradiente_sem_nome_66-30);}.cls-52{fill:url(#Gradiente_sem_nome_66-31);}.cls-53{fill:url(#Gradiente_sem_nome_66-32);}.cls-54{fill:url(#Gradiente_sem_nome_66-33);}.cls-55{fill:url(#Gradiente_sem_nome_66-34);}.cls-56{fill:url(#Gradiente_sem_nome_66-35);}.cls-57{fill:url(#Gradiente_sem_nome_66-36);}.cls-58{fill:url(#Gradiente_sem_nome_66-37);}.cls-59{fill:url(#Gradiente_sem_nome_66-38);}.cls-60{fill:url(#Gradiente_sem_nome_66-39);}.cls-61{fill:url(#Gradiente_sem_nome_66-40);}.cls-62{fill:url(#Gradiente_sem_nome_66-41);}.cls-63{fill:url(#Gradiente_sem_nome_66-42);}.cls-64{fill:url(#Gradiente_sem_nome_66-43);}.cls-65{fill:url(#Gradiente_sem_nome_66-44);}.cls-66{fill:url(#Gradiente_sem_nome_66-45);}.cls-67{fill:url(#Gradiente_sem_nome_66-46);}.cls-68{fill:url(#Gradiente_sem_nome_66-47);}.cls-69{fill:url(#Gradiente_sem_nome_66-48);}.cls-70{fill:url(#Gradiente_sem_nome_66-49);}.cls-71{fill:url(#Gradiente_sem_nome_66-50);}.cls-72{fill:url(#Gradiente_sem_nome_66-51);}.cls-73{fill:url(#Gradiente_sem_nome_66-52);}.cls-74{fill:url(#Gradiente_sem_nome_66-53);}.cls-75{fill:url(#Gradiente_sem_nome_66-54);}.cls-76{fill:url(#Gradiente_sem_nome_66-55);}.cls-77{fill:url(#Gradiente_sem_nome_66-56);}.cls-78{fill:url(#Gradiente_sem_nome_66-57);}.cls-79{fill:url(#Gradiente_sem_nome_66-58);}.cls-80{fill:url(#Gradiente_sem_nome_66-59);}.cls-81{fill:url(#Gradiente_sem_nome_66-60);}.cls-82{fill:url(#Gradiente_sem_nome_66-61);}.cls-83{fill:url(#Gradiente_sem_nome_66-62);}.cls-84{fill:url(#Gradiente_sem_nome_66-63);}.cls-85{fill:url(#Gradiente_sem_nome_66-64);}.cls-86{fill:url(#Gradiente_sem_nome_66-65);}.cls-87{fill:url(#Gradiente_sem_nome_66-66);}.cls-88{fill:url(#Gradiente_sem_nome_66-67);}.cls-89{fill:url(#Gradiente_sem_nome_66-68);}.cls-90{fill:url(#Gradiente_sem_nome_66-69);}.cls-91{fill:url(#Gradiente_sem_nome_66-70);}.cls-92{fill:url(#Gradiente_sem_nome_66-71);}.cls-93{fill:url(#Gradiente_sem_nome_66-72);}.cls-94{fill:url(#Gradiente_sem_nome_66-73);}.cls-95{fill:url(#Gradiente_sem_nome_66-74);}.cls-96{fill:url(#Gradiente_sem_nome_66-75);}.cls-97{fill:url(#Gradiente_sem_nome_66-76);}.cls-98{fill:url(#Gradiente_sem_nome_66-77);}.cls-99{fill:url(#Gradiente_sem_nome_66-78);}.cls-100{fill:url(#Gradiente_sem_nome_66-79);}.cls-101{fill:url(#Gradiente_sem_nome_66-80);}.cls-102,.cls-103,.cls-104,.cls-105,.cls-106,.cls-107,.cls-108,.cls-109,.cls-110,.cls-111,.cls-112,.cls-113,.cls-114,.cls-115,.cls-116,.cls-117,.cls-118,.cls-119,.cls-120,.cls-121,.cls-122,.cls-123,.cls-124,.cls-125,.cls-126,.cls-127,.cls-128,.cls-129,.cls-130,.cls-131,.cls-132,.cls-133,.cls-134,.cls-135,.cls-136,.cls-137,.cls-138,.cls-139,.cls-140,.cls-141,.cls-142,.cls-143,.cls-144,.cls-145,.cls-146,.cls-147,.cls-148,.cls-149,.cls-150,.cls-151,.cls-152,.cls-153,.cls-154,.cls-155,.cls-156,.cls-157,.cls-158,.cls-159,.cls-160,.cls-161,.cls-162,.cls-163,.cls-164,.cls-165,.cls-166,.cls-167,.cls-168,.cls-169,.cls-170,.cls-171,.cls-172,.cls-173,.cls-174,.cls-175,.cls-176,.cls-177,.cls-178,.cls-179,.cls-180,.cls-181,.cls-182,.cls-183,.cls-184,.cls-185,.cls-186,.cls-187,.cls-188,.cls-189,.cls-190,.cls-191,.cls-192,.cls-193,.cls-194,.cls-195,.cls-196,.cls-197,.cls-198,.cls-199,.cls-200,.cls-201,.cls-202,.cls-203,.cls-204,.cls-205,.cls-206,.cls-207,.cls-208,.cls-209,.cls-210,.cls-211{stroke-miterlimit:10;}.cls-102{stroke:url(#Gradiente_sem_nome_168);}.cls-103{stroke:url(#Gradiente_sem_nome_168-2);}.cls-104{stroke:url(#Gradiente_sem_nome_168-3);}.cls-105{stroke:url(#Gradiente_sem_nome_168-4);}.cls-106{stroke:url(#Gradiente_sem_nome_168-5);}.cls-107{stroke:url(#Gradiente_sem_nome_168-6);}.cls-108{stroke:url(#Gradiente_sem_nome_168-7);}.cls-109{stroke:url(#Gradiente_sem_nome_168-8);}.cls-110{stroke:url(#Gradiente_sem_nome_168-9);}.cls-111{stroke:url(#Gradiente_sem_nome_168-10);}.cls-112{stroke:url(#Gradiente_sem_nome_168-11);}.cls-113{stroke:url(#Gradiente_sem_nome_168-12);}.cls-114{stroke:url(#Gradiente_sem_nome_168-13);}.cls-115{stroke:url(#Gradiente_sem_nome_168-14);}.cls-116{stroke:url(#Gradiente_sem_nome_168-15);}.cls-117{stroke:url(#Gradiente_sem_nome_168-16);}.cls-118{stroke:url(#Gradiente_sem_nome_168-17);}.cls-119{stroke:url(#Gradiente_sem_nome_168-18);}.cls-120{stroke:url(#Gradiente_sem_nome_168-19);}.cls-121{stroke:url(#Gradiente_sem_nome_168-20);}.cls-122{stroke:url(#Gradiente_sem_nome_168-21);}.cls-123{stroke:url(#Gradiente_sem_nome_168-22);}.cls-124{stroke:url(#Gradiente_sem_nome_168-23);}.cls-125{stroke:url(#Gradiente_sem_nome_168-24);}.cls-126{stroke:url(#Gradiente_sem_nome_168-25);}.cls-127{stroke:url(#Gradiente_sem_nome_168-26);}.cls-128{stroke:url(#Gradiente_sem_nome_168-27);}.cls-129{stroke:url(#Gradiente_sem_nome_168-28);}.cls-130{stroke:url(#Gradiente_sem_nome_168-29);}.cls-131{stroke:url(#Gradiente_sem_nome_168-30);}.cls-132{stroke:url(#Gradiente_sem_nome_168-31);}.cls-133{stroke:url(#Gradiente_sem_nome_168-32);}.cls-134{stroke:url(#Gradiente_sem_nome_168-33);}.cls-135{stroke:url(#Gradiente_sem_nome_168-34);}.cls-136{stroke:url(#Gradiente_sem_nome_168-35);}.cls-137{stroke:url(#Gradiente_sem_nome_168-36);}.cls-138{stroke:url(#Gradiente_sem_nome_168-37);}.cls-139{stroke:url(#Gradiente_sem_nome_168-38);}.cls-140{stroke:url(#Gradiente_sem_nome_168-39);}.cls-141{stroke:url(#Gradiente_sem_nome_168-40);}.cls-142{stroke:url(#Gradiente_sem_nome_168-41);}.cls-143{stroke:url(#Gradiente_sem_nome_168-42);}.cls-144{stroke:url(#Gradiente_sem_nome_168-43);}.cls-145{stroke:url(#Gradiente_sem_nome_168-44);}.cls-146{stroke:url(#Gradiente_sem_nome_168-45);}.cls-147{stroke:url(#Gradiente_sem_nome_168-46);}.cls-148{stroke:url(#Gradiente_sem_nome_168-47);}.cls-149{stroke:url(#Gradiente_sem_nome_168-48);}.cls-150{stroke:url(#Gradiente_sem_nome_168-49);}.cls-151{stroke:url(#Gradiente_sem_nome_168-50);}.cls-152{stroke:url(#Gradiente_sem_nome_168-51);}.cls-153{stroke:url(#Gradiente_sem_nome_168-52);}.cls-154{stroke:url(#Gradiente_sem_nome_168-53);}.cls-155{stroke:url(#Gradiente_sem_nome_168-54);}.cls-156{stroke:url(#Gradiente_sem_nome_168-55);}.cls-157{stroke:url(#Gradiente_sem_nome_168-56);}.cls-158{stroke:url(#Gradiente_sem_nome_168-57);}.cls-159{stroke:url(#Gradiente_sem_nome_168-58);}.cls-160{stroke:url(#Gradiente_sem_nome_168-59);}.cls-161{stroke:url(#Gradiente_sem_nome_168-60);}.cls-162{stroke:url(#Gradiente_sem_nome_168-61);}.cls-163{stroke:url(#Gradiente_sem_nome_168-62);}.cls-164{stroke:url(#Gradiente_sem_nome_168-63);}.cls-165{stroke:url(#Gradiente_sem_nome_168-64);}.cls-166{stroke:url(#Gradiente_sem_nome_168-65);}.cls-167{stroke:url(#Gradiente_sem_nome_168-66);}.cls-168{stroke:url(#Gradiente_sem_nome_168-67);}.cls-169{stroke:url(#Gradiente_sem_nome_168-68);}.cls-170{stroke:url(#Gradiente_sem_nome_168-69);}.cls-171{stroke:url(#Gradiente_sem_nome_168-70);}.cls-172{stroke:url(#Gradiente_sem_nome_168-71);}.cls-173{stroke:url(#Gradiente_sem_nome_168-72);}.cls-174{stroke:url(#Gradiente_sem_nome_168-73);}.cls-175{stroke:url(#Gradiente_sem_nome_168-74);}.cls-176{stroke:url(#Gradiente_sem_nome_168-75);}.cls-177{stroke:url(#Gradiente_sem_nome_168-76);}.cls-178{stroke:url(#Gradiente_sem_nome_168-77);}.cls-179{stroke:url(#Gradiente_sem_nome_168-78);}.cls-180{stroke:url(#Gradiente_sem_nome_168-79);}.cls-181{stroke:url(#Gradiente_sem_nome_168-80);}.cls-182{stroke:url(#Gradiente_sem_nome_168-81);}.cls-183{stroke:url(#Gradiente_sem_nome_168-82);}.cls-184{stroke:url(#Gradiente_sem_nome_168-83);}.cls-185{stroke:url(#Gradiente_sem_nome_168-84);}.cls-186{stroke:url(#Gradiente_sem_nome_168-85);}.cls-187{stroke:url(#Gradiente_sem_nome_168-86);}.cls-188{stroke:url(#Gradiente_sem_nome_168-87);}.cls-189{stroke:url(#Gradiente_sem_nome_168-88);}.cls-190{stroke:url(#Gradiente_sem_nome_168-89);}.cls-191{stroke:url(#Gradiente_sem_nome_168-90);}.cls-192{stroke:url(#Gradiente_sem_nome_168-91);}.cls-193{stroke:url(#Gradiente_sem_nome_168-92);}.cls-194{stroke:url(#Gradiente_sem_nome_168-93);}.cls-195{stroke:url(#Gradiente_sem_nome_168-94);}.cls-196{stroke:url(#Gradiente_sem_nome_168-95);}.cls-197{stroke:url(#Gradiente_sem_nome_168-96);}.cls-198{stroke:url(#Gradiente_sem_nome_168-97);}.cls-199{stroke:url(#Gradiente_sem_nome_168-98);}.cls-200{stroke:url(#Gradiente_sem_nome_168-99);}.cls-201{stroke:url(#Gradiente_sem_nome_168-100);}.cls-202{stroke:url(#Gradiente_sem_nome_168-101);}.cls-203{stroke:url(#Gradiente_sem_nome_168-102);}.cls-204{stroke:url(#Gradiente_sem_nome_168-103);}.cls-205{stroke:url(#Gradiente_sem_nome_168-104);}.cls-206{stroke:url(#Gradiente_sem_nome_168-105);}.cls-207{stroke:url(#Gradiente_sem_nome_168-106);}.cls-208{stroke:url(#Gradiente_sem_nome_168-107);}.cls-209{stroke:url(#Gradiente_sem_nome_168-108);}.cls-210{stroke:url(#Gradiente_sem_nome_168-109);}.cls-211{stroke:url(#Gradiente_sem_nome_168-110);}.cls-212{fill:#333;}.cls-213{fill:#969696;}.cls-214{fill:#31c8ff;opacity:0.61;}.cls-215{fill:#fff195;}.cls-216{fill:#c9c9c9;}</style><radialGradient id="Gradiente_sem_nome_46" cx="108.95" cy="87.13" r="4.26" gradientUnits="userSpaceOnUse"><stop offset="0.46" stop-color="lime"/><stop offset="1" stop-color="#00c500"/></radialGradient><radialGradient id="Gradiente_sem_nome_185" cx="108.95" cy="101.07" r="4.26" gradientUnits="userSpaceOnUse"><stop offset="0" stop-color="aqua"/><stop offset="1" stop-color="#0070ff"/></radialGradient><linearGradient id="Gradiente_sem_nome_10" x1="752.87" y1="113.39" x2="852.39" y2="13.87" gradientTransform="translate(1605.26 127.26) rotate(-180)" gradientUnits="userSpaceOnUse"><stop offset="0" stop-color="#727176"/><stop offset="1" stop-color="#949398"/></linearGradient><radialGradient id="Gradiente_sem_nome_46-2" cx="398.26" cy="86.71" r="4.18" xlink:href="#Gradiente_sem_nome_46"/><radialGradient id="Gradiente_sem_nome_46-3" cx="412.5" cy="86.71" r="4.18" xlink:href="#Gradiente_sem_nome_46"/><radialGradient id="Gradiente_sem_nome_46-4" cx="426.73" cy="86.71" r="4.18" xlink:href="#Gradiente_sem_nome_46"/><radialGradient id="Gradiente_sem_nome_46-5" cx="440.96" cy="86.71" r="4.18" xlink:href="#Gradiente_sem_nome_46"/><radialGradient id="Gradiente_sem_nome_46-6" cx="455.07" cy="86.71" r="4.18" xlink:href="#Gradiente_sem_nome_46"/><radialGradient id="Gradiente_sem_nome_46-7" cx="398.22" cy="101.29" r="4.18" xlink:href="#Gradiente_sem_nome_46"/><radialGradient id="Gradiente_sem_nome_46-8" cx="412.33" cy="101.29" r="4.18" xlink:href="#Gradiente_sem_nome_46"/><radialGradient id="Gradiente_sem_nome_46-9" cx="426.89" cy="101.29" r="4.18" xlink:href="#Gradiente_sem_nome_46"/><radialGradient id="Gradiente_sem_nome_46-10" cx="440.61" cy="101.29" r="4.18" xlink:href="#Gradiente_sem_nome_46"/><radialGradient id="Gradiente_sem_nome_46-11" cx="455.07" cy="101.29" r="4.18" xlink:href="#Gradiente_sem_nome_46"/><linearGradient id="Gradiente_sem_nome_66" x1="188.08" y1="74.41" x2="188.08" y2="81.61" gradientUnits="userSpaceOnUse"><stop offset="0" stop-color="#fff195"/><stop offset="0.47" stop-color="#fff195"/><stop offset="1" stop-color="#1a1a1a"/></linearGradient><linearGradient id="Gradiente_sem_nome_66-2" x1="191.24" y1="74.41" x2="191.24" y2="81.61" xlink:href="#Gradiente_sem_nome_66"/><linearGradient id="Gradiente_sem_nome_66-3" x1="194.41" y1="74.41" x2="194.41" y2="81.61" xlink:href="#Gradiente_sem_nome_66"/><linearGradient id="Gradiente_sem_nome_66-4" x1="197.58" y1="74.41" x2="197.58" y2="81.61" xlink:href="#Gradiente_sem_nome_66"/><linearGradient id="Gradiente_sem_nome_66-5" x1="200.75" y1="74.41" x2="200.75" y2="81.61" xlink:href="#Gradiente_sem_nome_66"/><linearGradient id="Gradiente_sem_nome_66-6" x1="203.92" y1="74.41" x2="203.92" y2="81.61" xlink:href="#Gradiente_sem_nome_66"/><linearGradient id="Gradiente_sem_nome_66-7" x1="207.09" y1="74.41" x2="207.09" y2="81.61" xlink:href="#Gradiente_sem_nome_66"/><linearGradient id="Gradiente_sem_nome_66-8" x1="210.26" y1="74.41" x2="210.26" y2="81.61" xlink:href="#Gradiente_sem_nome_66"/><linearGradient id="Gradiente_sem_nome_66-9" x1="228.08" y1="74.41" x2="228.08" y2="81.61" xlink:href="#Gradiente_sem_nome_66"/><linearGradient id="Gradiente_sem_nome_66-10" x1="231.24" y1="74.41" x2="231.24" y2="81.61" xlink:href="#Gradiente_sem_nome_66"/><linearGradient id="Gradiente_sem_nome_66-11" x1="234.41" y1="74.41" x2="234.41" y2="81.61" xlink:href="#Gradiente_sem_nome_66"/><linearGradient id="Gradiente_sem_nome_66-12" x1="237.58" y1="74.41" x2="237.58" y2="81.61" xlink:href="#Gradiente_sem_nome_66"/><linearGradient id="Gradiente_sem_nome_66-13" x1="240.75" y1="74.41" x2="240.75" y2="81.61" xlink:href="#Gradiente_sem_nome_66"/><linearGradient id="Gradiente_sem_nome_66-14" x1="243.92" y1="74.41" x2="243.92" y2="81.61" xlink:href="#Gradiente_sem_nome_66"/><linearGradient id="Gradiente_sem_nome_66-15" x1="247.09" y1="74.41" x2="247.09" y2="81.61" xlink:href="#Gradiente_sem_nome_66"/><linearGradient id="Gradiente_sem_nome_66-16" x1="250.26" y1="74.41" x2="250.26" y2="81.61" xlink:href="#Gradiente_sem_nome_66"/><linearGradient id="Gradiente_sem_nome_66-17" x1="267.7" y1="74.41" x2="267.7" y2="81.61" xlink:href="#Gradiente_sem_nome_66"/><linearGradient id="Gradiente_sem_nome_66-18" x1="270.87" y1="74.41" x2="270.87" y2="81.61" xlink:href="#Gradiente_sem_nome_66"/><linearGradient id="Gradiente_sem_nome_66-19" x1="274.04" y1="74.41" x2="274.04" y2="81.61" xlink:href="#Gradiente_sem_nome_66"/><linearGradient id="Gradiente_sem_nome_66-20" x1="277.21" y1="74.41" x2="277.21" y2="81.61" xlink:href="#Gradiente_sem_nome_66"/><linearGradient id="Gradiente_sem_nome_66-21" x1="280.38" y1="74.41" x2="280.38" y2="81.61" xlink:href="#Gradiente_sem_nome_66"/><linearGradient id="Gradiente_sem_nome_66-22" x1="283.55" y1="74.41" x2="283.55" y2="81.61" xlink:href="#Gradiente_sem_nome_66"/><linearGradient id="Gradiente_sem_nome_66-23" x1="286.72" y1="74.41" x2="286.72" y2="81.61" xlink:href="#Gradiente_sem_nome_66"/><linearGradient id="Gradiente_sem_nome_66-24" x1="289.89" y1="74.41" x2="289.89" y2="81.61" xlink:href="#Gradiente_sem_nome_66"/><linearGradient id="Gradiente_sem_nome_66-25" x1="308.08" y1="74.41" x2="308.08" y2="81.61" xlink:href="#Gradiente_sem_nome_66"/><linearGradient id="Gradiente_sem_nome_66-26" x1="311.24" y1="74.41" x2="311.24" y2="81.61" xlink:href="#Gradiente_sem_nome_66"/><linearGradient id="Gradiente_sem_nome_66-27" x1="314.41" y1="74.41" x2="314.41" y2="81.61" xlink:href="#Gradiente_sem_nome_66"/><linearGradient id="Gradiente_sem_nome_66-28" x1="317.58" y1="74.41" x2="317.58" y2="81.61" xlink:href="#Gradiente_sem_nome_66"/><linearGradient id="Gradiente_sem_nome_66-29" x1="320.75" y1="74.41" x2="320.75" y2="81.61" xlink:href="#Gradiente_sem_nome_66"/><linearGradient id="Gradiente_sem_nome_66-30" x1="323.92" y1="74.41" x2="323.92" y2="81.61" xlink:href="#Gradiente_sem_nome_66"/><linearGradient id="Gradiente_sem_nome_66-31" x1="327.09" y1="74.41" x2="327.09" y2="81.61" xlink:href="#Gradiente_sem_nome_66"/><linearGradient id="Gradiente_sem_nome_66-32" x1="330.26" y1="74.41" x2="330.26" y2="81.61" xlink:href="#Gradiente_sem_nome_66"/><linearGradient id="Gradiente_sem_nome_66-33" x1="348.08" y1="74.41" x2="348.08" y2="81.61" xlink:href="#Gradiente_sem_nome_66"/><linearGradient id="Gradiente_sem_nome_66-34" x1="351.24" y1="74.41" x2="351.24" y2="81.61" xlink:href="#Gradiente_sem_nome_66"/><linearGradient id="Gradiente_sem_nome_66-35" x1="354.41" y1="74.41" x2="354.41" y2="81.61" xlink:href="#Gradiente_sem_nome_66"/><linearGradient id="Gradiente_sem_nome_66-36" x1="357.58" y1="74.41" x2="357.58" y2="81.61" xlink:href="#Gradiente_sem_nome_66"/><linearGradient id="Gradiente_sem_nome_66-37" x1="360.75" y1="74.41" x2="360.75" y2="81.61" xlink:href="#Gradiente_sem_nome_66"/><linearGradient id="Gradiente_sem_nome_66-38" x1="363.92" y1="74.41" x2="363.92" y2="81.61" xlink:href="#Gradiente_sem_nome_66"/><linearGradient id="Gradiente_sem_nome_66-39" x1="367.09" y1="74.41" x2="367.09" y2="81.61" xlink:href="#Gradiente_sem_nome_66"/><linearGradient id="Gradiente_sem_nome_66-40" x1="370.26" y1="74.41" x2="370.26" y2="81.61" xlink:href="#Gradiente_sem_nome_66"/><linearGradient id="Gradiente_sem_nome_66-41" x1="482.05" y1="74.41" x2="482.05" y2="81.61" xlink:href="#Gradiente_sem_nome_66"/><linearGradient id="Gradiente_sem_nome_66-42" x1="485.21" y1="74.41" x2="485.21" y2="81.61" xlink:href="#Gradiente_sem_nome_66"/><linearGradient id="Gradiente_sem_nome_66-43" x1="488.38" y1="74.41" x2="488.38" y2="81.61" xlink:href="#Gradiente_sem_nome_66"/><linearGradient id="Gradiente_sem_nome_66-44" x1="491.55" y1="74.41" x2="491.55" y2="81.61" xlink:href="#Gradiente_sem_nome_66"/><linearGradient id="Gradiente_sem_nome_66-45" x1="494.72" y1="74.41" x2="494.72" y2="81.61" xlink:href="#Gradiente_sem_nome_66"/><linearGradient id="Gradiente_sem_nome_66-46" x1="497.89" y1="74.41" x2="497.89" y2="81.61" xlink:href="#Gradiente_sem_nome_66"/><linearGradient id="Gradiente_sem_nome_66-47" x1="501.06" y1="74.41" x2="501.06" y2="81.61" xlink:href="#Gradiente_sem_nome_66"/><linearGradient id="Gradiente_sem_nome_66-48" x1="504.23" y1="74.41" x2="504.23" y2="81.61" xlink:href="#Gradiente_sem_nome_66"/><linearGradient id="Gradiente_sem_nome_66-49" x1="522.05" y1="74.41" x2="522.05" y2="81.61" xlink:href="#Gradiente_sem_nome_66"/><linearGradient id="Gradiente_sem_nome_66-50" x1="525.21" y1="74.41" x2="525.21" y2="81.61" xlink:href="#Gradiente_sem_nome_66"/><linearGradient id="Gradiente_sem_nome_66-51" x1="528.38" y1="74.41" x2="528.38" y2="81.61" xlink:href="#Gradiente_sem_nome_66"/><linearGradient id="Gradiente_sem_nome_66-52" x1="531.55" y1="74.41" x2="531.55" y2="81.61" xlink:href="#Gradiente_sem_nome_66"/><linearGradient id="Gradiente_sem_nome_66-53" x1="534.72" y1="74.41" x2="534.72" y2="81.61" xlink:href="#Gradiente_sem_nome_66"/><linearGradient id="Gradiente_sem_nome_66-54" x1="537.89" y1="74.41" x2="537.89" y2="81.61" xlink:href="#Gradiente_sem_nome_66"/><linearGradient id="Gradiente_sem_nome_66-55" x1="541.06" y1="74.41" x2="541.06" y2="81.61" xlink:href="#Gradiente_sem_nome_66"/><linearGradient id="Gradiente_sem_nome_66-56" x1="544.23" y1="74.41" x2="544.23" y2="81.61" xlink:href="#Gradiente_sem_nome_66"/><linearGradient id="Gradiente_sem_nome_66-57" x1="561.67" y1="74.41" x2="561.67" y2="81.61" xlink:href="#Gradiente_sem_nome_66"/><linearGradient id="Gradiente_sem_nome_66-58" x1="564.84" y1="74.41" x2="564.84" y2="81.61" xlink:href="#Gradiente_sem_nome_66"/><linearGradient id="Gradiente_sem_nome_66-59" x1="568.01" y1="74.41" x2="568.01" y2="81.61" xlink:href="#Gradiente_sem_nome_66"/><linearGradient id="Gradiente_sem_nome_66-60" x1="571.18" y1="74.41" x2="571.18" y2="81.61" xlink:href="#Gradiente_sem_nome_66"/><linearGradient id="Gradiente_sem_nome_66-61" x1="574.35" y1="74.41" x2="574.35" y2="81.61" xlink:href="#Gradiente_sem_nome_66"/><linearGradient id="Gradiente_sem_nome_66-62" x1="577.52" y1="74.41" x2="577.52" y2="81.61" xlink:href="#Gradiente_sem_nome_66"/><linearGradient id="Gradiente_sem_nome_66-63" x1="580.69" y1="74.41" x2="580.69" y2="81.61" xlink:href="#Gradiente_sem_nome_66"/><linearGradient id="Gradiente_sem_nome_66-64" x1="583.86" y1="74.41" x2="583.86" y2="81.61" xlink:href="#Gradiente_sem_nome_66"/><linearGradient id="Gradiente_sem_nome_66-65" x1="602.05" y1="74.41" x2="602.05" y2="81.61" xlink:href="#Gradiente_sem_nome_66"/><linearGradient id="Gradiente_sem_nome_66-66" x1="605.21" y1="74.41" x2="605.21" y2="81.61" xlink:href="#Gradiente_sem_nome_66"/><linearGradient id="Gradiente_sem_nome_66-67" x1="608.38" y1="74.41" x2="608.38" y2="81.61" xlink:href="#Gradiente_sem_nome_66"/><linearGradient id="Gradiente_sem_nome_66-68" x1="611.55" y1="74.41" x2="611.55" y2="81.61" xlink:href="#Gradiente_sem_nome_66"/><linearGradient id="Gradiente_sem_nome_66-69" x1="614.72" y1="74.41" x2="614.72" y2="81.61" xlink:href="#Gradiente_sem_nome_66"/><linearGradient id="Gradiente_sem_nome_66-70" x1="617.89" y1="74.41" x2="617.89" y2="81.61" xlink:href="#Gradiente_sem_nome_66"/><linearGradient id="Gradiente_sem_nome_66-71" x1="621.06" y1="74.41" x2="621.06" y2="81.61" xlink:href="#Gradiente_sem_nome_66"/><linearGradient id="Gradiente_sem_nome_66-72" x1="624.23" y1="74.41" x2="624.23" y2="81.61" xlink:href="#Gradiente_sem_nome_66"/><linearGradient id="Gradiente_sem_nome_66-73" x1="642.05" y1="74.41" x2="642.05" y2="81.61" xlink:href="#Gradiente_sem_nome_66"/><linearGradient id="Gradiente_sem_nome_66-74" x1="645.21" y1="74.41" x2="645.21" y2="81.61" xlink:href="#Gradiente_sem_nome_66"/><linearGradient id="Gradiente_sem_nome_66-75" x1="648.38" y1="74.41" x2="648.38" y2="81.61" xlink:href="#Gradiente_sem_nome_66"/><linearGradient id="Gradiente_sem_nome_66-76" x1="651.55" y1="74.41" x2="651.55" y2="81.61" xlink:href="#Gradiente_sem_nome_66"/><linearGradient id="Gradiente_sem_nome_66-77" x1="654.72" y1="74.41" x2="654.72" y2="81.61" xlink:href="#Gradiente_sem_nome_66"/><linearGradient id="Gradiente_sem_nome_66-78" x1="657.89" y1="74.41" x2="657.89" y2="81.61" xlink:href="#Gradiente_sem_nome_66"/><linearGradient id="Gradiente_sem_nome_66-79" x1="661.06" y1="74.41" x2="661.06" y2="81.61" xlink:href="#Gradiente_sem_nome_66"/><linearGradient id="Gradiente_sem_nome_66-80" x1="664.23" y1="74.41" x2="664.23" y2="81.61" xlink:href="#Gradiente_sem_nome_66"/><linearGradient id="Gradiente_sem_nome_168" x1="87.59" y1="27.48" x2="87.59" y2="15.62" gradientUnits="userSpaceOnUse"><stop offset="0" stop-color="#333232"/><stop offset="1" stop-color="#292828"/></linearGradient><linearGradient id="Gradiente_sem_nome_168-2" x1="101.25" y1="30.35" x2="101.25" y2="23.6" xlink:href="#Gradiente_sem_nome_168"/><linearGradient id="Gradiente_sem_nome_168-3" x1="101.25" y1="19.85" x2="101.25" y2="13.1" xlink:href="#Gradiente_sem_nome_168"/><linearGradient id="Gradiente_sem_nome_168-4" x1="114.77" y1="27.48" x2="114.77" y2="15.62" xlink:href="#Gradiente_sem_nome_168"/><linearGradient id="Gradiente_sem_nome_168-5" x1="128.43" y1="30.35" x2="128.43" y2="23.6" xlink:href="#Gradiente_sem_nome_168"/><linearGradient id="Gradiente_sem_nome_168-6" x1="128.43" y1="19.85" x2="128.43" y2="13.1" xlink:href="#Gradiente_sem_nome_168"/><linearGradient id="Gradiente_sem_nome_168-7" x1="141.95" y1="27.48" x2="141.95" y2="15.62" xlink:href="#Gradiente_sem_nome_168"/><linearGradient id="Gradiente_sem_nome_168-8" x1="155.61" y1="30.35" x2="155.61" y2="23.6" xlink:href="#Gradiente_sem_nome_168"/><linearGradient id="Gradiente_sem_nome_168-9" x1="155.61" y1="19.85" x2="155.61" y2="13.1" xlink:href="#Gradiente_sem_nome_168"/><linearGradient id="Gradiente_sem_nome_168-10" x1="169.13" y1="27.48" x2="169.13" y2="15.62" xlink:href="#Gradiente_sem_nome_168"/><linearGradient id="Gradiente_sem_nome_168-11" x1="182.79" y1="30.35" x2="182.79" y2="23.6" xlink:href="#Gradiente_sem_nome_168"/><linearGradient id="Gradiente_sem_nome_168-12" x1="182.79" y1="19.85" x2="182.79" y2="13.1" xlink:href="#Gradiente_sem_nome_168"/><linearGradient id="Gradiente_sem_nome_168-13" x1="196.31" y1="27.48" x2="196.31" y2="15.62" xlink:href="#Gradiente_sem_nome_168"/><linearGradient id="Gradiente_sem_nome_168-14" x1="209.97" y1="30.35" x2="209.97" y2="23.6" xlink:href="#Gradiente_sem_nome_168"/><linearGradient id="Gradiente_sem_nome_168-15" x1="209.97" y1="19.85" x2="209.97" y2="13.1" xlink:href="#Gradiente_sem_nome_168"/><linearGradient id="Gradiente_sem_nome_168-16" x1="223.49" y1="27.48" x2="223.49" y2="15.62" xlink:href="#Gradiente_sem_nome_168"/><linearGradient id="Gradiente_sem_nome_168-17" x1="237.16" y1="30.35" x2="237.16" y2="23.6" xlink:href="#Gradiente_sem_nome_168"/><linearGradient id="Gradiente_sem_nome_168-18" x1="237.16" y1="19.85" x2="237.16" y2="13.1" xlink:href="#Gradiente_sem_nome_168"/><linearGradient id="Gradiente_sem_nome_168-19" x1="250.67" y1="27.48" x2="250.67" y2="15.62" xlink:href="#Gradiente_sem_nome_168"/><linearGradient id="Gradiente_sem_nome_168-20" x1="264.34" y1="30.35" x2="264.34" y2="23.6" xlink:href="#Gradiente_sem_nome_168"/><linearGradient id="Gradiente_sem_nome_168-21" x1="264.34" y1="19.85" x2="264.34" y2="13.1" xlink:href="#Gradiente_sem_nome_168"/><linearGradient id="Gradiente_sem_nome_168-22" x1="277.85" y1="27.48" x2="277.85" y2="15.62" xlink:href="#Gradiente_sem_nome_168"/><linearGradient id="Gradiente_sem_nome_168-23" x1="291.52" y1="30.35" x2="291.52" y2="23.6" xlink:href="#Gradiente_sem_nome_168"/><linearGradient id="Gradiente_sem_nome_168-24" x1="291.52" y1="19.85" x2="291.52" y2="13.1" xlink:href="#Gradiente_sem_nome_168"/><linearGradient id="Gradiente_sem_nome_168-25" x1="305.03" y1="27.48" x2="305.03" y2="15.62" xlink:href="#Gradiente_sem_nome_168"/><linearGradient id="Gradiente_sem_nome_168-26" x1="318.7" y1="30.35" x2="318.7" y2="23.6" xlink:href="#Gradiente_sem_nome_168"/><linearGradient id="Gradiente_sem_nome_168-27" x1="318.7" y1="19.85" x2="318.7" y2="13.1" xlink:href="#Gradiente_sem_nome_168"/><linearGradient id="Gradiente_sem_nome_168-28" x1="332.21" y1="27.48" x2="332.21" y2="15.62" xlink:href="#Gradiente_sem_nome_168"/><linearGradient id="Gradiente_sem_nome_168-29" x1="345.88" y1="30.35" x2="345.88" y2="23.6" xlink:href="#Gradiente_sem_nome_168"/><linearGradient id="Gradiente_sem_nome_168-30" x1="345.88" y1="19.85" x2="345.88" y2="13.1" xlink:href="#Gradiente_sem_nome_168"/><linearGradient id="Gradiente_sem_nome_168-31" x1="359.39" y1="27.48" x2="359.39" y2="15.62" xlink:href="#Gradiente_sem_nome_168"/><linearGradient id="Gradiente_sem_nome_168-32" x1="373.06" y1="30.35" x2="373.06" y2="23.6" xlink:href="#Gradiente_sem_nome_168"/><linearGradient id="Gradiente_sem_nome_168-33" x1="373.06" y1="19.85" x2="373.06" y2="13.1" xlink:href="#Gradiente_sem_nome_168"/><linearGradient id="Gradiente_sem_nome_168-34" x1="386.57" y1="27.48" x2="386.57" y2="15.62" xlink:href="#Gradiente_sem_nome_168"/><linearGradient id="Gradiente_sem_nome_168-35" x1="400.24" y1="30.35" x2="400.24" y2="23.6" xlink:href="#Gradiente_sem_nome_168"/><linearGradient id="Gradiente_sem_nome_168-36" x1="400.24" y1="19.85" x2="400.24" y2="13.1" xlink:href="#Gradiente_sem_nome_168"/><linearGradient id="Gradiente_sem_nome_168-37" x1="413.75" y1="27.48" x2="413.75" y2="15.62" xlink:href="#Gradiente_sem_nome_168"/><linearGradient id="Gradiente_sem_nome_168-38" x1="427.42" y1="30.35" x2="427.42" y2="23.6" xlink:href="#Gradiente_sem_nome_168"/><linearGradient id="Gradiente_sem_nome_168-39" x1="427.42" y1="19.85" x2="427.42" y2="13.1" xlink:href="#Gradiente_sem_nome_168"/><linearGradient id="Gradiente_sem_nome_168-40" x1="440.93" y1="27.48" x2="440.93" y2="15.62" xlink:href="#Gradiente_sem_nome_168"/><linearGradient id="Gradiente_sem_nome_168-41" x1="454.6" y1="30.35" x2="454.6" y2="23.6" xlink:href="#Gradiente_sem_nome_168"/><linearGradient id="Gradiente_sem_nome_168-42" x1="454.6" y1="19.85" x2="454.6" y2="13.1" xlink:href="#Gradiente_sem_nome_168"/><linearGradient id="Gradiente_sem_nome_168-43" x1="468.11" y1="27.48" x2="468.11" y2="15.62" xlink:href="#Gradiente_sem_nome_168"/><linearGradient id="Gradiente_sem_nome_168-44" x1="481.78" y1="30.35" x2="481.78" y2="23.6" xlink:href="#Gradiente_sem_nome_168"/><linearGradient id="Gradiente_sem_nome_168-45" x1="481.78" y1="19.85" x2="481.78" y2="13.1" xlink:href="#Gradiente_sem_nome_168"/><linearGradient id="Gradiente_sem_nome_168-46" x1="495.29" y1="27.48" x2="495.29" y2="15.62" xlink:href="#Gradiente_sem_nome_168"/><linearGradient id="Gradiente_sem_nome_168-47" x1="508.96" y1="30.35" x2="508.96" y2="23.6" xlink:href="#Gradiente_sem_nome_168"/><linearGradient id="Gradiente_sem_nome_168-48" x1="508.96" y1="19.85" x2="508.96" y2="13.1" xlink:href="#Gradiente_sem_nome_168"/><linearGradient id="Gradiente_sem_nome_168-49" x1="522.47" y1="27.48" x2="522.47" y2="15.62" xlink:href="#Gradiente_sem_nome_168"/><linearGradient id="Gradiente_sem_nome_168-50" x1="536.14" y1="30.35" x2="536.14" y2="23.6" xlink:href="#Gradiente_sem_nome_168"/><linearGradient id="Gradiente_sem_nome_168-51" x1="536.14" y1="19.85" x2="536.14" y2="13.1" xlink:href="#Gradiente_sem_nome_168"/><linearGradient id="Gradiente_sem_nome_168-52" x1="549.66" y1="27.48" x2="549.66" y2="15.62" xlink:href="#Gradiente_sem_nome_168"/><linearGradient id="Gradiente_sem_nome_168-53" x1="563.32" y1="30.35" x2="563.32" y2="23.6" xlink:href="#Gradiente_sem_nome_168"/><linearGradient id="Gradiente_sem_nome_168-54" x1="563.32" y1="19.85" x2="563.32" y2="13.1" xlink:href="#Gradiente_sem_nome_168"/><linearGradient id="Gradiente_sem_nome_168-55" x1="576.84" y1="27.48" x2="576.84" y2="15.62" xlink:href="#Gradiente_sem_nome_168"/><linearGradient id="Gradiente_sem_nome_168-56" x1="590.5" y1="30.35" x2="590.5" y2="23.6" xlink:href="#Gradiente_sem_nome_168"/><linearGradient id="Gradiente_sem_nome_168-57" x1="590.5" y1="19.85" x2="590.5" y2="13.1" xlink:href="#Gradiente_sem_nome_168"/><linearGradient id="Gradiente_sem_nome_168-58" x1="604.02" y1="27.48" x2="604.02" y2="15.62" xlink:href="#Gradiente_sem_nome_168"/><linearGradient id="Gradiente_sem_nome_168-59" x1="617.68" y1="30.35" x2="617.68" y2="23.6" xlink:href="#Gradiente_sem_nome_168"/><linearGradient id="Gradiente_sem_nome_168-60" x1="617.68" y1="19.85" x2="617.68" y2="13.1" xlink:href="#Gradiente_sem_nome_168"/><linearGradient id="Gradiente_sem_nome_168-61" x1="631.2" y1="27.48" x2="631.2" y2="15.62" xlink:href="#Gradiente_sem_nome_168"/><linearGradient id="Gradiente_sem_nome_168-62" x1="644.86" y1="30.35" x2="644.86" y2="23.6" xlink:href="#Gradiente_sem_nome_168"/><linearGradient id="Gradiente_sem_nome_168-63" x1="644.86" y1="19.85" x2="644.86" y2="13.1" xlink:href="#Gradiente_sem_nome_168"/><linearGradient id="Gradiente_sem_nome_168-64" x1="658.38" y1="27.48" x2="658.38" y2="15.62" xlink:href="#Gradiente_sem_nome_168"/><linearGradient id="Gradiente_sem_nome_168-65" x1="672.04" y1="30.35" x2="672.04" y2="23.6" xlink:href="#Gradiente_sem_nome_168"/><linearGradient id="Gradiente_sem_nome_168-66" x1="672.04" y1="19.85" x2="672.04" y2="13.1" xlink:href="#Gradiente_sem_nome_168"/><linearGradient id="Gradiente_sem_nome_168-67" x1="685.63" y1="27.48" x2="685.63" y2="15.62" xlink:href="#Gradiente_sem_nome_168"/><linearGradient id="Gradiente_sem_nome_168-68" x1="910.5" y1="27.48" x2="910.5" y2="15.62" xlink:href="#Gradiente_sem_nome_168"/><linearGradient id="Gradiente_sem_nome_168-69" x1="924.17" y1="30.35" x2="924.17" y2="23.6" xlink:href="#Gradiente_sem_nome_168"/><linearGradient id="Gradiente_sem_nome_168-70" x1="924.17" y1="19.85" x2="924.17" y2="13.1" xlink:href="#Gradiente_sem_nome_168"/><linearGradient id="Gradiente_sem_nome_168-71" x1="937.68" y1="27.48" x2="937.68" y2="15.62" xlink:href="#Gradiente_sem_nome_168"/><linearGradient id="Gradiente_sem_nome_168-72" x1="951.35" y1="30.35" x2="951.35" y2="23.6" xlink:href="#Gradiente_sem_nome_168"/><linearGradient id="Gradiente_sem_nome_168-73" x1="951.35" y1="19.85" x2="951.35" y2="13.1" xlink:href="#Gradiente_sem_nome_168"/><linearGradient id="Gradiente_sem_nome_168-74" x1="964.86" y1="27.48" x2="964.86" y2="15.62" xlink:href="#Gradiente_sem_nome_168"/><linearGradient id="Gradiente_sem_nome_168-75" x1="978.53" y1="30.35" x2="978.53" y2="23.6" xlink:href="#Gradiente_sem_nome_168"/><linearGradient id="Gradiente_sem_nome_168-76" x1="978.53" y1="19.85" x2="978.53" y2="13.1" xlink:href="#Gradiente_sem_nome_168"/><linearGradient id="Gradiente_sem_nome_168-77" x1="992.04" y1="27.48" x2="992.04" y2="15.62" xlink:href="#Gradiente_sem_nome_168"/><linearGradient id="Gradiente_sem_nome_168-78" x1="1005.71" y1="30.35" x2="1005.71" y2="23.6" xlink:href="#Gradiente_sem_nome_168"/><linearGradient id="Gradiente_sem_nome_168-79" x1="1005.71" y1="19.85" x2="1005.71" y2="13.1" xlink:href="#Gradiente_sem_nome_168"/><linearGradient id="Gradiente_sem_nome_168-80" x1="1019.23" y1="27.48" x2="1019.23" y2="15.62" xlink:href="#Gradiente_sem_nome_168"/><linearGradient id="Gradiente_sem_nome_168-81" x1="1032.89" y1="30.35" x2="1032.89" y2="23.6" xlink:href="#Gradiente_sem_nome_168"/><linearGradient id="Gradiente_sem_nome_168-82" x1="1032.89" y1="19.85" x2="1032.89" y2="13.1" xlink:href="#Gradiente_sem_nome_168"/><linearGradient id="Gradiente_sem_nome_168-83" x1="1046.41" y1="27.48" x2="1046.41" y2="15.62" xlink:href="#Gradiente_sem_nome_168"/><linearGradient id="Gradiente_sem_nome_168-84" x1="1060.07" y1="30.35" x2="1060.07" y2="23.6" xlink:href="#Gradiente_sem_nome_168"/><linearGradient id="Gradiente_sem_nome_168-85" x1="1060.07" y1="19.85" x2="1060.07" y2="13.1" xlink:href="#Gradiente_sem_nome_168"/><linearGradient id="Gradiente_sem_nome_168-86" x1="1073.59" y1="27.48" x2="1073.59" y2="15.62" xlink:href="#Gradiente_sem_nome_168"/><linearGradient id="Gradiente_sem_nome_168-87" x1="1087.25" y1="30.35" x2="1087.25" y2="23.6" xlink:href="#Gradiente_sem_nome_168"/><linearGradient id="Gradiente_sem_nome_168-88" x1="1087.25" y1="19.85" x2="1087.25" y2="13.1" xlink:href="#Gradiente_sem_nome_168"/><linearGradient id="Gradiente_sem_nome_168-89" x1="1100.77" y1="27.48" x2="1100.77" y2="15.62" xlink:href="#Gradiente_sem_nome_168"/><linearGradient id="Gradiente_sem_nome_168-90" x1="1114.43" y1="30.35" x2="1114.43" y2="23.6" xlink:href="#Gradiente_sem_nome_168"/><linearGradient id="Gradiente_sem_nome_168-91" x1="1114.43" y1="19.85" x2="1114.43" y2="13.1" xlink:href="#Gradiente_sem_nome_168"/><linearGradient id="Gradiente_sem_nome_168-92" x1="1127.95" y1="27.48" x2="1127.95" y2="15.62" xlink:href="#Gradiente_sem_nome_168"/><linearGradient id="Gradiente_sem_nome_168-93" x1="1141.61" y1="30.35" x2="1141.61" y2="23.6" xlink:href="#Gradiente_sem_nome_168"/><linearGradient id="Gradiente_sem_nome_168-94" x1="1141.61" y1="19.85" x2="1141.61" y2="13.1" xlink:href="#Gradiente_sem_nome_168"/><linearGradient id="Gradiente_sem_nome_168-95" x1="1155.13" y1="27.48" x2="1155.13" y2="15.62" xlink:href="#Gradiente_sem_nome_168"/><linearGradient id="Gradiente_sem_nome_168-96" x1="1168.79" y1="30.35" x2="1168.79" y2="23.6" xlink:href="#Gradiente_sem_nome_168"/><linearGradient id="Gradiente_sem_nome_168-97" x1="1168.79" y1="19.85" x2="1168.79" y2="13.1" xlink:href="#Gradiente_sem_nome_168"/><linearGradient id="Gradiente_sem_nome_168-98" x1="1182.31" y1="27.48" x2="1182.31" y2="15.62" xlink:href="#Gradiente_sem_nome_168"/><linearGradient id="Gradiente_sem_nome_168-99" x1="1195.98" y1="30.35" x2="1195.98" y2="23.6" xlink:href="#Gradiente_sem_nome_168"/><linearGradient id="Gradiente_sem_nome_168-100" x1="1195.98" y1="19.85" x2="1195.98" y2="13.1" xlink:href="#Gradiente_sem_nome_168"/><linearGradient id="Gradiente_sem_nome_168-101" x1="1209.49" y1="27.48" x2="1209.49" y2="15.62" xlink:href="#Gradiente_sem_nome_168"/><linearGradient id="Gradiente_sem_nome_168-102" x1="1223.16" y1="30.35" x2="1223.16" y2="23.6" xlink:href="#Gradiente_sem_nome_168"/><linearGradient id="Gradiente_sem_nome_168-103" x1="1223.16" y1="19.85" x2="1223.16" y2="13.1" xlink:href="#Gradiente_sem_nome_168"/><linearGradient id="Gradiente_sem_nome_168-104" x1="1236.67" y1="27.48" x2="1236.67" y2="15.62" xlink:href="#Gradiente_sem_nome_168"/><linearGradient id="Gradiente_sem_nome_168-105" x1="1250.34" y1="30.35" x2="1250.34" y2="23.6" xlink:href="#Gradiente_sem_nome_168"/><linearGradient id="Gradiente_sem_nome_168-106" x1="1250.34" y1="19.85" x2="1250.34" y2="13.1" xlink:href="#Gradiente_sem_nome_168"/><linearGradient id="Gradiente_sem_nome_168-107" x1="1263.85" y1="27.48" x2="1263.85" y2="15.62" xlink:href="#Gradiente_sem_nome_168"/><linearGradient id="Gradiente_sem_nome_168-108" x1="1277.52" y1="30.35" x2="1277.52" y2="23.6" xlink:href="#Gradiente_sem_nome_168"/><linearGradient id="Gradiente_sem_nome_168-109" x1="1277.52" y1="19.85" x2="1277.52" y2="13.1" xlink:href="#Gradiente_sem_nome_168"/><linearGradient id="Gradiente_sem_nome_168-110" x1="1291.03" y1="27.48" x2="1291.03" y2="15.62" xlink:href="#Gradiente_sem_nome_168"/></defs><path class="cls-1" d="M0,0V125.19H1368V0ZM36.44,117.31H19a8.13,8.13,0,1,1,0-16.25H36.44a8.13,8.13,0,1,1,0,16.25Zm0-91.94H19A8.13,8.13,0,1,1,19,9.12H36.44a8.13,8.13,0,1,1,0,16.25Zm1313.78,91.94H1332.8a8.13,8.13,0,1,1,0-16.25h17.42a8.13,8.13,0,0,1,0,16.25Zm0-91.94H1332.8a8.13,8.13,0,1,1,0-16.25h17.42a8.13,8.13,0,0,1,0,16.25Z"/><rect class="cls-1" x="53.62" width="1260.77" height="125.19"/><rect class="cls-2" x="52.65" width="1.68" height="125.19"/><rect class="cls-3" x="48.9" width="2.75" height="125.19"/><rect x="54.72" width="0.9" height="125.19"/><rect class="cls-4" x="175.04" y="68.38" width="207.5" height="37.96"/><circle class="cls-5" cx="108.95" cy="87.13" r="4.26"/><circle class="cls-6" cx="108.95" cy="101.07" r="4.26"/><path class="cls-7" d="M1186.58,51.84l-3.78,2.86c.71,1.39,1.39,2.75,2.12,4.19h-3.5l-1.16-2.5c-1.25.43-.84,1.7-1.38,2.49h-3.17l2.46-9.7h3.24c-.37,1.51-.73,3-1.12,4.61a11.4,11.4,0,0,1,2.72-1.88A13.26,13.26,0,0,1,1186.58,51.84Z"/><path class="cls-7" d="M1126.26,58.89h-1c.87-3.27,1.71-6.48,2.57-9.71h1.6c.6,2.85,1.2,5.69,1.85,8.8l6.57-8.8h1.6c-.85,3.26-1.69,6.46-2.53,9.7h-1.06c.78-2.85,1.55-5.64,2.32-8.43l-.16-.09-6.37,8.52h-1.11c-.62-2.91-1.24-5.79-1.86-8.67h-.19C1127.73,53.08,1127,56,1126.26,58.89Z"/><path class="cls-7" d="M1172.53,49.19c-.23.91-.44,1.73-.65,2.6h-10.19c.22-.89.42-1.72.63-2.6Z"/><path class="cls-7" d="M1166.78,58.9h-3.61l1.42-5.66h3.62C1167.73,55.15,1167.26,57,1166.78,58.9Z"/><path class="cls-7" d="M1158.31,51.71c2.86-.1,4.28,2.06,3.07,4.68a4.74,4.74,0,0,1-6,2.45,2.83,2.83,0,0,1-1.69-3A4.54,4.54,0,0,1,1158.31,51.71Zm-1.1,6.63a3.55,3.55,0,0,0,3.55-3.71,2.24,2.24,0,0,0-2.47-2.29,3.73,3.73,0,0,0-3.62,3.7C1154.6,57.54,1155.45,58.3,1157.21,58.34Z"/><path class="cls-7" d="M1171.05,58.89l1.42-5.65h3.24c-.47,1.92-.93,3.77-1.4,5.65Z"/><path class="cls-7" d="M1142.33,58.89h-1.06c.61-2.34,1.2-4.62,1.8-6.94h1c-.27,1.07-.52,2.09-.79,3.21,2.18-.86,3.58-2.94,5.88-3.37l.17.27-3.69,2.54,2.51,4.29h-1.06l-2.25-3.73C1143.08,55.79,1142.5,57.17,1142.33,58.89Z"/><path class="cls-7" d="M1150.31,51.94h.84c-.08.45-.14.85-.27,1.59a3.52,3.52,0,0,1,3.53-1.71c0,.27-.06.51-.1.77-.19,0-.36.07-.52.08a3.27,3.27,0,0,0-3.41,2.77l-.89,3.44-1,0C1149.1,56.55,1149.7,54.27,1150.31,51.94Z"/><path class="cls-7" d="M1176.1,51.8h-3.24c.22-.9.42-1.72.63-2.61h3.25C1176.52,50.08,1176.31,50.93,1176.1,51.8Z"/><path class="cls-7" d="M1139.7,58.89h-1c.62-2.36,1.23-4.65,1.83-7h1C1140.9,54.28,1140.31,56.56,1139.7,58.89Z"/><path class="cls-7" d="M1145.89,50.57a4.33,4.33,0,0,1-4.13-.9,4.14,4.14,0,0,1-1.34-4.23C1141.08,48.36,1142.75,50.21,1145.89,50.57Z"/><path class="cls-7" d="M1146,49.09a3.43,3.43,0,0,1-4.09-4,11.43,11.43,0,0,0,1.55,2.51A11.73,11.73,0,0,0,1146,49.09Z"/><rect class="cls-1" x="724.38" y="9.09" width="156.5" height="109.08" rx="2.16"/><path class="cls-2" d="M878.72,9.59a1.66,1.66,0,0,1,1.66,1.66V116a1.66,1.66,0,0,1-1.66,1.66H726.54a1.66,1.66,0,0,1-1.66-1.66V11.25a1.66,1.66,0,0,1,1.66-1.66H878.72m0-1H726.54a2.66,2.66,0,0,0-2.66,2.66V116a2.66,2.66,0,0,0,2.66,2.66H878.72a2.66,2.66,0,0,0,2.66-2.66V11.25a2.66,2.66,0,0,0-2.66-2.66Z"/><rect class="cls-8" x="747.63" y="17.55" width="109.99" height="92.17" rx="2.66" transform="translate(1605.26 127.26) rotate(180)"/><path class="cls-9" d="M855,110.21H750.29a3.16,3.16,0,0,1-3.16-3.15V20.21a3.16,3.16,0,0,1,3.16-3.16H855a3.16,3.16,0,0,1,3.16,3.16v86.85A3.16,3.16,0,0,1,855,110.21ZM750.29,18.05a2.16,2.16,0,0,0-2.16,2.16v86.85a2.16,2.16,0,0,0,2.16,2.15H855a2.16,2.16,0,0,0,2.16-2.15V20.21A2.16,2.16,0,0,0,855,18.05Z"/><path class="cls-7" d="M137.4,116.06a2.29,2.29,0,0,1-.23,1.23.91.91,0,0,1-.8.32h-2.55a.88.88,0,0,1-.84-.36,3.14,3.14,0,0,1-.2-1.36l.85-.28v.77h2.92v-1.49H134a.93.93,0,0,1-.81-.32,2.3,2.3,0,0,1-.22-1.22v-.72a2.32,2.32,0,0,1,.22-1.23.93.93,0,0,1,.81-.32h2.34a.91.91,0,0,1,.81.33,2.49,2.49,0,0,1,.21,1.24l-.85.32v-.75h-2.7v1.4h2.58a.91.91,0,0,1,.8.32,2.29,2.29,0,0,1,.23,1.23Z"/><path class="cls-7" d="M143.56,112.22h-3.21v1.72h1.73v1.19h-1.73v2.48h-1v-6.53h4.17Z"/><path class="cls-7" d="M149.22,113.8q0,1.26-.93,1.26H145.7v2.55h-.95v-6.53h3.54c.62,0,.93.43.93,1.27Zm-.93-.38v-.69c0-.22,0-.37-.12-.43a.43.43,0,0,0-.31-.09H145.7v1.73h2.16a.43.43,0,0,0,.31-.09A.57.57,0,0,0,148.29,113.42Z"/><path class="cls-7" d="M193.08,119.47h-4.44V113H193v1.11h-3.4v1.46h2v1.11h-2v1.62h3.44Z"/><path class="cls-7" d="M198.91,114.11h-2v5.36h-1v-5.36h-2V113h5Z"/><path class="cls-7" d="M205.26,119.47h-1v-2.8h-3.12v2.8h-1V113h1v2.53h3.12V113h1Z"/><path class="cls-7" d="M210.21,119.47h-.9v-5.28h-.92v-.87l1.82-.42Z"/><path class="cls-7" d="M232.83,119.47h-4.44V113h4.4v1.11h-3.4v1.46h2v1.11h-2v1.62h3.44Z"/><path class="cls-7" d="M238.66,114.11h-2v5.36h-1v-5.36h-2V113h5Z"/><path class="cls-7" d="M245,119.47h-1v-2.8h-3.12v2.8h-1V113h1v2.53H244V113h1Z"/><path class="cls-7" d="M251.65,118.2a1.59,1.59,0,0,1-.24,1,.92.92,0,0,1-.74.23h-3.61v-.59a1.45,1.45,0,0,1,.14-.71,2.08,2.08,0,0,1,.4-.48l3-2.78v-.85h-2.45v1.34l-.85-.33v-.84a1.54,1.54,0,0,1,.25-1,1,1,0,0,1,.74-.23h2.2c.45,0,.73.12.84.37a3.53,3.53,0,0,1,.15,1.32,2.06,2.06,0,0,1-.13.81,1.79,1.79,0,0,1-.43.52l-2.53,2.33h2.5v-1l.79.34Z"/><path class="cls-7" d="M272,119.47h-4.44V113h4.39v1.11h-3.39v1.46h2v1.11h-2v1.62H272Z"/><path class="cls-7" d="M277.78,114.11h-2v5.36h-1v-5.36h-2V113h4.95Z"/><path class="cls-7" d="M284.14,119.47h-1v-2.8H280v2.8h-1V113h1v2.53h3.12V113h1Z"/><path class="cls-7" d="M290.67,118.07a1.88,1.88,0,0,1-.25,1.14,1,1,0,0,1-.79.26h-2.5c-.46,0-.74-.13-.86-.4a4.88,4.88,0,0,1-.12-1.41l.88-.27v.91h2.32a.36.36,0,0,0,.4-.29c0-.05,0-.31,0-.78a1,1,0,0,0-.08-.48.42.42,0,0,0-.33-.11H287.9v-1.06h1.29c.21,0,.34-.08.38-.24a4.07,4.07,0,0,0,0-.68.83.83,0,0,0-.09-.48.36.36,0,0,0-.32-.12h-2.12v.81l-.85-.24v-.4a1.61,1.61,0,0,1,.24-1,1,1,0,0,1,.74-.23h2.32c.47,0,.76.14.88.43a5.72,5.72,0,0,1,.1,1.44,1.53,1.53,0,0,1-.21.9,1.09,1.09,0,0,1-.62.34c.67.1,1,.54,1,1.33Z"/><path class="cls-7" d="M312.46,119.47H308V113h4.39v1.11H309v1.46h2v1.11h-2v1.62h3.44Z"/><path class="cls-7" d="M318.28,114.11h-2v5.36h-1v-5.36h-2V113h4.95Z"/><path class="cls-7" d="M324.64,119.47h-1v-2.8h-3.12v2.8h-1V113h1v2.53h3.12V113h1Z"/><path class="cls-7" d="M331.61,118h-1v1.52h-.91V118h-3.25v-1.09l3.22-4.07h.94v4.07h1Zm-1.95-1.09V114l-2.34,2.92Z"/><path class="cls-7" d="M352.33,119.47h-4.44V113h4.4v1.11h-3.4v1.46h2v1.11h-2v1.62h3.44Z"/><path class="cls-7" d="M358.16,114.11h-2v5.36h-1v-5.36h-2V113h5Z"/><path class="cls-7" d="M364.51,119.47h-1v-2.8h-3.12v2.8h-1V113h1v2.53h3.12V113h1Z"/><path class="cls-7" d="M371.34,117.37a2,2,0,0,1-.79,1.85,2.91,2.91,0,0,1-1.57.34,6.56,6.56,0,0,1-2.07-.26l-.22-1.27a8.51,8.51,0,0,0,2.27.34,2.57,2.57,0,0,0,.92-.12.92.92,0,0,0,.54-.94.88.88,0,0,0-.52-.9,2.76,2.76,0,0,0-.89-.11,12.71,12.71,0,0,0-2.32.26l.24-3.61h3.72l-.08,1.11h-3l-.1,1.27a12,12,0,0,1,1.74-.17C370.63,115.16,371.34,115.9,371.34,117.37Z"/><polygon class="cls-2" points="216.23 74.41 182.1 74.41 182.1 93.59 189.11 93.59 189.11 100.09 193.39 100.09 193.39 103.03 205.04 103.03 205.04 100.09 209.32 100.09 209.32 93.59 216.23 93.59 216.23 74.41"/><polygon class="cls-2" points="256.23 74.41 222.1 74.41 222.1 93.59 229.11 93.59 229.11 100.09 233.39 100.09 233.39 103.03 245.04 103.03 245.04 100.09 249.32 100.09 249.32 93.59 256.23 93.59 256.23 74.41"/><polygon class="cls-2" points="296.23 74.41 262.1 74.41 262.1 93.59 269.11 93.59 269.11 100.09 273.39 100.09 273.39 103.03 285.04 103.03 285.04 100.09 289.32 100.09 289.32 93.59 296.23 93.59 296.23 74.41"/><polygon class="cls-2" points="336.23 74.41 302.1 74.41 302.1 93.59 309.11 93.59 309.11 100.09 313.39 100.09 313.39 103.03 325.04 103.03 325.04 100.09 329.32 100.09 329.32 93.59 336.23 93.59 336.23 74.41"/><polygon class="cls-2" points="376.23 74.41 342.1 74.41 342.1 93.59 349.11 93.59 349.11 100.09 353.39 100.09 353.39 103.03 365.04 103.03 365.04 100.09 369.32 100.09 369.32 93.59 376.23 93.59 376.23 74.41"/><rect class="cls-4" x="469.01" y="68.38" width="207.5" height="37.96"/><path class="cls-7" d="M486,119.47h-4.44V113H486v1.11h-3.4v1.46h2v1.11h-2v1.62H486Z"/><path class="cls-7" d="M491.81,114.11h-2v5.36h-1v-5.36h-2V113h4.95Z"/><path class="cls-7" d="M498.17,119.47h-1v-2.8H494v2.8h-1V113h1v2.53h3.12V113h1Z"/><path class="cls-7" d="M504.89,117.88q0,1.59-1.47,1.59h-1.81a1.31,1.31,0,0,1-1.1-.4,2.9,2.9,0,0,1-.32-1.61v-.86a4.07,4.07,0,0,1,1-3,3,3,0,0,1,2.2-.84,1.9,1.9,0,0,1,.31,0l.59,1H504a6,6,0,0,0-1.15.09,1.93,1.93,0,0,0-1.66,1.59,8.56,8.56,0,0,1,1.9-.23,3.85,3.85,0,0,1,.84.08,1.13,1.13,0,0,1,.74.48,2.08,2.08,0,0,1,.23,1.12Zm-.91-.37v-.35c0-.37-.11-.61-.32-.71a1.75,1.75,0,0,0-.63-.07,12.79,12.79,0,0,0-1.91.15c0,.11,0,.23,0,.38a2.75,2.75,0,0,0,.13,1.11c.1.18.36.28.76.28h1.2a1.19,1.19,0,0,0,.55-.1A.85.85,0,0,0,504,117.51Z"/><path class="cls-7" d="M525.83,119.47h-4.44V113h4.4v1.11h-3.4v1.46h2v1.11h-2v1.62h3.44Z"/><path class="cls-7" d="M531.66,114.11h-2v5.36h-1v-5.36h-2V113h4.95Z"/><path class="cls-7" d="M538,119.47h-1v-2.8h-3.12v2.8h-1V113h1v2.53H537V113h1Z"/><path class="cls-7" d="M544.76,114l-2.25,5.59h-1.09l2.32-5.53H540.9v1.41l-.91-.25V113h4.77Z"/><path class="cls-7" d="M565.78,119.47h-4.32V113h4.28v1.11h-3.31v1.46h1.93v1.11h-1.93v1.62h3.35Z"/><path class="cls-7" d="M571.46,114.11h-1.93v5.36h-1v-5.36h-1.92V113h4.83Z"/><path class="cls-7" d="M577.64,119.47h-1v-2.8h-3v2.8h-1V113h1v2.53h3V113h1Z"/><path class="cls-7" d="M584.2,118.07a1.88,1.88,0,0,1-.25,1.14,1,1,0,0,1-.77.26h-2.67a1,1,0,0,1-.77-.26,1.88,1.88,0,0,1-.25-1.14v-.68c0-.77.3-1.2.89-1.31a.93.93,0,0,1-.7-.59,4.68,4.68,0,0,1-.1-1.26,1.61,1.61,0,0,1,.24-1,.92.92,0,0,1,.72-.23h2.61c.45,0,.74.14.85.43a5.53,5.53,0,0,1,.11,1.44,1.57,1.57,0,0,1-.21.9,1.07,1.07,0,0,1-.59.36c.6.11.89.54.89,1.31Zm-.89-.35v-.49a1,1,0,0,0-.08-.48.38.38,0,0,0-.32-.11h-2.14a.37.37,0,0,0-.31.11.89.89,0,0,0-.08.48v.49a.85.85,0,0,0,.08.48.41.41,0,0,0,.31.1h2.14a.4.4,0,0,0,.32-.11A.93.93,0,0,0,583.31,117.72Zm-.09-2.74v-.32a.85.85,0,0,0-.08-.48.36.36,0,0,0-.32-.12h-2a.37.37,0,0,0-.32.12.85.85,0,0,0-.08.48V115a.91.91,0,0,0,.08.49.4.4,0,0,0,.32.11h2a.38.38,0,0,0,.32-.11A.91.91,0,0,0,583.22,115Z"/><path class="cls-7" d="M605.43,119.47H601V113h4.39v1.11H602v1.46h2v1.11h-2v1.62h3.44Z"/><path class="cls-7" d="M611.25,114.11h-2v5.36h-1v-5.36h-2V113h5Z"/><path class="cls-7" d="M617.6,119.47h-1v-2.8h-3.12v2.8h-1V113h1v2.53h3.12V113h1Z"/><path class="cls-7" d="M624.29,115.82a4.07,4.07,0,0,1-1,3,3,3,0,0,1-2.2.83h-.31l-.59-1h.27a5,5,0,0,0,1.63-.2,1.93,1.93,0,0,0,1.19-1.48,8.58,8.58,0,0,1-1.9.22,3.72,3.72,0,0,1-.84-.08,1.13,1.13,0,0,1-.74-.48,2.09,2.09,0,0,1-.24-1.13v-.87q0-1.59,1.47-1.59h1.81a1.3,1.3,0,0,1,1.11.42,2.81,2.81,0,0,1,.31,1.59Zm-.91-.33a2.81,2.81,0,0,0-.15-1.17c-.1-.17-.35-.26-.75-.26h-1.19a1,1,0,0,0-.56.12.84.84,0,0,0-.23.69v.37c0,.38.11.62.32.73a1.71,1.71,0,0,0,.64.08,12.8,12.8,0,0,0,1.9-.17C623.37,115.73,623.38,115.6,623.38,115.49Z"/><path class="cls-7" d="M642.3,119.47h-4.44V113h4.4v1.11h-3.4v1.46h2v1.11h-2v1.62h3.44Z"/><path class="cls-7" d="M648.13,114.11h-2v5.36h-1v-5.36h-2V113h5Z"/><path class="cls-7" d="M654.48,119.47h-1v-2.8h-3.12v2.8h-1V113h1v2.53h3.12V113h1Z"/><path class="cls-7" d="M659.43,119.47h-.9v-5.28h-.92v-.87l1.82-.42Z"/><path class="cls-7" d="M667.67,117.93a2.43,2.43,0,0,1-.21,1.21.83.83,0,0,1-.78.33h-2.9a.85.85,0,0,1-.78-.33,2.46,2.46,0,0,1-.2-1.21v-3.44a2.46,2.46,0,0,1,.2-1.21.85.85,0,0,1,.78-.33h2.9a.83.83,0,0,1,.78.33,2.43,2.43,0,0,1,.21,1.21Zm-.9.37v-4.24H663.7v4.24Z"/><polygon class="cls-2" points="510.2 74.41 476.07 74.41 476.07 93.59 483.08 93.59 483.08 100.09 487.36 100.09 487.36 103.03 499.01 103.03 499.01 100.09 503.29 100.09 503.29 93.59 510.2 93.59 510.2 74.41"/><polygon class="cls-2" points="550.2 74.41 516.07 74.41 516.07 93.59 523.08 93.59 523.08 100.09 527.36 100.09 527.36 103.03 539.01 103.03 539.01 100.09 543.29 100.09 543.29 93.59 550.2 93.59 550.2 74.41"/><polygon class="cls-2" points="590.2 74.41 556.07 74.41 556.07 93.59 563.08 93.59 563.08 100.09 567.36 100.09 567.36 103.03 579.01 103.03 579.01 100.09 583.29 100.09 583.29 93.59 590.2 93.59 590.2 74.41"/><polygon class="cls-2" points="630.2 74.41 596.07 74.41 596.07 93.59 603.08 93.59 603.08 100.09 607.36 100.09 607.36 103.03 619.01 103.03 619.01 100.09 623.29 100.09 623.29 93.59 630.2 93.59 630.2 74.41"/><polygon class="cls-2" points="670.2 74.41 636.07 74.41 636.07 93.59 643.08 93.59 643.08 100.09 647.36 100.09 647.36 103.03 659.01 103.03 659.01 100.09 663.29 100.09 663.29 93.59 670.2 93.59 670.2 74.41"/><circle class="cls-10" cx="398.26" cy="86.71" r="4.18"/><path class="cls-7" d="M399.58,75.05h-1.31V70H397v-.82l2.63-.4Z"/><circle class="cls-11" cx="412.5" cy="86.71" r="4.18"/><path class="cls-7" d="M415.81,73.84a1.16,1.16,0,0,1-.35,1,1.83,1.83,0,0,1-1.07.22h-5.21v-.56a1,1,0,0,1,.21-.68,2.18,2.18,0,0,1,.57-.45l4.29-2.64v-.81h-3.53v1.28l-1.22-.32v-.8a1.18,1.18,0,0,1,.34-1,2,2,0,0,1,1.07-.21h3.18c.64,0,1.05.11,1.21.35a2.38,2.38,0,0,1,.21,1.26,1.33,1.33,0,0,1-.18.76,2.33,2.33,0,0,1-.63.5l-3.63,2.2h3.6V73l1.14.33Z"/><circle class="cls-12" cx="426.73" cy="86.71" r="4.18"/><path class="cls-7" d="M430,73.72a1.35,1.35,0,0,1-.36,1.08,1.92,1.92,0,0,1-1.14.25h-3.6c-.67,0-1.08-.13-1.24-.38a3,3,0,0,1-.18-1.34l1.27-.26v.86h3.34q.5,0,.57-.27a4.16,4.16,0,0,0,0-.73c0-.24,0-.39-.13-.46a.75.75,0,0,0-.47-.11H426v-1h1.86c.3,0,.49-.07.55-.22a2.59,2.59,0,0,0,0-.65.63.63,0,0,0-.12-.46.75.75,0,0,0-.47-.11h-3.06v.77l-1.22-.23v-.38a1.18,1.18,0,0,1,.34-1,2,2,0,0,1,1.07-.21h3.35c.67,0,1.09.13,1.26.41a3.49,3.49,0,0,1,.16,1.36,1.07,1.07,0,0,1-.32.86,1.74,1.74,0,0,1-.88.32Q430,72,430,73.07Z"/><circle class="cls-13" cx="440.96" cy="86.71" r="4.18"/><path class="cls-7" d="M444.71,73.68h-1.5v1.44H441.9V73.68h-4.69v-1l4.64-3.86h1.36v3.86h1.5Zm-2.81-1V69.88l-3.38,2.77Z"/><circle class="cls-14" cx="455.07" cy="86.71" r="4.18"/><path class="cls-7" d="M458.42,73.06a1.74,1.74,0,0,1-1.14,1.75,6,6,0,0,1-2.27.32,13.51,13.51,0,0,1-3-.25l-.32-1.2A18.19,18.19,0,0,0,455,74a5.23,5.23,0,0,0,1.33-.12c.52-.15.78-.44.78-.89s-.25-.71-.76-.85a5,5,0,0,0-1.27-.11,26.07,26.07,0,0,0-3.35.25l.35-3.43h5.35l-.1,1H453l-.15,1.2c1-.1,1.86-.15,2.51-.15C457.4,71,458.42,71.66,458.42,73.06Z"/><circle class="cls-15" cx="398.22" cy="101.29" r="4.18"/><path class="cls-7" d="M401.4,112.92c0,1-.67,1.51-2,1.51H397a2.14,2.14,0,0,1-1.48-.39,2.06,2.06,0,0,1-.43-1.52v-.82a3.25,3.25,0,0,1,1.3-2.82,5.06,5.06,0,0,1,3-.8l.41,0,.8,1h-.37a12.85,12.85,0,0,0-1.55.08,2.42,2.42,0,0,0-2.24,1.52,15.39,15.39,0,0,1,2.57-.22,7,7,0,0,1,1.13.07,1.65,1.65,0,0,1,1,.46,1.55,1.55,0,0,1,.32,1.07Zm-1.24-.35v-.34a.63.63,0,0,0-.43-.67,3.15,3.15,0,0,0-.85-.07c-.83,0-1.68.05-2.58.14,0,.11,0,.23,0,.36a2,2,0,0,0,.18,1.06c.14.17.48.26,1,.26h1.62a2.11,2.11,0,0,0,.74-.09A.68.68,0,0,0,400.16,112.57Z"/><circle class="cls-16" cx="412.33" cy="101.29" r="4.18"/><path class="cls-7" d="M415.77,109.23l-3.24,5.31H411l3.33-5.25H410.2v1.33l-1.31-.22v-2.16h6.88Z"/><circle class="cls-17" cx="426.89" cy="101.29" r="4.18"/><path class="cls-7" d="M430.19,113.1a1.38,1.38,0,0,1-.35,1.08,1.78,1.78,0,0,1-1.08.25H425a1.82,1.82,0,0,1-1.08-.25,1.38,1.38,0,0,1-.34-1.08v-.65c0-.73.42-1.14,1.25-1.24a1.28,1.28,0,0,1-1-.56,3.25,3.25,0,0,1-.14-1.2,1.21,1.21,0,0,1,.33-1,1.78,1.78,0,0,1,1-.21h3.65c.64,0,1,.13,1.2.4a3.67,3.67,0,0,1,.15,1.37,1.08,1.08,0,0,1-.3.85,1.61,1.61,0,0,1-.82.35c.84.1,1.25.51,1.25,1.24Zm-1.25-.34v-.46a.66.66,0,0,0-.11-.45.69.69,0,0,0-.44-.11h-3a.7.7,0,0,0-.45.11.66.66,0,0,0-.11.45v.46a.68.68,0,0,0,.11.46.8.8,0,0,0,.45.09h3a.66.66,0,0,0,.43-.1A.61.61,0,0,0,428.94,112.76Zm-.12-2.59v-.31a.62.62,0,0,0-.12-.46.65.65,0,0,0-.44-.11h-2.74a.7.7,0,0,0-.45.11.62.62,0,0,0-.12.46v.31a.61.61,0,0,0,.12.45.64.64,0,0,0,.45.11h2.74a.6.6,0,0,0,.44-.11A.61.61,0,0,0,428.82,110.17Z"/><circle class="cls-18" cx="440.61" cy="101.29" r="4.18"/><path class="cls-7" d="M443.61,111a3.29,3.29,0,0,1-1.24,2.82,4.57,4.57,0,0,1-2.81.79h-.39l-.76-1h.35a8,8,0,0,0,2.08-.19,2.08,2.08,0,0,0,1.52-1.4,14.94,14.94,0,0,1-2.43.2,6.29,6.29,0,0,1-1.07-.07,1.5,1.5,0,0,1-.95-.46,1.58,1.58,0,0,1-.29-1.06v-.83c0-1,.62-1.51,1.87-1.51h2.31a2,2,0,0,1,1.41.39,2.14,2.14,0,0,1,.4,1.51Zm-1.16-.31a2,2,0,0,0-.19-1.11c-.13-.17-.45-.25-1-.25h-1.52a1.68,1.68,0,0,0-.71.11.68.68,0,0,0-.3.66v.35a.65.65,0,0,0,.41.69,2.77,2.77,0,0,0,.82.08,22.73,22.73,0,0,0,2.42-.16A2.73,2.73,0,0,0,442.45,110.65Z"/><circle class="cls-19" cx="455.07" cy="101.29" r="4.18"/><path class="cls-7" d="M451.6,114.43h-1v-5h-1v-.83l2-.39Z"/><path class="cls-7" d="M460.51,113a2.14,2.14,0,0,1-.22,1.16,1,1,0,0,1-.84.31H456.3a1,1,0,0,1-.84-.31,2.14,2.14,0,0,1-.22-1.16V109.7a2.1,2.1,0,0,1,.22-1.15,1,1,0,0,1,.84-.31h3.15a1,1,0,0,1,.84.31,2.1,2.1,0,0,1,.22,1.15Zm-1,.35v-4h-3.33v4Z"/><rect class="cls-20" x="88.99" y="66.94" width="5.65" height="37.04"/><rect class="cls-21" x="634.04" y="66.75" width="38.58" height="1.63"/><rect class="cls-21" x="634.04" y="106.34" width="38.58" height="2.74"/><path id="path2821" class="cls-21" d="M657.47,59.09a.38.38,0,0,0-.54-.06l-1.22,1-.6-.76a.14.14,0,0,0-.18,0l-1.16.93a2.62,2.62,0,0,0-.73,3.21l-1.93,1.53a.56.56,0,0,0-.09.8.58.58,0,0,0,.81.1l1.92-1.53a2.65,2.65,0,0,0,3.3,0l1.16-.92a.14.14,0,0,0,0-.18l-.59-.76,1.22-1a.38.38,0,0,0-.48-.6l-1.22,1-1-1.22,1.22-1a.38.38,0,0,0,.06-.54Z"/><rect class="cls-22" x="187.42" y="74.41" width="1.32" height="7.2"/><rect class="cls-23" x="190.59" y="74.41" width="1.32" height="7.2"/><rect class="cls-24" x="193.76" y="74.41" width="1.32" height="7.2"/><rect class="cls-25" x="196.92" y="74.41" width="1.32" height="7.2"/><rect class="cls-26" x="200.09" y="74.41" width="1.32" height="7.2"/><rect class="cls-27" x="203.26" y="74.41" width="1.32" height="7.2"/><rect class="cls-28" x="206.43" y="74.41" width="1.32" height="7.2"/><rect class="cls-29" x="209.6" y="74.41" width="1.32" height="7.2"/><rect class="cls-30" x="227.42" y="74.41" width="1.32" height="7.2"/><rect class="cls-31" x="230.59" y="74.41" width="1.32" height="7.2"/><rect class="cls-32" x="233.76" y="74.41" width="1.32" height="7.2"/><rect class="cls-33" x="236.92" y="74.41" width="1.32" height="7.2"/><rect class="cls-34" x="240.09" y="74.41" width="1.32" height="7.2"/><rect class="cls-35" x="243.26" y="74.41" width="1.32" height="7.2"/><rect class="cls-36" x="246.43" y="74.41" width="1.32" height="7.2"/><rect class="cls-37" x="249.6" y="74.41" width="1.32" height="7.2"/><rect class="cls-38" x="267.04" y="74.41" width="1.32" height="7.2"/><rect class="cls-39" x="270.21" y="74.41" width="1.32" height="7.2"/><rect class="cls-40" x="273.38" y="74.41" width="1.32" height="7.2"/><rect class="cls-41" x="276.55" y="74.41" width="1.32" height="7.2"/><rect class="cls-42" x="279.72" y="74.41" width="1.32" height="7.2"/><rect class="cls-43" x="282.89" y="74.41" width="1.32" height="7.2"/><rect class="cls-44" x="286.06" y="74.41" width="1.32" height="7.2"/><rect class="cls-45" x="289.23" y="74.41" width="1.32" height="7.2"/><rect class="cls-46" x="307.42" y="74.41" width="1.32" height="7.2"/><rect class="cls-47" x="310.59" y="74.41" width="1.32" height="7.2"/><rect class="cls-48" x="313.76" y="74.41" width="1.32" height="7.2"/><rect class="cls-49" x="316.92" y="74.41" width="1.32" height="7.2"/><rect class="cls-50" x="320.09" y="74.41" width="1.32" height="7.2"/><rect class="cls-51" x="323.26" y="74.41" width="1.32" height="7.2"/><rect class="cls-52" x="326.43" y="74.41" width="1.32" height="7.2"/><rect class="cls-53" x="329.6" y="74.41" width="1.32" height="7.2"/><rect class="cls-54" x="347.42" y="74.41" width="1.32" height="7.2"/><rect class="cls-55" x="350.59" y="74.41" width="1.32" height="7.2"/><rect class="cls-56" x="353.76" y="74.41" width="1.32" height="7.2"/><rect class="cls-57" x="356.92" y="74.41" width="1.32" height="7.2"/><rect class="cls-58" x="360.09" y="74.41" width="1.32" height="7.2"/><rect class="cls-59" x="363.26" y="74.41" width="1.32" height="7.2"/><rect class="cls-60" x="366.43" y="74.41" width="1.32" height="7.2"/><rect class="cls-61" x="369.6" y="74.41" width="1.32" height="7.2"/><rect class="cls-62" x="481.39" y="74.41" width="1.32" height="7.2"/><rect class="cls-63" x="484.56" y="74.41" width="1.32" height="7.2"/><rect class="cls-64" x="487.73" y="74.41" width="1.32" height="7.2"/><rect class="cls-65" x="490.89" y="74.41" width="1.32" height="7.2"/><rect class="cls-66" x="494.06" y="74.41" width="1.32" height="7.2"/><rect class="cls-67" x="497.23" y="74.41" width="1.32" height="7.2"/><rect class="cls-68" x="500.4" y="74.41" width="1.32" height="7.2"/><rect class="cls-69" x="503.57" y="74.41" width="1.32" height="7.2"/><rect class="cls-70" x="521.39" y="74.41" width="1.32" height="7.2"/><rect class="cls-71" x="524.56" y="74.41" width="1.32" height="7.2"/><rect class="cls-72" x="527.73" y="74.41" width="1.32" height="7.2"/><rect class="cls-73" x="530.89" y="74.41" width="1.32" height="7.2"/><rect class="cls-74" x="534.06" y="74.41" width="1.32" height="7.2"/><rect class="cls-75" x="537.23" y="74.41" width="1.32" height="7.2"/><rect class="cls-76" x="540.4" y="74.41" width="1.32" height="7.2"/><rect class="cls-77" x="543.57" y="74.41" width="1.32" height="7.2"/><rect class="cls-78" x="561.01" y="74.41" width="1.32" height="7.2"/><rect class="cls-79" x="564.18" y="74.41" width="1.32" height="7.2"/><rect class="cls-80" x="567.35" y="74.41" width="1.32" height="7.2"/><rect class="cls-81" x="570.52" y="74.41" width="1.32" height="7.2"/><rect class="cls-82" x="573.69" y="74.41" width="1.32" height="7.2"/><rect class="cls-83" x="576.86" y="74.41" width="1.32" height="7.2"/><rect class="cls-84" x="580.03" y="74.41" width="1.32" height="7.2"/><rect class="cls-85" x="583.2" y="74.41" width="1.32" height="7.2"/><rect class="cls-86" x="601.39" y="74.41" width="1.32" height="7.2"/><rect class="cls-87" x="604.56" y="74.41" width="1.32" height="7.2"/><rect class="cls-88" x="607.73" y="74.41" width="1.32" height="7.2"/><rect class="cls-89" x="610.89" y="74.41" width="1.32" height="7.2"/><rect class="cls-90" x="614.06" y="74.41" width="1.32" height="7.2"/><rect class="cls-91" x="617.23" y="74.41" width="1.32" height="7.2"/><rect class="cls-92" x="620.4" y="74.41" width="1.32" height="7.2"/><rect class="cls-93" x="623.57" y="74.41" width="1.32" height="7.2"/><rect class="cls-94" x="641.39" y="74.41" width="1.32" height="7.2"/><rect class="cls-95" x="644.56" y="74.41" width="1.32" height="7.2"/><rect class="cls-96" x="647.73" y="74.41" width="1.32" height="7.2"/><rect class="cls-97" x="650.89" y="74.41" width="1.32" height="7.2"/><rect class="cls-98" x="654.06" y="74.41" width="1.32" height="7.2"/><rect class="cls-99" x="657.23" y="74.41" width="1.32" height="7.2"/><rect class="cls-100" x="660.4" y="74.41" width="1.32" height="7.2"/><rect class="cls-101" x="663.57" y="74.41" width="1.32" height="7.2"/><rect class="cls-2" x="1314.1" width="1.68" height="125.19"/><rect class="cls-3" x="1316.78" width="2.75" height="125.19"/><rect x="1312.8" width="0.9" height="125.19"/><polygon class="cls-102" points="90.72 16.13 84.45 16.13 81.32 21.55 84.45 26.98 90.72 26.98 93.85 21.55 90.72 16.13"/><polygon class="cls-103" points="104.84 24.1 97.67 24.1 95.17 29.85 107.34 29.85 104.84 24.1"/><polygon class="cls-104" points="97.67 19.35 104.84 19.35 107.34 13.6 95.17 13.6 97.67 19.35"/><polygon class="cls-105" points="117.9 16.13 111.63 16.13 108.5 21.55 111.63 26.98 117.9 26.98 121.03 21.55 117.9 16.13"/><polygon class="cls-106" points="132.02 24.1 124.85 24.1 122.35 29.85 134.52 29.85 132.02 24.1"/><polygon class="cls-107" points="124.85 19.35 132.02 19.35 134.52 13.6 122.35 13.6 124.85 19.35"/><polygon class="cls-108" points="145.08 16.13 138.81 16.13 135.68 21.55 138.81 26.98 145.08 26.98 148.21 21.55 145.08 16.13"/><polygon class="cls-109" points="159.2 24.1 152.03 24.1 149.53 29.85 161.7 29.85 159.2 24.1"/><polygon class="cls-110" points="152.03 19.35 159.2 19.35 161.7 13.6 149.53 13.6 152.03 19.35"/><polygon class="cls-111" points="172.26 16.13 166 16.13 162.86 21.55 166 26.98 172.26 26.98 175.39 21.55 172.26 16.13"/><polygon class="cls-112" points="186.38 24.1 179.21 24.1 176.71 29.85 188.88 29.85 186.38 24.1"/><polygon class="cls-113" points="179.21 19.35 186.38 19.35 188.88 13.6 176.71 13.6 179.21 19.35"/><polygon class="cls-114" points="199.44 16.13 193.18 16.13 190.04 21.55 193.18 26.98 199.44 26.98 202.57 21.55 199.44 16.13"/><polygon class="cls-115" points="213.56 24.1 206.39 24.1 203.89 29.85 216.06 29.85 213.56 24.1"/><polygon class="cls-116" points="206.39 19.35 213.56 19.35 216.06 13.6 203.89 13.6 206.39 19.35"/><polygon class="cls-117" points="226.62 16.13 220.36 16.13 217.22 21.55 220.36 26.98 226.62 26.98 229.75 21.55 226.62 16.13"/><polygon class="cls-118" points="240.74 24.1 233.57 24.1 231.07 29.85 243.24 29.85 240.74 24.1"/><polygon class="cls-119" points="233.57 19.35 240.74 19.35 243.24 13.6 231.07 13.6 233.57 19.35"/><polygon class="cls-120" points="253.8 16.13 247.54 16.13 244.4 21.55 247.54 26.98 253.8 26.98 256.93 21.55 253.8 16.13"/><polygon class="cls-121" points="267.92 24.1 260.75 24.1 258.25 29.85 270.42 29.85 267.92 24.1"/><polygon class="cls-122" points="260.75 19.35 267.92 19.35 270.42 13.6 258.25 13.6 260.75 19.35"/><polygon class="cls-123" points="280.98 16.13 274.72 16.13 271.58 21.55 274.72 26.98 280.98 26.98 284.12 21.55 280.98 16.13"/><polygon class="cls-124" points="295.1 24.1 287.93 24.1 285.43 29.85 297.6 29.85 295.1 24.1"/><polygon class="cls-125" points="287.93 19.35 295.1 19.35 297.6 13.6 285.43 13.6 287.93 19.35"/><polygon class="cls-126" points="308.16 16.13 301.9 16.13 298.76 21.55 301.9 26.98 308.16 26.98 311.3 21.55 308.16 16.13"/><polygon class="cls-127" points="322.28 24.1 315.11 24.1 312.61 29.85 324.78 29.85 322.28 24.1"/><polygon class="cls-128" points="315.11 19.35 322.28 19.35 324.78 13.6 312.61 13.6 315.11 19.35"/><polygon class="cls-129" points="335.34 16.13 329.08 16.13 325.95 21.55 329.08 26.98 335.34 26.98 338.48 21.55 335.34 16.13"/><polygon class="cls-130" points="349.46 24.1 342.29 24.1 339.79 29.85 351.96 29.85 349.46 24.1"/><polygon class="cls-131" points="342.29 19.35 349.46 19.35 351.96 13.6 339.79 13.6 342.29 19.35"/><polygon class="cls-132" points="362.52 16.13 356.26 16.13 353.13 21.55 356.26 26.98 362.52 26.98 365.66 21.55 362.52 16.13"/><polygon class="cls-133" points="376.64 24.1 369.48 24.1 366.98 29.85 379.14 29.85 376.64 24.1"/><polygon class="cls-134" points="369.48 19.35 376.64 19.35 379.14 13.6 366.98 13.6 369.48 19.35"/><polygon class="cls-135" points="389.7 16.13 383.44 16.13 380.31 21.55 383.44 26.98 389.7 26.98 392.84 21.55 389.7 16.13"/><polygon class="cls-136" points="403.82 24.1 396.65 24.1 394.15 29.85 406.32 29.85 403.82 24.1"/><polygon class="cls-137" points="396.65 19.35 403.82 19.35 406.32 13.6 394.15 13.6 396.65 19.35"/><polygon class="cls-138" points="416.88 16.13 410.62 16.13 407.49 21.55 410.62 26.98 416.88 26.98 420.02 21.55 416.88 16.13"/><polygon class="cls-139" points="431 24.1 423.84 24.1 421.34 29.85 433.5 29.85 431 24.1"/><polygon class="cls-140" points="423.84 19.35 431 19.35 433.5 13.6 421.34 13.6 423.84 19.35"/><polygon class="cls-141" points="444.07 16.13 437.8 16.13 434.67 21.55 437.8 26.98 444.07 26.98 447.2 21.55 444.07 16.13"/><polygon class="cls-142" points="458.18 24.1 451.02 24.1 448.52 29.85 460.68 29.85 458.18 24.1"/><polygon class="cls-143" points="451.02 19.35 458.18 19.35 460.68 13.6 448.52 13.6 451.02 19.35"/><polygon class="cls-144" points="471.25 16.13 464.98 16.13 461.85 21.55 464.98 26.98 471.25 26.98 474.38 21.55 471.25 16.13"/><polygon class="cls-145" points="485.36 24.1 478.2 24.1 475.7 29.85 487.86 29.85 485.36 24.1"/><polygon class="cls-146" points="478.2 19.35 485.36 19.35 487.86 13.6 475.7 13.6 478.2 19.35"/><polygon class="cls-147" points="498.43 16.13 492.16 16.13 489.03 21.55 492.16 26.98 498.43 26.98 501.56 21.55 498.43 16.13"/><polygon class="cls-148" points="512.54 24.1 505.38 24.1 502.88 29.85 515.04 29.85 512.54 24.1"/><polygon class="cls-149" points="505.38 19.35 512.54 19.35 515.04 13.6 502.88 13.6 505.38 19.35"/><polygon class="cls-150" points="525.61 16.13 519.34 16.13 516.21 21.55 519.34 26.98 525.61 26.98 528.74 21.55 525.61 16.13"/><polygon class="cls-151" points="539.73 24.1 532.56 24.1 530.06 29.85 542.23 29.85 539.73 24.1"/><polygon class="cls-152" points="532.56 19.35 539.73 19.35 542.23 13.6 530.06 13.6 532.56 19.35"/><polygon class="cls-153" points="552.79 16.13 546.52 16.13 543.39 21.55 546.52 26.98 552.79 26.98 555.92 21.55 552.79 16.13"/><polygon class="cls-154" points="566.9 24.1 559.74 24.1 557.24 29.85 569.4 29.85 566.9 24.1"/><polygon class="cls-155" points="559.74 19.35 566.9 19.35 569.4 13.6 557.24 13.6 559.74 19.35"/><polygon class="cls-156" points="579.97 16.13 573.7 16.13 570.57 21.55 573.7 26.98 579.97 26.98 583.1 21.55 579.97 16.13"/><polygon class="cls-157" points="594.09 24.1 586.92 24.1 584.42 29.85 596.59 29.85 594.09 24.1"/><polygon class="cls-158" points="586.92 19.35 594.09 19.35 596.59 13.6 584.42 13.6 586.92 19.35"/><polygon class="cls-159" points="607.15 16.13 600.88 16.13 597.75 21.55 600.88 26.98 607.15 26.98 610.28 21.55 607.15 16.13"/><polygon class="cls-160" points="621.27 24.1 614.1 24.1 611.6 29.85 623.77 29.85 621.27 24.1"/><polygon class="cls-161" points="614.1 19.35 621.27 19.35 623.77 13.6 611.6 13.6 614.1 19.35"/><polygon class="cls-162" points="634.33 16.13 628.06 16.13 624.93 21.55 628.06 26.98 634.33 26.98 637.46 21.55 634.33 16.13"/><polygon class="cls-163" points="648.45 24.1 641.28 24.1 638.78 29.85 650.95 29.85 648.45 24.1"/><polygon class="cls-164" points="641.28 19.35 648.45 19.35 650.95 13.6 638.78 13.6 641.28 19.35"/><polygon class="cls-165" points="661.51 16.13 655.25 16.13 652.11 21.55 655.25 26.98 661.51 26.98 664.64 21.55 661.51 16.13"/><polygon class="cls-166" points="675.63 24.1 668.46 24.1 665.96 29.85 678.13 29.85 675.63 24.1"/><polygon class="cls-167" points="668.46 19.35 675.63 19.35 678.13 13.6 665.96 13.6 668.46 19.35"/><polygon class="cls-168" points="688.76 16.13 682.5 16.13 679.36 21.55 682.5 26.98 688.76 26.98 691.89 21.55 688.76 16.13"/><polygon class="cls-169" points="913.63 16.13 907.37 16.13 904.24 21.55 907.37 26.98 913.63 26.98 916.77 21.55 913.63 16.13"/><polygon class="cls-170" points="927.75 24.1 920.59 24.1 918.09 29.85 930.25 29.85 927.75 24.1"/><polygon class="cls-171" points="920.59 19.35 927.75 19.35 930.25 13.6 918.09 13.6 920.59 19.35"/><polygon class="cls-172" points="940.82 16.13 934.55 16.13 931.42 21.55 934.55 26.98 940.82 26.98 943.95 21.55 940.82 16.13"/><polygon class="cls-173" points="954.93 24.1 947.77 24.1 945.27 29.85 957.43 29.85 954.93 24.1"/><polygon class="cls-174" points="947.77 19.35 954.93 19.35 957.43 13.6 945.27 13.6 947.77 19.35"/><polygon class="cls-175" points="968 16.13 961.73 16.13 958.6 21.55 961.73 26.98 968 26.98 971.13 21.55 968 16.13"/><polygon class="cls-176" points="982.11 24.1 974.95 24.1 972.45 29.85 984.61 29.85 982.11 24.1"/><polygon class="cls-177" points="974.95 19.35 982.11 19.35 984.61 13.6 972.45 13.6 974.95 19.35"/><polygon class="cls-178" points="995.18 16.13 988.91 16.13 985.78 21.55 988.91 26.98 995.18 26.98 998.31 21.55 995.18 16.13"/><polygon class="cls-179" points="1009.29 24.1 1002.13 24.1 999.63 29.85 1011.79 29.85 1009.29 24.1"/><polygon class="cls-180" points="1002.13 19.35 1009.29 19.35 1011.79 13.6 999.63 13.6 1002.13 19.35"/><polygon class="cls-181" points="1022.36 16.13 1016.09 16.13 1012.96 21.55 1016.09 26.98 1022.36 26.98 1025.49 21.55 1022.36 16.13"/><polygon class="cls-182" points="1036.47 24.1 1029.31 24.1 1026.81 29.85 1038.97 29.85 1036.47 24.1"/><polygon class="cls-183" points="1029.31 19.35 1036.47 19.35 1038.97 13.6 1026.81 13.6 1029.31 19.35"/><polygon class="cls-184" points="1049.54 16.13 1043.27 16.13 1040.14 21.55 1043.27 26.98 1049.54 26.98 1052.67 21.55 1049.54 16.13"/><polygon class="cls-185" points="1063.66 24.1 1056.49 24.1 1053.99 29.85 1066.16 29.85 1063.66 24.1"/><polygon class="cls-186" points="1056.49 19.35 1063.66 19.35 1066.16 13.6 1053.99 13.6 1056.49 19.35"/><polygon class="cls-187" points="1076.72 16.13 1070.45 16.13 1067.32 21.55 1070.45 26.98 1076.72 26.98 1079.85 21.55 1076.72 16.13"/><polygon class="cls-188" points="1090.84 24.1 1083.67 24.1 1081.17 29.85 1093.34 29.85 1090.84 24.1"/><polygon class="cls-189" points="1083.67 19.35 1090.84 19.35 1093.34 13.6 1081.17 13.6 1083.67 19.35"/><polygon class="cls-190" points="1103.9 16.13 1097.63 16.13 1094.5 21.55 1097.63 26.98 1103.9 26.98 1107.03 21.55 1103.9 16.13"/><polygon class="cls-191" points="1118.02 24.1 1110.85 24.1 1108.35 29.85 1120.52 29.85 1118.02 24.1"/><polygon class="cls-192" points="1110.85 19.35 1118.02 19.35 1120.52 13.6 1108.35 13.6 1110.85 19.35"/><polygon class="cls-193" points="1131.08 16.13 1124.82 16.13 1121.68 21.55 1124.82 26.98 1131.08 26.98 1134.21 21.55 1131.08 16.13"/><polygon class="cls-194" points="1145.2 24.1 1138.03 24.1 1135.53 29.85 1147.7 29.85 1145.2 24.1"/><polygon class="cls-195" points="1138.03 19.35 1145.2 19.35 1147.7 13.6 1135.53 13.6 1138.03 19.35"/><polygon class="cls-196" points="1158.26 16.13 1151.99 16.13 1148.86 21.55 1151.99 26.98 1158.26 26.98 1161.39 21.55 1158.26 16.13"/><polygon class="cls-197" points="1172.38 24.1 1165.21 24.1 1162.71 29.85 1174.88 29.85 1172.38 24.1"/><polygon class="cls-198" points="1165.21 19.35 1172.38 19.35 1174.88 13.6 1162.71 13.6 1165.21 19.35"/><polygon class="cls-199" points="1185.44 16.13 1179.18 16.13 1176.04 21.55 1179.18 26.98 1185.44 26.98 1188.57 21.55 1185.44 16.13"/><polygon class="cls-200" points="1199.56 24.1 1192.39 24.1 1189.89 29.85 1202.06 29.85 1199.56 24.1"/><polygon class="cls-201" points="1192.39 19.35 1199.56 19.35 1202.06 13.6 1189.89 13.6 1192.39 19.35"/><polygon class="cls-202" points="1212.62 16.13 1206.36 16.13 1203.22 21.55 1206.36 26.98 1212.62 26.98 1215.75 21.55 1212.62 16.13"/><polygon class="cls-203" points="1226.74 24.1 1219.57 24.1 1217.07 29.85 1229.24 29.85 1226.74 24.1"/><polygon class="cls-204" points="1219.57 19.35 1226.74 19.35 1229.24 13.6 1217.07 13.6 1219.57 19.35"/><polygon class="cls-205" points="1239.8 16.13 1233.54 16.13 1230.4 21.55 1233.54 26.98 1239.8 26.98 1242.93 21.55 1239.8 16.13"/><polygon class="cls-206" points="1253.92 24.1 1246.75 24.1 1244.25 29.85 1256.42 29.85 1253.92 24.1"/><polygon class="cls-207" points="1246.75 19.35 1253.92 19.35 1256.42 13.6 1244.25 13.6 1246.75 19.35"/><polygon class="cls-208" points="1266.98 16.13 1260.72 16.13 1257.59 21.55 1260.72 26.98 1266.98 26.98 1270.12 21.55 1266.98 16.13"/><polygon class="cls-209" points="1281.1 24.1 1273.93 24.1 1271.43 29.85 1283.6 29.85 1281.1 24.1"/><polygon class="cls-210" points="1273.93 19.35 1281.1 19.35 1283.6 13.6 1271.43 13.6 1273.93 19.35"/><polygon class="cls-211" points="1294.16 16.13 1287.9 16.13 1284.77 21.55 1287.9 26.98 1294.16 26.98 1297.3 21.55 1294.16 16.13"/><path class="cls-7" d="M1136.07,110.24a2.32,2.32,0,0,0,1.81-.63,3.07,3.07,0,0,0,.57-2.1v-3.14a3.1,3.1,0,0,0-.57-2.1,2.36,2.36,0,0,0-1.81-.62H1127v14.08h1.88v-5.49h3.32l4.58,5.49h2.8l-5.15-5.49Zm-7.21-1.83v-4.94h6.46a1.29,1.29,0,0,1,.93.29,1.63,1.63,0,0,1,.3,1.16v2a1.61,1.61,0,0,1-.3,1.17,1.34,1.34,0,0,1-.93.27Z"/><path class="cls-7" d="M1150.59,108.41a2.47,2.47,0,0,0,1-.31,1.67,1.67,0,0,0,.57-.55,2,2,0,0,0,.27-.71,4.41,4.41,0,0,0,.08-.83v-1.64a3.1,3.1,0,0,0-.57-2.1,2.36,2.36,0,0,0-1.81-.62H1141v14.08h8.41q3.12,0,3.12-2.76v-1.8C1152.53,109.53,1151.88,108.61,1150.59,108.41Zm-7.71-4.88h6.51a1.38,1.38,0,0,1,.88.23,1.34,1.34,0,0,1,.27,1v1.42a1.36,1.36,0,0,1-.27,1,1.22,1.22,0,0,1-.88.26h-6.51Zm7.75,8.59a2.32,2.32,0,0,1-.27,1.32,1.18,1.18,0,0,1-1,.35h-6.51v-4.53h6.51a1.18,1.18,0,0,1,1,.35,2.37,2.37,0,0,1,.27,1.34Z"/><path class="cls-7" d="M1169.52,108.36a2.14,2.14,0,0,0,1.33-.87,3.48,3.48,0,0,0,.37-1.8V104.4a6.54,6.54,0,0,0-.12-1.38,1.75,1.75,0,0,0-.4-.83,1.54,1.54,0,0,0-.75-.42,4.78,4.78,0,0,0-1.15-.12h-5.72a4.78,4.78,0,0,0-1.15.12,1.54,1.54,0,0,0-.75.42,1.66,1.66,0,0,0-.4.83,5.93,5.93,0,0,0-.12,1.38v.87l1.7.44v-2.18h6q.63,0,.81.33a2.79,2.79,0,0,1,.19,1.28V106a2.85,2.85,0,0,1-.19,1.28q-.18.33-.81.33h-3.59v1.8h4c.42,0,.7.09.82.26a2,2,0,0,1,.18,1v1.88a1.88,1.88,0,0,1-.18,1c-.12.17-.4.25-.82.25h-6.51v-2.48l-1.79.51V113a6.54,6.54,0,0,0,.12,1.38,1.79,1.79,0,0,0,.41.84,1.41,1.41,0,0,0,.75.43,5.27,5.27,0,0,0,1.15.11h6.13a4,4,0,0,0,1.26-.17,1.56,1.56,0,0,0,.78-.53,2.14,2.14,0,0,0,.42-.94,6.91,6.91,0,0,0,.12-1.39v-1.48a3.29,3.29,0,0,0-.5-2A2.6,2.6,0,0,0,1169.52,108.36Z"/><path class="cls-7" d="M1185.1,102.36a1.47,1.47,0,0,0-.74-.55,3.55,3.55,0,0,0-1.17-.16H1176a3.87,3.87,0,0,0-1.17.15,1.44,1.44,0,0,0-.75.53,2.39,2.39,0,0,0-.4,1,10.33,10.33,0,0,0-.11,1.63v7.42a10.28,10.28,0,0,0,.11,1.62,2.39,2.39,0,0,0,.4,1,1.46,1.46,0,0,0,.75.54,3.87,3.87,0,0,0,1.17.15h7.16a3.53,3.53,0,0,0,1.17-.17,1.51,1.51,0,0,0,.74-.54,2.64,2.64,0,0,0,.4-1,8.8,8.8,0,0,0,.12-1.59V105a8.92,8.92,0,0,0-.12-1.6A2.53,2.53,0,0,0,1185.1,102.36Zm-1.3,11.43h-8.38V103.53h8.38Z"/><polygon class="cls-7" points="1190.38 103.86 1192.82 103.86 1192.82 115.73 1194.55 115.73 1194.55 101.54 1190.38 102.44 1190.38 103.86"/><polygon class="cls-7" points="1204.09 103.86 1206.54 103.86 1206.54 115.73 1208.26 115.73 1208.26 101.54 1204.09 102.44 1204.09 103.86"/><path class="cls-7" d="M1231.15,113.76h-8.21V101.65h-1.88V112.4a8.15,8.15,0,0,0,.13,1.62,2.29,2.29,0,0,0,.44,1,1.55,1.55,0,0,0,.8.54,4.56,4.56,0,0,0,1.27.15h6.68a4.56,4.56,0,0,0,1.27-.15,1.62,1.62,0,0,0,.81-.54,2.28,2.28,0,0,0,.42-1,9.09,9.09,0,0,0,.12-1.62V101.65h-1.85Z"/><rect class="cls-7" x="1235.43" y="104.18" width="1.75" height="11.54"/><path class="cls-7" d="M1243.53,101.65l-6.16,14.08h1.86l1.44-3.47h7.62l1.44,3.47h2.07l-6.26-14.08Zm-2.08,8.81,3-7.2,3,7.2Z"/><path class="cls-7" d="M1263.65,108.19a1.57,1.57,0,0,0-.81-.54,4.18,4.18,0,0,0-1.27-.16h-7.1v-3.93h8v2l1.62-.57v-.3a6.26,6.26,0,0,0-.16-1.5,2.27,2.27,0,0,0-.47-1,1.66,1.66,0,0,0-.82-.49,4.63,4.63,0,0,0-1.2-.13h-6a4.56,4.56,0,0,0-1.27.15,1.53,1.53,0,0,0-.8.53,2.53,2.53,0,0,0-.42,1,8.19,8.19,0,0,0-.13,1.63v1.22a8.19,8.19,0,0,0,.13,1.63,2.59,2.59,0,0,0,.42,1,1.53,1.53,0,0,0,.8.53,4.56,4.56,0,0,0,1.27.15h7.07v4.23h-8.38V111.5l-1.75.52v.38a8.15,8.15,0,0,0,.13,1.62,2.29,2.29,0,0,0,.44,1,1.54,1.54,0,0,0,.81.54,4.43,4.43,0,0,0,1.26.15h6.58a4.43,4.43,0,0,0,1.26-.15,1.54,1.54,0,0,0,.81-.54,2.28,2.28,0,0,0,.43-1,9.09,9.09,0,0,0,.12-1.62v-1.59a8.88,8.88,0,0,0-.12-1.59A2.37,2.37,0,0,0,1263.65,108.19Z"/><rect class="cls-7" x="1265.56" y="107.46" width="4.76" height="1.99"/><path class="cls-7" d="M1280.94,110.24a2.32,2.32,0,0,0,1.81-.63,3.07,3.07,0,0,0,.57-2.1v-3.14a3.1,3.1,0,0,0-.57-2.1,2.36,2.36,0,0,0-1.81-.62h-9.09v14.08h1.88v-5.49h3.32l4.59,5.49h2.79l-5.15-5.49Zm-7.21-1.83v-4.94h6.46a1.28,1.28,0,0,1,.93.29,1.63,1.63,0,0,1,.3,1.16v2a1.61,1.61,0,0,1-.3,1.17,1.32,1.32,0,0,1-.93.27Z"/><path class="cls-7" d="M1298,101.65l-5.11,9.16-5.48-9.16h-1.53v14.08h1.62v-9.5c0-.27,0-.58,0-.93s0-.73-.08-1.14a5.63,5.63,0,0,0,.38,1l.38.69,4.47,7.62h.48l4.29-7.83a11.39,11.39,0,0,0,.68-1.53c0,.52,0,1-.07,1.31s0,.6,0,.76v9.5h1.73V101.65Z"/><rect class="cls-7" x="1235.48" y="100.94" width="1.97" height="1.97"/><path class="cls-7" d="M244.55,62.79A2.15,2.15,0,0,1,244.3,64a1.1,1.1,0,0,1-.9.31h-3.19a1.1,1.1,0,0,1-.9-.31,2.17,2.17,0,0,1-.24-1.22V59.37a2.14,2.14,0,0,1,.24-1.22,1.1,1.1,0,0,1,.9-.32h3.19a1,1,0,0,1,.92.34,2.5,2.5,0,0,1,.23,1.29l-1.05.26V59h-3.36V63.1h3.36V61.66h-1.76V60.55h2.81Z"/><path class="cls-7" d="M246.82,64.32h-1.08V57.83h1.08Z"/><path class="cls-7" d="M253.49,62.79a2.07,2.07,0,0,1-.25,1.22,1.07,1.07,0,0,1-.9.31h-3.18a1.07,1.07,0,0,1-.9-.31,2.07,2.07,0,0,1-.25-1.22V59.37a2,2,0,0,1,.25-1.22,1.08,1.08,0,0,1,.9-.32h3.18a1,1,0,0,1,.92.34,2.5,2.5,0,0,1,.23,1.29l-1.05.26V59h-3.36V63.1h3.36V61.66h-1.75V60.55h2.8Z"/><path class="cls-7" d="M259.93,64.32h-1.2l-.56-1.42h-2.93l-.53,1.42h-1.08l2.62-6.49h1Zm-2.21-2.59-1-2.64-1,2.64Z"/><path class="cls-7" d="M265.38,63.05c0,.85-.45,1.27-1.36,1.27h-3.67V57.83h3.95c.7,0,1,.42,1,1.26v.79c0,.64-.26,1-.79,1.1.55.1.83.51.83,1.24Zm-1-3.08v-.61a.43.43,0,0,0-.49-.47H261.4v1.55h2.46A.43.43,0,0,0,264.35,60Zm0,2.6v-.49a.65.65,0,0,0-.12-.47.64.64,0,0,0-.4-.1H261.4v1.64h2.46a.64.64,0,0,0,.4-.1A.68.68,0,0,0,264.38,62.57Z"/><path class="cls-7" d="M267.46,64.32h-1.08V57.83h1.08Z"/><path class="cls-7" d="M273,59h-2.13v5.33h-1.07V59H267.7V57.83H273Z"/><path class="cls-7" d="M280.43,64.32h-4.77V57.83h4.72v1.11h-3.65v1.45h2.13v1.1h-2.13V63.1h3.7Z"/><path class="cls-7" d="M285.62,59h-2.13v5.33h-1.07V59h-2.13V57.83h5.33Z"/><path class="cls-7" d="M291.38,64.32h-1.09V61.53h-3.35v2.79h-1.08V57.83h1.08v2.52h3.35V57.83h1.09Z"/><path class="cls-7" d="M297.44,64.32h-4.77V57.83h4.72v1.11h-3.65v1.45h2.13v1.1h-2.13V63.1h3.7Z"/><path class="cls-7" d="M303.83,64.32h-1.54l-1.86-2.45h-1v2.45h-1.06V57.83h4c.69,0,1,.42,1,1.26v1.52q0,.95-.54,1.17a3.89,3.89,0,0,1-1.11.09Zm-1.52-4.07v-.78a.52.52,0,0,0-.14-.43.5.5,0,0,0-.34-.09h-2.42v1.81h2.42a.56.56,0,0,0,.34-.08A.52.52,0,0,0,302.31,60.25Z"/><path class="cls-7" d="M309.88,64.32h-.73l-3.39-4a3.28,3.28,0,0,1-.39-.53c0,.42.05.75.05,1v3.54h-1V57.83h.73l3.25,3.83a5.36,5.36,0,0,1,.53.7c0-.6,0-1,0-1.12V57.83h1Z"/><path class="cls-7" d="M315.93,64.32h-4.77V57.83h4.73v1.11h-3.65v1.45h2.13v1.1h-2.13V63.1h3.69Z"/><path class="cls-7" d="M321.13,59H319v5.33h-1.08V59H315.8V57.83h5.33Z"/><path class="cls-7" d="M531.12,62.79a2.07,2.07,0,0,1-.25,1.22,1.07,1.07,0,0,1-.9.31h-3.18a1.07,1.07,0,0,1-.9-.31,2.07,2.07,0,0,1-.25-1.22V59.37a2,2,0,0,1,.25-1.22,1.08,1.08,0,0,1,.9-.32H530a1,1,0,0,1,.92.34,2.5,2.5,0,0,1,.23,1.29l-1,.26V59h-3.36V63.1h3.36V61.66h-1.75V60.55h2.8Z"/><path class="cls-7" d="M533.39,64.32h-1.07V57.83h1.07Z"/><path class="cls-7" d="M540.06,62.79a2.17,2.17,0,0,1-.24,1.22,1.1,1.1,0,0,1-.9.31h-3.19a1.07,1.07,0,0,1-.9-.31,2.07,2.07,0,0,1-.25-1.22V59.37a2,2,0,0,1,.25-1.22,1.08,1.08,0,0,1,.9-.32h3.19a1,1,0,0,1,.91.34,2.4,2.4,0,0,1,.23,1.29l-1,.26V59h-3.35V63.1H539V61.66h-1.75V60.55h2.8Z"/><path class="cls-7" d="M546.51,64.32H545.3l-.56-1.42h-2.92l-.54,1.42h-1.07l2.61-6.49h1Zm-2.21-2.59-1-2.64-1,2.64Z"/><path class="cls-7" d="M552,63.05c0,.85-.45,1.27-1.36,1.27h-3.67V57.83h4c.69,0,1,.42,1,1.26v.79c0,.64-.27,1-.8,1.1.55.1.83.51.83,1.24Zm-1-3.08v-.61c0-.31-.16-.47-.49-.47H548v1.55h2.45C550.76,60.44,550.92,60.28,550.92,60Zm0,2.6v-.49a.65.65,0,0,0-.12-.47.62.62,0,0,0-.4-.1H548v1.64h2.45a.62.62,0,0,0,.4-.1A.68.68,0,0,0,551,62.57Z"/><path class="cls-7" d="M554,64.32H553V57.83H554Z"/><path class="cls-7" d="M559.6,59h-2.13v5.33h-1.08V59h-2.12V57.83h5.33Z"/><path class="cls-7" d="M567,64.32h-4.77V57.83H567v1.11H563.3v1.45h2.13v1.1H563.3V63.1H567Z"/><path class="cls-7" d="M572.19,59h-2.13v5.33H569V59h-2.12V57.83h5.32Z"/><path class="cls-7" d="M578,64.32h-1.08V61.53h-3.36v2.79h-1.07V57.83h1.07v2.52h3.36V57.83H578Z"/><path class="cls-7" d="M584,64.32h-4.77V57.83H584v1.11h-3.66v1.45h2.14v1.1h-2.14V63.1H584Z"/><path class="cls-7" d="M590.4,64.32h-1.54L587,61.87h-1v2.45h-1.06V57.83h4c.69,0,1,.42,1,1.26v1.52q0,.95-.54,1.17a3.79,3.79,0,0,1-1.11.09Zm-1.52-4.07v-.78c0-.22,0-.36-.13-.43a.53.53,0,0,0-.35-.09H586v1.81h2.42a.6.6,0,0,0,.35-.08C588.84,60.61,588.88,60.47,588.88,60.25Z"/><path class="cls-7" d="M596.46,64.32h-.74l-3.39-4a5.17,5.17,0,0,1-.39-.53c0,.42,0,.75,0,1v3.54h-1V57.83h.74L595,61.66a6.17,6.17,0,0,1,.52.7c0-.6,0-1,0-1.12V57.83h1Z"/><path class="cls-7" d="M602.51,64.32h-4.77V57.83h4.72v1.11h-3.65v1.45h2.13v1.1h-2.13V63.1h3.7Z"/><path class="cls-7" d="M607.7,59h-2.13v5.33H604.5V59h-2.13V57.83h5.33Z"/><rect class="cls-7" x="90.85" y="98.81" width="1.94" height="3.1"/><rect class="cls-7" x="90.85" y="91.36" width="1.94" height="3.1"/><rect class="cls-7" x="90.85" y="83.91" width="1.94" height="3.1"/><rect class="cls-7" x="90.85" y="76.45" width="1.94" height="3.1"/><rect class="cls-7" x="90.85" y="69" width="1.94" height="3.1"/><path id="path1334" class="cls-7" d="M88.89,107.47a.57.57,0,0,0-.54.39h-.82a1.05,1.05,0,0,0-.7.31h0l-1.25,1.29a.61.61,0,0,1-.36.14h-.74a1.77,1.77,0,0,1-.56-.21.34.34,0,0,1-.17-.31.68.68,0,0,1,.29-.44.55.55,0,0,1,.4-.07c.13,0,.31,0,.36.15a1.29,1.29,0,0,1,.06.35h.65c0-.56-.06-.64-.27-.85a1,1,0,0,0-.72-.23,1.73,1.73,0,0,0-1,.34,1.26,1.26,0,0,0-.44.73.84.84,0,0,0,.11.64c.23.3.68.32,1,.49s.36.16.4.33a.49.49,0,0,1-.18.41.6.6,0,0,1-.3.14.71.71,0,0,1-.25,0,.65.65,0,0,1-.39-.15,1,1,0,0,1-.08-.48h-.71a1.85,1.85,0,0,0,.08.78,1,1,0,0,0,.53.35,1.13,1.13,0,0,0,.55.07,2.12,2.12,0,0,0,.94-.3,1.4,1.4,0,0,0,.51-.57,1.24,1.24,0,0,0,.06-.53.63.63,0,0,0-.11-.28h1.47a.63.63,0,0,1,.36.13s1.22,1.36,1.22,1.37a.91.91,0,0,0,.61.24h.9v.38h1.16V111H89.76v.38h-.91a.59.59,0,0,1-.36-.13l-1-1.22h4.35v.39l1-.58-1-.58v.38H86l1.17-1.22a.67.67,0,0,1,.36-.14h.83a.57.57,0,0,0,.54.39.58.58,0,0,0,0-1.16Zm-7.15.52a1.69,1.69,0,0,0-1,.34,1.19,1.19,0,0,0-.44.73.76.76,0,0,0,.11.64c.22.3.67.32,1,.49s.36.16.4.33a.51.51,0,0,1-.17.41.69.69,0,0,1-.3.14.74.74,0,0,1-.26,0,.62.62,0,0,1-.38-.15c-.11-.13-.08-.48-.08-.48h-.71a1.8,1.8,0,0,0,.07.78,1,1,0,0,0,.53.35,1.15,1.15,0,0,0,.55.07,2.12,2.12,0,0,0,.95-.3,1.38,1.38,0,0,0,.5-.57,1.44,1.44,0,0,0,.07-.53.8.8,0,0,0-.43-.56,4.49,4.49,0,0,1-1-.31.31.31,0,0,1-.17-.31.63.63,0,0,1,.28-.44.58.58,0,0,1,.41-.07c.13,0,.31,0,.36.15a1.16,1.16,0,0,1,0,.35h.65c0-.56-.06-.64-.27-.85A1,1,0,0,0,81.74,108Z"/><path class="cls-7" d="M1203.05,86c-2,4.26-5,6.25-9.57,6.33a11.86,11.86,0,0,1-8.64-3l-.14,2.49a11.1,11.1,0,0,1-5.52,0,3.8,3.8,0,0,1-2.72-3.61,33.06,33.06,0,0,1-.21-3.58c0-3.67,0-7.35,0-11V72.16h-1.57v19.6h-4.11V89.05l-1.17,1a8.91,8.91,0,0,1-8.79,1.9,6.19,6.19,0,0,1-4.47-4.85c-.16-.63-.24-1.28-.38-2.1-.33.72-.58,1.31-.87,1.89a9.47,9.47,0,0,1-8.31,5.38,14.41,14.41,0,0,1-4.3-.33c-4.13-1-6.9-4.37-7.52-8.86a15.24,15.24,0,0,1,1.77-10.39,1.71,1.71,0,0,0,.07-.39c-2.9-.39-4.8,1.07-6.42,3.3v16.1h-4V68.94h3.92l.13,2.57a34.23,34.23,0,0,1,3.54-2.61,5.53,5.53,0,0,1,4.28-.32l.13,2.08a11.92,11.92,0,0,1,10-2.07c3.76.8,6.09,3.26,7.55,6.74V68.9H1160v1.44q0,7.06.08,14.11a2,2,0,0,0,0,.25c.16,3.13,2,4.61,5.15,4.07a8.62,8.62,0,0,0,5.24-3.46V71.84h-5.06V68.58h10.84V63.21h4.21v5.56h3.76V72a11,11,0,0,1,10.58-3.53c4.16.68,6.73,3.23,8.2,7.14V68.89h4.17v2.52l.24.17a7.89,7.89,0,0,1,5.31-3.31v-8h4.14V71.48a8.7,8.7,0,0,1,8.59-3c3.3.65,5.36,2.74,6.69,5.91a10.06,10.06,0,0,1,9.75-6.08c4.47,0,7.79,1.81,9.85,6a1.34,1.34,0,0,0,.19-.3c.75-3,2.78-4.57,5.67-5.22a19.09,19.09,0,0,1,8.24,0,6.13,6.13,0,0,1,5,4.93,11.72,11.72,0,0,1,.39,2.68c0,5,0,9.91,0,14.87,0,.16,0,.32,0,.58H1267V89.94a46.41,46.41,0,0,1-4.65,2,10.78,10.78,0,0,1-6.24.06,6.75,6.75,0,0,1-4.88-4.6c-2.39,3.74-5.82,5.17-10,5A9.93,9.93,0,0,1,1232,86c-1.38,3-3.3,5.26-6.42,6.06a9.59,9.59,0,0,1-8.64-1.78l-.16,1.52h-4.09V72.34c-2.6,0-4.17,1.43-5.55,3.31V91.77h-4.09Zm-51.13-5.63a11.08,11.08,0,0,0-1.13-5.52,5.75,5.75,0,0,0-5.52-3.3A5.55,5.55,0,0,0,1140,75a12.6,12.6,0,0,0,0,10.67,5.57,5.57,0,0,0,5.55,3.41,5.78,5.78,0,0,0,5.45-3.62A11.41,11.41,0,0,0,1151.92,80.4Zm96.52,0a11.2,11.2,0,0,0-1.08-5.41,5.79,5.79,0,0,0-5.47-3.39,5.55,5.55,0,0,0-5.41,3.44,12.57,12.57,0,0,0,0,10.67,5.57,5.57,0,0,0,5.57,3.39,5.77,5.77,0,0,0,5.38-3.53A11.35,11.35,0,0,0,1248.44,80.38Zm-31.56,6.1a24.67,24.67,0,0,0,2.57,1.76c4,2.07,7.53.46,8.67-3.9a16.39,16.39,0,0,0,.25-7,10.62,10.62,0,0,0-1.07-3.25,4.69,4.69,0,0,0-5.47-2.37,8.43,8.43,0,0,0-4.95,3.73ZM1203,81.57h-16.78a7.72,7.72,0,0,0,1,4.21,6.18,6.18,0,0,0,6.31,3.27c2.57-.21,4.6-1.28,5.25-4.17H1203Zm64-.78a24.82,24.82,0,0,0-7.73.51,7.35,7.35,0,0,0-2.53,1.23,3.52,3.52,0,0,0,.85,6.12c3.43,1.34,8-.45,9.41-3Zm.1-3.08c-.09-1.17-.12-2.19-.26-3.2a2.86,2.86,0,0,0-2.57-2.63,21.52,21.52,0,0,0-5.26,0,3.39,3.39,0,0,0-3,2.91,7,7,0,0,1-.24.77h-3.44l.66,5.2C1257.16,77.57,1262,77.75,1267.07,77.71Zm-68.13.46c-.53-4.29-3.08-6.76-6.78-6.59-3.26.15-5.82,3-6,6.59Zm-18.48-6V85.33a8.45,8.45,0,0,0,.06,1.23c.29,2.14,1.45,2.79,3.59,2-3.33-5.43-3.24-10.92-.16-16.46Z"/><path class="cls-7" d="M1276.38,91.81h-4.08V68.88h4v2.54l.21.19c2-2.53,4.39-3.89,7.71-3.08,0,.63.07,1.23.12,2a9.73,9.73,0,0,1,6.11-2.22,10,10,0,0,1,6.25,2.19V60.21h4.13V91.74h-4.06V89.32c-.43.37-.71.57-1,.81a8.74,8.74,0,0,1-14-3.19,16.44,16.44,0,0,1,.56-13.89l.27-.54c-2.16-.7-4.72.72-6.33,3.16Zm20.35-6.62V74.34a8.45,8.45,0,0,0-3.75-2.42c-3.43-1.08-6.25.31-7.3,3.74a16.39,16.39,0,0,0-.65,4,12.61,12.61,0,0,0,1,6.52,5,5,0,0,0,6.47,2.54A8.94,8.94,0,0,0,1296.73,85.19Z"/><path class="cls-7" d="M1215.43,43A20,20,0,0,0,1235,61.45c-3.46,1.65-10.35,1.29-15-3C1215.57,54.52,1213.5,47.54,1215.43,43Z"/><path class="cls-7" d="M1220.71,41.28a16.54,16.54,0,0,0,5.09,10.45,16.92,16.92,0,0,0,10.6,4.54c-4.87,1.34-9.15.34-12.69-3.27C1220.47,49.69,1219.79,45.67,1220.71,41.28Z"/><rect x="77.75" y="65.87" width="17.84" height="38.87" transform="translate(173.34 170.61) rotate(180)"/><rect class="cls-212" x="79.62" y="67.26" width="14.1" height="35.85" rx="1.48"/><path class="cls-213" d="M81.11,102.32a.69.69,0,0,1-.7-.69V68.74a.69.69,0,0,1,.7-.69H92.24a.69.69,0,0,1,.69.69v32.89a.69.69,0,0,1-.69.69H81.11m0,1.58H92.24a2.27,2.27,0,0,0,2.27-2.27V68.74a2.27,2.27,0,0,0-2.27-2.27H81.11a2.28,2.28,0,0,0-2.28,2.27v32.89a2.28,2.28,0,0,0,2.28,2.27Z"/><rect class="cls-214" x="87.92" y="70.12" width="4.1" height="30.14" transform="translate(179.94 170.37) rotate(180)"/><rect class="cls-215" x="86.49" y="95.2" width="1.44" height="2.02" transform="translate(174.41 192.42) rotate(180)"/><rect class="cls-215" x="86.49" y="73.15" width="1.44" height="2.02" transform="translate(174.41 148.33) rotate(180)"/><rect class="cls-215" x="86.49" y="80.5" width="1.44" height="2.02" transform="translate(174.41 163.02) rotate(180)"/><rect class="cls-215" x="86.49" y="87.85" width="1.44" height="2.02" transform="translate(174.41 177.72) rotate(180)"/><rect class="cls-2" x="120.77" y="78.97" width="41.99" height="29.25"/><path class="cls-216" d="M162.17,107.37h-40.8V79.6h40.8Zm-39.8-1h38.8V80.6h-38.8Z"/><rect class="cls-2" x="133.97" y="105.35" width="15.59" height="2.25"/><rect class="cls-216" x="135.17" y="105.13" width="13.2" height="1.8"/></svg>