<svg id="Camada_1" data-name="Camada 1" xmlns="http://www.w3.org/2000/svg" xmlns:xlink="http://www.w3.org/1999/xlink" viewBox="0 0 654.77 335.46"><defs><style>.cls-1{fill:#a50000;}.cls-2{fill:#333;}.cls-3,.cls-4{fill:#969696;}.cls-4{opacity:0.61;}.cls-5{fill:#fff195;}.cls-6{fill:#fff;}.cls-7{fill:#d2d3d7;}.cls-8{fill:url(#Gradiente_sem_nome_46);}.cls-9{fill:url(#Gradiente_sem_nome_185);}.cls-10{fill:#1a1a1a;}.cls-11{fill:#f8e800;}.cls-12{fill:url(#Gradiente_sem_nome_66);}.cls-13{fill:url(#Gradiente_sem_nome_66-2);}.cls-14{fill:url(#Gradiente_sem_nome_66-3);}.cls-15{fill:url(#Gradiente_sem_nome_66-4);}.cls-16{fill:url(#Gradiente_sem_nome_66-5);}.cls-17{fill:url(#Gradiente_sem_nome_66-6);}.cls-18{fill:url(#Gradiente_sem_nome_66-7);}.cls-19{fill:url(#Gradiente_sem_nome_66-8);}.cls-20{fill:url(#Gradiente_sem_nome_66-9);}.cls-21{fill:url(#Gradiente_sem_nome_66-10);}.cls-22{fill:url(#Gradiente_sem_nome_66-11);}.cls-23{fill:url(#Gradiente_sem_nome_66-12);}.cls-24{fill:url(#Gradiente_sem_nome_66-13);}.cls-25{fill:url(#Gradiente_sem_nome_66-14);}.cls-26{fill:url(#Gradiente_sem_nome_66-15);}.cls-27{fill:url(#Gradiente_sem_nome_66-16);}.cls-28{fill:url(#Gradiente_sem_nome_66-17);}.cls-29{fill:url(#Gradiente_sem_nome_66-18);}.cls-30{fill:url(#Gradiente_sem_nome_66-19);}.cls-31{fill:url(#Gradiente_sem_nome_66-20);}.cls-32{fill:url(#Gradiente_sem_nome_66-21);}.cls-33{fill:url(#Gradiente_sem_nome_66-22);}.cls-34{fill:url(#Gradiente_sem_nome_66-23);}.cls-35{fill:url(#Gradiente_sem_nome_66-24);}.cls-36{fill:url(#Gradiente_sem_nome_66-25);}.cls-37{fill:url(#Gradiente_sem_nome_66-26);}.cls-38{fill:url(#Gradiente_sem_nome_66-27);}.cls-39{fill:url(#Gradiente_sem_nome_66-28);}.cls-40{fill:url(#Gradiente_sem_nome_66-29);}.cls-41{fill:url(#Gradiente_sem_nome_66-30);}.cls-42{fill:url(#Gradiente_sem_nome_66-31);}.cls-43{fill:url(#Gradiente_sem_nome_66-32);}.cls-44{fill:url(#Gradiente_sem_nome_66-33);}.cls-45{fill:url(#Gradiente_sem_nome_66-34);}.cls-46{fill:url(#Gradiente_sem_nome_66-35);}.cls-47{fill:url(#Gradiente_sem_nome_66-36);}.cls-48{fill:url(#Gradiente_sem_nome_66-37);}.cls-49{fill:url(#Gradiente_sem_nome_66-38);}.cls-50{fill:url(#Gradiente_sem_nome_66-39);}.cls-51{fill:url(#Gradiente_sem_nome_66-40);}.cls-52{fill:url(#Gradiente_sem_nome_66-41);}.cls-53{fill:url(#Gradiente_sem_nome_66-42);}.cls-54{fill:url(#Gradiente_sem_nome_66-43);}.cls-55{fill:url(#Gradiente_sem_nome_66-44);}.cls-56{fill:url(#Gradiente_sem_nome_66-45);}.cls-57{fill:url(#Gradiente_sem_nome_66-46);}.cls-58{fill:url(#Gradiente_sem_nome_66-47);}.cls-59{fill:url(#Gradiente_sem_nome_66-48);}.cls-60{fill:url(#Gradiente_sem_nome_66-49);}.cls-61{fill:url(#Gradiente_sem_nome_66-50);}.cls-62{fill:url(#Gradiente_sem_nome_66-51);}.cls-63{fill:url(#Gradiente_sem_nome_66-52);}.cls-64{fill:url(#Gradiente_sem_nome_66-53);}.cls-65{fill:url(#Gradiente_sem_nome_66-54);}.cls-66{fill:url(#Gradiente_sem_nome_66-55);}.cls-67{fill:url(#Gradiente_sem_nome_66-56);}.cls-68{fill:url(#Gradiente_sem_nome_66-57);}.cls-69{fill:url(#Gradiente_sem_nome_66-58);}.cls-70{fill:url(#Gradiente_sem_nome_66-59);}.cls-71{fill:url(#Gradiente_sem_nome_66-60);}.cls-72{fill:url(#Gradiente_sem_nome_66-61);}.cls-73{fill:url(#Gradiente_sem_nome_66-62);}.cls-74{fill:url(#Gradiente_sem_nome_66-63);}.cls-75{fill:url(#Gradiente_sem_nome_66-64);}.cls-76{fill:url(#Gradiente_sem_nome_66-65);}.cls-77{fill:url(#Gradiente_sem_nome_66-66);}.cls-78{fill:url(#Gradiente_sem_nome_66-67);}.cls-79{fill:url(#Gradiente_sem_nome_66-68);}.cls-80{fill:url(#Gradiente_sem_nome_66-69);}.cls-81{fill:url(#Gradiente_sem_nome_66-70);}.cls-82{fill:url(#Gradiente_sem_nome_66-71);}.cls-83{fill:url(#Gradiente_sem_nome_66-72);}.cls-84{fill:url(#Gradiente_sem_nome_66-73);}.cls-85{fill:url(#Gradiente_sem_nome_66-74);}.cls-86{fill:url(#Gradiente_sem_nome_66-75);}.cls-87{fill:url(#Gradiente_sem_nome_66-76);}.cls-88{fill:url(#Gradiente_sem_nome_66-77);}.cls-89{fill:url(#Gradiente_sem_nome_66-78);}.cls-90{fill:url(#Gradiente_sem_nome_66-79);}.cls-91{fill:url(#Gradiente_sem_nome_66-80);}.cls-92{fill:url(#Gradiente_sem_nome_46-2);}.cls-93{fill:url(#Gradiente_sem_nome_46-3);}.cls-94{fill:url(#Gradiente_sem_nome_46-4);}.cls-95{fill:url(#Gradiente_sem_nome_46-5);}.cls-96{fill:url(#Gradiente_sem_nome_46-6);}.cls-97{fill:url(#Gradiente_sem_nome_46-7);}.cls-98{fill:url(#Gradiente_sem_nome_46-8);}.cls-99{fill:url(#Gradiente_sem_nome_46-9);}.cls-100{fill:url(#Gradiente_sem_nome_46-10);}.cls-101{fill:url(#Gradiente_sem_nome_46-11);}.cls-102{fill:#c9c9c9;}.cls-103{fill:url(#linear-gradient);}.cls-104{fill:url(#linear-gradient-2);}.cls-105{fill:url(#linear-gradient-3);}.cls-106{fill:url(#linear-gradient-4);}</style><radialGradient id="Gradiente_sem_nome_46" cx="336.04" cy="1267.51" r="3.54" gradientTransform="translate(-345.64 -1227.47) scale(1.2 1.2)" gradientUnits="userSpaceOnUse"><stop offset="0.46" stop-color="lime"/><stop offset="1" stop-color="#00c500"/></radialGradient><radialGradient id="Gradiente_sem_nome_185" cx="336.04" cy="1281.59" r="3.54" gradientTransform="translate(-345.64 -1230.28) scale(1.2 1.2)" gradientUnits="userSpaceOnUse"><stop offset="0" stop-color="aqua"/><stop offset="1" stop-color="#0070ff"/></radialGradient><linearGradient id="Gradiente_sem_nome_66" x1="137.41" y1="282.91" x2="137.41" y2="290.11" gradientUnits="userSpaceOnUse"><stop offset="0" stop-color="#fff195"/><stop offset="0.47" stop-color="#fff195"/><stop offset="1" stop-color="#1a1a1a"/></linearGradient><linearGradient id="Gradiente_sem_nome_66-2" x1="140.58" y1="282.91" x2="140.58" y2="290.11" xlink:href="#Gradiente_sem_nome_66"/><linearGradient id="Gradiente_sem_nome_66-3" x1="143.75" y1="282.91" x2="143.75" y2="290.11" xlink:href="#Gradiente_sem_nome_66"/><linearGradient id="Gradiente_sem_nome_66-4" x1="146.92" y1="282.91" x2="146.92" y2="290.11" xlink:href="#Gradiente_sem_nome_66"/><linearGradient id="Gradiente_sem_nome_66-5" x1="150.09" y1="282.91" x2="150.09" y2="290.11" xlink:href="#Gradiente_sem_nome_66"/><linearGradient id="Gradiente_sem_nome_66-6" x1="153.26" y1="282.91" x2="153.26" y2="290.11" xlink:href="#Gradiente_sem_nome_66"/><linearGradient id="Gradiente_sem_nome_66-7" x1="156.43" y1="282.91" x2="156.43" y2="290.11" xlink:href="#Gradiente_sem_nome_66"/><linearGradient id="Gradiente_sem_nome_66-8" x1="159.6" y1="282.91" x2="159.6" y2="290.11" xlink:href="#Gradiente_sem_nome_66"/><linearGradient id="Gradiente_sem_nome_66-9" x1="177.41" y1="282.91" x2="177.41" y2="290.11" xlink:href="#Gradiente_sem_nome_66"/><linearGradient id="Gradiente_sem_nome_66-10" x1="180.58" y1="282.91" x2="180.58" y2="290.11" xlink:href="#Gradiente_sem_nome_66"/><linearGradient id="Gradiente_sem_nome_66-11" x1="183.75" y1="282.91" x2="183.75" y2="290.11" xlink:href="#Gradiente_sem_nome_66"/><linearGradient id="Gradiente_sem_nome_66-12" x1="186.92" y1="282.91" x2="186.92" y2="290.11" xlink:href="#Gradiente_sem_nome_66"/><linearGradient id="Gradiente_sem_nome_66-13" x1="190.09" y1="282.91" x2="190.09" y2="290.11" xlink:href="#Gradiente_sem_nome_66"/><linearGradient id="Gradiente_sem_nome_66-14" x1="193.26" y1="282.91" x2="193.26" y2="290.11" xlink:href="#Gradiente_sem_nome_66"/><linearGradient id="Gradiente_sem_nome_66-15" x1="196.43" y1="282.91" x2="196.43" y2="290.11" xlink:href="#Gradiente_sem_nome_66"/><linearGradient id="Gradiente_sem_nome_66-16" x1="199.6" y1="282.91" x2="199.6" y2="290.11" xlink:href="#Gradiente_sem_nome_66"/><linearGradient id="Gradiente_sem_nome_66-17" x1="217.04" y1="282.91" x2="217.04" y2="290.11" xlink:href="#Gradiente_sem_nome_66"/><linearGradient id="Gradiente_sem_nome_66-18" x1="220.21" y1="282.91" x2="220.21" y2="290.11" xlink:href="#Gradiente_sem_nome_66"/><linearGradient id="Gradiente_sem_nome_66-19" x1="223.38" y1="282.91" x2="223.38" y2="290.11" xlink:href="#Gradiente_sem_nome_66"/><linearGradient id="Gradiente_sem_nome_66-20" x1="226.55" y1="282.91" x2="226.55" y2="290.11" xlink:href="#Gradiente_sem_nome_66"/><linearGradient id="Gradiente_sem_nome_66-21" x1="229.72" y1="282.91" x2="229.72" y2="290.11" xlink:href="#Gradiente_sem_nome_66"/><linearGradient id="Gradiente_sem_nome_66-22" x1="232.89" y1="282.91" x2="232.89" y2="290.11" xlink:href="#Gradiente_sem_nome_66"/><linearGradient id="Gradiente_sem_nome_66-23" x1="236.06" y1="282.91" x2="236.06" y2="290.11" xlink:href="#Gradiente_sem_nome_66"/><linearGradient id="Gradiente_sem_nome_66-24" x1="239.22" y1="282.91" x2="239.22" y2="290.11" xlink:href="#Gradiente_sem_nome_66"/><linearGradient id="Gradiente_sem_nome_66-25" x1="257.41" y1="282.91" x2="257.41" y2="290.11" xlink:href="#Gradiente_sem_nome_66"/><linearGradient id="Gradiente_sem_nome_66-26" x1="260.58" y1="282.91" x2="260.58" y2="290.11" xlink:href="#Gradiente_sem_nome_66"/><linearGradient id="Gradiente_sem_nome_66-27" x1="263.75" y1="282.91" x2="263.75" y2="290.11" xlink:href="#Gradiente_sem_nome_66"/><linearGradient id="Gradiente_sem_nome_66-28" x1="266.92" y1="282.91" x2="266.92" y2="290.11" xlink:href="#Gradiente_sem_nome_66"/><linearGradient id="Gradiente_sem_nome_66-29" x1="270.09" y1="282.91" x2="270.09" y2="290.11" xlink:href="#Gradiente_sem_nome_66"/><linearGradient id="Gradiente_sem_nome_66-30" x1="273.26" y1="282.91" x2="273.26" y2="290.11" xlink:href="#Gradiente_sem_nome_66"/><linearGradient id="Gradiente_sem_nome_66-31" x1="276.43" y1="282.91" x2="276.43" y2="290.11" xlink:href="#Gradiente_sem_nome_66"/><linearGradient id="Gradiente_sem_nome_66-32" x1="279.6" y1="282.91" x2="279.6" y2="290.11" xlink:href="#Gradiente_sem_nome_66"/><linearGradient id="Gradiente_sem_nome_66-33" x1="297.41" y1="282.91" x2="297.41" y2="290.11" xlink:href="#Gradiente_sem_nome_66"/><linearGradient id="Gradiente_sem_nome_66-34" x1="300.58" y1="282.91" x2="300.58" y2="290.11" xlink:href="#Gradiente_sem_nome_66"/><linearGradient id="Gradiente_sem_nome_66-35" x1="303.75" y1="282.91" x2="303.75" y2="290.11" xlink:href="#Gradiente_sem_nome_66"/><linearGradient id="Gradiente_sem_nome_66-36" x1="306.92" y1="282.91" x2="306.92" y2="290.11" xlink:href="#Gradiente_sem_nome_66"/><linearGradient id="Gradiente_sem_nome_66-37" x1="310.09" y1="282.91" x2="310.09" y2="290.11" xlink:href="#Gradiente_sem_nome_66"/><linearGradient id="Gradiente_sem_nome_66-38" x1="313.26" y1="282.91" x2="313.26" y2="290.11" xlink:href="#Gradiente_sem_nome_66"/><linearGradient id="Gradiente_sem_nome_66-39" x1="316.43" y1="282.91" x2="316.43" y2="290.11" xlink:href="#Gradiente_sem_nome_66"/><linearGradient id="Gradiente_sem_nome_66-40" x1="319.6" y1="282.91" x2="319.6" y2="290.11" xlink:href="#Gradiente_sem_nome_66"/><linearGradient id="Gradiente_sem_nome_66-41" x1="431.38" y1="282.91" x2="431.38" y2="290.11" xlink:href="#Gradiente_sem_nome_66"/><linearGradient id="Gradiente_sem_nome_66-42" x1="434.55" y1="282.91" x2="434.55" y2="290.11" xlink:href="#Gradiente_sem_nome_66"/><linearGradient id="Gradiente_sem_nome_66-43" x1="437.72" y1="282.91" x2="437.72" y2="290.11" xlink:href="#Gradiente_sem_nome_66"/><linearGradient id="Gradiente_sem_nome_66-44" x1="440.89" y1="282.91" x2="440.89" y2="290.11" xlink:href="#Gradiente_sem_nome_66"/><linearGradient id="Gradiente_sem_nome_66-45" x1="444.06" y1="282.91" x2="444.06" y2="290.11" xlink:href="#Gradiente_sem_nome_66"/><linearGradient id="Gradiente_sem_nome_66-46" x1="447.23" y1="282.91" x2="447.23" y2="290.11" xlink:href="#Gradiente_sem_nome_66"/><linearGradient id="Gradiente_sem_nome_66-47" x1="450.4" y1="282.91" x2="450.4" y2="290.11" xlink:href="#Gradiente_sem_nome_66"/><linearGradient id="Gradiente_sem_nome_66-48" x1="453.57" y1="282.91" x2="453.57" y2="290.11" xlink:href="#Gradiente_sem_nome_66"/><linearGradient id="Gradiente_sem_nome_66-49" x1="471.38" y1="282.91" x2="471.38" y2="290.11" xlink:href="#Gradiente_sem_nome_66"/><linearGradient id="Gradiente_sem_nome_66-50" x1="474.55" y1="282.91" x2="474.55" y2="290.11" xlink:href="#Gradiente_sem_nome_66"/><linearGradient id="Gradiente_sem_nome_66-51" x1="477.72" y1="282.91" x2="477.72" y2="290.11" xlink:href="#Gradiente_sem_nome_66"/><linearGradient id="Gradiente_sem_nome_66-52" x1="480.89" y1="282.91" x2="480.89" y2="290.11" xlink:href="#Gradiente_sem_nome_66"/><linearGradient id="Gradiente_sem_nome_66-53" x1="484.06" y1="282.91" x2="484.06" y2="290.11" xlink:href="#Gradiente_sem_nome_66"/><linearGradient id="Gradiente_sem_nome_66-54" x1="487.23" y1="282.91" x2="487.23" y2="290.11" xlink:href="#Gradiente_sem_nome_66"/><linearGradient id="Gradiente_sem_nome_66-55" x1="490.4" y1="282.91" x2="490.4" y2="290.11" xlink:href="#Gradiente_sem_nome_66"/><linearGradient id="Gradiente_sem_nome_66-56" x1="493.57" y1="282.91" x2="493.57" y2="290.11" xlink:href="#Gradiente_sem_nome_66"/><linearGradient id="Gradiente_sem_nome_66-57" x1="511.01" y1="282.91" x2="511.01" y2="290.11" xlink:href="#Gradiente_sem_nome_66"/><linearGradient id="Gradiente_sem_nome_66-58" x1="514.18" y1="282.91" x2="514.18" y2="290.11" xlink:href="#Gradiente_sem_nome_66"/><linearGradient id="Gradiente_sem_nome_66-59" x1="517.35" y1="282.91" x2="517.35" y2="290.11" xlink:href="#Gradiente_sem_nome_66"/><linearGradient id="Gradiente_sem_nome_66-60" x1="520.52" y1="282.91" x2="520.52" y2="290.11" xlink:href="#Gradiente_sem_nome_66"/><linearGradient id="Gradiente_sem_nome_66-61" x1="523.69" y1="282.91" x2="523.69" y2="290.11" xlink:href="#Gradiente_sem_nome_66"/><linearGradient id="Gradiente_sem_nome_66-62" x1="526.86" y1="282.91" x2="526.86" y2="290.11" xlink:href="#Gradiente_sem_nome_66"/><linearGradient id="Gradiente_sem_nome_66-63" x1="530.03" y1="282.91" x2="530.03" y2="290.11" xlink:href="#Gradiente_sem_nome_66"/><linearGradient id="Gradiente_sem_nome_66-64" x1="533.19" y1="282.91" x2="533.19" y2="290.11" xlink:href="#Gradiente_sem_nome_66"/><linearGradient id="Gradiente_sem_nome_66-65" x1="551.38" y1="282.91" x2="551.38" y2="290.11" xlink:href="#Gradiente_sem_nome_66"/><linearGradient id="Gradiente_sem_nome_66-66" x1="554.55" y1="282.91" x2="554.55" y2="290.11" xlink:href="#Gradiente_sem_nome_66"/><linearGradient id="Gradiente_sem_nome_66-67" x1="557.72" y1="282.91" x2="557.72" y2="290.11" xlink:href="#Gradiente_sem_nome_66"/><linearGradient id="Gradiente_sem_nome_66-68" x1="560.89" y1="282.91" x2="560.89" y2="290.11" xlink:href="#Gradiente_sem_nome_66"/><linearGradient id="Gradiente_sem_nome_66-69" x1="564.06" y1="282.91" x2="564.06" y2="290.11" xlink:href="#Gradiente_sem_nome_66"/><linearGradient id="Gradiente_sem_nome_66-70" x1="567.23" y1="282.91" x2="567.23" y2="290.11" xlink:href="#Gradiente_sem_nome_66"/><linearGradient id="Gradiente_sem_nome_66-71" x1="570.4" y1="282.91" x2="570.4" y2="290.11" xlink:href="#Gradiente_sem_nome_66"/><linearGradient id="Gradiente_sem_nome_66-72" x1="573.57" y1="282.91" x2="573.57" y2="290.11" xlink:href="#Gradiente_sem_nome_66"/><linearGradient id="Gradiente_sem_nome_66-73" x1="591.38" y1="282.91" x2="591.38" y2="290.11" xlink:href="#Gradiente_sem_nome_66"/><linearGradient id="Gradiente_sem_nome_66-74" x1="594.55" y1="282.91" x2="594.55" y2="290.11" xlink:href="#Gradiente_sem_nome_66"/><linearGradient id="Gradiente_sem_nome_66-75" x1="597.72" y1="282.91" x2="597.72" y2="290.11" xlink:href="#Gradiente_sem_nome_66"/><linearGradient id="Gradiente_sem_nome_66-76" x1="600.89" y1="282.91" x2="600.89" y2="290.11" xlink:href="#Gradiente_sem_nome_66"/><linearGradient id="Gradiente_sem_nome_66-77" x1="604.06" y1="282.91" x2="604.06" y2="290.11" xlink:href="#Gradiente_sem_nome_66"/><linearGradient id="Gradiente_sem_nome_66-78" x1="607.23" y1="282.91" x2="607.23" y2="290.11" xlink:href="#Gradiente_sem_nome_66"/><linearGradient id="Gradiente_sem_nome_66-79" x1="610.4" y1="282.91" x2="610.4" y2="290.11" xlink:href="#Gradiente_sem_nome_66"/><linearGradient id="Gradiente_sem_nome_66-80" x1="613.57" y1="282.91" x2="613.57" y2="290.11" xlink:href="#Gradiente_sem_nome_66"/><radialGradient id="Gradiente_sem_nome_46-2" cx="347.1" cy="293.58" r="4.18" gradientTransform="matrix(1, 0, 0, 1, 0, 0)" xlink:href="#Gradiente_sem_nome_46"/><radialGradient id="Gradiente_sem_nome_46-3" cx="361.33" cy="293.58" r="4.18" gradientTransform="matrix(1, 0, 0, 1, 0, 0)" xlink:href="#Gradiente_sem_nome_46"/><radialGradient id="Gradiente_sem_nome_46-4" cx="375.56" cy="293.58" r="4.18" gradientTransform="matrix(1, 0, 0, 1, 0, 0)" xlink:href="#Gradiente_sem_nome_46"/><radialGradient id="Gradiente_sem_nome_46-5" cx="389.79" cy="293.58" r="4.18" gradientTransform="matrix(1, 0, 0, 1, 0, 0)" xlink:href="#Gradiente_sem_nome_46"/><radialGradient id="Gradiente_sem_nome_46-6" cx="403.9" cy="293.58" r="4.18" gradientTransform="matrix(1, 0, 0, 1, 0, 0)" xlink:href="#Gradiente_sem_nome_46"/><radialGradient id="Gradiente_sem_nome_46-7" cx="347.05" cy="308.17" r="4.18" gradientTransform="matrix(1, 0, 0, 1, 0, 0)" xlink:href="#Gradiente_sem_nome_46"/><radialGradient id="Gradiente_sem_nome_46-8" cx="361.16" cy="308.17" r="4.18" gradientTransform="matrix(1, 0, 0, 1, 0, 0)" xlink:href="#Gradiente_sem_nome_46"/><radialGradient id="Gradiente_sem_nome_46-9" cx="375.72" cy="308.17" r="4.18" gradientTransform="matrix(1, 0, 0, 1, 0, 0)" xlink:href="#Gradiente_sem_nome_46"/><radialGradient id="Gradiente_sem_nome_46-10" cx="389.44" cy="308.17" r="4.18" gradientTransform="matrix(1, 0, 0, 1, 0, 0)" xlink:href="#Gradiente_sem_nome_46"/><radialGradient id="Gradiente_sem_nome_46-11" cx="403.9" cy="308.17" r="4.18" gradientTransform="matrix(1, 0, 0, 1, 0, 0)" xlink:href="#Gradiente_sem_nome_46"/><linearGradient id="linear-gradient" x1="304.84" y1="52.8" x2="320.71" y2="52.8" gradientUnits="userSpaceOnUse"><stop offset="0"/><stop offset="0.62" stop-color="#333"/><stop offset="1" stop-color="#1a1a1a"/></linearGradient><linearGradient id="linear-gradient-2" x1="294.96" y1="184.12" x2="330.63" y2="184.12" xlink:href="#linear-gradient"/><linearGradient id="linear-gradient-3" x1="560.98" y1="52.8" x2="576.85" y2="52.8" xlink:href="#linear-gradient"/><linearGradient id="linear-gradient-4" x1="551.1" y1="184.12" x2="586.77" y2="184.12" xlink:href="#linear-gradient"/></defs><rect class="cls-1" x="0.7" y="263.98" width="653.37" height="70.78"/><path d="M654.07,264v70.78H.7V264H654.07m.7-.7H0v72.18H654.77V263.28Z"/><rect x="24.23" y="275.11" width="17.84" height="38.87"/><rect class="cls-2" x="26.1" y="276.73" width="14.1" height="35.85" rx="1.48"/><path class="cls-3" d="M38.71,277.52a.7.7,0,0,1,.7.7V311.1a.7.7,0,0,1-.7.7H27.58a.69.69,0,0,1-.69-.7V278.22a.69.69,0,0,1,.69-.7H38.71m0-1.58H27.58a2.28,2.28,0,0,0-2.27,2.28V311.1a2.28,2.28,0,0,0,2.27,2.28H38.71A2.28,2.28,0,0,0,41,311.1V278.22a2.28,2.28,0,0,0-2.28-2.28Z"/><rect class="cls-4" x="27.8" y="279.59" width="4.1" height="30.14"/><rect class="cls-5" x="31.9" y="282.63" width="1.44" height="2.02"/><rect class="cls-5" x="31.9" y="304.67" width="1.44" height="2.02"/><rect class="cls-5" x="31.9" y="297.32" width="1.44" height="2.02"/><rect class="cls-5" x="31.9" y="289.97" width="1.44" height="2.02"/><path id="path1334" class="cls-6" d="M43.94,325.92l-2-1.19v.85H31.43l2-2.16a1.16,1.16,0,0,1,.63-.24h1.71a1,1,0,1,0,0-.67H34.12a2,2,0,0,0-1.25.54h0l-2.16,2.29a1.16,1.16,0,0,1-.63.24H28.9a1.72,1.72,0,1,0,0,.67h3.74a1.1,1.1,0,0,1,.63.25l2.16,2.28h0a2,2,0,0,0,1.25.55h1.63V330h2V328h-2v.69H36.66a1.09,1.09,0,0,1-.63-.24l-2-2.16h7.9v.85Z"/><rect class="cls-7" x="124.38" y="276.88" width="207.5" height="37.96"/><circle class="cls-8" cx="57.59" cy="293.51" r="4.25"/><circle class="cls-9" cx="57.59" cy="307.6" r="4.25"/><path class="cls-6" d="M87.74,325.68a2.28,2.28,0,0,1-.23,1.22.93.93,0,0,1-.81.32H84.15a.87.87,0,0,1-.83-.36,3.14,3.14,0,0,1-.2-1.36l.85-.28V326h2.92V324.5H84.31a.91.91,0,0,1-.8-.32,2.3,2.3,0,0,1-.22-1.22v-.72a2.32,2.32,0,0,1,.22-1.23.91.91,0,0,1,.8-.32h2.35a.88.88,0,0,1,.8.33,2.36,2.36,0,0,1,.22,1.24l-.85.32v-.75h-2.7v1.41H86.7a.93.93,0,0,1,.81.31,2.29,2.29,0,0,1,.23,1.23Z"/><path class="cls-6" d="M93.9,321.83H90.69v1.72h1.73v1.19H90.69v2.48h-1v-6.53H93.9Z"/><path class="cls-6" d="M99.55,323.41c0,.85-.3,1.27-.92,1.27H96v2.54h-1v-6.53h3.54c.62,0,.92.43.92,1.27Zm-.92-.38v-.69a.57.57,0,0,0-.12-.43.44.44,0,0,0-.31-.09H96v1.73H98.2a.44.44,0,0,0,.31-.09C98.59,323.4,98.63,323.25,98.63,323Z"/><path class="cls-6" d="M145.28,269.57q0,1.26-.93,1.26h-2.59v2.54h-.94v-6.52h3.53c.62,0,.93.42.93,1.27Zm-.93-.38v-.69c0-.22,0-.37-.12-.43a.43.43,0,0,0-.31-.09h-2.16v1.73h2.16a.43.43,0,0,0,.31-.09A.57.57,0,0,0,144.35,269.19Z"/><path class="cls-6" d="M151.75,271.83a2.32,2.32,0,0,1-.22,1.23.9.9,0,0,1-.8.31h-3a.9.9,0,0,1-.8-.31,2.32,2.32,0,0,1-.22-1.23v-3.44a2.3,2.3,0,0,1,.22-1.22.9.9,0,0,1,.8-.32h3a.9.9,0,0,1,.8.32,2.3,2.3,0,0,1,.22,1.22Zm-1,.32V268h-3.16v4.14Z"/><path class="cls-6" d="M158,273.37h-4.26v-6.52H158V268h-3.26v1.46h1.9v1.11h-1.9v1.62H158Z"/><path class="cls-6" d="M192.82,271.83a2.47,2.47,0,0,1-.2,1.23.82.82,0,0,1-.75.31h-2.64a.8.8,0,0,1-.74-.31,2.44,2.44,0,0,1-.21-1.23v-3.44a2.43,2.43,0,0,1,.21-1.22.81.81,0,0,1,.74-.32h2.64a.8.8,0,0,1,.77.34,3.06,3.06,0,0,1,.18,1.29l-.86.27V268h-2.79v4.14H192v-1.46H190.5v-1.11h2.32Z"/><path class="cls-6" d="M195.6,273.37h-.89v-6.52h.89Z"/><path class="cls-6" d="M202,271.83a2.47,2.47,0,0,1-.2,1.23.83.83,0,0,1-.75.31h-2.64a.83.83,0,0,1-.75-.31,2.59,2.59,0,0,1-.2-1.23v-3.44a2.57,2.57,0,0,1,.2-1.22.84.84,0,0,1,.75-.32h2.64a.78.78,0,0,1,.76.34,2.87,2.87,0,0,1,.19,1.29l-.87.27V268h-2.78v4.14h2.78v-1.46H199.7v-1.11H202Z"/><path class="cls-6" d="M208.26,273.37h-1L206.8,272h-2.43l-.45,1.42H203l2.17-6.52h.86Zm-1.83-2.6-.83-2.65-.85,2.65Z"/><path class="cls-6" d="M213.67,272.1c0,.85-.38,1.27-1.13,1.27h-3v-6.52h3.28c.58,0,.87.42.87,1.27v.79c0,.64-.22,1-.67,1.1.46.1.7.52.7,1.25Zm-.86-3.1v-.62c0-.31-.14-.47-.41-.47h-2v1.56h2C212.67,269.47,212.81,269.31,212.81,269Zm0,2.62v-.5a.72.72,0,0,0-.1-.47.42.42,0,0,0-.33-.11h-2v1.66h2a.42.42,0,0,0,.33-.11A.72.72,0,0,0,212.83,271.62Z"/><path class="cls-6" d="M216.28,273.37h-.89v-6.52h.89Z"/><path class="cls-6" d="M221.79,268H220v5.36h-.89V268h-1.76v-1.16h4.42Z"/><path class="cls-6" d="M229.71,273.37h-4v-6.52h3.92V268h-3v1.46h1.77v1.11h-1.77v1.62h3.07Z"/><path class="cls-6" d="M234.91,268h-1.77v5.36h-.89V268h-1.76v-1.16h4.42Z"/><path class="cls-6" d="M240.57,273.37h-.9v-2.8h-2.78v2.8H236v-6.52h.89v2.53h2.78v-2.53h.9Z"/><path class="cls-6" d="M246.49,273.37h-4v-6.52h3.92V268h-3v1.46h1.77v1.11h-1.77v1.62h3.07Z"/><path class="cls-6" d="M252.68,273.37H251.4l-1.54-2.46H249v2.46h-.87v-6.52h3.28c.57,0,.86.42.86,1.27v1.53q0,.94-.45,1.17a2.66,2.66,0,0,1-.92.09Zm-1.26-4.09v-.78a.6.6,0,0,0-.11-.43A.39.39,0,0,0,251,268h-2v1.82h2a.39.39,0,0,0,.29-.09A.62.62,0,0,0,251.42,269.28Z"/><path class="cls-6" d="M258.59,273.37H258l-2.81-4a3.55,3.55,0,0,1-.32-.53c0,.42,0,.76,0,1v3.56h-.81v-6.52h.61l2.7,3.84a7.9,7.9,0,0,1,.44.71c0-.6,0-1,0-1.12v-3.43h.8Z"/><path class="cls-6" d="M264.5,273.37h-4v-6.52h3.92V268h-3v1.46h1.77v1.11h-1.77v1.62h3.07Z"/><path class="cls-6" d="M269.7,268h-1.77v5.36H267V268h-1.76v-1.16h4.42Z"/><path class="cls-6" d="M142.42,328H138v-6.53h4.4v1.12H139V324h2v1.11h-2v1.62h3.44Z"/><path class="cls-6" d="M148.25,322.61h-2V328h-1v-5.36h-2v-1.17h5Z"/><path class="cls-6" d="M154.6,328h-1v-2.81h-3.12V328h-1v-6.53h1V324h3.12v-2.53h1Z"/><path class="cls-6" d="M159.55,328h-.91v-5.29h-.91v-.87l1.82-.42Z"/><path class="cls-6" d="M182.17,328h-4.44v-6.53h4.4v1.12h-3.4V324h2v1.11h-2v1.62h3.44Z"/><path class="cls-6" d="M188,322.61h-2V328h-1v-5.36h-2v-1.17h5Z"/><path class="cls-6" d="M194.35,328h-1v-2.81h-3.12V328h-1v-6.53h1V324h3.12v-2.53h1Z"/><path class="cls-6" d="M201,326.69a1.65,1.65,0,0,1-.24,1.05,1,1,0,0,1-.74.23H196.4v-.6a1.41,1.41,0,0,1,.14-.7,1.71,1.71,0,0,1,.4-.49l3-2.78v-.84h-2.45v1.34l-.85-.33v-.85a1.65,1.65,0,0,1,.24-1.05,1,1,0,0,1,.74-.23h2.21c.44,0,.73.13.84.37a3.7,3.7,0,0,1,.14,1.33,2.16,2.16,0,0,1-.12.81,2.09,2.09,0,0,1-.43.52l-2.53,2.32h2.5v-1l.79.34Z"/><path class="cls-6" d="M221.29,328h-4.43v-6.53h4.39v1.12h-3.39V324h2v1.11h-2v1.62h3.43Z"/><path class="cls-6" d="M227.12,322.61h-2V328h-1v-5.36h-2v-1.17h5Z"/><path class="cls-6" d="M233.47,328h-1v-2.81h-3.13V328h-1v-6.53h1V324h3.13v-2.53h1Z"/><path class="cls-6" d="M240,326.56a2,2,0,0,1-.25,1.14,1,1,0,0,1-.79.27h-2.5c-.46,0-.75-.14-.86-.41a4.79,4.79,0,0,1-.12-1.4l.88-.28v.91h2.31c.23,0,.37-.1.4-.29a5.44,5.44,0,0,0,0-.77.87.87,0,0,0-.09-.48c0-.08-.16-.11-.33-.11h-1.44v-1.07h1.29a.34.34,0,0,0,.38-.24,4.52,4.52,0,0,0,0-.68.89.89,0,0,0-.08-.48.38.38,0,0,0-.32-.11H236.4v.81l-.85-.24v-.41a1.58,1.58,0,0,1,.25-1.05,1,1,0,0,1,.74-.23h2.32c.47,0,.76.15.87.43a5.18,5.18,0,0,1,.11,1.45,1.47,1.47,0,0,1-.21.89,1,1,0,0,1-.62.34c.67.11,1,.55,1,1.33Z"/><path class="cls-6" d="M261.79,328h-4.43v-6.53h4.39v1.12h-3.39V324h2v1.11h-2v1.62h3.43Z"/><path class="cls-6" d="M267.62,322.61h-2V328h-1v-5.36h-2v-1.17h4.95Z"/><path class="cls-6" d="M274,328h-1v-2.81h-3.13V328h-1v-6.53h1V324H273v-2.53h1Z"/><path class="cls-6" d="M281,326.53h-1V328H279v-1.51h-3.25v-1.09l3.22-4.07h.94v4.07h1ZM279,325.44v-2.92l-2.35,2.92Z"/><path class="cls-6" d="M301.67,328h-4.44v-6.53h4.4v1.12h-3.4V324h2v1.11h-2v1.62h3.44Z"/><path class="cls-6" d="M307.5,322.61h-2V328h-1v-5.36h-2v-1.17h5Z"/><path class="cls-6" d="M313.85,328h-1v-2.81h-3.12V328h-1v-6.53h1V324h3.12v-2.53h1Z"/><path class="cls-6" d="M320.68,325.87a2,2,0,0,1-.79,1.84,2.9,2.9,0,0,1-1.57.35,6.24,6.24,0,0,1-2.07-.27l-.22-1.26a8.92,8.92,0,0,0,2.26.34,2.35,2.35,0,0,0,.93-.13.9.9,0,0,0,.54-.93.88.88,0,0,0-.53-.9,2.36,2.36,0,0,0-.88-.12,12,12,0,0,0-2.32.27l.24-3.62H320l-.07,1.12h-3l-.1,1.26a11.73,11.73,0,0,1,1.74-.16C320,323.66,320.68,324.39,320.68,325.87Z"/><path class="cls-6" d="M488.56,268h-3.18v1.72h1.72v1.19h-1.72v2.47h-.95v-6.52h4.13Z"/><path class="cls-6" d="M493.8,273.37h-1.07l-.49-1.42h-2.59l-.48,1.42h-.95l2.32-6.52h.91Zm-2-2.6-.88-2.65-.91,2.65Z"/><path class="cls-6" d="M499.4,271.83a2.42,2.42,0,0,1-.22,1.23.92.92,0,0,1-.8.31h-2.53c-.42,0-.69-.11-.82-.35a3,3,0,0,1-.2-1.36l.84-.28v.77h2.89v-1.49H496a.91.91,0,0,1-.8-.32,2.42,2.42,0,0,1-.22-1.23v-.72a2.4,2.4,0,0,1,.22-1.22.91.91,0,0,1,.8-.32h2.32a.9.9,0,0,1,.8.32,2.54,2.54,0,0,1,.21,1.25l-.84.32V268h-2.67v1.4h2.55a.92.92,0,0,1,.8.32,2.4,2.4,0,0,1,.22,1.22Z"/><path class="cls-6" d="M505.16,268h-1.89v5.36h-.95V268h-1.88v-1.16h4.72Z"/><path class="cls-6" d="M513.61,273.37h-4.22v-6.52h4.18V268h-3.23v1.46h1.88v1.11h-1.88v1.62h3.27Z"/><path class="cls-6" d="M519.15,268h-1.88v5.36h-.95V268h-1.88v-1.16h4.71Z"/><path class="cls-6" d="M525.19,273.37h-1v-2.8h-3v2.8h-.95v-6.52h.95v2.53h3v-2.53h1Z"/><path class="cls-6" d="M531.51,273.37h-4.23v-6.52h4.19V268h-3.23v1.46h1.88v1.11h-1.88v1.62h3.27Z"/><path class="cls-6" d="M538.11,273.37h-1.36l-1.65-2.46h-.9v2.46h-.94v-6.52h3.51c.61,0,.91.42.91,1.27v1.53c0,.63-.15,1-.47,1.17a3,3,0,0,1-1,.09Zm-1.34-4.09v-.78c0-.22,0-.37-.12-.43a.43.43,0,0,0-.31-.09H534.2v1.82h2.14a.43.43,0,0,0,.31-.09A.57.57,0,0,0,536.77,269.28Z"/><path class="cls-6" d="M544.42,273.37h-.65l-3-4a4.79,4.79,0,0,1-.34-.53c0,.42,0,.76,0,1v3.56h-.85v-6.52h.65l2.87,3.84a7.08,7.08,0,0,1,.47.71c0-.6,0-1,0-1.12v-3.43h.86Z"/><path class="cls-6" d="M550.72,273.37H546.5v-6.52h4.18V268h-3.23v1.46h1.88v1.11h-1.88v1.62h3.27Z"/><path class="cls-6" d="M556.26,268h-1.88v5.36h-1V268h-1.88v-1.16h4.71Z"/><polygon class="cls-10" points="165.57 282.91 131.44 282.91 131.44 302.09 138.44 302.09 138.44 308.58 142.73 308.58 142.73 311.52 154.38 311.52 154.38 308.58 158.66 308.58 158.66 302.09 165.57 302.09 165.57 282.91"/><polygon class="cls-10" points="205.57 282.91 171.44 282.91 171.44 302.09 178.44 302.09 178.44 308.58 182.73 308.58 182.73 311.52 194.38 311.52 194.38 308.58 198.66 308.58 198.66 302.09 205.57 302.09 205.57 282.91"/><polygon class="cls-10" points="245.57 282.91 211.44 282.91 211.44 302.09 218.44 302.09 218.44 308.58 222.73 308.58 222.73 311.52 234.38 311.52 234.38 308.58 238.66 308.58 238.66 302.09 245.57 302.09 245.57 282.91"/><polygon class="cls-10" points="285.57 282.91 251.44 282.91 251.44 302.09 258.44 302.09 258.44 308.58 262.73 308.58 262.73 311.52 274.38 311.52 274.38 308.58 278.66 308.58 278.66 302.09 285.57 302.09 285.57 282.91"/><polygon class="cls-10" points="325.57 282.91 291.44 282.91 291.44 302.09 298.44 302.09 298.44 308.58 302.73 308.58 302.73 311.52 314.38 311.52 314.38 308.58 318.66 308.58 318.66 302.09 325.57 302.09 325.57 282.91"/><rect class="cls-7" x="418.35" y="276.88" width="207.5" height="37.96"/><path class="cls-6" d="M435.33,328h-4.44v-6.53h4.39v1.12h-3.39V324h2v1.11h-2v1.62h3.44Z"/><path class="cls-6" d="M441.15,322.61h-2V328h-1v-5.36h-2v-1.17h4.95Z"/><path class="cls-6" d="M447.51,328h-1v-2.81h-3.12V328h-1v-6.53h1V324h3.12v-2.53h1Z"/><path class="cls-6" d="M454.23,326.37c0,1.07-.49,1.6-1.47,1.6h-1.82a1.29,1.29,0,0,1-1.09-.41,2.86,2.86,0,0,1-.32-1.6v-.86a4.08,4.08,0,0,1,1-3,3,3,0,0,1,2.21-.85l.31,0,.59,1h-.28a6,6,0,0,0-1.14.09,1.93,1.93,0,0,0-1.66,1.6,8,8,0,0,1,1.9-.23,3.93,3.93,0,0,1,.84.07,1.16,1.16,0,0,1,.74.48,2.22,2.22,0,0,1,.23,1.13Zm-.91-.36v-.36c0-.37-.11-.6-.32-.7a1.72,1.72,0,0,0-.63-.08,12.79,12.79,0,0,0-1.91.15c0,.11,0,.24,0,.38a2.69,2.69,0,0,0,.14,1.11c.1.19.36.28.75.28h1.2a1,1,0,0,0,.55-.1A.8.8,0,0,0,453.32,326Z"/><path class="cls-6" d="M475.17,328h-4.44v-6.53h4.4v1.12h-3.4V324h2v1.11h-2v1.62h3.44Z"/><path class="cls-6" d="M481,322.61h-2V328h-1v-5.36h-2v-1.17h5Z"/><path class="cls-6" d="M487.35,328h-1v-2.81h-3.12V328h-1v-6.53h1V324h3.12v-2.53h1Z"/><path class="cls-6" d="M494.1,322.49l-2.25,5.59h-1.09l2.32-5.52h-2.84V324l-.91-.24v-2.28h4.77Z"/><path class="cls-6" d="M515.12,328H510.8v-6.53h4.28v1.12h-3.31V324h1.93v1.11h-1.93v1.62h3.35Z"/><path class="cls-6" d="M520.8,322.61h-1.93V328h-1v-5.36H516v-1.17h4.83Z"/><path class="cls-6" d="M527,328h-1v-2.81h-3V328h-1v-6.53h1V324h3v-2.53h1Z"/><path class="cls-6" d="M533.54,326.56a1.88,1.88,0,0,1-.25,1.14.94.94,0,0,1-.77.27h-2.68a1,1,0,0,1-.77-.27,2,2,0,0,1-.24-1.14v-.68c0-.77.3-1.2.89-1.3a.93.93,0,0,1-.7-.59,4.72,4.72,0,0,1-.1-1.27,1.72,1.72,0,0,1,.23-1.05,1,1,0,0,1,.73-.23h2.61c.45,0,.74.15.85.43a5.82,5.82,0,0,1,.1,1.45,1.52,1.52,0,0,1-.21.89,1,1,0,0,1-.58.37c.59.1.89.53.89,1.3Zm-.89-.35v-.48a1,1,0,0,0-.08-.48.37.37,0,0,0-.32-.11h-2.14c-.15,0-.26,0-.31.11a.87.87,0,0,0-.09.48v.48a.83.83,0,0,0,.09.48.37.37,0,0,0,.31.1h2.14c.15,0,.26,0,.31-.11A.81.81,0,0,0,532.65,326.21Zm-.09-2.73v-.33a1,1,0,0,0-.08-.48.38.38,0,0,0-.32-.11h-1.95a.4.4,0,0,0-.32.11.87.87,0,0,0-.09.48v.33a.87.87,0,0,0,.09.48.37.37,0,0,0,.32.11h1.95c.16,0,.27,0,.32-.11A1,1,0,0,0,532.56,323.48Z"/><path class="cls-6" d="M554.76,328h-4.43v-6.53h4.39v1.12h-3.39V324h2v1.11h-2v1.62h3.43Z"/><path class="cls-6" d="M560.59,322.61h-2V328h-1v-5.36h-2v-1.17h5Z"/><path class="cls-6" d="M566.94,328h-1v-2.81h-3.13V328h-1v-6.53h1V324h3.13v-2.53h1Z"/><path class="cls-6" d="M573.63,324.31a4,4,0,0,1-1,3,2.93,2.93,0,0,1-2.19.84h-.31l-.59-1.05h.27a4.57,4.57,0,0,0,1.62-.21,1.93,1.93,0,0,0,1.2-1.47,8.58,8.58,0,0,1-1.9.21,3.22,3.22,0,0,1-.84-.08,1.06,1.06,0,0,1-.74-.48,2,2,0,0,1-.24-1.12V323c0-1.06.49-1.6,1.47-1.6h1.81a1.3,1.3,0,0,1,1.11.42,2.92,2.92,0,0,1,.31,1.59Zm-.91-.32a2.81,2.81,0,0,0-.15-1.17c-.1-.18-.35-.26-.75-.26h-1.19a1.07,1.07,0,0,0-.56.11.86.86,0,0,0-.23.7v.36a.76.76,0,0,0,.32.74,1.78,1.78,0,0,0,.64.07,12.67,12.67,0,0,0,1.9-.16C572.71,324.23,572.72,324.1,572.72,324Z"/><path class="cls-6" d="M591.64,328H587.2v-6.53h4.4v1.12h-3.4V324h2v1.11h-2v1.62h3.44Z"/><path class="cls-6" d="M597.47,322.61h-2V328h-1v-5.36h-2v-1.17h5Z"/><path class="cls-6" d="M603.82,328h-1v-2.81h-3.12V328h-1v-6.53h1V324h3.12v-2.53h1Z"/><path class="cls-6" d="M608.77,328h-.91v-5.29H607v-.87l1.82-.42Z"/><path class="cls-6" d="M617,326.43a2.46,2.46,0,0,1-.21,1.21.83.83,0,0,1-.78.33h-2.9a.84.84,0,0,1-.78-.33,2.48,2.48,0,0,1-.2-1.21V323a2.5,2.5,0,0,1,.2-1.22.84.84,0,0,1,.78-.33H616a.83.83,0,0,1,.78.33A2.48,2.48,0,0,1,617,323Zm-.9.36v-4.23H613v4.23Z"/><polygon class="cls-10" points="459.54 282.91 425.41 282.91 425.41 302.09 432.42 302.09 432.42 308.58 436.7 308.58 436.7 311.52 448.35 311.52 448.35 308.58 452.63 308.58 452.63 302.09 459.54 302.09 459.54 282.91"/><polygon class="cls-10" points="499.54 282.91 465.41 282.91 465.41 302.09 472.42 302.09 472.42 308.58 476.7 308.58 476.7 311.52 488.35 311.52 488.35 308.58 492.63 308.58 492.63 302.09 499.54 302.09 499.54 282.91"/><polygon class="cls-10" points="539.54 282.91 505.41 282.91 505.41 302.09 512.41 302.09 512.41 308.58 516.7 308.58 516.7 311.52 528.35 311.52 528.35 308.58 532.63 308.58 532.63 302.09 539.54 302.09 539.54 282.91"/><polygon class="cls-10" points="579.54 282.91 545.41 282.91 545.41 302.09 552.41 302.09 552.41 308.58 556.7 308.58 556.7 311.52 568.35 311.52 568.35 308.58 572.63 308.58 572.63 302.09 579.54 302.09 579.54 282.91"/><polygon class="cls-10" points="619.54 282.91 585.41 282.91 585.41 302.09 592.41 302.09 592.41 308.58 596.7 308.58 596.7 311.52 608.35 311.52 608.35 308.58 612.63 308.58 612.63 302.09 619.54 302.09 619.54 282.91"/><path class="cls-6" d="M347.81,285.78h-1.3v-5h-1.32v-.83l2.62-.4Z"/><path class="cls-6" d="M363.48,284.57a1.15,1.15,0,0,1-.35,1,1.89,1.89,0,0,1-1.06.21h-5.21v-.56a1.07,1.07,0,0,1,.2-.67,2.25,2.25,0,0,1,.58-.46l4.28-2.64v-.8h-3.53v1.27l-1.22-.31v-.81a1.17,1.17,0,0,1,.35-1,1.83,1.83,0,0,1,1.07-.22h3.18c.64,0,1,.12,1.21.35a2.52,2.52,0,0,1,.2,1.26,1.37,1.37,0,0,1-.18.77,2.11,2.11,0,0,1-.62.49l-3.64,2.21h3.6v-.91l1.14.32Z"/><path class="cls-6" d="M377.18,284.45a1.35,1.35,0,0,1-.36,1.08,1.88,1.88,0,0,1-1.14.25h-3.6c-.66,0-1.07-.12-1.23-.38a3,3,0,0,1-.18-1.33l1.27-.27v.87h3.34c.32,0,.52-.09.57-.28a4.16,4.16,0,0,0,0-.73.65.65,0,0,0-.13-.46.76.76,0,0,0-.47-.1h-2.09v-1h1.86c.3,0,.49-.08.55-.23a3.18,3.18,0,0,0,0-.65.61.61,0,0,0-.12-.45.69.69,0,0,0-.47-.11H372v.77l-1.23-.23v-.39a1.17,1.17,0,0,1,.35-1,1.83,1.83,0,0,1,1.07-.22h3.35c.67,0,1.09.14,1.26.41a3.64,3.64,0,0,1,.15,1.37,1.05,1.05,0,0,1-.31.85,1.75,1.75,0,0,1-.89.32q1.44.15,1.44,1.26Z"/><path class="cls-6" d="M393.12,284.42h-1.5v1.44h-1.31v-1.44h-4.69v-1l4.64-3.86h1.36v3.86h1.5Zm-2.81-1v-2.77l-3.39,2.77Z"/><path class="cls-6" d="M406.83,283.79a1.74,1.74,0,0,1-1.14,1.75,6,6,0,0,1-2.27.33,14.16,14.16,0,0,1-3-.25l-.32-1.2a19.07,19.07,0,0,0,3.27.32,5.23,5.23,0,0,0,1.33-.12.89.89,0,0,0,.78-.89c0-.42-.25-.71-.76-.85a5.45,5.45,0,0,0-1.27-.11,28,28,0,0,0-3.35.25l.35-3.43h5.35l-.1,1.06H401.4l-.15,1.2a24.32,24.32,0,0,1,2.51-.16C405.81,281.69,406.83,282.39,406.83,283.79Z"/><path class="cls-6" d="M349.86,322.61c0,1-.67,1.51-2,1.51h-2.45a2.14,2.14,0,0,1-1.48-.39,2.06,2.06,0,0,1-.43-1.52v-.82a3.25,3.25,0,0,1,1.3-2.82,5.06,5.06,0,0,1,3-.8l.41,0,.8,1h-.37a12.85,12.85,0,0,0-1.55.08,2.42,2.42,0,0,0-2.24,1.52,15.36,15.36,0,0,1,2.56-.22,7.05,7.05,0,0,1,1.14.07,1.65,1.65,0,0,1,1,.46,1.55,1.55,0,0,1,.32,1.07Zm-1.24-.35v-.34a.63.63,0,0,0-.43-.67,3.15,3.15,0,0,0-.85-.07c-.83,0-1.68.05-2.58.14,0,.11,0,.23,0,.36a2,2,0,0,0,.18,1.06c.14.17.48.26,1,.26h1.62a2.11,2.11,0,0,0,.74-.09A.68.68,0,0,0,348.62,322.26Z"/><path class="cls-6" d="M363.64,318.92l-3.24,5.31h-1.57l3.33-5.25h-4.09v1.33l-1.31-.22v-2.16h6.88Z"/><path class="cls-6" d="M377.54,322.79a1.38,1.38,0,0,1-.35,1.08,1.78,1.78,0,0,1-1.08.25h-3.75a1.78,1.78,0,0,1-1.08-.25,1.38,1.38,0,0,1-.34-1.08v-.65c0-.73.42-1.14,1.25-1.24a1.28,1.28,0,0,1-1-.56,3.25,3.25,0,0,1-.14-1.2,1.21,1.21,0,0,1,.33-1,1.76,1.76,0,0,1,1-.21h3.66c.64,0,1,.13,1.2.4a3.67,3.67,0,0,1,.15,1.37,1.08,1.08,0,0,1-.3.85,1.61,1.61,0,0,1-.82.35c.84.1,1.25.51,1.25,1.24Zm-1.25-.34V322a.66.66,0,0,0-.11-.45.69.69,0,0,0-.44-.11h-3a.44.44,0,0,0-.55.56v.46a.68.68,0,0,0,.11.46.76.76,0,0,0,.44.09h3a.66.66,0,0,0,.43-.1A.61.61,0,0,0,376.29,322.45Zm-.12-2.59v-.31a.62.62,0,0,0-.12-.46.65.65,0,0,0-.44-.11h-2.74a.7.7,0,0,0-.45.11.62.62,0,0,0-.12.46v.31a.61.61,0,0,0,.12.45.64.64,0,0,0,.45.11h2.74a.6.6,0,0,0,.44-.11A.61.61,0,0,0,376.17,319.86Z"/><path class="cls-6" d="M391.46,320.65a3.29,3.29,0,0,1-1.24,2.82,4.55,4.55,0,0,1-2.81.79H387l-.76-1h.36a8,8,0,0,0,2.07-.19,2.08,2.08,0,0,0,1.52-1.4,14.94,14.94,0,0,1-2.43.2,6.37,6.37,0,0,1-1.07-.07,1.45,1.45,0,0,1-.94-.46,1.58,1.58,0,0,1-.3-1.06v-.83c0-1,.62-1.51,1.87-1.51h2.32a2,2,0,0,1,1.4.39,2.14,2.14,0,0,1,.4,1.51Zm-1.16-.31a2,2,0,0,0-.19-1.11c-.12-.17-.44-.25-.95-.25h-1.52a1.73,1.73,0,0,0-.72.11.7.7,0,0,0-.29.66v.35a.65.65,0,0,0,.4.69,2.77,2.77,0,0,0,.82.08,22.73,22.73,0,0,0,2.42-.16A2.73,2.73,0,0,0,390.3,320.34Z"/><path class="cls-6" d="M399.18,324.12h-1v-5h-1v-.83l2-.39Z"/><path class="cls-6" d="M408.1,322.65a2.24,2.24,0,0,1-.22,1.16,1,1,0,0,1-.85.31h-3.14a1,1,0,0,1-.84-.31,2.12,2.12,0,0,1-.23-1.16v-3.26a2.08,2.08,0,0,1,.23-1.15.94.94,0,0,1,.84-.31H407a1,1,0,0,1,.85.31,2.2,2.2,0,0,1,.22,1.15Zm-1,.35v-4H403.8v4Z"/><polygon class="cls-6" points="423.63 327.53 337.44 327.53 337.44 321.03 338.44 321.03 338.44 326.53 423.63 326.53 423.63 327.53"/><polygon class="cls-6" points="412.5 278.52 411.5 278.52 411.5 273.02 326.32 273.02 326.32 272.02 412.5 272.02 412.5 278.52"/><rect class="cls-11" x="583.38" y="272.38" width="38.58" height="4.5"/><rect class="cls-11" x="583.38" y="314.84" width="38.58" height="3.2"/><path id="path2821" class="cls-11" d="M604.63,264.59a.34.34,0,0,0-.47,0l-1,.83-.51-.65a.12.12,0,0,0-.16,0l-1,.79a2.28,2.28,0,0,0-.64,2.77l-1.65,1.32a.49.49,0,0,0,.61.77l1.66-1.31a2.26,2.26,0,0,0,2.84,0l1-.79a.11.11,0,0,0,0-.16l-.51-.65,1.05-.83a.33.33,0,0,0-.41-.52l-1,.84-.84-1.06,1.05-.83a.34.34,0,0,0,.06-.47Z"/><rect class="cls-12" x="136.76" y="282.91" width="1.32" height="7.2"/><rect class="cls-13" x="139.92" y="282.91" width="1.32" height="7.2"/><rect class="cls-14" x="143.09" y="282.91" width="1.32" height="7.2"/><rect class="cls-15" x="146.26" y="282.91" width="1.32" height="7.2"/><rect class="cls-16" x="149.43" y="282.91" width="1.32" height="7.2"/><rect class="cls-17" x="152.6" y="282.91" width="1.32" height="7.2"/><rect class="cls-18" x="155.77" y="282.91" width="1.32" height="7.2"/><rect class="cls-19" x="158.94" y="282.91" width="1.32" height="7.2"/><rect class="cls-20" x="176.76" y="282.91" width="1.32" height="7.2"/><rect class="cls-21" x="179.92" y="282.91" width="1.32" height="7.2"/><rect class="cls-22" x="183.09" y="282.91" width="1.32" height="7.2"/><rect class="cls-23" x="186.26" y="282.91" width="1.32" height="7.2"/><rect class="cls-24" x="189.43" y="282.91" width="1.32" height="7.2"/><rect class="cls-25" x="192.6" y="282.91" width="1.32" height="7.2"/><rect class="cls-26" x="195.77" y="282.91" width="1.32" height="7.2"/><rect class="cls-27" x="198.94" y="282.91" width="1.32" height="7.2"/><rect class="cls-28" x="216.38" y="282.91" width="1.32" height="7.2"/><rect class="cls-29" x="219.55" y="282.91" width="1.32" height="7.2"/><rect class="cls-30" x="222.72" y="282.91" width="1.32" height="7.2"/><rect class="cls-31" x="225.89" y="282.91" width="1.32" height="7.2"/><rect class="cls-32" x="229.06" y="282.91" width="1.32" height="7.2"/><rect class="cls-33" x="232.23" y="282.91" width="1.32" height="7.2"/><rect class="cls-34" x="235.4" y="282.91" width="1.32" height="7.2"/><rect class="cls-35" x="238.57" y="282.91" width="1.32" height="7.2"/><rect class="cls-36" x="256.76" y="282.91" width="1.32" height="7.2"/><rect class="cls-37" x="259.92" y="282.91" width="1.32" height="7.2"/><rect class="cls-38" x="263.09" y="282.91" width="1.32" height="7.2"/><rect class="cls-39" x="266.26" y="282.91" width="1.32" height="7.2"/><rect class="cls-40" x="269.43" y="282.91" width="1.32" height="7.2"/><rect class="cls-41" x="272.6" y="282.91" width="1.32" height="7.2"/><rect class="cls-42" x="275.77" y="282.91" width="1.32" height="7.2"/><rect class="cls-43" x="278.94" y="282.91" width="1.32" height="7.2"/><rect class="cls-44" x="296.76" y="282.91" width="1.32" height="7.2"/><rect class="cls-45" x="299.92" y="282.91" width="1.32" height="7.2"/><rect class="cls-46" x="303.09" y="282.91" width="1.32" height="7.2"/><rect class="cls-47" x="306.26" y="282.91" width="1.32" height="7.2"/><rect class="cls-48" x="309.43" y="282.91" width="1.32" height="7.2"/><rect class="cls-49" x="312.6" y="282.91" width="1.32" height="7.2"/><rect class="cls-50" x="315.77" y="282.91" width="1.32" height="7.2"/><rect class="cls-51" x="318.94" y="282.91" width="1.32" height="7.2"/><rect class="cls-52" x="430.73" y="282.91" width="1.32" height="7.2"/><rect class="cls-53" x="433.89" y="282.91" width="1.32" height="7.2"/><rect class="cls-54" x="437.06" y="282.91" width="1.32" height="7.2"/><rect class="cls-55" x="440.23" y="282.91" width="1.32" height="7.2"/><rect class="cls-56" x="443.4" y="282.91" width="1.32" height="7.2"/><rect class="cls-57" x="446.57" y="282.91" width="1.32" height="7.2"/><rect class="cls-58" x="449.74" y="282.91" width="1.32" height="7.2"/><rect class="cls-59" x="452.91" y="282.91" width="1.32" height="7.2"/><rect class="cls-60" x="470.73" y="282.91" width="1.32" height="7.2"/><rect class="cls-61" x="473.89" y="282.91" width="1.32" height="7.2"/><rect class="cls-62" x="477.06" y="282.91" width="1.32" height="7.2"/><rect class="cls-63" x="480.23" y="282.91" width="1.32" height="7.2"/><rect class="cls-64" x="483.4" y="282.91" width="1.32" height="7.2"/><rect class="cls-65" x="486.57" y="282.91" width="1.32" height="7.2"/><rect class="cls-66" x="489.74" y="282.91" width="1.32" height="7.2"/><rect class="cls-67" x="492.91" y="282.91" width="1.32" height="7.2"/><rect class="cls-68" x="510.35" y="282.91" width="1.32" height="7.2"/><rect class="cls-69" x="513.52" y="282.91" width="1.32" height="7.2"/><rect class="cls-70" x="516.69" y="282.91" width="1.32" height="7.2"/><rect class="cls-71" x="519.86" y="282.91" width="1.32" height="7.2"/><rect class="cls-72" x="523.03" y="282.91" width="1.32" height="7.2"/><rect class="cls-73" x="526.2" y="282.91" width="1.32" height="7.2"/><rect class="cls-74" x="529.37" y="282.91" width="1.32" height="7.2"/><rect class="cls-75" x="532.54" y="282.91" width="1.32" height="7.2"/><rect class="cls-76" x="550.73" y="282.91" width="1.32" height="7.2"/><rect class="cls-77" x="553.89" y="282.91" width="1.32" height="7.2"/><rect class="cls-78" x="557.06" y="282.91" width="1.32" height="7.2"/><rect class="cls-79" x="560.23" y="282.91" width="1.32" height="7.2"/><rect class="cls-80" x="563.4" y="282.91" width="1.32" height="7.2"/><rect class="cls-81" x="566.57" y="282.91" width="1.32" height="7.2"/><rect class="cls-82" x="569.74" y="282.91" width="1.32" height="7.2"/><rect class="cls-83" x="572.91" y="282.91" width="1.32" height="7.2"/><rect class="cls-84" x="590.73" y="282.91" width="1.32" height="7.2"/><rect class="cls-85" x="593.89" y="282.91" width="1.32" height="7.2"/><rect class="cls-86" x="597.06" y="282.91" width="1.32" height="7.2"/><rect class="cls-87" x="600.23" y="282.91" width="1.32" height="7.2"/><rect class="cls-88" x="603.4" y="282.91" width="1.32" height="7.2"/><rect class="cls-89" x="606.57" y="282.91" width="1.32" height="7.2"/><rect class="cls-90" x="609.74" y="282.91" width="1.32" height="7.2"/><rect class="cls-91" x="612.91" y="282.91" width="1.32" height="7.2"/><rect class="cls-10" x="71.11" y="286.58" width="41.99" height="29.25"/><circle class="cls-92" cx="347.1" cy="293.58" r="4.18"/><circle class="cls-93" cx="361.33" cy="293.58" r="4.18"/><circle class="cls-94" cx="375.56" cy="293.58" r="4.18"/><circle class="cls-95" cx="389.79" cy="293.58" r="4.18"/><circle class="cls-96" cx="403.9" cy="293.58" r="4.18"/><circle class="cls-97" cx="347.05" cy="308.17" r="4.18"/><circle class="cls-98" cx="361.16" cy="308.17" r="4.18"/><circle class="cls-99" cx="375.72" cy="308.17" r="4.18"/><circle class="cls-100" cx="389.44" cy="308.17" r="4.18"/><circle class="cls-101" cx="403.9" cy="308.17" r="4.18"/><path class="cls-102" d="M112.51,315H71.7V287.21h40.81ZM72.7,314h38.81V288.21H72.7Z"/><rect class="cls-10" x="84.31" y="312.96" width="15.59" height="2.25"/><rect class="cls-102" x="85.5" y="312.74" width="13.2" height="1.8"/><path class="cls-103" d="M312.79,0h0a7.92,7.92,0,0,1,7.92,7.92V105.6a0,0,0,0,1,0,0H304.84a0,0,0,0,1,0,0V8a8,8,0,0,1,8-8Z"/><rect x="294.96" y="256.82" width="35.67" height="1.78"/><polygon class="cls-104" points="323.44 104.95 302.14 104.95 294.96 229.5 294.96 263.28 330.63 263.28 330.63 229.5 323.44 104.95"/><path class="cls-105" d="M568.93,0h0a7.92,7.92,0,0,1,7.92,7.92V105.6a0,0,0,0,1,0,0H561a0,0,0,0,1,0,0V8a8,8,0,0,1,8-8Z"/><rect x="551.1" y="256.82" width="35.67" height="1.78"/><polygon class="cls-106" points="579.58 104.95 558.28 104.95 551.1 229.5 551.1 263.28 586.77 263.28 586.77 229.5 579.58 104.95"/><path class="cls-6" d="M15,269.67c.32-.12.48-.44.48-.95v-1.24q0-1-.93-1H11v5.28h.95v-2h.92l1.68,2h1.39l-1.92-2A3.66,3.66,0,0,0,15,269.67Zm-3.07-.83v-1.47h2.18a.52.52,0,0,1,.32.07.41.41,0,0,1,.12.35v.63c0,.18,0,.3-.12.35a.52.52,0,0,1-.32.07Z"/><path class="cls-6" d="M21.25,269a.79.79,0,0,0,.72-.89v-.65c0-.68-.31-1-.94-1H17.46v5.28h3.31c.82,0,1.23-.34,1.23-1V270C22,269.44,21.75,269.1,21.25,269Zm-2.83-1.7h2.21c.29,0,.44.12.44.38v.5c0,.25-.15.38-.44.38H18.42Zm2.68,3c0,.2,0,.33-.11.38a.56.56,0,0,1-.36.09H18.42v-1.34h2.21a.56.56,0,0,1,.36.09c.07,0,.11.18.11.38Z"/><path class="cls-6" d="M27.42,270.79H25l2.44-1.88a1.61,1.61,0,0,0,.42-.42,1.44,1.44,0,0,0,.12-.66,2.7,2.7,0,0,0-.13-1.08c-.12-.19-.39-.29-.82-.29H24.89a1.08,1.08,0,0,0-.72.18,1.2,1.2,0,0,0-.23.85v.69l.82.27v-1.09h2.38v.69l-2.89,2.25a1.49,1.49,0,0,0-.38.39,1,1,0,0,0-.14.57v.48h3.5a1.08,1.08,0,0,0,.72-.18,1.13,1.13,0,0,0,.24-.85v-.42l-.77-.28Z"/><path class="cls-6" d="M33.58,266.46H30.76a.9.9,0,0,0-.75.26,1.79,1.79,0,0,0-.2,1v2.78a1.79,1.79,0,0,0,.2,1,.9.9,0,0,0,.75.26h2.82a.94.94,0,0,0,.76-.26,1.8,1.8,0,0,0,.19-1v-2.78a1.8,1.8,0,0,0-.19-1A.94.94,0,0,0,33.58,266.46Zm.08,4.33h-3v-3.43h3Z"/><polygon class="cls-6" points="37.26 267.46 38.15 267.46 38.15 271.74 39.03 271.74 39.03 266.42 37.26 266.75 37.26 267.46"/><polygon class="cls-6" points="43.5 267.46 44.39 267.46 44.39 271.74 45.27 271.74 45.27 266.42 43.5 266.75 43.5 267.46"/><path class="cls-6" d="M52.57,270.75H49.81v-4.29h-1v4a1.65,1.65,0,0,0,.22,1,1.06,1.06,0,0,0,.82.25h2.63a1,1,0,0,0,.81-.25,1.58,1.58,0,0,0,.22-1v-4h-1Z"/><rect class="cls-6" x="55.36" y="268.01" width="0.83" height="3.74"/><path class="cls-6" d="M59.58,266.46l-2.36,5.28h1l.49-1.15h2.64l.5,1.15h1.09l-2.39-5.28Zm-.49,3.17.93-2.15.89,2.15Z"/><path class="cls-6" d="M67.57,268.52H65v-1.14H67.7v.6l.86-.25a1.61,1.61,0,0,0-.22-1,1,1,0,0,0-.81-.26H65.16a1,1,0,0,0-.81.25,1.6,1.6,0,0,0-.22,1v.58a1.62,1.62,0,0,0,.22,1,1,1,0,0,0,.81.25h2.6v1.21h-3v-.63l-.85.23a2,2,0,0,0,.2,1.11c.13.19.41.28.84.28h2.57a1.06,1.06,0,0,0,.82-.25,1.57,1.57,0,0,0,.23-1v-.72a1.57,1.57,0,0,0-.23-1A1.06,1.06,0,0,0,67.57,268.52Z"/><rect class="cls-6" x="69.95" y="268.49" width="1.88" height="1.06"/><path class="cls-6" d="M76.84,270.79H74.41l2.45-1.88a2,2,0,0,0,.42-.42,1.44,1.44,0,0,0,.12-.66,2.64,2.64,0,0,0-.14-1.08c-.11-.19-.38-.29-.81-.29H74.31a1.08,1.08,0,0,0-.72.18,1.15,1.15,0,0,0-.23.85v.69l.82.27v-1.09h2.37v.69l-2.88,2.25a1.76,1.76,0,0,0-.39.39,1,1,0,0,0-.13.57v.48h3.5a1.08,1.08,0,0,0,.72-.18,1.18,1.18,0,0,0,.23-.85v-.42l-.76-.28Z"/><polygon class="cls-6" points="83.53 268.51 80.5 268.51 80.5 266.46 79.53 266.46 79.53 271.74 80.5 271.74 80.5 269.47 83.53 269.47 83.53 271.74 84.5 271.74 84.5 266.46 83.53 266.46 83.53 268.51"/><polygon class="cls-6" points="89.8 270.29 86.9 267.41 86.33 267.41 86.33 271.74 87.09 271.74 87.09 268.82 89.98 271.74 90.55 271.74 90.55 267.41 89.8 267.41 89.8 270.29"/><path class="cls-6" d="M95.07,266.46H92.39v5.28h2.43a2.76,2.76,0,0,0,1.71-.41,2.71,2.71,0,0,0,.92-2.26,2.68,2.68,0,0,0-.69-2A2.28,2.28,0,0,0,95.07,266.46Zm.83,4a2.28,2.28,0,0,1-1.29.29H93.36V267.4h1.71q1.38,0,1.38,1.65A1.63,1.63,0,0,1,95.9,270.46Z"/><rect class="cls-6" x="98.55" y="268.49" width="1.88" height="1.06"/><rect class="cls-6" x="101.89" y="266.46" width="0.97" height="5.29"/><path class="cls-6" d="M109,266.46v2.77c0,.12,0,.42,0,.92a5.45,5.45,0,0,0-.47-.58l-2.94-3.11H105v5.28h.87v-2.89c0-.19,0-.46,0-.8a4.7,4.7,0,0,0,.35.43l3.06,3.26h.66v-5.28Z"/><rect class="cls-6" x="55.36" y="266.46" width="0.83" height="0.83"/></svg>