<svg id="Camada_1" data-name="Camada 1" xmlns="http://www.w3.org/2000/svg" xmlns:xlink="http://www.w3.org/1999/xlink" viewBox="0 0 1368 125.19"><defs><style>.cls-1{fill:#d4d4d4;}.cls-2{fill:#a8a7ad;}.cls-3{fill:#f1f1f2;}.cls-4{fill:gray;}.cls-5{fill:#fff;}.cls-6{fill:#333;}.cls-7{fill:#ff0;}.cls-8{fill:#1a1a1a;}.cls-9{fill:#c9c9c9;}.cls-10{fill:#020302;}.cls-11{fill:#262424;}.cls-12{fill:#969696;}.cls-13{fill:url(#Gradiente_sem_nome_34);}.cls-14{fill:url(#Gradiente_sem_nome_46);}.cls-15{fill:url(#Gradiente_sem_nome_66);}.cls-16{fill:url(#Gradiente_sem_nome_66-2);}.cls-17{fill:url(#Gradiente_sem_nome_66-3);}.cls-18{fill:url(#Gradiente_sem_nome_66-4);}.cls-19{fill:url(#Gradiente_sem_nome_66-5);}.cls-20{fill:url(#Gradiente_sem_nome_66-6);}.cls-21{fill:url(#Gradiente_sem_nome_66-7);}.cls-22{fill:url(#Gradiente_sem_nome_66-8);}.cls-23{fill:url(#Gradiente_sem_nome_34-2);}.cls-24{fill:url(#Gradiente_sem_nome_46-2);}.cls-25{fill:url(#Gradiente_sem_nome_66-9);}.cls-26{fill:url(#Gradiente_sem_nome_66-10);}.cls-27{fill:url(#Gradiente_sem_nome_66-11);}.cls-28{fill:url(#Gradiente_sem_nome_66-12);}.cls-29{fill:url(#Gradiente_sem_nome_66-13);}.cls-30{fill:url(#Gradiente_sem_nome_66-14);}.cls-31{fill:url(#Gradiente_sem_nome_66-15);}.cls-32{fill:url(#Gradiente_sem_nome_66-16);}.cls-33{fill:url(#Gradiente_sem_nome_34-3);}.cls-34{fill:url(#Gradiente_sem_nome_46-3);}.cls-35{fill:url(#Gradiente_sem_nome_66-17);}.cls-36{fill:url(#Gradiente_sem_nome_66-18);}.cls-37{fill:url(#Gradiente_sem_nome_66-19);}.cls-38{fill:url(#Gradiente_sem_nome_66-20);}.cls-39{fill:url(#Gradiente_sem_nome_66-21);}.cls-40{fill:url(#Gradiente_sem_nome_66-22);}.cls-41{fill:url(#Gradiente_sem_nome_66-23);}.cls-42{fill:url(#Gradiente_sem_nome_66-24);}.cls-43{fill:url(#Gradiente_sem_nome_34-4);}.cls-44{fill:url(#Gradiente_sem_nome_46-4);}.cls-45{fill:url(#Gradiente_sem_nome_66-25);}.cls-46{fill:url(#Gradiente_sem_nome_66-26);}.cls-47{fill:url(#Gradiente_sem_nome_66-27);}.cls-48{fill:url(#Gradiente_sem_nome_66-28);}.cls-49{fill:url(#Gradiente_sem_nome_66-29);}.cls-50{fill:url(#Gradiente_sem_nome_66-30);}.cls-51{fill:url(#Gradiente_sem_nome_66-31);}.cls-52{fill:url(#Gradiente_sem_nome_66-32);}.cls-53{fill:url(#Gradiente_sem_nome_34-5);}.cls-54{fill:url(#Gradiente_sem_nome_46-5);}.cls-55{fill:url(#Gradiente_sem_nome_66-33);}.cls-56{fill:url(#Gradiente_sem_nome_66-34);}.cls-57{fill:url(#Gradiente_sem_nome_66-35);}.cls-58{fill:url(#Gradiente_sem_nome_66-36);}.cls-59{fill:url(#Gradiente_sem_nome_66-37);}.cls-60{fill:url(#Gradiente_sem_nome_66-38);}.cls-61{fill:url(#Gradiente_sem_nome_66-39);}.cls-62{fill:url(#Gradiente_sem_nome_66-40);}.cls-63{fill:url(#Gradiente_sem_nome_34-6);}.cls-64{fill:url(#Gradiente_sem_nome_46-6);}.cls-65{fill:url(#Gradiente_sem_nome_66-41);}.cls-66{fill:url(#Gradiente_sem_nome_66-42);}.cls-67{fill:url(#Gradiente_sem_nome_66-43);}.cls-68{fill:url(#Gradiente_sem_nome_66-44);}.cls-69{fill:url(#Gradiente_sem_nome_66-45);}.cls-70{fill:url(#Gradiente_sem_nome_66-46);}.cls-71{fill:url(#Gradiente_sem_nome_66-47);}.cls-72{fill:url(#Gradiente_sem_nome_66-48);}.cls-73{fill:url(#Gradiente_sem_nome_34-7);}.cls-74{fill:url(#Gradiente_sem_nome_46-7);}.cls-75{fill:url(#Gradiente_sem_nome_66-49);}.cls-76{fill:url(#Gradiente_sem_nome_66-50);}.cls-77{fill:url(#Gradiente_sem_nome_66-51);}.cls-78{fill:url(#Gradiente_sem_nome_66-52);}.cls-79{fill:url(#Gradiente_sem_nome_66-53);}.cls-80{fill:url(#Gradiente_sem_nome_66-54);}.cls-81{fill:url(#Gradiente_sem_nome_66-55);}.cls-82{fill:url(#Gradiente_sem_nome_66-56);}.cls-83{fill:url(#Gradiente_sem_nome_34-8);}.cls-84{fill:url(#Gradiente_sem_nome_46-8);}.cls-85{fill:url(#Gradiente_sem_nome_66-57);}.cls-86{fill:url(#Gradiente_sem_nome_66-58);}.cls-87{fill:url(#Gradiente_sem_nome_66-59);}.cls-88{fill:url(#Gradiente_sem_nome_66-60);}.cls-89{fill:url(#Gradiente_sem_nome_66-61);}.cls-90{fill:url(#Gradiente_sem_nome_66-62);}.cls-91{fill:url(#Gradiente_sem_nome_66-63);}.cls-92{fill:url(#Gradiente_sem_nome_66-64);}.cls-93{fill:#424143;}.cls-94{fill:#c6c6c6;}.cls-100,.cls-95{fill:none;}.cls-95{stroke:#020302;}.cls-100,.cls-95,.cls-98,.cls-99{stroke-miterlimit:10;}.cls-96{fill:url(#Gradiente_sem_nome_185);}.cls-97{fill:url(#Gradiente_sem_nome_46-9);}.cls-98{stroke:#000;stroke-width:0.75px;fill:url(#Gradiente_sem_nome_46-10);}.cls-100,.cls-99{stroke:#1a1a1a;}.cls-99{stroke-width:0.5px;fill:url(#Gradiente_sem_nome_30);}.cls-101{fill:url(#linear-gradient);}.cls-102{fill:url(#linear-gradient-2);}</style><radialGradient id="Gradiente_sem_nome_34" cx="242.63" cy="97.81" r="3.6" gradientUnits="userSpaceOnUse"><stop offset="0.46" stop-color="#ff0"/><stop offset="1" stop-color="#ffc51e"/></radialGradient><radialGradient id="Gradiente_sem_nome_46" cx="271.89" cy="97.81" r="3.6" gradientUnits="userSpaceOnUse"><stop offset="0.46" stop-color="lime"/><stop offset="1" stop-color="#00c500"/></radialGradient><linearGradient id="Gradiente_sem_nome_66" x1="246.16" y1="75.13" x2="246.16" y2="82.33" gradientUnits="userSpaceOnUse"><stop offset="0" stop-color="#fff195"/><stop offset="0.47" stop-color="#fff195"/><stop offset="1" stop-color="#1a1a1a"/></linearGradient><linearGradient id="Gradiente_sem_nome_66-2" x1="249.33" y1="75.13" x2="249.33" y2="82.33" xlink:href="#Gradiente_sem_nome_66"/><linearGradient id="Gradiente_sem_nome_66-3" x1="252.5" y1="75.13" x2="252.5" y2="82.33" xlink:href="#Gradiente_sem_nome_66"/><linearGradient id="Gradiente_sem_nome_66-4" x1="255.67" y1="75.13" x2="255.67" y2="82.33" xlink:href="#Gradiente_sem_nome_66"/><linearGradient id="Gradiente_sem_nome_66-5" x1="258.84" y1="75.13" x2="258.84" y2="82.33" xlink:href="#Gradiente_sem_nome_66"/><linearGradient id="Gradiente_sem_nome_66-6" x1="262.01" y1="75.13" x2="262.01" y2="82.33" xlink:href="#Gradiente_sem_nome_66"/><linearGradient id="Gradiente_sem_nome_66-7" x1="265.18" y1="75.13" x2="265.18" y2="82.33" xlink:href="#Gradiente_sem_nome_66"/><linearGradient id="Gradiente_sem_nome_66-8" x1="268.35" y1="75.13" x2="268.35" y2="82.33" xlink:href="#Gradiente_sem_nome_66"/><radialGradient id="Gradiente_sem_nome_34-2" cx="292.93" cy="97.81" r="3.6" xlink:href="#Gradiente_sem_nome_34"/><radialGradient id="Gradiente_sem_nome_46-2" cx="322.19" cy="97.81" r="3.6" xlink:href="#Gradiente_sem_nome_46"/><linearGradient id="Gradiente_sem_nome_66-9" x1="296.47" y1="75.13" x2="296.47" y2="82.33" xlink:href="#Gradiente_sem_nome_66"/><linearGradient id="Gradiente_sem_nome_66-10" x1="299.63" y1="75.13" x2="299.63" y2="82.33" xlink:href="#Gradiente_sem_nome_66"/><linearGradient id="Gradiente_sem_nome_66-11" x1="302.8" y1="75.13" x2="302.8" y2="82.33" xlink:href="#Gradiente_sem_nome_66"/><linearGradient id="Gradiente_sem_nome_66-12" x1="305.97" y1="75.13" x2="305.97" y2="82.33" xlink:href="#Gradiente_sem_nome_66"/><linearGradient id="Gradiente_sem_nome_66-13" x1="309.14" y1="75.13" x2="309.14" y2="82.33" xlink:href="#Gradiente_sem_nome_66"/><linearGradient id="Gradiente_sem_nome_66-14" x1="312.31" y1="75.13" x2="312.31" y2="82.33" xlink:href="#Gradiente_sem_nome_66"/><linearGradient id="Gradiente_sem_nome_66-15" x1="315.48" y1="75.13" x2="315.48" y2="82.33" xlink:href="#Gradiente_sem_nome_66"/><linearGradient id="Gradiente_sem_nome_66-16" x1="318.65" y1="75.13" x2="318.65" y2="82.33" xlink:href="#Gradiente_sem_nome_66"/><radialGradient id="Gradiente_sem_nome_34-3" cx="343.24" cy="97.81" r="3.6" xlink:href="#Gradiente_sem_nome_34"/><radialGradient id="Gradiente_sem_nome_46-3" cx="372.49" cy="97.81" r="3.6" xlink:href="#Gradiente_sem_nome_46"/><linearGradient id="Gradiente_sem_nome_66-17" x1="346.77" y1="75.13" x2="346.77" y2="82.33" xlink:href="#Gradiente_sem_nome_66"/><linearGradient id="Gradiente_sem_nome_66-18" x1="349.94" y1="75.13" x2="349.94" y2="82.33" xlink:href="#Gradiente_sem_nome_66"/><linearGradient id="Gradiente_sem_nome_66-19" x1="353.11" y1="75.13" x2="353.11" y2="82.33" xlink:href="#Gradiente_sem_nome_66"/><linearGradient id="Gradiente_sem_nome_66-20" x1="356.28" y1="75.13" x2="356.28" y2="82.33" xlink:href="#Gradiente_sem_nome_66"/><linearGradient id="Gradiente_sem_nome_66-21" x1="359.45" y1="75.13" x2="359.45" y2="82.33" xlink:href="#Gradiente_sem_nome_66"/><linearGradient id="Gradiente_sem_nome_66-22" x1="362.61" y1="75.13" x2="362.61" y2="82.33" xlink:href="#Gradiente_sem_nome_66"/><linearGradient id="Gradiente_sem_nome_66-23" x1="365.78" y1="75.13" x2="365.78" y2="82.33" xlink:href="#Gradiente_sem_nome_66"/><linearGradient id="Gradiente_sem_nome_66-24" x1="368.95" y1="75.13" x2="368.95" y2="82.33" xlink:href="#Gradiente_sem_nome_66"/><radialGradient id="Gradiente_sem_nome_34-4" cx="393.54" cy="97.81" r="3.6" xlink:href="#Gradiente_sem_nome_34"/><radialGradient id="Gradiente_sem_nome_46-4" cx="422.8" cy="97.81" r="3.6" xlink:href="#Gradiente_sem_nome_46"/><linearGradient id="Gradiente_sem_nome_66-25" x1="397.07" y1="75.13" x2="397.07" y2="82.33" xlink:href="#Gradiente_sem_nome_66"/><linearGradient id="Gradiente_sem_nome_66-26" x1="400.24" y1="75.13" x2="400.24" y2="82.33" xlink:href="#Gradiente_sem_nome_66"/><linearGradient id="Gradiente_sem_nome_66-27" x1="403.41" y1="75.13" x2="403.41" y2="82.33" xlink:href="#Gradiente_sem_nome_66"/><linearGradient id="Gradiente_sem_nome_66-28" x1="406.58" y1="75.13" x2="406.58" y2="82.33" xlink:href="#Gradiente_sem_nome_66"/><linearGradient id="Gradiente_sem_nome_66-29" x1="409.75" y1="75.13" x2="409.75" y2="82.33" xlink:href="#Gradiente_sem_nome_66"/><linearGradient id="Gradiente_sem_nome_66-30" x1="412.92" y1="75.13" x2="412.92" y2="82.33" xlink:href="#Gradiente_sem_nome_66"/><linearGradient id="Gradiente_sem_nome_66-31" x1="416.09" y1="75.13" x2="416.09" y2="82.33" xlink:href="#Gradiente_sem_nome_66"/><linearGradient id="Gradiente_sem_nome_66-32" x1="419.26" y1="75.13" x2="419.26" y2="82.33" xlink:href="#Gradiente_sem_nome_66"/><radialGradient id="Gradiente_sem_nome_34-5" cx="443.84" cy="97.81" r="3.6" xlink:href="#Gradiente_sem_nome_34"/><radialGradient id="Gradiente_sem_nome_46-5" cx="473.1" cy="97.81" r="3.6" xlink:href="#Gradiente_sem_nome_46"/><linearGradient id="Gradiente_sem_nome_66-33" x1="447.38" y1="75.13" x2="447.38" y2="82.33" xlink:href="#Gradiente_sem_nome_66"/><linearGradient id="Gradiente_sem_nome_66-34" x1="450.55" y1="75.13" x2="450.55" y2="82.33" xlink:href="#Gradiente_sem_nome_66"/><linearGradient id="Gradiente_sem_nome_66-35" x1="453.72" y1="75.13" x2="453.72" y2="82.33" xlink:href="#Gradiente_sem_nome_66"/><linearGradient id="Gradiente_sem_nome_66-36" x1="456.88" y1="75.13" x2="456.88" y2="82.33" xlink:href="#Gradiente_sem_nome_66"/><linearGradient id="Gradiente_sem_nome_66-37" x1="460.05" y1="75.13" x2="460.05" y2="82.33" xlink:href="#Gradiente_sem_nome_66"/><linearGradient id="Gradiente_sem_nome_66-38" x1="463.22" y1="75.13" x2="463.22" y2="82.33" xlink:href="#Gradiente_sem_nome_66"/><linearGradient id="Gradiente_sem_nome_66-39" x1="466.39" y1="75.13" x2="466.39" y2="82.33" xlink:href="#Gradiente_sem_nome_66"/><linearGradient id="Gradiente_sem_nome_66-40" x1="469.56" y1="75.13" x2="469.56" y2="82.33" xlink:href="#Gradiente_sem_nome_66"/><radialGradient id="Gradiente_sem_nome_34-6" cx="494.15" cy="97.81" r="3.6" xlink:href="#Gradiente_sem_nome_34"/><radialGradient id="Gradiente_sem_nome_46-6" cx="523.41" cy="97.81" r="3.6" xlink:href="#Gradiente_sem_nome_46"/><linearGradient id="Gradiente_sem_nome_66-41" x1="497.68" y1="75.13" x2="497.68" y2="82.33" xlink:href="#Gradiente_sem_nome_66"/><linearGradient id="Gradiente_sem_nome_66-42" x1="500.85" y1="75.13" x2="500.85" y2="82.33" xlink:href="#Gradiente_sem_nome_66"/><linearGradient id="Gradiente_sem_nome_66-43" x1="504.02" y1="75.13" x2="504.02" y2="82.33" xlink:href="#Gradiente_sem_nome_66"/><linearGradient id="Gradiente_sem_nome_66-44" x1="507.19" y1="75.13" x2="507.19" y2="82.33" xlink:href="#Gradiente_sem_nome_66"/><linearGradient id="Gradiente_sem_nome_66-45" x1="510.36" y1="75.13" x2="510.36" y2="82.33" xlink:href="#Gradiente_sem_nome_66"/><linearGradient id="Gradiente_sem_nome_66-46" x1="513.53" y1="75.13" x2="513.53" y2="82.33" xlink:href="#Gradiente_sem_nome_66"/><linearGradient id="Gradiente_sem_nome_66-47" x1="516.7" y1="75.13" x2="516.7" y2="82.33" xlink:href="#Gradiente_sem_nome_66"/><linearGradient id="Gradiente_sem_nome_66-48" x1="519.86" y1="75.13" x2="519.86" y2="82.33" xlink:href="#Gradiente_sem_nome_66"/><radialGradient id="Gradiente_sem_nome_34-7" cx="544.45" cy="97.81" r="3.6" xlink:href="#Gradiente_sem_nome_34"/><radialGradient id="Gradiente_sem_nome_46-7" cx="573.71" cy="97.81" r="3.6" xlink:href="#Gradiente_sem_nome_46"/><linearGradient id="Gradiente_sem_nome_66-49" x1="547.99" y1="75.13" x2="547.99" y2="82.33" xlink:href="#Gradiente_sem_nome_66"/><linearGradient id="Gradiente_sem_nome_66-50" x1="551.15" y1="75.13" x2="551.15" y2="82.33" xlink:href="#Gradiente_sem_nome_66"/><linearGradient id="Gradiente_sem_nome_66-51" x1="554.32" y1="75.13" x2="554.32" y2="82.33" xlink:href="#Gradiente_sem_nome_66"/><linearGradient id="Gradiente_sem_nome_66-52" x1="557.49" y1="75.13" x2="557.49" y2="82.33" xlink:href="#Gradiente_sem_nome_66"/><linearGradient id="Gradiente_sem_nome_66-53" x1="560.66" y1="75.13" x2="560.66" y2="82.33" xlink:href="#Gradiente_sem_nome_66"/><linearGradient id="Gradiente_sem_nome_66-54" x1="563.83" y1="75.13" x2="563.83" y2="82.33" xlink:href="#Gradiente_sem_nome_66"/><linearGradient id="Gradiente_sem_nome_66-55" x1="567" y1="75.13" x2="567" y2="82.33" xlink:href="#Gradiente_sem_nome_66"/><linearGradient id="Gradiente_sem_nome_66-56" x1="570.17" y1="75.13" x2="570.17" y2="82.33" xlink:href="#Gradiente_sem_nome_66"/><radialGradient id="Gradiente_sem_nome_34-8" cx="594.76" cy="97.81" r="3.6" xlink:href="#Gradiente_sem_nome_34"/><radialGradient id="Gradiente_sem_nome_46-8" cx="624.01" cy="97.81" r="3.6" xlink:href="#Gradiente_sem_nome_46"/><linearGradient id="Gradiente_sem_nome_66-57" x1="598.29" y1="75.13" x2="598.29" y2="82.33" xlink:href="#Gradiente_sem_nome_66"/><linearGradient id="Gradiente_sem_nome_66-58" x1="601.46" y1="75.13" x2="601.46" y2="82.33" xlink:href="#Gradiente_sem_nome_66"/><linearGradient id="Gradiente_sem_nome_66-59" x1="604.63" y1="75.13" x2="604.63" y2="82.33" xlink:href="#Gradiente_sem_nome_66"/><linearGradient id="Gradiente_sem_nome_66-60" x1="607.8" y1="75.13" x2="607.8" y2="82.33" xlink:href="#Gradiente_sem_nome_66"/><linearGradient id="Gradiente_sem_nome_66-61" x1="610.97" y1="75.13" x2="610.97" y2="82.33" xlink:href="#Gradiente_sem_nome_66"/><linearGradient id="Gradiente_sem_nome_66-62" x1="614.13" y1="75.13" x2="614.13" y2="82.33" xlink:href="#Gradiente_sem_nome_66"/><linearGradient id="Gradiente_sem_nome_66-63" x1="617.3" y1="75.13" x2="617.3" y2="82.33" xlink:href="#Gradiente_sem_nome_66"/><linearGradient id="Gradiente_sem_nome_66-64" x1="620.47" y1="75.13" x2="620.47" y2="82.33" xlink:href="#Gradiente_sem_nome_66"/><radialGradient id="Gradiente_sem_nome_185" cx="760.5" cy="96.02" r="4.81" gradientUnits="userSpaceOnUse"><stop offset="0" stop-color="aqua"/><stop offset="1" stop-color="#0070ff"/></radialGradient><radialGradient id="Gradiente_sem_nome_46-9" cx="760.5" cy="81.01" r="4.81" xlink:href="#Gradiente_sem_nome_46"/><radialGradient id="Gradiente_sem_nome_46-10" cx="226.07" cy="97.39" r="5.4" xlink:href="#Gradiente_sem_nome_46"/><radialGradient id="Gradiente_sem_nome_30" cx="647.02" cy="98.8" r="3.86" gradientUnits="userSpaceOnUse"><stop offset="0"/><stop offset="1" stop-color="#333"/></radialGradient><linearGradient id="linear-gradient" x1="1069.21" y1="44.73" x2="1069.21" y2="26.69" gradientUnits="userSpaceOnUse"><stop offset="0" stop-color="#fff"/><stop offset="1" stop-color="#c9c9c9"/></linearGradient><linearGradient id="linear-gradient-2" x1="1069.21" y1="100.76" x2="1069.21" y2="82.72" xlink:href="#linear-gradient"/></defs><path class="cls-1" d="M0,0V125.19H1368V0ZM36.45,117.31H19a8.13,8.13,0,1,1,0-16.25H36.45a8.13,8.13,0,0,1,0,16.25Zm0-91.94H19A8.13,8.13,0,1,1,19,9.12H36.45a8.13,8.13,0,0,1,0,16.25Zm1313.77,91.94H1332.8a8.13,8.13,0,1,1,0-16.25h17.42a8.13,8.13,0,0,1,0,16.25Zm0-91.94H1332.8a8.13,8.13,0,1,1,0-16.25h17.42a8.13,8.13,0,0,1,0,16.25Z"/><rect class="cls-2" x="52.65" width="1.68" height="125.19"/><rect class="cls-3" x="48.9" width="2.75" height="125.19"/><rect class="cls-4" x="54.72" width="0.9" height="125.19"/><rect class="cls-2" x="827.34" width="1.68" height="125.19"/><rect class="cls-3" x="830.03" width="2.75" height="125.19"/><rect class="cls-4" x="826.05" width="0.9" height="125.19"/><rect x="772.57" y="96.24" width="23.56" height="8.52" rx="2"/><path class="cls-5" d="M776.58,96.92h15.54a1.09,1.09,0,0,1,0,.18c0,1.35,0,2.7,0,4.06a.52.52,0,0,1-.12.31c-.77.84-1.54,1.68-2.31,2.5a.39.39,0,0,1-.28.11H779.26a.35.35,0,0,1-.24-.1c-.78-.83-1.56-1.67-2.33-2.51a.43.43,0,0,1-.11-.26c0-1.4,0-2.79,0-4.19C776.57,97,776.58,97,776.58,96.92Zm7.77,1.18c-2.13,0-4.25,0-6.38,0-.16,0-.21,0-.21.21,0,.79,0,1.58,0,2.37a.45.45,0,0,0,.1.28q.84.93,1.68,1.83a.33.33,0,0,0,.23.1q4.58,0,9.15,0a.32.32,0,0,0,.22-.1q.86-.9,1.68-1.83a.46.46,0,0,0,.11-.28c0-.78,0-1.57,0-2.36,0-.18-.05-.22-.23-.22C788.6,98.11,786.48,98.1,784.35,98.1Z"/><path class="cls-6" d="M784.35,98.1c2.13,0,4.25,0,6.37,0,.18,0,.23,0,.23.22,0,.79,0,1.58,0,2.36a.46.46,0,0,1-.11.28q-.83.93-1.68,1.83a.32.32,0,0,1-.22.1q-4.57,0-9.15,0a.33.33,0,0,1-.23-.1q-.84-.9-1.68-1.83a.45.45,0,0,1-.1-.28c0-.79,0-1.58,0-2.37,0-.17,0-.21.21-.21C780.1,98.11,782.22,98.1,784.35,98.1Zm-.6,2.38H785v-.57h.6v.58h1.2v-.58h.59v.57h1.2V99.9h1.18V98.72H779V99.9h1.2v.59h1.19v-.58h.6v.58h1.2v-.58h.59Z"/><path class="cls-5" d="M783.75,100.48v-.57h-.59v.58H782v-.58h-.6v.58h-1.19V99.9H779V98.72h10.76V99.9h-1.18v.58h-1.2v-.57h-.59v.58h-1.2v-.58H785v.57Z"/><rect class="cls-7" x="780.17" y="99.91" width="1.19" height="0.58"/><rect class="cls-7" x="781.97" y="99.91" width="1.19" height="0.58"/><rect class="cls-7" x="783.77" y="99.91" width="1.19" height="0.58"/><rect class="cls-7" x="785.56" y="99.91" width="1.19" height="0.58"/><rect class="cls-7" x="787.36" y="99.91" width="1.19" height="0.58"/><path id="path1334" d="M791.07,113.6l-1.35-.85v.61h-6.9l1.34-1.54a.68.68,0,0,1,.42-.17h1.13a.68.68,0,0,0,.63.49.74.74,0,0,0,0-1.47.68.68,0,0,0-.63.49H784.6a1.2,1.2,0,0,0-.82.39h0l-1.43,1.63a.7.7,0,0,1-.42.18h-.78a1.14,1.14,0,0,0-1.1-1,1.22,1.22,0,0,0,0,2.44,1.14,1.14,0,0,0,1.1-1h2.47a.68.68,0,0,1,.42.17l1.42,1.63h0a1.23,1.23,0,0,0,.82.39h1.08v.49h1.34v-1.46h-1.34v.49h-1.09a.66.66,0,0,1-.42-.17l-1.34-1.54h5.21v.6Z"/><rect class="cls-8" x="172.54" y="77.49" width="41.99" height="29.25"/><path class="cls-9" d="M213.94,105.88h-40.8V78.11h40.8Zm-39.8-1h38.8V79.11h-38.8Z"/><rect class="cls-8" x="185.74" y="103.87" width="15.59" height="2.25"/><rect class="cls-9" x="186.94" y="103.65" width="13.2" height="1.8"/><path class="cls-10" d="M591,60h-4.74a2.52,2.52,0,0,0-2.52,2.52v2h-.75v-2a3.28,3.28,0,0,1,3.27-3.27H591Zm34.21-.75V60H630a2.52,2.52,0,0,1,2.52,2.52v2h.75v-2A3.28,3.28,0,0,0,630,59.22Z"/><rect x="234.26" y="64.86" width="398.28" height="40.81"/><path d="M138.18,15,134,18.4c.78,1.67,1.53,3.28,2.34,5h-3.87c-.42-1-.85-1.95-1.29-3-1.39.51-.94,2-1.53,3h-3.51c.91-3.9,1.81-7.7,2.72-11.56h3.59c-.41,1.8-.8,3.55-1.24,5.49,1.09-.84,1.95-1.87,3-2.23S136.59,15,138.18,15Z"/><path d="M71.32,23.4H70.17L73,11.83h1.77c.66,3.4,1.33,6.79,2,10.48l7.28-10.47h1.77C85,15.72,84,19.53,83.09,23.39H81.92l2.57-10-.18-.11C82,16.6,79.63,20,77.26,23.38H76c-.69-3.46-1.38-6.89-2.06-10.32h-.21C73,16.48,72.14,19.89,71.32,23.4Z"/><path d="M122.61,11.85c-.26,1.08-.49,2.06-.73,3.1H110.59c.24-1.07.47-2,.71-3.1Z"/><path d="M116.23,23.4h-4c.54-2.27,1.06-4.5,1.58-6.73h4C117.29,18.94,116.77,21.13,116.23,23.4Z"/><path d="M106.85,14.85c3.16-.13,4.74,2.45,3.4,5.57a5.14,5.14,0,0,1-6.69,2.92,3.44,3.44,0,0,1-1.87-3.59A5.18,5.18,0,0,1,106.85,14.85Zm-1.22,7.89c2.18.06,3.89-1.85,3.94-4.42a2.56,2.56,0,0,0-2.75-2.72,4.3,4.3,0,0,0-4,4.4C102.73,21.79,103.67,22.69,105.63,22.74Z"/><path d="M121,23.39l1.57-6.72h3.6l-1.56,6.72Z"/><path d="M89.13,23.39H88c.67-2.78,1.33-5.49,2-8.26H91c-.3,1.28-.58,2.49-.88,3.82,2.42-1,4-3.49,6.53-4l.18.32-4.09,3,2.78,5.1H94.39c-.84-1.49-1.67-3-2.49-4.44C90,19.7,89.32,21.35,89.13,23.39Z"/><path d="M98,15.12h.94c-.09.54-.16,1-.3,1.9a3.79,3.79,0,0,1,3.91-2c0,.32-.07.6-.11.92-.21,0-.39.08-.58.09-2.13.12-3.25,1.1-3.77,3.3-.32,1.34-.65,2.67-1,4.09L96,23.44C96.64,20.61,97.3,17.9,98,15.12Z"/><path d="M126.56,15H123c.25-1.06.47-2,.71-3.1h3.59C127,12.91,126.8,13.92,126.56,15Z"/><path d="M86.21,23.4H85.1l2-8.28h1.1Z"/><path d="M93.08,13.49a4.56,4.56,0,0,1-4.58-1.07,5.19,5.19,0,0,1-1.49-5C87.75,10.87,89.6,13.07,93.08,13.49Z"/><path d="M93.19,11.73A4,4,0,0,1,88.65,7a13.42,13.42,0,0,0,1.73,3A12.35,12.35,0,0,0,93.19,11.73Z"/><path class="cls-11" d="M693.09,14.64H687.7a3.92,3.92,0,0,1-1.55-.22.89.89,0,0,1-.43-.88,4.3,4.3,0,0,1,.11-.87L687,7.31a3.76,3.76,0,0,1,.32-1,1.49,1.49,0,0,1,.5-.6,2,2,0,0,1,.77-.28,7.07,7.07,0,0,1,1.12-.08h5.4L694.72,7h-4.66a4.58,4.58,0,0,0-.59,0,.76.76,0,0,0-.34.14.68.68,0,0,0-.21.3,5,5,0,0,0-.13.5L688,12a4.21,4.21,0,0,0-.08.53.34.34,0,0,0,.19.36,2.28,2.28,0,0,0,.74.08h4.65Z"/><path class="cls-11" d="M696.11,14.64h-2l2-9.28h2Z"/><path class="cls-11" d="M705.4,12.67a4.34,4.34,0,0,1-.31,1,1.58,1.58,0,0,1-.48.59,1.61,1.61,0,0,1-.77.29,7.29,7.29,0,0,1-1.15.08h-3.06a3.86,3.86,0,0,1-1.54-.22.89.89,0,0,1-.43-.88,4.3,4.3,0,0,1,.11-.87l.64-3a5.57,5.57,0,0,1,.33-1,1.54,1.54,0,0,1,.48-.6,1.8,1.8,0,0,1,.76-.28,7.16,7.16,0,0,1,1.13-.07h3a8.43,8.43,0,0,1,1,0,2,2,0,0,1,.62.18.64.64,0,0,1,.31.34,1.38,1.38,0,0,1,.09.52,3.9,3.9,0,0,1-.12.88ZM703.59,12l.35-1.68a4,4,0,0,0,.08-.53.34.34,0,0,0-.18-.35,2.13,2.13,0,0,0-.75-.08h-1.58a4.36,4.36,0,0,0-.55,0,.8.8,0,0,0-.35.12.59.59,0,0,0-.22.29,4.07,4.07,0,0,0-.15.53L699.89,12a4.21,4.21,0,0,0-.08.53.34.34,0,0,0,.19.36,2.28,2.28,0,0,0,.74.08h1.58a4.4,4.4,0,0,0,.58,0,.7.7,0,0,0,.35-.14.79.79,0,0,0,.2-.29A3.46,3.46,0,0,0,703.59,12Z"/><path class="cls-11" d="M713.87,14.62h-2l.18-.85a1.71,1.71,0,0,1-1.48.85h-2.07a8.5,8.5,0,0,1-1,0,1.57,1.57,0,0,1-.61-.18.73.73,0,0,1-.32-.33,1.28,1.28,0,0,1-.09-.52,3,3,0,0,1,0-.4c0-.14.05-.3.09-.49l1.05-5h2L708.74,12a3.05,3.05,0,0,0-.06.52.36.36,0,0,0,.18.36,2.06,2.06,0,0,0,.75.09h1.58a3.25,3.25,0,0,0,.6,0,.76.76,0,0,0,.34-.15.63.63,0,0,0,.2-.29c0-.12.08-.28.13-.49l.91-4.34h2Z"/><path class="cls-11" d="M722.53,14.64h-5.08a8.06,8.06,0,0,1-.94-.05,1.85,1.85,0,0,1-.61-.17.78.78,0,0,1-.34-.33,1.23,1.23,0,0,1-.1-.55,4.3,4.3,0,0,1,.11-.87l.65-3a4.94,4.94,0,0,1,.32-1A1.56,1.56,0,0,1,717,8a1.76,1.76,0,0,1,.75-.28,7.25,7.25,0,0,1,1.13-.07h2.43L721,9.35h-1.67a4.53,4.53,0,0,0-.56,0,.85.85,0,0,0-.35.12.66.66,0,0,0-.22.29,3,3,0,0,0-.14.53L717.69,12a4.21,4.21,0,0,0-.08.53.34.34,0,0,0,.19.36,2.31,2.31,0,0,0,.75.08h2.37l1.61-7.62h2Z"/><path class="cls-11" d="M736.15,14.64h-5.39a3.92,3.92,0,0,1-1.55-.22.89.89,0,0,1-.43-.88,4.3,4.3,0,0,1,.11-.87L730,7.31a3.76,3.76,0,0,1,.32-1,1.58,1.58,0,0,1,.5-.6,2,2,0,0,1,.78-.28,6.84,6.84,0,0,1,1.11-.08h5.4L737.78,7h-4.66a4.58,4.58,0,0,0-.59,0,.76.76,0,0,0-.34.14.59.59,0,0,0-.2.3,3.13,3.13,0,0,0-.14.5L731,12a4.21,4.21,0,0,0-.08.53.34.34,0,0,0,.19.36,2.28,2.28,0,0,0,.74.08h4.65Z"/><path class="cls-11" d="M745.22,12.67a4.3,4.3,0,0,1-.32,1,1.49,1.49,0,0,1-.48.59,1.57,1.57,0,0,1-.76.29,7.43,7.43,0,0,1-1.16.08h-3a3.86,3.86,0,0,1-1.54-.22.9.9,0,0,1-.44-.88,4.3,4.3,0,0,1,.11-.87l.65-3a4.36,4.36,0,0,1,.33-1A1.46,1.46,0,0,1,739,8a1.81,1.81,0,0,1,.75-.28,7.39,7.39,0,0,1,1.14-.07H744a8.56,8.56,0,0,1,1,0,1.93,1.93,0,0,1,.61.18.64.64,0,0,1,.31.34,1.38,1.38,0,0,1,.09.52,4.48,4.48,0,0,1-.11.88ZM743.4,12l.35-1.68a3.1,3.1,0,0,0,.09-.53.34.34,0,0,0-.19-.35,2.06,2.06,0,0,0-.75-.08h-1.57a4.53,4.53,0,0,0-.56,0,.85.85,0,0,0-.35.12.74.74,0,0,0-.22.29,3,3,0,0,0-.14.53L739.71,12a2.86,2.86,0,0,0-.08.53.35.35,0,0,0,.18.36,2.31,2.31,0,0,0,.75.08h1.57a4.58,4.58,0,0,0,.59,0,.66.66,0,0,0,.34-.14.61.61,0,0,0,.2-.29A2.54,2.54,0,0,0,743.4,12Z"/><path class="cls-11" d="M752.32,9.35H750a4.4,4.4,0,0,0-.58,0,.69.69,0,0,0-.35.13.75.75,0,0,0-.2.3,3.24,3.24,0,0,0-.13.5l-.92,4.33h-2l1.48-7h2l-.18.87a1.68,1.68,0,0,1,1.48-.87h2.07Z"/><path class="cls-11" d="M760.26,12h-4.6l.35-1.68h2.69c.06-.3.09-.46.09-.5,0-.32-.25-.48-.77-.48h-1.57a4,4,0,0,0-.54,0,.7.7,0,0,0-.35.14.8.8,0,0,0-.23.3,2.24,2.24,0,0,0-.15.51L754.82,12a3.05,3.05,0,0,0-.06.52.35.35,0,0,0,.19.36,2,2,0,0,0,.74.09h4l-.35,1.66h-4.81a8.44,8.44,0,0,1-1,0,1.52,1.52,0,0,1-.61-.18.68.68,0,0,1-.32-.33,1.12,1.12,0,0,1-.1-.52,3,3,0,0,1,0-.4l.1-.49.63-3a2.4,2.4,0,0,1,.86-1.53,3.1,3.1,0,0,1,1.85-.46h2.83a3.65,3.65,0,0,1,1.54.23.89.89,0,0,1,.44.87,4.06,4.06,0,0,1-.12.89Z"/><path class="cls-11" d="M773.11,14.64h-2l.5-2.36c0-.12,0-.22.05-.31a.88.88,0,0,0,0-.2.36.36,0,0,0-.19-.37,2,2,0,0,0-.74-.09h-2.51l-.71,3.33h-2L767,8h2l-.36,1.65h2.51a4.11,4.11,0,0,0,.55,0,.64.64,0,0,0,.36-.12.59.59,0,0,0,.21-.29c0-.13.09-.31.15-.53l.14-.68c0-.12,0-.22.06-.31a.82.82,0,0,0,0-.21.36.36,0,0,0-.19-.37A2.4,2.4,0,0,0,771.7,7h-4.49l.36-1.66h5.22a6.37,6.37,0,0,1,1,.06,1.78,1.78,0,0,1,.62.17.66.66,0,0,1,.32.34,1.26,1.26,0,0,1,.09.51,4.66,4.66,0,0,1-.11.89l-.44,2c-.16.75-.48,1.12-1,1.12a.69.69,0,0,1,.53.76,1.89,1.89,0,0,1,0,.39Z"/><path class="cls-11" d="M782.64,12.67a4.3,4.3,0,0,1-.32,1,1.49,1.49,0,0,1-.48.59,1.57,1.57,0,0,1-.76.29,7.43,7.43,0,0,1-1.16.08h-3a3.86,3.86,0,0,1-1.54-.22.9.9,0,0,1-.44-.88,3.75,3.75,0,0,1,.12-.87l.64-3a4.36,4.36,0,0,1,.33-1,1.46,1.46,0,0,1,.48-.6,1.81,1.81,0,0,1,.75-.28,7.39,7.39,0,0,1,1.14-.07h3a8.56,8.56,0,0,1,1,0,1.93,1.93,0,0,1,.61.18.61.61,0,0,1,.31.34,1.38,1.38,0,0,1,.09.52,4.48,4.48,0,0,1-.11.88ZM780.82,12l.36-1.68a4,4,0,0,0,.08-.53.34.34,0,0,0-.19-.35,2.06,2.06,0,0,0-.75-.08h-1.57a4.53,4.53,0,0,0-.56,0,.85.85,0,0,0-.35.12.74.74,0,0,0-.22.29,3,3,0,0,0-.14.53L777.13,12a2.86,2.86,0,0,0-.08.53.35.35,0,0,0,.18.36A2.31,2.31,0,0,0,778,13h1.57a4.58,4.58,0,0,0,.59,0,.66.66,0,0,0,.34-.14.7.7,0,0,0,.21-.29A3.67,3.67,0,0,0,780.82,12Z"/><path class="cls-11" d="M791.1,14.62h-2l.18-.85a1.71,1.71,0,0,1-1.48.85h-2.08a8.44,8.44,0,0,1-1,0,1.52,1.52,0,0,1-.61-.18.68.68,0,0,1-.32-.33,1.12,1.12,0,0,1-.1-.52,3,3,0,0,1,0-.4l.1-.49,1-5h2L786,12a3.27,3.27,0,0,0-.07.52.37.37,0,0,0,.19.36,2,2,0,0,0,.75.09h1.57a3.12,3.12,0,0,0,.6,0,.81.81,0,0,0,.35-.15.61.61,0,0,0,.19-.29,3.65,3.65,0,0,0,.13-.49l.92-4.34h2Z"/><path class="cls-11" d="M796.37,14.64h-1.59a3.9,3.9,0,0,1-1.54-.22.89.89,0,0,1-.43-.88,4.3,4.3,0,0,1,.11-.87l1.54-7.31h2l-.5,2.31h1.91l-.37,1.68H795.6L795,12a4.21,4.21,0,0,0-.08.53.34.34,0,0,0,.19.36,2.28,2.28,0,0,0,.74.08h.84Z"/><path class="cls-11" d="M805.58,12H801l.35-1.68H804a4.15,4.15,0,0,0,.1-.5c0-.32-.26-.48-.77-.48h-1.58a3.89,3.89,0,0,0-.53,0,.74.74,0,0,0-.36.14.78.78,0,0,0-.22.3,2.82,2.82,0,0,0-.16.51L800.15,12a3.05,3.05,0,0,0-.06.52.36.36,0,0,0,.18.36A2,2,0,0,0,801,13h4.05l-.36,1.66h-4.8a8.18,8.18,0,0,1-1,0,1.52,1.52,0,0,1-.61-.18.7.7,0,0,1-.33-.33,1.28,1.28,0,0,1-.09-.52,3,3,0,0,1,0-.4,4.27,4.27,0,0,1,.1-.49l.62-3a2.44,2.44,0,0,1,.86-1.53,3.13,3.13,0,0,1,1.86-.46h2.83a3.68,3.68,0,0,1,1.54.23.88.88,0,0,1,.43.87,4.66,4.66,0,0,1-.11.89Z"/><path class="cls-11" d="M812.49,9.35h-2.31a4.58,4.58,0,0,0-.59,0,.73.73,0,0,0-.35.13.75.75,0,0,0-.2.3,5,5,0,0,0-.13.5L808,14.64h-2l1.47-7h2l-.18.87a1.68,1.68,0,0,1,1.48-.87h2.07Z"/><path class="cls-11" d="M768.48,33.54h-.68v1.67h-.58V31.09h1.2c.77,0,1.3.3,1.3,1.21A1.1,1.1,0,0,1,768.48,33.54Zm-.07-2h-.61v1.47h.64c.41,0,.68-.17.68-.75S768.81,31.58,768.41,31.58Z"/><path class="cls-11" d="M772.74,35.21l-.37-1.16h-1.45l-.39,1.16h-.61l1.53-4.12H772l1.42,4.12Zm-1.07-3.38-.58,1.74h1.13Z"/><path class="cls-11" d="M775,35.33a4.37,4.37,0,0,1-1.07-.19l.18-.55a2.38,2.38,0,0,0,.89.25c.46,0,.89-.14.89-.68s-.41-.63-.87-.81-1.09-.45-1.09-1.22S774.6,31,775.29,31a3.2,3.2,0,0,1,1,.17l-.18.54a1.68,1.68,0,0,0-.79-.22c-.54,0-.76.25-.76.62s.34.5.73.65c.56.22,1.24.45,1.24,1.36S775.79,35.33,775,35.33Z"/><path class="cls-11" d="M778.33,35.33a4.46,4.46,0,0,1-1.07-.19l.19-.55a2.33,2.33,0,0,0,.89.25c.46,0,.89-.14.89-.68s-.42-.63-.88-.81-1.09-.45-1.09-1.22.66-1.11,1.36-1.11a3.31,3.31,0,0,1,1,.17l-.19.54a1.65,1.65,0,0,0-.79-.22c-.54,0-.76.25-.76.62s.34.5.73.65c.56.22,1.24.45,1.24,1.36S779.11,35.33,778.33,35.33Z"/><path class="cls-11" d="M780.69,35.21V31.09h.58v4.12Z"/><path class="cls-11" d="M783.87,35.21h-.52l-1.42-4.12h.64l1,3.31,1-3.31h.61Z"/><path class="cls-11" d="M786,35.21V31.09h2.15v.49h-1.57v1.26H788v.49h-1.45v1.39h1.62v.49Z"/><path class="cls-11" d="M792.15,35.33c-1.21,0-1.65-.9-1.65-2.17s.4-2.14,1.68-2.14a3,3,0,0,1,1,.16l-.19.54a1.7,1.7,0,0,0-.77-.21c-.82,0-1.08.69-1.08,1.64s.26,1.69,1,1.69a1.93,1.93,0,0,0,.84-.25l.19.55A2.82,2.82,0,0,1,792.15,35.33Z"/><path class="cls-11" d="M795.45,35.33c-1.3,0-1.7-.93-1.7-2.16s.45-2.15,1.7-2.15,1.68.9,1.68,2.15S796.7,35.33,795.45,35.33Zm0-3.82c-.79,0-1.1.57-1.1,1.66s.3,1.67,1.1,1.67,1.08-.63,1.08-1.67S796.23,31.51,795.45,31.51Z"/><path class="cls-11" d="M799.53,35.33c-1.3,0-1.7-.93-1.7-2.16s.45-2.15,1.71-2.15,1.67.9,1.67,2.15S800.78,35.33,799.53,35.33Zm0-3.82c-.79,0-1.1.57-1.1,1.66s.31,1.67,1.1,1.67,1.08-.63,1.08-1.67S800.32,31.51,799.53,31.51Z"/><path class="cls-11" d="M802.12,35.21V31.09h.58V34.7h1.64v.51Z"/><path class="cls-11" d="M804.87,35.21V31.09h.58v4.12Z"/><path class="cls-11" d="M808.6,35.21,807,31.85v3.36h-.54V31.09h.85l1.54,3.37V31.09h.57v4.12Z"/><path class="cls-11" d="M812,35.33c-1.32,0-1.65-1.07-1.65-2.18,0-1.27.48-2.13,1.71-2.13a3.55,3.55,0,0,1,.9.16l-.18.54a1.67,1.67,0,0,0-.72-.21c-.71,0-1.11.44-1.11,1.64,0,1,.22,1.69,1.07,1.69a1.27,1.27,0,0,0,.68-.21V33.58h-.84v-.49h1.35V35A2,2,0,0,1,812,35.33Z"/><path class="cls-11" d="M595.54,59.54h-.72v1.68h-.61V57.1h1.27c.8,0,1.36.3,1.36,1.2S596.34,59.54,595.54,59.54Zm-.07-1.95h-.65v1.46h.68c.43,0,.72-.16.72-.75S595.89,57.59,595.47,57.59Z"/><path class="cls-11" d="M599.31,61.33c-1.37,0-1.78-.93-1.78-2.16S598,57,599.31,57s1.76.9,1.76,2.15S600.62,61.33,599.31,61.33Zm0-3.82c-.83,0-1.16.58-1.16,1.66s.32,1.67,1.16,1.67,1.13-.63,1.13-1.67S600.13,57.51,599.31,57.51Z"/><path class="cls-11" d="M602,61.22V57.1h2.26v.49h-1.65v1.25h1.53v.49h-1.53v1.4h1.71v.49Z"/><path class="cls-11" d="M605.29,61.29h-.48l1.3-4.25h.48Z"/><path class="cls-11" d="M608.57,61.22h-1.44V57.1h1.24c.76,0,1.33.22,1.33,1.11a.88.88,0,0,1-.63.85.91.91,0,0,1,.81,1C609.88,61,609.28,61.22,608.57,61.22Zm-.2-3.63h-.63v1.27h.71a.59.59,0,0,0,.63-.65C609.08,57.79,608.88,57.59,608.37,57.59Zm.1,1.75h-.73v1.39h.79c.41,0,.72-.13.72-.7S608.9,59.34,608.47,59.34Z"/><path class="cls-11" d="M612.38,61.33c-1.37,0-1.79-.93-1.79-2.16s.48-2.15,1.79-2.15,1.76.9,1.76,2.15S613.69,61.33,612.38,61.33Zm0-3.82c-.83,0-1.16.58-1.16,1.66s.32,1.67,1.16,1.67,1.13-.63,1.13-1.67S613.2,57.51,612.38,57.51Z"/><path class="cls-11" d="M616.67,61.33c-1.37,0-1.79-.93-1.79-2.16s.47-2.15,1.79-2.15,1.76.9,1.76,2.15S618,61.33,616.67,61.33Zm0-3.82c-.83,0-1.16.58-1.16,1.66s.32,1.67,1.16,1.67,1.13-.63,1.13-1.67S617.49,57.51,616.67,57.51Z"/><path class="cls-11" d="M620.68,57.6v3.62h-.6V57.6H619v-.5h2.86v.5Z"/><path class="cls-11" d="M641.87,115.44l-1.25-1.78h-.29v1.78h-.61v-4.12h1.35c.63,0,1.3.23,1.3,1.15a1.06,1.06,0,0,1-1,1.17l1.29,1.8Zm-.76-3.63h-.78v1.36h.78c.46,0,.64-.3.64-.7A.59.59,0,0,0,641.11,111.81Z"/><path class="cls-11" d="M643.47,115.44v-4.12h2.26v.49h-1.65v1.26h1.52v.49h-1.52V115h1.7v.49Z"/><path class="cls-11" d="M647.82,115.55a4.38,4.38,0,0,1-1.13-.19l.2-.54a2.51,2.51,0,0,0,.93.24c.48,0,.94-.13.94-.68s-.44-.62-.92-.8-1.15-.46-1.15-1.23.7-1.1,1.42-1.1a3.25,3.25,0,0,1,1,.17l-.19.54a1.83,1.83,0,0,0-.83-.22c-.57,0-.79.25-.79.61s.35.51.76.66c.58.21,1.3.45,1.3,1.36S648.63,115.55,647.82,115.55Z"/><path class="cls-11" d="M650.37,115.44v-4.12h2.26v.49H651v1.26h1.52v.49H651V115h1.71v.49Z"/><path class="cls-11" d="M655.07,111.82v3.62h-.6v-3.62h-1.13v-.5h2.86v.5Z"/><path class="cls-11" d="M695.23,71c-1.27,0-1.74-.9-1.74-2.17s.42-2.14,1.77-2.14a3.27,3.27,0,0,1,1,.16l-.2.54a2,2,0,0,0-.8-.21c-.87,0-1.14.69-1.14,1.64s.27,1.69,1.1,1.69a2.28,2.28,0,0,0,.89-.24l.19.54A2.87,2.87,0,0,1,695.23,71Z"/><path class="cls-11" d="M698.69,71c-1.37,0-1.79-.93-1.79-2.16s.47-2.15,1.79-2.15,1.76.9,1.76,2.15S700,71,698.69,71Zm0-3.82c-.83,0-1.16.57-1.16,1.66s.32,1.67,1.16,1.67,1.13-.63,1.13-1.67S699.51,67.17,698.69,67.17Z"/><path class="cls-11" d="M703.61,70.87,702,67.51v3.36h-.57V66.76h.89l1.62,3.36V66.76h.59v4.11Z"/><path class="cls-11" d="M706.62,71a4.86,4.86,0,0,1-1.12-.19l.2-.54a2.72,2.72,0,0,0,.93.24c.48,0,.93-.13.93-.68s-.44-.63-.91-.81-1.15-.45-1.15-1.22.7-1.11,1.42-1.11a3.56,3.56,0,0,1,1,.17l-.19.54a1.83,1.83,0,0,0-.83-.22c-.57,0-.8.26-.8.62s.36.5.77.65c.58.22,1.3.46,1.3,1.37S707.44,71,706.62,71Z"/><path class="cls-11" d="M710.74,71c-1.36,0-1.78-.93-1.78-2.16s.47-2.15,1.79-2.15,1.76.9,1.76,2.15S712.05,71,710.74,71Zm0-3.82c-.83,0-1.15.57-1.15,1.66s.32,1.67,1.15,1.67,1.14-.63,1.14-1.67S711.57,67.17,710.74,67.17Z"/><path class="cls-11" d="M713.46,70.87V66.76h.61v3.61h1.72v.5Z"/><path class="cls-11" d="M716.42,70.87V66.76h2.27v.49H717V68.5h1.53V69H717v1.39h1.71v.49Z"/><path class="cls-11" d="M757.65,73.6c-1.11,0-1.59-.53-1.59-1.63v-2.6h.61V71.9c0,1,.37,1.21,1,1.21s.9-.31.9-1.21V69.37h.61V72C759.16,73.07,758.64,73.6,757.65,73.6Z"/><path class="cls-11" d="M761.27,73.6a4.38,4.38,0,0,1-1.12-.19l.2-.54a2.72,2.72,0,0,0,.93.24c.48,0,.93-.13.93-.68s-.44-.62-.91-.81-1.15-.45-1.15-1.22.7-1.11,1.42-1.11a3.28,3.28,0,0,1,1,.18l-.19.54a1.74,1.74,0,0,0-.83-.23c-.57,0-.8.26-.8.62s.36.5.77.66c.58.21,1.3.45,1.3,1.36S762.09,73.6,761.27,73.6Z"/><path class="cls-11" d="M766,73.49l-1.26-1.78h-.29v1.78h-.61V69.37h1.36c.63,0,1.3.23,1.3,1.15a1.07,1.07,0,0,1-1.05,1.17l1.29,1.8Zm-.77-3.63h-.78v1.36h.78c.47,0,.65-.3.65-.7A.59.59,0,0,0,765.21,69.86Z"/><path class="cls-11" d="M756.69,105.81H756v1.67h-.61v-4.11h1.26c.81,0,1.37.3,1.37,1.2S757.49,105.81,756.69,105.81Zm-.08-2H756v1.46h.67c.44,0,.72-.17.72-.75S757,103.86,756.61,103.86Z"/><path class="cls-11" d="M762.69,107.48H762l-.82-3.07-.93,3.07h-.74l-1-4.11h.65l.75,3.32.89-3.15h.74l.8,3.15.8-3.32h.58Z"/><path class="cls-11" d="M766.67,107.48l-1.25-1.77h-.29v1.77h-.61v-4.11h1.35c.63,0,1.3.23,1.3,1.14a1.07,1.07,0,0,1-1,1.18l1.29,1.79Zm-.77-3.62h-.77v1.36h.78c.46,0,.64-.31.64-.71A.59.59,0,0,0,765.9,103.86Z"/><path class="cls-11" d="M603,115.75v-4.12h2.27v.49h-1.66v1.26h1.53v.49h-1.53v1.39h1.71v.49Z"/><path class="cls-11" d="M607.74,112.13v3.62h-.61v-3.62H606v-.5h2.87v.5Z"/><path class="cls-11" d="M611.91,115.75v-1.88h-1.7v1.88h-.61v-4.12h.61v1.75h1.7v-1.75h.61v4.12Z"/><path class="cls-11" d="M614.49,115.75h-.66l1.47-3.38h-1.91v-.48h2.26l.19.43Z"/><path class="cls-11" d="M553.21,115.75v-4.12h2.27v.49h-1.66v1.26h1.53v.49h-1.53v1.39h1.71v.49Z"/><path class="cls-11" d="M557.92,112.13v3.62h-.61v-3.62h-1.13v-.5H559v.5Z"/><path class="cls-11" d="M562.08,115.75v-1.88h-1.69v1.88h-.61v-4.12h.61v1.75h1.69v-1.75h.61v4.12Z"/><path class="cls-11" d="M564.89,115.85c-1.11,0-1.34-1-1.34-1.9s.45-2.15,1.55-2.15a3.51,3.51,0,0,1,.83.11l-.19.53a1.35,1.35,0,0,0-.61-.16c-.7,0-1,.68-1,1.47a1,1,0,0,1,.82-.56c.8,0,1.19.52,1.19,1.36A1.24,1.24,0,0,1,564.89,115.85Zm0-2.18a.75.75,0,0,0-.72.56c0,.92.27,1.14.72,1.14s.62-.28.62-.82S565.46,113.67,564.9,113.67Z"/><path class="cls-11" d="M502.91,115.75v-4.12h2.26v.49h-1.65v1.26H505v.49h-1.52v1.39h1.71v.49Z"/><path class="cls-11" d="M507.61,112.13v3.62H507v-3.62h-1.13v-.5h2.86v.5Z"/><path class="cls-11" d="M511.78,115.75v-1.88h-1.7v1.88h-.61v-4.12h.61v1.75h1.7v-1.75h.61v4.12Z"/><path class="cls-11" d="M514.39,115.85a3.39,3.39,0,0,1-1.11-.15l.19-.52a2.66,2.66,0,0,0,.93.19c.59,0,.8-.37.8-.86s-.27-.77-.63-.77a1.42,1.42,0,0,0-.76.26l-.41-.17v-1.94h2.25v.47H514v1a1.65,1.65,0,0,1,.61-.12,1.12,1.12,0,0,1,1.2,1.26A1.28,1.28,0,0,1,514.39,115.85Z"/><path class="cls-11" d="M451.72,115.75v-4.12H454v.49h-1.65v1.26h1.52v.49h-1.52v1.39H454v.49Z"/><path class="cls-11" d="M456.42,112.13v3.62h-.6v-3.62h-1.13v-.5h2.86v.5Z"/><path class="cls-11" d="M460.59,115.75v-1.88h-1.7v1.88h-.61v-4.12h.61v1.75h1.7v-1.75h.61v4.12Z"/><path class="cls-11" d="M464.2,114.71v1h-.6v-1h-1.47l-.21-.5,1.65-2.32h.63v2.33h.59v.49Zm-.6-2.17-1.19,1.68h1.19Z"/><path class="cls-11" d="M404.58,115.75v-4.12h2.27v.49h-1.66v1.26h1.53v.49h-1.53v1.39h1.71v.49Z"/><path class="cls-11" d="M409.29,112.13v3.62h-.61v-3.62h-1.13v-.5h2.86v.5Z"/><path class="cls-11" d="M413.45,115.75v-1.88h-1.69v1.88h-.61v-4.12h.61v1.75h1.69v-1.75h.61v4.12Z"/><path class="cls-11" d="M416,115.85a2.86,2.86,0,0,1-1.07-.16l.18-.53a2.25,2.25,0,0,0,.91.21.67.67,0,0,0,.76-.67c0-.65-.48-.75-1.17-.75v-.46c.66,0,1.08-.08,1.08-.64s-.26-.57-.62-.57a2.1,2.1,0,0,0-.89.28L415,112a2.87,2.87,0,0,1,1.08-.23c.77,0,1.22.33,1.22,1a.85.85,0,0,1-.83.87,1,1,0,0,1,.92,1C417.34,115.6,416.62,115.85,416,115.85Z"/><path class="cls-11" d="M354.28,115.75v-4.12h2.26v.49h-1.65v1.26h1.52v.49h-1.52v1.39h1.71v.49Z"/><path class="cls-11" d="M359,112.13v3.62h-.6v-3.62h-1.13v-.5h2.86v.5Z"/><path class="cls-11" d="M363.15,115.75v-1.88h-1.7v1.88h-.61v-4.12h.61v1.75h1.7v-1.75h.61v4.12Z"/><path class="cls-11" d="M364.78,115.75l-.17-.52c.57-.5,1.89-1.49,1.89-2.2s-.27-.75-.68-.75a1.93,1.93,0,0,0-.92.3l-.19-.53a2.6,2.6,0,0,1,1.12-.25c.68,0,1.29.29,1.29,1.2s-1.13,1.78-1.71,2.27h1.78v.48Z"/><path class="cls-11" d="M303.32,115.75v-4.12h2.26v.49h-1.65v1.26h1.52v.49h-1.52v1.39h1.7v.49Z"/><path class="cls-11" d="M308,112.13v3.62h-.6v-3.62h-1.13v-.5h2.86v.5Z"/><path class="cls-11" d="M312.19,115.75v-1.88h-1.7v1.88h-.61v-4.12h.61v1.75h1.7v-1.75h.61v4.12Z"/><path class="cls-11" d="M315,115.76v-3.24l-.7.61-.19-.48.92-.76h.58v3.87Z"/><path class="cls-11" d="M253.54,115.75v-4.12h2.27v.49h-1.66v1.26h1.53v.49h-1.53v1.39h1.71v.49Z"/><path class="cls-11" d="M258.25,112.13v3.62h-.61v-3.62h-1.12v-.5h2.86v.5Z"/><path class="cls-11" d="M262.42,115.75v-1.88h-1.7v1.88h-.61v-4.12h.61v1.75h1.7v-1.75H263v4.12Z"/><path class="cls-11" d="M192.3,115.55a4.31,4.31,0,0,1-1.12-.19l.19-.54a2.56,2.56,0,0,0,.94.24c.48,0,.93-.13.93-.68s-.44-.62-.91-.81-1.15-.45-1.15-1.22.69-1.1,1.42-1.1a3.25,3.25,0,0,1,1,.17l-.2.54a1.79,1.79,0,0,0-.83-.22c-.56,0-.79.25-.79.61s.35.51.76.66c.59.21,1.3.45,1.3,1.36S193.12,115.55,192.3,115.55Z"/><path class="cls-11" d="M195.46,111.82v1.27H197v.48h-1.58v1.87h-.61v-4.12h2.27v.5Z"/><path class="cls-11" d="M199.36,113.77h-.72v1.67H198v-4.12h1.26c.81,0,1.36.3,1.36,1.2A1.12,1.12,0,0,1,199.36,113.77Zm-.08-2h-.64v1.47h.67c.43,0,.72-.17.72-.76S199.7,111.81,199.28,111.81Z"/><path class="cls-11" d="M194,70.88V67.65l-.7.6-.19-.47L194,67h.59v3.87Z"/><path class="cls-11" d="M197.68,71c-1.39,0-1.74-1.06-1.74-2.18s.51-2.13,1.79-2.13a3.94,3.94,0,0,1,1,.16l-.19.54a1.79,1.79,0,0,0-.75-.21c-.75,0-1.17.45-1.17,1.64,0,1,.23,1.69,1.12,1.69a1.35,1.35,0,0,0,.71-.2v-1h-.87v-.49H199v1.87A2.31,2.31,0,0,1,197.68,71Z"/><path class="cls-11" d="M219,119.52c-1.27,0-1.73-.9-1.73-2.17s.42-2.14,1.76-2.14a3.27,3.27,0,0,1,1,.16l-.19.54a1.91,1.91,0,0,0-.81-.21c-.87,0-1.13.69-1.13,1.64S218.17,119,219,119a2.14,2.14,0,0,0,.89-.25l.19.55A3,3,0,0,1,219,119.52Z"/><path class="cls-11" d="M222.47,119.52c-1.37,0-1.78-.93-1.78-2.16s.47-2.15,1.79-2.15,1.75.9,1.75,2.15S223.78,119.52,222.47,119.52Zm0-3.82c-.83,0-1.15.57-1.15,1.66s.31,1.67,1.15,1.67,1.14-.63,1.14-1.67S223.29,115.7,222.47,115.7Z"/><path class="cls-11" d="M228.8,119.4V116l-1.22,3.44H227L225.76,116v3.44h-.57v-4.12h1l1.15,3.26,1.16-3.26h.93v4.12Z"/><path class="cls-11" d="M232,119.4h-1.44v-4.12h1.23c.76,0,1.34.23,1.34,1.11a.88.88,0,0,1-.63.85.92.92,0,0,1,.81,1C233.32,119.16,232.71,119.4,232,119.4Zm-.21-3.63h-.62V117h.71a.58.58,0,0,0,.62-.64C232.51,116,232.32,115.77,231.8,115.77Zm.1,1.75h-.72v1.39H232c.41,0,.72-.13.72-.69S232.34,117.52,231.9,117.52Z"/><path class="cls-11" d="M235.81,119.52c-1.36,0-1.78-.93-1.78-2.16s.47-2.15,1.79-2.15,1.76.9,1.76,2.15S237.13,119.52,235.81,119.52Zm0-3.82c-.83,0-1.15.57-1.15,1.66S235,119,235.81,119s1.14-.63,1.14-1.67S236.64,115.7,235.81,115.7Z"/><path class="cls-11" d="M731.75,27c-2.17,0-3-1.63-3-3.93,0-2.08.72-3.88,3-3.88a5.07,5.07,0,0,1,1.71.29l-.33,1a3.17,3.17,0,0,0-1.38-.38c-1.48,0-1.94,1.24-1.94,3s.46,3.06,1.88,3.06a3.48,3.48,0,0,0,1.51-.44l.33,1A4.7,4.7,0,0,1,731.75,27Z"/><path class="cls-11" d="M737.58,27c-2.17,0-3-1.63-3-3.93,0-2.08.72-3.88,3-3.88a5,5,0,0,1,1.71.29l-.33,1a3.17,3.17,0,0,0-1.38-.38c-1.48,0-1.94,1.24-1.94,3s.46,3.06,1.88,3.06a3.48,3.48,0,0,0,1.51-.44l.34,1A4.79,4.79,0,0,1,737.58,27Z"/><path class="cls-11" d="M744.49,26.78l-2.15-3.22h-.49v3.22h-1V19.32h2.32c1.07,0,2.22.41,2.22,2.07a1.91,1.91,0,0,1-1.79,2.14l2.2,3.25Zm-1.31-6.57h-1.33v2.46h1.34c.79,0,1.1-.55,1.1-1.28A1,1,0,0,0,743.18,20.21Z"/><path class="cls-11" d="M748.92,26.79V20.93l-1.2,1.1-.33-.87L749,19.78h1v7Z"/><path class="cls-11" d="M754.24,27c-1.91,0-2.27-1.68-2.27-3.74s.5-3.6,2.28-3.6,2.29,1.55,2.29,3.6S756.17,27,754.24,27Zm0-6.48c-1.12,0-1.23,1.38-1.23,2.74,0,1.63.08,2.87,1.22,2.87s1.26-1.33,1.26-2.87S755.41,20.49,754.25,20.49Z"/><path class="cls-11" d="M759.6,27c-1.91,0-2.27-1.68-2.27-3.74s.5-3.6,2.28-3.6,2.29,1.55,2.29,3.6S761.53,27,759.6,27Zm0-6.48c-1.12,0-1.23,1.38-1.23,2.74,0,1.63.08,2.87,1.22,2.87s1.26-1.33,1.26-2.87S760.77,20.49,759.61,20.49Z"/><path class="cls-11" d="M764.53,27a5.54,5.54,0,0,1-1.41-.21l.33-1a2.13,2.13,0,0,0,1,.3c1.2,0,1.74-1.23,1.74-2.66a1.66,1.66,0,0,1-1.4,1c-1.37,0-2.05-.92-2.05-2.46a2.23,2.23,0,0,1,2.13-2.36c1.93,0,2.29,1.74,2.29,3.45S766.42,27,764.53,27Zm.36-6.49c-.61,0-1.07.52-1.07,1.5,0,.73.11,1.59,1.06,1.59a1.34,1.34,0,0,0,1.25-1C766.13,20.9,765.65,20.48,764.89,20.48Z"/><path class="cls-11" d="M768,24.52v-.88h2.94v.88Z"/><path class="cls-11" d="M773.56,26.78h-1.12L775,20.66h-3.26v-.87h3.85l.33.77Z"/><path class="cls-11" d="M780.16,27c-2.37,0-3-1.93-3-3.95,0-2.29.88-3.86,3.07-3.86a6.74,6.74,0,0,1,1.63.29l-.33,1a3,3,0,0,0-1.29-.38c-1.27,0-2,.81-2,3,0,1.8.39,3.06,1.93,3.06a2.19,2.19,0,0,0,1.21-.37v-1.9h-1.49v-.89h2.42v3.39A3.67,3.67,0,0,1,780.16,27Z"/><path class="cls-11" d="M783.25,24.52v-.88h3v.88Z"/><path class="cls-11" d="M789.19,26.79V20.93L788,22l-.32-.87,1.56-1.38h1v7Z"/><path class="cls-11" d="M795.45,27c-2.17,0-3-1.63-3-3.93,0-2.08.72-3.88,3-3.88a5,5,0,0,1,1.71.29l-.33,1a3.17,3.17,0,0,0-1.38-.38c-1.48,0-1.94,1.24-1.94,3s.46,3.06,1.88,3.06a3.48,3.48,0,0,0,1.51-.44l.34,1A4.79,4.79,0,0,1,795.45,27Z"/><path class="cls-11" d="M798,24.52v-.88h2.94v.88Z"/><path class="cls-11" d="M804.48,23.75h-1.23v3h-1V19.32h2.16c1.38,0,2.33.54,2.33,2.18A2,2,0,0,1,804.48,23.75Zm-.13-3.54h-1.1v2.65h1.15c.74,0,1.23-.3,1.23-1.36S805.07,20.21,804.35,20.21Z"/><path class="cls-11" d="M810.83,27c-2.17,0-3-1.63-3-3.93,0-2.08.72-3.88,3-3.88a5.07,5.07,0,0,1,1.71.29l-.34,1a3.09,3.09,0,0,0-1.37-.38c-1.49,0-1.94,1.24-1.94,3s.45,3.06,1.87,3.06a3.48,3.48,0,0,0,1.52-.44l.33,1A4.75,4.75,0,0,1,810.83,27Z"/><rect class="cls-12" x="234.94" y="67.87" width="44.63" height="35.92"/><rect class="cls-13" x="238.56" y="94.75" width="8.13" height="6.11"/><rect class="cls-14" x="267.82" y="94.75" width="8.13" height="6.11"/><polygon class="cls-8" points="274.28 75.13 240.15 75.13 240.15 94.31 247.15 94.31 247.15 100.81 251.44 100.81 251.44 103.74 263.09 103.74 263.09 100.81 267.37 100.81 267.37 94.31 274.28 94.31 274.28 75.13"/><rect class="cls-15" x="245.5" y="75.13" width="1.32" height="7.2"/><rect class="cls-16" x="248.67" y="75.13" width="1.32" height="7.2"/><rect class="cls-17" x="251.84" y="75.13" width="1.32" height="7.2"/><rect class="cls-18" x="255.01" y="75.13" width="1.32" height="7.2"/><rect class="cls-19" x="258.18" y="75.13" width="1.32" height="7.2"/><rect class="cls-20" x="261.35" y="75.13" width="1.32" height="7.2"/><rect class="cls-21" x="264.52" y="75.13" width="1.32" height="7.2"/><rect class="cls-22" x="267.69" y="75.13" width="1.32" height="7.2"/><rect class="cls-12" x="285.24" y="67.87" width="44.63" height="35.92"/><rect class="cls-23" x="288.87" y="94.75" width="8.13" height="6.11"/><rect class="cls-24" x="318.12" y="94.75" width="8.13" height="6.11"/><polygon class="cls-8" points="324.58 75.13 290.45 75.13 290.45 94.31 297.46 94.31 297.46 100.81 301.74 100.81 301.74 103.74 313.39 103.74 313.39 100.81 317.67 100.81 317.67 94.31 324.58 94.31 324.58 75.13"/><rect class="cls-25" x="295.81" y="75.13" width="1.32" height="7.2"/><rect class="cls-26" x="298.98" y="75.13" width="1.32" height="7.2"/><rect class="cls-27" x="302.15" y="75.13" width="1.32" height="7.2"/><rect class="cls-28" x="305.31" y="75.13" width="1.32" height="7.2"/><rect class="cls-29" x="308.48" y="75.13" width="1.32" height="7.2"/><rect class="cls-30" x="311.65" y="75.13" width="1.32" height="7.2"/><rect class="cls-31" x="314.82" y="75.13" width="1.32" height="7.2"/><rect class="cls-32" x="317.99" y="75.13" width="1.32" height="7.2"/><rect class="cls-12" x="335.54" y="67.87" width="44.63" height="35.92"/><rect class="cls-33" x="339.17" y="94.75" width="8.13" height="6.11"/><rect class="cls-34" x="368.43" y="94.75" width="8.13" height="6.11"/><polygon class="cls-8" points="374.89 75.13 340.76 75.13 340.76 94.31 347.76 94.31 347.76 100.81 352.05 100.81 352.05 103.74 363.69 103.74 363.69 100.81 367.98 100.81 367.98 94.31 374.89 94.31 374.89 75.13"/><rect class="cls-35" x="346.11" y="75.13" width="1.32" height="7.2"/><rect class="cls-36" x="349.28" y="75.13" width="1.32" height="7.2"/><rect class="cls-37" x="352.45" y="75.13" width="1.32" height="7.2"/><rect class="cls-38" x="355.62" y="75.13" width="1.32" height="7.2"/><rect class="cls-39" x="358.79" y="75.13" width="1.32" height="7.2"/><rect class="cls-40" x="361.96" y="75.13" width="1.32" height="7.2"/><rect class="cls-41" x="365.13" y="75.13" width="1.32" height="7.2"/><rect class="cls-42" x="368.29" y="75.13" width="1.32" height="7.2"/><rect class="cls-12" x="385.85" y="67.87" width="44.63" height="35.92"/><rect class="cls-43" x="389.47" y="94.75" width="8.13" height="6.11"/><rect class="cls-44" x="418.73" y="94.75" width="8.13" height="6.11"/><polygon class="cls-8" points="425.19 75.13 391.06 75.13 391.06 94.31 398.07 94.31 398.07 100.81 402.35 100.81 402.35 103.74 414 103.74 414 100.81 418.28 100.81 418.28 94.31 425.19 94.31 425.19 75.13"/><rect class="cls-45" x="396.42" y="75.13" width="1.32" height="7.2"/><rect class="cls-46" x="399.58" y="75.13" width="1.32" height="7.2"/><rect class="cls-47" x="402.75" y="75.13" width="1.32" height="7.2"/><rect class="cls-48" x="405.92" y="75.13" width="1.32" height="7.2"/><rect class="cls-49" x="409.09" y="75.13" width="1.32" height="7.2"/><rect class="cls-50" x="412.26" y="75.13" width="1.32" height="7.2"/><rect class="cls-51" x="415.43" y="75.13" width="1.32" height="7.2"/><rect class="cls-52" x="418.6" y="75.13" width="1.32" height="7.2"/><rect class="cls-12" x="436.15" y="67.87" width="44.63" height="35.92"/><rect class="cls-53" x="439.78" y="94.75" width="8.13" height="6.11"/><rect class="cls-54" x="469.03" y="94.75" width="8.13" height="6.11"/><polygon class="cls-8" points="475.49 75.13 441.37 75.13 441.37 94.31 448.37 94.31 448.37 100.81 452.65 100.81 452.65 103.74 464.3 103.74 464.3 100.81 468.58 100.81 468.58 94.31 475.49 94.31 475.49 75.13"/><rect class="cls-55" x="446.72" y="75.13" width="1.32" height="7.2"/><rect class="cls-56" x="449.89" y="75.13" width="1.32" height="7.2"/><rect class="cls-57" x="453.06" y="75.13" width="1.32" height="7.2"/><rect class="cls-58" x="456.23" y="75.13" width="1.32" height="7.2"/><rect class="cls-59" x="459.4" y="75.13" width="1.32" height="7.2"/><rect class="cls-60" x="462.56" y="75.13" width="1.32" height="7.2"/><rect class="cls-61" x="465.73" y="75.13" width="1.32" height="7.2"/><rect class="cls-62" x="468.9" y="75.13" width="1.32" height="7.2"/><rect class="cls-12" x="486.46" y="67.87" width="44.63" height="35.92"/><rect class="cls-63" x="490.08" y="94.75" width="8.13" height="6.11"/><rect class="cls-64" x="519.34" y="94.75" width="8.13" height="6.11"/><polygon class="cls-8" points="525.8 75.13 491.67 75.13 491.67 94.31 498.67 94.31 498.67 100.81 502.96 100.81 502.96 103.74 514.61 103.74 514.61 100.81 518.89 100.81 518.89 94.31 525.8 94.31 525.8 75.13"/><rect class="cls-65" x="497.02" y="75.13" width="1.32" height="7.2"/><rect class="cls-66" x="500.19" y="75.13" width="1.32" height="7.2"/><rect class="cls-67" x="503.36" y="75.13" width="1.32" height="7.2"/><rect class="cls-68" x="506.53" y="75.13" width="1.32" height="7.2"/><rect class="cls-69" x="509.7" y="75.13" width="1.32" height="7.2"/><rect class="cls-70" x="512.87" y="75.13" width="1.32" height="7.2"/><rect class="cls-71" x="516.04" y="75.13" width="1.32" height="7.2"/><rect class="cls-72" x="519.21" y="75.13" width="1.32" height="7.2"/><rect class="cls-12" x="536.76" y="67.87" width="44.63" height="35.92"/><rect class="cls-73" x="540.38" y="94.75" width="8.13" height="6.11"/><rect class="cls-74" x="569.64" y="94.75" width="8.13" height="6.11"/><polygon class="cls-8" points="576.1 75.13 541.97 75.13 541.97 94.31 548.98 94.31 548.98 100.81 553.26 100.81 553.26 103.74 564.91 103.74 564.91 100.81 569.19 100.81 569.19 94.31 576.1 94.31 576.1 75.13"/><rect class="cls-75" x="547.33" y="75.13" width="1.32" height="7.2"/><rect class="cls-76" x="550.5" y="75.13" width="1.32" height="7.2"/><rect class="cls-77" x="553.66" y="75.13" width="1.32" height="7.2"/><rect class="cls-78" x="556.83" y="75.13" width="1.32" height="7.2"/><rect class="cls-79" x="560" y="75.13" width="1.32" height="7.2"/><rect class="cls-80" x="563.17" y="75.13" width="1.32" height="7.2"/><rect class="cls-81" x="566.34" y="75.13" width="1.32" height="7.2"/><rect class="cls-82" x="569.51" y="75.13" width="1.32" height="7.2"/><rect class="cls-12" x="587.06" y="67.87" width="44.63" height="35.92"/><rect class="cls-83" x="590.69" y="94.75" width="8.13" height="6.11"/><rect class="cls-84" x="619.95" y="94.75" width="8.13" height="6.11"/><polygon class="cls-8" points="626.41 75.13 592.28 75.13 592.28 94.31 599.28 94.31 599.28 100.81 603.57 100.81 603.57 103.74 615.21 103.74 615.21 100.81 619.5 100.81 619.5 94.31 626.41 94.31 626.41 75.13"/><rect class="cls-85" x="597.63" y="75.13" width="1.32" height="7.2"/><rect class="cls-86" x="600.8" y="75.13" width="1.32" height="7.2"/><rect class="cls-87" x="603.97" y="75.13" width="1.32" height="7.2"/><rect class="cls-88" x="607.14" y="75.13" width="1.32" height="7.2"/><rect class="cls-89" x="610.31" y="75.13" width="1.32" height="7.2"/><rect class="cls-90" x="613.48" y="75.13" width="1.32" height="7.2"/><rect class="cls-91" x="616.64" y="75.13" width="1.32" height="7.2"/><rect class="cls-92" x="619.81" y="75.13" width="1.32" height="7.2"/><path class="cls-8" d="M706.18,85.4h17.21c2,0,4,0,5.93,0,3.39.13,5.49,2.59,4.95,5.93q-1.2,7.41-2.62,14.78A4.4,4.4,0,0,1,727.2,110c-5.7.13-11.4.11-17.1.11-6.57,0-13.15,0-19.72-.12a4.39,4.39,0,0,1-4.34-3.81c-.93-4.84-1.84-9.69-2.63-14.56-.59-3.69,1.61-6.15,5.35-6.17,5.8,0,11.61,0,17.42,0Z"/><path class="cls-93" d="M726,85.4c1.11,0,2.21,0,3.32,0,3.39.13,5.49,2.59,4.95,5.93q-1.2,7.41-2.62,14.78A4.4,4.4,0,0,1,727.2,110c-4.47.1-9,.11-13.44.11H710.1c-6.57,0-13.15,0-19.72-.12a4.39,4.39,0,0,1-4.34-3.81c-.93-4.84-1.84-9.69-2.63-14.56-.59-3.69,1.61-6.15,5.35-6.17h17.42v0H726m0-2H704.18v0H688.75a7.53,7.53,0,0,0-5.85,2.46,7.31,7.31,0,0,0-1.46,6c.82,5.11,1.79,10.23,2.63,14.62a6.4,6.4,0,0,0,6.28,5.43c6.16.11,12.43.12,18.48.12h4.93c5,0,9.23,0,13.49-.11a6.4,6.4,0,0,0,6.37-5.46c1-4.93,1.83-9.92,2.63-14.83a7.1,7.1,0,0,0-1.4-5.72,7.23,7.23,0,0,0-5.45-2.53c-1.22,0-2.4,0-3.4,0Z"/><circle class="cls-5" cx="697.01" cy="101.19" r="1.29"/><circle class="cls-5" cx="693.03" cy="93.03" r="1.29"/><circle class="cls-5" cx="700.96" cy="93.03" r="1.29"/><circle class="cls-5" cx="708.9" cy="93.03" r="1.29"/><circle class="cls-5" cx="716.83" cy="93.03" r="1.29"/><circle class="cls-5" cx="724.77" cy="93.03" r="1.29"/><circle class="cls-5" cx="704.9" cy="101.19" r="1.29"/><circle class="cls-5" cx="712.78" cy="101.19" r="1.29"/><circle class="cls-5" cx="720.67" cy="101.19" r="1.29"/><path class="cls-93" d="M672.9,88.34l-6.84,4v7.9l6.84,4,6.85-4v-7.9Zm0,12.77a4.72,4.72,0,1,1,4.72-4.71A4.71,4.71,0,0,1,672.9,101.11Z"/><path class="cls-93" d="M744.33,88.34l-6.84,4v7.9l6.84,4,6.84-4v-7.9Zm0,12.77A4.72,4.72,0,1,1,749,96.4,4.71,4.71,0,0,1,744.33,101.11Z"/><polygon class="cls-6" points="810.62 44.04 690.36 44.04 671.25 9.89 248.82 8.89 159.04 8.89 139.66 43.97 73.43 43.97 73.43 75.58 104.59 75.58 115.67 55.45 215.28 55.89 221.39 48.26 657.74 48.26 662.29 55.34 765.93 55.34 777.1 75.04 810.62 75.04 810.62 44.04"/><path class="cls-94" d="M248.82,8.89l420.27,1a4.06,4.06,0,0,1,3.21,1.89l17,30.37A4.06,4.06,0,0,0,692.52,44H808.46a2.16,2.16,0,0,1,2.16,2.16V72.88A2.16,2.16,0,0,1,808.46,75h-29.2A4.13,4.13,0,0,1,776,73.16l-9-15.94a4.08,4.08,0,0,0-3.22-1.88H664.45a4.4,4.4,0,0,1-3.32-1.82l-2.22-3.45a4.41,4.41,0,0,0-3.33-1.81h-432A5.12,5.12,0,0,0,220,49.94l-3.41,4.27a5.07,5.07,0,0,1-3.51,1.67l-95.29-.42a4,4,0,0,0-3.2,1.88l-9,16.34a4.07,4.07,0,0,1-3.21,1.9H75.59a2.17,2.17,0,0,1-2.16-2.16V46.13A2.16,2.16,0,0,1,75.59,44H137.5a4.06,4.06,0,0,0,3.21-1.89L158,10.78a4,4,0,0,1,3.2-1.89h87.62m2.17-3H158.16a1.67,1.67,0,0,0-1.32.78l-1.47,2.66L138.94,39.08A4.06,4.06,0,0,1,135.73,41H71.93a1.5,1.5,0,0,0-1.5,1.5V77.08a1.5,1.5,0,0,0,1.5,1.5h33.55a1.67,1.67,0,0,0,1.32-.78l1.46-2.67,8.14-14.78a4,4,0,0,1,3.2-1.88l93.51.41,2.89,0a1.68,1.68,0,0,0,1.17-.57L219,56.08l2.5-3.14A5.12,5.12,0,0,1,225,51.26h429a4.41,4.41,0,0,1,3.33,1.81l1.33,2.07,1.61,2.51a1.68,1.68,0,0,0,1.26.69H762a4.07,4.07,0,0,1,3.22,1.88l8.18,14.42,1.5,2.64a1.65,1.65,0,0,0,1.3.76h35.9a1.5,1.5,0,0,0,1.5-1.5v-34a1.5,1.5,0,0,0-1.5-1.5H694.28a4.1,4.1,0,0,1-3.22-1.89L674.92,10.31l-1.48-2.65a1.66,1.66,0,0,0-1.31-.76h-3Z"/><path class="cls-94" d="M161.42,12l2.91,5-2.91,5H155.6l-2-3.42-1.78,3.22.85,1.46-2.91,5h-1.52l-1.39,2.51h2.91l2.91,5-2.91,5H144l-1.36-2.35-1.78,3.21.23.39-2.92,5h-5.82L130.39,44h-3.64l2.65,4.59-2.91,5h-5.82l-2.91-5L120.41,44h-3.63l-1.93,3.33H109L107.11,44h-3.64l2.65,4.59-2.91,5H97.39l-2.91-5L97.13,44H93.5L91.57,47.3H85.75L83.83,44H80.19l2.65,4.59-2.91,5H74.11l-.68-1.19V57.3l.68-1.19h5.82l2.91,5-2.91,5H74.11L73.43,65v4.88l.68-1.18h5.82l2.91,5-1.06,1.83h3.64l.33-.58h5.82l.33.58h3.64l-1.06-1.83,2.91-5h5.82l2.65,4.57,1.77-3.22-1.51-2.61,2.91-5h2.81l1.38-2.51H109l-2.91-5,2.91-5h5.82l2.91,5-.34.6,12.36,0-.38-.65,2.91-5h5.82l2.92,5-.41.7,12.48.06-.43-.76,2.91-5h5.82l2.91,5-.47.8,12.61.06-.5-.86,2.91-5h5.82l2.91,5-.53.91,12.73,0-.56-1,2.91-5H208l2.91,5-.59,1,5,0,1.84-2.29H213.8l-2.91-5,2.91-5h5.82l2.73,4.74h12l2.73-4.74h5.82l2.74,4.74h12l2.73-4.74h5.82l2.74,4.74h12l2.73-4.74h5.82l2.74,4.74h12l2.73-4.74h5.82l2.74,4.74h12l2.74-4.74H336l2.73,4.74h12l2.74-4.74h5.82L362,48.26h12l2.74-4.74h5.82l2.73,4.74h12l2.74-4.74h5.82l2.73,4.74h12l2.73-4.74h5.82l2.74,4.74h12l2.73-4.74h5.82l2.74,4.74h12l2.73-4.74h5.82l2.74,4.74h12l2.73-4.74H499l2.74,4.74h12l2.74-4.74h5.82L525,48.26h12l2.74-4.74h5.82l2.73,4.74h12L563,43.52h5.82l2.73,4.74h12l2.74-4.74h5.82l2.73,4.74h12l2.73-4.74h5.82l2.74,4.74h12l2.73-4.74h5.82l2.74,4.74h12l2.73-4.74H662l2.91,5-2.91,5h-.78l1.11,1.74h2.86l-.28-.48,2.91-5h5.82l2.91,5-.27.48h12.19l-.28-.48,2.91-5h5.82l2.91,5-.27.48h12.19l-.27-.48,2.91-5h5.82l2.91,5-.28.48H735l-.27-.48,2.91-5h5.82l2.91,5-.28.48h12.2l-.28-.48,2.91-5h5.82l2.91,5-2,3.48,5.88,10.37h4.86l2.91,5L780.53,75h3.64l0,0H790l0,0h3.64l-.75-1.29,2.91-5h5.82l2.91,5L803.81,75h3.64l0,0h3.15V72.49h-3.15l-2.91-5,2.91-5h3.15V59.9h-3.15l-2.91-5,2.91-5h3.15V47.3h-3.15L805.59,44H802l2.61,4.52-2.91,5h-5.82l-2.91-5L795.53,44h-3.64L790,47.3h-5.82L782.3,44h-3.63l2.61,4.52-2.91,5h-5.82l-2.91-5L772.25,44h-3.64l-1.88,3.26h-5.82L759,44h-3.63L758,48.56l-2.91,5h-5.82l-2.91-5L749,44h-3.64l-1.88,3.26h-5.82L735.74,44h-3.63l2.61,4.52-2.91,5H726l-2.91-5L725.69,44h-3.64l-1.88,3.26h-5.82L712.46,44h-3.63l2.61,4.52-2.91,5H702.7l-2.91-5L702.41,44h-3.64l-1.89,3.26h-5.82l-2.91-5,.62-1.06L687,38l-1.74,3h-5.82l-2.91-5,2.91-5H683l-1.4-2.51h-2.2l-2.91-5,1.16-2-1.79-3.2-2.28,3.95h-5.82l-2.91-5,2.91-5h4.67l-1.2-2.15h-6.9l.52.9-2.91,5h-5.82l-2.91-5,.54-.93L641,9.82l.55,1-2.91,5h-5.82l-2.91-5,.57-1-12.8,0,.59,1-2.91,5h-5.82l-2.91-5,.6-1-12.86,0,.62,1.07-2.91,5H586.3l-2.91-5L584,9.69l-12.92,0,.65,1.12-2.91,5H563l-2.91-5,.66-1.15-13,0,.69,1.18-2.91,5h-5.82l-2.91-5,.69-1.2-13,0,.72,1.23-2.91,5h-5.82l-2.92-5,.73-1.26-13.11,0,.74,1.29-2.91,5h-5.82l-2.91-5L491,9.47l-13.17,0,.77,1.34-2.91,5h-5.82l-2.91-5,.79-1.37-13.24,0,.81,1.4-2.91,5h-5.82l-2.91-5,.82-1.42-13.3,0,.84,1.45-2.91,5h-5.82l-2.91-5,.85-1.48-13.36,0,.87,1.51-2.91,5h-5.82l-2.91-5L398,9.25l-13.44,0,.91,1.56-2.91,5h-5.82l-2.91-5,.92-1.59-13.5,0,.94,1.62-2.91,5h-5.82l-2.91-5,.95-1.64L338,9.1l1,1.68-2.91,5h-5.82l-2.92-5,1-1.7-13.63,0,1,1.73-2.91,5h-5.82l-2.91-5L305,9,291.34,9l1,1.79-2.91,5h-5.82l-2.91-5,1-1.81L268,8.94l1.06,1.84-2.91,5h-5.82l-2.91-5,1.08-1.86-9.71,0h-4.1l1.09,1.89-2.91,5h-5.82l-2.91-5,1.09-1.89H221.44l1.09,1.89-2.91,5H213.8l-2.91-5L212,8.89H198.16l1.09,1.89-2.91,5h-5.82l-2.91-5,1.09-1.89H174.88L176,10.78l-2.91,5h-5.82l-2.91-5,1.09-1.89H159L157.3,12ZM85.75,49.82h5.82l2.91,5-2.91,5H85.75l-2.91-5Zm5.82,22.67H85.75l-2.91-5,2.91-5h5.82l2.91,5Zm11.64-6.3H97.39l-2.91-5,2.91-5h5.82l2.91,5ZM790,72.49h-5.82l-2.91-5,2.91-5H790l2.91,5Zm5.82-16.38h5.82l2.91,5-2.91,5h-5.82l-2.91-5Zm-11.64-6.29H790l2.91,5-2.91,5h-5.82l-2.91-5Zm-11.64,6.29h5.82l2.91,5-2.91,5h-5.82l-2.91-5ZM155.6,24.63h5.82l2.91,5-2.91,5H155.6l-2.91-5Zm11.64,6.3h5.82L176,36l-2.91,5h-5.82l-2.91-5ZM149.78,53.6H144l-2.91-5,2.91-5h5.82l2.91,5Zm11.64-6.3H155.6l-2.91-5,2.91-5h5.82l2.91,5Zm11.64,6.3h-5.82l-2.91-5,2.91-5h5.82l2.91,5Zm11.64-6.3h-5.82l-2.91-5,2.91-5h5.82l2.91,5Zm0-12.59h-5.82l-2.91-5,2.91-5h5.82l2.91,5Zm5.82-3.78h5.82l2.91,5-2.91,5h-5.82l-2.91-5Zm5.82,22.67h-5.82l-2.91-5,2.91-5h5.82l2.91,5ZM208,47.3h-5.82l-2.91-5,2.91-5H208l2.91,5Zm-8.73-17.63,2.91-5H208l2.91,5-2.91,5h-5.82ZM213.8,41l-2.91-5,2.91-5h5.82l2.91,5-2.91,5Zm17.46,6.29h-5.82l-2.91-5,2.91-5h5.82l2.91,5Zm-8.73-17.63,2.91-5h5.82l2.91,5-2.91,5h-5.82ZM237.08,41l-2.91-5,2.91-5h5.82l2.91,5-2.91,5Zm17.46,6.29h-5.82l-2.91-5,2.91-5h5.82l2.91,5Zm-8.73-17.63,2.91-5h5.82l2.91,5-2.91,5h-5.82ZM260.36,41l-2.91-5,2.91-5h5.82l2.91,5-2.91,5Zm17.46,6.29H272l-2.91-5,2.91-5h5.82l2.91,5Zm-8.73-17.63,2.91-5h5.82l2.91,5-2.91,5H272ZM283.64,41l-2.91-5,2.91-5h5.82l2.91,5-2.91,5ZM301.1,47.3h-5.82l-2.91-5,2.91-5h5.82l2.91,5Zm-8.73-17.63,2.91-5h5.82l2.91,5-2.91,5h-5.82ZM306.92,41,304,36l2.91-5h5.82l2.91,5-2.91,5Zm17.46,6.29h-5.82l-2.91-5,2.91-5h5.82l2.91,5Zm-8.73-17.63,2.91-5h5.82l2.91,5-2.91,5h-5.82ZM330.21,41l-2.92-5,2.92-5H336l2.91,5L336,41Zm17.46,6.29h-5.82l-2.91-5,2.91-5h5.82l2.91,5Zm-8.73-17.63,2.91-5h5.82l2.91,5-2.91,5h-5.82ZM353.49,41l-2.91-5,2.91-5h5.82l2.91,5-2.91,5ZM371,47.3h-5.82l-2.91-5,2.91-5H371l2.91,5Zm-8.73-17.63,2.91-5H371l2.91,5-2.91,5h-5.82ZM376.77,41l-2.91-5,2.91-5h5.82l2.91,5-2.91,5Zm17.46,6.29h-5.82l-2.91-5,2.91-5h5.82l2.91,5ZM385.5,29.67l2.91-5h5.82l2.91,5-2.91,5h-5.82ZM400.05,41l-2.91-5,2.91-5h5.82l2.91,5-2.91,5Zm17.46,6.29h-5.82l-2.91-5,2.91-5h5.82l2.91,5Zm-8.73-17.63,2.91-5h5.82l2.91,5-2.91,5h-5.82ZM423.33,41l-2.91-5,2.91-5h5.82l2.91,5-2.91,5Zm17.46,6.29H435l-2.91-5,2.91-5h5.82l2.91,5Zm-8.73-17.63,2.91-5h5.82l2.91,5-2.91,5H435ZM446.61,41l-2.91-5,2.91-5h5.82l2.91,5-2.91,5Zm17.46,6.29h-5.82l-2.91-5,2.91-5h5.82l2.91,5Zm-8.73-17.63,2.91-5h5.82l2.91,5-2.91,5h-5.82ZM469.89,41,467,36l2.91-5h5.82l2.91,5-2.91,5Zm17.46,6.29h-5.82l-2.91-5,2.91-5h5.82l2.91,5Zm-8.73-17.63,2.91-5h5.82l2.91,5-2.91,5h-5.82ZM493.17,41l-2.91-5,2.91-5H499l2.91,5L499,41Zm17.46,6.29h-5.82l-2.91-5,2.91-5h5.82l2.91,5ZM501.9,29.67l2.91-5h5.82l2.91,5-2.91,5h-5.82ZM516.46,41l-2.92-5,2.92-5h5.82l2.91,5-2.91,5Zm17.46,6.29H528.1l-2.91-5,2.91-5h5.82l2.91,5Zm-8.73-17.63,2.91-5h5.82l2.91,5-2.91,5H528.1ZM539.74,41l-2.91-5,2.91-5h5.82l2.91,5-2.91,5ZM557.2,47.3h-5.82l-2.91-5,2.91-5h5.82l2.91,5Zm-8.73-17.63,2.91-5h5.82l2.91,5-2.91,5h-5.82ZM563,41l-2.91-5,2.91-5h5.82l2.91,5-2.91,5Zm17.46,6.29h-5.82l-2.91-5,2.91-5h5.82l2.91,5Zm-8.73-17.63,2.91-5h5.82l2.91,5-2.91,5h-5.82ZM586.3,41l-2.91-5,2.91-5h5.82L595,36l-2.91,5Zm17.46,6.29h-5.82l-2.91-5,2.91-5h5.82l2.91,5ZM595,29.67l2.91-5h5.82l2.91,5-2.91,5h-5.82ZM609.58,41l-2.91-5,2.91-5h5.82l2.91,5-2.91,5ZM627,47.3h-5.82l-2.91-5,2.91-5H627l2.91,5Zm-8.73-17.63,2.91-5H627l2.91,5-2.91,5h-5.82ZM632.86,41,630,36l2.91-5h5.82l2.91,5-2.91,5Zm17.46,6.29H644.5l-2.91-5,2.91-5h5.82l2.91,5Zm-8.73-17.63,2.91-5h5.82l2.91,5-2.91,5H644.5ZM662,41h-5.82l-2.91-5,2.91-5H662l2.91,5ZM673.6,47.3h-5.82l-2.91-5,2.91-5h5.82l2.91,5Zm5.82-3.78h5.82l2.91,5-2.91,5h-5.82l-2.91-5ZM667.78,24.63h5.82l2.91,5-2.91,5h-5.82l-2.91-5Zm-11.64-6.3H662l2.91,5.05-2.91,5h-5.82l-2.91-5ZM644.5,12h5.82l2.91,5-2.91,5H644.5l-2.91-5Zm-11.64,6.29h5.82l2.91,5.05-2.91,5h-5.82l-2.91-5ZM621.22,12H627l2.91,5-2.91,5h-5.82l-2.91-5Zm-11.64,6.29h5.82l2.91,5.05-2.91,5h-5.82l-2.91-5ZM597.94,12h5.82l2.91,5-2.91,5h-5.82l-2.91-5ZM586.3,18.33h5.82L595,23.38l-2.91,5H586.3l-2.91-5ZM574.66,12h5.82l2.91,5-2.91,5h-5.82l-2.91-5ZM563,18.33h5.82l2.91,5.05-2.91,5H563l-2.91-5ZM551.38,12h5.82l2.91,5-2.91,5h-5.82l-2.91-5Zm-11.64,6.29h5.82l2.91,5.05-2.91,5h-5.82l-2.91-5ZM528.1,12h5.82l2.91,5-2.91,5H528.1l-2.91-5Zm-11.64,6.29h5.82l2.91,5.05-2.91,5h-5.82l-2.92-5ZM504.81,12h5.82l2.91,5-2.91,5h-5.82l-2.91-5Zm-11.64,6.29H499l2.91,5.05-2.91,5h-5.82l-2.91-5ZM481.53,12h5.82l2.91,5-2.91,5h-5.82l-2.91-5Zm-11.64,6.29h5.82l2.91,5.05-2.91,5h-5.82l-2.91-5ZM458.25,12h5.82l2.91,5-2.91,5h-5.82l-2.91-5Zm-11.64,6.29h5.82l2.91,5.05-2.91,5h-5.82l-2.91-5ZM435,12h5.82l2.91,5-2.91,5H435l-2.91-5Zm-11.64,6.29h5.82l2.91,5.05-2.91,5h-5.82l-2.91-5ZM411.69,12h5.82l2.91,5-2.91,5h-5.82l-2.91-5Zm-11.64,6.29h5.82l2.91,5.05-2.91,5h-5.82l-2.91-5ZM388.41,12h5.82l2.91,5-2.91,5h-5.82l-2.91-5Zm-11.64,6.29h5.82l2.91,5.05-2.91,5h-5.82l-2.91-5ZM365.13,12H371l2.91,5-2.91,5h-5.82l-2.91-5Zm-11.64,6.29h5.82l2.91,5.05-2.91,5h-5.82l-2.91-5ZM341.85,12h5.82l2.91,5-2.91,5h-5.82l-2.91-5Zm-11.64,6.29H336l2.91,5.05-2.91,5h-5.82l-2.92-5ZM318.56,12h5.82l2.91,5-2.91,5h-5.82l-2.91-5Zm-11.64,6.29h5.82l2.91,5.05-2.91,5h-5.82l-2.91-5ZM295.28,12h5.82l2.91,5-2.91,5h-5.82l-2.91-5Zm-11.64,6.29h5.82l2.91,5.05-2.91,5h-5.82l-2.91-5ZM272,12h5.82l2.91,5-2.91,5H272l-2.91-5Zm-11.64,6.29h5.82l2.91,5.05-2.91,5h-5.82l-2.91-5ZM248.72,12h5.82l2.91,5-2.91,5h-5.82l-2.91-5Zm-11.64,6.29h5.82l2.91,5.05-2.91,5h-5.82l-2.91-5ZM225.44,12h5.82l2.91,5-2.91,5h-5.82l-2.91-5ZM213.8,18.33h5.82l2.91,5.05-2.91,5H213.8l-2.91-5ZM202.16,12H208l2.91,5-2.91,5h-5.82l-2.91-5Zm-11.64,6.29h5.82l2.91,5.05-2.91,5h-5.82l-2.91-5ZM178.88,12h5.82l2.91,5-2.91,5h-5.82l-2.91-5Zm-11.64,6.29h5.82L176,23.38l-2.91,5h-5.82l-2.91-5Z"/><polygon class="cls-94" points="73.43 43.97 73.43 44.71 73.85 43.97 73.43 43.97"/><polyline class="cls-95" points="197.18 116.56 199.65 120.82 253.64 120.82 256.68 116.56"/><circle class="cls-96" cx="760.5" cy="96.02" r="4.81"/><circle class="cls-97" cx="760.5" cy="81.01" r="4.81"/><circle class="cls-98" cx="226.07" cy="97.39" r="5.4"/><circle class="cls-99" cx="647.02" cy="98.8" r="3.86"/><path class="cls-100" d="M205.51,108.23h13.11a2.05,2.05,0,0,0,1-.29c.85-.52,3.73-5.27,3.73-5.27"/><rect class="cls-101" x="839.21" y="26.69" width="460" height="18.04" rx="6.45"/><rect class="cls-102" x="839.21" y="82.72" width="460" height="18.04" rx="6.45"/></svg>