<svg id="Camada_1" data-name="Camada 1" xmlns="http://www.w3.org/2000/svg" xmlns:xlink="http://www.w3.org/1999/xlink" viewBox="0 0 1368 125.19"><defs><style>.cls-1{fill:#292828;}.cls-10,.cls-100,.cls-101,.cls-11,.cls-12,.cls-13,.cls-14,.cls-15,.cls-16,.cls-17,.cls-18,.cls-19,.cls-2,.cls-20,.cls-21,.cls-22,.cls-23,.cls-24,.cls-25,.cls-26,.cls-27,.cls-28,.cls-29,.cls-3,.cls-30,.cls-31,.cls-32,.cls-33,.cls-34,.cls-35,.cls-36,.cls-37,.cls-38,.cls-39,.cls-4,.cls-40,.cls-41,.cls-42,.cls-43,.cls-44,.cls-45,.cls-46,.cls-47,.cls-48,.cls-49,.cls-5,.cls-50,.cls-51,.cls-52,.cls-53,.cls-54,.cls-55,.cls-56,.cls-57,.cls-58,.cls-59,.cls-6,.cls-60,.cls-61,.cls-62,.cls-63,.cls-64,.cls-65,.cls-66,.cls-67,.cls-68,.cls-69,.cls-7,.cls-70,.cls-71,.cls-72,.cls-73,.cls-74,.cls-75,.cls-76,.cls-77,.cls-78,.cls-79,.cls-8,.cls-80,.cls-81,.cls-82,.cls-83,.cls-84,.cls-85,.cls-86,.cls-87,.cls-88,.cls-89,.cls-9,.cls-90,.cls-91,.cls-92,.cls-93,.cls-94,.cls-95,.cls-96,.cls-97,.cls-98,.cls-99{stroke-miterlimit:10;}.cls-2{stroke:url(#Gradiente_sem_nome_184);}.cls-3{stroke:url(#Gradiente_sem_nome_184-2);}.cls-4{stroke:url(#Gradiente_sem_nome_184-3);}.cls-5{stroke:url(#Gradiente_sem_nome_184-4);}.cls-6{stroke:url(#Gradiente_sem_nome_184-5);}.cls-7{stroke:url(#Gradiente_sem_nome_184-6);}.cls-8{stroke:url(#Gradiente_sem_nome_184-7);}.cls-9{stroke:url(#Gradiente_sem_nome_184-8);}.cls-10{stroke:url(#Gradiente_sem_nome_184-9);}.cls-11{stroke:url(#Gradiente_sem_nome_184-10);}.cls-12{stroke:url(#Gradiente_sem_nome_184-11);}.cls-13{stroke:url(#Gradiente_sem_nome_184-12);}.cls-14{stroke:url(#Gradiente_sem_nome_184-13);}.cls-15{stroke:url(#Gradiente_sem_nome_184-14);}.cls-16{stroke:url(#Gradiente_sem_nome_184-15);}.cls-17{stroke:url(#Gradiente_sem_nome_184-16);}.cls-18{stroke:url(#Gradiente_sem_nome_184-17);}.cls-19{stroke:url(#Gradiente_sem_nome_184-18);}.cls-20{stroke:url(#Gradiente_sem_nome_184-19);}.cls-21{stroke:url(#Gradiente_sem_nome_184-20);}.cls-22{stroke:url(#Gradiente_sem_nome_184-21);}.cls-23{stroke:url(#Gradiente_sem_nome_184-22);}.cls-24{stroke:url(#Gradiente_sem_nome_184-23);}.cls-25{stroke:url(#Gradiente_sem_nome_184-24);}.cls-26{stroke:url(#Gradiente_sem_nome_184-25);}.cls-27{stroke:url(#Gradiente_sem_nome_184-26);}.cls-28{stroke:url(#Gradiente_sem_nome_184-27);}.cls-29{stroke:url(#Gradiente_sem_nome_184-28);}.cls-30{stroke:url(#Gradiente_sem_nome_184-29);}.cls-31{stroke:url(#Gradiente_sem_nome_184-30);}.cls-32{stroke:url(#Gradiente_sem_nome_184-31);}.cls-33{stroke:url(#Gradiente_sem_nome_184-32);}.cls-34{stroke:url(#Gradiente_sem_nome_184-33);}.cls-35{stroke:url(#Gradiente_sem_nome_184-34);}.cls-36{stroke:url(#Gradiente_sem_nome_184-35);}.cls-37{stroke:url(#Gradiente_sem_nome_184-36);}.cls-38{stroke:url(#Gradiente_sem_nome_184-37);}.cls-39{stroke:url(#Gradiente_sem_nome_184-38);}.cls-40{stroke:url(#Gradiente_sem_nome_184-39);}.cls-41{stroke:url(#Gradiente_sem_nome_184-40);}.cls-42{stroke:url(#Gradiente_sem_nome_184-41);}.cls-43{stroke:url(#Gradiente_sem_nome_184-42);}.cls-44{stroke:url(#Gradiente_sem_nome_184-43);}.cls-45{stroke:url(#Gradiente_sem_nome_184-44);}.cls-46{stroke:url(#Gradiente_sem_nome_184-45);}.cls-47{stroke:url(#Gradiente_sem_nome_184-46);}.cls-48{stroke:url(#Gradiente_sem_nome_184-47);}.cls-49{stroke:url(#Gradiente_sem_nome_184-48);}.cls-50{stroke:url(#Gradiente_sem_nome_184-49);}.cls-51{stroke:url(#Gradiente_sem_nome_184-50);}.cls-52{stroke:url(#Gradiente_sem_nome_184-51);}.cls-53{stroke:url(#Gradiente_sem_nome_184-52);}.cls-54{stroke:url(#Gradiente_sem_nome_184-53);}.cls-55{stroke:url(#Gradiente_sem_nome_184-54);}.cls-56{stroke:url(#Gradiente_sem_nome_184-55);}.cls-57{stroke:url(#Gradiente_sem_nome_184-56);}.cls-58{stroke:url(#Gradiente_sem_nome_184-57);}.cls-59{stroke:url(#Gradiente_sem_nome_184-58);}.cls-60{stroke:url(#Gradiente_sem_nome_184-59);}.cls-61{stroke:url(#Gradiente_sem_nome_184-60);}.cls-62{stroke:url(#Gradiente_sem_nome_184-61);}.cls-63{stroke:url(#Gradiente_sem_nome_184-62);}.cls-64{stroke:url(#Gradiente_sem_nome_184-63);}.cls-65{stroke:url(#Gradiente_sem_nome_184-64);}.cls-66{stroke:url(#Gradiente_sem_nome_184-65);}.cls-67{stroke:url(#Gradiente_sem_nome_184-66);}.cls-68{stroke:url(#Gradiente_sem_nome_184-67);}.cls-69{stroke:url(#Gradiente_sem_nome_184-68);}.cls-70{stroke:url(#Gradiente_sem_nome_184-69);}.cls-71{stroke:url(#Gradiente_sem_nome_184-70);}.cls-72{stroke:url(#Gradiente_sem_nome_184-71);}.cls-73{stroke:url(#Gradiente_sem_nome_184-72);}.cls-74{stroke:url(#Gradiente_sem_nome_184-73);}.cls-75{stroke:url(#Gradiente_sem_nome_184-74);}.cls-76{stroke:url(#Gradiente_sem_nome_184-75);}.cls-77{stroke:url(#Gradiente_sem_nome_184-76);}.cls-78{stroke:url(#Gradiente_sem_nome_184-77);}.cls-79{stroke:url(#Gradiente_sem_nome_184-78);}.cls-80{stroke:url(#Gradiente_sem_nome_184-79);}.cls-81{stroke:url(#Gradiente_sem_nome_184-80);}.cls-82{stroke:url(#Gradiente_sem_nome_184-81);}.cls-83{stroke:url(#Gradiente_sem_nome_184-82);}.cls-84{stroke:url(#Gradiente_sem_nome_184-83);}.cls-85{stroke:url(#Gradiente_sem_nome_184-84);}.cls-86{stroke:url(#Gradiente_sem_nome_184-85);}.cls-87{stroke:url(#Gradiente_sem_nome_184-86);}.cls-88{stroke:url(#Gradiente_sem_nome_184-87);}.cls-89{stroke:url(#Gradiente_sem_nome_184-88);}.cls-90{stroke:url(#Gradiente_sem_nome_184-89);}.cls-91{stroke:url(#Gradiente_sem_nome_184-90);}.cls-92{stroke:url(#Gradiente_sem_nome_184-91);}.cls-93{stroke:url(#Gradiente_sem_nome_184-92);}.cls-94{stroke:url(#Gradiente_sem_nome_184-93);}.cls-95{stroke:url(#Gradiente_sem_nome_184-94);}.cls-96{stroke:url(#Gradiente_sem_nome_184-95);}.cls-97{stroke:url(#Gradiente_sem_nome_184-96);}.cls-98{stroke:url(#Gradiente_sem_nome_184-97);}.cls-99{stroke:url(#Gradiente_sem_nome_184-98);}.cls-100{stroke:url(#Gradiente_sem_nome_184-99);}.cls-101{stroke:url(#Gradiente_sem_nome_184-100);}.cls-102{fill:#d2d3d7;}.cls-103{fill:url(#Gradiente_sem_nome_46);}.cls-104{fill:url(#Gradiente_sem_nome_185);}.cls-105{fill:#fff;}.cls-106{fill:#1a1a1a;}.cls-107{fill:url(#Gradiente_sem_nome_10);}.cls-108{fill:#666;}.cls-109{fill:#f8e800;}.cls-110{fill:url(#Gradiente_sem_nome_66);}.cls-111{fill:url(#Gradiente_sem_nome_66-2);}.cls-112{fill:url(#Gradiente_sem_nome_66-3);}.cls-113{fill:url(#Gradiente_sem_nome_66-4);}.cls-114{fill:url(#Gradiente_sem_nome_66-5);}.cls-115{fill:url(#Gradiente_sem_nome_66-6);}.cls-116{fill:url(#Gradiente_sem_nome_66-7);}.cls-117{fill:url(#Gradiente_sem_nome_66-8);}.cls-118{fill:url(#Gradiente_sem_nome_66-9);}.cls-119{fill:url(#Gradiente_sem_nome_66-10);}.cls-120{fill:url(#Gradiente_sem_nome_66-11);}.cls-121{fill:url(#Gradiente_sem_nome_66-12);}.cls-122{fill:url(#Gradiente_sem_nome_66-13);}.cls-123{fill:url(#Gradiente_sem_nome_66-14);}.cls-124{fill:url(#Gradiente_sem_nome_66-15);}.cls-125{fill:url(#Gradiente_sem_nome_66-16);}.cls-126{fill:url(#Gradiente_sem_nome_66-17);}.cls-127{fill:url(#Gradiente_sem_nome_66-18);}.cls-128{fill:url(#Gradiente_sem_nome_66-19);}.cls-129{fill:url(#Gradiente_sem_nome_66-20);}.cls-130{fill:url(#Gradiente_sem_nome_66-21);}.cls-131{fill:url(#Gradiente_sem_nome_66-22);}.cls-132{fill:url(#Gradiente_sem_nome_66-23);}.cls-133{fill:url(#Gradiente_sem_nome_66-24);}.cls-134{fill:url(#Gradiente_sem_nome_66-25);}.cls-135{fill:url(#Gradiente_sem_nome_66-26);}.cls-136{fill:url(#Gradiente_sem_nome_66-27);}.cls-137{fill:url(#Gradiente_sem_nome_66-28);}.cls-138{fill:url(#Gradiente_sem_nome_66-29);}.cls-139{fill:url(#Gradiente_sem_nome_66-30);}.cls-140{fill:url(#Gradiente_sem_nome_66-31);}.cls-141{fill:url(#Gradiente_sem_nome_66-32);}.cls-142{fill:url(#Gradiente_sem_nome_66-33);}.cls-143{fill:url(#Gradiente_sem_nome_66-34);}.cls-144{fill:url(#Gradiente_sem_nome_66-35);}.cls-145{fill:url(#Gradiente_sem_nome_66-36);}.cls-146{fill:url(#Gradiente_sem_nome_66-37);}.cls-147{fill:url(#Gradiente_sem_nome_66-38);}.cls-148{fill:url(#Gradiente_sem_nome_66-39);}.cls-149{fill:url(#Gradiente_sem_nome_66-40);}.cls-150{fill:url(#Gradiente_sem_nome_66-41);}.cls-151{fill:url(#Gradiente_sem_nome_66-42);}.cls-152{fill:url(#Gradiente_sem_nome_66-43);}.cls-153{fill:url(#Gradiente_sem_nome_66-44);}.cls-154{fill:url(#Gradiente_sem_nome_66-45);}.cls-155{fill:url(#Gradiente_sem_nome_66-46);}.cls-156{fill:url(#Gradiente_sem_nome_66-47);}.cls-157{fill:url(#Gradiente_sem_nome_66-48);}.cls-158{fill:url(#Gradiente_sem_nome_66-49);}.cls-159{fill:url(#Gradiente_sem_nome_66-50);}.cls-160{fill:url(#Gradiente_sem_nome_66-51);}.cls-161{fill:url(#Gradiente_sem_nome_66-52);}.cls-162{fill:url(#Gradiente_sem_nome_66-53);}.cls-163{fill:url(#Gradiente_sem_nome_66-54);}.cls-164{fill:url(#Gradiente_sem_nome_66-55);}.cls-165{fill:url(#Gradiente_sem_nome_66-56);}.cls-166{fill:url(#Gradiente_sem_nome_66-57);}.cls-167{fill:url(#Gradiente_sem_nome_66-58);}.cls-168{fill:url(#Gradiente_sem_nome_66-59);}.cls-169{fill:url(#Gradiente_sem_nome_66-60);}.cls-170{fill:url(#Gradiente_sem_nome_66-61);}.cls-171{fill:url(#Gradiente_sem_nome_66-62);}.cls-172{fill:url(#Gradiente_sem_nome_66-63);}.cls-173{fill:url(#Gradiente_sem_nome_66-64);}.cls-174{fill:url(#Gradiente_sem_nome_66-65);}.cls-175{fill:url(#Gradiente_sem_nome_66-66);}.cls-176{fill:url(#Gradiente_sem_nome_66-67);}.cls-177{fill:url(#Gradiente_sem_nome_66-68);}.cls-178{fill:url(#Gradiente_sem_nome_66-69);}.cls-179{fill:url(#Gradiente_sem_nome_66-70);}.cls-180{fill:url(#Gradiente_sem_nome_66-71);}.cls-181{fill:url(#Gradiente_sem_nome_66-72);}.cls-182{fill:url(#Gradiente_sem_nome_66-73);}.cls-183{fill:url(#Gradiente_sem_nome_66-74);}.cls-184{fill:url(#Gradiente_sem_nome_66-75);}.cls-185{fill:url(#Gradiente_sem_nome_66-76);}.cls-186{fill:url(#Gradiente_sem_nome_66-77);}.cls-187{fill:url(#Gradiente_sem_nome_66-78);}.cls-188{fill:url(#Gradiente_sem_nome_66-79);}.cls-189{fill:url(#Gradiente_sem_nome_66-80);}.cls-190{fill:#444242;}.cls-191{fill:#333;}.cls-192{fill:#ff0;}.cls-193{fill:url(#Gradiente_sem_nome_46-2);}.cls-194{fill:url(#Gradiente_sem_nome_46-3);}.cls-195{fill:url(#Gradiente_sem_nome_46-4);}.cls-196{fill:url(#Gradiente_sem_nome_46-5);}.cls-197{fill:url(#Gradiente_sem_nome_46-6);}.cls-198{fill:url(#Gradiente_sem_nome_46-7);}.cls-199{fill:url(#Gradiente_sem_nome_46-8);}.cls-200{fill:url(#Gradiente_sem_nome_46-9);}.cls-201{fill:url(#Gradiente_sem_nome_46-10);}.cls-202{fill:url(#Gradiente_sem_nome_46-11);}.cls-203{fill:#c9c9c9;}</style><linearGradient id="Gradiente_sem_nome_184" x1="91.44" y1="27.65" x2="91.44" y2="13.41" gradientUnits="userSpaceOnUse"><stop offset="0" stop-color="#363434"/><stop offset="1" stop-color="#292828"/></linearGradient><linearGradient id="Gradiente_sem_nome_184-2" x1="152.73" y1="27.64" x2="152.73" y2="13.4" xlink:href="#Gradiente_sem_nome_184"/><linearGradient id="Gradiente_sem_nome_184-3" x1="173.18" y1="27.67" x2="173.18" y2="13.39" xlink:href="#Gradiente_sem_nome_184"/><linearGradient id="Gradiente_sem_nome_184-4" x1="111.83" y1="27.63" x2="111.83" y2="13.36" xlink:href="#Gradiente_sem_nome_184"/><linearGradient id="Gradiente_sem_nome_184-5" x1="132.28" y1="27.64" x2="132.28" y2="13.35" xlink:href="#Gradiente_sem_nome_184"/><linearGradient id="Gradiente_sem_nome_184-6" x1="81.16" y1="28.69" x2="81.16" y2="14.37" xlink:href="#Gradiente_sem_nome_184"/><linearGradient id="Gradiente_sem_nome_184-7" x1="162.95" y1="28.7" x2="162.95" y2="14.39" xlink:href="#Gradiente_sem_nome_184"/><linearGradient id="Gradiente_sem_nome_184-8" x1="101.61" y1="28.68" x2="101.61" y2="14.46" xlink:href="#Gradiente_sem_nome_184"/><linearGradient id="Gradiente_sem_nome_184-9" x1="142.51" y1="28.67" x2="142.51" y2="14.39" xlink:href="#Gradiente_sem_nome_184"/><linearGradient id="Gradiente_sem_nome_184-10" x1="122.06" y1="28.64" x2="122.06" y2="14.47" xlink:href="#Gradiente_sem_nome_184"/><linearGradient id="Gradiente_sem_nome_184-11" x1="193.68" y1="27.65" x2="193.68" y2="13.41" xlink:href="#Gradiente_sem_nome_184"/><linearGradient id="Gradiente_sem_nome_184-12" x1="254.97" y1="27.64" x2="254.97" y2="13.4" xlink:href="#Gradiente_sem_nome_184"/><linearGradient id="Gradiente_sem_nome_184-13" x1="275.42" y1="27.67" x2="275.42" y2="13.39" xlink:href="#Gradiente_sem_nome_184"/><linearGradient id="Gradiente_sem_nome_184-14" x1="214.07" y1="27.63" x2="214.07" y2="13.36" xlink:href="#Gradiente_sem_nome_184"/><linearGradient id="Gradiente_sem_nome_184-15" x1="234.52" y1="27.64" x2="234.52" y2="13.35" xlink:href="#Gradiente_sem_nome_184"/><linearGradient id="Gradiente_sem_nome_184-16" x1="183.4" y1="28.69" x2="183.4" y2="14.37" xlink:href="#Gradiente_sem_nome_184"/><linearGradient id="Gradiente_sem_nome_184-17" x1="265.19" y1="28.7" x2="265.19" y2="14.39" xlink:href="#Gradiente_sem_nome_184"/><linearGradient id="Gradiente_sem_nome_184-18" x1="203.85" y1="28.68" x2="203.85" y2="14.46" xlink:href="#Gradiente_sem_nome_184"/><linearGradient id="Gradiente_sem_nome_184-19" x1="244.75" y1="28.67" x2="244.75" y2="14.39" xlink:href="#Gradiente_sem_nome_184"/><linearGradient id="Gradiente_sem_nome_184-20" x1="224.3" y1="28.64" x2="224.3" y2="14.47" xlink:href="#Gradiente_sem_nome_184"/><linearGradient id="Gradiente_sem_nome_184-21" x1="295.92" y1="27.65" x2="295.92" y2="13.41" xlink:href="#Gradiente_sem_nome_184"/><linearGradient id="Gradiente_sem_nome_184-22" x1="357.21" y1="27.64" x2="357.21" y2="13.4" xlink:href="#Gradiente_sem_nome_184"/><linearGradient id="Gradiente_sem_nome_184-23" x1="377.66" y1="27.67" x2="377.66" y2="13.39" xlink:href="#Gradiente_sem_nome_184"/><linearGradient id="Gradiente_sem_nome_184-24" x1="316.31" y1="27.63" x2="316.31" y2="13.36" xlink:href="#Gradiente_sem_nome_184"/><linearGradient id="Gradiente_sem_nome_184-25" x1="336.76" y1="27.64" x2="336.76" y2="13.35" xlink:href="#Gradiente_sem_nome_184"/><linearGradient id="Gradiente_sem_nome_184-26" x1="285.64" y1="28.69" x2="285.64" y2="14.37" xlink:href="#Gradiente_sem_nome_184"/><linearGradient id="Gradiente_sem_nome_184-27" x1="367.43" y1="28.7" x2="367.43" y2="14.39" xlink:href="#Gradiente_sem_nome_184"/><linearGradient id="Gradiente_sem_nome_184-28" x1="306.09" y1="28.68" x2="306.09" y2="14.46" xlink:href="#Gradiente_sem_nome_184"/><linearGradient id="Gradiente_sem_nome_184-29" x1="346.99" y1="28.67" x2="346.99" y2="14.39" xlink:href="#Gradiente_sem_nome_184"/><linearGradient id="Gradiente_sem_nome_184-30" x1="326.54" y1="28.64" x2="326.54" y2="14.47" xlink:href="#Gradiente_sem_nome_184"/><linearGradient id="Gradiente_sem_nome_184-31" x1="398.16" y1="27.65" x2="398.16" y2="13.41" xlink:href="#Gradiente_sem_nome_184"/><linearGradient id="Gradiente_sem_nome_184-32" x1="459.45" y1="27.64" x2="459.45" y2="13.4" xlink:href="#Gradiente_sem_nome_184"/><linearGradient id="Gradiente_sem_nome_184-33" x1="479.9" y1="27.67" x2="479.9" y2="13.39" xlink:href="#Gradiente_sem_nome_184"/><linearGradient id="Gradiente_sem_nome_184-34" x1="418.55" y1="27.63" x2="418.55" y2="13.36" xlink:href="#Gradiente_sem_nome_184"/><linearGradient id="Gradiente_sem_nome_184-35" x1="439" y1="27.64" x2="439" y2="13.35" xlink:href="#Gradiente_sem_nome_184"/><linearGradient id="Gradiente_sem_nome_184-36" x1="387.88" y1="28.69" x2="387.88" y2="14.37" xlink:href="#Gradiente_sem_nome_184"/><linearGradient id="Gradiente_sem_nome_184-37" x1="469.67" y1="28.7" x2="469.67" y2="14.39" xlink:href="#Gradiente_sem_nome_184"/><linearGradient id="Gradiente_sem_nome_184-38" x1="408.33" y1="28.68" x2="408.33" y2="14.46" xlink:href="#Gradiente_sem_nome_184"/><linearGradient id="Gradiente_sem_nome_184-39" x1="449.23" y1="28.67" x2="449.23" y2="14.39" xlink:href="#Gradiente_sem_nome_184"/><linearGradient id="Gradiente_sem_nome_184-40" x1="428.78" y1="28.64" x2="428.78" y2="14.47" xlink:href="#Gradiente_sem_nome_184"/><linearGradient id="Gradiente_sem_nome_184-41" x1="500.4" y1="27.65" x2="500.4" y2="13.41" xlink:href="#Gradiente_sem_nome_184"/><linearGradient id="Gradiente_sem_nome_184-42" x1="561.69" y1="27.64" x2="561.69" y2="13.4" xlink:href="#Gradiente_sem_nome_184"/><linearGradient id="Gradiente_sem_nome_184-43" x1="582.14" y1="27.67" x2="582.14" y2="13.39" xlink:href="#Gradiente_sem_nome_184"/><linearGradient id="Gradiente_sem_nome_184-44" x1="520.79" y1="27.63" x2="520.79" y2="13.36" xlink:href="#Gradiente_sem_nome_184"/><linearGradient id="Gradiente_sem_nome_184-45" x1="541.24" y1="27.64" x2="541.24" y2="13.35" xlink:href="#Gradiente_sem_nome_184"/><linearGradient id="Gradiente_sem_nome_184-46" x1="490.12" y1="28.69" x2="490.12" y2="14.37" xlink:href="#Gradiente_sem_nome_184"/><linearGradient id="Gradiente_sem_nome_184-47" x1="909.63" y1="27.65" x2="909.63" y2="13.41" xlink:href="#Gradiente_sem_nome_184"/><linearGradient id="Gradiente_sem_nome_184-48" x1="970.92" y1="27.64" x2="970.92" y2="13.4" xlink:href="#Gradiente_sem_nome_184"/><linearGradient id="Gradiente_sem_nome_184-49" x1="991.37" y1="27.67" x2="991.37" y2="13.39" xlink:href="#Gradiente_sem_nome_184"/><linearGradient id="Gradiente_sem_nome_184-50" x1="930.03" y1="27.63" x2="930.03" y2="13.36" xlink:href="#Gradiente_sem_nome_184"/><linearGradient id="Gradiente_sem_nome_184-51" x1="950.48" y1="27.64" x2="950.48" y2="13.35" xlink:href="#Gradiente_sem_nome_184"/><linearGradient id="Gradiente_sem_nome_184-52" x1="899.36" y1="28.69" x2="899.36" y2="14.37" xlink:href="#Gradiente_sem_nome_184"/><linearGradient id="Gradiente_sem_nome_184-53" x1="981.15" y1="28.7" x2="981.15" y2="14.39" xlink:href="#Gradiente_sem_nome_184"/><linearGradient id="Gradiente_sem_nome_184-54" x1="919.8" y1="28.68" x2="919.8" y2="14.46" xlink:href="#Gradiente_sem_nome_184"/><linearGradient id="Gradiente_sem_nome_184-55" x1="960.7" y1="28.67" x2="960.7" y2="14.39" xlink:href="#Gradiente_sem_nome_184"/><linearGradient id="Gradiente_sem_nome_184-56" x1="940.25" y1="28.64" x2="940.25" y2="14.47" xlink:href="#Gradiente_sem_nome_184"/><linearGradient id="Gradiente_sem_nome_184-57" x1="1011.87" y1="27.65" x2="1011.87" y2="13.41" xlink:href="#Gradiente_sem_nome_184"/><linearGradient id="Gradiente_sem_nome_184-58" x1="1073.16" y1="27.64" x2="1073.16" y2="13.4" xlink:href="#Gradiente_sem_nome_184"/><linearGradient id="Gradiente_sem_nome_184-59" x1="1093.61" y1="27.67" x2="1093.61" y2="13.39" xlink:href="#Gradiente_sem_nome_184"/><linearGradient id="Gradiente_sem_nome_184-60" x1="1032.27" y1="27.63" x2="1032.27" y2="13.36" xlink:href="#Gradiente_sem_nome_184"/><linearGradient id="Gradiente_sem_nome_184-61" x1="1052.72" y1="27.64" x2="1052.72" y2="13.35" xlink:href="#Gradiente_sem_nome_184"/><linearGradient id="Gradiente_sem_nome_184-62" x1="1001.6" y1="28.69" x2="1001.6" y2="14.37" xlink:href="#Gradiente_sem_nome_184"/><linearGradient id="Gradiente_sem_nome_184-63" x1="1083.39" y1="28.7" x2="1083.39" y2="14.39" xlink:href="#Gradiente_sem_nome_184"/><linearGradient id="Gradiente_sem_nome_184-64" x1="1022.04" y1="28.68" x2="1022.04" y2="14.46" xlink:href="#Gradiente_sem_nome_184"/><linearGradient id="Gradiente_sem_nome_184-65" x1="1062.94" y1="28.67" x2="1062.94" y2="14.39" xlink:href="#Gradiente_sem_nome_184"/><linearGradient id="Gradiente_sem_nome_184-66" x1="1042.49" y1="28.64" x2="1042.49" y2="14.47" xlink:href="#Gradiente_sem_nome_184"/><linearGradient id="Gradiente_sem_nome_184-67" x1="1114.11" y1="27.65" x2="1114.11" y2="13.41" xlink:href="#Gradiente_sem_nome_184"/><linearGradient id="Gradiente_sem_nome_184-68" x1="1175.4" y1="27.64" x2="1175.4" y2="13.4" xlink:href="#Gradiente_sem_nome_184"/><linearGradient id="Gradiente_sem_nome_184-69" x1="1195.85" y1="27.67" x2="1195.85" y2="13.39" xlink:href="#Gradiente_sem_nome_184"/><linearGradient id="Gradiente_sem_nome_184-70" x1="1134.51" y1="27.63" x2="1134.51" y2="13.36" xlink:href="#Gradiente_sem_nome_184"/><linearGradient id="Gradiente_sem_nome_184-71" x1="1154.96" y1="27.64" x2="1154.96" y2="13.35" xlink:href="#Gradiente_sem_nome_184"/><linearGradient id="Gradiente_sem_nome_184-72" x1="1103.84" y1="28.69" x2="1103.84" y2="14.37" xlink:href="#Gradiente_sem_nome_184"/><linearGradient id="Gradiente_sem_nome_184-73" x1="1185.63" y1="28.7" x2="1185.63" y2="14.39" xlink:href="#Gradiente_sem_nome_184"/><linearGradient id="Gradiente_sem_nome_184-74" x1="1124.28" y1="28.68" x2="1124.28" y2="14.46" xlink:href="#Gradiente_sem_nome_184"/><linearGradient id="Gradiente_sem_nome_184-75" x1="1165.18" y1="28.67" x2="1165.18" y2="14.39" xlink:href="#Gradiente_sem_nome_184"/><linearGradient id="Gradiente_sem_nome_184-76" x1="1144.73" y1="28.64" x2="1144.73" y2="14.47" xlink:href="#Gradiente_sem_nome_184"/><linearGradient id="Gradiente_sem_nome_184-77" x1="1216.35" y1="27.65" x2="1216.35" y2="13.41" xlink:href="#Gradiente_sem_nome_184"/><linearGradient id="Gradiente_sem_nome_184-78" x1="1277.67" y1="27.64" x2="1277.67" y2="13.4" xlink:href="#Gradiente_sem_nome_184"/><linearGradient id="Gradiente_sem_nome_184-79" x1="1236.75" y1="27.63" x2="1236.75" y2="13.36" xlink:href="#Gradiente_sem_nome_184"/><linearGradient id="Gradiente_sem_nome_184-80" x1="1257.2" y1="27.64" x2="1257.2" y2="13.35" xlink:href="#Gradiente_sem_nome_184"/><linearGradient id="Gradiente_sem_nome_184-81" x1="1206.08" y1="28.69" x2="1206.08" y2="14.37" xlink:href="#Gradiente_sem_nome_184"/><linearGradient id="Gradiente_sem_nome_184-82" x1="1226.52" y1="28.68" x2="1226.52" y2="14.46" xlink:href="#Gradiente_sem_nome_184"/><linearGradient id="Gradiente_sem_nome_184-83" x1="1267.42" y1="28.67" x2="1267.42" y2="14.39" xlink:href="#Gradiente_sem_nome_184"/><linearGradient id="Gradiente_sem_nome_184-84" x1="1246.97" y1="28.64" x2="1246.97" y2="14.47" xlink:href="#Gradiente_sem_nome_184"/><linearGradient id="Gradiente_sem_nome_184-85" x1="571.91" y1="28.7" x2="571.91" y2="14.39" xlink:href="#Gradiente_sem_nome_184"/><linearGradient id="Gradiente_sem_nome_184-86" x1="510.57" y1="28.68" x2="510.57" y2="14.46" xlink:href="#Gradiente_sem_nome_184"/><linearGradient id="Gradiente_sem_nome_184-87" x1="551.47" y1="28.67" x2="551.47" y2="14.39" xlink:href="#Gradiente_sem_nome_184"/><linearGradient id="Gradiente_sem_nome_184-88" x1="531.02" y1="28.64" x2="531.02" y2="14.47" xlink:href="#Gradiente_sem_nome_184"/><linearGradient id="Gradiente_sem_nome_184-89" x1="602.64" y1="27.65" x2="602.64" y2="13.41" xlink:href="#Gradiente_sem_nome_184"/><linearGradient id="Gradiente_sem_nome_184-90" x1="663.93" y1="27.64" x2="663.93" y2="13.4" xlink:href="#Gradiente_sem_nome_184"/><linearGradient id="Gradiente_sem_nome_184-91" x1="684.38" y1="27.67" x2="684.38" y2="13.39" xlink:href="#Gradiente_sem_nome_184"/><linearGradient id="Gradiente_sem_nome_184-92" x1="623.03" y1="27.63" x2="623.03" y2="13.36" xlink:href="#Gradiente_sem_nome_184"/><linearGradient id="Gradiente_sem_nome_184-93" x1="643.48" y1="27.64" x2="643.48" y2="13.35" xlink:href="#Gradiente_sem_nome_184"/><linearGradient id="Gradiente_sem_nome_184-94" x1="592.36" y1="28.69" x2="592.36" y2="14.37" xlink:href="#Gradiente_sem_nome_184"/><linearGradient id="Gradiente_sem_nome_184-95" x1="674.16" y1="28.7" x2="674.16" y2="14.39" xlink:href="#Gradiente_sem_nome_184"/><linearGradient id="Gradiente_sem_nome_184-96" x1="704.83" y1="27.67" x2="704.83" y2="13.39" xlink:href="#Gradiente_sem_nome_184"/><linearGradient id="Gradiente_sem_nome_184-97" x1="694.6" y1="28.7" x2="694.6" y2="14.39" xlink:href="#Gradiente_sem_nome_184"/><linearGradient id="Gradiente_sem_nome_184-98" x1="612.81" y1="28.68" x2="612.81" y2="14.46" xlink:href="#Gradiente_sem_nome_184"/><linearGradient id="Gradiente_sem_nome_184-99" x1="653.71" y1="28.67" x2="653.71" y2="14.39" xlink:href="#Gradiente_sem_nome_184"/><linearGradient id="Gradiente_sem_nome_184-100" x1="633.26" y1="28.64" x2="633.26" y2="14.47" xlink:href="#Gradiente_sem_nome_184"/><radialGradient id="Gradiente_sem_nome_46" cx="386.7" cy="977.98" r="3.54" gradientTransform="translate(-355.77 -1089.82) scale(1.2 1.2)" gradientUnits="userSpaceOnUse"><stop offset="0.46" stop-color="lime"/><stop offset="1" stop-color="#00c500"/></radialGradient><radialGradient id="Gradiente_sem_nome_185" cx="386.7" cy="992.06" r="3.54" gradientTransform="translate(-355.77 -1092.63) scale(1.2 1.2)" gradientUnits="userSpaceOnUse"><stop offset="0" stop-color="aqua"/><stop offset="1" stop-color="#0070ff"/></radialGradient><linearGradient id="Gradiente_sem_nome_10" x1="752.87" y1="113.99" x2="852.39" y2="14.47" gradientTransform="translate(1605.26 128.47) rotate(-180)" gradientUnits="userSpaceOnUse"><stop offset="0" stop-color="#727176"/><stop offset="1" stop-color="#949398"/></linearGradient><linearGradient id="Gradiente_sem_nome_66" x1="188.08" y1="73.12" x2="188.08" y2="80.32" gradientUnits="userSpaceOnUse"><stop offset="0" stop-color="#fff195"/><stop offset="0.47" stop-color="#fff195"/><stop offset="1" stop-color="#1a1a1a"/></linearGradient><linearGradient id="Gradiente_sem_nome_66-2" x1="191.24" y1="73.12" x2="191.24" y2="80.32" xlink:href="#Gradiente_sem_nome_66"/><linearGradient id="Gradiente_sem_nome_66-3" x1="194.41" y1="73.12" x2="194.41" y2="80.32" xlink:href="#Gradiente_sem_nome_66"/><linearGradient id="Gradiente_sem_nome_66-4" x1="197.58" y1="73.12" x2="197.58" y2="80.32" xlink:href="#Gradiente_sem_nome_66"/><linearGradient id="Gradiente_sem_nome_66-5" x1="200.75" y1="73.12" x2="200.75" y2="80.32" xlink:href="#Gradiente_sem_nome_66"/><linearGradient id="Gradiente_sem_nome_66-6" x1="203.92" y1="73.12" x2="203.92" y2="80.32" xlink:href="#Gradiente_sem_nome_66"/><linearGradient id="Gradiente_sem_nome_66-7" x1="207.09" y1="73.12" x2="207.09" y2="80.32" xlink:href="#Gradiente_sem_nome_66"/><linearGradient id="Gradiente_sem_nome_66-8" x1="210.26" y1="73.12" x2="210.26" y2="80.32" xlink:href="#Gradiente_sem_nome_66"/><linearGradient id="Gradiente_sem_nome_66-9" x1="228.08" y1="73.12" x2="228.08" y2="80.32" xlink:href="#Gradiente_sem_nome_66"/><linearGradient id="Gradiente_sem_nome_66-10" x1="231.24" y1="73.12" x2="231.24" y2="80.32" xlink:href="#Gradiente_sem_nome_66"/><linearGradient id="Gradiente_sem_nome_66-11" x1="234.41" y1="73.12" x2="234.41" y2="80.32" xlink:href="#Gradiente_sem_nome_66"/><linearGradient id="Gradiente_sem_nome_66-12" x1="237.58" y1="73.12" x2="237.58" y2="80.32" xlink:href="#Gradiente_sem_nome_66"/><linearGradient id="Gradiente_sem_nome_66-13" x1="240.75" y1="73.12" x2="240.75" y2="80.32" xlink:href="#Gradiente_sem_nome_66"/><linearGradient id="Gradiente_sem_nome_66-14" x1="243.92" y1="73.12" x2="243.92" y2="80.32" xlink:href="#Gradiente_sem_nome_66"/><linearGradient id="Gradiente_sem_nome_66-15" x1="247.09" y1="73.12" x2="247.09" y2="80.32" xlink:href="#Gradiente_sem_nome_66"/><linearGradient id="Gradiente_sem_nome_66-16" x1="250.26" y1="73.12" x2="250.26" y2="80.32" xlink:href="#Gradiente_sem_nome_66"/><linearGradient id="Gradiente_sem_nome_66-17" x1="267.7" y1="73.12" x2="267.7" y2="80.32" xlink:href="#Gradiente_sem_nome_66"/><linearGradient id="Gradiente_sem_nome_66-18" x1="270.87" y1="73.12" x2="270.87" y2="80.32" xlink:href="#Gradiente_sem_nome_66"/><linearGradient id="Gradiente_sem_nome_66-19" x1="274.04" y1="73.12" x2="274.04" y2="80.32" xlink:href="#Gradiente_sem_nome_66"/><linearGradient id="Gradiente_sem_nome_66-20" x1="277.21" y1="73.12" x2="277.21" y2="80.32" xlink:href="#Gradiente_sem_nome_66"/><linearGradient id="Gradiente_sem_nome_66-21" x1="280.38" y1="73.12" x2="280.38" y2="80.32" xlink:href="#Gradiente_sem_nome_66"/><linearGradient id="Gradiente_sem_nome_66-22" x1="283.55" y1="73.12" x2="283.55" y2="80.32" xlink:href="#Gradiente_sem_nome_66"/><linearGradient id="Gradiente_sem_nome_66-23" x1="286.72" y1="73.12" x2="286.72" y2="80.32" xlink:href="#Gradiente_sem_nome_66"/><linearGradient id="Gradiente_sem_nome_66-24" x1="289.89" y1="73.12" x2="289.89" y2="80.32" xlink:href="#Gradiente_sem_nome_66"/><linearGradient id="Gradiente_sem_nome_66-25" x1="308.08" y1="73.12" x2="308.08" y2="80.32" xlink:href="#Gradiente_sem_nome_66"/><linearGradient id="Gradiente_sem_nome_66-26" x1="311.24" y1="73.12" x2="311.24" y2="80.32" xlink:href="#Gradiente_sem_nome_66"/><linearGradient id="Gradiente_sem_nome_66-27" x1="314.41" y1="73.12" x2="314.41" y2="80.32" xlink:href="#Gradiente_sem_nome_66"/><linearGradient id="Gradiente_sem_nome_66-28" x1="317.58" y1="73.12" x2="317.58" y2="80.32" xlink:href="#Gradiente_sem_nome_66"/><linearGradient id="Gradiente_sem_nome_66-29" x1="320.75" y1="73.12" x2="320.75" y2="80.32" xlink:href="#Gradiente_sem_nome_66"/><linearGradient id="Gradiente_sem_nome_66-30" x1="323.92" y1="73.12" x2="323.92" y2="80.32" xlink:href="#Gradiente_sem_nome_66"/><linearGradient id="Gradiente_sem_nome_66-31" x1="327.09" y1="73.12" x2="327.09" y2="80.32" xlink:href="#Gradiente_sem_nome_66"/><linearGradient id="Gradiente_sem_nome_66-32" x1="330.26" y1="73.12" x2="330.26" y2="80.32" xlink:href="#Gradiente_sem_nome_66"/><linearGradient id="Gradiente_sem_nome_66-33" x1="348.08" y1="73.12" x2="348.08" y2="80.32" xlink:href="#Gradiente_sem_nome_66"/><linearGradient id="Gradiente_sem_nome_66-34" x1="351.24" y1="73.12" x2="351.24" y2="80.32" xlink:href="#Gradiente_sem_nome_66"/><linearGradient id="Gradiente_sem_nome_66-35" x1="354.41" y1="73.12" x2="354.41" y2="80.32" xlink:href="#Gradiente_sem_nome_66"/><linearGradient id="Gradiente_sem_nome_66-36" x1="357.58" y1="73.12" x2="357.58" y2="80.32" xlink:href="#Gradiente_sem_nome_66"/><linearGradient id="Gradiente_sem_nome_66-37" x1="360.75" y1="73.12" x2="360.75" y2="80.32" xlink:href="#Gradiente_sem_nome_66"/><linearGradient id="Gradiente_sem_nome_66-38" x1="363.92" y1="73.12" x2="363.92" y2="80.32" xlink:href="#Gradiente_sem_nome_66"/><linearGradient id="Gradiente_sem_nome_66-39" x1="367.09" y1="73.12" x2="367.09" y2="80.32" xlink:href="#Gradiente_sem_nome_66"/><linearGradient id="Gradiente_sem_nome_66-40" x1="370.26" y1="73.12" x2="370.26" y2="80.32" xlink:href="#Gradiente_sem_nome_66"/><linearGradient id="Gradiente_sem_nome_66-41" x1="482.05" y1="73.12" x2="482.05" y2="80.32" xlink:href="#Gradiente_sem_nome_66"/><linearGradient id="Gradiente_sem_nome_66-42" x1="485.21" y1="73.12" x2="485.21" y2="80.32" xlink:href="#Gradiente_sem_nome_66"/><linearGradient id="Gradiente_sem_nome_66-43" x1="488.38" y1="73.12" x2="488.38" y2="80.32" xlink:href="#Gradiente_sem_nome_66"/><linearGradient id="Gradiente_sem_nome_66-44" x1="491.55" y1="73.12" x2="491.55" y2="80.32" xlink:href="#Gradiente_sem_nome_66"/><linearGradient id="Gradiente_sem_nome_66-45" x1="494.72" y1="73.12" x2="494.72" y2="80.32" xlink:href="#Gradiente_sem_nome_66"/><linearGradient id="Gradiente_sem_nome_66-46" x1="497.89" y1="73.12" x2="497.89" y2="80.32" xlink:href="#Gradiente_sem_nome_66"/><linearGradient id="Gradiente_sem_nome_66-47" x1="501.06" y1="73.12" x2="501.06" y2="80.32" xlink:href="#Gradiente_sem_nome_66"/><linearGradient id="Gradiente_sem_nome_66-48" x1="504.23" y1="73.12" x2="504.23" y2="80.32" xlink:href="#Gradiente_sem_nome_66"/><linearGradient id="Gradiente_sem_nome_66-49" x1="522.05" y1="73.12" x2="522.05" y2="80.32" xlink:href="#Gradiente_sem_nome_66"/><linearGradient id="Gradiente_sem_nome_66-50" x1="525.21" y1="73.12" x2="525.21" y2="80.32" xlink:href="#Gradiente_sem_nome_66"/><linearGradient id="Gradiente_sem_nome_66-51" x1="528.38" y1="73.12" x2="528.38" y2="80.32" xlink:href="#Gradiente_sem_nome_66"/><linearGradient id="Gradiente_sem_nome_66-52" x1="531.55" y1="73.12" x2="531.55" y2="80.32" xlink:href="#Gradiente_sem_nome_66"/><linearGradient id="Gradiente_sem_nome_66-53" x1="534.72" y1="73.12" x2="534.72" y2="80.32" xlink:href="#Gradiente_sem_nome_66"/><linearGradient id="Gradiente_sem_nome_66-54" x1="537.89" y1="73.12" x2="537.89" y2="80.32" xlink:href="#Gradiente_sem_nome_66"/><linearGradient id="Gradiente_sem_nome_66-55" x1="541.06" y1="73.12" x2="541.06" y2="80.32" xlink:href="#Gradiente_sem_nome_66"/><linearGradient id="Gradiente_sem_nome_66-56" x1="544.23" y1="73.12" x2="544.23" y2="80.32" xlink:href="#Gradiente_sem_nome_66"/><linearGradient id="Gradiente_sem_nome_66-57" x1="561.67" y1="73.12" x2="561.67" y2="80.32" xlink:href="#Gradiente_sem_nome_66"/><linearGradient id="Gradiente_sem_nome_66-58" x1="564.84" y1="73.12" x2="564.84" y2="80.32" xlink:href="#Gradiente_sem_nome_66"/><linearGradient id="Gradiente_sem_nome_66-59" x1="568.01" y1="73.12" x2="568.01" y2="80.32" xlink:href="#Gradiente_sem_nome_66"/><linearGradient id="Gradiente_sem_nome_66-60" x1="571.18" y1="73.12" x2="571.18" y2="80.32" xlink:href="#Gradiente_sem_nome_66"/><linearGradient id="Gradiente_sem_nome_66-61" x1="574.35" y1="73.12" x2="574.35" y2="80.32" xlink:href="#Gradiente_sem_nome_66"/><linearGradient id="Gradiente_sem_nome_66-62" x1="577.52" y1="73.12" x2="577.52" y2="80.32" xlink:href="#Gradiente_sem_nome_66"/><linearGradient id="Gradiente_sem_nome_66-63" x1="580.69" y1="73.12" x2="580.69" y2="80.32" xlink:href="#Gradiente_sem_nome_66"/><linearGradient id="Gradiente_sem_nome_66-64" x1="583.86" y1="73.12" x2="583.86" y2="80.32" xlink:href="#Gradiente_sem_nome_66"/><linearGradient id="Gradiente_sem_nome_66-65" x1="602.05" y1="73.12" x2="602.05" y2="80.32" xlink:href="#Gradiente_sem_nome_66"/><linearGradient id="Gradiente_sem_nome_66-66" x1="605.21" y1="73.12" x2="605.21" y2="80.32" xlink:href="#Gradiente_sem_nome_66"/><linearGradient id="Gradiente_sem_nome_66-67" x1="608.38" y1="73.12" x2="608.38" y2="80.32" xlink:href="#Gradiente_sem_nome_66"/><linearGradient id="Gradiente_sem_nome_66-68" x1="611.55" y1="73.12" x2="611.55" y2="80.32" xlink:href="#Gradiente_sem_nome_66"/><linearGradient id="Gradiente_sem_nome_66-69" x1="614.72" y1="73.12" x2="614.72" y2="80.32" xlink:href="#Gradiente_sem_nome_66"/><linearGradient id="Gradiente_sem_nome_66-70" x1="617.89" y1="73.12" x2="617.89" y2="80.32" xlink:href="#Gradiente_sem_nome_66"/><linearGradient id="Gradiente_sem_nome_66-71" x1="621.06" y1="73.12" x2="621.06" y2="80.32" xlink:href="#Gradiente_sem_nome_66"/><linearGradient id="Gradiente_sem_nome_66-72" x1="624.23" y1="73.12" x2="624.23" y2="80.32" xlink:href="#Gradiente_sem_nome_66"/><linearGradient id="Gradiente_sem_nome_66-73" x1="642.05" y1="73.12" x2="642.05" y2="80.32" xlink:href="#Gradiente_sem_nome_66"/><linearGradient id="Gradiente_sem_nome_66-74" x1="645.21" y1="73.12" x2="645.21" y2="80.32" xlink:href="#Gradiente_sem_nome_66"/><linearGradient id="Gradiente_sem_nome_66-75" x1="648.38" y1="73.12" x2="648.38" y2="80.32" xlink:href="#Gradiente_sem_nome_66"/><linearGradient id="Gradiente_sem_nome_66-76" x1="651.55" y1="73.12" x2="651.55" y2="80.32" xlink:href="#Gradiente_sem_nome_66"/><linearGradient id="Gradiente_sem_nome_66-77" x1="654.72" y1="73.12" x2="654.72" y2="80.32" xlink:href="#Gradiente_sem_nome_66"/><linearGradient id="Gradiente_sem_nome_66-78" x1="657.89" y1="73.12" x2="657.89" y2="80.32" xlink:href="#Gradiente_sem_nome_66"/><linearGradient id="Gradiente_sem_nome_66-79" x1="661.06" y1="73.12" x2="661.06" y2="80.32" xlink:href="#Gradiente_sem_nome_66"/><linearGradient id="Gradiente_sem_nome_66-80" x1="664.23" y1="73.12" x2="664.23" y2="80.32" xlink:href="#Gradiente_sem_nome_66"/><radialGradient id="Gradiente_sem_nome_46-2" cx="397.76" cy="83.8" r="4.18" gradientTransform="matrix(1, 0, 0, 1, 0, 0)" xlink:href="#Gradiente_sem_nome_46"/><radialGradient id="Gradiente_sem_nome_46-3" cx="411.99" cy="83.8" r="4.18" gradientTransform="matrix(1, 0, 0, 1, 0, 0)" xlink:href="#Gradiente_sem_nome_46"/><radialGradient id="Gradiente_sem_nome_46-4" cx="426.22" cy="83.8" r="4.18" gradientTransform="matrix(1, 0, 0, 1, 0, 0)" xlink:href="#Gradiente_sem_nome_46"/><radialGradient id="Gradiente_sem_nome_46-5" cx="440.45" cy="83.8" r="4.18" gradientTransform="matrix(1, 0, 0, 1, 0, 0)" xlink:href="#Gradiente_sem_nome_46"/><radialGradient id="Gradiente_sem_nome_46-6" cx="454.56" cy="83.8" r="4.18" gradientTransform="matrix(1, 0, 0, 1, 0, 0)" xlink:href="#Gradiente_sem_nome_46"/><radialGradient id="Gradiente_sem_nome_46-7" cx="397.71" cy="98.39" r="4.18" gradientTransform="matrix(1, 0, 0, 1, 0, 0)" xlink:href="#Gradiente_sem_nome_46"/><radialGradient id="Gradiente_sem_nome_46-8" cx="411.82" cy="98.39" r="4.18" gradientTransform="matrix(1, 0, 0, 1, 0, 0)" xlink:href="#Gradiente_sem_nome_46"/><radialGradient id="Gradiente_sem_nome_46-9" cx="426.38" cy="98.39" r="4.18" gradientTransform="matrix(1, 0, 0, 1, 0, 0)" xlink:href="#Gradiente_sem_nome_46"/><radialGradient id="Gradiente_sem_nome_46-10" cx="440.11" cy="98.39" r="4.18" gradientTransform="matrix(1, 0, 0, 1, 0, 0)" xlink:href="#Gradiente_sem_nome_46"/><radialGradient id="Gradiente_sem_nome_46-11" cx="454.56" cy="98.39" r="4.18" gradientTransform="matrix(1, 0, 0, 1, 0, 0)" xlink:href="#Gradiente_sem_nome_46"/></defs><path class="cls-1" d="M0,0V125.19H1368V0ZM36.44,117.31H19a8.13,8.13,0,1,1,0-16.25H36.44a8.13,8.13,0,1,1,0,16.25Zm0-91.94H19A8.13,8.13,0,1,1,19,9.12H36.44a8.13,8.13,0,1,1,0,16.25Zm1313.78,91.94H1332.8a8.13,8.13,0,1,1,0-16.25h17.42a8.13,8.13,0,0,1,0,16.25Zm0-91.94H1332.8a8.13,8.13,0,1,1,0-16.25h17.42a8.13,8.13,0,0,1,0,16.25Z"/><rect class="cls-1" x="53.62" width="1260.77" height="125.19"/><path class="cls-2" d="M98.77,15c-.24.59-.32.88-.46,1.13-1.74,3.12-3.4,6.28-5.24,9.34-1.33,2.22-2,2.23-3.34.09-1.88-3-3.59-6.18-5.36-9.28C83.62,15,84,14,85.46,14c4-.12,7.94-.08,11.9,0C97.85,14,98.33,14.68,98.77,15Z"/><path class="cls-3" d="M152.92,13.92c1.89,0,3.79-.07,5.68,0,1.27.06,1.8.77,1.11,2-1.83,3.31-3.58,6.66-5.51,9.92-.95,1.6-1.75,1.65-2.66.18-2.06-3.29-4-6.68-5.84-10.07-.67-1.22.05-2,1.25-2.05,2-.11,4,0,6,0Z"/><path class="cls-4" d="M173.19,13.92c1.89,0,3.78-.07,5.67,0,1.42.07,2,.88,1.27,2.23-1.82,3.31-3.63,6.63-5.57,9.88-.88,1.48-1.74,1.52-2.68,0-2-3.3-3.9-6.7-5.74-10.11-.69-1.31.27-1.89,1.38-2,1.89-.1,3.78,0,5.67,0Z"/><path class="cls-5" d="M111.61,13.91c1.89,0,3.79-.13,5.66,0s2.27,1,1.37,2.63c-1.7,3.14-3.48,6.24-5.38,9.26-1.09,1.72-1.75,1.71-2.79,0-2-3.22-3.74-6.55-5.58-9.83-.68-1.22-.23-2,1.07-2.05,1.87-.11,3.77,0,5.65,0Z"/><path class="cls-6" d="M132.24,13.91c1.79,0,3.59-.13,5.37,0s2.37.92,1.52,2.56c-1.6,3.08-3.28,6.14-5.1,9.1-1.32,2.12-2,2-3.33-.18-1.81-3.08-3.55-6.2-5.27-9.33-.77-1.42-.48-2,1.15-2.16,1.88-.15,3.78,0,5.66,0Z"/><path class="cls-7" d="M81,28.16c-1.79,0-3.58.09-5.36,0s-2.27-.74-1.46-2.24c1.79-3.32,3.65-6.61,5.62-9.82,1-1.63,1.78-1.61,2.84.13,2,3.23,3.75,6.55,5.55,9.86.67,1.24,0,2-1.23,2-2,.1-4,0-6,0Z"/><path class="cls-8" d="M162.71,28.16c-1.69,0-3.38.09-5.06,0-2-.14-2.38-.79-1.49-2.45,1.68-3.16,3.4-6.29,5.25-9.35,1.15-1.91,1.81-1.92,2.94-.06,1.91,3.14,3.69,6.35,5.43,9.59.83,1.55.47,2.12-1.4,2.25s-3.78,0-5.67,0Z"/><path class="cls-9" d="M101.49,28.14c-1.79,0-3.59.11-5.37,0s-2.21-.82-1.4-2.3c1.73-3.13,3.48-6.25,5.36-9.29,1.28-2.06,2-2.08,3.17-.1,1.84,3.06,3.56,6.2,5.24,9.35.81,1.54.44,2.21-1.34,2.34S103.37,28.14,101.49,28.14Z"/><path class="cls-10" d="M142.46,28.13c-1.79,0-3.59.11-5.37,0s-2.16-.86-1.35-2.37c1.72-3.25,3.5-6.48,5.4-9.62,1-1.66,1.83-1.62,2.82.06,1.87,3.17,3.62,6.41,5.39,9.63.72,1.32.2,2.19-1.22,2.28-1.88.12-3.78,0-5.67,0Z"/><path class="cls-11" d="M121.82,28.11c-1.88,0-3.77.08-5.65,0-1.31-.07-1.74-.84-1.06-2,1.86-3.28,3.66-6.59,5.61-9.82,1-1.66,1.76-1.66,2.81.05,1.91,3.13,3.69,6.35,5.47,9.56.72,1.29.2,2.18-1.23,2.26C125.79,28.19,123.81,28.11,121.82,28.11Z"/><path class="cls-12" d="M201,15c-.24.59-.32.88-.46,1.13-1.74,3.12-3.4,6.28-5.24,9.34-1.33,2.22-2,2.23-3.34.09-1.88-3-3.59-6.18-5.36-9.28-.75-1.29-.35-2.26,1.09-2.3,4-.12,7.94-.08,11.9,0C200.09,14,200.57,14.68,201,15Z"/><path class="cls-13" d="M255.16,13.92c1.9,0,3.79-.07,5.68,0,1.27.06,1.8.77,1.11,2-1.83,3.31-3.58,6.66-5.51,9.92-.95,1.6-1.74,1.65-2.66.18-2.06-3.29-4-6.68-5.84-10.07-.67-1.22.05-2,1.25-2.05,2-.11,4,0,6,0Z"/><path class="cls-14" d="M275.43,13.92c1.89,0,3.78-.07,5.67,0,1.42.07,2,.88,1.27,2.23-1.82,3.31-3.63,6.63-5.57,9.88-.88,1.48-1.74,1.52-2.68,0-2-3.3-3.9-6.7-5.74-10.11-.69-1.31.27-1.89,1.38-2,1.89-.1,3.78,0,5.67,0Z"/><path class="cls-15" d="M213.85,13.91c1.89,0,3.79-.13,5.66,0s2.27,1,1.37,2.63c-1.7,3.14-3.48,6.24-5.38,9.26-1.09,1.72-1.75,1.71-2.79,0-2-3.22-3.74-6.55-5.58-9.83-.68-1.22-.23-2,1.07-2.05,1.88-.11,3.77,0,5.65,0Z"/><path class="cls-16" d="M234.49,13.91c1.78,0,3.58-.13,5.36,0s2.37.92,1.52,2.56c-1.6,3.08-3.28,6.14-5.1,9.1-1.32,2.12-2,2-3.33-.18-1.81-3.08-3.55-6.2-5.27-9.33-.77-1.42-.48-2,1.15-2.16,1.88-.15,3.78,0,5.66,0Z"/><path class="cls-17" d="M183.28,28.16c-1.79,0-3.58.09-5.36,0s-2.27-.74-1.46-2.24c1.79-3.32,3.65-6.61,5.62-9.82,1-1.63,1.78-1.61,2.84.13,2,3.23,3.75,6.55,5.55,9.86.67,1.24,0,2-1.23,2-2,.1-4,0-6,0Z"/><path class="cls-18" d="M265,28.16c-1.69,0-3.38.09-5.06,0-2-.14-2.38-.79-1.49-2.45,1.68-3.16,3.4-6.29,5.25-9.35,1.15-1.91,1.81-1.92,3-.06,1.9,3.14,3.68,6.35,5.42,9.59.83,1.55.47,2.12-1.4,2.25s-3.78,0-5.67,0Z"/><path class="cls-19" d="M203.73,28.14c-1.79,0-3.59.11-5.37,0s-2.21-.82-1.39-2.3c1.72-3.13,3.47-6.25,5.35-9.29,1.28-2.06,2-2.08,3.17-.1,1.84,3.06,3.56,6.2,5.24,9.35.81,1.54.44,2.21-1.34,2.34S205.62,28.14,203.73,28.14Z"/><path class="cls-20" d="M244.7,28.13c-1.79,0-3.59.11-5.37,0s-2.16-.86-1.35-2.37c1.72-3.25,3.5-6.48,5.4-9.62,1-1.66,1.83-1.62,2.82.06,1.87,3.17,3.62,6.41,5.39,9.63.72,1.32.2,2.19-1.22,2.28-1.88.12-3.78,0-5.67,0Z"/><path class="cls-21" d="M224.06,28.11c-1.88,0-3.77.08-5.65,0-1.31-.07-1.74-.84-1.06-2,1.86-3.28,3.66-6.59,5.61-9.82,1-1.66,1.76-1.66,2.81.05,1.91,3.13,3.69,6.35,5.47,9.56.72,1.29.2,2.18-1.23,2.26C228,28.19,226.05,28.11,224.06,28.11Z"/><path class="cls-22" d="M303.25,15c-.24.59-.32.88-.46,1.13-1.74,3.12-3.4,6.28-5.24,9.34-1.33,2.22-2,2.23-3.34.09-1.88-3-3.59-6.18-5.36-9.28C288.1,15,288.5,14,289.94,14c4-.12,7.94-.08,11.9,0C302.34,14,302.81,14.68,303.25,15Z"/><path class="cls-23" d="M357.4,13.92c1.9,0,3.79-.07,5.68,0,1.27.06,1.8.77,1.11,2-1.83,3.31-3.58,6.66-5.51,9.92-.95,1.6-1.74,1.65-2.66.18-2.06-3.29-4-6.68-5.84-10.07-.67-1.22.05-2,1.25-2.05,2-.11,4,0,6,0Z"/><path class="cls-24" d="M377.67,13.92c1.89,0,3.78-.07,5.67,0,1.42.07,2,.88,1.27,2.23-1.82,3.31-3.63,6.63-5.57,9.88-.88,1.48-1.74,1.52-2.68,0-2-3.3-3.9-6.7-5.73-10.11-.7-1.31.26-1.89,1.37-2,1.89-.1,3.78,0,5.67,0Z"/><path class="cls-25" d="M316.09,13.91c1.89,0,3.79-.13,5.66,0s2.27,1,1.37,2.63c-1.7,3.14-3.48,6.24-5.38,9.26-1.09,1.72-1.75,1.71-2.79,0-1.95-3.22-3.74-6.55-5.58-9.83-.68-1.22-.23-2,1.07-2.05,1.88-.11,3.77,0,5.65,0Z"/><path class="cls-26" d="M336.73,13.91c1.78,0,3.59-.13,5.36,0,1.92.18,2.37.92,1.52,2.56-1.6,3.08-3.28,6.14-5.1,9.1-1.32,2.12-2,2-3.32-.18-1.82-3.08-3.56-6.2-5.28-9.33-.77-1.42-.48-2,1.15-2.16,1.88-.15,3.78,0,5.67,0Z"/><path class="cls-27" d="M285.52,28.16c-1.79,0-3.58.09-5.36,0s-2.27-.74-1.46-2.24c1.79-3.32,3.65-6.61,5.62-9.82,1-1.63,1.78-1.61,2.84.13,2,3.23,3.75,6.55,5.55,9.86.67,1.24,0,2-1.23,2-2,.1-4,0-6,0Z"/><path class="cls-28" d="M367.19,28.16c-1.69,0-3.38.09-5.06,0-2-.14-2.38-.79-1.49-2.45,1.68-3.16,3.4-6.29,5.25-9.35,1.15-1.91,1.82-1.92,2.95-.06,1.9,3.14,3.68,6.35,5.42,9.59.83,1.55.47,2.12-1.4,2.25s-3.78,0-5.67,0Z"/><path class="cls-29" d="M306,28.14c-1.79,0-3.59.11-5.37,0s-2.21-.82-1.39-2.3c1.72-3.13,3.47-6.25,5.35-9.29,1.28-2.06,2-2.08,3.17-.1,1.84,3.06,3.56,6.2,5.24,9.35.81,1.54.44,2.21-1.34,2.34S307.86,28.14,306,28.14Z"/><path class="cls-30" d="M346.94,28.13c-1.79,0-3.59.11-5.37,0s-2.16-.86-1.35-2.37c1.72-3.25,3.5-6.48,5.4-9.62,1-1.66,1.83-1.62,2.82.06,1.87,3.17,3.62,6.41,5.39,9.63.72,1.32.21,2.19-1.22,2.28-1.88.12-3.78,0-5.67,0Z"/><path class="cls-31" d="M326.3,28.11c-1.88,0-3.77.08-5.65,0-1.31-.07-1.74-.84-1.06-2,1.86-3.28,3.66-6.59,5.61-9.82,1-1.66,1.76-1.66,2.81.05,1.91,3.13,3.69,6.35,5.47,9.56.72,1.29.2,2.18-1.23,2.26C330.28,28.19,328.29,28.11,326.3,28.11Z"/><path class="cls-32" d="M405.49,15c-.24.59-.32.88-.46,1.13-1.73,3.12-3.4,6.28-5.24,9.34-1.33,2.22-2,2.23-3.34.09-1.88-3-3.59-6.18-5.36-9.28-.75-1.29-.34-2.26,1.09-2.3,4-.12,7.94-.08,11.9,0C404.58,14,405.05,14.68,405.49,15Z"/><path class="cls-33" d="M459.64,13.92c1.9,0,3.79-.07,5.68,0,1.27.06,1.8.77,1.11,2-1.83,3.31-3.58,6.66-5.51,9.92-.95,1.6-1.74,1.65-2.66.18-2.06-3.29-4-6.68-5.84-10.07-.67-1.22.05-2,1.25-2.05,2-.11,4,0,6,0Z"/><path class="cls-34" d="M479.91,13.92c1.89,0,3.78-.07,5.67,0,1.42.07,2,.88,1.27,2.23-1.82,3.31-3.63,6.63-5.57,9.88-.88,1.48-1.74,1.52-2.68,0-2-3.3-3.9-6.7-5.73-10.11-.7-1.31.27-1.89,1.38-2,1.88-.1,3.77,0,5.66,0Z"/><path class="cls-35" d="M418.33,13.91c1.89,0,3.79-.13,5.66,0s2.27,1,1.37,2.63c-1.7,3.14-3.48,6.24-5.38,9.26-1.08,1.72-1.75,1.71-2.79,0-1.95-3.22-3.74-6.55-5.58-9.83-.68-1.22-.23-2,1.07-2.05,1.88-.11,3.77,0,5.65,0Z"/><path class="cls-36" d="M439,13.91c1.78,0,3.59-.13,5.36,0,1.92.18,2.37.92,1.52,2.56-1.6,3.08-3.28,6.14-5.1,9.1-1.32,2.12-2,2-3.32-.18-1.82-3.08-3.56-6.2-5.28-9.33-.77-1.42-.48-2,1.15-2.16,1.88-.15,3.78,0,5.67,0Z"/><path class="cls-37" d="M387.76,28.16c-1.79,0-3.58.09-5.36,0s-2.27-.74-1.46-2.24c1.79-3.32,3.65-6.61,5.62-9.82,1-1.63,1.78-1.61,2.84.13,2,3.23,3.75,6.55,5.55,9.86.67,1.24,0,2-1.22,2-2,.1-4,0-6,0Z"/><path class="cls-38" d="M469.43,28.16c-1.69,0-3.38.09-5.06,0-2-.14-2.38-.79-1.49-2.45,1.68-3.16,3.4-6.29,5.25-9.35,1.15-1.91,1.82-1.92,2.95-.06,1.9,3.14,3.68,6.35,5.42,9.59.83,1.55.47,2.12-1.4,2.25s-3.78,0-5.67,0Z"/><path class="cls-39" d="M408.21,28.14c-1.79,0-3.59.11-5.37,0s-2.21-.82-1.39-2.3c1.72-3.13,3.48-6.25,5.35-9.29,1.28-2.06,2-2.08,3.17-.1,1.84,3.06,3.56,6.2,5.24,9.35.81,1.54.44,2.21-1.34,2.34S410.1,28.14,408.21,28.14Z"/><path class="cls-40" d="M449.18,28.13c-1.79,0-3.59.11-5.37,0s-2.16-.86-1.35-2.37c1.72-3.25,3.5-6.48,5.4-9.62,1-1.66,1.83-1.62,2.82.06,1.87,3.17,3.62,6.41,5.39,9.63.72,1.32.21,2.19-1.22,2.28-1.88.12-3.78,0-5.67,0Z"/><path class="cls-41" d="M428.54,28.11c-1.88,0-3.77.08-5.65,0-1.31-.07-1.74-.84-1.06-2,1.86-3.28,3.66-6.59,5.61-9.82,1-1.66,1.76-1.66,2.81.05,1.91,3.13,3.69,6.35,5.47,9.56.72,1.29.21,2.18-1.23,2.26C432.52,28.19,430.53,28.11,428.54,28.11Z"/><path class="cls-42" d="M507.73,15c-.24.59-.32.88-.46,1.13-1.73,3.12-3.4,6.28-5.24,9.34-1.33,2.22-2,2.23-3.34.09-1.88-3-3.59-6.18-5.36-9.28C492.58,15,493,14,494.42,14c4-.12,7.94-.08,11.9,0C506.82,14,507.29,14.68,507.73,15Z"/><path class="cls-43" d="M561.88,13.92c1.9,0,3.79-.07,5.68,0,1.27.06,1.8.77,1.11,2-1.82,3.31-3.58,6.66-5.51,9.92-.95,1.6-1.74,1.65-2.66.18-2.06-3.29-4-6.68-5.84-10.07-.67-1.22.05-2,1.25-2.05,2-.11,4,0,6,0Z"/><path class="cls-44" d="M582.15,13.92c1.89,0,3.78-.07,5.67,0,1.42.07,2,.88,1.27,2.23-1.82,3.31-3.63,6.63-5.56,9.88-.89,1.48-1.75,1.52-2.69,0-2-3.3-3.9-6.7-5.73-10.11-.7-1.31.27-1.89,1.38-2,1.88-.1,3.77,0,5.66,0Z"/><path class="cls-45" d="M520.57,13.91c1.89,0,3.79-.13,5.66,0s2.27,1,1.37,2.63c-1.7,3.14-3.48,6.24-5.38,9.26-1.08,1.72-1.75,1.71-2.79,0-1.95-3.22-3.73-6.55-5.58-9.83-.68-1.22-.23-2,1.07-2.05,1.88-.11,3.77,0,5.65,0Z"/><path class="cls-46" d="M541.21,13.91c1.79,0,3.59-.13,5.36,0s2.37.92,1.52,2.56c-1.6,3.08-3.28,6.14-5.1,9.1-1.31,2.12-2,2-3.32-.18-1.82-3.08-3.56-6.2-5.28-9.33-.77-1.42-.48-2,1.15-2.16,1.88-.15,3.78,0,5.67,0Z"/><path class="cls-47" d="M490,28.16c-1.79,0-3.58.09-5.36,0s-2.27-.74-1.46-2.24c1.79-3.32,3.65-6.61,5.62-9.82,1-1.63,1.79-1.61,2.84.13,2,3.23,3.75,6.55,5.55,9.86.67,1.24,0,2-1.22,2-2,.1-4,0-6,0Z"/><path class="cls-48" d="M917,15a10.57,10.57,0,0,1-.46,1.13c-1.73,3.12-3.4,6.28-5.23,9.34-1.34,2.22-2,2.23-3.34.09-1.89-3-3.59-6.18-5.37-9.28-.74-1.29-.34-2.26,1.1-2.3,4-.12,7.93-.08,11.9,0C916.05,14,916.53,14.68,917,15Z"/><path class="cls-49" d="M971.12,13.92c1.89,0,3.79-.07,5.67,0,1.28.06,1.81.77,1.11,2-1.82,3.31-3.58,6.66-5.51,9.92-.94,1.6-1.74,1.65-2.66.18-2.05-3.29-4-6.68-5.83-10.07-.68-1.22,0-2,1.24-2.05,2-.11,4,0,6,0Z"/><path class="cls-50" d="M991.38,13.92c1.89,0,3.79-.07,5.67,0,1.42.07,2,.88,1.27,2.23-1.82,3.31-3.63,6.63-5.56,9.88-.89,1.48-1.75,1.52-2.69,0-2-3.3-3.9-6.7-5.73-10.11-.7-1.31.27-1.89,1.38-2,1.88-.1,3.78,0,5.66,0Z"/><path class="cls-51" d="M929.81,13.91c1.88,0,3.78-.13,5.65,0s2.27,1,1.37,2.63c-1.7,3.14-3.47,6.24-5.37,9.26-1.09,1.72-1.76,1.71-2.8,0-1.95-3.22-3.73-6.55-5.58-9.83-.68-1.22-.22-2,1.07-2.05,1.88-.11,3.77,0,5.66,0Z"/><path class="cls-52" d="M950.44,13.91c1.79,0,3.59-.13,5.36,0,1.92.18,2.37.92,1.52,2.56-1.6,3.08-3.27,6.14-5.1,9.1-1.31,2.12-2,2-3.32-.18-1.81-3.08-3.56-6.2-5.27-9.33-.78-1.42-.49-2,1.15-2.16,1.87-.15,3.77,0,5.66,0Z"/><path class="cls-53" d="M899.24,28.16c-1.79,0-3.59.09-5.37,0s-2.27-.74-1.46-2.24c1.79-3.32,3.65-6.61,5.63-9.82,1-1.63,1.78-1.61,2.84.13,2,3.23,3.75,6.55,5.55,9.86.66,1.24,0,2-1.23,2-2,.1-4,0-6,0Z"/><path class="cls-54" d="M980.91,28.16c-1.69,0-3.39.09-5.07,0-2-.14-2.38-.79-1.49-2.45,1.68-3.16,3.41-6.29,5.25-9.35,1.16-1.91,1.82-1.92,2.95-.06,1.9,3.14,3.69,6.35,5.42,9.59.83,1.55.47,2.12-1.4,2.25s-3.77,0-5.66,0Z"/><path class="cls-55" d="M919.68,28.14c-1.79,0-3.59.11-5.36,0s-2.21-.82-1.4-2.3c1.72-3.13,3.48-6.25,5.36-9.29,1.27-2.06,2-2.08,3.16-.1,1.85,3.06,3.57,6.2,5.24,9.35.82,1.54.44,2.21-1.34,2.34S921.57,28.14,919.68,28.14Z"/><path class="cls-56" d="M960.66,28.13c-1.8,0-3.59.11-5.37,0s-2.16-.86-1.36-2.37c1.73-3.25,3.51-6.48,5.41-9.62,1-1.66,1.83-1.62,2.82.06,1.86,3.17,3.62,6.41,5.38,9.63.72,1.32.21,2.19-1.22,2.28-1.88.12-3.78,0-5.66,0Z"/><path class="cls-57" d="M940,28.11c-1.89,0-3.78.08-5.66,0-1.31-.07-1.74-.84-1.05-2,1.85-3.28,3.66-6.59,5.6-9.82,1-1.66,1.76-1.66,2.81.05,1.92,3.13,3.69,6.35,5.48,9.56.72,1.29.2,2.18-1.23,2.26C944,28.19,942,28.11,940,28.11Z"/><path class="cls-58" d="M1019.21,15c-.24.59-.33.88-.47,1.13-1.73,3.12-3.4,6.28-5.23,9.34-1.34,2.22-2,2.23-3.34.09-1.89-3-3.59-6.18-5.37-9.28-.74-1.29-.34-2.26,1.1-2.3,4-.12,7.93-.08,11.9,0C1018.29,14,1018.77,14.68,1019.21,15Z"/><path class="cls-59" d="M1073.36,13.92c1.89,0,3.79-.07,5.67,0,1.28.06,1.81.77,1.11,2-1.82,3.31-3.58,6.66-5.51,9.92-.94,1.6-1.74,1.65-2.66.18-2-3.29-4-6.68-5.83-10.07-.68-1.22,0-2,1.24-2.05,2-.11,4,0,6,0Z"/><path class="cls-60" d="M1093.62,13.92c1.89,0,3.79-.07,5.67,0,1.42.07,2,.88,1.27,2.23-1.82,3.31-3.63,6.63-5.56,9.88-.89,1.48-1.75,1.52-2.69,0-2-3.3-3.89-6.7-5.73-10.11-.7-1.31.27-1.89,1.38-2,1.88-.1,3.78,0,5.66,0Z"/><path class="cls-61" d="M1032.05,13.91c1.88,0,3.78-.13,5.65,0s2.27,1,1.37,2.63c-1.7,3.14-3.47,6.24-5.37,9.26-1.09,1.72-1.76,1.71-2.8,0-2-3.22-3.73-6.55-5.58-9.83-.68-1.22-.22-2,1.07-2.05,1.88-.11,3.77,0,5.66,0Z"/><path class="cls-62" d="M1052.68,13.91c1.79,0,3.59-.13,5.36,0,1.92.18,2.37.92,1.52,2.56-1.6,3.08-3.27,6.14-5.1,9.1-1.31,2.12-2,2-3.32-.18-1.81-3.08-3.56-6.2-5.27-9.33-.78-1.42-.48-2,1.15-2.16,1.87-.15,3.77,0,5.66,0Z"/><path class="cls-63" d="M1001.48,28.16c-1.79,0-3.59.09-5.37,0s-2.27-.74-1.46-2.24c1.79-3.32,3.65-6.61,5.63-9.82,1-1.63,1.78-1.61,2.84.13,2,3.23,3.75,6.55,5.55,9.86.66,1.24,0,2-1.23,2-2,.1-4,0-6,0Z"/><path class="cls-64" d="M1083.15,28.16c-1.69,0-3.39.09-5.07,0-2-.14-2.38-.79-1.49-2.45,1.68-3.16,3.41-6.29,5.25-9.35,1.16-1.91,1.82-1.92,3-.06,1.9,3.14,3.69,6.35,5.42,9.59.83,1.55.47,2.12-1.4,2.25s-3.77,0-5.66,0Z"/><path class="cls-65" d="M1021.92,28.14c-1.79,0-3.59.11-5.36,0s-2.21-.82-1.4-2.3c1.73-3.13,3.48-6.25,5.36-9.29,1.27-2.06,2-2.08,3.16-.1,1.85,3.06,3.57,6.2,5.24,9.35.82,1.54.44,2.21-1.34,2.34S1023.81,28.14,1021.92,28.14Z"/><path class="cls-66" d="M1062.9,28.13c-1.79,0-3.59.11-5.37,0s-2.16-.86-1.36-2.37c1.73-3.25,3.51-6.48,5.41-9.62,1-1.66,1.83-1.62,2.82.06,1.86,3.17,3.62,6.41,5.38,9.63.72,1.32.21,2.19-1.22,2.28-1.88.12-3.77,0-5.66,0Z"/><path class="cls-67" d="M1042.26,28.11c-1.89,0-3.78.08-5.66,0-1.31-.07-1.74-.84-1-2,1.85-3.28,3.66-6.59,5.6-9.82,1-1.66,1.76-1.66,2.81.05,1.92,3.13,3.69,6.35,5.48,9.56.72,1.29.2,2.18-1.23,2.26C1046.23,28.19,1044.24,28.11,1042.26,28.11Z"/><path class="cls-68" d="M1121.45,15c-.24.59-.33.88-.47,1.13-1.73,3.12-3.4,6.28-5.23,9.34-1.34,2.22-2,2.23-3.34.09-1.89-3-3.59-6.18-5.37-9.28-.74-1.29-.34-2.26,1.1-2.3,4-.12,7.93-.08,11.9,0C1120.53,14,1121,14.68,1121.45,15Z"/><path class="cls-69" d="M1175.6,13.92c1.89,0,3.79-.07,5.67,0,1.28.06,1.81.77,1.12,2-1.83,3.31-3.59,6.66-5.52,9.92-.94,1.6-1.74,1.65-2.66.18-2-3.29-4-6.68-5.83-10.07-.68-1.22,0-2,1.24-2.05,2-.11,4,0,6,0Z"/><path class="cls-70" d="M1195.87,13.92c1.88,0,3.78-.07,5.66,0,1.42.07,2,.88,1.27,2.23-1.82,3.31-3.63,6.63-5.56,9.88-.89,1.48-1.75,1.52-2.69,0-2-3.3-3.89-6.7-5.73-10.11-.7-1.31.27-1.89,1.38-2,1.88-.1,3.78,0,5.66,0Z"/><path class="cls-71" d="M1134.29,13.91c1.88,0,3.78-.13,5.65,0s2.27,1,1.37,2.63c-1.7,3.14-3.47,6.24-5.37,9.26-1.09,1.72-1.76,1.71-2.8,0-2-3.22-3.73-6.55-5.58-9.83-.68-1.22-.22-2,1.07-2.05,1.88-.11,3.77,0,5.66,0Z"/><path class="cls-72" d="M1154.92,13.91c1.79,0,3.59-.13,5.36,0,1.92.18,2.37.92,1.52,2.56-1.6,3.08-3.27,6.14-5.1,9.1-1.31,2.12-2,2-3.32-.18-1.81-3.08-3.56-6.2-5.27-9.33-.78-1.42-.48-2,1.15-2.16,1.87-.15,3.77,0,5.66,0Z"/><path class="cls-73" d="M1103.72,28.16c-1.79,0-3.59.09-5.37,0s-2.27-.74-1.46-2.24c1.79-3.32,3.65-6.61,5.63-9.82,1-1.63,1.78-1.61,2.84.13,2,3.23,3.75,6.55,5.55,9.86.67,1.24,0,2-1.23,2-2,.1-4,0-6,0Z"/><path class="cls-74" d="M1185.39,28.16c-1.69,0-3.39.09-5.07,0-2-.14-2.38-.79-1.49-2.45,1.68-3.16,3.41-6.29,5.25-9.35,1.16-1.91,1.82-1.92,3-.06,1.9,3.14,3.69,6.35,5.42,9.59.83,1.55.47,2.12-1.4,2.25s-3.77,0-5.66,0Z"/><path class="cls-75" d="M1124.16,28.14c-1.79,0-3.58.11-5.36,0s-2.21-.82-1.4-2.3c1.73-3.13,3.48-6.25,5.36-9.29,1.27-2.06,2-2.08,3.16-.1,1.85,3.06,3.57,6.2,5.24,9.35.82,1.54.44,2.21-1.34,2.34S1126.05,28.14,1124.16,28.14Z"/><path class="cls-76" d="M1165.14,28.13c-1.79,0-3.59.11-5.37,0s-2.16-.86-1.36-2.37c1.73-3.25,3.51-6.48,5.41-9.62,1-1.66,1.83-1.62,2.82.06,1.86,3.17,3.62,6.41,5.38,9.63.72,1.32.21,2.19-1.22,2.28-1.88.12-3.77,0-5.66,0Z"/><path class="cls-77" d="M1144.5,28.11c-1.89,0-3.78.08-5.66,0-1.31-.07-1.74-.84-1-2,1.85-3.28,3.66-6.59,5.6-9.82,1-1.66,1.76-1.66,2.81.05,1.92,3.13,3.69,6.35,5.48,9.56.72,1.29.2,2.18-1.23,2.26C1148.47,28.19,1146.48,28.11,1144.5,28.11Z"/><path class="cls-78" d="M1223.69,15c-.24.59-.33.88-.47,1.13-1.73,3.12-3.4,6.28-5.23,9.34-1.34,2.22-2,2.23-3.34.09-1.89-3-3.59-6.18-5.37-9.28-.74-1.29-.34-2.26,1.1-2.3,4-.12,7.93-.08,11.9,0C1222.77,14,1223.25,14.68,1223.69,15Z"/><path class="cls-79" d="M1277.86,13.92c1.89,0,3.79-.07,5.67,0,1.28.06,1.81.77,1.12,2-1.83,3.31-3.59,6.66-5.51,9.92-1,1.6-1.75,1.65-2.67.18-2-3.29-4-6.68-5.83-10.07-.68-1.22,0-2,1.25-2.05,2-.11,4,0,6,0Z"/><path class="cls-80" d="M1236.53,13.91c1.88,0,3.78-.13,5.65,0s2.27,1,1.37,2.63c-1.7,3.14-3.47,6.24-5.37,9.26-1.09,1.72-1.76,1.71-2.8,0-2-3.22-3.73-6.55-5.58-9.83-.68-1.22-.22-2,1.07-2.05,1.88-.11,3.77,0,5.66,0Z"/><path class="cls-81" d="M1257.16,13.91c1.79,0,3.59-.13,5.36,0,1.92.18,2.37.92,1.52,2.56-1.6,3.08-3.27,6.14-5.1,9.1-1.31,2.12-2,2-3.32-.18-1.81-3.08-3.56-6.2-5.27-9.33-.78-1.42-.48-2,1.15-2.16,1.87-.15,3.77,0,5.66,0Z"/><path class="cls-82" d="M1206,28.16c-1.79,0-3.59.09-5.37,0s-2.27-.74-1.46-2.24c1.79-3.32,3.65-6.61,5.63-9.82,1-1.63,1.78-1.61,2.84.13,2,3.23,3.75,6.55,5.55,9.86.67,1.24,0,2-1.23,2-2,.1-4,0-6,0Z"/><path class="cls-83" d="M1226.4,28.14c-1.79,0-3.58.11-5.36,0s-2.21-.82-1.4-2.3c1.73-3.13,3.48-6.25,5.36-9.29,1.27-2.06,2-2.08,3.16-.1,1.85,3.06,3.57,6.2,5.24,9.35.82,1.54.44,2.21-1.34,2.34S1228.29,28.14,1226.4,28.14Z"/><path class="cls-84" d="M1267.38,28.13c-1.79,0-3.59.11-5.37,0s-2.16-.86-1.36-2.37c1.73-3.25,3.51-6.48,5.41-9.62,1-1.66,1.83-1.62,2.82.06,1.86,3.17,3.62,6.41,5.38,9.63.72,1.32.21,2.19-1.22,2.28-1.88.12-3.77,0-5.66,0Z"/><path class="cls-85" d="M1246.74,28.11c-1.89,0-3.78.08-5.66,0-1.31-.07-1.74-.84-1-2,1.85-3.28,3.66-6.59,5.6-9.82,1-1.66,1.76-1.66,2.81.05,1.92,3.13,3.69,6.35,5.48,9.56.72,1.29.2,2.18-1.23,2.26C1250.71,28.19,1248.72,28.11,1246.74,28.11Z"/><path class="cls-86" d="M571.67,28.16c-1.69,0-3.38.09-5.06,0-2-.14-2.38-.79-1.49-2.45,1.68-3.16,3.4-6.29,5.25-9.35,1.15-1.91,1.82-1.92,3-.06,1.9,3.14,3.68,6.35,5.42,9.59.83,1.55.47,2.12-1.4,2.25s-3.78,0-5.67,0Z"/><path class="cls-87" d="M510.45,28.14c-1.79,0-3.59.11-5.37,0s-2.21-.82-1.39-2.3c1.72-3.13,3.48-6.25,5.36-9.29,1.27-2.06,2-2.08,3.16-.1,1.84,3.06,3.56,6.2,5.24,9.35.81,1.54.44,2.21-1.34,2.34S512.34,28.14,510.45,28.14Z"/><path class="cls-88" d="M551.42,28.13c-1.79,0-3.59.11-5.37,0s-2.16-.86-1.35-2.37c1.72-3.25,3.5-6.48,5.4-9.62,1-1.66,1.83-1.62,2.83.06,1.86,3.17,3.61,6.41,5.38,9.63.72,1.32.21,2.19-1.22,2.28-1.88.12-3.78,0-5.67,0Z"/><path class="cls-89" d="M530.78,28.11c-1.88,0-3.77.08-5.65,0-1.31-.07-1.74-.84-1.06-2,1.86-3.28,3.66-6.59,5.61-9.82,1-1.66,1.76-1.66,2.81.05,1.91,3.13,3.69,6.35,5.47,9.56.72,1.29.21,2.18-1.23,2.26C534.76,28.19,532.77,28.11,530.78,28.11Z"/><path class="cls-90" d="M610,15c-.24.59-.32.88-.46,1.13-1.73,3.12-3.4,6.28-5.24,9.34-1.33,2.22-2,2.23-3.34.09-1.88-3-3.59-6.18-5.36-9.28-.75-1.29-.34-2.26,1.09-2.3,4-.12,7.94-.08,11.9,0C609.06,14,609.53,14.68,610,15Z"/><path class="cls-91" d="M664.12,13.92c1.9,0,3.79-.07,5.68,0,1.27.06,1.8.77,1.11,2-1.82,3.31-3.58,6.66-5.51,9.92-.95,1.6-1.74,1.65-2.66.18-2.06-3.29-4-6.68-5.84-10.07-.67-1.22.05-2,1.25-2.05,2-.11,4,0,6,0Z"/><path class="cls-92" d="M684.39,13.92c1.89,0,3.78-.07,5.67,0,1.42.07,2,.88,1.27,2.23-1.82,3.31-3.63,6.63-5.56,9.88-.89,1.48-1.75,1.52-2.69,0-2-3.3-3.9-6.7-5.73-10.11-.7-1.31.27-1.89,1.38-2,1.88-.1,3.77,0,5.66,0Z"/><path class="cls-93" d="M622.81,13.91c1.89,0,3.79-.13,5.66,0s2.27,1,1.37,2.63c-1.7,3.14-3.48,6.24-5.38,9.26-1.08,1.72-1.75,1.71-2.79,0-1.95-3.22-3.73-6.55-5.58-9.83-.68-1.22-.23-2,1.07-2.05,1.88-.11,3.77,0,5.65,0Z"/><path class="cls-94" d="M643.45,13.91c1.79,0,3.59-.13,5.36,0,1.92.18,2.37.92,1.52,2.56-1.6,3.08-3.28,6.14-5.1,9.1-1.31,2.12-2,2-3.32-.18-1.82-3.08-3.56-6.2-5.28-9.33-.77-1.42-.48-2,1.15-2.16,1.88-.15,3.78,0,5.67,0Z"/><path class="cls-95" d="M592.24,28.16c-1.79,0-3.58.09-5.36,0s-2.27-.74-1.46-2.24c1.79-3.32,3.65-6.61,5.62-9.82,1-1.63,1.79-1.61,2.84.13,2,3.23,3.75,6.55,5.55,9.86.67,1.24,0,2-1.22,2-2,.1-4,0-6,0Z"/><path class="cls-96" d="M673.91,28.16c-1.69,0-3.38.09-5.06,0-2-.14-2.38-.79-1.49-2.45,1.68-3.16,3.4-6.29,5.25-9.35,1.15-1.91,1.82-1.92,2.95-.06,1.9,3.14,3.68,6.35,5.42,9.59.83,1.55.47,2.12-1.4,2.25s-3.78,0-5.67,0Z"/><path class="cls-97" d="M704.84,13.92c1.89,0,3.78-.07,5.67,0,1.42.07,2,.88,1.27,2.23-1.82,3.31-3.63,6.63-5.57,9.88-.88,1.48-1.74,1.52-2.68,0-2-3.3-3.9-6.7-5.74-10.11-.7-1.31.27-1.89,1.38-2,1.89-.1,3.78,0,5.67,0Z"/><path class="cls-98" d="M694.36,28.16c-1.69,0-3.38.09-5.07,0-2-.14-2.37-.79-1.48-2.45,1.68-3.16,3.4-6.29,5.25-9.35,1.15-1.91,1.81-1.92,2.94-.06,1.91,3.14,3.69,6.35,5.43,9.59.83,1.55.47,2.12-1.4,2.25s-3.78,0-5.67,0Z"/><path class="cls-99" d="M612.69,28.14c-1.79,0-3.59.11-5.37,0s-2.21-.82-1.39-2.3c1.72-3.13,3.48-6.25,5.36-9.29,1.27-2.06,2-2.08,3.16-.1,1.84,3.06,3.56,6.2,5.24,9.35.81,1.54.44,2.21-1.34,2.34S614.58,28.14,612.69,28.14Z"/><path class="cls-100" d="M653.66,28.13c-1.79,0-3.59.11-5.37,0s-2.16-.86-1.35-2.37c1.72-3.25,3.5-6.48,5.4-9.62,1-1.66,1.83-1.62,2.83.06,1.86,3.17,3.61,6.41,5.38,9.63.72,1.32.21,2.19-1.22,2.28-1.88.12-3.78,0-5.67,0Z"/><path class="cls-101" d="M633,28.11c-1.88,0-3.77.08-5.65,0-1.31-.07-1.74-.84-1.06-2,1.86-3.28,3.66-6.59,5.61-9.82,1-1.66,1.76-1.66,2.81.05,1.91,3.13,3.69,6.35,5.47,9.56.72,1.29.21,2.18-1.23,2.26C637,28.19,635,28.11,633,28.11Z"/><rect class="cls-102" x="175.04" y="67.1" width="207.5" height="37.96"/><circle class="cls-103" cx="108.25" cy="83.73" r="4.25"/><circle class="cls-104" cx="108.25" cy="97.82" r="4.25"/><path class="cls-105" d="M1119.28,52.68l-5.87,4.68,3.29,6.89h-5.44l-1.8-4.1c-1.94.7-1.32,2.78-2.15,4.08h-4.93c1.29-5.37,2.55-10.61,3.82-15.92h5c-.57,2.48-1.12,4.88-1.74,7.56,1.54-1.16,2.75-2.58,4.24-3.08S1117.05,52.68,1119.28,52.68Z"/><path class="cls-105" d="M1025.47,64.24h-1.61c1.35-5.37,2.66-10.62,4-15.93h2.48c.94,4.68,1.87,9.34,2.89,14.43l10.21-14.41h2.48c-1.32,5.33-2.62,10.59-3.93,15.9h-1.65c1.22-4.68,2.42-9.25,3.61-13.83l-.25-.15-9.9,14h-1.73c-1-4.77-1.93-9.49-2.9-14.22h-.29C1027.76,54.71,1026.63,59.41,1025.47,64.24Z"/><path class="cls-105" d="M1097.43,48.33c-.35,1.49-.68,2.84-1,4.27h-15.85c.34-1.46.66-2.82,1-4.27Z"/><path class="cls-105" d="M1088.49,64.25h-5.62c.75-3.14,1.49-6.2,2.22-9.27h5.63C1090,58.1,1089.24,61.11,1088.49,64.25Z"/><path class="cls-105" d="M1075.32,52.47c4.44-.17,6.65,3.38,4.77,7.68a7.25,7.25,0,0,1-9.38,4,4.69,4.69,0,0,1-2.62-4.94A7.2,7.2,0,0,1,1075.32,52.47Zm-1.71,10.87c3.07.08,5.46-2.55,5.53-6.09a3.56,3.56,0,0,0-3.85-3.74,6,6,0,0,0-5.64,6.05C1069.55,62,1070.86,63.27,1073.61,63.34Z"/><path class="cls-105" d="M1095.13,64.24l2.21-9.27h5l-2.19,9.27Z"/><path class="cls-105" d="M1050.46,64.23h-1.64c1-3.83,1.86-7.56,2.8-11.38h1.52l-1.23,5.27c3.4-1.4,5.58-4.82,9.15-5.52l.26.44-5.73,4.16c1.29,2.33,2.55,4.6,3.89,7h-1.64c-1.17-2.06-2.34-4.09-3.49-6.12C1051.63,59.15,1050.73,61.42,1050.46,64.23Z"/><path class="cls-105" d="M1062.87,52.84h1.31c-.12.75-.22,1.4-.41,2.61a5.34,5.34,0,0,1,5.49-2.8c-.06.44-.11.83-.16,1.26a6.77,6.77,0,0,1-.82.12c-3,.18-4.55,1.53-5.29,4.55-.45,1.84-.91,3.68-1.39,5.64l-1.57.07C1061,60.4,1061.92,56.66,1062.87,52.84Z"/><path class="cls-105" d="M1103,52.61h-5c.34-1.47.65-2.82,1-4.28h5C1103.64,49.79,1103.31,51.18,1103,52.61Z"/><path class="cls-105" d="M1046.37,64.24h-1.56c1-3.87,1.9-7.63,2.84-11.41h1.54C1048.24,56.68,1047.32,60.41,1046.37,64.24Z"/><path class="cls-105" d="M1056,50.59c-2.39.56-4.65.3-6.43-1.47a7.06,7.06,0,0,1-2.09-6.94C1048.53,47,1051.12,50,1056,50.59Z"/><path class="cls-105" d="M1056.16,48.17a5.49,5.49,0,0,1-6.37-6.58c.72,1.26,1.31,3,2.42,4.11A17.84,17.84,0,0,0,1056.16,48.17Z"/><rect class="cls-1" x="723.88" y="9.19" width="157.5" height="110.08" rx="2.66" transform="translate(1605.26 128.47) rotate(180)"/><path class="cls-106" d="M878.72,119.77H726.54a3.15,3.15,0,0,1-3.16-3.15V11.85a3.16,3.16,0,0,1,3.16-3.16H878.72a3.17,3.17,0,0,1,3.16,3.16V116.62A3.16,3.16,0,0,1,878.72,119.77ZM726.54,9.69a2.16,2.16,0,0,0-2.16,2.16V116.62a2.16,2.16,0,0,0,2.16,2.15H878.72a2.16,2.16,0,0,0,2.16-2.15V11.85a2.16,2.16,0,0,0-2.16-2.16Z"/><rect class="cls-107" x="747.63" y="18.15" width="109.99" height="92.17" rx="2.66" transform="translate(1605.26 128.47) rotate(180)"/><path class="cls-108" d="M855,110.82H750.29a3.17,3.17,0,0,1-3.16-3.16V20.81a3.17,3.17,0,0,1,3.16-3.16H855a3.17,3.17,0,0,1,3.16,3.16v86.85A3.17,3.17,0,0,1,855,110.82ZM750.29,18.65a2.16,2.16,0,0,0-2.16,2.16v86.85a2.16,2.16,0,0,0,2.16,2.16H855a2.16,2.16,0,0,0,2.16-2.16V20.81A2.16,2.16,0,0,0,855,18.65Z"/><path class="cls-105" d="M70.25,63.85H68.81l-1.73-2.34h-1v2.34h-1V57.66h3.69c.64,0,1,.4,1,1.2v1.45c0,.6-.17,1-.5,1.11a3.43,3.43,0,0,1-1,.09ZM68.83,60v-.74c0-.21,0-.35-.13-.41a.45.45,0,0,0-.32-.09H66.13v1.73h2.25a.51.51,0,0,0,.32-.08A.49.49,0,0,0,68.83,60Z"/><path class="cls-105" d="M76.51,62.64c0,.8-.42,1.21-1.26,1.21H71.83V57.66h3.68c.65,0,1,.4,1,1.2v.75c0,.61-.25,1-.74,1,.52.09.77.49.77,1.18Zm-1-2.94v-.59a.4.4,0,0,0-.46-.45H72.81v1.48H75.1A.4.4,0,0,0,75.56,59.7Zm0,2.48v-.47a.66.66,0,0,0-.11-.45.55.55,0,0,0-.37-.1H72.81v1.57H75.1a.55.55,0,0,0,.37-.1A.66.66,0,0,0,75.58,62.18Z"/><path class="cls-105" d="M82.9,62.64a1.48,1.48,0,0,1-.24,1,1,1,0,0,1-.74.22H78.3v-.57a1.42,1.42,0,0,1,.14-.67,1.69,1.69,0,0,1,.4-.45l3-2.64v-.81H79.36V60l-.85-.31v-.8a1.49,1.49,0,0,1,.25-1,1,1,0,0,1,.74-.21h2.21c.44,0,.72.11.84.34a3.58,3.58,0,0,1,.14,1.26,1.9,1.9,0,0,1-.12.77,1.82,1.82,0,0,1-.44.49l-2.52,2.21h2.5v-.91l.79.32Z"/><path class="cls-105" d="M89.45,62.38a2.4,2.4,0,0,1-.2,1.16.89.89,0,0,1-.78.31H85.56a.89.89,0,0,1-.78-.31,2.28,2.28,0,0,1-.2-1.16V59.12a2.24,2.24,0,0,1,.2-1.15.87.87,0,0,1,.78-.31h2.91a.87.87,0,0,1,.78.31,2.35,2.35,0,0,1,.2,1.15Zm-.9.35v-4H85.48v4Z"/><path class="cls-105" d="M94.09,63.85h-.9v-5h-.92V58l1.82-.39Z"/><path class="cls-105" d="M100.54,63.85h-.91v-5h-.92V58l1.83-.39Z"/><path class="cls-105" d="M109.07,62.38a2,2,0,0,1-.23,1.17,1,1,0,0,1-.83.3h-2.72a1,1,0,0,1-.84-.3,2.09,2.09,0,0,1-.23-1.17V57.66h1v5h2.85v-5h1Z"/><path class="cls-105" d="M111.82,63.85H111V58.77h.86Z"/><path class="cls-105" d="M118.74,63.85h-1.12l-.52-1.36h-2.72l-.5,1.36h-1l2.43-6.19h1Zm-2.06-2.47-.92-2.52-1,2.52Z"/><path class="cls-105" d="M124.64,62.38a2,2,0,0,1-.24,1.17,1,1,0,0,1-.84.3H120.9c-.44,0-.73-.11-.86-.34a2.67,2.67,0,0,1-.21-1.29l.88-.27v.73h3V61.27h-2.68a1,1,0,0,1-.84-.3A2.09,2.09,0,0,1,120,59.8v-.68a2.05,2.05,0,0,1,.23-1.16,1,1,0,0,1,.84-.3h2.44a1,1,0,0,1,.84.3,2.16,2.16,0,0,1,.23,1.18l-.88.3v-.7h-2.82v1.33h2.68a1,1,0,0,1,.84.3,2,2,0,0,1,.24,1.16Z"/><path class="cls-105" d="M128,61.27H126V60H128Z"/><path class="cls-105" d="M134.57,63.85h-1.44l-1.73-2.34h-1v2.34h-1V57.66h3.69q1,0,1,1.2v1.45c0,.6-.16,1-.5,1.11a3.3,3.3,0,0,1-1,.09ZM133.15,60v-.74c0-.21,0-.35-.13-.41a.45.45,0,0,0-.32-.09h-2.25v1.73h2.25a.51.51,0,0,0,.32-.08A.49.49,0,0,0,133.15,60Z"/><path class="cls-105" d="M141.76,63.85h-.93V60c0-.14,0-.35,0-.64-.05.15-.14.37-.25.65L139,63.1h-.2L137.18,60a4.54,4.54,0,0,1-.26-.64c0,.25,0,.45,0,.61v3.88h-.81V57.66H137l2,3.74,2-3.74h.8Z"/><path class="cls-105" d="M82,82.79a2.59,2.59,0,0,1-.2,1.23.86.86,0,0,1-.77.31H78.52a.84.84,0,0,1-.76-.31,2.44,2.44,0,0,1-.21-1.23v-5h.91v5.3h2.6v-5.3H82Z"/><path class="cls-105" d="M88.24,82.79A2.44,2.44,0,0,1,88,84a.86.86,0,0,1-.77.31H84.83A.83.83,0,0,1,84,84a3.41,3.41,0,0,1-.19-1.37l.81-.28v.78h2.77v-1.5H85a.86.86,0,0,1-.77-.31A2.44,2.44,0,0,1,84,80.07v-.72a2.4,2.4,0,0,1,.21-1.22.84.84,0,0,1,.77-.32h2.22a.84.84,0,0,1,.77.32,2.54,2.54,0,0,1,.21,1.25l-.81.31V79H84.81v1.4h2.45a.86.86,0,0,1,.77.32,2.43,2.43,0,0,1,.21,1.22Z"/><path class="cls-105" d="M94.41,83.06c0,.85-.39,1.27-1.16,1.27H90.13V77.81H93.5c.58,0,.88.42.88,1.26v.8c0,.64-.23,1-.68,1.1.47.1.71.52.71,1.25ZM93.53,80v-.62c0-.31-.14-.47-.41-.47H91v1.56h2.09C93.39,80.43,93.53,80.27,93.53,80Zm0,2.61v-.49a.71.71,0,0,0-.11-.47.44.44,0,0,0-.33-.11H91v1.66h2.09a.44.44,0,0,0,.33-.11A.72.72,0,0,0,93.56,82.57Z"/><path class="cls-105" d="M138.4,115.89a2.29,2.29,0,0,1-.23,1.23.91.91,0,0,1-.8.32h-2.55a.88.88,0,0,1-.84-.36,3.14,3.14,0,0,1-.2-1.36l.85-.28v.77h2.92v-1.49H135a.93.93,0,0,1-.81-.32,2.3,2.3,0,0,1-.22-1.22v-.72a2.32,2.32,0,0,1,.22-1.23.93.93,0,0,1,.81-.32h2.34a.91.91,0,0,1,.81.33,2.49,2.49,0,0,1,.21,1.24l-.85.32v-.75h-2.7v1.4h2.58a.91.91,0,0,1,.8.32,2.29,2.29,0,0,1,.23,1.23Z"/><path class="cls-105" d="M144.56,112.05h-3.21v1.72h1.73V115h-1.73v2.48h-1v-6.53h4.17Z"/><path class="cls-105" d="M150.22,113.63c0,.84-.31,1.27-.93,1.27H146.7v2.54h-.95v-6.53h3.54c.62,0,.93.43.93,1.27Zm-.93-.38v-.69a.57.57,0,0,0-.12-.43.43.43,0,0,0-.31-.09H146.7v1.73h2.16a.43.43,0,0,0,.31-.09C149.25,113.62,149.29,113.47,149.29,113.25Z"/><path class="cls-105" d="M195.94,59.79q0,1.26-.93,1.26h-2.59v2.54h-.94V57.07H195q.93,0,.93,1.26Zm-.93-.38v-.7a.57.57,0,0,0-.12-.43.48.48,0,0,0-.31-.08h-2.16v1.73h2.16a.43.43,0,0,0,.31-.09A.57.57,0,0,0,195,59.41Z"/><path class="cls-105" d="M202.42,62.05a2.42,2.42,0,0,1-.22,1.23.93.93,0,0,1-.81.31h-3a.91.91,0,0,1-.8-.31,2.32,2.32,0,0,1-.22-1.23V58.61a2.3,2.3,0,0,1,.22-1.22.91.91,0,0,1,.8-.32h3a.93.93,0,0,1,.81.32,2.4,2.4,0,0,1,.22,1.22Zm-1,.32V58.23h-3.17v4.14Z"/><path class="cls-105" d="M208.7,63.59h-4.26V57.07h4.22v1.11H205.4v1.46h1.9v1.11h-1.9v1.62h3.3Z"/><path class="cls-105" d="M243.49,62.05a2.44,2.44,0,0,1-.21,1.23.8.8,0,0,1-.74.31h-2.65a.8.8,0,0,1-.74-.31,2.44,2.44,0,0,1-.21-1.23V58.61a2.43,2.43,0,0,1,.21-1.22.81.81,0,0,1,.74-.32h2.65a.79.79,0,0,1,.76.34,3,3,0,0,1,.19,1.29l-.87.27v-.74h-2.79v4.14h2.79V60.91h-1.46V59.8h2.33Z"/><path class="cls-105" d="M246.26,63.59h-.89V57.07h.89Z"/><path class="cls-105" d="M252.69,62.05a2.44,2.44,0,0,1-.21,1.23.82.82,0,0,1-.75.31h-2.64a.8.8,0,0,1-.74-.31,2.44,2.44,0,0,1-.21-1.23V58.61a2.43,2.43,0,0,1,.21-1.22.81.81,0,0,1,.74-.32h2.64a.8.8,0,0,1,.77.34,3,3,0,0,1,.19,1.29l-.87.27v-.74H249v4.14h2.79V60.91h-1.46V59.8h2.33Z"/><path class="cls-105" d="M258.92,63.59h-1l-.46-1.43H255l-.44,1.43h-.89l2.16-6.52h.86ZM257.09,61l-.83-2.66L255.41,61Z"/><path class="cls-105" d="M264.33,62.32c0,.85-.38,1.27-1.13,1.27h-3.05V57.07h3.29c.57,0,.86.42.86,1.26v.8c0,.64-.22,1-.66,1.1.46.1.69.52.69,1.25Zm-.86-3.1V58.6c0-.31-.13-.47-.41-.47h-2v1.56h2C263.34,59.69,263.47,59.53,263.47,59.22Zm0,2.62v-.5a.71.71,0,0,0-.11-.47.42.42,0,0,0-.33-.11h-2v1.66h2a.42.42,0,0,0,.33-.11A.71.71,0,0,0,263.5,61.84Z"/><path class="cls-105" d="M266.94,63.59h-.89V57.07h.89Z"/><path class="cls-105" d="M272.45,58.23h-1.77v5.36h-.89V58.23H268V57.07h4.42Z"/><path class="cls-105" d="M280.37,63.59h-4V57.07h3.92v1.11h-3v1.46h1.77v1.11H277.3v1.62h3.07Z"/><path class="cls-105" d="M285.57,58.23H283.8v5.36h-.89V58.23h-1.76V57.07h4.42Z"/><path class="cls-105" d="M291.23,63.59h-.89v-2.8h-2.79v2.8h-.89V57.07h.89V59.6h2.79V57.07h.89Z"/><path class="cls-105" d="M297.15,63.59h-4V57.07h3.92v1.11h-3v1.46h1.77v1.11h-1.77v1.62h3.07Z"/><path class="cls-105" d="M303.34,63.59h-1.27l-1.55-2.46h-.85v2.46h-.87V57.07h3.28c.57,0,.86.42.86,1.26v1.54c0,.63-.15,1-.44,1.17a2.7,2.7,0,0,1-.92.09Zm-1.26-4.09v-.79a.62.62,0,0,0-.11-.43.44.44,0,0,0-.29-.08h-2V60h2a.39.39,0,0,0,.29-.09A.62.62,0,0,0,302.08,59.5Z"/><path class="cls-105" d="M309.25,63.59h-.61l-2.81-4a3.55,3.55,0,0,1-.32-.53c0,.42,0,.75,0,1v3.56h-.8V57.07h.6l2.7,3.84a7.9,7.9,0,0,1,.44.71c0-.61,0-1,0-1.12V57.07h.8Z"/><path class="cls-105" d="M315.16,63.59h-4V57.07h3.93v1.11h-3v1.46h1.76v1.11H312.1v1.62h3.06Z"/><path class="cls-105" d="M320.36,58.23h-1.77v5.36h-.89V58.23h-1.76V57.07h4.42Z"/><path class="cls-105" d="M193.08,118.19h-4.44v-6.53H193v1.12h-3.4v1.45h2v1.11h-2V117h3.44Z"/><path class="cls-105" d="M198.91,112.83h-2v5.36h-1v-5.36h-2v-1.17h5Z"/><path class="cls-105" d="M205.26,118.19h-1v-2.81h-3.12v2.81h-1v-6.53h1v2.53h3.12v-2.53h1Z"/><path class="cls-105" d="M210.21,118.19h-.9V112.9h-.92V112l1.82-.42Z"/><path class="cls-105" d="M232.83,118.19h-4.44v-6.53h4.4v1.12h-3.4v1.45h2v1.11h-2V117h3.44Z"/><path class="cls-105" d="M238.66,112.83h-2v5.36h-1v-5.36h-2v-1.17h5Z"/><path class="cls-105" d="M245,118.19h-1v-2.81h-3.12v2.81h-1v-6.53h1v2.53H244v-2.53h1Z"/><path class="cls-105" d="M251.65,116.91a1.65,1.65,0,0,1-.24,1,1,1,0,0,1-.74.23h-3.61v-.6a1.47,1.47,0,0,1,.14-.71,2.08,2.08,0,0,1,.4-.48l3-2.78v-.84h-2.45v1.34l-.85-.33v-.85a1.58,1.58,0,0,1,.25-1,1,1,0,0,1,.74-.23h2.2c.45,0,.73.13.84.37a3.59,3.59,0,0,1,.15,1.33,2.13,2.13,0,0,1-.13.81,2.09,2.09,0,0,1-.43.52L248.36,117h2.5v-1l.79.34Z"/><path class="cls-105" d="M272,118.19h-4.44v-6.53h4.39v1.12h-3.39v1.45h2v1.11h-2V117H272Z"/><path class="cls-105" d="M277.78,112.83h-2v5.36h-1v-5.36h-2v-1.17h4.95Z"/><path class="cls-105" d="M284.14,118.19h-1v-2.81H280v2.81h-1v-6.53h1v2.53h3.12v-2.53h1Z"/><path class="cls-105" d="M290.67,116.78a1.88,1.88,0,0,1-.25,1.14,1,1,0,0,1-.79.27h-2.5c-.46,0-.74-.14-.86-.41a4.79,4.79,0,0,1-.12-1.4l.88-.28V117h2.32a.36.36,0,0,0,.4-.29s0-.31,0-.77a1,1,0,0,0-.08-.48.39.39,0,0,0-.33-.11H287.9v-1.07h1.29c.21,0,.34-.08.38-.24a3.89,3.89,0,0,0,0-.68.87.87,0,0,0-.09-.48c-.05-.08-.16-.11-.32-.11h-2.12v.8l-.85-.24v-.4a1.65,1.65,0,0,1,.24-1,1,1,0,0,1,.74-.23h2.32c.47,0,.76.15.88.43a5.78,5.78,0,0,1,.1,1.44,1.49,1.49,0,0,1-.21.9,1,1,0,0,1-.62.34c.67.1,1,.55,1,1.33Z"/><path class="cls-105" d="M312.46,118.19H308v-6.53h4.39v1.12H309v1.45h2v1.11h-2V117h3.44Z"/><path class="cls-105" d="M318.28,112.83h-2v5.36h-1v-5.36h-2v-1.17h4.95Z"/><path class="cls-105" d="M324.64,118.19h-1v-2.81h-3.12v2.81h-1v-6.53h1v2.53h3.12v-2.53h1Z"/><path class="cls-105" d="M331.61,116.74h-1v1.52h-.91v-1.52h-3.25v-1.08l3.22-4.07h.94v4.07h1Zm-1.95-1.08v-2.92l-2.34,2.92Z"/><path class="cls-105" d="M352.33,118.19h-4.44v-6.53h4.4v1.12h-3.4v1.45h2v1.11h-2V117h3.44Z"/><path class="cls-105" d="M358.16,112.83h-2v5.36h-1v-5.36h-2v-1.17h5Z"/><path class="cls-105" d="M364.51,118.19h-1v-2.81h-3.12v2.81h-1v-6.53h1v2.53h3.12v-2.53h1Z"/><path class="cls-105" d="M371.34,116.09a2,2,0,0,1-.79,1.84,2.9,2.9,0,0,1-1.57.35,6.24,6.24,0,0,1-2.07-.27l-.22-1.27a8.55,8.55,0,0,0,2.27.35,2.53,2.53,0,0,0,.92-.13.9.9,0,0,0,.54-.93.88.88,0,0,0-.52-.9A2.46,2.46,0,0,0,369,115a12,12,0,0,0-2.32.27l.24-3.62h3.72l-.08,1.12h-3l-.1,1.26a11.73,11.73,0,0,1,1.74-.16C370.63,113.88,371.34,114.61,371.34,116.09Z"/><path class="cls-105" d="M539.22,58.21H536v1.72h1.72v1.19H536v2.47h-.95V57.07h4.13Z"/><path class="cls-105" d="M544.46,63.59h-1.07l-.49-1.43h-2.59l-.47,1.43h-1l2.32-6.52h.92Zm-2-2.6-.87-2.66L540.71,61Z"/><path class="cls-105" d="M550.06,62.05a2.32,2.32,0,0,1-.22,1.23.92.92,0,0,1-.8.31h-2.53c-.42,0-.69-.11-.82-.35a3.2,3.2,0,0,1-.2-1.37l.84-.27v.77h2.89V60.88h-2.55a.91.91,0,0,1-.8-.32,2.44,2.44,0,0,1-.21-1.23v-.72a2.43,2.43,0,0,1,.21-1.22.91.91,0,0,1,.8-.32H549a.9.9,0,0,1,.8.32,2.54,2.54,0,0,1,.21,1.25l-.84.31v-.74h-2.67v1.4H549a.92.92,0,0,1,.8.32,2.3,2.3,0,0,1,.22,1.22Z"/><path class="cls-105" d="M555.82,58.23h-1.89v5.36H553V58.23h-1.87V57.07h4.71Z"/><path class="cls-105" d="M564.27,63.59h-4.22V57.07h4.18v1.11H561v1.46h1.88v1.11H561v1.62h3.27Z"/><path class="cls-105" d="M569.81,58.23h-1.88v5.36H567V58.23H565.1V57.07h4.71Z"/><path class="cls-105" d="M575.86,63.59h-1v-2.8h-3v2.8H571V57.07h.95V59.6h3V57.07h1Z"/><path class="cls-105" d="M582.17,63.59H578V57.07h4.18v1.11H578.9v1.46h1.88v1.11H578.9v1.62h3.27Z"/><path class="cls-105" d="M588.77,63.59h-1.36l-1.65-2.46h-.9v2.46h-.93V57.07h3.5c.61,0,.92.42.92,1.26v1.54q0,.95-.48,1.17a3,3,0,0,1-1,.09Zm-1.34-4.09v-.79a.57.57,0,0,0-.12-.43.48.48,0,0,0-.31-.08h-2.14V60H587a.43.43,0,0,0,.31-.09A.57.57,0,0,0,587.43,59.5Z"/><path class="cls-105" d="M595.08,63.59h-.65l-3-4a3.67,3.67,0,0,1-.34-.53c0,.42,0,.75,0,1v3.56h-.86V57.07h.65l2.87,3.84a5.67,5.67,0,0,1,.47.71c0-.61,0-1,0-1.12V57.07h.86Z"/><path class="cls-105" d="M601.38,63.59h-4.22V57.07h4.18v1.11h-3.23v1.46H600v1.11h-1.89v1.62h3.27Z"/><path class="cls-105" d="M606.93,58.23H605v5.36h-.95V58.23h-1.88V57.07h4.72Z"/><polygon class="cls-106" points="216.23 73.13 182.1 73.13 182.1 92.31 189.11 92.31 189.11 98.81 193.39 98.81 193.39 101.74 205.04 101.74 205.04 98.81 209.32 98.81 209.32 92.31 216.23 92.31 216.23 73.13"/><polygon class="cls-106" points="256.23 73.13 222.1 73.13 222.1 92.31 229.11 92.31 229.11 98.81 233.39 98.81 233.39 101.74 245.04 101.74 245.04 98.81 249.32 98.81 249.32 92.31 256.23 92.31 256.23 73.13"/><polygon class="cls-106" points="296.23 73.13 262.1 73.13 262.1 92.31 269.11 92.31 269.11 98.81 273.39 98.81 273.39 101.74 285.04 101.74 285.04 98.81 289.32 98.81 289.32 92.31 296.23 92.31 296.23 73.13"/><polygon class="cls-106" points="336.23 73.13 302.1 73.13 302.1 92.31 309.11 92.31 309.11 98.81 313.39 98.81 313.39 101.74 325.04 101.74 325.04 98.81 329.32 98.81 329.32 92.31 336.23 92.31 336.23 73.13"/><polygon class="cls-106" points="376.23 73.13 342.1 73.13 342.1 92.31 349.11 92.31 349.11 98.81 353.39 98.81 353.39 101.74 365.04 101.74 365.04 98.81 369.32 98.81 369.32 92.31 376.23 92.31 376.23 73.13"/><rect class="cls-102" x="469.01" y="67.1" width="207.5" height="37.96"/><path class="cls-105" d="M486,118.19h-4.44v-6.53H486v1.12h-3.4v1.45h2v1.11h-2V117H486Z"/><path class="cls-105" d="M491.81,112.83h-2v5.36h-1v-5.36h-2v-1.17h4.95Z"/><path class="cls-105" d="M498.17,118.19h-1v-2.81H494v2.81h-1v-6.53h1v2.53h3.12v-2.53h1Z"/><path class="cls-105" d="M504.89,116.59c0,1.07-.49,1.6-1.47,1.6h-1.81a1.31,1.31,0,0,1-1.1-.41,2.86,2.86,0,0,1-.32-1.6v-.86a4,4,0,0,1,1-3,2.92,2.92,0,0,1,2.2-.85l.31,0,.59,1H504a6,6,0,0,0-1.15.09,1.93,1.93,0,0,0-1.66,1.59,8.53,8.53,0,0,1,1.9-.22,3.93,3.93,0,0,1,.84.07,1.13,1.13,0,0,1,.74.48,2.12,2.12,0,0,1,.23,1.13Zm-.91-.36v-.36a.72.72,0,0,0-.32-.71,2,2,0,0,0-.63-.07,12.79,12.79,0,0,0-1.91.15c0,.11,0,.24,0,.38a2.75,2.75,0,0,0,.13,1.11c.1.19.36.28.76.28h1.2a1.07,1.07,0,0,0,.55-.1A.84.84,0,0,0,504,116.23Z"/><path class="cls-105" d="M525.83,118.19h-4.44v-6.53h4.4v1.12h-3.4v1.45h2v1.11h-2V117h3.44Z"/><path class="cls-105" d="M531.66,112.83h-2v5.36h-1v-5.36h-2v-1.17h4.95Z"/><path class="cls-105" d="M538,118.19h-1v-2.81h-3.12v2.81h-1v-6.53h1v2.53H537v-2.53h1Z"/><path class="cls-105" d="M544.76,112.71l-2.25,5.59h-1.09l2.32-5.52H540.9v1.4l-.91-.24v-2.28h4.77Z"/><path class="cls-105" d="M565.78,118.19h-4.32v-6.53h4.28v1.12h-3.31v1.45h1.93v1.11h-1.93V117h3.35Z"/><path class="cls-105" d="M571.46,112.83h-1.93v5.36h-1v-5.36h-1.92v-1.17h4.83Z"/><path class="cls-105" d="M577.64,118.19h-1v-2.81h-3v2.81h-1v-6.53h1v2.53h3v-2.53h1Z"/><path class="cls-105" d="M584.2,116.78a1.88,1.88,0,0,1-.25,1.14.93.93,0,0,1-.77.27h-2.67a.93.93,0,0,1-.77-.27,1.88,1.88,0,0,1-.25-1.14v-.68c0-.77.3-1.2.89-1.3a.94.94,0,0,1-.7-.6,4.58,4.58,0,0,1-.1-1.26,1.65,1.65,0,0,1,.24-1,.92.92,0,0,1,.72-.23h2.61c.45,0,.74.15.85.43a5.59,5.59,0,0,1,.11,1.44,1.53,1.53,0,0,1-.21.9,1.14,1.14,0,0,1-.59.37c.6.1.89.53.89,1.3Zm-.89-.35V116a1,1,0,0,0-.08-.48c-.05-.08-.16-.11-.32-.11h-2.14c-.15,0-.26,0-.31.11a.85.85,0,0,0-.08.48v.48a.85.85,0,0,0,.08.48.37.37,0,0,0,.31.1h2.14a.37.37,0,0,0,.32-.11A.93.93,0,0,0,583.31,116.43Zm-.09-2.73v-.33a.89.89,0,0,0-.08-.48c0-.08-.16-.11-.32-.11h-2a.37.37,0,0,0-.32.11.89.89,0,0,0-.08.48v.33a.89.89,0,0,0,.08.48.4.4,0,0,0,.32.11h2a.38.38,0,0,0,.32-.11A.89.89,0,0,0,583.22,113.7Z"/><path class="cls-105" d="M605.43,118.19H601v-6.53h4.39v1.12H602v1.45h2v1.11h-2V117h3.44Z"/><path class="cls-105" d="M611.25,112.83h-2v5.36h-1v-5.36h-2v-1.17h5Z"/><path class="cls-105" d="M617.6,118.19h-1v-2.81h-3.12v2.81h-1v-6.53h1v2.53h3.12v-2.53h1Z"/><path class="cls-105" d="M624.29,114.53a4,4,0,0,1-1,3,3,3,0,0,1-2.2.84l-.31,0-.59-1h.27a4.67,4.67,0,0,0,1.63-.21,1.92,1.92,0,0,0,1.19-1.48,8,8,0,0,1-1.9.22,3.72,3.72,0,0,1-.84-.08,1.06,1.06,0,0,1-.74-.48,2.07,2.07,0,0,1-.24-1.12v-.87c0-1.06.49-1.6,1.47-1.6h1.81a1.3,1.3,0,0,1,1.11.42,2.83,2.83,0,0,1,.31,1.59Zm-.91-.33a2.87,2.87,0,0,0-.15-1.17c-.1-.17-.35-.25-.75-.25h-1.19a1,1,0,0,0-.56.11.85.85,0,0,0-.23.69V114a.77.77,0,0,0,.32.74,1.78,1.78,0,0,0,.64.07,12.67,12.67,0,0,0,1.9-.16C623.37,114.45,623.38,114.31,623.38,114.2Z"/><path class="cls-105" d="M642.3,118.19h-4.44v-6.53h4.4v1.12h-3.4v1.45h2v1.11h-2V117h3.44Z"/><path class="cls-105" d="M648.13,112.83h-2v5.36h-1v-5.36h-2v-1.17h5Z"/><path class="cls-105" d="M654.48,118.19h-1v-2.81h-3.12v2.81h-1v-6.53h1v2.53h3.12v-2.53h1Z"/><path class="cls-105" d="M659.43,118.19h-.9V112.9h-.92V112l1.82-.42Z"/><path class="cls-105" d="M667.67,116.64a2.48,2.48,0,0,1-.21,1.22.83.83,0,0,1-.78.33h-2.9a.85.85,0,0,1-.78-.33,2.5,2.5,0,0,1-.2-1.22v-3.43A2.5,2.5,0,0,1,663,112a.85.85,0,0,1,.78-.33h2.9a.83.83,0,0,1,.78.33,2.48,2.48,0,0,1,.21,1.22Zm-.9.37v-4.23H663.7V117Z"/><polygon class="cls-106" points="510.2 73.13 476.07 73.13 476.07 92.31 483.08 92.31 483.08 98.81 487.36 98.81 487.36 101.74 499.01 101.74 499.01 98.81 503.29 98.81 503.29 92.31 510.2 92.31 510.2 73.13"/><polygon class="cls-106" points="550.2 73.13 516.07 73.13 516.07 92.31 523.08 92.31 523.08 98.81 527.36 98.81 527.36 101.74 539.01 101.74 539.01 98.81 543.29 98.81 543.29 92.31 550.2 92.31 550.2 73.13"/><polygon class="cls-106" points="590.2 73.13 556.07 73.13 556.07 92.31 563.08 92.31 563.08 98.81 567.36 98.81 567.36 101.74 579.01 101.74 579.01 98.81 583.29 98.81 583.29 92.31 590.2 92.31 590.2 73.13"/><polygon class="cls-106" points="630.2 73.13 596.07 73.13 596.07 92.31 603.08 92.31 603.08 98.81 607.36 98.81 607.36 101.74 619.01 101.74 619.01 98.81 623.29 98.81 623.29 92.31 630.2 92.31 630.2 73.13"/><polygon class="cls-106" points="670.2 73.13 636.07 73.13 636.07 92.31 643.08 92.31 643.08 98.81 647.36 98.81 647.36 101.74 659.01 101.74 659.01 98.81 663.29 98.81 663.29 92.31 670.2 92.31 670.2 73.13"/><path class="cls-105" d="M398.48,76h-1.31V71h-1.32v-.83l2.63-.4Z"/><path class="cls-105" d="M414.14,74.79a1.18,1.18,0,0,1-.34,1,2,2,0,0,1-1.07.21h-5.21v-.56a1.07,1.07,0,0,1,.2-.67,2.25,2.25,0,0,1,.58-.46l4.28-2.64v-.8h-3.52v1.27l-1.23-.31V71a1.17,1.17,0,0,1,.35-1,1.83,1.83,0,0,1,1.07-.22h3.18c.64,0,1,.12,1.21.35a2.41,2.41,0,0,1,.2,1.26,1.37,1.37,0,0,1-.18.77,2.11,2.11,0,0,1-.62.49l-3.64,2.21H413V74l1.14.32Z"/><path class="cls-105" d="M427.85,74.67a1.35,1.35,0,0,1-.36,1.08,1.92,1.92,0,0,1-1.14.25h-3.6c-.67,0-1.08-.12-1.24-.38a3,3,0,0,1-.18-1.33L422.6,74v.87h3.34c.33,0,.52-.09.57-.28a4.16,4.16,0,0,0,0-.73.6.6,0,0,0-.13-.46.76.76,0,0,0-.47-.1h-2.09v-1h1.86c.3,0,.49-.08.55-.23a2.54,2.54,0,0,0,0-.65.61.61,0,0,0-.12-.45.69.69,0,0,0-.47-.11h-3.06v.77l-1.22-.23V71a1.17,1.17,0,0,1,.34-1,1.85,1.85,0,0,1,1.07-.22h3.35c.67,0,1.09.14,1.26.41a3.56,3.56,0,0,1,.16,1.37,1.06,1.06,0,0,1-.32.85,1.74,1.74,0,0,1-.88.32q1.44.15,1.44,1.26Z"/><path class="cls-105" d="M443.78,74.64h-1.5v1.44H441V74.64h-4.69v-1l4.64-3.86h1.36V73.6h1.5Zm-2.81-1V70.83l-3.39,2.77Z"/><path class="cls-105" d="M457.49,74a1.74,1.74,0,0,1-1.14,1.75,6,6,0,0,1-2.26.33,14.26,14.26,0,0,1-3-.25l-.31-1.2a19,19,0,0,0,3.26.32,5.17,5.17,0,0,0,1.33-.12.89.89,0,0,0,.78-.89.87.87,0,0,0-.75-.85,5.62,5.62,0,0,0-1.28-.11,27.72,27.72,0,0,0-3.34.25l.34-3.43h5.36l-.11,1.06h-4.32l-.15,1.2a24.32,24.32,0,0,1,2.51-.16C456.47,71.91,457.49,72.61,457.49,74Z"/><path class="cls-105" d="M400.52,112.82c0,1-.67,1.52-2,1.52h-2.45a2.11,2.11,0,0,1-1.47-.39,2,2,0,0,1-.44-1.52v-.82a3.25,3.25,0,0,1,1.3-2.82,5.06,5.06,0,0,1,3-.8l.41,0,.8,1h-.37a13,13,0,0,0-1.55.08,2.41,2.41,0,0,0-2.24,1.51,16.48,16.48,0,0,1,2.57-.21,7,7,0,0,1,1.13.07,1.59,1.59,0,0,1,1,.46,1.54,1.54,0,0,1,.32,1.07Zm-1.24-.34v-.34a.62.62,0,0,0-.43-.67,3.1,3.1,0,0,0-.85-.07,25.66,25.66,0,0,0-2.57.14,1.86,1.86,0,0,0,0,.36,2,2,0,0,0,.18,1.06c.14.17.49.26,1,.26h1.61a1.91,1.91,0,0,0,.75-.1A.65.65,0,0,0,399.28,112.48Z"/><path class="cls-105" d="M414.3,109.14l-3.24,5.31h-1.57l3.33-5.25h-4.09v1.33l-1.31-.23v-2.16h6.88Z"/><path class="cls-105" d="M428.2,113a1.33,1.33,0,0,1-.35,1.08,1.7,1.7,0,0,1-1.08.26H423a1.74,1.74,0,0,1-1.08-.26,1.37,1.37,0,0,1-.34-1.08v-.64c0-.73.42-1.14,1.25-1.24a1.28,1.28,0,0,1-1-.56,3.33,3.33,0,0,1-.13-1.2,1.21,1.21,0,0,1,.33-1,1.71,1.71,0,0,1,1-.22h3.66c.63,0,1,.14,1.19.41a3.64,3.64,0,0,1,.15,1.37,1.1,1.1,0,0,1-.3.85,1.7,1.7,0,0,1-.82.35c.84.1,1.25.51,1.25,1.24Zm-1.25-.33v-.46c0-.23,0-.38-.11-.45a.61.61,0,0,0-.44-.11h-3a.64.64,0,0,0-.45.11.66.66,0,0,0-.11.45v.46a.63.63,0,0,0,.11.45.71.71,0,0,0,.45.1h3a.66.66,0,0,0,.43-.1A.61.61,0,0,0,427,112.67Zm-.12-2.59v-.32a.61.61,0,0,0-.12-.45.65.65,0,0,0-.44-.11h-2.74a.7.7,0,0,0-.45.11.61.61,0,0,0-.12.45v.32a.61.61,0,0,0,.12.45.7.7,0,0,0,.45.11h2.74a.65.65,0,0,0,.44-.11A.61.61,0,0,0,426.83,110.08Z"/><path class="cls-105" d="M442.12,110.87a3.31,3.31,0,0,1-1.24,2.82,4.55,4.55,0,0,1-2.81.79h-.39l-.75-1h.35a8,8,0,0,0,2.07-.19,2.08,2.08,0,0,0,1.52-1.4,14.82,14.82,0,0,1-2.42.2,6.42,6.42,0,0,1-1.08-.07,1.52,1.52,0,0,1-.94-.46,1.6,1.6,0,0,1-.3-1.06v-.83c0-1,.62-1.52,1.87-1.52h2.32a2,2,0,0,1,1.41.4,2.18,2.18,0,0,1,.39,1.51Zm-1.15-.31a2,2,0,0,0-.2-1.11c-.12-.17-.44-.25-.95-.25H438.3a1.65,1.65,0,0,0-.71.11.68.68,0,0,0-.3.66v.35a.65.65,0,0,0,.4.69,2.94,2.94,0,0,0,.82.07,22.49,22.49,0,0,0,2.42-.15A3.15,3.15,0,0,0,441,110.56Z"/><path class="cls-105" d="M449.84,114.34h-1v-5h-1v-.83l2-.39Z"/><path class="cls-105" d="M458.76,112.87a2.14,2.14,0,0,1-.22,1.16,1,1,0,0,1-.84.31h-3.15a1,1,0,0,1-.84-.31,2.14,2.14,0,0,1-.22-1.16v-3.26a2.08,2.08,0,0,1,.22-1.15,1,1,0,0,1,.84-.32h3.15a1,1,0,0,1,.84.32,2.08,2.08,0,0,1,.22,1.15Zm-1,.35v-4h-3.33v4Z"/><polygon class="cls-105" points="474.29 117.75 388.11 117.75 388.11 111.25 389.11 111.25 389.11 116.75 474.29 116.75 474.29 117.75"/><polygon class="cls-105" points="463.17 68.74 462.17 68.74 462.17 63.24 376.98 63.24 376.98 62.24 463.17 62.24 463.17 68.74"/><rect x="72.79" y="90.95" width="25.92" height="19.65"/><rect class="cls-109" x="634.04" y="62.6" width="38.58" height="4.5"/><rect class="cls-109" x="634.04" y="105.06" width="38.58" height="3.2"/><path id="path2821" class="cls-109" d="M655.29,54.81a.33.33,0,0,0-.47-.05l-1.05.83-.51-.65a.12.12,0,0,0-.16,0l-1,.79a2.27,2.27,0,0,0-.63,2.77l-1.66,1.32a.49.49,0,0,0,.61.77l1.66-1.31a2.27,2.27,0,0,0,2.84,0l1-.79a.12.12,0,0,0,0-.16l-.51-.65,1.05-.83a.33.33,0,0,0-.41-.52l-1.05.83-.84-1,1.05-.84a.32.32,0,0,0,.06-.46Z"/><rect class="cls-110" x="187.42" y="73.12" width="1.32" height="7.2"/><rect class="cls-111" x="190.59" y="73.12" width="1.32" height="7.2"/><rect class="cls-112" x="193.76" y="73.12" width="1.32" height="7.2"/><rect class="cls-113" x="196.92" y="73.12" width="1.32" height="7.2"/><rect class="cls-114" x="200.09" y="73.12" width="1.32" height="7.2"/><rect class="cls-115" x="203.26" y="73.12" width="1.32" height="7.2"/><rect class="cls-116" x="206.43" y="73.12" width="1.32" height="7.2"/><rect class="cls-117" x="209.6" y="73.12" width="1.32" height="7.2"/><rect class="cls-118" x="227.42" y="73.12" width="1.32" height="7.2"/><rect class="cls-119" x="230.59" y="73.12" width="1.32" height="7.2"/><rect class="cls-120" x="233.76" y="73.12" width="1.32" height="7.2"/><rect class="cls-121" x="236.92" y="73.12" width="1.32" height="7.2"/><rect class="cls-122" x="240.09" y="73.12" width="1.32" height="7.2"/><rect class="cls-123" x="243.26" y="73.12" width="1.32" height="7.2"/><rect class="cls-124" x="246.43" y="73.12" width="1.32" height="7.2"/><rect class="cls-125" x="249.6" y="73.12" width="1.32" height="7.2"/><rect class="cls-126" x="267.04" y="73.12" width="1.32" height="7.2"/><rect class="cls-127" x="270.21" y="73.12" width="1.32" height="7.2"/><rect class="cls-128" x="273.38" y="73.12" width="1.32" height="7.2"/><rect class="cls-129" x="276.55" y="73.12" width="1.32" height="7.2"/><rect class="cls-130" x="279.72" y="73.12" width="1.32" height="7.2"/><rect class="cls-131" x="282.89" y="73.12" width="1.32" height="7.2"/><rect class="cls-132" x="286.06" y="73.12" width="1.32" height="7.2"/><rect class="cls-133" x="289.23" y="73.12" width="1.32" height="7.2"/><rect class="cls-134" x="307.42" y="73.12" width="1.32" height="7.2"/><rect class="cls-135" x="310.59" y="73.12" width="1.32" height="7.2"/><rect class="cls-136" x="313.76" y="73.12" width="1.32" height="7.2"/><rect class="cls-137" x="316.92" y="73.12" width="1.32" height="7.2"/><rect class="cls-138" x="320.09" y="73.12" width="1.32" height="7.2"/><rect class="cls-139" x="323.26" y="73.12" width="1.32" height="7.2"/><rect class="cls-140" x="326.43" y="73.12" width="1.32" height="7.2"/><rect class="cls-141" x="329.6" y="73.12" width="1.32" height="7.2"/><rect class="cls-142" x="347.42" y="73.12" width="1.32" height="7.2"/><rect class="cls-143" x="350.59" y="73.12" width="1.32" height="7.2"/><rect class="cls-144" x="353.76" y="73.12" width="1.32" height="7.2"/><rect class="cls-145" x="356.92" y="73.12" width="1.32" height="7.2"/><rect class="cls-146" x="360.09" y="73.12" width="1.32" height="7.2"/><rect class="cls-147" x="363.26" y="73.12" width="1.32" height="7.2"/><rect class="cls-148" x="366.43" y="73.12" width="1.32" height="7.2"/><rect class="cls-149" x="369.6" y="73.12" width="1.32" height="7.2"/><rect class="cls-150" x="481.39" y="73.12" width="1.32" height="7.2"/><rect class="cls-151" x="484.56" y="73.12" width="1.32" height="7.2"/><rect class="cls-152" x="487.73" y="73.12" width="1.32" height="7.2"/><rect class="cls-153" x="490.89" y="73.12" width="1.32" height="7.2"/><rect class="cls-154" x="494.06" y="73.12" width="1.32" height="7.2"/><rect class="cls-155" x="497.23" y="73.12" width="1.32" height="7.2"/><rect class="cls-156" x="500.4" y="73.12" width="1.32" height="7.2"/><rect class="cls-157" x="503.57" y="73.12" width="1.32" height="7.2"/><rect class="cls-158" x="521.39" y="73.12" width="1.32" height="7.2"/><rect class="cls-159" x="524.56" y="73.12" width="1.32" height="7.2"/><rect class="cls-160" x="527.73" y="73.12" width="1.32" height="7.2"/><rect class="cls-161" x="530.89" y="73.12" width="1.32" height="7.2"/><rect class="cls-162" x="534.06" y="73.12" width="1.32" height="7.2"/><rect class="cls-163" x="537.23" y="73.12" width="1.32" height="7.2"/><rect class="cls-164" x="540.4" y="73.12" width="1.32" height="7.2"/><rect class="cls-165" x="543.57" y="73.12" width="1.32" height="7.2"/><rect class="cls-166" x="561.01" y="73.12" width="1.32" height="7.2"/><rect class="cls-167" x="564.18" y="73.12" width="1.32" height="7.2"/><rect class="cls-168" x="567.35" y="73.12" width="1.32" height="7.2"/><rect class="cls-169" x="570.52" y="73.12" width="1.32" height="7.2"/><rect class="cls-170" x="573.69" y="73.12" width="1.32" height="7.2"/><rect class="cls-171" x="576.86" y="73.12" width="1.32" height="7.2"/><rect class="cls-172" x="580.03" y="73.12" width="1.32" height="7.2"/><rect class="cls-173" x="583.2" y="73.12" width="1.32" height="7.2"/><rect class="cls-174" x="601.39" y="73.12" width="1.32" height="7.2"/><rect class="cls-175" x="604.56" y="73.12" width="1.32" height="7.2"/><rect class="cls-176" x="607.73" y="73.12" width="1.32" height="7.2"/><rect class="cls-177" x="610.89" y="73.12" width="1.32" height="7.2"/><rect class="cls-178" x="614.06" y="73.12" width="1.32" height="7.2"/><rect class="cls-179" x="617.23" y="73.12" width="1.32" height="7.2"/><rect class="cls-180" x="620.4" y="73.12" width="1.32" height="7.2"/><rect class="cls-181" x="623.57" y="73.12" width="1.32" height="7.2"/><rect class="cls-182" x="641.39" y="73.12" width="1.32" height="7.2"/><rect class="cls-183" x="644.56" y="73.12" width="1.32" height="7.2"/><rect class="cls-184" x="647.73" y="73.12" width="1.32" height="7.2"/><rect class="cls-185" x="650.89" y="73.12" width="1.32" height="7.2"/><rect class="cls-186" x="654.06" y="73.12" width="1.32" height="7.2"/><rect class="cls-187" x="657.23" y="73.12" width="1.32" height="7.2"/><rect class="cls-188" x="660.4" y="73.12" width="1.32" height="7.2"/><rect class="cls-189" x="663.57" y="73.12" width="1.32" height="7.2"/><rect class="cls-106" x="52.65" width="1.68" height="125.19"/><rect class="cls-190" x="48.9" width="2.75" height="125.19"/><rect x="54.72" width="0.9" height="125.19"/><rect class="cls-106" x="1314.1" width="1.68" height="125.19"/><rect class="cls-190" x="1316.78" width="2.75" height="125.19"/><rect x="1312.8" width="0.9" height="125.19"/><path class="cls-105" d="M1146.31,107.71c-3.11,7-7.9,10.2-15.21,10.32a18.5,18.5,0,0,1-13.72-5l-.22,4.06a17.15,17.15,0,0,1-8.77,0c-2.84-.82-4-3.1-4.33-5.89a56.83,56.83,0,0,1-.33-5.84c0-6,0-12,0-18V85.1h-2.49v32h-6.53v-4.42c-.86.77-1.37,1.22-1.86,1.67-4.09,3.75-8.83,4.54-14,3.1-3.92-1.09-6.12-4-7.1-7.9-.25-1-.37-2.1-.6-3.42-.53,1.16-.93,2.13-1.39,3.07a15,15,0,0,1-13.2,8.78,22.4,22.4,0,0,1-6.83-.54c-6.57-1.62-11-7.13-12-14.45-.8-6-.3-11.67,2.81-16.94a2.35,2.35,0,0,0,.12-.63c-4.61-.64-7.62,1.75-10.2,5.38V117h-6.29V79.85h6.23l.2,4.2a54.07,54.07,0,0,1,5.63-4.26,8.55,8.55,0,0,1,6.79-.52l.21,3.39a18.55,18.55,0,0,1,15.94-3.37c6,1.3,9.68,5.3,12,11V79.79h6.6v2.35q.06,11.51.13,23c0,.13,0,.27,0,.4.26,5.1,3.24,7.52,8.19,6.63,3.58-.64,6.14-2.87,8.32-5.64v-22h-8V79.26h17.22V70.51h6.7v9.06h6v5.29c4.84-5.38,10.49-6.81,16.8-5.75,6.62,1.11,10.7,5.26,13,11.63v-11h6.62v4.12l.38.28c2.21-2.79,4.77-5,8.43-5.4V65.63h6.59V84c4-4.43,8.41-6,13.64-4.9s8.51,4.47,10.63,9.65c3.22-6.81,8.43-9.89,15.48-9.93s12.39,3,15.66,9.7a1.81,1.81,0,0,0,.3-.49c1.19-4.85,4.42-7.44,9-8.51a29.51,29.51,0,0,1,13.09-.07c4.27.93,6.89,3.71,7.9,8a20.38,20.38,0,0,1,.62,4.38c.06,8.07,0,16.15,0,24.23,0,.26,0,.52-.08,1h-6.55V114.1a76.33,76.33,0,0,1-7.38,3.24,16.77,16.77,0,0,1-9.92.09,10.87,10.87,0,0,1-7.75-7.51c-3.79,6.11-9.25,8.44-15.94,8.09s-11.67-3.6-14.62-10.37c-2.2,4.91-5.25,8.58-10.21,9.88a15,15,0,0,1-13.73-2.91l-.25,2.47h-6.5V85.39c-4.14,0-6.62,2.33-8.81,5.39v26.29h-6.5Zm-81.23-9.18a18.67,18.67,0,0,0-1.79-9,9.13,9.13,0,0,0-8.78-5.38,8.8,8.8,0,0,0-8.42,5.58,21,21,0,0,0,0,17.38,8.8,8.8,0,0,0,8.82,5.56c4.1-.06,6.93-2.16,8.65-5.9A19.1,19.1,0,0,0,1065.08,98.53Zm153.34,0a18.66,18.66,0,0,0-1.72-8.81c-1.82-3.59-4.67-5.56-8.68-5.53a8.83,8.83,0,0,0-8.61,5.61,21,21,0,0,0,0,17.38,8.79,8.79,0,0,0,8.84,5.53c4-.07,6.82-2.1,8.55-5.75A19,19,0,0,0,1218.42,98.5Zm-50.15,10a38.64,38.64,0,0,0,4.09,2.87c6.37,3.38,12,.76,13.78-6.37a27.75,27.75,0,0,0,.4-11.4,18.23,18.23,0,0,0-1.71-5.31,7.37,7.37,0,0,0-8.68-3.86c-3.57.84-5.91,3.28-7.88,6.09Zm-22.11-8h-26.65a12.79,12.79,0,0,0,1.63,6.86,9.78,9.78,0,0,0,10,5.35c4.07-.35,7.31-2.09,8.33-6.82h6.66Zm101.71-1.27c-4.26-.15-8.33-.33-12.29.83a11.76,11.76,0,0,0-4,2,5.81,5.81,0,0,0,1.35,10c5.45,2.19,12.78-.73,15-4.88Zm.15-5c-.14-1.9-.19-3.57-.41-5.22a4.61,4.61,0,0,0-4.09-4.29,33.41,33.41,0,0,0-8.36,0,5.44,5.44,0,0,0-4.74,4.74,12.91,12.91,0,0,1-.39,1.26h-5.46c.36,2.92.7,5.65,1,8.48C1232.28,93.92,1240,94.21,1248,94.15Zm-108.25.75c-.83-7-4.88-11-10.76-10.74-5.18.24-9.26,4.84-9.46,10.74ZM1110.41,85v2.19q0,9.68,0,19.35a15,15,0,0,0,.09,2c.47,3.49,2.31,4.55,5.7,3.29-5.28-8.86-5.14-17.8-.24-26.84Z"/><path class="cls-105" d="M1262.81,117.14h-6.48V79.76h6.44v4.13l.33.32c3.14-4.12,7-6.35,12.25-5,.06,1,.11,2,.19,3.24a15.22,15.22,0,0,1,9.7-3.63,15.7,15.7,0,0,1,9.94,3.58V65.61h6.55V117h-6.45v-3.94c-.68.58-1.12.92-1.51,1.31a13.75,13.75,0,0,1-22.23-5.2,27.46,27.46,0,0,1,.9-22.64c.15-.29.29-.58.43-.88-3.44-1.15-7.5,1.17-10.06,5.14Zm32.33-10.8V88.66a13.34,13.34,0,0,0-6-3.94c-5.45-1.77-9.93.5-11.61,6.09a27.62,27.62,0,0,0-1,6.53c-.18,3.64,0,7.28,1.66,10.64,2,4.14,6,5.75,10.28,4.14A14.3,14.3,0,0,0,1295.14,106.34Z"/><path class="cls-105" d="M1166,37.5c1.67,18.18,15.77,29.8,31.14,30.14-5.49,2.7-16.43,2.1-23.9-4.81C1166.21,56.34,1162.91,45,1166,37.5Z"/><path class="cls-105" d="M1174.36,34.75a27.24,27.24,0,0,0,8.09,17,26.52,26.52,0,0,0,16.84,7.41c-7.73,2.19-14.54.55-20.16-5.33C1174,48.47,1172.9,41.91,1174.36,34.75Z"/><rect class="cls-106" x="121.77" y="76.8" width="41.99" height="29.25"/><path class="cls-105" d="M78,97.18H93.52a1.21,1.21,0,0,1,0,.18c0,1.36,0,2.71,0,4.07a.52.52,0,0,1-.12.31c-.76.84-1.53,1.67-2.31,2.5a.39.39,0,0,1-.28.11c-2.6,0-5.21,0-7.82,0-.78,0-1.56,0-2.34,0a.35.35,0,0,1-.24-.1c-.78-.83-1.56-1.67-2.33-2.51a.46.46,0,0,1-.11-.27c0-1.39,0-2.79,0-4.18C78,97.26,78,97.23,78,97.18Zm7.77,1.19H79.37c-.16,0-.21,0-.21.2,0,.8,0,1.59,0,2.38a.48.48,0,0,0,.1.28L81,103.06a.33.33,0,0,0,.23.1h9.15a.3.3,0,0,0,.22-.1c.57-.61,1.13-1.21,1.68-1.83a.43.43,0,0,0,.11-.28c0-.79,0-1.57,0-2.36,0-.18,0-.22-.23-.22Z"/><path class="cls-191" d="M85.75,98.37h6.37c.18,0,.23,0,.23.22,0,.79,0,1.57,0,2.36a.43.43,0,0,1-.11.28c-.55.62-1.11,1.22-1.68,1.83a.3.3,0,0,1-.22.1H81.18a.33.33,0,0,1-.23-.1l-1.68-1.83a.48.48,0,0,1-.1-.28c0-.79,0-1.58,0-2.38,0-.16,0-.2.21-.2Zm-.6,2.38h1.21v-.57H87v.58h1.2v-.59h.59v.58H90v-.59h1.18V99H80.37v1.19h1.2v.58h1.2v-.58h.6v.58h1.19v-.57h.59Z"/><path class="cls-105" d="M85.15,100.75v-.57h-.59v.57H83.37v-.58h-.6v.58h-1.2v-.58h-1.2V99H91.13v1.18H90v.59h-1.2v-.58h-.59v.59H87v-.58h-.6v.57Z"/><rect class="cls-192" x="81.57" y="100.17" width="1.19" height="0.58"/><rect class="cls-192" x="83.37" y="100.17" width="1.19" height="0.58"/><rect class="cls-192" x="85.17" y="100.17" width="1.19" height="0.58"/><rect class="cls-192" x="86.96" y="100.17" width="1.19" height="0.58"/><rect class="cls-192" x="88.76" y="100.17" width="1.19" height="0.58"/><circle class="cls-193" cx="397.76" cy="83.8" r="4.18"/><circle class="cls-194" cx="411.99" cy="83.8" r="4.18"/><circle class="cls-195" cx="426.22" cy="83.8" r="4.18"/><circle class="cls-196" cx="440.45" cy="83.8" r="4.18"/><circle class="cls-197" cx="454.56" cy="83.8" r="4.18"/><circle class="cls-198" cx="397.71" cy="98.39" r="4.18"/><circle class="cls-199" cx="411.82" cy="98.39" r="4.18"/><circle class="cls-200" cx="426.38" cy="98.39" r="4.18"/><circle class="cls-201" cx="440.11" cy="98.39" r="4.18"/><circle class="cls-202" cx="454.56" cy="98.39" r="4.18"/><path class="cls-203" d="M163.17,105.2h-40.8V77.43h40.8Zm-39.8-1h38.8V78.43h-38.8Z"/><rect class="cls-106" x="134.97" y="103.18" width="15.59" height="2.25"/><rect class="cls-203" x="136.17" y="102.96" width="13.2" height="1.8"/></svg>