<svg id="Camada_1" data-name="Camada 1" xmlns="http://www.w3.org/2000/svg" xmlns:xlink="http://www.w3.org/1999/xlink" viewBox="0 0 1368 125.19"><defs><style>.cls-1{fill:#d4d4d4;}.cls-2{fill:url(#Gradiente_sem_nome_185);}.cls-3{fill:url(#Gradiente_sem_nome_46);}.cls-4{fill:#969696;}.cls-5{fill:url(#Gradiente_sem_nome_34);}.cls-6{fill:url(#Gradiente_sem_nome_46-2);}.cls-7{fill:#1a1a1a;}.cls-8{fill:url(#Gradiente_sem_nome_34-2);}.cls-9{fill:url(#Gradiente_sem_nome_46-3);}.cls-10{fill:url(#Gradiente_sem_nome_34-3);}.cls-11{fill:url(#Gradiente_sem_nome_46-4);}.cls-12{fill:url(#Gradiente_sem_nome_34-4);}.cls-13{fill:url(#Gradiente_sem_nome_46-5);}.cls-14{fill:url(#Gradiente_sem_nome_34-5);}.cls-15{fill:url(#Gradiente_sem_nome_46-6);}.cls-16{fill:url(#Gradiente_sem_nome_34-6);}.cls-17{fill:url(#Gradiente_sem_nome_46-7);}.cls-18{fill:url(#Gradiente_sem_nome_34-7);}.cls-19{fill:url(#Gradiente_sem_nome_46-8);}.cls-20{fill:url(#Gradiente_sem_nome_34-8);}.cls-21{fill:url(#Gradiente_sem_nome_46-9);}.cls-22{fill:url(#Gradiente_sem_nome_34-9);}.cls-23{fill:url(#Gradiente_sem_nome_46-10);}.cls-24{fill:url(#Gradiente_sem_nome_34-10);}.cls-25{fill:url(#Gradiente_sem_nome_46-11);}.cls-26{fill:url(#Gradiente_sem_nome_34-11);}.cls-27{fill:url(#Gradiente_sem_nome_46-12);}.cls-28{fill:url(#Gradiente_sem_nome_34-12);}.cls-29{fill:url(#Gradiente_sem_nome_46-13);}.cls-30{fill:#424143;}.cls-31{fill:#fff;}.cls-32{fill:gray;}.cls-33{fill:url(#Gradiente_sem_nome_10);}.cls-34{fill:#666;}.cls-35{fill:url(#Gradiente_sem_nome_66);}.cls-36{fill:url(#Gradiente_sem_nome_66-2);}.cls-37{fill:url(#Gradiente_sem_nome_66-3);}.cls-38{fill:url(#Gradiente_sem_nome_66-4);}.cls-39{fill:url(#Gradiente_sem_nome_66-5);}.cls-40{fill:url(#Gradiente_sem_nome_66-6);}.cls-41{fill:url(#Gradiente_sem_nome_66-7);}.cls-42{fill:url(#Gradiente_sem_nome_66-8);}.cls-43{fill:url(#Gradiente_sem_nome_66-9);}.cls-44{fill:url(#Gradiente_sem_nome_66-10);}.cls-45{fill:url(#Gradiente_sem_nome_66-11);}.cls-46{fill:url(#Gradiente_sem_nome_66-12);}.cls-47{fill:url(#Gradiente_sem_nome_66-13);}.cls-48{fill:url(#Gradiente_sem_nome_66-14);}.cls-49{fill:url(#Gradiente_sem_nome_66-15);}.cls-50{fill:url(#Gradiente_sem_nome_66-16);}.cls-51{fill:url(#Gradiente_sem_nome_66-17);}.cls-52{fill:url(#Gradiente_sem_nome_66-18);}.cls-53{fill:url(#Gradiente_sem_nome_66-19);}.cls-54{fill:url(#Gradiente_sem_nome_66-20);}.cls-55{fill:url(#Gradiente_sem_nome_66-21);}.cls-56{fill:url(#Gradiente_sem_nome_66-22);}.cls-57{fill:url(#Gradiente_sem_nome_66-23);}.cls-58{fill:url(#Gradiente_sem_nome_66-24);}.cls-59{fill:url(#Gradiente_sem_nome_66-25);}.cls-60{fill:url(#Gradiente_sem_nome_66-26);}.cls-61{fill:url(#Gradiente_sem_nome_66-27);}.cls-62{fill:url(#Gradiente_sem_nome_66-28);}.cls-63{fill:url(#Gradiente_sem_nome_66-29);}.cls-64{fill:url(#Gradiente_sem_nome_66-30);}.cls-65{fill:url(#Gradiente_sem_nome_66-31);}.cls-66{fill:url(#Gradiente_sem_nome_66-32);}.cls-67{fill:url(#Gradiente_sem_nome_66-33);}.cls-68{fill:url(#Gradiente_sem_nome_66-34);}.cls-69{fill:url(#Gradiente_sem_nome_66-35);}.cls-70{fill:url(#Gradiente_sem_nome_66-36);}.cls-71{fill:url(#Gradiente_sem_nome_66-37);}.cls-72{fill:url(#Gradiente_sem_nome_66-38);}.cls-73{fill:url(#Gradiente_sem_nome_66-39);}.cls-74{fill:url(#Gradiente_sem_nome_66-40);}.cls-75{fill:url(#Gradiente_sem_nome_66-41);}.cls-76{fill:url(#Gradiente_sem_nome_66-42);}.cls-77{fill:url(#Gradiente_sem_nome_66-43);}.cls-78{fill:url(#Gradiente_sem_nome_66-44);}.cls-79{fill:url(#Gradiente_sem_nome_66-45);}.cls-80{fill:url(#Gradiente_sem_nome_66-46);}.cls-81{fill:url(#Gradiente_sem_nome_66-47);}.cls-82{fill:url(#Gradiente_sem_nome_66-48);}.cls-83{fill:url(#Gradiente_sem_nome_66-49);}.cls-84{fill:url(#Gradiente_sem_nome_66-50);}.cls-85{fill:url(#Gradiente_sem_nome_66-51);}.cls-86{fill:url(#Gradiente_sem_nome_66-52);}.cls-87{fill:url(#Gradiente_sem_nome_66-53);}.cls-88{fill:url(#Gradiente_sem_nome_66-54);}.cls-89{fill:url(#Gradiente_sem_nome_66-55);}.cls-90{fill:url(#Gradiente_sem_nome_66-56);}.cls-91{fill:url(#Gradiente_sem_nome_66-57);}.cls-92{fill:url(#Gradiente_sem_nome_66-58);}.cls-93{fill:url(#Gradiente_sem_nome_66-59);}.cls-94{fill:url(#Gradiente_sem_nome_66-60);}.cls-95{fill:url(#Gradiente_sem_nome_66-61);}.cls-96{fill:url(#Gradiente_sem_nome_66-62);}.cls-97{fill:url(#Gradiente_sem_nome_66-63);}.cls-98{fill:url(#Gradiente_sem_nome_66-64);}.cls-99{fill:url(#Gradiente_sem_nome_66-65);}.cls-100{fill:url(#Gradiente_sem_nome_66-66);}.cls-101{fill:url(#Gradiente_sem_nome_66-67);}.cls-102{fill:url(#Gradiente_sem_nome_66-68);}.cls-103{fill:url(#Gradiente_sem_nome_66-69);}.cls-104{fill:url(#Gradiente_sem_nome_66-70);}.cls-105{fill:url(#Gradiente_sem_nome_66-71);}.cls-106{fill:url(#Gradiente_sem_nome_66-72);}.cls-107{fill:url(#Gradiente_sem_nome_66-73);}.cls-108{fill:url(#Gradiente_sem_nome_66-74);}.cls-109{fill:url(#Gradiente_sem_nome_66-75);}.cls-110{fill:url(#Gradiente_sem_nome_66-76);}.cls-111{fill:url(#Gradiente_sem_nome_66-77);}.cls-112{fill:url(#Gradiente_sem_nome_66-78);}.cls-113{fill:url(#Gradiente_sem_nome_66-79);}.cls-114{fill:url(#Gradiente_sem_nome_66-80);}.cls-115{fill:url(#Gradiente_sem_nome_66-81);}.cls-116{fill:url(#Gradiente_sem_nome_66-82);}.cls-117{fill:url(#Gradiente_sem_nome_66-83);}.cls-118{fill:url(#Gradiente_sem_nome_66-84);}.cls-119{fill:url(#Gradiente_sem_nome_66-85);}.cls-120{fill:url(#Gradiente_sem_nome_66-86);}.cls-121{fill:url(#Gradiente_sem_nome_66-87);}.cls-122{fill:url(#Gradiente_sem_nome_66-88);}.cls-123{fill:url(#Gradiente_sem_nome_66-89);}.cls-124{fill:url(#Gradiente_sem_nome_66-90);}.cls-125{fill:url(#Gradiente_sem_nome_66-91);}.cls-126{fill:url(#Gradiente_sem_nome_66-92);}.cls-127{fill:url(#Gradiente_sem_nome_66-93);}.cls-128{fill:url(#Gradiente_sem_nome_66-94);}.cls-129{fill:url(#Gradiente_sem_nome_66-95);}.cls-130{fill:url(#Gradiente_sem_nome_66-96);}.cls-131{fill:#a8a7ad;}.cls-132{fill:#f1f1f2;}.cls-133{fill:#333;}.cls-134{fill:#ff0;}.cls-135{fill:#c9c9c9;}</style><radialGradient id="Gradiente_sem_nome_185" cx="1038.45" cy="92.84" r="4.81" gradientUnits="userSpaceOnUse"><stop offset="0" stop-color="aqua"/><stop offset="1" stop-color="#0070ff"/></radialGradient><radialGradient id="Gradiente_sem_nome_46" cx="1038.45" cy="77.83" r="4.81" gradientUnits="userSpaceOnUse"><stop offset="0.46" stop-color="lime"/><stop offset="1" stop-color="#00c500"/></radialGradient><radialGradient id="Gradiente_sem_nome_34" cx="322.36" cy="94.03" r="3.6" gradientUnits="userSpaceOnUse"><stop offset="0.46" stop-color="#ff0"/><stop offset="1" stop-color="#ffc51e"/></radialGradient><radialGradient id="Gradiente_sem_nome_46-2" cx="351.61" cy="94.03" r="3.6" xlink:href="#Gradiente_sem_nome_46"/><radialGradient id="Gradiente_sem_nome_34-2" cx="372.21" cy="94.03" r="3.6" xlink:href="#Gradiente_sem_nome_34"/><radialGradient id="Gradiente_sem_nome_46-3" cx="401.46" cy="94.03" r="3.6" xlink:href="#Gradiente_sem_nome_46"/><radialGradient id="Gradiente_sem_nome_34-3" cx="422.06" cy="94.03" r="3.6" xlink:href="#Gradiente_sem_nome_34"/><radialGradient id="Gradiente_sem_nome_46-4" cx="451.31" cy="94.03" r="3.6" xlink:href="#Gradiente_sem_nome_46"/><radialGradient id="Gradiente_sem_nome_34-4" cx="471.91" cy="94.03" r="3.6" xlink:href="#Gradiente_sem_nome_34"/><radialGradient id="Gradiente_sem_nome_46-5" cx="501.16" cy="94.03" r="3.6" xlink:href="#Gradiente_sem_nome_46"/><radialGradient id="Gradiente_sem_nome_34-5" cx="521.75" cy="94.03" r="3.6" xlink:href="#Gradiente_sem_nome_34"/><radialGradient id="Gradiente_sem_nome_46-6" cx="551.01" cy="94.03" r="3.6" xlink:href="#Gradiente_sem_nome_46"/><radialGradient id="Gradiente_sem_nome_34-6" cx="571.6" cy="94.03" r="3.6" xlink:href="#Gradiente_sem_nome_34"/><radialGradient id="Gradiente_sem_nome_46-7" cx="600.86" cy="94.03" r="3.6" xlink:href="#Gradiente_sem_nome_46"/><radialGradient id="Gradiente_sem_nome_34-7" cx="621.45" cy="94.03" r="3.6" xlink:href="#Gradiente_sem_nome_34"/><radialGradient id="Gradiente_sem_nome_46-8" cx="650.71" cy="94.03" r="3.6" xlink:href="#Gradiente_sem_nome_46"/><radialGradient id="Gradiente_sem_nome_34-8" cx="671.3" cy="94.03" r="3.6" xlink:href="#Gradiente_sem_nome_34"/><radialGradient id="Gradiente_sem_nome_46-9" cx="700.56" cy="94.03" r="3.6" xlink:href="#Gradiente_sem_nome_46"/><radialGradient id="Gradiente_sem_nome_34-9" cx="721.15" cy="94.03" r="3.6" xlink:href="#Gradiente_sem_nome_34"/><radialGradient id="Gradiente_sem_nome_46-10" cx="750.41" cy="94.03" r="3.6" xlink:href="#Gradiente_sem_nome_46"/><radialGradient id="Gradiente_sem_nome_34-10" cx="771" cy="94.03" r="3.6" xlink:href="#Gradiente_sem_nome_34"/><radialGradient id="Gradiente_sem_nome_46-11" cx="800.26" cy="94.03" r="3.6" xlink:href="#Gradiente_sem_nome_46"/><radialGradient id="Gradiente_sem_nome_34-11" cx="820.85" cy="94.03" r="3.6" xlink:href="#Gradiente_sem_nome_34"/><radialGradient id="Gradiente_sem_nome_46-12" cx="850.11" cy="94.03" r="3.6" xlink:href="#Gradiente_sem_nome_46"/><radialGradient id="Gradiente_sem_nome_34-12" cx="870.7" cy="94.03" r="3.6" xlink:href="#Gradiente_sem_nome_34"/><radialGradient id="Gradiente_sem_nome_46-13" cx="899.96" cy="94.03" r="3.6" xlink:href="#Gradiente_sem_nome_46"/><linearGradient id="Gradiente_sem_nome_10" x1="1180.08" y1="111.94" x2="1277.53" y2="14.49" gradientTransform="translate(2457.61 126.43) rotate(-180)" gradientUnits="userSpaceOnUse"><stop offset="0" stop-color="#727176"/><stop offset="1" stop-color="#949398"/></linearGradient><linearGradient id="Gradiente_sem_nome_66" x1="325.89" y1="71.34" x2="325.89" y2="78.54" gradientUnits="userSpaceOnUse"><stop offset="0" stop-color="#fff195"/><stop offset="0.47" stop-color="#fff195"/><stop offset="1" stop-color="#1a1a1a"/></linearGradient><linearGradient id="Gradiente_sem_nome_66-2" x1="329.06" y1="71.34" x2="329.06" y2="78.54" xlink:href="#Gradiente_sem_nome_66"/><linearGradient id="Gradiente_sem_nome_66-3" x1="332.23" y1="71.34" x2="332.23" y2="78.54" xlink:href="#Gradiente_sem_nome_66"/><linearGradient id="Gradiente_sem_nome_66-4" x1="335.4" y1="71.34" x2="335.4" y2="78.54" xlink:href="#Gradiente_sem_nome_66"/><linearGradient id="Gradiente_sem_nome_66-5" x1="338.57" y1="71.34" x2="338.57" y2="78.54" xlink:href="#Gradiente_sem_nome_66"/><linearGradient id="Gradiente_sem_nome_66-6" x1="341.74" y1="71.34" x2="341.74" y2="78.54" xlink:href="#Gradiente_sem_nome_66"/><linearGradient id="Gradiente_sem_nome_66-7" x1="344.9" y1="71.34" x2="344.9" y2="78.54" xlink:href="#Gradiente_sem_nome_66"/><linearGradient id="Gradiente_sem_nome_66-8" x1="348.07" y1="71.34" x2="348.07" y2="78.54" xlink:href="#Gradiente_sem_nome_66"/><linearGradient id="Gradiente_sem_nome_66-9" x1="375.74" y1="71.34" x2="375.74" y2="78.54" xlink:href="#Gradiente_sem_nome_66"/><linearGradient id="Gradiente_sem_nome_66-10" x1="378.91" y1="71.34" x2="378.91" y2="78.54" xlink:href="#Gradiente_sem_nome_66"/><linearGradient id="Gradiente_sem_nome_66-11" x1="382.08" y1="71.34" x2="382.08" y2="78.54" xlink:href="#Gradiente_sem_nome_66"/><linearGradient id="Gradiente_sem_nome_66-12" x1="385.25" y1="71.34" x2="385.25" y2="78.54" xlink:href="#Gradiente_sem_nome_66"/><linearGradient id="Gradiente_sem_nome_66-13" x1="388.42" y1="71.34" x2="388.42" y2="78.54" xlink:href="#Gradiente_sem_nome_66"/><linearGradient id="Gradiente_sem_nome_66-14" x1="391.58" y1="71.34" x2="391.58" y2="78.54" xlink:href="#Gradiente_sem_nome_66"/><linearGradient id="Gradiente_sem_nome_66-15" x1="394.75" y1="71.34" x2="394.75" y2="78.54" xlink:href="#Gradiente_sem_nome_66"/><linearGradient id="Gradiente_sem_nome_66-16" x1="397.92" y1="71.34" x2="397.92" y2="78.54" xlink:href="#Gradiente_sem_nome_66"/><linearGradient id="Gradiente_sem_nome_66-17" x1="425.59" y1="71.34" x2="425.59" y2="78.54" xlink:href="#Gradiente_sem_nome_66"/><linearGradient id="Gradiente_sem_nome_66-18" x1="428.76" y1="71.34" x2="428.76" y2="78.54" xlink:href="#Gradiente_sem_nome_66"/><linearGradient id="Gradiente_sem_nome_66-19" x1="431.93" y1="71.34" x2="431.93" y2="78.54" xlink:href="#Gradiente_sem_nome_66"/><linearGradient id="Gradiente_sem_nome_66-20" x1="435.1" y1="71.34" x2="435.1" y2="78.54" xlink:href="#Gradiente_sem_nome_66"/><linearGradient id="Gradiente_sem_nome_66-21" x1="438.27" y1="71.34" x2="438.27" y2="78.54" xlink:href="#Gradiente_sem_nome_66"/><linearGradient id="Gradiente_sem_nome_66-22" x1="441.43" y1="71.34" x2="441.43" y2="78.54" xlink:href="#Gradiente_sem_nome_66"/><linearGradient id="Gradiente_sem_nome_66-23" x1="444.6" y1="71.34" x2="444.6" y2="78.54" xlink:href="#Gradiente_sem_nome_66"/><linearGradient id="Gradiente_sem_nome_66-24" x1="447.77" y1="71.34" x2="447.77" y2="78.54" xlink:href="#Gradiente_sem_nome_66"/><linearGradient id="Gradiente_sem_nome_66-25" x1="475.44" y1="71.34" x2="475.44" y2="78.54" xlink:href="#Gradiente_sem_nome_66"/><linearGradient id="Gradiente_sem_nome_66-26" x1="478.61" y1="71.34" x2="478.61" y2="78.54" xlink:href="#Gradiente_sem_nome_66"/><linearGradient id="Gradiente_sem_nome_66-27" x1="481.78" y1="71.34" x2="481.78" y2="78.54" xlink:href="#Gradiente_sem_nome_66"/><linearGradient id="Gradiente_sem_nome_66-28" x1="484.95" y1="71.34" x2="484.95" y2="78.54" xlink:href="#Gradiente_sem_nome_66"/><linearGradient id="Gradiente_sem_nome_66-29" x1="488.12" y1="71.34" x2="488.12" y2="78.54" xlink:href="#Gradiente_sem_nome_66"/><linearGradient id="Gradiente_sem_nome_66-30" x1="491.28" y1="71.34" x2="491.28" y2="78.54" xlink:href="#Gradiente_sem_nome_66"/><linearGradient id="Gradiente_sem_nome_66-31" x1="494.45" y1="71.34" x2="494.45" y2="78.54" xlink:href="#Gradiente_sem_nome_66"/><linearGradient id="Gradiente_sem_nome_66-32" x1="497.62" y1="71.34" x2="497.62" y2="78.54" xlink:href="#Gradiente_sem_nome_66"/><linearGradient id="Gradiente_sem_nome_66-33" x1="525.29" y1="71.34" x2="525.29" y2="78.54" xlink:href="#Gradiente_sem_nome_66"/><linearGradient id="Gradiente_sem_nome_66-34" x1="528.46" y1="71.34" x2="528.46" y2="78.54" xlink:href="#Gradiente_sem_nome_66"/><linearGradient id="Gradiente_sem_nome_66-35" x1="531.63" y1="71.34" x2="531.63" y2="78.54" xlink:href="#Gradiente_sem_nome_66"/><linearGradient id="Gradiente_sem_nome_66-36" x1="534.8" y1="71.34" x2="534.8" y2="78.54" xlink:href="#Gradiente_sem_nome_66"/><linearGradient id="Gradiente_sem_nome_66-37" x1="537.96" y1="71.34" x2="537.96" y2="78.54" xlink:href="#Gradiente_sem_nome_66"/><linearGradient id="Gradiente_sem_nome_66-38" x1="541.13" y1="71.34" x2="541.13" y2="78.54" xlink:href="#Gradiente_sem_nome_66"/><linearGradient id="Gradiente_sem_nome_66-39" x1="544.3" y1="71.34" x2="544.3" y2="78.54" xlink:href="#Gradiente_sem_nome_66"/><linearGradient id="Gradiente_sem_nome_66-40" x1="547.47" y1="71.34" x2="547.47" y2="78.54" xlink:href="#Gradiente_sem_nome_66"/><linearGradient id="Gradiente_sem_nome_66-41" x1="575.1" y1="71.34" x2="575.1" y2="78.54" xlink:href="#Gradiente_sem_nome_66"/><linearGradient id="Gradiente_sem_nome_66-42" x1="578.27" y1="71.34" x2="578.27" y2="78.54" xlink:href="#Gradiente_sem_nome_66"/><linearGradient id="Gradiente_sem_nome_66-43" x1="581.44" y1="71.34" x2="581.44" y2="78.54" xlink:href="#Gradiente_sem_nome_66"/><linearGradient id="Gradiente_sem_nome_66-44" x1="584.61" y1="71.34" x2="584.61" y2="78.54" xlink:href="#Gradiente_sem_nome_66"/><linearGradient id="Gradiente_sem_nome_66-45" x1="587.77" y1="71.34" x2="587.77" y2="78.54" xlink:href="#Gradiente_sem_nome_66"/><linearGradient id="Gradiente_sem_nome_66-46" x1="590.94" y1="71.34" x2="590.94" y2="78.54" xlink:href="#Gradiente_sem_nome_66"/><linearGradient id="Gradiente_sem_nome_66-47" x1="594.11" y1="71.34" x2="594.11" y2="78.54" xlink:href="#Gradiente_sem_nome_66"/><linearGradient id="Gradiente_sem_nome_66-48" x1="597.28" y1="71.34" x2="597.28" y2="78.54" xlink:href="#Gradiente_sem_nome_66"/><linearGradient id="Gradiente_sem_nome_66-49" x1="624.95" y1="71.34" x2="624.95" y2="78.54" xlink:href="#Gradiente_sem_nome_66"/><linearGradient id="Gradiente_sem_nome_66-50" x1="628.12" y1="71.34" x2="628.12" y2="78.54" xlink:href="#Gradiente_sem_nome_66"/><linearGradient id="Gradiente_sem_nome_66-51" x1="631.29" y1="71.34" x2="631.29" y2="78.54" xlink:href="#Gradiente_sem_nome_66"/><linearGradient id="Gradiente_sem_nome_66-52" x1="634.46" y1="71.34" x2="634.46" y2="78.54" xlink:href="#Gradiente_sem_nome_66"/><linearGradient id="Gradiente_sem_nome_66-53" x1="637.62" y1="71.34" x2="637.62" y2="78.54" xlink:href="#Gradiente_sem_nome_66"/><linearGradient id="Gradiente_sem_nome_66-54" x1="640.79" y1="71.34" x2="640.79" y2="78.54" xlink:href="#Gradiente_sem_nome_66"/><linearGradient id="Gradiente_sem_nome_66-55" x1="643.96" y1="71.34" x2="643.96" y2="78.54" xlink:href="#Gradiente_sem_nome_66"/><linearGradient id="Gradiente_sem_nome_66-56" x1="647.13" y1="71.34" x2="647.13" y2="78.54" xlink:href="#Gradiente_sem_nome_66"/><linearGradient id="Gradiente_sem_nome_66-57" x1="674.8" y1="71.34" x2="674.8" y2="78.54" xlink:href="#Gradiente_sem_nome_66"/><linearGradient id="Gradiente_sem_nome_66-58" x1="677.97" y1="71.34" x2="677.97" y2="78.54" xlink:href="#Gradiente_sem_nome_66"/><linearGradient id="Gradiente_sem_nome_66-59" x1="681.14" y1="71.34" x2="681.14" y2="78.54" xlink:href="#Gradiente_sem_nome_66"/><linearGradient id="Gradiente_sem_nome_66-60" x1="684.31" y1="71.34" x2="684.31" y2="78.54" xlink:href="#Gradiente_sem_nome_66"/><linearGradient id="Gradiente_sem_nome_66-61" x1="687.47" y1="71.34" x2="687.47" y2="78.54" xlink:href="#Gradiente_sem_nome_66"/><linearGradient id="Gradiente_sem_nome_66-62" x1="690.64" y1="71.34" x2="690.64" y2="78.54" xlink:href="#Gradiente_sem_nome_66"/><linearGradient id="Gradiente_sem_nome_66-63" x1="693.81" y1="71.34" x2="693.81" y2="78.54" xlink:href="#Gradiente_sem_nome_66"/><linearGradient id="Gradiente_sem_nome_66-64" x1="696.98" y1="71.34" x2="696.98" y2="78.54" xlink:href="#Gradiente_sem_nome_66"/><linearGradient id="Gradiente_sem_nome_66-65" x1="724.69" y1="71.34" x2="724.69" y2="78.54" xlink:href="#Gradiente_sem_nome_66"/><linearGradient id="Gradiente_sem_nome_66-66" x1="727.86" y1="71.34" x2="727.86" y2="78.54" xlink:href="#Gradiente_sem_nome_66"/><linearGradient id="Gradiente_sem_nome_66-67" x1="731.02" y1="71.34" x2="731.02" y2="78.54" xlink:href="#Gradiente_sem_nome_66"/><linearGradient id="Gradiente_sem_nome_66-68" x1="734.19" y1="71.34" x2="734.19" y2="78.54" xlink:href="#Gradiente_sem_nome_66"/><linearGradient id="Gradiente_sem_nome_66-69" x1="737.36" y1="71.34" x2="737.36" y2="78.54" xlink:href="#Gradiente_sem_nome_66"/><linearGradient id="Gradiente_sem_nome_66-70" x1="740.53" y1="71.34" x2="740.53" y2="78.54" xlink:href="#Gradiente_sem_nome_66"/><linearGradient id="Gradiente_sem_nome_66-71" x1="743.7" y1="71.34" x2="743.7" y2="78.54" xlink:href="#Gradiente_sem_nome_66"/><linearGradient id="Gradiente_sem_nome_66-72" x1="746.87" y1="71.34" x2="746.87" y2="78.54" xlink:href="#Gradiente_sem_nome_66"/><linearGradient id="Gradiente_sem_nome_66-73" x1="774.54" y1="71.34" x2="774.54" y2="78.54" xlink:href="#Gradiente_sem_nome_66"/><linearGradient id="Gradiente_sem_nome_66-74" x1="777.71" y1="71.34" x2="777.71" y2="78.54" xlink:href="#Gradiente_sem_nome_66"/><linearGradient id="Gradiente_sem_nome_66-75" x1="780.87" y1="71.34" x2="780.87" y2="78.54" xlink:href="#Gradiente_sem_nome_66"/><linearGradient id="Gradiente_sem_nome_66-76" x1="784.04" y1="71.34" x2="784.04" y2="78.54" xlink:href="#Gradiente_sem_nome_66"/><linearGradient id="Gradiente_sem_nome_66-77" x1="787.21" y1="71.34" x2="787.21" y2="78.54" xlink:href="#Gradiente_sem_nome_66"/><linearGradient id="Gradiente_sem_nome_66-78" x1="790.38" y1="71.34" x2="790.38" y2="78.54" xlink:href="#Gradiente_sem_nome_66"/><linearGradient id="Gradiente_sem_nome_66-79" x1="793.55" y1="71.34" x2="793.55" y2="78.54" xlink:href="#Gradiente_sem_nome_66"/><linearGradient id="Gradiente_sem_nome_66-80" x1="796.72" y1="71.34" x2="796.72" y2="78.54" xlink:href="#Gradiente_sem_nome_66"/><linearGradient id="Gradiente_sem_nome_66-81" x1="824.39" y1="71.34" x2="824.39" y2="78.54" xlink:href="#Gradiente_sem_nome_66"/><linearGradient id="Gradiente_sem_nome_66-82" x1="827.55" y1="71.34" x2="827.55" y2="78.54" xlink:href="#Gradiente_sem_nome_66"/><linearGradient id="Gradiente_sem_nome_66-83" x1="830.72" y1="71.34" x2="830.72" y2="78.54" xlink:href="#Gradiente_sem_nome_66"/><linearGradient id="Gradiente_sem_nome_66-84" x1="833.89" y1="71.34" x2="833.89" y2="78.54" xlink:href="#Gradiente_sem_nome_66"/><linearGradient id="Gradiente_sem_nome_66-85" x1="837.06" y1="71.34" x2="837.06" y2="78.54" xlink:href="#Gradiente_sem_nome_66"/><linearGradient id="Gradiente_sem_nome_66-86" x1="840.23" y1="71.34" x2="840.23" y2="78.54" xlink:href="#Gradiente_sem_nome_66"/><linearGradient id="Gradiente_sem_nome_66-87" x1="843.4" y1="71.34" x2="843.4" y2="78.54" xlink:href="#Gradiente_sem_nome_66"/><linearGradient id="Gradiente_sem_nome_66-88" x1="846.57" y1="71.34" x2="846.57" y2="78.54" xlink:href="#Gradiente_sem_nome_66"/><linearGradient id="Gradiente_sem_nome_66-89" x1="874.24" y1="71.34" x2="874.24" y2="78.54" xlink:href="#Gradiente_sem_nome_66"/><linearGradient id="Gradiente_sem_nome_66-90" x1="877.4" y1="71.34" x2="877.4" y2="78.54" xlink:href="#Gradiente_sem_nome_66"/><linearGradient id="Gradiente_sem_nome_66-91" x1="880.57" y1="71.34" x2="880.57" y2="78.54" xlink:href="#Gradiente_sem_nome_66"/><linearGradient id="Gradiente_sem_nome_66-92" x1="883.74" y1="71.34" x2="883.74" y2="78.54" xlink:href="#Gradiente_sem_nome_66"/><linearGradient id="Gradiente_sem_nome_66-93" x1="886.91" y1="71.34" x2="886.91" y2="78.54" xlink:href="#Gradiente_sem_nome_66"/><linearGradient id="Gradiente_sem_nome_66-94" x1="890.08" y1="71.34" x2="890.08" y2="78.54" xlink:href="#Gradiente_sem_nome_66"/><linearGradient id="Gradiente_sem_nome_66-95" x1="893.25" y1="71.34" x2="893.25" y2="78.54" xlink:href="#Gradiente_sem_nome_66"/><linearGradient id="Gradiente_sem_nome_66-96" x1="896.42" y1="71.34" x2="896.42" y2="78.54" xlink:href="#Gradiente_sem_nome_66"/></defs><path class="cls-1" d="M0,0V125.19H1368V0ZM44.57,109.19a8.15,8.15,0,0,1-8.12,8.12H19a8.15,8.15,0,0,1-8.13-8.12h0A8.16,8.16,0,0,1,19,101.06H36.45a8.15,8.15,0,0,1,8.12,8.13ZM36.45,25.37H19A8.13,8.13,0,1,1,19,9.12H36.45a8.13,8.13,0,0,1,0,16.25Zm1321.89,83.82a8.15,8.15,0,0,1-8.12,8.12H1332.8a8.15,8.15,0,0,1-8.13-8.12h0a8.16,8.16,0,0,1,8.13-8.13h17.42a8.15,8.15,0,0,1,8.12,8.13Zm-8.12-83.82H1332.8a8.13,8.13,0,1,1,0-16.25h17.42a8.13,8.13,0,0,1,0,16.25Z"/><path d="M126.9,21.38l25,24.88c-3,0-6,.07-9-.06-.57,0-1.16-.74-1.66-1.22-2-2-4-3.92-6-5.93-2.71-2.82-5.37-5.69-8.29-8.78-3.11,3.22-5.84,6.06-8.6,8.87-1.74,1.78-3.62,3.43-5.23,5.32a5.35,5.35,0,0,1-4.93,1.84c-2.14-.13-4.29,0-6.49,0Z"/><path d="M202.76,30.47c-3.24,3.23-6,6-8.88,8.83-1.91,1.9-4,3.68-5.73,5.7a3.93,3.93,0,0,1-3.48,1.28c-2.43-.06-4.86,0-7.28,0l25.18-24.92,25,24.9a91.57,91.57,0,0,1-9.23-.12c-1-.1-1.91-1.46-2.79-2.32-1.7-1.67-3.36-3.38-5-5.11C207.94,36,205.39,33.26,202.76,30.47Z"/><path d="M303.2,46.25c-3.12,0-6.14.06-9.16,0-.54,0-1.11-.7-1.58-1.16-2-2-4-3.92-6-5.93-2.73-2.79-5.43-5.61-8.25-8.54-1.64,1.57-3.05,2.89-4.41,4.24-1.76,1.76-3.48,3.55-5.23,5.32s-3.74,3.78-5.63,5.65a1.4,1.4,0,0,1-.78.45c-3.08,0-6.17,0-9.33,0l25.29-25.06Z"/><path d="M378.8,46.25c-3.14,0-6.18.16-9.17-.1-.92-.08-1.79-1.26-2.59-2-1.75-1.71-3.42-3.51-5.16-5.24-2.5-2.49-5-4.95-7.54-7.43-.22-.21-.47-.39-.81-.67-2.83,2.85-5.62,5.67-8.43,8.48-1.9,1.91-4,3.69-5.73,5.71a4,4,0,0,1-3.55,1.32c-2.42-.07-4.85,0-7.33,0l25.26-25Z"/><path d="M429.45,21.32l24.93,24.9c-3.19,0-6.34.14-9.46-.1-.81-.06-1.55-1.27-2.28-2-1.73-1.73-3.43-3.51-5.16-5.25-2.45-2.44-4.92-4.86-7.39-7.29-.27-.27-.57-.5-.9-.78-2.88,2.87-5.71,5.71-8.55,8.53C418.74,41.2,416.72,43,415,45a4,4,0,0,1-3.56,1.32c-2.39-.07-4.79,0-7.17,0Z"/><path d="M479.74,46.25,504.86,21.3l25,24.94c-3.06,0-6.14,0-9.21-.06-.51,0-1-.75-1.46-1.2-2-2-4.06-4.06-6.1-6.08-2.58-2.56-5.18-5.1-7.77-7.64-.15-.15-.33-.25-1-.83-1.92,2.13-3.8,4.29-5.76,6.39-1.67,1.79-3.41,3.51-5.13,5.26-1.24,1.25-2.48,2.5-3.74,3.73a1.31,1.31,0,0,1-.8.42C485.87,46.26,482.82,46.25,479.74,46.25Z"/><path d="M555.36,46.24l25.15-25,25,24.95c-3.15,0-6.26.05-9.37-.06-.46,0-.92-.74-1.36-1.17-2-2-4-4-6-6-2.69-2.78-5.34-5.62-8.44-8.89-2.31,2.54-4.27,4.73-6.28,6.87-1.53,1.64-3.11,3.23-4.69,4.83q-2,2.07-4.12,4.09a1.21,1.21,0,0,1-.71.36C561.49,46.25,558.44,46.24,555.36,46.24Z"/><path d="M882.89,21.28l25.07,25a45.31,45.31,0,0,0-6.61.07c-2.54.38-4-1-5.49-2.53-2.58-2.6-5.18-5.18-7.74-7.81-1.71-1.75-3.36-3.57-5.49-5.85-2.19,2.42-4.08,4.59-6,6.68-1.72,1.84-3.52,3.6-5.29,5.39-1.19,1.21-2.38,2.42-3.59,3.6a1.26,1.26,0,0,1-.79.42c-3,0-6.1,0-9.11,0Z"/><path d="M832.16,46.24c-2.95,0-6,0-9-.06-.51,0-1-.71-1.48-1.15-2-2-4-4-6-6-2.7-2.79-5.35-5.62-8.12-8.53-1.68,1.62-3.07,2.9-4.4,4.24-2.4,2.4-4.76,4.83-7.14,7.23q-1.92,2-3.89,3.89a1.28,1.28,0,0,1-.81.38c-3,0-6,0-9,0l25-24.84C815.37,29.47,823.78,37.86,832.16,46.24Z"/><path d="M630.76,46.25l25.29-25.16c8.23,8.26,16.61,16.68,25.05,25.14-3.12,0-6.23.05-9.33,0-.47,0-.94-.74-1.37-1.17-2-2-4-4-6-6-2.69-2.79-5.34-5.62-8.48-8.94-2.3,2.54-4.24,4.74-6.24,6.89-1.53,1.64-3.12,3.23-4.69,4.83-1.36,1.38-2.73,2.75-4.12,4.09a1.32,1.32,0,0,1-.82.37C637,46.26,634,46.25,630.76,46.25Z"/><path d="M756.82,46.24c-3.23,0-6.29.06-9.34-.05-.5,0-1-.73-1.47-1.17-2-2-4-4-6-6-2.69-2.8-5.34-5.63-8.48-8.95-2.3,2.54-4.25,4.74-6.25,6.89-1.53,1.64-3.12,3.23-4.69,4.82q-2,2.07-4.12,4.1a1.32,1.32,0,0,1-.82.37c-3,0-6,0-9,0l25.17-25Z"/><path d="M164.75,36.22c2.46-2.49,4.89-4.94,7.31-7.4q2.38-2.45,4.78-4.88c.58-.6,1.16-1.18,1.73-1.79a3.91,3.91,0,0,1,3.26-1.43c2.63.15,5.27,0,8,0L164.52,46.09,139.4,20.86c.6,0,1.12-.09,1.64-.09,2.12,0,4.25.1,6.36,0a3.79,3.79,0,0,1,3.17,1.41q5.06,5.12,10.17,10.2C162,33.6,163.31,34.83,164.75,36.22Z"/><path d="M265.55,20.77,240.17,46.21,214.91,20.87c.77,0,1.37-.1,2-.1,2.05,0,4.11.1,6.16,0a3.81,3.81,0,0,1,3.15,1.42q4,4,8,8c2,2,4.07,3.92,6.36,6.13,1.56-1.66,3.19-3.4,4.83-5.12s3.15-3.29,4.76-4.9,3.26-3.29,5-4.86a2.5,2.5,0,0,1,1.54-.61C259.51,20.74,262.42,20.77,265.55,20.77Z"/><path d="M466.9,46.09,441.6,20.78h5.27c4.84,0,4.81,0,8.13,3.41s6.89,6.9,10.32,10.36c.54.53,1,1.1,1.86,2,1.71-1.85,3.34-3.63,5-5.38s3.21-3.33,4.83-5,3.24-3.22,4.88-4.8a1.64,1.64,0,0,1,.95-.56c3.08-.05,6.17,0,9.37,0Z"/><path d="M517.38,20.87h9.7l15.65,15.69c1.76-1.88,3.4-3.66,5.06-5.41s3.14-3.29,4.74-4.9,3.21-3.25,4.89-4.79a2.65,2.65,0,0,1,1.63-.65c2.88-.06,5.76,0,8.78,0L542.55,46.06Z"/><path d="M341.24,20.78,315.83,46.2,290.55,20.77c1.86,0,3.62.14,5.35,0,2.89-.28,5.27.24,7.19,2.73a62.31,62.31,0,0,0,5.21,5.33l7.6,7.72c1.76-1.87,3.38-3.61,5-5.33s3.16-3.29,4.76-4.9,3.34-3.31,5-4.95a1.7,1.7,0,0,1,1-.54C334.75,20.76,337.84,20.78,341.24,20.78Z"/><path d="M391.43,36.37l7.45-7.56,4.78-4.88c.58-.59,1.18-1.17,1.74-1.78a3.76,3.76,0,0,1,3.16-1.41c2.63.13,5.28,0,8,0L391.22,46.05,366,20.79c3.36,0,6.47-.06,9.58.06.56,0,1.14.72,1.63,1.2q6.28,6.25,12.53,12.54C390.28,35.1,390.76,35.64,391.43,36.37Z"/><path d="M709.12,20.85H719l-25.3,25.32L668.51,20.88h9.92l15.32,15.37Z"/><path d="M618.08,46c-8.3-8.27-16.66-16.62-25.19-25.13h9.89l15.31,15.27,15.32-15.33h9.89Z"/><path d="M844.83,46.13,819.58,20.87c.67,0,1-.08,1.43-.08,2.3,0,4.59.06,6.89,0a3.29,3.29,0,0,1,2.75,1.1c1.61,1.71,3.25,3.38,4.9,5.05q4.46,4.47,9,8.92a3,3,0,0,0,.43.32l15.24-15.32h9.94Z"/><path d="M744.12,20.79c3.29,0,6.37,0,9.45,0a1.5,1.5,0,0,1,.86.51c3.92,3.94,7.84,7.87,11.74,11.83,1,1,1.94,2.15,3.21,3.58,1.92-2.06,3.54-3.83,5.2-5.58s3.09-3.24,4.66-4.83,3.39-3.35,5.11-5a1.7,1.7,0,0,1,1-.52c3.06,0,6.11,0,9.28,0-8.48,8.46-16.85,16.83-25.27,25.25Z"/><path d="M1144.9,103.4l-5.22,4c1,2,1.91,3.87,2.92,5.9h-4.83c-.53-1.14-1.06-2.3-1.61-3.51-1.73.6-1.17,2.38-1.91,3.5h-4.4l3.41-13.66h4.48l-1.55,6.49c1.37-1,2.45-2.21,3.78-2.64S1142.91,103.4,1144.9,103.4Z"/><path d="M1061.36,113.32h-1.44c1.2-4.61,2.37-9.12,3.56-13.67h2.21c.83,4,1.67,8,2.57,12.38l9.1-12.37h2.21c-1.18,4.58-2.33,9.09-3.5,13.65h-1.47c1.09-4,2.15-7.94,3.22-11.87l-.23-.13c-2.92,4-5.84,8-8.82,12h-1.54c-.86-4.09-1.72-8.14-2.58-12.2h-.26C1063.39,105.14,1062.39,109.18,1061.36,113.32Z"/><path d="M1125.45,99.67c-.32,1.28-.61,2.44-.91,3.66h-14.11l.88-3.66Z"/><path d="M924.1,99.72a4.06,4.06,0,0,1-4.21-4.2,4.4,4.4,0,0,1,4.24-4.13,4.3,4.3,0,0,1,4.17,4.29A3.94,3.94,0,0,1,924.1,99.72Z"/><path d="M1117.48,113.33h-5c.67-2.7,1.32-5.32,2-8h5C1118.8,108.05,1118.15,110.64,1117.48,113.33Z"/><path d="M1105.75,103.22c4-.15,5.92,2.9,4.25,6.59a6.54,6.54,0,0,1-8.35,3.44,4,4,0,0,1-2.34-4.24A6.32,6.32,0,0,1,1105.75,103.22Zm-1.52,9.33c2.73.07,4.86-2.19,4.92-5.23a3.12,3.12,0,0,0-3.43-3.21,5.2,5.2,0,0,0-5,5.19C1100.61,111.42,1101.78,112.49,1104.23,112.55Z"/><path d="M1123.39,113.32c.68-2.74,1.32-5.32,2-7.95h4.49c-.67,2.69-1.3,5.3-1.95,7.95Z"/><path d="M1083.61,113.31h-1.46c.84-3.29,1.66-6.49,2.5-9.76H1086c-.37,1.51-.72,2.94-1.1,4.51,3-1.19,5-4.13,8.15-4.73l.24.37-5.11,3.58c1.15,2,2.27,4,3.47,6h-1.47l-3.11-5.25C1084.66,109,1083.85,110.9,1083.61,113.31Z"/><path d="M121.41,46.22c2.07-1.83,3.87-3.44,5.46-4.86l5.3,4.86Z"/><path d="M207.72,46.22H197.1l5.43-4.77Z"/><path d="M888,46.2H877.55l5.37-4.75Z"/><path d="M272.59,46.19c2.08-1.89,3.82-3.49,5.47-5l5.11,5Z"/><path d="M423.8,46.22l5.45-5,5.27,5Z"/><path d="M510,46.24H499.59l5.4-4.76Z"/><path d="M585.59,46.22H575.17l5.45-4.79Z"/><path d="M731.76,41.31l5,4.87H726.29Z"/><path d="M801.83,46.23l5.27-5,5.41,5Z"/><path d="M656.2,41.26l5,4.94H650.75Z"/><path d="M353.67,41.48l5.2,4.75H348.3Z"/><path d="M159.79,20.85h9.8l-4.93,5.3Z"/><path d="M391.33,26l-4.72-5.15h9.71Z"/><path d="M850.13,20.86l-5.06,5.19c-1.71-1.79-3.33-3.5-4.93-5.19Z"/><path d="M311,20.85h9.88c-1.63,1.7-3.26,3.38-5,5.18C314.17,24.27,312.57,22.58,311,20.85Z"/><path d="M240.17,26.05l-4.87-5.17h10Z"/><path d="M467,26.08l-5-5.21H472Z"/><path d="M693.8,26l-5.06-5.16h10.18Z"/><path d="M547.6,20.9,542.68,26l-4.86-5.11Z"/><path d="M623.38,20.87,618.26,26l-4.89-5.16Z"/><path d="M774.43,20.88l-5,5.18c-1.7-1.83-3.31-3.55-4.84-5.18Z"/><path d="M1094.66,103.54h1.17c-.1.64-.2,1.2-.37,2.24a4.84,4.84,0,0,1,4.89-2.41l-.14,1.09a6.7,6.7,0,0,1-.73.1c-2.66.15-4,1.31-4.71,3.9-.4,1.58-.81,3.16-1.24,4.84l-1.4.07C1093,110,1093.82,106.82,1094.66,103.54Z"/><path d="M1130.39,103.34h-4.49c.31-1.26.58-2.42.88-3.67h4.5C1131,100.92,1130.68,102.11,1130.39,103.34Z"/><path d="M1080,113.32h-1.39c.86-3.32,1.69-6.55,2.53-9.79h1.37C1081.63,106.83,1080.81,110,1080,113.32Z"/><path d="M1088.55,101.61a6,6,0,0,1-7.58-7.22C1081.89,98.51,1084.2,101.11,1088.55,101.61Z"/><path d="M1088.69,99.53a4.8,4.8,0,0,1-5.68-5.65,16.34,16.34,0,0,0,2.16,3.53A16.15,16.15,0,0,0,1088.69,99.53Z"/><circle class="cls-2" cx="1038.45" cy="92.84" r="4.81"/><circle class="cls-3" cx="1038.45" cy="77.83" r="4.81"/><rect x="313.87" y="62.25" width="595.28" height="39.6"/><rect class="cls-4" x="314.66" y="64.09" width="44.63" height="35.92"/><rect class="cls-5" x="318.29" y="90.97" width="8.13" height="6.11"/><rect class="cls-6" x="347.55" y="90.97" width="8.13" height="6.11"/><polygon class="cls-7" points="354.01 71.34 319.88 71.34 319.88 90.52 326.88 90.52 326.88 97.02 331.17 97.02 331.17 99.96 342.81 99.96 342.81 97.02 347.1 97.02 347.1 90.52 354.01 90.52 354.01 71.34"/><rect class="cls-4" x="364.51" y="64.09" width="44.63" height="35.92"/><rect class="cls-8" x="368.14" y="90.97" width="8.13" height="6.11"/><rect class="cls-9" x="397.4" y="90.97" width="8.13" height="6.11"/><polygon class="cls-7" points="403.86 71.34 369.73 71.34 369.73 90.52 376.73 90.52 376.73 97.02 381.01 97.02 381.01 99.96 392.66 99.96 392.66 97.02 396.95 97.02 396.95 90.52 403.86 90.52 403.86 71.34"/><rect class="cls-4" x="414.36" y="64.09" width="44.63" height="35.92"/><rect class="cls-10" x="417.99" y="90.97" width="8.13" height="6.11"/><rect class="cls-11" x="447.25" y="90.97" width="8.13" height="6.11"/><polygon class="cls-7" points="453.71 71.34 419.58 71.34 419.58 90.52 426.58 90.52 426.58 97.02 430.87 97.02 430.87 99.96 442.51 99.96 442.51 97.02 446.8 97.02 446.8 90.52 453.71 90.52 453.71 71.34"/><rect class="cls-4" x="464.21" y="64.09" width="44.63" height="35.92"/><rect class="cls-12" x="467.84" y="90.97" width="8.13" height="6.11"/><rect class="cls-13" x="497.1" y="90.97" width="8.13" height="6.11"/><polygon class="cls-7" points="503.56 71.34 469.43 71.34 469.43 90.52 476.43 90.52 476.43 97.02 480.71 97.02 480.71 99.96 492.36 99.96 492.36 97.02 496.65 97.02 496.65 90.52 503.56 90.52 503.56 71.34"/><rect class="cls-4" x="514.06" y="64.09" width="44.63" height="35.92"/><rect class="cls-14" x="517.69" y="90.97" width="8.13" height="6.11"/><rect class="cls-15" x="546.95" y="90.97" width="8.13" height="6.11"/><polygon class="cls-7" points="553.4 71.34 519.28 71.34 519.28 90.52 526.28 90.52 526.28 97.02 530.56 97.02 530.56 99.96 542.21 99.96 542.21 97.02 546.5 97.02 546.5 90.52 553.4 90.52 553.4 71.34"/><rect class="cls-4" x="563.91" y="64.09" width="44.63" height="35.92"/><rect class="cls-16" x="567.54" y="90.97" width="8.13" height="6.11"/><rect class="cls-17" x="596.8" y="90.97" width="8.13" height="6.11"/><polygon class="cls-7" points="603.25 71.34 569.13 71.34 569.13 90.52 576.13 90.52 576.13 97.02 580.41 97.02 580.41 99.96 592.06 99.96 592.06 97.02 596.35 97.02 596.35 90.52 603.25 90.52 603.25 71.34"/><rect class="cls-4" x="613.76" y="64.09" width="44.63" height="35.92"/><rect class="cls-18" x="617.39" y="90.97" width="8.13" height="6.11"/><rect class="cls-19" x="646.64" y="90.97" width="8.13" height="6.11"/><polygon class="cls-7" points="653.1 71.34 618.98 71.34 618.98 90.52 625.98 90.52 625.98 97.02 630.26 97.02 630.26 99.96 641.91 99.96 641.91 97.02 646.2 97.02 646.2 90.52 653.1 90.52 653.1 71.34"/><rect class="cls-4" x="663.61" y="64.09" width="44.63" height="35.92"/><rect class="cls-20" x="667.24" y="90.97" width="8.13" height="6.11"/><rect class="cls-21" x="696.49" y="90.97" width="8.13" height="6.11"/><polygon class="cls-7" points="702.95 71.34 668.83 71.34 668.83 90.52 675.83 90.52 675.83 97.02 680.11 97.02 680.11 99.96 691.76 99.96 691.76 97.02 696.04 97.02 696.04 90.52 702.95 90.52 702.95 71.34"/><rect class="cls-4" x="713.46" y="64.09" width="44.63" height="35.92"/><rect class="cls-22" x="717.09" y="90.97" width="8.13" height="6.11"/><rect class="cls-23" x="746.34" y="90.97" width="8.13" height="6.11"/><polygon class="cls-7" points="752.8 71.34 718.67 71.34 718.67 90.52 725.68 90.52 725.68 97.02 729.96 97.02 729.96 99.96 741.61 99.96 741.61 97.02 745.89 97.02 745.89 90.52 752.8 90.52 752.8 71.34"/><rect class="cls-4" x="763.31" y="64.09" width="44.63" height="35.92"/><rect class="cls-24" x="766.94" y="90.97" width="8.13" height="6.11"/><rect class="cls-25" x="796.19" y="90.97" width="8.13" height="6.11"/><polygon class="cls-7" points="802.65 71.34 768.52 71.34 768.52 90.52 775.53 90.52 775.53 97.02 779.81 97.02 779.81 99.96 791.46 99.96 791.46 97.02 795.74 97.02 795.74 90.52 802.65 90.52 802.65 71.34"/><rect class="cls-4" x="813.16" y="64.09" width="44.63" height="35.92"/><rect class="cls-26" x="816.79" y="90.97" width="8.13" height="6.11"/><rect class="cls-27" x="846.04" y="90.97" width="8.13" height="6.11"/><polygon class="cls-7" points="852.5 71.34 818.37 71.34 818.37 90.52 825.38 90.52 825.38 97.02 829.66 97.02 829.66 99.96 841.31 99.96 841.31 97.02 845.59 97.02 845.59 90.52 852.5 90.52 852.5 71.34"/><rect class="cls-4" x="863.01" y="64.09" width="44.63" height="35.92"/><rect class="cls-28" x="866.63" y="90.97" width="8.13" height="6.11"/><rect class="cls-29" x="895.89" y="90.97" width="8.13" height="6.11"/><polygon class="cls-7" points="902.35 71.34 868.22 71.34 868.22 90.52 875.23 90.52 875.23 97.02 879.51 97.02 879.51 99.96 891.16 99.96 891.16 97.02 895.44 97.02 895.44 90.52 902.35 90.52 902.35 71.34"/><rect x="74.29" y="92.38" width="23.56" height="8.52" rx="2"/><path class="cls-7" d="M982,77.07h17.21c2,0,4,0,5.93.05,3.39.13,5.49,2.59,4.95,5.93q-1.2,7.41-2.62,14.78a4.42,4.42,0,0,1-4.45,3.84c-5.7.12-11.4.11-17.1.1-6.57,0-13.15,0-19.72-.11a4.4,4.4,0,0,1-4.34-3.81c-.93-4.85-1.84-9.7-2.63-14.57-.59-3.68,1.61-6.15,5.35-6.16,5.8,0,11.61,0,17.42,0Z"/><path class="cls-30" d="M1001.77,77.07c1.11,0,2.21,0,3.32.05,3.39.13,5.49,2.59,4.95,5.93q-1.2,7.41-2.62,14.78a4.42,4.42,0,0,1-4.45,3.84c-4.48.09-9,.11-13.44.11h-3.66c-6.57,0-13.15,0-19.72-.11a4.4,4.4,0,0,1-4.34-3.81c-.93-4.85-1.84-9.7-2.63-14.57-.59-3.68,1.61-6.15,5.35-6.16l7,0H982v0h19.82m0-2H980v0h-8.38l-7.05,0a7.49,7.49,0,0,0-5.85,2.46,7.3,7.3,0,0,0-1.46,6c.82,5.12,1.79,10.23,2.63,14.62a6.4,6.4,0,0,0,6.28,5.44c6.16.11,12.43.11,18.48.11h4.93c5,0,9.23,0,13.49-.12a6.4,6.4,0,0,0,6.37-5.45c1-4.93,1.83-9.92,2.62-14.84a7.06,7.06,0,0,0-1.39-5.71,7.26,7.26,0,0,0-5.45-2.54c-1.22,0-2.4-.05-3.4-.05Z"/><circle class="cls-31" cx="972.78" cy="92.87" r="1.29"/><circle class="cls-31" cx="968.8" cy="84.7" r="1.29"/><circle class="cls-31" cx="976.73" cy="84.7" r="1.29"/><circle class="cls-31" cx="984.67" cy="84.7" r="1.29"/><circle class="cls-31" cx="992.6" cy="84.7" r="1.29"/><circle class="cls-31" cx="1000.54" cy="84.7" r="1.29"/><circle class="cls-31" cx="980.67" cy="92.87" r="1.29"/><circle class="cls-31" cx="988.55" cy="92.87" r="1.29"/><circle class="cls-31" cx="996.44" cy="92.87" r="1.29"/><path class="cls-30" d="M948.67,80,941.83,84v7.9l6.84,4,6.85-4V84Zm0,12.77a4.71,4.71,0,1,1,4.72-4.71A4.71,4.71,0,0,1,948.67,92.78Z"/><path class="cls-30" d="M1020.1,80,1013.26,84v7.9l6.84,4,6.84-4V84Zm0,12.77a4.71,4.71,0,1,1,4.71-4.71A4.71,4.71,0,0,1,1020.1,92.78Z"/><path class="cls-32" d="M1149,117.63H64.65a3.17,3.17,0,0,1-3.16-3.16V12A3.16,3.16,0,0,1,64.65,8.8H1149a3.16,3.16,0,0,1,3.16,3.16V114.47A3.17,3.17,0,0,1,1149,117.63ZM64.65,9.8A2.16,2.16,0,0,0,62.49,12V114.47a2.16,2.16,0,0,0,2.16,2.16H1149a2.16,2.16,0,0,0,2.16-2.16V12A2.16,2.16,0,0,0,1149,9.8Z"/><path class="cls-32" d="M1303.29,117.63h-149a3.16,3.16,0,0,1-3.15-3.16V12a3.15,3.15,0,0,1,3.15-3.16h149a3.16,3.16,0,0,1,3.16,3.16V114.47A3.17,3.17,0,0,1,1303.29,117.63ZM1154.32,9.8a2.16,2.16,0,0,0-2.15,2.16V114.47a2.16,2.16,0,0,0,2.15,2.16h149a2.16,2.16,0,0,0,2.16-2.16V12a2.16,2.16,0,0,0-2.16-2.16Z"/><rect class="cls-33" x="1174.94" y="18.07" width="107.74" height="90.28" rx="2.66" transform="translate(2457.61 126.43) rotate(180)"/><path class="cls-34" d="M1280,108.85H1177.6a3.15,3.15,0,0,1-3.16-3.15v-85a3.16,3.16,0,0,1,3.16-3.16H1280a3.17,3.17,0,0,1,3.16,3.16v85A3.16,3.16,0,0,1,1280,108.85ZM1177.6,18.57a2.16,2.16,0,0,0-2.16,2.16v85a2.16,2.16,0,0,0,2.16,2.15H1280a2.16,2.16,0,0,0,2.16-2.15v-85a2.16,2.16,0,0,0-2.16-2.16Z"/><path d="M328.48,111.29h-4.32v-4.18h4.28v.72h-3.31v.93h1.93v.71h-1.93v1h3.35Z"/><path d="M334.15,107.86h-1.93v3.43h-1v-3.43h-1.92v-.75h4.82Z"/><path d="M340.33,111.29h-1V109.5h-3v1.79h-1v-4.18h1v1.62h3v-1.62h1Z"/><path d="M348.28,111.29h-.88v-3.38h-.89v-.56l1.77-.27Z"/><path d="M378.33,111.29H374v-4.18h4.28v.72H375v.93h1.93v.71H375v1h3.35Z"/><path d="M384,107.86h-1.93v3.43h-1v-3.43h-1.92v-.75H384Z"/><path d="M390.18,111.29h-1V109.5h-3v1.79h-1v-4.18h1v1.62h3v-1.62h1Z"/><path d="M399.78,110.48a.79.79,0,0,1-.24.67,1.35,1.35,0,0,1-.72.14h-3.51v-.38a.69.69,0,0,1,.13-.45,1.58,1.58,0,0,1,.39-.31l2.89-1.78v-.54h-2.38v.86l-.82-.21v-.55a.77.77,0,0,1,.23-.67,1.24,1.24,0,0,1,.72-.15h2.15c.43,0,.7.08.82.24a1.7,1.7,0,0,1,.13.85.93.93,0,0,1-.12.52,1.36,1.36,0,0,1-.42.33l-2.45,1.49H399v-.62l.77.22Z"/><path d="M428.18,111.29h-4.32v-4.18h4.28v.72h-3.31v.93h1.93v.71h-1.93v1h3.35Z"/><path d="M433.85,107.86h-1.93v3.43h-1v-3.43H429v-.75h4.82Z"/><path d="M440,111.29h-1V109.5h-3v1.79h-1v-4.18h1v1.62h3v-1.62h1Z"/><path d="M449.52,110.39a.9.9,0,0,1-.24.73,1.25,1.25,0,0,1-.77.17h-2.43c-.45,0-.73-.08-.84-.26a2,2,0,0,1-.12-.89L446,110v.58h2.25c.22,0,.35-.06.39-.19a3.17,3.17,0,0,0,0-.49.39.39,0,0,0-.09-.31.49.49,0,0,0-.32-.07h-1.41v-.68h1.26c.2,0,.33,0,.37-.15a1.72,1.72,0,0,0,0-.44.39.39,0,0,0-.09-.31.45.45,0,0,0-.31-.07H446v.52l-.82-.16v-.26a.8.8,0,0,1,.23-.67,1.24,1.24,0,0,1,.72-.15h2.26c.46,0,.74.1.85.28a2.33,2.33,0,0,1,.11.92.72.72,0,0,1-.21.58,1.32,1.32,0,0,1-.6.22c.65.06,1,.34,1,.85Z"/><path d="M478,111.29h-4.32v-4.18H478v.72h-3.31v.93h1.93v.71h-1.93v1H478Z"/><path d="M483.7,107.86h-1.93v3.43h-1v-3.43h-1.92v-.75h4.82Z"/><path d="M489.88,111.29h-1V109.5h-3v1.79h-1v-4.18h1v1.62h3v-1.62h1Z"/><path d="M499.8,110.37h-1v1h-.89v-1h-3.16v-.7l3.13-2.6h.92v2.6h1Zm-1.9-.7V107.8l-2.28,1.87Z"/><path d="M527.88,111.29h-4.32v-4.18h4.28v.72h-3.31v.93h1.93v.71h-1.93v1h3.35Z"/><path d="M533.55,107.86h-1.93v3.43h-1v-3.43h-1.92v-.75h4.82Z"/><path d="M539.73,111.29h-1V109.5h-3v1.79h-1v-4.18h1v1.62h3v-1.62h1Z"/><path d="M549.51,110a1.17,1.17,0,0,1-.77,1.18,4,4,0,0,1-1.53.22,9.59,9.59,0,0,1-2-.17l-.21-.81a12.14,12.14,0,0,0,2.21.22,3.82,3.82,0,0,0,.9-.08.6.6,0,0,0,.52-.6c0-.29-.17-.48-.51-.58a3.61,3.61,0,0,0-.86-.07,18.57,18.57,0,0,0-2.26.17l.24-2.32h3.61l-.07.72h-2.92l-.09.81c.69-.07,1.25-.11,1.69-.11C548.82,108.53,549.51,109,549.51,110Z"/><path d="M577.73,111.29h-4.32v-4.18h4.28v.72h-3.31v.93h1.93v.71h-1.93v1h3.35Z"/><path d="M583.4,107.86h-1.93v3.43h-1v-3.43h-1.92v-.75h4.82Z"/><path d="M589.58,111.29h-1V109.5h-3v1.79h-1v-4.18h1v1.62h3v-1.62h1Z"/><path d="M599.26,110.27q0,1-1.44,1h-1.76A1.56,1.56,0,0,1,595,111a1.31,1.31,0,0,1-.32-1v-.56a2.13,2.13,0,0,1,.94-1.9,3.8,3.8,0,0,1,2.15-.54,1.85,1.85,0,0,1,.3,0l.57.67h-.27a11,11,0,0,0-1.11,0,1.77,1.77,0,0,0-1.62,1,13.36,13.36,0,0,1,1.85-.14,5.87,5.87,0,0,1,.82.05,1.21,1.21,0,0,1,.72.31,1,1,0,0,1,.23.72Zm-.89-.23v-.23a.42.42,0,0,0-.31-.45,2.19,2.19,0,0,0-.62,0,17,17,0,0,0-1.85.1,1.66,1.66,0,0,0,0,.24,1.17,1.17,0,0,0,.13.71c.1.12.35.18.74.18h1.16a1.65,1.65,0,0,0,.54-.06A.46.46,0,0,0,598.37,110Z"/><path d="M627.58,111.29h-4.32v-4.18h4.28v.72h-3.31v.93h1.93v.71h-1.93v1h3.35Z"/><path d="M633.25,107.86h-1.93v3.43h-1v-3.43h-1.92v-.75h4.82Z"/><path d="M639.43,111.29h-1V109.5h-3v1.79h-1v-4.18h1v1.62h3v-1.62h1Z"/><path d="M649.13,107.79l-2.19,3.58h-1.06l2.25-3.54h-2.76v.9l-.88-.16v-1.46h4.64Z"/><path d="M677.43,111.29h-4.32v-4.18h4.28v.72h-3.31v.93H676v.71h-1.93v1h3.35Z"/><path d="M683.1,107.86h-1.93v3.43h-1v-3.43h-1.92v-.75h4.82Z"/><path d="M689.28,111.29h-1V109.5h-3v1.79h-1v-4.18h1v1.62h3v-1.62h1Z"/><path d="M699,110.39a.87.87,0,0,1-.25.73,1.23,1.23,0,0,1-.77.17h-2.67a1.25,1.25,0,0,1-.77-.17.9.9,0,0,1-.24-.73V110c0-.49.29-.77.89-.84-.38-.07-.61-.19-.71-.38a2.24,2.24,0,0,1-.09-.81.8.8,0,0,1,.23-.67,1.24,1.24,0,0,1,.72-.15h2.61c.45,0,.74.1.85.28a2.33,2.33,0,0,1,.11.92.75.75,0,0,1-.21.58,1.27,1.27,0,0,1-.59.23c.6.07.89.35.89.84Zm-.89-.22v-.31c0-.16,0-.26-.08-.31a.47.47,0,0,0-.31-.07h-2.14a.5.5,0,0,0-.32.07.44.44,0,0,0-.08.31v.31a.44.44,0,0,0,.08.31.6.6,0,0,0,.32.06h2.14a.49.49,0,0,0,.31-.07A.41.41,0,0,0,698.07,110.17Zm-.09-1.75v-.21c0-.16,0-.26-.08-.31a.47.47,0,0,0-.31-.07h-2a.52.52,0,0,0-.32.07.44.44,0,0,0-.08.31v.21a.46.46,0,0,0,.08.31.6.6,0,0,0,.32.07h2a.54.54,0,0,0,.31-.07A.41.41,0,0,0,698,108.42Z"/><path d="M727.28,111.29H723v-4.18h4.27v.72h-3.3v.93h1.93v.71h-1.93v1h3.35Z"/><path d="M733,107.86H731v3.43h-1v-3.43h-1.92v-.75H733Z"/><path d="M739.13,111.29h-1V109.5h-3v1.79h-1v-4.18h1v1.62h3v-1.62h1Z"/><path d="M748.76,109a2.14,2.14,0,0,1-.94,1.91,3.87,3.87,0,0,1-2.14.53h-.3l-.58-.67h.27a6.69,6.69,0,0,0,1.58-.13,1.52,1.52,0,0,0,1.16-1,11.27,11.27,0,0,1-1.85.14,6,6,0,0,1-.82,0,1.21,1.21,0,0,1-.72-.31,1,1,0,0,1-.22-.72v-.56c0-.68.47-1,1.42-1h1.77a1.62,1.62,0,0,1,1.07.27,1.35,1.35,0,0,1,.3,1Zm-.88-.21a1.33,1.33,0,0,0-.14-.75c-.1-.11-.34-.16-.73-.16h-1.16a1.36,1.36,0,0,0-.54.07.44.44,0,0,0-.23.45v.23a.44.44,0,0,0,.31.47,2.6,2.6,0,0,0,.62,0c.54,0,1.15,0,1.85-.11A2.5,2.5,0,0,0,747.88,108.74Z"/><path d="M774,111.29h-4.31v-4.18H774v.72h-3.3v.93h1.93v.71h-1.93v1H774Z"/><path d="M779.66,107.86h-1.92v3.43h-1v-3.43h-1.92v-.75h4.82Z"/><path d="M785.84,111.29h-1V109.5h-3v1.79h-1v-4.18h1v1.62h3v-1.62h1Z"/><path d="M793.8,111.29h-.88v-3.38H792v-.56l1.78-.27Z"/><path d="M801.81,110.31a1.15,1.15,0,0,1-.2.77,1,1,0,0,1-.76.21H798a1,1,0,0,1-.76-.21,1.15,1.15,0,0,1-.2-.77V108.1a1.18,1.18,0,0,1,.2-.78,1,1,0,0,1,.76-.21h2.82a1,1,0,0,1,.76.21,1.18,1.18,0,0,1,.2.78Zm-.88.23v-2.71h-3v2.71Z"/><path d="M823.84,111.29h-4.31v-4.18h4.27v.72h-3.3v.93h1.93v.71H820.5v1h3.34Z"/><path d="M829.51,107.86h-1.92v3.43h-1v-3.43h-1.92v-.75h4.82Z"/><path d="M835.69,111.29h-1V109.5h-3v1.79h-1v-4.18h1v1.62h3v-1.62h1Z"/><path d="M843.65,111.29h-.89v-3.38h-.89v-.56l1.78-.27Z"/><path d="M849.91,111.29H849v-3.38h-.89v-.56l1.77-.27Z"/><path d="M873.69,111.29h-4.31v-4.18h4.27v.72h-3.3v.93h1.93v.71h-1.93v1h3.34Z"/><path d="M879.36,107.86h-1.92v3.43h-1v-3.43h-1.92v-.75h4.82Z"/><path d="M885.54,111.29h-1V109.5h-3v1.79h-1v-4.18h1v1.62h3v-1.62h1Z"/><path d="M893.5,111.29h-.89v-3.38h-.89v-.56l1.78-.27Z"/><path d="M901.4,110.48a.79.79,0,0,1-.23.67,1.35,1.35,0,0,1-.72.14h-3.52v-.38a.69.69,0,0,1,.14-.45,1.41,1.41,0,0,1,.39-.31l2.89-1.78v-.54H898v.86l-.83-.21v-.55a.78.78,0,0,1,.24-.67,1.24,1.24,0,0,1,.72-.15h2.15q.64,0,.81.24a1.56,1.56,0,0,1,.14.85.93.93,0,0,1-.12.52,1.68,1.68,0,0,1-.42.33l-2.46,1.49h2.43v-.62l.77.22Z"/><path d="M914.42,111.29H913l-1.69-1.58h-.92v1.58h-1v-4.18H913c.63,0,.94.27.94.81v1a.7.7,0,0,1-.48.76,5.09,5.09,0,0,1-1,0ZM913,108.67v-.5a.3.3,0,0,0-.12-.28.6.6,0,0,0-.32-.06h-2.18V109h2.18a.75.75,0,0,0,.32,0A.3.3,0,0,0,913,108.67Z"/><path d="M920.28,111.29H916v-4.18h4.27v.72h-3.3v.93h1.93v.71h-1.93v1h3.35Z"/><path d="M926.61,110.31a1,1,0,0,1-.23.78,1.21,1.21,0,0,1-.82.2H923a1.13,1.13,0,0,1-.84-.22,1.35,1.35,0,0,1-.2-.88l.85-.18v.5h3v-1h-2.61a1.2,1.2,0,0,1-.81-.2,1.07,1.07,0,0,1-.22-.79v-.46a1,1,0,0,1,.22-.78,1.19,1.19,0,0,1,.81-.21h2.38a1.16,1.16,0,0,1,.81.21,1.08,1.08,0,0,1,.22.8l-.86.2v-.48H923v.9h2.6a1.21,1.21,0,0,1,.82.21,1,1,0,0,1,.23.78Z"/><path d="M932.94,111.29h-4.31v-4.18h4.27v.72h-3.3v.93h1.93v.71H929.6v1h3.34Z"/><path d="M938.61,107.86h-1.92v3.43h-1v-3.43h-1.92v-.75h4.82Z"/><path d="M966,110.31a1,1,0,0,1-.23.78,1.2,1.2,0,0,1-.81.2h-2.5a1.2,1.2,0,0,1-.81-.2,1,1,0,0,1-.22-.78V108.1a1,1,0,0,1,.22-.78,1.19,1.19,0,0,1,.81-.21h2.5c.5,0,.8.12.92.35a2.65,2.65,0,0,1,.12,1l-1,.15v-.79h-2.62v2.65H965v-.9l1,.2Z"/><path d="M973,110.31a1,1,0,0,1-.23.78,1.18,1.18,0,0,1-.81.2h-3.08a1.2,1.2,0,0,1-.81-.2,1,1,0,0,1-.22-.78V108.1a1,1,0,0,1,.22-.78,1.19,1.19,0,0,1,.81-.21H972a1.18,1.18,0,0,1,.81.21,1,1,0,0,1,.23.78Zm-1,.2v-2.65h-3.2v2.65Z"/><path d="M980,111.29h-.66l-3.07-2.58a2.83,2.83,0,0,1-.35-.34,5.84,5.84,0,0,1,0,.64v2.28h-.87v-4.18h.66l2.94,2.47a4.46,4.46,0,0,1,.48.45c0-.39,0-.63,0-.72v-2.2H980Z"/><path d="M986.65,110.31a1,1,0,0,1-.23.78,1.2,1.2,0,0,1-.81.2H983a1.13,1.13,0,0,1-.84-.22,1.35,1.35,0,0,1-.2-.88l.86-.18v.5h2.95v-1h-2.61a1.2,1.2,0,0,1-.81-.2,1.07,1.07,0,0,1-.22-.79v-.46a1,1,0,0,1,.22-.78,1.19,1.19,0,0,1,.81-.21h2.38a1.21,1.21,0,0,1,.82.21,1.13,1.13,0,0,1,.21.8l-.86.2v-.48H983v.9h2.61a1.19,1.19,0,0,1,.81.21,1,1,0,0,1,.23.78Z"/><path d="M993.73,110.31a1,1,0,0,1-.22.78,1.21,1.21,0,0,1-.82.2h-3.08a1.2,1.2,0,0,1-.81-.2,1,1,0,0,1-.22-.78V108.1a1,1,0,0,1,.22-.78,1.19,1.19,0,0,1,.81-.21h3.08a1.21,1.21,0,0,1,.82.21,1,1,0,0,1,.22.78Zm-1,.2v-2.65h-3.21v2.65Z"/><path d="M999.89,111.29h-4.11v-4.18h1v3.4h3.14Z"/><path d="M1005.63,111.29h-4.32v-4.18h4.28v.72h-3.31v.93h1.93v.71h-1.93v1h3.35Z"/><rect class="cls-35" x="325.23" y="71.34" width="1.32" height="7.2"/><rect class="cls-36" x="328.4" y="71.34" width="1.32" height="7.2"/><rect class="cls-37" x="331.57" y="71.34" width="1.32" height="7.2"/><rect class="cls-38" x="334.74" y="71.34" width="1.32" height="7.2"/><rect class="cls-39" x="337.91" y="71.34" width="1.32" height="7.2"/><rect class="cls-40" x="341.08" y="71.34" width="1.32" height="7.2"/><rect class="cls-41" x="344.25" y="71.34" width="1.32" height="7.2"/><rect class="cls-42" x="347.41" y="71.34" width="1.32" height="7.2"/><rect class="cls-43" x="375.08" y="71.34" width="1.32" height="7.2"/><rect class="cls-44" x="378.25" y="71.34" width="1.32" height="7.2"/><rect class="cls-45" x="381.42" y="71.34" width="1.32" height="7.2"/><rect class="cls-46" x="384.59" y="71.34" width="1.32" height="7.2"/><rect class="cls-47" x="387.76" y="71.34" width="1.32" height="7.2"/><rect class="cls-48" x="390.93" y="71.34" width="1.32" height="7.2"/><rect class="cls-49" x="394.1" y="71.34" width="1.32" height="7.2"/><rect class="cls-50" x="397.26" y="71.34" width="1.32" height="7.2"/><rect class="cls-51" x="424.93" y="71.34" width="1.32" height="7.2"/><rect class="cls-52" x="428.1" y="71.34" width="1.32" height="7.2"/><rect class="cls-53" x="431.27" y="71.34" width="1.32" height="7.2"/><rect class="cls-54" x="434.44" y="71.34" width="1.32" height="7.2"/><rect class="cls-55" x="437.61" y="71.34" width="1.32" height="7.2"/><rect class="cls-56" x="440.78" y="71.34" width="1.32" height="7.2"/><rect class="cls-57" x="443.95" y="71.34" width="1.32" height="7.2"/><rect class="cls-58" x="447.11" y="71.34" width="1.32" height="7.2"/><rect class="cls-59" x="474.78" y="71.34" width="1.32" height="7.2"/><rect class="cls-60" x="477.95" y="71.34" width="1.32" height="7.2"/><rect class="cls-61" x="481.12" y="71.34" width="1.32" height="7.2"/><rect class="cls-62" x="484.29" y="71.34" width="1.32" height="7.2"/><rect class="cls-63" x="487.46" y="71.34" width="1.32" height="7.2"/><rect class="cls-64" x="490.63" y="71.34" width="1.32" height="7.2"/><rect class="cls-65" x="493.79" y="71.34" width="1.32" height="7.2"/><rect class="cls-66" x="496.96" y="71.34" width="1.32" height="7.2"/><rect class="cls-67" x="524.63" y="71.34" width="1.32" height="7.2"/><rect class="cls-68" x="527.8" y="71.34" width="1.32" height="7.2"/><rect class="cls-69" x="530.97" y="71.34" width="1.32" height="7.2"/><rect class="cls-70" x="534.14" y="71.34" width="1.32" height="7.2"/><rect class="cls-71" x="537.31" y="71.34" width="1.32" height="7.2"/><rect class="cls-72" x="540.48" y="71.34" width="1.32" height="7.2"/><rect class="cls-73" x="543.64" y="71.34" width="1.32" height="7.2"/><rect class="cls-74" x="546.81" y="71.34" width="1.32" height="7.2"/><rect class="cls-75" x="574.44" y="71.34" width="1.32" height="7.2"/><rect class="cls-76" x="577.61" y="71.34" width="1.32" height="7.2"/><rect class="cls-77" x="580.78" y="71.34" width="1.32" height="7.2"/><rect class="cls-78" x="583.95" y="71.34" width="1.32" height="7.2"/><rect class="cls-79" x="587.12" y="71.34" width="1.32" height="7.2"/><rect class="cls-80" x="590.29" y="71.34" width="1.32" height="7.2"/><rect class="cls-81" x="593.45" y="71.34" width="1.32" height="7.2"/><rect class="cls-82" x="596.62" y="71.34" width="1.32" height="7.2"/><rect class="cls-83" x="624.29" y="71.34" width="1.32" height="7.2"/><rect class="cls-84" x="627.46" y="71.34" width="1.32" height="7.2"/><rect class="cls-85" x="630.63" y="71.34" width="1.32" height="7.2"/><rect class="cls-86" x="633.8" y="71.34" width="1.32" height="7.2"/><rect class="cls-87" x="636.97" y="71.34" width="1.32" height="7.2"/><rect class="cls-88" x="640.14" y="71.34" width="1.32" height="7.2"/><rect class="cls-89" x="643.3" y="71.34" width="1.32" height="7.2"/><rect class="cls-90" x="646.47" y="71.34" width="1.32" height="7.2"/><rect class="cls-91" x="674.14" y="71.34" width="1.32" height="7.2"/><rect class="cls-92" x="677.31" y="71.34" width="1.32" height="7.2"/><rect class="cls-93" x="680.48" y="71.34" width="1.32" height="7.2"/><rect class="cls-94" x="683.65" y="71.34" width="1.32" height="7.2"/><rect class="cls-95" x="686.82" y="71.34" width="1.32" height="7.2"/><rect class="cls-96" x="689.98" y="71.34" width="1.32" height="7.2"/><rect class="cls-97" x="693.15" y="71.34" width="1.32" height="7.2"/><rect class="cls-98" x="696.32" y="71.34" width="1.32" height="7.2"/><rect class="cls-99" x="724.03" y="71.34" width="1.32" height="7.2"/><rect class="cls-100" x="727.2" y="71.34" width="1.32" height="7.2"/><rect class="cls-101" x="730.37" y="71.34" width="1.32" height="7.2"/><rect class="cls-102" x="733.54" y="71.34" width="1.32" height="7.2"/><rect class="cls-103" x="736.7" y="71.34" width="1.32" height="7.2"/><rect class="cls-104" x="739.87" y="71.34" width="1.32" height="7.2"/><rect class="cls-105" x="743.04" y="71.34" width="1.32" height="7.2"/><rect class="cls-106" x="746.21" y="71.34" width="1.32" height="7.2"/><rect class="cls-107" x="773.88" y="71.34" width="1.32" height="7.2"/><rect class="cls-108" x="777.05" y="71.34" width="1.32" height="7.2"/><rect class="cls-109" x="780.22" y="71.34" width="1.32" height="7.2"/><rect class="cls-110" x="783.38" y="71.34" width="1.32" height="7.2"/><rect class="cls-111" x="786.55" y="71.34" width="1.32" height="7.2"/><rect class="cls-112" x="789.72" y="71.34" width="1.32" height="7.2"/><rect class="cls-113" x="792.89" y="71.34" width="1.32" height="7.2"/><rect class="cls-114" x="796.06" y="71.34" width="1.32" height="7.2"/><rect class="cls-115" x="823.73" y="71.34" width="1.32" height="7.2"/><rect class="cls-116" x="826.9" y="71.34" width="1.32" height="7.2"/><rect class="cls-117" x="830.07" y="71.34" width="1.32" height="7.2"/><rect class="cls-118" x="833.23" y="71.34" width="1.32" height="7.2"/><rect class="cls-119" x="836.4" y="71.34" width="1.32" height="7.2"/><rect class="cls-120" x="839.57" y="71.34" width="1.32" height="7.2"/><rect class="cls-121" x="842.74" y="71.34" width="1.32" height="7.2"/><rect class="cls-122" x="845.91" y="71.34" width="1.32" height="7.2"/><rect class="cls-123" x="873.58" y="71.34" width="1.32" height="7.2"/><rect class="cls-124" x="876.75" y="71.34" width="1.32" height="7.2"/><rect class="cls-125" x="879.91" y="71.34" width="1.32" height="7.2"/><rect class="cls-126" x="883.08" y="71.34" width="1.32" height="7.2"/><rect class="cls-127" x="886.25" y="71.34" width="1.32" height="7.2"/><rect class="cls-128" x="889.42" y="71.34" width="1.32" height="7.2"/><rect class="cls-129" x="892.59" y="71.34" width="1.32" height="7.2"/><rect class="cls-130" x="895.76" y="71.34" width="1.32" height="7.2"/><rect class="cls-131" x="52.65" width="1.68" height="125.19"/><rect class="cls-132" x="48.9" width="2.75" height="125.19"/><rect class="cls-32" x="54.72" width="0.9" height="125.19"/><rect class="cls-131" x="1314.1" width="1.68" height="125.19"/><rect class="cls-132" x="1316.78" width="2.75" height="125.19"/><rect class="cls-32" x="1312.8" width="0.9" height="125.19"/><path d="M1111.25,21.17c2.13,0,4.26,0,6.39,0a7.09,7.09,0,0,1,1.66.17,3.26,3.26,0,0,1,2.51,2.66,3.16,3.16,0,0,1-1.81,3c-1,.54-1,.53,0,1.2a13,13,0,0,1,1.34,1,1,1,0,0,1,.33,1.39,1.2,1.2,0,0,1-1.55.51,6.53,6.53,0,0,1-1.08-.64c-2-1.3-4.14-2.59-6.58-2.85a56.1,56.1,0,0,0-6.49-.14c-.26,0-.64.45-.76.77a3.91,3.91,0,0,0,0,1.24c0,1.11-.46,1.7-1.26,1.72s-1.28-.57-1.3-1.66c0-.46,0-.91,0-1.37a2.9,2.9,0,0,1,3.15-3.13c3.91,0,7.83,0,11.74,0a3,3,0,0,0,1-.05c.3-.13.52-.47.78-.71a3.93,3.93,0,0,0-.82-.62,2.67,2.67,0,0,0-.94,0h-12.58a3.45,3.45,0,0,1-1.52-.23,1.49,1.49,0,0,1-.73-1.1c0-.37.47-.8.84-1a2.3,2.3,0,0,1,1.13-.13C1106.85,21.16,1109.05,21.17,1111.25,21.17Z"/><path d="M1033.4,31.29c-2.27,0-4.54,0-6.81,0-1.33,0-1.76-.43-1.79-1.76,0-1,0-2,0-3a1.24,1.24,0,0,1,1.27-1.37c.76,0,1.18.45,1.22,1.37,0,.52,0,1.05,0,1.57s.27.86.89.85c3.91,0,7.82,0,11.74,0,1.56,0,2.42-1.05,2.4-2.69a2.27,2.27,0,0,0-2.45-2.51c-4.2,0-8.39,0-12.58,0a3.89,3.89,0,0,1-1.54-.17c-.39-.18-.88-.68-.86-1a2,2,0,0,1,.84-1.15,1.77,1.77,0,0,1,1-.15c4.33,0,8.66,0,13,0a4.79,4.79,0,0,1,4.76,3.39,5.11,5.11,0,0,1-1.81,5.88,5.51,5.51,0,0,1-2.64.8C1037.88,31.36,1035.64,31.29,1033.4,31.29Z"/><path d="M1090.34,31.29c-1.67,0-3.36-.1-5,0-3.29.25-5.85-3.41-4.66-6.74a4.67,4.67,0,0,1,4.75-3.4c3.36,0,6.71,0,10.07,0a4.71,4.71,0,0,1,4.72,4,5.13,5.13,0,0,1-2.68,5.72,5.29,5.29,0,0,1-1.92.41C1093.84,31.32,1092.09,31.29,1090.34,31.29Zm-.06-2.39h2.41c.81,0,1.61,0,2.41,0,1.8,0,2.68-.9,2.69-2.62s-.77-2.59-2.65-2.6q-4.82,0-9.64,0c-1.79,0-2.6.82-2.63,2.52s.81,2.67,2.59,2.69C1087.07,28.92,1088.68,28.9,1090.28,28.9Z"/><path d="M990.44,31.28c-1.68,0-3.36,0-5,0a4.48,4.48,0,0,1-4.55-2.88,5.12,5.12,0,0,1,.75-5.51,4.38,4.38,0,0,1,3.66-1.71c3.45,0,6.91-.05,10.37,0a4.91,4.91,0,0,1,4.71,5,4.85,4.85,0,0,1-4.78,5.05C993.86,31.3,992.15,31.28,990.44,31.28Zm0-7.61c-1.72,0-3.43,0-5.14,0a2.33,2.33,0,0,0-2.44,2.54,2.32,2.32,0,0,0,2.33,2.66q5.13.07,10.27,0c1.63,0,2.5-1.09,2.44-2.77a2.3,2.3,0,0,0-2.54-2.43C993.7,23.65,992.06,23.67,990.42,23.67Z"/><path d="M1069.34,31.29c-2.13,0-4.26-.07-6.39,0-3,.12-4.73-2.23-4.85-4.94a4.78,4.78,0,0,1,4.55-5.16c4.65-.1,9.3,0,13.94,0,.91,0,1.46.51,1.47,1.18s-.5,1.2-1.41,1.26c-1.07.06-2.16,0-3.24,0h-10c-2,0-2.82.73-2.83,2.51s.83,2.71,2.89,2.71h12.58c1.31,0,2,.42,2,1.21s-.66,1.17-2,1.17Z"/><path d="M948.61,31.28c-2.13,0-4.27-.13-6.39,0-3.82.28-5.84-4.07-4.55-7a4.71,4.71,0,0,1,4.64-3.12h13c1.24,0,1.88.41,1.91,1.18s-.62,1.29-1.92,1.29c-4.3,0-8.6,0-12.89,0-1.88,0-2.68.86-2.64,2.72,0,1.67.9,2.51,2.68,2.51,4.23,0,8.45,0,12.68,0,.39,0,.85-.08,1.13.1s.89.72.88,1.1-.5.85-.9,1.08a2.79,2.79,0,0,1-1.24.09Z"/><path d="M1133.71,25.09h7.44a7.54,7.54,0,0,1,.95,0c.66.08,1.14.43,1.15,1.12a1.16,1.16,0,0,1-1.11,1.19,8.84,8.84,0,0,1-1.15,0h-12.9a2.08,2.08,0,0,0-.83,0c-.26.11-.63.38-.63.58a1,1,0,0,0,.54.74,2.68,2.68,0,0,0,1,.07h13.63c1.38,0,2,.37,1.94,1.21s-.59,1.18-2,1.18c-4.68,0-9.36,0-14,0-2.51,0-3.72-1.22-3.75-3.73,0-2.35.09-2.47,2.48-2.47Z"/><path d="M1012.48,31.29c-1.67,0-3.35,0-5,0a4.39,4.39,0,0,1-4.55-3.55,27.31,27.31,0,0,1-.26-5.2,1.23,1.23,0,0,1,1.36-1.27,1.41,1.41,0,0,1,1.2,1.49c0,1-.1,2-.09,3,0,2.26.88,3.12,3.1,3.13,3,0,5.94,0,8.91,0,2.07,0,2.93-.87,3-2.93,0-1.15,0-2.31,0-3.46a1.16,1.16,0,0,1,1.15-1.25,1.13,1.13,0,0,1,1.29,1c.12,2.22.41,4.48-.66,6.57a4.21,4.21,0,0,1-3.86,2.45c-1.85,0-3.71,0-5.56,0Z"/><path d="M1100.31,46q-20.93,0-41.84,0c-.5,0-1.42.39-1.41-.49s.9-.44,1.39-.44h83.78a3.65,3.65,0,0,1,.94,0c.19.05.33.28.49.43-.16.16-.29.41-.47.44a5.48,5.48,0,0,1-1.15,0Z"/><path d="M970,31.28c-2.23,0-4.47,0-6.7,0-2.53,0-3.8-1.31-3.8-3.82,0-1.47,0-2.93,0-4.4,0-1.21.44-1.82,1.25-1.83s1.28.6,1.3,1.79c0,1.5,0,3,0,4.5,0,1.2.2,1.39,1.43,1.39,4.39,0,8.79,0,13.19,0,1.38,0,2,.35,2,1.18s-.56,1.19-1.95,1.19Z"/><path d="M1138.69,37.52h3.56a1.52,1.52,0,0,1,.72.07,3.74,3.74,0,0,1,.71.67,3.73,3.73,0,0,1-.77.72,2.36,2.36,0,0,1-.93.05c-2.3,0-4.61,0-6.92,0a1.47,1.47,0,0,0-1.34,2.31,2.26,2.26,0,0,0,.64.47,3.73,3.73,0,0,0,.34-.57,1.76,1.76,0,0,1,1.92-1.45q2.57,0,5.13,0a1.77,1.77,0,0,1,2,1.82c0,1.14-.73,1.83-2.06,1.84q-3.4,0-6.82,0a2.82,2.82,0,0,1-2.9-2.91,3,3,0,0,1,2.75-3c1.32-.06,2.65,0,4,0Zm.54,3.81h0c-.79,0-1.59,0-2.39,0-.14,0-.27.16-.41.24.14.12.28.33.42.33,1.56,0,3.13,0,4.69,0,.16,0,.32-.2.47-.3-.16-.1-.32-.28-.48-.29C1140.76,41.31,1140,41.33,1139.23,41.33Z"/><path d="M1133.85,21.17c2.66,0,5.31,0,8,0,1.28,0,2,.44,2,1.21s-.68,1.28-1.94,1.29q-8,0-16,0a1.86,1.86,0,0,1-1.09-.25c-.31-.26-.67-.75-.62-1.08a1.82,1.82,0,0,1,.83-1,2.31,2.31,0,0,1,1.13-.12C1128.69,21.16,1131.27,21.17,1133.85,21.17Z"/><path d="M1124.58,43.48h-3.88c-.55,0-1.27.08-1.25-.72s.72-.77,1.27-.77c2.38,0,4.75,0,7.13,0a5.94,5.94,0,0,0,.94-.06c.1,0,.18-.17.28-.26-.09-.09-.17-.24-.28-.26a3.82,3.82,0,0,0-.83-.06h-5.34a2.17,2.17,0,0,1-.93-.1c-.26-.14-.59-.48-.58-.72s.39-.55.66-.63a4.33,4.33,0,0,1,1.25-.06c1.75,0,3.5,0,5.24,0,.27,0,.54-.27.81-.41a2.68,2.68,0,0,0-.8-.32c-2.31,0-4.61,0-6.92,0h-.84c-.51,0-1.06-.12-1.06-.75s.55-.75,1.07-.75c2.68,0,5.37,0,8.06,0,1.66,0,2.34,1,2,2.66a1.81,1.81,0,0,0,0,.8,1.77,1.77,0,0,1-1.82,2.46c-1.4,0-2.8,0-4.19,0Z"/><path d="M1043.22,37.53h3.88a2.15,2.15,0,0,1,2,1.09,1.64,1.64,0,0,1-.75,2.31c-.61.35-.5.51,0,.8a1.76,1.76,0,0,1,.65.51c.14.23.27.68.16.82a1.12,1.12,0,0,1-.88.3,3.8,3.8,0,0,1-1.18-.65c-2-1.49-4.37-1.52-6.73-1.36-.25,0-.53.42-.7.7s0,.52-.11.7-.45.61-.7.62a1,1,0,0,1-.74-.55,2.1,2.1,0,0,1,2-3c2.13,0,4.26,0,6.39,0a3.91,3.91,0,0,0,.84,0,.47.47,0,0,0,.31-.33c0-.11-.18-.3-.31-.33a3.78,3.78,0,0,0-.83-.06h-6.81a2.19,2.19,0,0,1-.93-.08,1.15,1.15,0,0,1-.59-.71c0-.18.33-.56.56-.61a9.51,9.51,0,0,1,1.77-.1c.91,0,1.82,0,2.72,0Z"/><path d="M1087.81,37.52c1.15,0,2.31,0,3.46,0a4.86,4.86,0,0,1,1.14.13,1.79,1.79,0,0,1,1.4,1.4,1.59,1.59,0,0,1-.77,1.81c-.66.38-.6.65,0,1l.09.06c.42.33,1,.66.51,1.26s-1,.26-1.4-.07a10.07,10.07,0,0,0-7.14-1.79c-.66,0-1,.27-.94.94,0,.17,0,.41-.05.51-.23.26-.5.59-.79.63s-.62-.38-.66-.64c-.2-1.53,0-3,2.29-3,2,0,4,0,6.08,0a3.25,3.25,0,0,0,.83-.07.48.48,0,0,0,.31-.34c0-.11-.2-.28-.33-.31a4.57,4.57,0,0,0-.83,0h-5.77c-.31,0-.63,0-.94,0-.63-.05-1.58.19-1.58-.73s1-.75,1.63-.77C1085.5,37.49,1086.66,37.52,1087.81,37.52Z"/><path d="M979.42,37.53c1.26,0,2.52-.05,3.77,0a3.18,3.18,0,0,1,1.64.55,1.64,1.64,0,0,1-.22,2.75c-.64.43-.57.64,0,1,.15.09.34.19.4.33a6.54,6.54,0,0,1,.26,1,7.45,7.45,0,0,1-1,.15.85.85,0,0,1-.45-.25c-2.13-1.67-4.59-1.89-7.16-1.74-.58,0-.93.23-.92.87,0,.21,0,.47-.05.61s-.45.56-.72.6-.57-.28-.66-.51a2.1,2.1,0,0,1,2-3.06c2.09,0,4.19,0,6.29,0a3.8,3.8,0,0,0,.83,0c.17,0,.3-.22.45-.34-.14-.13-.26-.32-.43-.36a3.26,3.26,0,0,0-.83,0h-6.5a2.28,2.28,0,0,1-.83,0,7.31,7.31,0,0,1-1-.7,7,7,0,0,1,1-.74c.19-.11.47,0,.72,0Z"/><path d="M1112.51,43.47c-1,0-2,0-2.93,0a2.75,2.75,0,0,1-2.81-2.77,2.93,2.93,0,0,1,2.6-3.14c1.43-.09,2.86,0,4.3,0,.66,0,1.33,0,2,0a3,3,0,0,1-.11,5.94C1114.54,43.49,1113.53,43.47,1112.51,43.47Zm.06-1.51c.94,0,1.89,0,2.83,0s1.44-.44,1.47-1.37a1.3,1.3,0,0,0-1.44-1.53c-1.89,0-3.77,0-5.66,0a1.45,1.45,0,0,0-1.46,1.57,1.29,1.29,0,0,0,1.43,1.33C1110.68,42,1111.63,42,1112.57,42Z"/><path d="M992.52,43.47c-1,0-2,0-2.93,0a2.77,2.77,0,0,1-2.83-2.75,2.84,2.84,0,0,1,2.66-3.15c1.39-.08,2.79,0,4.19,0,.73,0,1.46,0,2.19,0a2.93,2.93,0,0,1,2.65,3.09,2.88,2.88,0,0,1-2.9,2.81C994.54,43.48,993.53,43.47,992.52,43.47Zm.11-4.43h0c-.94,0-1.88,0-2.82,0s-1.47.46-1.53,1.34A1.36,1.36,0,0,0,989.63,42c2,.07,4,.06,5.94,0A1.38,1.38,0,0,0,997,40.46a1.4,1.4,0,0,0-1.5-1.41C994.51,39,993.57,39,992.63,39Z"/><path d="M1076.23,43.47h-3.67a2.76,2.76,0,0,1-2.93-2.76,2.87,2.87,0,0,1,2.78-3.17c1.18-.06,2.37,0,3.56,0h4.2c.55,0,1.13.09,1.11.8s-.61.69-1.1.69q-3.67,0-7.34,0c-.81,0-1.47.22-1.65,1.12-.22,1.08.38,1.78,1.56,1.81,2.41,0,4.82.07,7.22.11.14,0,.32,0,.42,0,.32.2.61.44.91.66-.29.24-.57.64-.88.68a19.35,19.35,0,0,1-2.41,0Z"/><path d="M1063.58,43.47c-1.26,0-2.52,0-3.77,0A2.73,2.73,0,0,1,1057,40.9a2.86,2.86,0,0,1,2.24-3.29,3.83,3.83,0,0,1,.83-.08h7.12c.17,0,.39-.05.52,0,.32.21.8.43.85.72.11.57-.4.74-.89.75h-6.18c-.52,0-1,0-1.57,0-1,.07-1.41.53-1.4,1.46A1.27,1.27,0,0,0,1060,42c2.33.07,4.67.09,7,.13a2,2,0,0,1,.82,0,4.83,4.83,0,0,1,.89.69c-.3.22-.6.62-.92.64-1.39.07-2.79,0-4.18,0Z"/><path d="M1031.63,43.47h-3.56a2.8,2.8,0,0,1-2.87-2.72,2.91,2.91,0,0,1,2.57-3.17c2.68-.1,5.37-.06,8.06,0,.32,0,.63.48,1,.74-.33.24-.66.67-1,.68-2.47.06-5,0-7.43,0a1.47,1.47,0,0,0-1.48,2.05c.26.84.93,1,1.66,1,2.16,0,4.32,0,6.49,0a2.61,2.61,0,0,1,.93,0,3.52,3.52,0,0,1,.77.68c-.27.22-.52.61-.8.63-1.26.07-2.51,0-3.77,0Z"/><path d="M1118.32,51.62c-.87,0-1.75,0-2.62,0-.44,0-1,.06-1-.59,0-.2.61-.49,1-.51,1.51-.05,3,0,4.51,0a4.54,4.54,0,0,0,.74,0,2.17,2.17,0,0,0,.52-.23c-.16-.09-.33-.25-.49-.26-.67,0-1.33,0-2,0-1,0-2.09,0-3.14,0s-1.5-.57-1.48-1.3a1.28,1.28,0,0,1,1.35-1.32c1.92-.08,3.84-.11,5.76-.08.32,0,.64.38,1,.59-.32.19-.64.55-1,.56-1.5.07-3,0-4.51,0a4.45,4.45,0,0,0-.73,0,2,2,0,0,0-.49.23,1.43,1.43,0,0,0,.47.15c1.36,0,2.73,0,4.09,0a5.76,5.76,0,0,1,1.25.08,1.36,1.36,0,0,1,1.24,1.34,1.33,1.33,0,0,1-1.38,1.31c-1,.06-2,0-3,0Z"/><path d="M1005.51,43.47h-2.93a2.68,2.68,0,0,1-2.77-2.34,12.91,12.91,0,0,1,0-2.71c0-.28.41-.54.64-.81.27.26.72.48.79.78a11.69,11.69,0,0,1,.07,1.88c0,1.24.49,1.76,1.69,1.79,1.74,0,3.49,0,5.24,0,1.16,0,1.61-.56,1.64-1.72a10.42,10.42,0,0,1,0-1.77,1.36,1.36,0,0,1,.75-.92c.54-.11.75.39.75.9a17.21,17.21,0,0,1,0,2.49,2.7,2.7,0,0,1-2.81,2.43h-3Z"/><path d="M1086.14,51.62h-2.72c-.62,0-1.22,0-1.35-.82a1.55,1.55,0,0,1,1-1.82,3.93,3.93,0,0,1,1-.12c1.26,0,2.52,0,3.77,0a4,4,0,0,0,.76-.18,2.8,2.8,0,0,0-.72-.21c-1.25,0-2.51,0-3.77,0a2.87,2.87,0,0,1-.83,0c-.39-.13-1-.33-1.06-.54,0-.66.57-.55,1-.56,1.75,0,3.49,0,5.24,0,1.06,0,1.69.54,1.67,1.32s-.65,1.3-1.7,1.32c-1.47,0-2.94,0-4.4,0a1.93,1.93,0,0,0-.61.27,2.29,2.29,0,0,0,.63.23c1.46,0,2.93,0,4.4,0a2.54,2.54,0,0,1,.83,0,3.59,3.59,0,0,1,.79.52c-.26.19-.5.52-.77.54-1.07.06-2.16,0-3.24,0Z"/><path d="M1095.83,48.45h-2.51c-.68,0-1.08.33-1.07,1a1,1,0,0,0,1.08,1c1.43,0,2.87,0,4.3,0,.17,0,.34-.16.52-.24a1.51,1.51,0,0,0-.51-.25c-1,0-2,0-2.93,0-.31,0-.59-.33-.89-.51.29-.19.57-.53.87-.55,1.11-.06,2.24-.06,3.35,0,.94,0,1.43.55,1.44,1.34s-.51,1.36-1.5,1.38c-1.64,0-3.29,0-4.93,0a2,2,0,0,1-2-2.13,2,2,0,0,1,1.89-2.12c1.91-.08,3.83-.09,5.75-.07.25,0,.49.38.73.58-.25.19-.49.52-.76.54-.94.07-1.88,0-2.83,0Z"/><path d="M1015.32,39c-.49,0-1,0-1.47,0s-1.07-.05-1.09-.7.6-.77,1.13-.78c.94,0,1.88,0,2.83,0h5.55a2,2,0,0,1,.92.07,3.24,3.24,0,0,1,.71.76c-.24.21-.46.56-.74.61a12.94,12.94,0,0,1-1.87.06c-1.87,0-2.16.3-2.17,2.21a5,5,0,0,1,0,1.35c-.1.33-.48.56-.74.84-.25-.28-.69-.54-.72-.84a12.36,12.36,0,0,1,0-2.72c.1-.71-.14-.87-.76-.84s-1,0-1.57,0Z"/><path d="M1113.48,49.5a7.71,7.71,0,0,1,0,1.36,1.06,1.06,0,0,1-.53.65c-.1.05-.53-.24-.57-.43-.17-.7-.65-.71-1.2-.71-1.36,0-2.73,0-4.09,0a1.71,1.71,0,0,1-1.71-2.43c.07-.22.35-.5.54-.5s.43.27.56.48a1.21,1.21,0,0,1,.1.61c0,.62.41.73.92.73,1.26,0,2.51,0,3.77,0,.7,0,1-.23,1-1a1.64,1.64,0,0,1,.45-.86c0-.06.43,0,.53.14a1.18,1.18,0,0,1,.24.66c0,.42,0,.84,0,1.26Z"/><path d="M1031.92,41.3c-1,0-2.09,0-3.13,0-.51,0-1-.12-1.07-.74s.53-.74,1-.74c2.12,0,4.25,0,6.37,0,.36,0,.94.36,1,.64.13.62-.46.79-1,.8-1.07,0-2.16,0-3.24,0Z"/><path d="M1105.53,41a5.46,5.46,0,0,1,0,1.46c-.1.37-.41.88-.72,1-.6.13-.83-.41-.86-.94,0-.8-.05-1.61,0-2.41,0-.62-.09-1-.82-1-.5,0-1-.21-.87-.76a1.32,1.32,0,0,1,1-.7,2,2,0,0,1,2.36,2.06c0,.45,0,.91,0,1.36Z"/><path d="M1098,41.29a9.71,9.71,0,0,1-1.87,0c-.36-.07-.66-.47-1-.72.33-.24.64-.68,1-.7a31.45,31.45,0,0,1,3.76,0c.32,0,.62.42.93.65-.31.26-.58.68-.93.76a9.8,9.8,0,0,1-1.88,0Z"/><path d="M1081.38,49.21a13,13,0,0,1-.15,1.63c-.06.26-.33.46-.51.68a3,3,0,0,1-.57-.72,2.28,2.28,0,0,1,0-.83c0-.71.19-1.52-.9-1.67a.57.57,0,0,1-.29-.47.84.84,0,0,1,.48-.46C1080.5,47.06,1081.4,47.94,1081.38,49.21Z"/><path d="M1102.33,50a6.51,6.51,0,0,1-1.25,0c-.24,0-.44-.33-.67-.5.19-.18.37-.5.57-.51a28.44,28.44,0,0,1,2.92,0c.18,0,.41.34.47.56s-.29.4-.47.43a13.68,13.68,0,0,1-1.57,0Z"/><path d="M1112.64,39.81c.8,0,1.61,0,2.41,0,.48,0,1,.14.92.71a1.25,1.25,0,0,1-.93.74c-1.6.08-3.21.05-4.82,0-.49,0-1.11-.14-1-.78.06-.29.62-.62,1-.66A19.33,19.33,0,0,1,1112.64,39.81Z"/><circle cx="948.67" cy="88.07" r="4.71"/><circle cx="1020.1" cy="88.07" r="4.71"/><path d="M168.08,110.46a1,1,0,0,1-.22.77,1.2,1.2,0,0,1-.81.2H164.5a1.14,1.14,0,0,1-.84-.22,1.37,1.37,0,0,1-.2-.86l.85-.18v.49h2.92v-1h-2.57a1.2,1.2,0,0,1-.81-.2,1.05,1.05,0,0,1-.22-.77v-.46a1.05,1.05,0,0,1,.22-.77,1.2,1.2,0,0,1,.81-.2H167a1.2,1.2,0,0,1,.81.2,1.12,1.12,0,0,1,.21.79l-.84.2V108h-2.71v.88h2.58a1.26,1.26,0,0,1,.81.2,1.05,1.05,0,0,1,.22.78Z"/><path d="M174.25,108H171v1.08h1.74v.76H171v1.56h-1v-4.12h4.18Z"/><path d="M179.9,109c0,.53-.31.8-.92.8h-2.6v1.6h-.94v-4.12H179c.61,0,.92.26.92.8Zm-.92-.24v-.44a.3.3,0,0,0-.12-.28.78.78,0,0,0-.32,0h-2.16v1.09h2.16a.64.64,0,0,0,.32,0Q179,109,179,108.79Z"/><path d="M188.75,110.63a.78.78,0,0,1-.23.66,1.24,1.24,0,0,1-.71.14h-3.47v-.37a.69.69,0,0,1,.13-.45,1.42,1.42,0,0,1,.39-.3l2.85-1.76V108h-2.35v.85l-.82-.21v-.54a.75.75,0,0,1,.24-.66,1.2,1.2,0,0,1,.71-.14h2.12c.42,0,.69.07.81.23a1.65,1.65,0,0,1,.13.84.92.92,0,0,1-.12.51,1.42,1.42,0,0,1-.41.33l-2.43,1.47H188v-.61l.76.22Z"/><path d="M116.21,110.46a1,1,0,0,1-.23.77,1.2,1.2,0,0,1-.81.2h-2.55a1.12,1.12,0,0,1-.83-.22,1.38,1.38,0,0,1-.2-.87l.85-.17v.49h2.92v-1h-2.58a1.21,1.21,0,0,1-.8-.2,1,1,0,0,1-.22-.77v-.46a1.05,1.05,0,0,1,.22-.78,1.21,1.21,0,0,1,.8-.2h2.35a1.15,1.15,0,0,1,.8.21,1.05,1.05,0,0,1,.22.79l-.85.2V108h-2.7v.89h2.57a1.26,1.26,0,0,1,.81.2,1,1,0,0,1,.23.78Z"/><path d="M122.37,108h-3.21v1.09h1.73v.75h-1.73v1.57h-1V107.3h4.17Z"/><path d="M128,109c0,.54-.31.8-.93.8h-2.59v1.61h-.94V107.3h3.53c.62,0,.93.27.93.8Zm-.93-.24v-.44a.28.28,0,0,0-.12-.27.6.6,0,0,0-.31,0h-2.16v1.09h2.16a.73.73,0,0,0,.31,0A.3.3,0,0,0,127.1,108.78Z"/><path d="M135.25,111.43h-.87v-3.34h-.88v-.55l1.75-.27Z"/><path d="M220.44,110.46a1,1,0,0,1-.22.78,1.26,1.26,0,0,1-.81.2h-2.55a1.11,1.11,0,0,1-.83-.23,1.28,1.28,0,0,1-.21-.86l.85-.18v.49h2.92v-.94H217a1.26,1.26,0,0,1-.81-.2,1.08,1.08,0,0,1-.22-.78v-.46a1.05,1.05,0,0,1,.22-.77,1.26,1.26,0,0,1,.81-.2h2.34a1.22,1.22,0,0,1,.81.2,1.11,1.11,0,0,1,.22.79l-.85.2V108h-2.71v.89h2.58a1.2,1.2,0,0,1,.81.2,1,1,0,0,1,.22.77Z"/><path d="M226.61,108h-3.22v1.09h1.74v.75h-1.74v1.57h-1v-4.13h4.18Z"/><path d="M232.26,109c0,.53-.3.8-.92.8h-2.6v1.61h-.94v-4.13h3.54c.62,0,.92.27.92.8Zm-.92-.24v-.44q0-.21-.12-.27a.6.6,0,0,0-.31-.06h-2.17v1.1h2.17a.6.6,0,0,0,.31-.06Q231.34,109,231.34,108.79Z"/><path d="M241,110.55a.89.89,0,0,1-.24.72,1.31,1.31,0,0,1-.76.17h-2.4c-.44,0-.72-.09-.83-.26a2,2,0,0,1-.12-.89l.85-.17v.57h2.23c.22,0,.34-.06.38-.18a3.29,3.29,0,0,0,0-.49.38.38,0,0,0-.09-.3.47.47,0,0,0-.31-.07h-1.4V109h1.24c.21,0,.33,0,.37-.15a1.62,1.62,0,0,0,0-.43c0-.16,0-.26-.08-.3a.49.49,0,0,0-.32-.08h-2v.51l-.81-.15v-.25a.8.8,0,0,1,.23-.67,1.33,1.33,0,0,1,.71-.14h2.24c.44,0,.72.09.83.27a2.27,2.27,0,0,1,.11.91.71.71,0,0,1-.21.57,1.27,1.27,0,0,1-.59.22q1,.09,1,.84Z"/><path d="M271.94,110.44a1.05,1.05,0,0,1-.22.78,1.26,1.26,0,0,1-.81.2h-2.55a1.11,1.11,0,0,1-.83-.23,1.3,1.3,0,0,1-.21-.86l.85-.18v.49h2.92v-.94h-2.57a1.26,1.26,0,0,1-.81-.2,1.1,1.1,0,0,1-.22-.78v-.46a1.05,1.05,0,0,1,.22-.77,1.2,1.2,0,0,1,.81-.2h2.34a1.22,1.22,0,0,1,.81.2,1.11,1.11,0,0,1,.22.79l-.85.2V108h-2.71v.89h2.58a1.2,1.2,0,0,1,.81.2,1,1,0,0,1,.22.77Z"/><path d="M278.11,108h-3.22v1.09h1.74v.75h-1.74v1.57h-1v-4.13h4.18Z"/><path d="M283.76,109c0,.53-.3.8-.92.8h-2.6v1.61h-.94v-4.13h3.54c.62,0,.92.26.92.8Zm-.92-.24v-.44q0-.21-.12-.27a.6.6,0,0,0-.31-.06h-2.17v1.1h2.17a.6.6,0,0,0,.31-.06Q282.84,109,282.84,108.77Z"/><path d="M292.93,110.5h-1v1h-.87v-1h-3.13v-.68l3.1-2.58h.9v2.58h1Zm-1.87-.68V108l-2.26,1.85Z"/><path id="path1334" d="M95.56,109.36l-2-1.18V109H83l2-2.16a1.09,1.09,0,0,1,.64-.24h1.71a1,1,0,0,0,1,.69,1,1,0,1,0-1-1.37H85.74a1.92,1.92,0,0,0-1.25.55h0l-2.16,2.28a1.1,1.1,0,0,1-.63.25H80.51a1.71,1.71,0,1,0,0,.67h3.75a1.09,1.09,0,0,1,.63.24l2.16,2.29h0a2,2,0,0,0,1.25.54h1.63v.69h2v-2h-2v.69H88.28a1.1,1.1,0,0,1-.64-.25l-2-2.15h7.91v.85Z"/><path class="cls-31" d="M78.29,93.06H93.84v.18c0,1.35,0,2.71,0,4.06a.53.53,0,0,1-.12.32c-.76.84-1.53,1.67-2.31,2.5a.44.44,0,0,1-.27.11H81a.35.35,0,0,1-.24-.1c-.78-.84-1.56-1.68-2.32-2.52a.39.39,0,0,1-.12-.26c0-1.4,0-2.79,0-4.19Zm7.78,1.19H79.68c-.16,0-.21,0-.21.21,0,.79,0,1.58,0,2.38a.43.43,0,0,0,.11.28l1.67,1.83a.39.39,0,0,0,.23.09q4.58,0,9.15,0a.39.39,0,0,0,.23-.09l1.67-1.83a.43.43,0,0,0,.11-.28c0-.79,0-1.58,0-2.36,0-.19,0-.23-.23-.23Z"/><path class="cls-133" d="M86.07,94.25h6.36c.18,0,.23,0,.23.23,0,.78,0,1.57,0,2.36a.43.43,0,0,1-.11.28l-1.67,1.83a.39.39,0,0,1-.23.09q-4.58,0-9.15,0a.39.39,0,0,1-.23-.09l-1.67-1.83a.43.43,0,0,1-.11-.28c0-.8,0-1.59,0-2.38,0-.17,0-.21.21-.21Zm-.61,2.38h1.21v-.58h.6v.58h1.2v-.58h.59v.58h1.2V96h1.19V94.86H80.68v1.19h1.2v.58h1.2v-.58h.6v.58h1.19v-.58h.59Z"/><path class="cls-31" d="M85.46,96.63v-.58h-.59v.58H83.68v-.58h-.6v.58h-1.2v-.58h-1.2V94.86H91.45V96H90.26v.59h-1.2v-.58h-.59v.58h-1.2v-.58h-.6v.58Z"/><rect class="cls-134" x="81.88" y="96.05" width="1.19" height="0.58"/><rect class="cls-134" x="83.68" y="96.05" width="1.19" height="0.58"/><rect class="cls-134" x="85.48" y="96.05" width="1.19" height="0.58"/><rect class="cls-134" x="87.28" y="96.05" width="1.19" height="0.58"/><rect class="cls-134" x="89.07" y="96.05" width="1.19" height="0.58"/><rect class="cls-7" x="103.35" y="71.91" width="41.99" height="29.25"/><path class="cls-135" d="M144.75,100.3H103.94V72.53h40.81Zm-39.81-1h38.81V73.53H104.94Z"/><rect class="cls-7" x="116.55" y="98.29" width="15.59" height="2.25"/><rect class="cls-135" x="117.75" y="98.07" width="13.2" height="1.8"/><rect class="cls-7" x="258.3" y="71.89" width="41.99" height="29.25"/><path class="cls-135" d="M299.7,100.29H258.9V72.52h40.8Zm-39.8-1h38.8V73.52H259.9Z"/><rect class="cls-7" x="271.51" y="98.27" width="15.59" height="2.25"/><rect class="cls-135" x="272.7" y="98.05" width="13.2" height="1.8"/><rect class="cls-7" x="206.8" y="71.89" width="41.99" height="29.25"/><path class="cls-135" d="M248.2,100.29H207.4V72.52h40.8Zm-39.8-1h38.8V73.52H208.4Z"/><rect class="cls-7" x="220.01" y="98.27" width="15.59" height="2.25"/><rect class="cls-135" x="221.2" y="98.05" width="13.2" height="1.8"/><rect class="cls-7" x="155.08" y="71.89" width="41.99" height="29.25"/><path class="cls-135" d="M196.48,100.29H155.67V72.52h40.81Zm-39.81-1h38.81V73.52H156.67Z"/><rect class="cls-7" x="168.28" y="98.27" width="15.59" height="2.25"/><rect class="cls-135" x="169.47" y="98.05" width="13.2" height="1.8"/></svg>