<svg id="Camada_1" data-name="Camada 1" xmlns="http://www.w3.org/2000/svg" viewBox="0 0 1368 125.28"><defs><style>.cls-1,.cls-13{fill:#434041;}.cls-2{fill:#f6f5f5;}.cls-3{fill:#f0efed;}.cls-3,.cls-4,.cls-5,.cls-6{stroke:#fff;}.cls-10,.cls-13,.cls-17,.cls-3,.cls-4,.cls-5,.cls-6,.cls-7{stroke-miterlimit:10;}.cls-4{fill:#737f83;}.cls-5{fill:#b4bebe;}.cls-14,.cls-6{fill:#fff;}.cls-6{stroke-width:2px;}.cls-10,.cls-7{fill:#edeef0;stroke-width:0.5px;}.cls-7{stroke:#5c5b5f;}.cls-17,.cls-8{fill:#23201f;}.cls-9{fill:#fbed93;}.cls-10{stroke:#1f120d;}.cls-11{fill:#737277;}.cls-12{fill:#1f140f;}.cls-13{stroke:#c3c5ca;}.cls-15{fill:#6ab026;}.cls-16{fill:#ffef00;}.cls-17{stroke:#f5f4f5;}.cls-18{fill:#f19800;}.cls-19{fill:#4da92c;}.cls-20{fill:#98bf13;}.cls-21{fill:#00913d;}.cls-22{fill:#e0040b;}.cls-23{fill:#9c9ba0;}</style></defs><path class="cls-1" d="M0,0v125.2H1368V0ZM36.44,117.35H19a8.13,8.13,0,1,1,0-16.25H36.44a8.13,8.13,0,1,1,0,16.25Zm0-91.94H19A8.13,8.13,0,1,1,19,9.16H36.44a8.13,8.13,0,1,1,0,16.25Zm1313.78,91.94H1332.8a8.13,8.13,0,1,1,0-16.25h17.42a8.13,8.13,0,0,1,0,16.25Zm0-91.94H1332.8a8.13,8.13,0,1,1,0-16.25h17.42a8.13,8.13,0,0,1,0,16.25Z"/><rect class="cls-2" x="58.75" y="3.89" width="1250.5" height="117.46"/><path class="cls-3" d="M506.67,117.14H61.5V79.39c19.5-.91,9.77,7.83,190.25,5.25C356.75,83.14,395,40,506.67,33.14Z"/><path class="cls-4" d="M506.67,117.14H61.5V79.39C81,78.48,71.25,90.5,251.75,89.72c81.57-.35,148.13-28.08,254.92-34.58Z"/><path class="cls-5" d="M506.67,117.14H61.5V50.64c44.83-2.5,74.41,10.25,190.25,42.48,78.58,21.85,176.13-7,254.92-5Z"/><path class="cls-6" d="M222.81,86.23C130.53,60,102.34,49.62,61.5,51.9V80.65C79.89,79.79,72.28,87.51,222.81,86.23Z"/><rect class="cls-7" x="506.67" y="35.33" width="168.79" height="67.31"/><polygon class="cls-8" points="513.65 62.64 547.77 62.64 547.77 43.54 540.77 43.54 540.77 38.41 536.49 38.41 536.49 35.64 524.84 35.64 524.84 38.41 520.55 38.41 520.55 43.54 513.65 43.54 513.65 62.64"/><rect class="cls-9" x="541.14" y="58.53" width="1.32" height="4.11" transform="translate(1083.6 121.17) rotate(180)"/><rect class="cls-9" x="537.97" y="58.53" width="1.32" height="4.11" transform="translate(1077.27 121.17) rotate(180)"/><rect class="cls-9" x="534.81" y="58.53" width="1.32" height="4.11" transform="translate(1070.93 121.17) rotate(180)"/><rect class="cls-9" x="531.64" y="58.53" width="1.32" height="4.11" transform="translate(1064.59 121.17) rotate(180)"/><rect class="cls-9" x="528.47" y="58.53" width="1.32" height="4.11" transform="translate(1058.25 121.17) rotate(180)"/><rect class="cls-9" x="525.3" y="58.53" width="1.32" height="4.11" transform="translate(1051.91 121.17) rotate(180)"/><rect class="cls-9" x="522.13" y="58.53" width="1.32" height="4.11" transform="translate(1045.58 121.17) rotate(180)"/><rect class="cls-9" x="518.96" y="58.53" width="1.32" height="4.11" transform="translate(1039.24 121.17) rotate(180)"/><polygon class="cls-8" points="553.62 62.64 587.75 62.64 587.75 43.54 580.75 43.54 580.75 38.41 576.46 38.41 576.46 35.64 564.81 35.64 564.81 38.41 560.53 38.41 560.53 43.54 553.62 43.54 553.62 62.64"/><rect class="cls-9" x="581.12" y="58.53" width="1.32" height="4.11" transform="translate(1163.55 121.17) rotate(180)"/><rect class="cls-9" x="577.95" y="58.53" width="1.32" height="4.11" transform="translate(1157.22 121.17) rotate(180)"/><rect class="cls-9" x="574.78" y="58.53" width="1.32" height="4.11" transform="translate(1150.88 121.17) rotate(180)"/><rect class="cls-9" x="571.61" y="58.53" width="1.32" height="4.11" transform="translate(1144.54 121.17) rotate(180)"/><rect class="cls-9" x="568.44" y="58.53" width="1.32" height="4.11" transform="translate(1138.2 121.17) rotate(180)"/><rect class="cls-9" x="565.27" y="58.53" width="1.32" height="4.11" transform="translate(1131.86 121.17) rotate(180)"/><rect class="cls-9" x="562.1" y="58.53" width="1.32" height="4.11" transform="translate(1125.53 121.17) rotate(180)"/><rect class="cls-9" x="558.94" y="58.53" width="1.32" height="4.11" transform="translate(1119.19 121.17) rotate(180)"/><polygon class="cls-8" points="593.6 62.64 627.73 62.64 627.73 43.54 620.72 43.54 620.72 38.41 616.44 38.41 616.44 35.64 604.79 35.64 604.79 38.41 600.51 38.41 600.51 43.54 593.6 43.54 593.6 62.64"/><rect class="cls-9" x="621.09" y="58.53" width="1.32" height="4.11" transform="translate(1243.51 121.17) rotate(180)"/><rect class="cls-9" x="617.93" y="58.53" width="1.32" height="4.11" transform="translate(1237.17 121.17) rotate(180)"/><rect class="cls-9" x="614.76" y="58.53" width="1.32" height="4.11" transform="translate(1230.83 121.17) rotate(180)"/><rect class="cls-9" x="611.59" y="58.53" width="1.32" height="4.11" transform="translate(1224.49 121.17) rotate(180)"/><rect class="cls-9" x="608.42" y="58.53" width="1.32" height="4.11" transform="translate(1218.15 121.17) rotate(180)"/><rect class="cls-9" x="605.25" y="58.53" width="1.32" height="4.11" transform="translate(1211.82 121.17) rotate(180)"/><rect class="cls-9" x="602.08" y="58.53" width="1.32" height="4.11" transform="translate(1205.48 121.17) rotate(180)"/><rect class="cls-9" x="598.91" y="58.53" width="1.32" height="4.11" transform="translate(1199.14 121.17) rotate(180)"/><polygon class="cls-8" points="633.57 62.64 667.7 62.64 667.7 43.54 660.7 43.54 660.7 38.41 656.41 38.41 656.41 35.64 644.76 35.64 644.76 38.41 640.48 38.41 640.48 43.54 633.57 43.54 633.57 62.64"/><rect class="cls-9" x="661.07" y="58.53" width="1.32" height="4.11" transform="translate(1323.46 121.17) rotate(180)"/><rect class="cls-9" x="657.9" y="58.53" width="1.32" height="4.11" transform="translate(1317.12 121.17) rotate(180)"/><rect class="cls-9" x="654.73" y="58.53" width="1.32" height="4.11" transform="translate(1310.78 121.17) rotate(180)"/><rect class="cls-9" x="651.56" y="58.53" width="1.32" height="4.11" transform="translate(1304.44 121.17) rotate(180)"/><rect class="cls-9" x="648.39" y="58.53" width="1.32" height="4.11" transform="translate(1298.1 121.17) rotate(180)"/><rect class="cls-9" x="645.22" y="58.53" width="1.32" height="4.11" transform="translate(1291.77 121.17) rotate(180)"/><rect class="cls-9" x="642.06" y="58.53" width="1.32" height="4.11" transform="translate(1285.43 121.17) rotate(180)"/><rect class="cls-9" x="638.89" y="58.53" width="1.32" height="4.11" transform="translate(1279.09 121.17) rotate(180)"/><polygon class="cls-8" points="667.7 75.64 633.57 75.64 633.57 94.74 640.58 94.74 640.58 99.87 644.86 99.87 644.86 102.64 656.51 102.64 656.51 99.87 660.79 99.87 660.79 94.74 667.7 94.74 667.7 75.64"/><rect class="cls-9" x="638.89" y="75.64" width="1.32" height="4.11"/><rect class="cls-9" x="642.06" y="75.64" width="1.32" height="4.11"/><rect class="cls-9" x="645.22" y="75.64" width="1.32" height="4.11"/><rect class="cls-9" x="648.39" y="75.64" width="1.32" height="4.11"/><rect class="cls-9" x="651.56" y="75.64" width="1.32" height="4.11"/><rect class="cls-9" x="654.73" y="75.64" width="1.32" height="4.11"/><rect class="cls-9" x="657.9" y="75.64" width="1.32" height="4.11"/><rect class="cls-9" x="661.07" y="75.64" width="1.32" height="4.11"/><polygon class="cls-8" points="627.73 75.64 593.6 75.64 593.6 94.74 600.6 94.74 600.6 99.87 604.88 99.87 604.88 102.64 616.53 102.64 616.53 99.87 620.82 99.87 620.82 94.74 627.73 94.74 627.73 75.64"/><rect class="cls-9" x="598.91" y="75.64" width="1.32" height="4.11"/><rect class="cls-9" x="602.08" y="75.64" width="1.32" height="4.11"/><rect class="cls-9" x="605.25" y="75.64" width="1.32" height="4.11"/><rect class="cls-9" x="608.42" y="75.64" width="1.32" height="4.11"/><rect class="cls-9" x="611.59" y="75.64" width="1.32" height="4.11"/><rect class="cls-9" x="614.76" y="75.64" width="1.32" height="4.11"/><rect class="cls-9" x="617.93" y="75.64" width="1.32" height="4.11"/><rect class="cls-9" x="621.09" y="75.64" width="1.32" height="4.11"/><polygon class="cls-8" points="587.75 75.64 553.62 75.64 553.62 94.74 560.63 94.74 560.63 99.87 564.91 99.87 564.91 102.64 576.56 102.64 576.56 99.87 580.84 99.87 580.84 94.74 587.75 94.74 587.75 75.64"/><rect class="cls-9" x="558.94" y="75.64" width="1.32" height="4.11"/><rect class="cls-9" x="562.1" y="75.64" width="1.32" height="4.11"/><rect class="cls-9" x="565.27" y="75.64" width="1.32" height="4.11"/><rect class="cls-9" x="568.44" y="75.64" width="1.32" height="4.11"/><rect class="cls-9" x="571.61" y="75.64" width="1.32" height="4.11"/><rect class="cls-9" x="574.78" y="75.64" width="1.32" height="4.11"/><rect class="cls-9" x="577.95" y="75.64" width="1.32" height="4.11"/><rect class="cls-9" x="581.12" y="75.64" width="1.32" height="4.11"/><polygon class="cls-8" points="547.77 75.64 513.65 75.64 513.65 94.74 520.65 94.74 520.65 99.87 524.93 99.87 524.93 102.64 536.58 102.64 536.58 99.87 540.87 99.87 540.87 94.74 547.77 94.74 547.77 75.64"/><rect class="cls-9" x="518.96" y="75.64" width="1.32" height="4.11"/><rect class="cls-9" x="522.13" y="75.64" width="1.32" height="4.11"/><rect class="cls-9" x="525.3" y="75.64" width="1.32" height="4.11"/><rect class="cls-9" x="528.47" y="75.64" width="1.32" height="4.11"/><rect class="cls-9" x="531.64" y="75.64" width="1.32" height="4.11"/><rect class="cls-9" x="534.81" y="75.64" width="1.32" height="4.11"/><rect class="cls-9" x="537.97" y="75.64" width="1.32" height="4.11"/><rect class="cls-9" x="541.14" y="75.64" width="1.32" height="4.11"/><rect class="cls-7" x="695" y="35.33" width="168.79" height="67.31"/><polygon class="cls-8" points="701.98 62.64 736.11 62.64 736.11 43.54 729.1 43.54 729.1 38.41 724.82 38.41 724.82 35.64 713.17 35.64 713.17 38.41 708.89 38.41 708.89 43.54 701.98 43.54 701.98 62.64"/><rect class="cls-9" x="729.48" y="58.53" width="1.32" height="4.11" transform="translate(1460.27 121.17) rotate(180)"/><rect class="cls-9" x="726.31" y="58.53" width="1.32" height="4.11" transform="translate(1453.93 121.17) rotate(180)"/><rect class="cls-9" x="723.14" y="58.53" width="1.32" height="4.11" transform="translate(1447.59 121.17) rotate(180)"/><rect class="cls-9" x="719.97" y="58.53" width="1.32" height="4.11" transform="translate(1441.26 121.17) rotate(180)"/><rect class="cls-9" x="716.8" y="58.53" width="1.32" height="4.11" transform="translate(1434.92 121.17) rotate(180)"/><rect class="cls-9" x="713.63" y="58.53" width="1.32" height="4.11" transform="translate(1428.58 121.17) rotate(180)"/><rect class="cls-9" x="710.46" y="58.53" width="1.32" height="4.11" transform="translate(1422.24 121.17) rotate(180)"/><rect class="cls-9" x="707.29" y="58.53" width="1.32" height="4.11" transform="translate(1415.9 121.17) rotate(180)"/><polygon class="cls-8" points="741.96 62.64 776.08 62.64 776.08 43.54 769.08 43.54 769.08 38.41 764.8 38.41 764.8 35.64 753.15 35.64 753.15 38.41 748.86 38.41 748.86 43.54 741.96 43.54 741.96 62.64"/><rect class="cls-9" x="769.45" y="58.53" width="1.32" height="4.11" transform="translate(1540.22 121.17) rotate(180)"/><rect class="cls-9" x="766.28" y="58.53" width="1.32" height="4.11" transform="translate(1533.88 121.17) rotate(180)"/><rect class="cls-9" x="763.11" y="58.53" width="1.32" height="4.11" transform="translate(1527.55 121.17) rotate(180)"/><rect class="cls-9" x="759.95" y="58.53" width="1.32" height="4.11" transform="translate(1521.21 121.17) rotate(180)"/><rect class="cls-9" x="756.78" y="58.53" width="1.32" height="4.11" transform="translate(1514.87 121.17) rotate(180)"/><rect class="cls-9" x="753.61" y="58.53" width="1.32" height="4.11" transform="translate(1508.53 121.17) rotate(180)"/><rect class="cls-9" x="750.44" y="58.53" width="1.32" height="4.11" transform="translate(1502.19 121.17) rotate(180)"/><rect class="cls-9" x="747.27" y="58.53" width="1.32" height="4.11" transform="translate(1495.85 121.17) rotate(180)"/><polygon class="cls-8" points="781.93 62.64 816.06 62.64 816.06 43.54 809.05 43.54 809.05 38.41 804.77 38.41 804.77 35.64 793.12 35.64 793.12 38.41 788.84 38.41 788.84 43.54 781.93 43.54 781.93 62.64"/><rect class="cls-9" x="809.43" y="58.53" width="1.32" height="4.11" transform="translate(1620.17 121.17) rotate(180)"/><rect class="cls-9" x="806.26" y="58.53" width="1.32" height="4.11" transform="translate(1613.83 121.17) rotate(180)"/><rect class="cls-9" x="803.09" y="58.53" width="1.32" height="4.11" transform="translate(1607.5 121.17) rotate(180)"/><rect class="cls-9" x="799.92" y="58.53" width="1.32" height="4.11" transform="translate(1601.16 121.17) rotate(180)"/><rect class="cls-9" x="796.75" y="58.53" width="1.32" height="4.11" transform="translate(1594.82 121.17) rotate(180)"/><rect class="cls-9" x="793.58" y="58.53" width="1.32" height="4.11" transform="translate(1588.48 121.17) rotate(180)"/><rect class="cls-9" x="790.41" y="58.53" width="1.32" height="4.11" transform="translate(1582.14 121.17) rotate(180)"/><rect class="cls-9" x="787.24" y="58.53" width="1.32" height="4.11" transform="translate(1575.81 121.17) rotate(180)"/><polygon class="cls-8" points="821.9 62.64 856.03 62.64 856.03 43.54 849.03 43.54 849.03 38.41 844.75 38.41 844.75 35.64 833.1 35.64 833.1 38.41 828.82 38.41 828.82 43.54 821.9 43.54 821.9 62.64"/><rect class="cls-9" x="849.4" y="58.53" width="1.32" height="4.11" transform="translate(1700.12 121.17) rotate(180)"/><rect class="cls-9" x="846.23" y="58.53" width="1.32" height="4.11" transform="translate(1693.78 121.17) rotate(180)"/><rect class="cls-9" x="843.06" y="58.53" width="1.32" height="4.11" transform="translate(1687.45 121.17) rotate(180)"/><rect class="cls-9" x="839.9" y="58.53" width="1.32" height="4.11" transform="translate(1681.11 121.17) rotate(180)"/><rect class="cls-9" x="836.73" y="58.53" width="1.32" height="4.11" transform="translate(1674.77 121.17) rotate(180)"/><rect class="cls-9" x="833.56" y="58.53" width="1.32" height="4.11" transform="translate(1668.43 121.17) rotate(180)"/><rect class="cls-9" x="830.39" y="58.53" width="1.32" height="4.11" transform="translate(1662.09 121.17) rotate(180)"/><rect class="cls-9" x="827.22" y="58.53" width="1.32" height="4.11" transform="translate(1655.76 121.17) rotate(180)"/><polygon class="cls-8" points="856.03 75.64 821.9 75.64 821.9 94.74 828.91 94.74 828.91 99.87 833.19 99.87 833.19 102.64 844.84 102.64 844.84 99.87 849.13 99.87 849.13 94.74 856.03 94.74 856.03 75.64"/><rect class="cls-9" x="827.22" y="75.64" width="1.32" height="4.11"/><rect class="cls-9" x="830.39" y="75.64" width="1.32" height="4.11"/><rect class="cls-9" x="833.56" y="75.64" width="1.32" height="4.11"/><rect class="cls-9" x="836.73" y="75.64" width="1.32" height="4.11"/><rect class="cls-9" x="839.9" y="75.64" width="1.32" height="4.11"/><rect class="cls-9" x="843.06" y="75.64" width="1.32" height="4.11"/><rect class="cls-9" x="846.23" y="75.64" width="1.32" height="4.11"/><rect class="cls-9" x="849.4" y="75.64" width="1.32" height="4.11"/><polygon class="cls-8" points="816.06 75.64 781.93 75.64 781.93 94.74 788.93 94.74 788.93 99.87 793.22 99.87 793.22 102.64 804.87 102.64 804.87 99.87 809.15 99.87 809.15 94.74 816.06 94.74 816.06 75.64"/><rect class="cls-9" x="787.24" y="75.64" width="1.32" height="4.11"/><rect class="cls-9" x="790.41" y="75.64" width="1.32" height="4.11"/><rect class="cls-9" x="793.58" y="75.64" width="1.32" height="4.11"/><rect class="cls-9" x="796.75" y="75.64" width="1.32" height="4.11"/><rect class="cls-9" x="799.92" y="75.64" width="1.32" height="4.11"/><rect class="cls-9" x="803.09" y="75.64" width="1.32" height="4.11"/><rect class="cls-9" x="806.26" y="75.64" width="1.32" height="4.11"/><rect class="cls-9" x="809.43" y="75.64" width="1.32" height="4.11"/><polygon class="cls-8" points="776.08 75.64 741.96 75.64 741.96 94.74 748.96 94.74 748.96 99.87 753.24 99.87 753.24 102.64 764.89 102.64 764.89 99.87 769.17 99.87 769.17 94.74 776.08 94.74 776.08 75.64"/><rect class="cls-9" x="747.27" y="75.64" width="1.32" height="4.11"/><rect class="cls-9" x="750.44" y="75.64" width="1.32" height="4.11"/><rect class="cls-9" x="753.61" y="75.64" width="1.32" height="4.11"/><rect class="cls-9" x="756.78" y="75.64" width="1.32" height="4.11"/><rect class="cls-9" x="759.95" y="75.64" width="1.32" height="4.11"/><rect class="cls-9" x="763.11" y="75.64" width="1.32" height="4.11"/><rect class="cls-9" x="766.28" y="75.64" width="1.32" height="4.11"/><rect class="cls-9" x="769.45" y="75.64" width="1.32" height="4.11"/><polygon class="cls-8" points="736.11 75.64 701.98 75.64 701.98 94.74 708.98 94.74 708.98 99.87 713.27 99.87 713.27 102.64 724.91 102.64 724.91 99.87 729.2 99.87 729.2 94.74 736.11 94.74 736.11 75.64"/><rect class="cls-9" x="707.29" y="75.64" width="1.32" height="4.11"/><rect class="cls-9" x="710.46" y="75.64" width="1.32" height="4.11"/><rect class="cls-9" x="713.63" y="75.64" width="1.32" height="4.11"/><rect class="cls-9" x="716.8" y="75.64" width="1.32" height="4.11"/><rect class="cls-9" x="719.97" y="75.64" width="1.32" height="4.11"/><rect class="cls-9" x="723.14" y="75.64" width="1.32" height="4.11"/><rect class="cls-9" x="726.31" y="75.64" width="1.32" height="4.11"/><rect class="cls-9" x="729.48" y="75.64" width="1.32" height="4.11"/><rect class="cls-7" x="883.33" y="35.33" width="168.79" height="67.31"/><polygon class="cls-8" points="890.31 62.64 924.44 62.64 924.44 43.54 917.44 43.54 917.44 38.41 913.15 38.41 913.15 35.64 901.5 35.64 901.5 38.41 897.22 38.41 897.22 43.54 890.31 43.54 890.31 62.64"/><rect class="cls-9" x="917.81" y="58.53" width="1.32" height="4.11" transform="translate(1836.94 121.17) rotate(180)"/><rect class="cls-9" x="914.64" y="58.53" width="1.32" height="4.11" transform="translate(1830.6 121.17) rotate(180)"/><rect class="cls-9" x="911.47" y="58.53" width="1.32" height="4.11" transform="translate(1824.26 121.17) rotate(180)"/><rect class="cls-9" x="908.3" y="58.53" width="1.32" height="4.11" transform="translate(1817.92 121.17) rotate(180)"/><rect class="cls-9" x="905.13" y="58.53" width="1.32" height="4.11" transform="translate(1811.59 121.17) rotate(180)"/><rect class="cls-9" x="901.97" y="58.53" width="1.32" height="4.11" transform="translate(1805.25 121.17) rotate(180)"/><rect class="cls-9" x="898.8" y="58.53" width="1.32" height="4.11" transform="translate(1798.91 121.17) rotate(180)"/><rect class="cls-9" x="895.63" y="58.53" width="1.32" height="4.11" transform="translate(1792.57 121.17) rotate(180)"/><polygon class="cls-8" points="930.29 62.64 964.42 62.64 964.42 43.54 957.41 43.54 957.41 38.41 953.13 38.41 953.13 35.64 941.48 35.64 941.48 38.41 937.2 38.41 937.2 43.54 930.29 43.54 930.29 62.64"/><rect class="cls-9" x="957.79" y="58.53" width="1.32" height="4.11" transform="translate(1916.89 121.17) rotate(180)"/><rect class="cls-9" x="954.62" y="58.53" width="1.32" height="4.11" transform="translate(1910.55 121.17) rotate(180)"/><rect class="cls-9" x="951.45" y="58.53" width="1.32" height="4.11" transform="translate(1904.21 121.17) rotate(180)"/><rect class="cls-9" x="948.28" y="58.53" width="1.32" height="4.11" transform="translate(1897.87 121.17) rotate(180)"/><rect class="cls-9" x="945.11" y="58.53" width="1.32" height="4.11" transform="translate(1891.54 121.17) rotate(180)"/><rect class="cls-9" x="941.94" y="58.53" width="1.32" height="4.11" transform="translate(1885.2 121.17) rotate(180)"/><rect class="cls-9" x="938.77" y="58.53" width="1.32" height="4.11" transform="translate(1878.86 121.17) rotate(180)"/><rect class="cls-9" x="935.6" y="58.53" width="1.32" height="4.11" transform="translate(1872.52 121.17) rotate(180)"/><polygon class="cls-8" points="970.26 62.64 1004.39 62.64 1004.39 43.54 997.39 43.54 997.39 38.41 993.11 38.41 993.11 35.64 981.46 35.64 981.46 38.41 977.17 38.41 977.17 43.54 970.26 43.54 970.26 62.64"/><rect class="cls-9" x="997.76" y="58.53" width="1.32" height="4.11" transform="translate(1996.84 121.17) rotate(180)"/><rect class="cls-9" x="994.59" y="58.53" width="1.32" height="4.11" transform="translate(1990.5 121.17) rotate(180)"/><rect class="cls-9" x="991.42" y="58.53" width="1.32" height="4.11" transform="translate(1984.16 121.17) rotate(180)"/><rect class="cls-9" x="988.25" y="58.53" width="1.32" height="4.11" transform="translate(1977.82 121.17) rotate(180)"/><rect class="cls-9" x="985.08" y="58.53" width="1.32" height="4.11" transform="translate(1971.49 121.17) rotate(180)"/><rect class="cls-9" x="981.92" y="58.53" width="1.32" height="4.11" transform="translate(1965.15 121.17) rotate(180)"/><rect class="cls-9" x="978.75" y="58.53" width="1.32" height="4.11" transform="translate(1958.81 121.17) rotate(180)"/><rect class="cls-9" x="975.58" y="58.53" width="1.32" height="4.11" transform="translate(1952.47 121.17) rotate(180)"/><polygon class="cls-8" points="1010.24 62.64 1044.37 62.64 1044.37 43.54 1037.36 43.54 1037.36 38.41 1033.08 38.41 1033.08 35.64 1021.43 35.64 1021.43 38.41 1017.15 38.41 1017.15 43.54 1010.24 43.54 1010.24 62.64"/><rect class="cls-9" x="1037.74" y="58.53" width="1.32" height="4.11" transform="translate(2076.79 121.17) rotate(180)"/><rect class="cls-9" x="1034.57" y="58.53" width="1.32" height="4.11" transform="translate(2070.45 121.17) rotate(180)"/><rect class="cls-9" x="1031.4" y="58.53" width="1.32" height="4.11" transform="translate(2064.11 121.17) rotate(180)"/><rect class="cls-9" x="1028.23" y="58.53" width="1.32" height="4.11" transform="translate(2057.78 121.17) rotate(180)"/><rect class="cls-9" x="1025.06" y="58.53" width="1.32" height="4.11" transform="translate(2051.44 121.17) rotate(180)"/><rect class="cls-9" x="1021.89" y="58.53" width="1.32" height="4.11" transform="translate(2045.1 121.17) rotate(180)"/><rect class="cls-9" x="1018.72" y="58.53" width="1.32" height="4.11" transform="translate(2038.76 121.17) rotate(180)"/><rect class="cls-9" x="1015.55" y="58.53" width="1.32" height="4.11" transform="translate(2032.42 121.17) rotate(180)"/><polygon class="cls-8" points="1044.37 75.64 1010.24 75.64 1010.24 94.74 1017.24 94.74 1017.24 99.87 1021.53 99.87 1021.53 102.64 1033.17 102.64 1033.17 99.87 1037.46 99.87 1037.46 94.74 1044.37 94.74 1044.37 75.64"/><rect class="cls-9" x="1015.55" y="75.64" width="1.32" height="4.11"/><rect class="cls-9" x="1018.72" y="75.64" width="1.32" height="4.11"/><rect class="cls-9" x="1021.89" y="75.64" width="1.32" height="4.11"/><rect class="cls-9" x="1025.06" y="75.64" width="1.32" height="4.11"/><rect class="cls-9" x="1028.23" y="75.64" width="1.32" height="4.11"/><rect class="cls-9" x="1031.4" y="75.64" width="1.32" height="4.11"/><rect class="cls-9" x="1034.57" y="75.64" width="1.32" height="4.11"/><rect class="cls-9" x="1037.74" y="75.64" width="1.32" height="4.11"/><polygon class="cls-8" points="1004.39 75.64 970.26 75.64 970.26 94.74 977.27 94.74 977.27 99.87 981.55 99.87 981.55 102.64 993.2 102.64 993.2 99.87 997.48 99.87 997.48 94.74 1004.39 94.74 1004.39 75.64"/><rect class="cls-9" x="975.58" y="75.64" width="1.32" height="4.11"/><rect class="cls-9" x="978.75" y="75.64" width="1.32" height="4.11"/><rect class="cls-9" x="981.92" y="75.64" width="1.32" height="4.11"/><rect class="cls-9" x="985.08" y="75.64" width="1.32" height="4.11"/><rect class="cls-9" x="988.25" y="75.64" width="1.32" height="4.11"/><rect class="cls-9" x="991.42" y="75.64" width="1.32" height="4.11"/><rect class="cls-9" x="994.59" y="75.64" width="1.32" height="4.11"/><rect class="cls-9" x="997.76" y="75.64" width="1.32" height="4.11"/><polygon class="cls-8" points="964.42 75.64 930.29 75.64 930.29 94.74 937.29 94.74 937.29 99.87 941.58 99.87 941.58 102.64 953.22 102.64 953.22 99.87 957.51 99.87 957.51 94.74 964.42 94.74 964.42 75.64"/><rect class="cls-9" x="935.6" y="75.64" width="1.32" height="4.11"/><rect class="cls-9" x="938.77" y="75.64" width="1.32" height="4.11"/><rect class="cls-9" x="941.94" y="75.64" width="1.32" height="4.11"/><rect class="cls-9" x="945.11" y="75.64" width="1.32" height="4.11"/><rect class="cls-9" x="948.28" y="75.64" width="1.32" height="4.11"/><rect class="cls-9" x="951.45" y="75.64" width="1.32" height="4.11"/><rect class="cls-9" x="954.62" y="75.64" width="1.32" height="4.11"/><rect class="cls-9" x="957.79" y="75.64" width="1.32" height="4.11"/><polygon class="cls-8" points="924.44 75.64 890.31 75.64 890.31 94.74 897.32 94.74 897.32 99.87 901.6 99.87 901.6 102.64 913.25 102.64 913.25 99.87 917.53 99.87 917.53 94.74 924.44 94.74 924.44 75.64"/><rect class="cls-9" x="895.63" y="75.64" width="1.32" height="4.11"/><rect class="cls-9" x="898.8" y="75.64" width="1.32" height="4.11"/><rect class="cls-9" x="901.97" y="75.64" width="1.32" height="4.11"/><rect class="cls-9" x="905.13" y="75.64" width="1.32" height="4.11"/><rect class="cls-9" x="908.3" y="75.64" width="1.32" height="4.11"/><rect class="cls-9" x="911.47" y="75.64" width="1.32" height="4.11"/><rect class="cls-9" x="914.64" y="75.64" width="1.32" height="4.11"/><rect class="cls-9" x="917.81" y="75.64" width="1.32" height="4.11"/><rect class="cls-10" x="1199.21" y="35.33" width="48.12" height="67.31"/><rect class="cls-10" x="1127.95" y="35.33" width="48.12" height="67.31"/><polygon class="cls-8" points="1206.19 62.64 1240.32 62.64 1240.32 43.54 1233.32 43.54 1233.32 38.41 1229.04 38.41 1229.04 35.64 1217.39 35.64 1217.39 38.41 1213.1 38.41 1213.1 43.54 1206.19 43.54 1206.19 62.64"/><rect class="cls-9" x="1233.69" y="58.53" width="1.32" height="4.11" transform="translate(2468.7 121.17) rotate(180)"/><rect class="cls-9" x="1230.52" y="58.53" width="1.32" height="4.11" transform="translate(2462.36 121.17) rotate(180)"/><rect class="cls-9" x="1227.35" y="58.53" width="1.32" height="4.11" transform="translate(2456.02 121.17) rotate(180)"/><rect class="cls-9" x="1224.18" y="58.53" width="1.32" height="4.11" transform="translate(2449.68 121.17) rotate(180)"/><rect class="cls-9" x="1221.01" y="58.53" width="1.32" height="4.11" transform="translate(2443.35 121.17) rotate(180)"/><rect class="cls-9" x="1217.85" y="58.53" width="1.32" height="4.11" transform="translate(2437.01 121.17) rotate(180)"/><rect class="cls-9" x="1214.68" y="58.53" width="1.32" height="4.11" transform="translate(2430.67 121.17) rotate(180)"/><rect class="cls-9" x="1211.51" y="58.53" width="1.32" height="4.11" transform="translate(2424.33 121.17) rotate(180)"/><polygon class="cls-8" points="1240.32 75.64 1206.19 75.64 1206.19 94.74 1213.2 94.74 1213.2 99.87 1217.48 99.87 1217.48 102.64 1229.13 102.64 1229.13 99.87 1233.41 99.87 1233.41 94.74 1240.32 94.74 1240.32 75.64"/><rect class="cls-9" x="1211.51" y="75.64" width="1.32" height="4.11"/><rect class="cls-9" x="1214.68" y="75.64" width="1.32" height="4.11"/><rect class="cls-9" x="1217.85" y="75.64" width="1.32" height="4.11"/><rect class="cls-9" x="1221.01" y="75.64" width="1.32" height="4.11"/><rect class="cls-9" x="1224.18" y="75.64" width="1.32" height="4.11"/><rect class="cls-9" x="1227.35" y="75.64" width="1.32" height="4.11"/><rect class="cls-9" x="1230.52" y="75.64" width="1.32" height="4.11"/><rect class="cls-9" x="1233.69" y="75.64" width="1.32" height="4.11"/><rect class="cls-10" x="1068.13" y="35.33" width="44.2" height="67.31"/><polygon class="cls-8" points="1134.94 62.64 1169.07 62.64 1169.07 43.54 1162.07 43.54 1162.07 38.41 1157.79 38.41 1157.79 35.64 1146.14 35.64 1146.14 38.41 1141.85 38.41 1141.85 43.54 1134.94 43.54 1134.94 62.64"/><rect class="cls-9" x="1162.44" y="58.53" width="1.32" height="4.11" transform="translate(2326.2 121.17) rotate(180)"/><rect class="cls-9" x="1159.27" y="58.53" width="1.32" height="4.11" transform="translate(2319.86 121.17) rotate(180)"/><rect class="cls-9" x="1156.1" y="58.53" width="1.32" height="4.11" transform="translate(2313.52 121.17) rotate(180)"/><rect class="cls-9" x="1152.93" y="58.53" width="1.32" height="4.11" transform="translate(2307.18 121.17) rotate(180)"/><rect class="cls-9" x="1149.76" y="58.53" width="1.32" height="4.11" transform="translate(2300.85 121.17) rotate(180)"/><rect class="cls-9" x="1146.6" y="58.53" width="1.32" height="4.11" transform="translate(2294.51 121.17) rotate(180)"/><rect class="cls-9" x="1143.43" y="58.53" width="1.32" height="4.11" transform="translate(2288.17 121.17) rotate(180)"/><rect class="cls-9" x="1140.26" y="58.53" width="1.32" height="4.11" transform="translate(2281.83 121.17) rotate(180)"/><polygon class="cls-8" points="1169.07 75.64 1134.94 75.64 1134.94 94.74 1141.95 94.74 1141.95 99.87 1146.23 99.87 1146.23 102.64 1157.88 102.64 1157.88 99.87 1162.16 99.87 1162.16 94.74 1169.07 94.74 1169.07 75.64"/><rect class="cls-9" x="1140.26" y="75.64" width="1.32" height="4.11"/><rect class="cls-9" x="1143.43" y="75.64" width="1.32" height="4.11"/><rect class="cls-9" x="1146.6" y="75.64" width="1.32" height="4.11"/><rect class="cls-9" x="1149.76" y="75.64" width="1.32" height="4.11"/><rect class="cls-9" x="1152.93" y="75.64" width="1.32" height="4.11"/><rect class="cls-9" x="1156.1" y="75.64" width="1.32" height="4.11"/><rect class="cls-9" x="1159.27" y="75.64" width="1.32" height="4.11"/><rect class="cls-9" x="1162.44" y="75.64" width="1.32" height="4.11"/><rect class="cls-11" x="55.78" y="0.04" width="1.68" height="125.19"/><rect class="cls-12" x="57.85" y="0.04" width="0.9" height="125.19"/><rect class="cls-11" x="1310.54" y="0.04" width="1.68" height="125.19"/><rect class="cls-12" x="1309.25" y="0.04" width="0.9" height="125.19"/><rect class="cls-13" x="514.98" y="24.25" width="9.28" height="7.9"/><path class="cls-14" d="M519.41,26.9h0l-.62.29-.12-.57.86-.4h.63v3.25h-.74Z"/><polygon class="cls-15" points="519.46 18.37 516.42 23.63 522.5 23.63 519.46 18.37"/><rect class="cls-13" x="535.03" y="24.25" width="9.28" height="7.9"/><path class="cls-14" d="M538.49,29.47V29l.42-.38c.71-.63,1.06-1,1.07-1.38s-.16-.47-.54-.47a1.16,1.16,0,0,0-.69.27l-.22-.55a1.86,1.86,0,0,1,1.07-.33,1,1,0,0,1,1.14,1,2,2,0,0,1-.87,1.4l-.3.25h1.23v.62Z"/><polygon class="cls-15" points="539.49 23.65 542.53 18.39 536.46 18.39 539.49 23.65"/><rect class="cls-13" x="555.08" y="24.25" width="9.28" height="7.9"/><path class="cls-14" d="M558.68,28.73a1.74,1.74,0,0,0,.75.2c.4,0,.6-.19.6-.44s-.32-.46-.66-.46h-.31v-.55h.3c.25,0,.58-.1.58-.37s-.16-.34-.48-.34a1.45,1.45,0,0,0-.68.19l-.16-.55a2.14,2.14,0,0,1,1-.24c.69,0,1.08.36,1.08.81a.78.78,0,0,1-.6.75h0a.82.82,0,0,1,.71.79c0,.58-.51,1-1.33,1a1.94,1.94,0,0,1-1-.23Z"/><polygon class="cls-15" points="559.56 18.37 556.53 23.63 562.6 23.63 559.56 18.37"/><rect class="cls-13" x="575.13" y="24.25" width="9.28" height="7.9"/><path class="cls-14" d="M579.94,29.47V28.7H578.5v-.5l1.23-2h.93v1.91h.39v.57h-.39v.77Zm0-1.34v-.72c0-.2,0-.4,0-.61h0c-.1.21-.19.4-.3.61l-.43.71h.73Z"/><polygon class="cls-15" points="579.59 23.65 582.63 18.39 576.56 18.39 579.59 23.65"/><rect class="cls-13" x="595.18" y="24.25" width="9.28" height="7.9"/><path class="cls-14" d="M600.82,26.85h-1.27l-.07.5h.21a1.54,1.54,0,0,1,.86.23.93.93,0,0,1,.4.82,1.24,1.24,0,0,1-1.4,1.14,2,2,0,0,1-.91-.19l.14-.57a1.84,1.84,0,0,0,.73.16c.32,0,.66-.15.66-.49s-.27-.54-.92-.54a2.76,2.76,0,0,0-.44,0l.21-1.71h1.8Z"/><polygon class="cls-15" points="599.66 18.37 596.63 23.63 602.7 23.63 599.66 18.37"/><rect class="cls-13" x="615.23" y="24.25" width="9.28" height="7.9"/><path class="cls-14" d="M620.77,26.76h-.29c-.68.06-1,.4-1.06.78h0a.94.94,0,0,1,.69-.26,1,1,0,0,1,1,1.06,1.17,1.17,0,0,1-1.2,1.18,1.28,1.28,0,0,1-1.3-1.42,2,2,0,0,1,.58-1.45,2,2,0,0,1,1.26-.48h.3Zm-.41,1.63a.5.5,0,0,0-.49-.56.52.52,0,0,0-.45.29.44.44,0,0,0,0,.19c0,.35.18.66.53.66S620.36,28.72,620.36,28.39Z"/><polygon class="cls-15" points="619.7 23.65 622.73 18.39 616.66 18.39 619.7 23.65"/><rect class="cls-13" x="635.28" y="24.25" width="9.28" height="7.9"/><path class="cls-14" d="M641.08,26.22v.48l-1.34,2.77h-.81l1.34-2.61h-1.49v-.63Z"/><polygon class="cls-15" points="639.77 18.37 636.73 23.63 642.8 23.63 639.77 18.37"/><rect class="cls-13" x="655.33" y="24.25" width="9.28" height="7.9"/><path class="cls-14" d="M658.75,28.62a.85.85,0,0,1,.58-.81v0a.78.78,0,0,1-.47-.71c0-.55.49-.91,1.14-.91s1.08.44,1.08.83a.8.8,0,0,1-.47.72h0a.86.86,0,0,1,.59.81c0,.59-.49,1-1.25,1S658.75,29.06,658.75,28.62Zm1.68,0c0-.29-.21-.46-.51-.54a.5.5,0,0,0-.4.49A.45.45,0,0,0,660,29,.41.41,0,0,0,660.43,28.6Zm-.86-1.54c0,.22.2.36.46.44a.44.44,0,0,0,.33-.42.4.4,0,0,0-.79,0Z"/><polygon class="cls-15" points="659.8 23.65 662.83 18.39 656.76 18.39 659.8 23.65"/><rect class="cls-13" x="703.74" y="24.25" width="9.28" height="7.9"/><path class="cls-14" d="M707.44,28.92h.33a1.24,1.24,0,0,0,.64-.2,1,1,0,0,0,.41-.6h0a.87.87,0,0,1-.65.23,1,1,0,0,1-1-1,1.18,1.18,0,0,1,1.23-1.17,1.24,1.24,0,0,1,1.23,1.4,1.77,1.77,0,0,1-1.81,1.95c-.13,0-.26,0-.35,0Zm.46-1.63a.46.46,0,0,0,.46.52.48.48,0,0,0,.42-.21.34.34,0,0,0,0-.19c0-.35-.13-.69-.47-.69S707.9,27,707.9,27.29Z"/><polygon class="cls-15" points="708.22 18.37 705.18 23.63 711.26 23.63 708.22 18.37"/><rect class="cls-13" x="723.79" y="24.25" width="9.28" height="7.9"/><path class="cls-14" d="M726.83,26.9h0l-.63.29-.12-.57.86-.4h.63v3.25h-.74Z"/><path class="cls-14" d="M731,27.83c0,1-.4,1.7-1.24,1.7s-1.21-.76-1.21-1.68.4-1.68,1.24-1.68S731,26.94,731,27.83Zm-1.69,0c0,.75.18,1.1.48,1.1s.45-.37.45-1.11-.16-1.1-.46-1.1S729.35,27.1,729.35,27.85Z"/><polygon class="cls-15" points="728.25 23.65 731.29 18.39 725.21 18.39 728.25 23.65"/><rect class="cls-13" x="743.84" y="24.25" width="9.28" height="7.9"/><path class="cls-14" d="M746.89,26.9h0l-.63.29-.12-.57.86-.4h.63v3.25h-.73Z"/><path class="cls-14" d="M749.66,26.9h0l-.62.29-.13-.57.87-.4h.63v3.25h-.74Z"/><polygon class="cls-15" points="748.32 18.37 745.29 23.63 751.36 23.63 748.32 18.37"/><rect class="cls-13" x="763.89" y="24.25" width="9.28" height="7.9"/><path class="cls-14" d="M766.94,26.9h0l-.63.29-.12-.57.86-.4h.63v3.25h-.73Z"/><path class="cls-14" d="M768.74,29.47V29l.42-.38c.71-.63,1.06-1,1.07-1.38s-.16-.47-.54-.47a1.16,1.16,0,0,0-.69.27l-.22-.55a1.86,1.86,0,0,1,1.07-.33,1,1,0,0,1,1.14,1,2,2,0,0,1-.87,1.4l-.3.25h1.23v.62Z"/><polygon class="cls-15" points="768.35 23.65 771.39 18.39 765.32 18.39 768.35 23.65"/><rect class="cls-13" x="783.94" y="24.25" width="9.28" height="7.9"/><path class="cls-14" d="M787,26.9h0l-.62.29-.13-.57.86-.4h.63v3.25H787Z"/><path class="cls-14" d="M788.93,28.73a1.74,1.74,0,0,0,.75.2c.4,0,.6-.19.6-.44S790,28,789.62,28h-.31v-.55h.3c.25,0,.58-.1.58-.37s-.16-.34-.48-.34A1.45,1.45,0,0,0,789,27l-.16-.55a2.14,2.14,0,0,1,1-.24c.69,0,1.08.36,1.08.81a.78.78,0,0,1-.6.75h0a.82.82,0,0,1,.71.79c0,.58-.51,1-1.33,1a1.94,1.94,0,0,1-1-.23Z"/><polygon class="cls-15" points="788.42 18.37 785.39 23.63 791.46 23.63 788.42 18.37"/><rect class="cls-13" x="803.99" y="24.25" width="9.28" height="7.9"/><path class="cls-14" d="M807,26.9h0l-.62.29-.13-.57.86-.4h.63v3.25H807Z"/><path class="cls-14" d="M810.19,29.47V28.7h-1.44v-.5l1.23-2h.93v1.91h.39v.57h-.39v.77Zm0-1.34v-.72c0-.2,0-.4,0-.61h0c-.1.21-.19.4-.3.61l-.43.71h.73Z"/><polygon class="cls-15" points="808.45 23.65 811.49 18.39 805.42 18.39 808.45 23.65"/><rect class="cls-13" x="824.04" y="24.25" width="9.28" height="7.9"/><path class="cls-14" d="M827.09,26.9h0l-.62.29-.13-.57.86-.4h.63v3.25h-.73Z"/><path class="cls-14" d="M831.06,26.85H829.8l-.07.5h.21a1.54,1.54,0,0,1,.86.23,1,1,0,0,1,.39.82,1.24,1.24,0,0,1-1.39,1.14,2,2,0,0,1-.91-.19l.14-.57a1.84,1.84,0,0,0,.73.16c.32,0,.65-.15.65-.49s-.26-.54-.91-.54a2.76,2.76,0,0,0-.44,0l.21-1.71h1.79Z"/><polygon class="cls-15" points="828.52 18.37 825.49 23.63 831.56 23.63 828.52 18.37"/><rect class="cls-13" x="844.09" y="24.25" width="9.28" height="7.9"/><path class="cls-14" d="M847.14,26.9h0l-.62.29-.13-.57.86-.4h.63v3.25h-.73Z"/><path class="cls-14" d="M851,26.76h-.3a1.05,1.05,0,0,0-1.06.78h0a.93.93,0,0,1,.69-.26,1,1,0,0,1,1,1.06,1.17,1.17,0,0,1-1.21,1.18,1.28,1.28,0,0,1-1.29-1.42,1.81,1.81,0,0,1,1.83-1.93H851Zm-.42,1.63a.49.49,0,0,0-.93-.27.44.44,0,0,0,0,.19c0,.35.18.66.52.66S850.6,28.72,850.6,28.39Z"/><polygon class="cls-15" points="848.55 23.65 851.59 18.39 845.52 18.39 848.55 23.65"/><rect class="cls-13" x="892.48" y="24.25" width="9.28" height="7.9"/><path class="cls-14" d="M895.53,26.9h0l-.63.29-.12-.57.86-.4h.63v3.25h-.73Z"/><path class="cls-14" d="M899.66,26.22v.48l-1.34,2.77h-.81l1.35-2.61h-1.5v-.63Z"/><polygon class="cls-15" points="896.96 18.37 893.93 23.63 900 23.63 896.96 18.37"/><rect class="cls-13" x="912.53" y="24.25" width="9.28" height="7.9"/><path class="cls-14" d="M915.58,26.9h0l-.62.29-.13-.57.86-.4h.63v3.25h-.73Z"/><path class="cls-14" d="M917.33,28.62a.86.86,0,0,1,.58-.81v0a.79.79,0,0,1-.47-.71c0-.55.5-.91,1.15-.91s1.07.44,1.07.83a.8.8,0,0,1-.47.72h0a.86.86,0,0,1,.6.81c0,.59-.5,1-1.25,1S917.33,29.06,917.33,28.62Zm1.68,0c0-.29-.21-.46-.51-.54a.49.49,0,0,0-.39.49.44.44,0,0,0,.46.45A.4.4,0,0,0,919,28.6Zm-.85-1.54c0,.22.2.36.46.44a.45.45,0,0,0,.33-.42.38.38,0,0,0-.4-.4A.36.36,0,0,0,918.16,27.06Z"/><polygon class="cls-15" points="916.99 23.65 920.03 18.39 913.96 18.39 916.99 23.65"/><rect class="cls-13" x="932.58" y="24.25" width="9.28" height="7.9"/><path class="cls-14" d="M935.63,26.9h0l-.62.29-.13-.57.86-.4h.63v3.25h-.73Z"/><path class="cls-14" d="M937.67,28.92H938a1.24,1.24,0,0,0,.64-.2,1,1,0,0,0,.41-.6h0a.87.87,0,0,1-.65.23,1,1,0,0,1-1-1,1.18,1.18,0,0,1,1.23-1.17,1.24,1.24,0,0,1,1.23,1.4A1.77,1.77,0,0,1,938,29.52c-.13,0-.26,0-.35,0Zm.46-1.63a.46.46,0,0,0,.46.52.48.48,0,0,0,.42-.21.34.34,0,0,0,0-.19c0-.35-.13-.69-.47-.69S938.13,27,938.13,27.29Z"/><polygon class="cls-15" points="937.06 18.37 934.03 23.63 940.1 23.63 937.06 18.37"/><rect class="cls-13" x="952.63" y="24.25" width="9.28" height="7.9"/><path class="cls-14" d="M954.71,29.47V29l.42-.38c.71-.63,1-1,1.06-1.38s-.16-.47-.53-.47a1.19,1.19,0,0,0-.7.27l-.21-.55a1.8,1.8,0,0,1,1.06-.33,1,1,0,0,1,1.14,1,2,2,0,0,1-.86,1.4l-.3.25H957v.62Z"/><path class="cls-14" d="M959.88,27.83c0,1-.4,1.7-1.23,1.7s-1.21-.76-1.22-1.68.4-1.68,1.24-1.68S959.88,26.94,959.88,27.83Zm-1.68,0c0,.75.17,1.1.47,1.1s.45-.37.45-1.11-.15-1.1-.46-1.1S958.19,27.1,958.2,27.85Z"/><polygon class="cls-15" points="957.09 23.65 960.13 18.39 954.06 18.39 957.09 23.65"/><rect class="cls-13" x="972.68" y="24.25" width="9.28" height="7.9"/><path class="cls-14" d="M974.76,29.47V29l.42-.38c.71-.63,1.05-1,1.06-1.38s-.16-.47-.53-.47a1.19,1.19,0,0,0-.7.27l-.21-.55a1.8,1.8,0,0,1,1.06-.33,1,1,0,0,1,1.14,1,2,2,0,0,1-.86,1.4l-.3.25h1.22v.62Z"/><path class="cls-14" d="M978.5,26.9h0l-.62.29-.12-.57.86-.4h.63v3.25h-.74Z"/><polygon class="cls-15" points="977.17 18.37 974.13 23.63 980.2 23.63 977.17 18.37"/><rect class="cls-13" x="992.73" y="24.25" width="9.28" height="7.9"/><path class="cls-14" d="M994.81,29.47V29l.42-.38c.71-.63,1-1,1.06-1.38s-.16-.47-.53-.47a1.19,1.19,0,0,0-.7.27l-.21-.55a1.8,1.8,0,0,1,1.06-.33,1,1,0,0,1,1.14,1,2,2,0,0,1-.86,1.4l-.3.25h1.23v.62Z"/><path class="cls-14" d="M997.58,29.47V29l.42-.38c.71-.63,1.06-1,1.07-1.38s-.16-.47-.54-.47a1.16,1.16,0,0,0-.69.27l-.22-.55a1.86,1.86,0,0,1,1.07-.33,1,1,0,0,1,1.14,1,2,2,0,0,1-.87,1.4l-.3.25h1.23v.62Z"/><polygon class="cls-15" points="997.2 23.65 1000.23 18.39 994.16 18.39 997.2 23.65"/><rect class="cls-13" x="1012.78" y="24.25" width="9.28" height="7.9"/><path class="cls-14" d="M1014.86,29.47V29l.42-.38c.71-.63,1.05-1,1.06-1.38s-.16-.47-.53-.47a1.19,1.19,0,0,0-.7.27l-.21-.55a1.8,1.8,0,0,1,1.06-.33,1,1,0,0,1,1.15,1,2,2,0,0,1-.87,1.4l-.3.25h1.23v.62Z"/><path class="cls-14" d="M1017.77,28.73a1.74,1.74,0,0,0,.75.2c.4,0,.6-.19.6-.44s-.32-.46-.66-.46h-.31v-.55h.3c.25,0,.58-.1.58-.37s-.16-.34-.48-.34a1.45,1.45,0,0,0-.68.19l-.16-.55a2.14,2.14,0,0,1,1-.24c.7,0,1.08.36,1.08.81a.77.77,0,0,1-.59.75h0a.82.82,0,0,1,.7.79c0,.58-.5,1-1.33,1a1.94,1.94,0,0,1-1-.23Z"/><polygon class="cls-15" points="1017.27 18.37 1014.23 23.63 1020.3 23.63 1017.27 18.37"/><rect class="cls-13" x="1032.83" y="24.25" width="9.28" height="7.9"/><rect class="cls-16" x="1074.46" y="24.64" width="9.28" height="7.29"/><path class="cls-14" d="M1034.91,29.47V29l.42-.38c.71-.63,1.06-1,1.07-1.38s-.16-.47-.54-.47a1.19,1.19,0,0,0-.7.27l-.21-.55a1.84,1.84,0,0,1,1.07-.33,1,1,0,0,1,1.14,1,2,2,0,0,1-.87,1.4l-.3.25h1.23v.62Z"/><path class="cls-14" d="M1039,29.47V28.7h-1.44v-.5l1.23-2h.93v1.91h.39v.57h-.39v.77Zm0-1.34v-.72c0-.2,0-.4,0-.61h0c-.11.21-.2.4-.3.61l-.44.71h.73Z"/><polygon class="cls-15" points="1037.3 23.65 1040.33 18.39 1034.26 18.39 1037.3 23.65"/><rect class="cls-13" x="1207.37" y="24.69" width="9.28" height="7.9"/><polygon class="cls-15" points="1211.84 18.51 1208.8 23.77 1214.87 23.77 1211.84 18.51"/><polygon class="cls-15" points="1079.1 18.69 1076.44 23.28 1081.75 23.28 1079.1 18.69"/><polygon class="cls-17" points="1110.54 65.21 1097.34 65.21 1097.34 64.01 1083.12 64.01 1083.12 65.21 1069.92 65.21 1069.92 36.64 1110.54 36.64 1110.54 65.21"/><polygon class="cls-17" points="1069.92 73.07 1083.12 73.07 1083.12 74.27 1097.34 74.27 1097.34 73.07 1110.54 73.07 1110.54 101.64 1069.92 101.64 1069.92 73.07"/><path class="cls-12" d="M165.82,21.15l-5.16,7h-1.09l-.21-4.82-3.65,4.82h-1.12l-.21-7h1.67l.11,4.67,3.51-4.67h1.13l.23,4.67,3.35-4.67Z"/><path class="cls-12" d="M170.84,28.12h-6.2l2-5.71h6.13l-.36,1h-4.72l-.44,1.24H170l-.35,1h-2.75l-.5,1.4h4.79Z"/><path class="cls-12" d="M179.77,27c-.27.75-1,1.13-2.17,1.13h-4.75l2-5.71H180c.9,0,1.22.36,1,1.1l-.25.69a1.51,1.51,0,0,1-1.32,1c.64.11.85.48.63,1.1Zm-1.2-.41.15-.44c.08-.21.07-.35,0-.43a.91.91,0,0,0-.46-.08h-3.12l-.52,1.46h3.12a1.34,1.34,0,0,0,.52-.08A.73.73,0,0,0,178.57,26.58Zm.76-2.3.19-.54c.1-.27-.06-.4-.48-.4h-3.11l-.48,1.35h3.12C179,24.69,179.23,24.55,179.33,24.28Z"/><path class="cls-12" d="M195.6,26.47a2.6,2.6,0,0,1-.84,1.31,2.7,2.7,0,0,1-1.48.34H189c-.71,0-1.13-.13-1.27-.38a2.17,2.17,0,0,1,.18-1.46l1.54-.3-.3.83h4.93l.57-1.6h-4.35c-.65,0-1.07-.11-1.23-.33s-.14-.67.09-1.31l.27-.77a2.56,2.56,0,0,1,.84-1.31,2.59,2.59,0,0,1,1.48-.34h3.95c.67,0,1.08.11,1.24.34s.13.68-.11,1.33l-1.55.34.29-.8H191l-.53,1.5h4.35c.66,0,1.07.12,1.24.34s.14.66-.09,1.31Z"/><path class="cls-12" d="M205.68,28.12h-1.29l1.39-3.93-3.7,3.24h-.27l-1.46-3.15L199,28.12h-1.12l2-5.71H201l1.59,3.38,4-3.38h1.12Z"/><path class="cls-12" d="M215.52,28.12H214l-.27-1.26h-3.78l-1.16,1.26h-1.39l5.42-5.71h1.33Zm-2-2.3L213,23.45l-2.13,2.37Z"/><path class="cls-12" d="M224,28.12h-2L220.4,26h-1.31l-.77,2.16h-1.38l2-5.71h5.14c.9,0,1.21.36.95,1.1l-.48,1.35a1.49,1.49,0,0,1-1.08,1,9,9,0,0,1-1.43.07Zm-.61-3.61.23-.66c.11-.31,0-.46-.47-.46H220L219.44,25h3.17A.75.75,0,0,0,223.41,24.51Z"/><path class="cls-12" d="M233.05,23.43h-2.77l-1.66,4.69h-1.39l1.66-4.69h-2.75l.36-1h6.92Z"/><path class="cls-12" d="M247.06,26.47a2.6,2.6,0,0,1-.84,1.31,2.67,2.67,0,0,1-1.48.34h-4.31c-.71,0-1.13-.13-1.27-.38a2.17,2.17,0,0,1,.18-1.46l1.54-.3-.29.83h4.92l.57-1.6h-4.35c-.65,0-1.07-.11-1.23-.33s-.14-.67.09-1.31l.27-.77a2.56,2.56,0,0,1,.84-1.31,2.59,2.59,0,0,1,1.48-.34h3.95c.67,0,1.08.11,1.24.34s.13.68-.1,1.33l-1.56.34.29-.8h-4.56l-.54,1.5h4.35c.66,0,1.07.12,1.24.34s.15.66-.08,1.31Z"/><path class="cls-12" d="M260.42,22.41l-4.33,5.71h-.94l-.22-4-3.1,4h-1l-.29-5.71H252l.09,4,3-4h1l.17,4,2.89-4Z"/><path class="cls-12" d="M261.37,28.12H260l2-5.71h1.39Z"/><path class="cls-12" d="M271.74,23.43H269l-1.66,4.69h-1.39l1.66-4.69h-2.75l.36-1h6.92Z"/><path class="cls-12" d="M278.27,26.77a2.12,2.12,0,0,1-.72,1.08,2.36,2.36,0,0,1-1.26.27h-3.57c-.56,0-.91-.09-1.06-.27s-.13-.54.06-1.08l1.07-3a2,2,0,0,1,.71-1.08,2.32,2.32,0,0,1,1.25-.27h3.57c.71,0,1.1.14,1.16.44a3.74,3.74,0,0,1-.34,1.46l-1.48.2.38-1.05h-3.76L273,27h3.75l.43-1.21,1.31.28Z"/><path class="cls-12" d="M287.21,28.12h-1.39l.85-2.41h-4.34l-.86,2.41h-1.4l2-5.71h1.4l-.77,2.17h4.35l.77-2.17h1.39Z"/><g id="g3"><path id="path5" class="cls-12" d="M89.12,19.64h4.19c.29,0,.34.27.12.61l-.84,1.28a1.37,1.37,0,0,1-.94.61H87.46c-.29,0-.35-.27-.12-.61l.84-1.28a1.37,1.37,0,0,1,.94-.61"/><path id="path7" class="cls-12" d="M109.14,13.65c1.54-.13,3.37,1,2.46,2.44s-4,1.65-4.92,1.58c-.3,0-.79-.2-.77-.64a4.6,4.6,0,0,1,.84-2.25,3.29,3.29,0,0,1,2.39-1.13"/></g><path id="path9" class="cls-12" d="M118.73,16.47c.48-.19.52.29.51.43V18c0,.21.2.12.3.08,1.44-.57,2.91-1.4,4.76-1.36,1.65,0,2.14,1.24,2.14,2.62v5.87c0,.52,0,.64.3.84a3.29,3.29,0,0,0,.7.08c.17,0,.17.12.13.24l-.4.92a.42.42,0,0,1-.39.2H123c-1.31,0-1.7-.94-1.68-1.4V20.52c0-1.15-2-1.23-2,.31v4.72c0,.22-.06.52.59.56.44,0,.74,0,.52.44l-.31.74a.49.49,0,0,1-.43.22h-6.19a.22.22,0,0,1-.21-.24l.44-1c0-.05.06-.12.12-.12s.35-.1.39-.64V19.34c0-.5-.5-.44-.87-.44-.17,0-.26,0-.22-.24l.35-.68a.28.28,0,0,1,.26-.24,14.73,14.73,0,0,0,5-1.27"/><path id="path11" class="cls-12" d="M133.85,13.89c.36-.05.56.15.56.51v5.87c0,.32.3.1.38,0l2.2-2.57a1.66,1.66,0,0,1,1.15-.32h4.8c.08,0,.13.09,0,.2l-.61.76c-.05.07-.1.16-.39.16h-.24a.59.59,0,0,0-.34.12l-2.46,2.54c-.52.58-.4.82.07,1.22l3.37,3.2a4.13,4.13,0,0,0,2.22.56c.21,0,.16.16.09.24l-.87.92a1.15,1.15,0,0,1-.69.2h-3.35A3.89,3.89,0,0,1,138,27c-1.22-.92-2-2.09-3.17-3.12-.21-.18-.38-.1-.38.06v1.34c0,.6.27.76,1.23.8.36,0,.26.2.18.4l-.32.76a.38.38,0,0,1-.38.24h-7c-.22,0-.36-.06-.31-.18l.38-.94c.08-.18.14-.22.43-.24.48,0,.66-.17.67-.83V16.7c0-.29-.08-.41-.3-.38l-.89.11c-.26,0-.31-.15-.2-.32l.54-.83c.11-.16.3-.18.5-.21a27.71,27.71,0,0,0,4.66-1.13l.2,0"/><g id="g13"><path id="path15" class="cls-12" d="M111.48,17.35c.22-.08.48.08.44.52v7.6c.11.53.29.67.81.72,0,0,.36,0,.26.24l-.34.8c-.13.24-.21.28-.52.28h-6.46c-.16,0-.23-.11-.17-.28l.31-.76c.06-.11.08-.21.3-.24.65-.16.69-.24.69-1V20.63c0-.76-.13-.72-1.08-.64a.16.16,0,0,1-.13-.24l.48-.84c.13-.24.3-.24.3-.24a12.94,12.94,0,0,0,5.11-1.32"/><path id="path17" class="cls-12" d="M78.9,27.51a7.22,7.22,0,0,0,4.67-1.05c1.13-.69,2.47-3.45,3-4.58a2.46,2.46,0,0,0,0-2,19.94,19.94,0,0,0-2.9-4.56c-1.18-1-2.27-1.09-4.1-1.09h-7.8a1,1,0,0,0-.82.29l-.57,1c-.08.4.44.44.44.44h.79c.22,0,.26.15.26.32v8.88c0,.4-.49.64-.88.72a.89.89,0,0,0-.56.28l-.57,1a.26.26,0,0,0,.26.36H78.9m-2-1.66V16.31c0-.24,0-.36.3-.4H78a.9.9,0,0,1,.91.34l2.61,4.2a.82.82,0,0,1,0,.92L78.85,25.5c-.32.4-.47.33-.87.35H76.92Z"/></g><path id="path19" class="cls-12" d="M101.15,14.35c.33,0,.46.19.39.31l-.69,1.16s-.09.24-.7.24h-.06c-.39,0-.7,0-.75.72v8.44a.61.61,0,0,0,.65.68h1c1.54,0,1.51-1.48,1.85-2.76a.67.67,0,0,1,.39-.44l1.38-.44c.17,0,.34,0,.39.28v4.24a.74.74,0,0,1-.87.72H92.32c-.44,0-.53-.12-.44-.36l.44-.88a.57.57,0,0,1,.52-.24c.87,0,1.41-.05,1.4-1.28V16.86c0-.52-.13-.84-.7-.84h-.66c-.44,0-.67-.14-.57-.36l.61-1a.45.45,0,0,1,.48-.27h7.75"/><path class="cls-12" d="M399,11.43l.37,0a2.56,2.56,0,0,1,.39,0V14.5h1.33l0,.17V15l0,.17H399Z"/><path class="cls-12" d="M401.69,13h-.35l0-.14c0-.05,0-.1,0-.14a.84.84,0,0,1,0-.27h1.1v2.67l-.38,0-.37,0Zm-.11-1a2.06,2.06,0,0,1,0-.7l.2,0h.38l.2,0a1.1,1.1,0,0,1,0,.18.91.91,0,0,1,0,.17,1,1,0,0,1,0,.17,1.1,1.1,0,0,1,0,.18l-.19,0h-.39Z"/><path class="cls-12" d="M403.18,12.48l.15,0h.33l.14,0a.24.24,0,0,1,0,.07l0,.1a.36.36,0,0,0,0,.11v.09a.91.91,0,0,1,.13-.16.79.79,0,0,1,.17-.14l.22-.1a1.18,1.18,0,0,1,.28,0,1,1,0,0,1,.7.25,1.1,1.1,0,0,1,.24.78v1.71a2.43,2.43,0,0,1-.38,0l-.38,0V13.64a.83.83,0,0,0-.09-.43.31.31,0,0,0-.3-.15.63.63,0,0,0-.19,0,.33.33,0,0,0-.17.1.44.44,0,0,0-.13.21,1.08,1.08,0,0,0-.05.35v1.4a2.43,2.43,0,0,1-.38,0l-.38,0Z"/><path class="cls-12" d="M406.27,11.37a2.34,2.34,0,0,1,.38,0,2.31,2.31,0,0,1,.37,0v3.78a2.31,2.31,0,0,1-.37,0,2.34,2.34,0,0,1-.38,0Zm.86,2.38.68-1.27a2,2,0,0,1,.43,0,1.72,1.72,0,0,1,.39,0l-.7,1.23.82,1.44-.42,0-.4,0Z"/><path class="cls-12" d="M410.16,11.43l.39,0,.37,0-1.3,3.72-.38,0a2.31,2.31,0,0,1-.37,0Z"/><path class="cls-12" d="M411.88,11.43l.21,0h.43l.23,0,1.2,3.72-.43,0-.39,0-.22-.75h-1.27l-.22.75-.36,0a2.38,2.38,0,0,1-.39,0Zm.85,2.35-.44-1.56-.47,1.56Z"/><path class="cls-12" d="M416.16,14.52a1.33,1.33,0,0,1,.1.24,1,1,0,0,1,.05.32,1.8,1.8,0,0,1-.41.11l-.39,0a1.4,1.4,0,0,1-.6-.11,1.06,1.06,0,0,1-.42-.29,1.14,1.14,0,0,1-.26-.44,1.94,1.94,0,0,1-.08-.56,1.91,1.91,0,0,1,.08-.54,1.41,1.41,0,0,1,.25-.45,1.08,1.08,0,0,1,.42-.3,1.5,1.5,0,0,1,.58-.11h.22l.19,0,.18,0,.2.07a1.22,1.22,0,0,1,0,.26,1,1,0,0,1-.1.29,1.26,1.26,0,0,0-.28-.07,1.19,1.19,0,0,0-.28,0,.61.61,0,0,0-.5.21.94.94,0,0,0-.16.59.9.9,0,0,0,.18.62.66.66,0,0,0,.49.19h.28l.13,0Z"/><path class="cls-12" d="M416.91,13h-.34l0-.1,1-1.23h.12v.78h.65a.68.68,0,0,1,0,.14v.26a.77.77,0,0,1,0,.15h-.65v1.05a.88.88,0,0,0,0,.26.34.34,0,0,0,.08.16.25.25,0,0,0,.12.08l.18,0,.16,0,.13,0a.65.65,0,0,1,.05.2.68.68,0,0,1,0,.19v.1s0,0,0,.07a2.1,2.1,0,0,1-.51.06,1.09,1.09,0,0,1-.74-.22.9.9,0,0,1-.26-.72Z"/><path class="cls-12" d="M418.89,13.24a2.53,2.53,0,0,1,0-.38,2.43,2.43,0,0,1,0-.38,1.92,1.92,0,0,1,.78,0,1.61,1.61,0,0,1,0,.37,1.72,1.72,0,0,1,0,.39l-.38,0A2.6,2.6,0,0,1,418.89,13.24Zm0,1.91a2.43,2.43,0,0,1,0-.38,2.53,2.53,0,0,1,0-.38,2.55,2.55,0,0,1,.78,0,1.82,1.82,0,0,1,0,.76l-.38,0A2.6,2.6,0,0,1,418.89,15.15Z"/><path class="cls-12" d="M422.6,14.52V12.43l-.64.24a1.13,1.13,0,0,1-.1-.13l-.09-.14a2.49,2.49,0,0,1-.11-.29l1.55-.65h.15v3.06h.76l0,.17V15l0,.16h-2.29a1,1,0,0,1,0-.16.81.81,0,0,1,0-.16.71.71,0,0,1,0-.14,1.11,1.11,0,0,1,0-.17Z"/><path class="cls-12" d="M426,15.21a1.42,1.42,0,0,1-.65-.14,1.15,1.15,0,0,1-.43-.39,1.8,1.8,0,0,1-.24-.6,3.62,3.62,0,0,1-.08-.76,3.55,3.55,0,0,1,.08-.76A1.8,1.8,0,0,1,425,12a1.15,1.15,0,0,1,.43-.39,1.42,1.42,0,0,1,.65-.14,1.44,1.44,0,0,1,.64.14,1.15,1.15,0,0,1,.43.39,1.8,1.8,0,0,1,.24.6,3.55,3.55,0,0,1,.08.76,3.62,3.62,0,0,1-.08.76,1.8,1.8,0,0,1-.24.6,1.15,1.15,0,0,1-.43.39A1.44,1.44,0,0,1,426,15.21Zm0-.65a.45.45,0,0,0,.41-.3,2.44,2.44,0,0,0,.14-.94,2.4,2.4,0,0,0-.14-.94.44.44,0,0,0-.83,0,2.44,2.44,0,0,0-.13.94,2.47,2.47,0,0,0,.13.94A.45.45,0,0,0,426,14.56Z"/><path class="cls-12" d="M428.12,11.43l.41,0a2.83,2.83,0,0,1,.41,0l.88,2.13.91-2.13a2.05,2.05,0,0,1,.37,0l.39,0,.18,3.72a2.66,2.66,0,0,1-.39,0,2,2,0,0,1-.35,0l-.1-2.52-.78,1.74-.15,0h-.3l-.15,0-.72-1.78-.08,2.56a1.84,1.84,0,0,1-.33,0l-.35,0Z"/><path class="cls-12" d="M419.39,20.73v-2.1l-.64.25-.1-.14a.64.64,0,0,1-.08-.14,1.45,1.45,0,0,1-.11-.29l1.54-.65h.16v3.07h.76a1,1,0,0,1,0,.16c0,.05,0,.1,0,.15s0,.1,0,.15a1,1,0,0,1,0,.16h-2.3a1,1,0,0,1,0-.16v-.3a1,1,0,0,1,0-.16Z"/><path class="cls-12" d="M422.83,21.41a1.38,1.38,0,0,1-.64-.13,1.24,1.24,0,0,1-.43-.39,2,2,0,0,1-.25-.6,3.74,3.74,0,0,1-.07-.77,3.64,3.64,0,0,1,.07-.76,1.87,1.87,0,0,1,.25-.59,1.08,1.08,0,0,1,.43-.39,1.26,1.26,0,0,1,.64-.14,1.29,1.29,0,0,1,.64.14,1.08,1.08,0,0,1,.43.39,1.67,1.67,0,0,1,.25.59,3.64,3.64,0,0,1,.07.76,3.74,3.74,0,0,1-.07.77,1.81,1.81,0,0,1-.25.6,1.24,1.24,0,0,1-.43.39A1.41,1.41,0,0,1,422.83,21.41Zm0-.64a.44.44,0,0,0,.41-.31,2.4,2.4,0,0,0,.14-.94,2.47,2.47,0,0,0-.14-.94.43.43,0,0,0-.82,0,2.47,2.47,0,0,0-.14.94,2.4,2.4,0,0,0,.14.94A.44.44,0,0,0,422.83,20.77Z"/><path class="cls-12" d="M426,21.41a1.41,1.41,0,0,1-.64-.13,1.24,1.24,0,0,1-.43-.39,1.8,1.8,0,0,1-.24-.6,3.71,3.71,0,0,1-.08-.77,3.62,3.62,0,0,1,.08-.76,1.66,1.66,0,0,1,.24-.59,1.08,1.08,0,0,1,.43-.39,1.29,1.29,0,0,1,.64-.14,1.33,1.33,0,0,1,.65.14,1.15,1.15,0,0,1,.43.39,1.66,1.66,0,0,1,.24.59,3.62,3.62,0,0,1,.08.76,3.71,3.71,0,0,1-.08.77,1.8,1.8,0,0,1-.24.6,1.34,1.34,0,0,1-.43.39A1.45,1.45,0,0,1,426,21.41Zm0-.64a.45.45,0,0,0,.42-.31,2.44,2.44,0,0,0,.13-.94,2.51,2.51,0,0,0-.13-.94.44.44,0,0,0-.83,0,2.47,2.47,0,0,0-.14.94,2.4,2.4,0,0,0,.14.94A.45.45,0,0,0,426,20.77Z"/><path class="cls-12" d="M428.12,17.64a2,2,0,0,1,.41,0,1.9,1.9,0,0,1,.41,0l.88,2.13.91-2.13a1.4,1.4,0,0,1,.37,0,1.72,1.72,0,0,1,.39,0l.18,3.71a2.66,2.66,0,0,1-.39,0,2,2,0,0,1-.35,0l-.1-2.52-.78,1.75-.15,0h-.3l-.15,0-.72-1.79-.08,2.56a1.84,1.84,0,0,1-.33,0l-.35,0Z"/><path class="cls-12" d="M438.75,11.43a2.43,2.43,0,0,1,.38,0l.39,0V14.5h1.33c0,.06,0,.11,0,.17V15s0,.11,0,.17h-2.1Z"/><path class="cls-12" d="M441.48,13h-.36l0-.14v-.14a1.24,1.24,0,0,1,0-.27h1.1v2.67a2.43,2.43,0,0,1-.38,0l-.36,0Zm-.12-1a2.06,2.06,0,0,1,0-.7l.2,0H442l.19,0,0,.18v.34l0,.18-.19,0h-.39Z"/><path class="cls-12" d="M443,12.48l.15,0h.32l.15,0a.12.12,0,0,1,0,.07l0,.1s0,.08,0,.11v.09a1.83,1.83,0,0,1,.13-.16l.17-.14.22-.1a1.26,1.26,0,0,1,.28,0,.93.93,0,0,1,.7.25,1.1,1.1,0,0,1,.24.78v1.71a2.43,2.43,0,0,1-.38,0l-.38,0V13.64a1,1,0,0,0-.08-.43.34.34,0,0,0-.31-.15l-.19,0a.33.33,0,0,0-.17.1.54.54,0,0,0-.13.21,1.08,1.08,0,0,0,0,.35v1.4a2.31,2.31,0,0,1-.37,0,2.34,2.34,0,0,1-.38,0Z"/><path class="cls-12" d="M446.05,11.37a2.34,2.34,0,0,1,.38,0l.38,0v3.78l-.38,0a2.34,2.34,0,0,1-.38,0Zm.86,2.38.69-1.27a1.93,1.93,0,0,1,.42,0,1.67,1.67,0,0,1,.39,0l-.7,1.23.82,1.44-.42,0-.4,0Z"/><path class="cls-12" d="M438.75,17.64a1.64,1.64,0,0,1,.38,0,1.84,1.84,0,0,1,.39,0V20.7h1.33c0,.06,0,.12,0,.17v.31c0,.06,0,.11,0,.17h-2.1Z"/><path class="cls-12" d="M441.48,19.24h-.36l0-.14V19a1.24,1.24,0,0,1,0-.27h1.1v2.67a2.43,2.43,0,0,1-.38,0l-.36,0Zm-.12-1a2.07,2.07,0,0,1,0-.35,2,2,0,0,1,0-.34l.2,0H442l.19,0,0,.17v.34l0,.18-.19,0h-.39Z"/><path class="cls-12" d="M443,18.68l.15,0h.32l.15,0a.14.14,0,0,1,0,.07l0,.11s0,.07,0,.1v.09l.13-.15.17-.14a.88.88,0,0,1,.22-.1.86.86,0,0,1,.28,0,.89.89,0,0,1,.7.25,1.07,1.07,0,0,1,.24.78v1.7a2.43,2.43,0,0,1-.38,0l-.38,0V19.84a1,1,0,0,0-.08-.43.34.34,0,0,0-.31-.15l-.19,0a.42.42,0,0,0-.17.1.54.54,0,0,0-.13.21,1.13,1.13,0,0,0,0,.35v1.4a2.31,2.31,0,0,1-.37,0,2.34,2.34,0,0,1-.38,0Z"/><path class="cls-12" d="M446.05,17.57a2.34,2.34,0,0,1,.38,0l.38,0v3.78l-.38,0a2.34,2.34,0,0,1-.38,0Zm.86,2.38.69-1.27a2.86,2.86,0,0,1,.42,0,2.47,2.47,0,0,1,.39,0l-.7,1.24.82,1.43-.42,0-.4,0Z"/><path class="cls-12" d="M81.24,65.27l.44,0,.46,0a2.86,2.86,0,0,1,.58.06,1.41,1.41,0,0,1,.51.18.92.92,0,0,1,.37.36,1,1,0,0,1,.15.57,1,1,0,0,1-.06.36,1,1,0,0,1-.13.28,1.8,1.8,0,0,1-.18.2l-.18.14-.1.06L84,69l-.22,0h-.24a2.83,2.83,0,0,1-.41,0l-1-1.73.13-.06.18-.09a1.37,1.37,0,0,0,.21-.15.64.64,0,0,0,.16-.2.54.54,0,0,0,.07-.29.57.57,0,0,0-.19-.48.78.78,0,0,0-.5-.15H82V69l-.19,0h-.38l-.21,0Z"/><path class="cls-12" d="M85,67.87a.55.55,0,0,0,.22.45,1,1,0,0,0,.54.14l.37,0,.36-.1a1.18,1.18,0,0,1,.1.25,1.54,1.54,0,0,1,0,.31,2.77,2.77,0,0,1-.94.15,1.83,1.83,0,0,1-.66-.1,1,1,0,0,1-.45-.29,1.1,1.1,0,0,1-.26-.43,2,2,0,0,1,0-1.11,1.43,1.43,0,0,1,.26-.45,1.12,1.12,0,0,1,.41-.3,1.34,1.34,0,0,1,.58-.11,1.21,1.21,0,0,1,.52.1,1.12,1.12,0,0,1,.38.26,1.38,1.38,0,0,1,.24.41,1.69,1.69,0,0,1,.08.5c0,.07,0,.13,0,.2s0,.11,0,.15Zm1.08-.51A.62.62,0,0,0,86,67a.47.47,0,0,0-.37-.15.52.52,0,0,0-.4.14.7.7,0,0,0-.17.41Z"/><path class="cls-12" d="M88,67.82a1.1,1.1,0,0,1-.47-.25.64.64,0,0,1-.17-.48.74.74,0,0,1,.29-.62,1.29,1.29,0,0,1,.8-.22,2.83,2.83,0,0,1,.41,0,3.59,3.59,0,0,1,.41.11c0,.09,0,.18,0,.28a1.56,1.56,0,0,1-.11.26,1.51,1.51,0,0,0-.28-.1,1.66,1.66,0,0,0-.32,0,.58.58,0,0,0-.29,0,.19.19,0,0,0-.1.17.19.19,0,0,0,.07.16l.21.09.3.09a1.69,1.69,0,0,1,.27.1.8.8,0,0,1,.21.15.57.57,0,0,1,.13.21,1,1,0,0,1,0,.32.86.86,0,0,1-.08.36.92.92,0,0,1-.24.28,1.13,1.13,0,0,1-.38.19,1.61,1.61,0,0,1-.51.07h-.24l-.2,0-.2,0-.21-.07a1.4,1.4,0,0,1,.06-.28,1.33,1.33,0,0,1,.1-.28,1.73,1.73,0,0,0,.33.1,1.86,1.86,0,0,0,.33,0l.16,0,.17,0,.12-.09a.19.19,0,0,0,0-.14c0-.09,0-.15-.07-.18a.9.9,0,0,0-.22-.1Z"/><path class="cls-12" d="M90.47,67.87a.55.55,0,0,0,.23.45.92.92,0,0,0,.53.14,2.31,2.31,0,0,0,.37,0l.36-.1a1.17,1.17,0,0,1,.11.25,1.55,1.55,0,0,1,0,.31,2.73,2.73,0,0,1-.94.15,1.91,1.91,0,0,1-.66-.1,1.06,1.06,0,0,1-.44-.29,1.1,1.1,0,0,1-.26-.43,1.69,1.69,0,0,1-.08-.56,2,2,0,0,1,.08-.55,1.26,1.26,0,0,1,.26-.45,1.12,1.12,0,0,1,.41-.3,1.34,1.34,0,0,1,.58-.11,1.26,1.26,0,0,1,.9.36,1.18,1.18,0,0,1,.23.41,1.42,1.42,0,0,1,.08.5v.2a1,1,0,0,0,0,.15Zm1.09-.51a.68.68,0,0,0-.14-.4.47.47,0,0,0-.37-.15.5.5,0,0,0-.4.14.64.64,0,0,0-.17.41Z"/><path class="cls-12" d="M93,66.87H92.6l0-.11,1-1.23h.13v.78h.64a.78.78,0,0,1,0,.14.53.53,0,0,1,0,.13.66.66,0,0,1,0,.14,1,1,0,0,1,0,.15H93.7v1a1,1,0,0,0,0,.26.53.53,0,0,0,.08.15.32.32,0,0,0,.12.08l.18,0h.16l.14,0a1.6,1.6,0,0,1,0,.21,1.28,1.28,0,0,1,0,.19v.09a.22.22,0,0,1,0,.08A2.73,2.73,0,0,1,94,69a1.12,1.12,0,0,1-.75-.22.88.88,0,0,1-.25-.71Z"/><path class="cls-12" d="M114.36,64.42l.49,0h.51a3.29,3.29,0,0,1,.54,0,1.46,1.46,0,0,1,.5.2,1,1,0,0,1,.36.39,1.4,1.4,0,0,1,.14.66,1.36,1.36,0,0,1-.14.65,1.07,1.07,0,0,1-.36.4,1.39,1.39,0,0,1-.49.19,2.39,2.39,0,0,1-.53.06h-.25v1.19l-.19,0h-.38l-.2,0Zm.77,1.91h.26a1.09,1.09,0,0,0,.26,0,.63.63,0,0,0,.23-.12A.46.46,0,0,0,116,66a.71.71,0,0,0,.06-.31.81.81,0,0,0-.06-.33.65.65,0,0,0-.16-.21.61.61,0,0,0-.23-.11,1.09,1.09,0,0,0-.26,0h-.26Z"/><path class="cls-12" d="M118.56,68.21a1.52,1.52,0,0,1-.59-.1,1.24,1.24,0,0,1-.41-.3,1.18,1.18,0,0,1-.24-.44,1.73,1.73,0,0,1,0-1.1,1.22,1.22,0,0,1,.24-.45,1.24,1.24,0,0,1,.41-.3,1.51,1.51,0,0,1,.59-.11,1.55,1.55,0,0,1,.59.11,1.24,1.24,0,0,1,.41.3,1.41,1.41,0,0,1,.25.45,1.93,1.93,0,0,1,0,1.1,1.36,1.36,0,0,1-.25.44,1.24,1.24,0,0,1-.41.3A1.55,1.55,0,0,1,118.56,68.21Zm0-.56a.47.47,0,0,0,.43-.21,1.17,1.17,0,0,0,.13-.62,1.19,1.19,0,0,0-.13-.62.55.55,0,0,0-.86,0,1.3,1.3,0,0,0-.13.62,1.27,1.27,0,0,0,.13.62A.47.47,0,0,0,118.56,67.65Z"/><path class="cls-12" d="M120.49,64.43h2.17a1.17,1.17,0,0,1,0,.32,1.12,1.12,0,0,1,0,.32h-1.39v.81h1.11a1.82,1.82,0,0,1,0,.32,1.84,1.84,0,0,1,0,.33h-1.11v1h1.43a1.63,1.63,0,0,1,0,.31,1.69,1.69,0,0,1,0,.33h-2.21Z"/><path class="cls-12" d="M124.6,64.43l.41,0a3,3,0,0,1,.42,0l.88,2.13.9-2.13a2.13,2.13,0,0,1,.37,0,2.38,2.38,0,0,1,.39,0l.18,3.72-.38,0a2.19,2.19,0,0,1-.36,0l-.09-2.52-.78,1.74-.16,0h-.3l-.14,0-.73-1.78-.07,2.56-.33,0a2.19,2.19,0,0,1-.36,0Z"/><path class="cls-12" d="M130.24,66.39a.39.39,0,0,0-.05-.2.25.25,0,0,0-.11-.12.53.53,0,0,0-.19-.06l-.24,0a2,2,0,0,0-.61.11,1.13,1.13,0,0,1-.12-.25,1.17,1.17,0,0,1,0-.29,2.47,2.47,0,0,1,.47-.11,3.44,3.44,0,0,1,.43,0,1.35,1.35,0,0,1,.87.26,1,1,0,0,1,.31.83v1.55a3,3,0,0,1-.45.11,3.64,3.64,0,0,1-.6,0,2.53,2.53,0,0,1-.5,0A1.38,1.38,0,0,1,129,68a.67.67,0,0,1-.25-.28.87.87,0,0,1-.09-.42.68.68,0,0,1,.11-.41.66.66,0,0,1,.28-.27,1.32,1.32,0,0,1,.39-.15,2,2,0,0,1,.42,0h.35Zm0,.53H130a.8.8,0,0,0-.41.09.32.32,0,0,0-.15.29.33.33,0,0,0,.06.21.28.28,0,0,0,.14.1.48.48,0,0,0,.17,0h.33l.14,0Z"/><path class="cls-12" d="M132,66.77l-.53-1.29a2.38,2.38,0,0,1,.39,0,2.73,2.73,0,0,1,.41,0l.43,1.3-.55,1.37-.38,0-.4,0Zm.73,0,.43-1.3a2.73,2.73,0,0,1,.41,0,2.56,2.56,0,0,1,.39,0l-.53,1.29.63,1.38-.39,0a2.43,2.43,0,0,1-.38,0Z"/><path class="cls-12" d="M460.2,11.43l.21,0h.44l.22,0,1.2,3.72-.42,0a2.6,2.6,0,0,1-.4,0l-.21-.75H460l-.22.75-.37,0-.39,0Zm.86,2.35-.45-1.56-.46,1.56Z"/><path class="cls-12" d="M464.48,14.52a.87.87,0,0,1,.1.24,1,1,0,0,1,.05.32,1.73,1.73,0,0,1-.4.11l-.39,0a1.45,1.45,0,0,1-.61-.11,1.06,1.06,0,0,1-.42-.29,1.12,1.12,0,0,1-.25-.44,1.64,1.64,0,0,1-.09-.56,1.91,1.91,0,0,1,.08-.54,1.41,1.41,0,0,1,.25-.45,1.25,1.25,0,0,1,.42-.3,1.51,1.51,0,0,1,.59-.11H464l.19,0,.18,0,.21.07a1.27,1.27,0,0,1,0,.26,1,1,0,0,1-.1.29,1.64,1.64,0,0,0-.55-.09.6.6,0,0,0-.5.21.94.94,0,0,0-.17.59.9.9,0,0,0,.18.62.68.68,0,0,0,.49.19h.28l.13,0Z"/><path class="cls-12" d="M465.24,13h-.35l0-.1,1-1.23H466v.78h.65a.68.68,0,0,1,0,.14.49.49,0,0,1,0,.12.61.61,0,0,1,0,.14.77.77,0,0,1,0,.15H466v1.05a.88.88,0,0,0,0,.26.34.34,0,0,0,.08.16.25.25,0,0,0,.12.08l.18,0,.16,0,.13,0a.66.66,0,0,1,.06.2,1.34,1.34,0,0,1,0,.19v.1a.17.17,0,0,1,0,.07,2.07,2.07,0,0,1-.5.06,1.1,1.1,0,0,1-.75-.22.9.9,0,0,1-.25-.72Z"/><path class="cls-12" d="M460.2,17.64l.21,0h.44l.22,0,1.2,3.71a3.07,3.07,0,0,1-.42,0,2.6,2.6,0,0,1-.4,0l-.21-.74H460l-.22.74-.37,0a2.56,2.56,0,0,1-.39,0Zm.86,2.34-.45-1.56L460.15,20Z"/><path class="cls-12" d="M464.48,20.72a.87.87,0,0,1,.1.24,1,1,0,0,1,.05.33,1.67,1.67,0,0,1-.4.1,2.55,2.55,0,0,1-.39,0,1.63,1.63,0,0,1-.61-.1,1.13,1.13,0,0,1-.67-.74,1.63,1.63,0,0,1-.09-.55,1.92,1.92,0,0,1,.08-.55,1.26,1.26,0,0,1,.25-.44,1.25,1.25,0,0,1,.42-.3,1.35,1.35,0,0,1,.59-.11H464l.19,0,.18,0,.21.07a1.47,1.47,0,0,1,0,.27.94.94,0,0,1-.1.28,1.9,1.9,0,0,0-.28-.07l-.27,0a.6.6,0,0,0-.5.21,1,1,0,0,0-.17.6.87.87,0,0,0,.18.61.64.64,0,0,0,.49.19h.28l.13,0Z"/><path class="cls-12" d="M465.24,19.24h-.35l0-.11,1-1.23H466v.78h.65a.78.78,0,0,1,0,.14.53.53,0,0,1,0,.13.66.66,0,0,1,0,.14,1,1,0,0,1,0,.15H466v1.05a1,1,0,0,0,0,.26.36.36,0,0,0,.08.15.2.2,0,0,0,.12.08l.18,0h.16l.13,0a.83.83,0,0,1,.06.21,1.28,1.28,0,0,1,0,.19v.09a.22.22,0,0,1,0,.08,2.07,2.07,0,0,1-.5.05,1.1,1.1,0,0,1-.75-.22.88.88,0,0,1-.25-.71Z"/><path class="cls-12" d="M477.16,11.42l.49,0h.51a3.29,3.29,0,0,1,.54.05,1.46,1.46,0,0,1,.5.2,1,1,0,0,1,.36.39,1.4,1.4,0,0,1,.14.66,1.36,1.36,0,0,1-.14.65,1.07,1.07,0,0,1-.36.4,1.39,1.39,0,0,1-.49.19,2.38,2.38,0,0,1-.53.05h-.24v1.2l-.2,0h-.38l-.2,0Zm.78,1.91h.25a1.09,1.09,0,0,0,.26,0,.63.63,0,0,0,.23-.12.53.53,0,0,0,.16-.2.71.71,0,0,0,.06-.31.81.81,0,0,0-.06-.33.65.65,0,0,0-.16-.21.61.61,0,0,0-.23-.11,1.09,1.09,0,0,0-.26,0h-.25Z"/><path class="cls-12" d="M481.36,15.21a1.35,1.35,0,0,1-.59-.11,1.09,1.09,0,0,1-.41-.29,1.18,1.18,0,0,1-.24-.44,1.73,1.73,0,0,1,0-1.1,1.15,1.15,0,0,1,.24-.45,1.12,1.12,0,0,1,.41-.3,1.51,1.51,0,0,1,.59-.11,1.55,1.55,0,0,1,.59.11,1.12,1.12,0,0,1,.41.3,1.31,1.31,0,0,1,.25.45,1.93,1.93,0,0,1,0,1.1,1.36,1.36,0,0,1-.25.44,1.09,1.09,0,0,1-.41.29A1.38,1.38,0,0,1,481.36,15.21Zm0-.56a.47.47,0,0,0,.43-.21,1.19,1.19,0,0,0,.13-.62,1.19,1.19,0,0,0-.13-.62.55.55,0,0,0-.86,0,1.54,1.54,0,0,0,0,1.24A.47.47,0,0,0,481.36,14.65Z"/><path class="cls-12" d="M483.29,11.43h2.17a1.17,1.17,0,0,1,0,.32,1.12,1.12,0,0,1,0,.32h-1.39v.81h1.11a1.82,1.82,0,0,1,0,.32,1.84,1.84,0,0,1,0,.33h-1.11v1h1.43a1.63,1.63,0,0,1,0,.31,1.69,1.69,0,0,1,0,.33h-2.21Z"/><path class="cls-12" d="M486.13,13.24a2.58,2.58,0,0,1,0-.38,2.45,2.45,0,0,1,0-.38,1.72,1.72,0,0,1,.39,0,1.78,1.78,0,0,1,.39,0,2.4,2.4,0,0,1,0,.37,2.56,2.56,0,0,1,0,.39l-.39,0Zm0,1.91a2.45,2.45,0,0,1,0-.38,2.58,2.58,0,0,1,0-.38,2.56,2.56,0,0,1,.39,0l.39,0a2.42,2.42,0,0,1,0,.76l-.39,0Z"/><path class="cls-12" d="M494.75,11.42l.5,0h.51a3.5,3.5,0,0,1,.54.05,1.33,1.33,0,0,1,.49.2,1.07,1.07,0,0,1,.37.39,1.41,1.41,0,0,1,.13.66,1.37,1.37,0,0,1-.13.65,1.27,1.27,0,0,1-.36.4,1.39,1.39,0,0,1-.49.19,2.44,2.44,0,0,1-.53.05h-.25v1.2l-.2,0H495l-.21,0Zm.78,1.91h.26a1.15,1.15,0,0,0,.26,0,.63.63,0,0,0,.23-.12.5.5,0,0,0,.15-.2.71.71,0,0,0,.06-.31.81.81,0,0,0-.06-.33.62.62,0,0,0-.15-.21.61.61,0,0,0-.23-.11,1.17,1.17,0,0,0-.26,0h-.26Z"/><path class="cls-12" d="M497.53,12.48l.23,0h.39a.64.64,0,0,1,.2,0l.44,2,.51-2a1.4,1.4,0,0,1,.37,0h.23l.16,0,.5,1.93.44-1.93.17,0h.36l.23,0-.86,2.67-.21,0h-.36a.58.58,0,0,1-.19,0l-.5-1.76-.52,1.77-.21,0h-.36a.63.63,0,0,1-.19,0Z"/><path class="cls-12" d="M502.17,12.48l.15,0h.32l.15,0a.34.34,0,0,1,0,.08.3.3,0,0,1,0,.1.43.43,0,0,1,0,.11v.09a1.59,1.59,0,0,1,.29-.29.75.75,0,0,1,.43-.13h.12a.22.22,0,0,1,.1,0,.36.36,0,0,1,0,.11c0,.05,0,.1,0,.14s0,.13,0,.2l0,.19h-.22l-.2,0a.4.4,0,0,0-.22.1.62.62,0,0,0-.17.23,1.23,1.23,0,0,0-.06.43v1.27l-.19,0h-.38l-.19,0Z"/><path class="cls-12" d="M505.49,11.43h2.18a1.73,1.73,0,0,1,0,.32,1.66,1.66,0,0,1,0,.32h-1.4V13h1.11a1.73,1.73,0,0,1,0,.32,1.66,1.66,0,0,1,0,.32h-1.11v1.56l-.38,0a2.6,2.6,0,0,1-.4,0Z"/><path class="cls-12" d="M509.47,13.39a.4.4,0,0,0,0-.2.34.34,0,0,0-.12-.12.48.48,0,0,0-.18-.06l-.25,0a2,2,0,0,0-.61.11,1.06,1.06,0,0,1-.11-.25.85.85,0,0,1,0-.29,2.66,2.66,0,0,1,.47-.11,3.59,3.59,0,0,1,.44,0,1.3,1.3,0,0,1,.86.26,1,1,0,0,1,.32.83v1.55l-.46.11a3.64,3.64,0,0,1-.6.05,2,2,0,0,1-.5-.05,1.13,1.13,0,0,1-.39-.15.75.75,0,0,1-.25-.28.87.87,0,0,1-.09-.42.82.82,0,0,1,.11-.42.77.77,0,0,1,.28-.26,1.32,1.32,0,0,1,.39-.15,2.09,2.09,0,0,1,.43,0h.34Zm0,.53h-.27a.84.84,0,0,0-.42.09.32.32,0,0,0-.15.29.33.33,0,0,0,.06.21.33.33,0,0,0,.14.1.39.39,0,0,0,.18,0h.32l.14,0Z"/><path class="cls-12" d="M511,13h-.36a.59.59,0,0,1,0-.14.71.71,0,0,1,0-.14,1.24,1.24,0,0,1,0-.27h1.1v2.67l-.37,0-.37,0Zm-.11-1a2.06,2.06,0,0,1,0-.7l.19,0h.39l.2,0c0,.06,0,.12,0,.18v.34c0,.06,0,.12,0,.18l-.2,0h-.39Z"/><path class="cls-12" d="M512.5,11.37a2.43,2.43,0,0,1,.38,0l.37,0v2.71a1.61,1.61,0,0,0,0,.26.26.26,0,0,0,.06.15.16.16,0,0,0,.1.08l.16,0h.1l.1,0a2,2,0,0,1,.05.41v.08a.17.17,0,0,1,0,.07l-.2,0h-.22a.92.92,0,0,1-.66-.22.9.9,0,0,1-.25-.72Z"/><path class="cls-12" d="M494.75,17.62l.5,0,.51,0a2.62,2.62,0,0,1,.54.06,1.17,1.17,0,0,1,.49.19,1.16,1.16,0,0,1,.37.39,1.74,1.74,0,0,1,0,1.32,1.35,1.35,0,0,1-.36.39,1.41,1.41,0,0,1-.49.2,3.27,3.27,0,0,1-.53.05h-.25v1.19l-.2,0H495l-.21,0Zm.78,1.91h.26a1.15,1.15,0,0,0,.26,0,.61.61,0,0,0,.23-.11.47.47,0,0,0,.15-.21.68.68,0,0,0,.06-.31.76.76,0,0,0-.06-.32.47.47,0,0,0-.15-.21.63.63,0,0,0-.23-.12,1.15,1.15,0,0,0-.26,0h-.26Z"/><path class="cls-12" d="M497.53,18.68l.23,0h.39l.2,0,.44,2,.51-2a2.05,2.05,0,0,1,.37,0h.23l.16,0,.5,1.94.44-1.94.17,0h.36l.23,0-.86,2.67-.21,0h-.36l-.19,0-.5-1.77-.52,1.77-.21,0h-.36l-.19,0Z"/><path class="cls-12" d="M502.17,18.68l.15,0h.32l.15,0,0,.08a.36.36,0,0,1,0,.1.52.52,0,0,1,0,.11v.09a1.54,1.54,0,0,1,.29-.28.69.69,0,0,1,.43-.13h.12l.1,0a.37.37,0,0,1,0,.12s0,.09,0,.14,0,.12,0,.19l0,.2h-.42a.62.62,0,0,0-.22.1.72.72,0,0,0-.17.23,1.29,1.29,0,0,0-.06.44v1.27l-.19,0h-.38l-.19,0Z"/><path class="cls-12" d="M507.06,21.41a1.73,1.73,0,0,1-.75-.14,1.48,1.48,0,0,1-.52-.4,1.66,1.66,0,0,1-.3-.61,2.59,2.59,0,0,1-.1-.76,2.76,2.76,0,0,1,.1-.77,1.74,1.74,0,0,1,.3-.61,1.37,1.37,0,0,1,.52-.4,1.93,1.93,0,0,1,1.49,0,1.3,1.3,0,0,1,.52.4,1.59,1.59,0,0,1,.3.61,2.76,2.76,0,0,1,.1.77,2.59,2.59,0,0,1-.1.76,1.52,1.52,0,0,1-.3.61,1.39,1.39,0,0,1-.52.4A1.72,1.72,0,0,1,507.06,21.41Zm0-.63c.55,0,.82-.42.82-1.28a1.76,1.76,0,0,0-.2-1,.68.68,0,0,0-.62-.32c-.56,0-.84.43-.84,1.28S506.5,20.78,507.06,20.78Z"/><path class="cls-12" d="M509.37,17.63l.2,0H510l.2,0v3.73l-.2,0h-.38l-.2,0Zm.89,1.85,1-1.84.23,0h.39l.24,0-1.06,1.79,1.15,1.92-.24,0h-.4l-.23,0Z"/><circle class="cls-18" cx="435.38" cy="13.2" r="1.69"/><circle class="cls-19" cx="435.38" cy="19.39" r="1.69"/><circle class="cls-18" cx="453.79" cy="13.2" r="1.69"/><circle class="cls-19" cx="453.79" cy="19.39" r="1.69"/><path class="cls-12" d="M1058,14.52V12.43l-.64.24-.1-.13a1,1,0,0,1-.08-.14,1.45,1.45,0,0,1-.11-.29l1.54-.65h.16v3.06h.76a1.11,1.11,0,0,1,0,.17c0,.05,0,.1,0,.14s0,.11,0,.16a1,1,0,0,1,0,.16h-2.3c0-.06,0-.11,0-.16v-.3s0-.11,0-.17Z"/><path class="cls-12" d="M1061.43,15.21a1.38,1.38,0,0,1-.64-.14,1.08,1.08,0,0,1-.43-.39,1.8,1.8,0,0,1-.24-.6,3.06,3.06,0,0,1-.08-.76,3,3,0,0,1,.08-.76,1.8,1.8,0,0,1,.24-.6,1.08,1.08,0,0,1,.43-.39,1.38,1.38,0,0,1,.64-.14,1.41,1.41,0,0,1,.64.14,1.08,1.08,0,0,1,.43.39,1.62,1.62,0,0,1,.25.6,3.55,3.55,0,0,1,.08.76,3.62,3.62,0,0,1-.08.76,1.62,1.62,0,0,1-.25.6,1.08,1.08,0,0,1-.43.39A1.41,1.41,0,0,1,1061.43,15.21Zm0-.65a.44.44,0,0,0,.41-.3,2.26,2.26,0,0,0,.14-.94,2.23,2.23,0,0,0-.14-.94.43.43,0,0,0-.82,0,2.4,2.4,0,0,0-.14.94,2.44,2.44,0,0,0,.14.94A.44.44,0,0,0,1061.43,14.56Z"/><path class="cls-12" d="M1064.39,11.43l.39,0a2.31,2.31,0,0,1,.37,0l-1.3,3.72a2.43,2.43,0,0,1-.38,0l-.37,0Z"/><path class="cls-12" d="M1066.58,14.52V12.43l-.64.24a1.13,1.13,0,0,0-.1-.13l-.08-.14a2.49,2.49,0,0,1-.11-.29l1.54-.65h.16v3.06h.76a1.11,1.11,0,0,1,0,.17.71.71,0,0,1,0,.14.81.81,0,0,1,0,.16,1,1,0,0,1,0,.16h-2.29a1.1,1.1,0,0,1,0-.16v-.3a1.22,1.22,0,0,1,0-.17Z"/><path class="cls-12" d="M1070,15.21a1.41,1.41,0,0,1-.64-.14,1.08,1.08,0,0,1-.43-.39,1.8,1.8,0,0,1-.24-.6,3.62,3.62,0,0,1-.08-.76,3.55,3.55,0,0,1,.08-.76,1.8,1.8,0,0,1,.24-.6,1.08,1.08,0,0,1,.43-.39,1.41,1.41,0,0,1,.64-.14,1.38,1.38,0,0,1,.64.14,1.1,1.1,0,0,1,.44.39,1.8,1.8,0,0,1,.24.6,3.55,3.55,0,0,1,.08.76,3.62,3.62,0,0,1-.08.76,1.8,1.8,0,0,1-.24.6,1.1,1.1,0,0,1-.44.39A1.38,1.38,0,0,1,1070,15.21Zm0-.65a.43.43,0,0,0,.41-.3,2.26,2.26,0,0,0,.14-.94,2.23,2.23,0,0,0-.14-.94.43.43,0,0,0-.41-.3.45.45,0,0,0-.41.3,2.4,2.4,0,0,0-.14.94,2.44,2.44,0,0,0,.14.94A.45.45,0,0,0,1070,14.56Z"/><path class="cls-12" d="M1073.23,15.21a1.42,1.42,0,0,1-.65-.14,1.15,1.15,0,0,1-.43-.39,1.8,1.8,0,0,1-.24-.6,3.62,3.62,0,0,1-.08-.76,3.55,3.55,0,0,1,.08-.76,1.8,1.8,0,0,1,.24-.6,1.15,1.15,0,0,1,.43-.39,1.56,1.56,0,0,1,1.29,0,1.08,1.08,0,0,1,.43.39,1.8,1.8,0,0,1,.24.6,3,3,0,0,1,.08.76,3.06,3.06,0,0,1-.08.76,1.8,1.8,0,0,1-.24.6,1.08,1.08,0,0,1-.43.39A1.41,1.41,0,0,1,1073.23,15.21Zm0-.65a.44.44,0,0,0,.41-.3,2.44,2.44,0,0,0,.14-.94,2.4,2.4,0,0,0-.14-.94.43.43,0,0,0-.82,0,2.23,2.23,0,0,0-.14.94,2.26,2.26,0,0,0,.14.94A.44.44,0,0,0,1073.23,14.56Z"/><path class="cls-12" d="M1058,20.73v-2.1l-.64.25-.1-.14a.64.64,0,0,1-.08-.14,1.45,1.45,0,0,1-.11-.29l1.54-.65h.16v3.07h.76a1,1,0,0,1,0,.16c0,.05,0,.1,0,.15s0,.1,0,.15a1,1,0,0,1,0,.16h-2.3c0-.06,0-.11,0-.16v-.3c0-.05,0-.1,0-.16Z"/><path class="cls-12" d="M1061.43,21.41a1.38,1.38,0,0,1-.64-.13,1.24,1.24,0,0,1-.43-.39,1.8,1.8,0,0,1-.24-.6,3.14,3.14,0,0,1-.08-.77,3.06,3.06,0,0,1,.08-.76,1.66,1.66,0,0,1,.24-.59,1.08,1.08,0,0,1,.43-.39,1.26,1.26,0,0,1,.64-.14,1.29,1.29,0,0,1,.64.14,1.08,1.08,0,0,1,.43.39,1.51,1.51,0,0,1,.25.59,3.62,3.62,0,0,1,.08.76,3.71,3.71,0,0,1-.08.77,1.62,1.62,0,0,1-.25.6,1.24,1.24,0,0,1-.43.39A1.41,1.41,0,0,1,1061.43,21.41Zm0-.64a.44.44,0,0,0,.41-.31,2.23,2.23,0,0,0,.14-.94,2.29,2.29,0,0,0-.14-.94.43.43,0,0,0-.82,0,2.47,2.47,0,0,0-.14.94,2.4,2.4,0,0,0,.14.94A.44.44,0,0,0,1061.43,20.77Z"/><path class="cls-12" d="M1064.63,21.41a1.41,1.41,0,0,1-.64-.13,1.34,1.34,0,0,1-.43-.39,1.8,1.8,0,0,1-.24-.6,3.71,3.71,0,0,1-.08-.77,3.62,3.62,0,0,1,.08-.76,1.66,1.66,0,0,1,.24-.59,1.15,1.15,0,0,1,.43-.39,1.29,1.29,0,0,1,.64-.14,1.33,1.33,0,0,1,.65.14,1.15,1.15,0,0,1,.43.39,1.66,1.66,0,0,1,.24.59,3.62,3.62,0,0,1,.08.76,3.71,3.71,0,0,1-.08.77,1.8,1.8,0,0,1-.24.6,1.34,1.34,0,0,1-.43.39A1.45,1.45,0,0,1,1064.63,21.41Zm0-.64a.45.45,0,0,0,.42-.31,2.4,2.4,0,0,0,.14-.94,2.47,2.47,0,0,0-.14-.94.44.44,0,0,0-.83,0,2.51,2.51,0,0,0-.13.94,2.44,2.44,0,0,0,.13.94A.45.45,0,0,0,1064.63,20.77Z"/><path class="cls-12" d="M1067.84,21.41a1.38,1.38,0,0,1-.64-.13,1.24,1.24,0,0,1-.43-.39,1.81,1.81,0,0,1-.25-.6,3.74,3.74,0,0,1-.07-.77,3.64,3.64,0,0,1,.07-.76,1.67,1.67,0,0,1,.25-.59,1.08,1.08,0,0,1,.43-.39,1.26,1.26,0,0,1,.64-.14,1.29,1.29,0,0,1,.64.14,1.08,1.08,0,0,1,.43.39,1.87,1.87,0,0,1,.25.59,3.64,3.64,0,0,1,.07.76,3.74,3.74,0,0,1-.07.77,2,2,0,0,1-.25.6,1.24,1.24,0,0,1-.43.39A1.41,1.41,0,0,1,1067.84,21.41Zm0-.64a.44.44,0,0,0,.41-.31,2.4,2.4,0,0,0,.14-.94,2.47,2.47,0,0,0-.14-.94.43.43,0,0,0-.82,0,2.47,2.47,0,0,0-.14.94,2.4,2.4,0,0,0,.14.94A.44.44,0,0,0,1067.84,20.77Z"/><path class="cls-12" d="M1069.92,17.64a2,2,0,0,1,.41,0,1.84,1.84,0,0,1,.41,0l.88,2.13.91-2.13a1.45,1.45,0,0,1,.37,0,1.61,1.61,0,0,1,.39,0l.18,3.71-.38,0a2.19,2.19,0,0,1-.36,0l-.1-2.52-.77,1.75-.16,0h-.3l-.14,0-.73-1.79-.07,2.56-.34,0-.35,0Z"/><circle class="cls-18" cx="1052.67" cy="13.2" r="1.69"/><circle class="cls-19" cx="1052.67" cy="19.39" r="1.69"/><circle class="cls-18" cx="490.87" cy="13.2" r="1.69"/><circle class="cls-19" cx="490.87" cy="19.39" r="1.69"/><path class="cls-12" d="M1076,29.93v-.55l.51-.46c.86-.77,1.28-1.21,1.29-1.67s-.19-.57-.65-.57a1.48,1.48,0,0,0-.84.32l-.26-.66a2.22,2.22,0,0,1,1.29-.4,1.22,1.22,0,0,1,1.38,1.23,2.42,2.42,0,0,1-1,1.69l-.36.31h1.48v.75Z"/><path class="cls-12" d="M1082,26.76h-1.52l-.09.61a1.1,1.1,0,0,1,.26,0,1.8,1.8,0,0,1,1,.29,1.1,1.1,0,0,1,.48,1,1.5,1.5,0,0,1-1.69,1.38,2.56,2.56,0,0,1-1.09-.22l.16-.69a2.37,2.37,0,0,0,.89.19c.38,0,.79-.18.79-.6s-.32-.65-1.11-.65a2.72,2.72,0,0,0-.53,0l.26-2.06H1082Z"/><rect class="cls-16" x="1094.4" y="24.64" width="9.28" height="7.29"/><polygon class="cls-15" points="1099.04 23.28 1101.69 18.69 1096.38 18.69 1099.04 23.28"/><path class="cls-12" d="M1096,29.93v-.55l.51-.46c.86-.77,1.27-1.21,1.29-1.67s-.2-.57-.65-.57a1.48,1.48,0,0,0-.84.32l-.26-.66a2.22,2.22,0,0,1,1.29-.4,1.21,1.21,0,0,1,1.37,1.23,2.4,2.4,0,0,1-1,1.69l-.36.31h1.48v.75Z"/><path class="cls-12" d="M1101.84,26.66a2.16,2.16,0,0,0-.35,0,1.25,1.25,0,0,0-1.28.94h0a1.12,1.12,0,0,1,.84-.31,1.18,1.18,0,0,1,1.21,1.28,1.41,1.41,0,0,1-1.45,1.42,1.54,1.54,0,0,1-1.56-1.72,2.36,2.36,0,0,1,.7-1.74,2.32,2.32,0,0,1,1.51-.58h.37Zm-.5,2a.59.59,0,0,0-1.13-.33.63.63,0,0,0,0,.23c0,.42.21.79.63.79S1101.34,29,1101.34,28.63Z"/><rect class="cls-16" x="1136.47" y="24.64" width="9.28" height="7.29"/><polygon class="cls-15" points="1141.11 18.69 1138.46 23.28 1143.77 23.28 1141.11 18.69"/><path class="cls-12" d="M1138.06,29.93v-.55l.51-.46c.85-.77,1.27-1.21,1.28-1.67s-.19-.57-.64-.57a1.45,1.45,0,0,0-.84.32l-.26-.66a2.16,2.16,0,0,1,1.28-.4,1.22,1.22,0,0,1,1.38,1.23,2.44,2.44,0,0,1-1,1.69l-.37.31h1.48v.75Z"/><path class="cls-12" d="M1144,26.76h-1.53l-.08.61a1,1,0,0,1,.25,0,1.81,1.81,0,0,1,1,.29,1.12,1.12,0,0,1,.47,1,1.49,1.49,0,0,1-1.68,1.38,2.61,2.61,0,0,1-1.1-.22l.17-.69a2.31,2.31,0,0,0,.88.19c.39,0,.79-.18.79-.6s-.32-.65-1.1-.65a2.9,2.9,0,0,0-.54,0l.26-2.06H1144Z"/><rect class="cls-16" x="1156.41" y="24.64" width="9.28" height="7.29"/><polygon class="cls-15" points="1161.05 23.28 1163.7 18.69 1158.4 18.69 1161.05 23.28"/><path class="cls-12" d="M1158,29.93v-.55l.5-.46c.86-.77,1.28-1.21,1.29-1.67s-.19-.57-.65-.57a1.5,1.5,0,0,0-.84.32l-.26-.66a2.22,2.22,0,0,1,1.29-.4,1.22,1.22,0,0,1,1.38,1.23,2.44,2.44,0,0,1-1,1.69l-.37.31h1.48v.75Z"/><path class="cls-12" d="M1163.86,26.66a2.3,2.3,0,0,0-.36,0,1.26,1.26,0,0,0-1.28.94h0a1.1,1.1,0,0,1,.83-.31,1.19,1.19,0,0,1,1.22,1.28,1.41,1.41,0,0,1-1.45,1.42,1.54,1.54,0,0,1-1.56-1.72,2.17,2.17,0,0,1,2.21-2.32h.37Zm-.5,2a.61.61,0,0,0-.59-.68.59.59,0,0,0-.54.35.45.45,0,0,0,0,.23c0,.42.22.79.64.79S1163.36,29,1163.36,28.63Z"/><path class="cls-14" d="M1209.45,30.23v-.46l.42-.38c.71-.64,1.05-1,1.06-1.39s-.16-.47-.53-.47a1.19,1.19,0,0,0-.7.27l-.21-.55a1.8,1.8,0,0,1,1.06-.33,1,1,0,0,1,1.14,1,2,2,0,0,1-.86,1.4l-.3.25h1.22v.63Z"/><path class="cls-14" d="M1214.55,27v.48l-1.34,2.78h-.8l1.34-2.62h-1.49V27Z"/><rect class="cls-13" x="1227.46" y="24.69" width="9.28" height="7.9"/><polygon class="cls-15" points="1231.92 23.4 1234.96 18.14 1228.88 18.14 1231.92 23.4"/><path class="cls-14" d="M1229.53,30.23v-.46l.42-.38c.71-.64,1.06-1,1.07-1.39s-.16-.47-.54-.47a1.16,1.16,0,0,0-.69.27l-.22-.55a1.86,1.86,0,0,1,1.07-.33,1,1,0,0,1,1.14,1,2,2,0,0,1-.87,1.4l-.3.25h1.23v.63Z"/><path class="cls-14" d="M1232.26,29.38a.85.85,0,0,1,.58-.82v0a.78.78,0,0,1-.47-.71c0-.55.49-.91,1.14-.91s1.08.44,1.08.83a.8.8,0,0,1-.47.72h0a.87.87,0,0,1,.59.82c0,.59-.49,1-1.25,1S1232.26,29.82,1232.26,29.38Zm1.68,0c0-.29-.21-.46-.51-.54a.5.5,0,0,0-.4.49.45.45,0,0,0,.46.46A.42.42,0,0,0,1233.94,29.35Zm-.86-1.54c0,.22.2.36.46.44a.44.44,0,0,0,.33-.42.4.4,0,0,0-.79,0Z"/><circle class="cls-12" cx="151.79" cy="45.97" r="4.25"/><circle class="cls-12" cx="87.2" cy="57.51" r="3.23"/><circle class="cls-20" cx="118.85" cy="60.53" r="2.38"/><path class="cls-12" d="M114.9,50.22h2.17a1.17,1.17,0,0,1,0,.32,1.12,1.12,0,0,1,0,.32h-1.4v.88h1.12a1.82,1.82,0,0,1,0,.32,1.66,1.66,0,0,1,0,.32h-1.12v1.56l-.38,0a2.56,2.56,0,0,1-.39,0Z"/><path class="cls-12" d="M118.87,52.18a.4.4,0,0,0,0-.2.34.34,0,0,0-.12-.12.48.48,0,0,0-.18-.06h-.24a2,2,0,0,0-.62.1,1.06,1.06,0,0,1-.11-.25.79.79,0,0,1,0-.28,3,3,0,0,1,.47-.12l.44,0a1.35,1.35,0,0,1,.87.25,1,1,0,0,1,.31.83v1.55a3.3,3.3,0,0,1-.45.11,2.84,2.84,0,0,1-.61,0,2.6,2.6,0,0,1-.5,0,1.14,1.14,0,0,1-.39-.16.76.76,0,0,1-.25-.28.87.87,0,0,1-.09-.42.76.76,0,0,1,.11-.41.94.94,0,0,1,.29-.27,1.16,1.16,0,0,1,.38-.15,2.15,2.15,0,0,1,.43,0h.34Zm0,.54-.14,0h-.13a.8.8,0,0,0-.41.09.32.32,0,0,0-.16.29.33.33,0,0,0,.06.21.49.49,0,0,0,.14.11l.18,0h.32l.14,0Z"/><path class="cls-12" d="M120.28,51.27l.15,0h.33l.14,0,0,.07,0,.11s0,.07,0,.1l0,.09a1.53,1.53,0,0,1,.13-.16.76.76,0,0,1,.17-.13.91.91,0,0,1,.22-.11,1.12,1.12,0,0,1,.27,0,1,1,0,0,1,.71.24,1.1,1.1,0,0,1,.24.78v1.71l-.38,0-.38,0V52.43a.83.83,0,0,0-.09-.43.32.32,0,0,0-.3-.15.58.58,0,0,0-.19,0,.46.46,0,0,0-.18.1.53.53,0,0,0-.12.21,1.08,1.08,0,0,0,0,.35v1.4a2.43,2.43,0,0,1-.38,0l-.38,0Z"/><path class="cls-12" d="M134.17,48.25a1.89,1.89,0,0,1-.75-.14,1.48,1.48,0,0,1-.52-.4,1.83,1.83,0,0,1-.3-.61,3,3,0,0,1-.1-.76,3.12,3.12,0,0,1,.1-.77,1.93,1.93,0,0,1,.3-.61,1.37,1.37,0,0,1,.52-.4,2,2,0,0,1,1.5,0,1.37,1.37,0,0,1,.52.4,1.93,1.93,0,0,1,.3.61,3.12,3.12,0,0,1,.1.77,3,3,0,0,1-.1.76,1.83,1.83,0,0,1-.3.61,1.48,1.48,0,0,1-.52.4A1.89,1.89,0,0,1,134.17,48.25Zm0-.63c.55,0,.83-.43.83-1.28a1.86,1.86,0,0,0-.2-1,.67.67,0,0,0-.62-.32c-.56,0-.84.43-.84,1.28S133.61,47.62,134.17,47.62Z"/><path class="cls-12" d="M136.48,44.47l.2,0h.38l.2,0V48.2l-.2,0h-.38l-.2,0Zm.89,1.85,1-1.85.22,0H139l.24,0-1.05,1.8,1.14,1.92-.24,0h-.39l-.23,0Z"/><path class="cls-12" d="M132.61,50.54h2.17a1.06,1.06,0,0,1,0,.31,1.19,1.19,0,0,1,0,.33h-1.4v.87h1.12a1.82,1.82,0,0,1,0,.32,1.84,1.84,0,0,1,0,.33h-1.12v1.55l-.38,0a2.56,2.56,0,0,1-.39,0Z"/><path class="cls-12" d="M136.58,52.5a.44.44,0,0,0,0-.21.34.34,0,0,0-.12-.12.48.48,0,0,0-.18-.06H136a1.77,1.77,0,0,0-.62.11,1.12,1.12,0,0,1-.11-.26,1.11,1.11,0,0,1,0-.28l.47-.12.44,0a1.29,1.29,0,0,1,.87.26,1,1,0,0,1,.31.82v1.56l-.45.1a2.8,2.8,0,0,1-.61.06,2.65,2.65,0,0,1-.5,0,1,1,0,0,1-.39-.16.76.76,0,0,1-.25-.28.86.86,0,0,1-.08-.41.77.77,0,0,1,.1-.42.94.94,0,0,1,.29-.27,1.15,1.15,0,0,1,.38-.14,2.18,2.18,0,0,1,.43-.05l.34,0Zm0,.53-.14,0h-.13a.8.8,0,0,0-.41.09.32.32,0,0,0-.15.29.29.29,0,0,0,.2.32l.17,0h.16l.16,0,.14,0Z"/><path class="cls-12" d="M138.14,52.14h-.35a.7.7,0,0,1,0-.14s0-.1,0-.15a.84.84,0,0,1,0-.27h1.1v2.67l-.38,0-.37,0Zm-.11-1a2.07,2.07,0,0,1,0-.35,2,2,0,0,1,0-.34l.2,0h.38l.2,0a1,1,0,0,1,0,.17,1,1,0,0,1,0,.17.91.91,0,0,1,0,.17,1.1,1.1,0,0,1,0,.18l-.19,0h-.39Z"/><path class="cls-12" d="M139.61,50.47l.38,0a2.31,2.31,0,0,1,.37,0v2.72a1.72,1.72,0,0,0,0,.26,1.16,1.16,0,0,0,.06.15.16.16,0,0,0,.11.07.37.37,0,0,0,.16,0h.09l.1,0a1.58,1.58,0,0,1,.06.42v.07s0,.05,0,.08a1.18,1.18,0,0,1-.21,0h-.22a1,1,0,0,1-.66-.22.88.88,0,0,1-.25-.71Z"/><circle class="cls-20" cx="118.85" cy="44.9" r="2.38"/><circle class="cls-20" cx="151.29" cy="60.53" r="2.38"/><circle class="cls-20" cx="151.29" cy="73.65" r="2.38"/><circle class="cls-21" cx="129.45" cy="46.23" r="1.68"/><circle class="cls-22" cx="129.45" cy="52.26" r="1.68"/><path class="cls-20" d="M89.09,40.31v1.08a3.88,3.88,0,1,1-3.18-.07v-1a4.87,4.87,0,1,0,3.18,0Z"/><rect class="cls-20" x="86.75" y="39.22" width="1.5" height="6.83"/><rect class="cls-23" x="160.1" y="41.72" width="13.4" height="6.47"/><rect class="cls-23" x="158" y="54.63" width="10.98" height="12.43"/><path class="cls-12" d="M161.91,43.35l.32,0,.32,0,.68,1.65.7-1.65.28,0,.31,0,.14,2.88a1.62,1.62,0,0,1-.3,0,1.32,1.32,0,0,1-.28,0L164,44.28l-.6,1.35h-.36l-.11,0-.56-1.38-.06,2a1.1,1.1,0,0,1-.25,0,1.37,1.37,0,0,1-.28,0Z"/><path class="cls-12" d="M166.11,46.28a1.26,1.26,0,0,1-.46-.08.9.9,0,0,1-.31-.23.88.88,0,0,1-.19-.34,1.21,1.21,0,0,1-.07-.43,1.25,1.25,0,0,1,.07-.43.88.88,0,0,1,.19-.34.79.79,0,0,1,.31-.23,1.08,1.08,0,0,1,.46-.09,1.06,1.06,0,0,1,.45.09.75.75,0,0,1,.32.23.88.88,0,0,1,.19.34,1.25,1.25,0,0,1,.07.43,1.21,1.21,0,0,1-.07.43.88.88,0,0,1-.19.34.85.85,0,0,1-.32.23A1.25,1.25,0,0,1,166.11,46.28Zm0-.43a.37.37,0,0,0,.33-.17,1.2,1.2,0,0,0,0-1,.42.42,0,0,0-.66,0,1.2,1.2,0,0,0,0,1A.37.37,0,0,0,166.11,45.85Z"/><path class="cls-12" d="M168.88,43.31l.15,0h.28l.15,0v2.85a2.74,2.74,0,0,1-.39.09,3.48,3.48,0,0,1-.49,0,1.52,1.52,0,0,1-.42-.06,1.06,1.06,0,0,1-.35-.18,1,1,0,0,1-.24-.33,1.19,1.19,0,0,1-.09-.49,1.06,1.06,0,0,1,.08-.43,1.13,1.13,0,0,1,.21-.35,1.15,1.15,0,0,1,.8-.32h.15l.16,0Zm0,1.28-.13,0h-.13a.54.54,0,0,0-.24,0,.5.5,0,0,0-.17.15.68.68,0,0,0-.1.21,1,1,0,0,0,0,.25,1.11,1.11,0,0,0,0,.28.41.41,0,0,0,.12.18.37.37,0,0,0,.17.1.71.71,0,0,0,.21,0h.13l.13,0Z"/><path class="cls-12" d="M170.49,45.37a.45.45,0,0,0,.18.35.71.71,0,0,0,.41.11,1.43,1.43,0,0,0,.29,0l.28-.07a1.21,1.21,0,0,1,.08.19.88.88,0,0,1,0,.24,2,2,0,0,1-.72.12,1.52,1.52,0,0,1-.51-.08,1,1,0,0,1-.35-.22.9.9,0,0,1-.2-.34,1.44,1.44,0,0,1-.06-.43,1.54,1.54,0,0,1,.06-.43.94.94,0,0,1,.52-.58,1.06,1.06,0,0,1,.45-.09,1,1,0,0,1,.4.08.86.86,0,0,1,.29.21,1.08,1.08,0,0,1,.19.31,1.23,1.23,0,0,1,.06.39.76.76,0,0,1,0,.15s0,.09,0,.12Zm.84-.4a.47.47,0,0,0-.11-.31.36.36,0,0,0-.28-.11.38.38,0,0,0-.31.11.49.49,0,0,0-.13.31Z"/><path class="cls-12" d="M158.8,56.62l.38,0,.38,0v2.63h1.32a.89.89,0,0,1,0,.15.62.62,0,0,1,0,.13.66.66,0,0,1,0,.14.77.77,0,0,1,0,.15H158.8Z"/><path class="cls-12" d="M161.51,58h-.36a.37.37,0,0,1,0-.12.49.49,0,0,1,0-.12,1,1,0,0,1,0-.24h1.09v2.31l-.37,0-.36,0Zm-.11-.86a1.14,1.14,0,0,1,0-.6l.19,0H162l.2,0a.77.77,0,0,1,0,.15s0,.1,0,.15,0,.1,0,.15a.77.77,0,0,1,0,.15h-.77Z"/><path class="cls-12" d="M163,57.51l.15,0h.33l.14,0,0,.07s0,.06,0,.09,0,.06,0,.09a.2.2,0,0,1,0,.07l.13-.13.17-.12.22-.09a1.12,1.12,0,0,1,.27,0,1,1,0,0,1,.7.21.88.88,0,0,1,.24.68v1.47l-.38,0-.37,0v-1.3a.63.63,0,0,0-.09-.37.33.33,0,0,0-.3-.13.62.62,0,0,0-.19,0,.32.32,0,0,0-.17.09.52.52,0,0,0-.13.18.8.8,0,0,0,0,.3v1.21l-.38,0-.38,0Z"/><path class="cls-12" d="M166,56.56a2.36,2.36,0,0,1,.38,0,2.3,2.3,0,0,1,.37,0v3.26l-.37,0-.38,0Zm.86,2,.67-1.1.42,0,.39,0-.69,1.07.81,1.24-.42,0-.39,0Z"/><path class="cls-12" d="M160.83,62l.21,0h.43l.22,0,1.2,3.2-.43,0-.39,0-.21-.64H160.6l-.22.64-.36,0-.39,0Zm.85,2-.44-1.35L160.78,64Z"/><path class="cls-12" d="M165.07,64.61a1,1,0,0,1,.11.21.79.79,0,0,1,0,.28,1.53,1.53,0,0,1-.4.09l-.38,0a1.8,1.8,0,0,1-.6-.09,1.23,1.23,0,0,1-.42-.25,1,1,0,0,1-.25-.38,1.28,1.28,0,0,1-.09-.48,1.4,1.4,0,0,1,.08-.47,1.14,1.14,0,0,1,.25-.39,1.09,1.09,0,0,1,.42-.25,1.45,1.45,0,0,1,.57-.1h.41l.18,0,.2.06a1,1,0,0,1,0,.23,1.22,1.22,0,0,1-.1.24l-.28-.06-.27,0a.65.65,0,0,0-.5.18.76.76,0,0,0-.17.52.67.67,0,0,0,.18.52.71.71,0,0,0,.49.17h.15l.13,0,.13,0Z"/><path class="cls-12" d="M165.82,63.34h-.34l0-.09,1-1.07h.13v.68h.64s0,.08,0,.12v.23s0,.08,0,.13h-.64v.9a.68.68,0,0,0,0,.22.47.47,0,0,0,.08.14.23.23,0,0,0,.12.06l.18,0h.15l.14,0a1.09,1.09,0,0,1,.05.17,1.28,1.28,0,0,1,0,.17v.08a.13.13,0,0,0,0,.06,2.15,2.15,0,0,1-.51.05,1.18,1.18,0,0,1-.73-.19.71.71,0,0,1-.26-.61Z"/><rect class="cls-23" x="158" y="70.77" width="10.98" height="6.92"/><path class="cls-12" d="M159.42,72.36l.49,0h.5a3.29,3.29,0,0,1,.54.05,1.49,1.49,0,0,1,.49.16,1,1,0,0,1,.36.35,1.19,1.19,0,0,1,0,1.12,1,1,0,0,1-.35.34,1.36,1.36,0,0,1-.49.17,3.17,3.17,0,0,1-.53,0h-.24v1l-.19,0h-.38l-.2,0Zm.77,1.65h.26a1.07,1.07,0,0,0,.25,0,.6.6,0,0,0,.23-.1.44.44,0,0,0,.16-.17.68.68,0,0,0,0-.27.78.78,0,0,0,0-.28.55.55,0,0,0-.16-.18.6.6,0,0,0-.23-.1,1.07,1.07,0,0,0-.25,0h-.11l-.15,0Z"/><path class="cls-12" d="M163.58,75.63a1.72,1.72,0,0,1-.58-.09,1.24,1.24,0,0,1-.4-.25,1.19,1.19,0,0,1-.25-.38,1.51,1.51,0,0,1-.08-.48,1.45,1.45,0,0,1,.08-.47,1.14,1.14,0,0,1,.25-.39,1.09,1.09,0,0,1,.4-.25,1.5,1.5,0,0,1,.58-.1,1.52,1.52,0,0,1,.59.1,1.13,1.13,0,0,1,.41.25,1,1,0,0,1,.24.39,1.22,1.22,0,0,1,.08.47,1.27,1.27,0,0,1-.08.48,1,1,0,0,1-.24.38,1.29,1.29,0,0,1-.41.25A1.74,1.74,0,0,1,163.58,75.63Zm0-.48A.5.5,0,0,0,164,75a.94.94,0,0,0,.13-.54.88.88,0,0,0-.13-.53.5.5,0,0,0-.43-.18.49.49,0,0,0-.42.18,1,1,0,0,0-.13.53,1,1,0,0,0,.13.54A.49.49,0,0,0,163.58,75.15Z"/><path class="cls-12" d="M165.5,72.38h2.16a1.24,1.24,0,0,1,0,.27,1.27,1.27,0,0,1,0,.28h-1.39v.69h1.1a1.41,1.41,0,0,1,0,.28,1.33,1.33,0,0,1,0,.28h-1.1V75h1.42a1.1,1.1,0,0,1,0,.27,1.35,1.35,0,0,1,0,.28H165.5Z"/><path class="cls-14" d="M72.1,101.73A18.13,18.13,0,0,1,75,101.5a5.85,5.85,0,0,1,3.88,1.15,4.09,4.09,0,0,1,1.4,3.32,6.19,6.19,0,0,1-2.19,4.89,7.71,7.71,0,0,1-5.09,1.4,18.16,18.16,0,0,1-2.9-.19Zm.63,8.64a5.7,5.7,0,0,0,1,.06,3.91,3.91,0,0,0,3-1.24,4.7,4.7,0,0,0,1.11-3.2c0-1.67-.93-2.66-2.81-2.66a5.15,5.15,0,0,0-1,.06Z"/><path class="cls-14" d="M87.73,107.69H84l-.49,2.57H87.7l-.36,1.94H80.83l2-10.62h6.29l-.38,1.94h-4l-.44,2.27H88.1Z"/><path class="cls-14" d="M89.43,109.74a5,5,0,0,0,2.51.68c.88,0,1.69-.41,1.69-1.25,0-.59-.46-1-1.44-1.49S90,106.24,90,104.85c0-2.14,1.88-3.45,4.2-3.45a5,5,0,0,1,2.5.54L96,103.83a4.13,4.13,0,0,0-2-.47c-1.06,0-1.61.53-1.61,1.12s.65,1,1.55,1.49c1.29.68,2.11,1.55,2.11,2.81,0,2.36-2,3.58-4.32,3.58a5.29,5.29,0,0,1-3-.76Z"/><path class="cls-14" d="M101.49,107.27l-.3,1.59H97.11l.3-1.59Z"/><path class="cls-14" d="M106.2,104.08h0l-2,.9-.06-1.78,2.85-1.24h1.85l-1.93,10.24h-2.19Z"/><path class="cls-14" d="M110.27,112.2l.26-1.47,2.21-1.7c2.05-1.67,3.37-2.87,3.37-4.1,0-.72-.5-1.24-1.42-1.24a4,4,0,0,0-2.15.6l-.46-1.63a6.36,6.36,0,0,1,3.17-.88c2.08,0,3.2,1.22,3.2,2.79,0,2.1-1.68,3.55-3.49,4.94l-1,.72v0h3.68l-.37,1.94Z"/><path class="cls-14" d="M123.25,104.08h0l-2,.9-.06-1.78L124,102h1.85l-1.93,10.24h-2.19Z"/><path class="cls-14" d="M135.73,105.3c0,3.2-1.54,7.07-4.77,7.07-2.13,0-3-1.64-3-3.68,0-3.24,1.64-6.91,4.79-6.91C135,101.78,135.73,103.47,135.73,105.3Zm-5.51,3.46c0,.76.12,1.82,1,1.82,1.56,0,2.25-3.91,2.25-5.27,0-.68-.09-1.73-1-1.73C131,103.58,130.22,107.27,130.22,108.76Z"/><path class="cls-14" d="M140.66,107.27l-.3,1.59h-4.08l.3-1.59Z"/><path class="cls-14" d="M140.91,112.2l.27-1.47,2.21-1.7c2.05-1.67,3.37-2.87,3.37-4.1,0-.72-.5-1.24-1.42-1.24a4.06,4.06,0,0,0-2.16.6l-.45-1.63a6.36,6.36,0,0,1,3.16-.88c2.09,0,3.2,1.22,3.2,2.79,0,2.1-1.67,3.55-3.48,4.94l-1,.72v0h3.67l-.36,1.94Z"/><path class="cls-14" d="M157.78,104.27a2.75,2.75,0,0,1-1.85,2.43v0a2.63,2.63,0,0,1,1.42,2.27c0,2.24-2.15,3.35-4.15,3.35-2.16,0-3.42-1.11-3.42-2.63a3.16,3.16,0,0,1,2.19-2.91l0,0a2.31,2.31,0,0,1-1-1.92c0-1.91,1.8-3.09,3.78-3.09C156.41,101.78,157.78,102.65,157.78,104.27Zm-2.82,5a1.66,1.66,0,0,0-1.33-1.56,1.86,1.86,0,0,0-1.48,1.76,1.21,1.21,0,0,0,1.29,1.28A1.47,1.47,0,0,0,155,109.24Zm-1.83-4.51c0,.66.52,1.07,1.19,1.31a1.73,1.73,0,0,0,1.27-1.52,1,1,0,0,0-1.11-1.08A1.34,1.34,0,0,0,153.13,104.73Z"/><path class="cls-14" d="M160.28,101.78a12.65,12.65,0,0,1,2.77-.28,5,5,0,0,1,2.83.71,2.6,2.6,0,0,1,1.15,2.25,3.72,3.72,0,0,1-1.45,3,5.59,5.59,0,0,1-3.39,1,7.22,7.22,0,0,1-.93-.06l-.73,3.83h-2.22Zm1.32,4.75a4.91,4.91,0,0,0,.87.07,2.06,2.06,0,0,0,2.27-1.93c0-1-.74-1.36-1.62-1.36a3.89,3.89,0,0,0-.92.08Z"/></svg>